<svg width="144" height="51" viewBox="0 0 144 51" xmlns="http://www.w3.org/2000/svg" preserveAspectRatio="xMidYMid meet"><g fill="#00C051"><path d="M34.5 0c-8.541 0-15.5 6.959-15.5 15.5s6.959 15.5 15.5 15.5 15.5-6.959 15.5-15.5c0-8.604-6.959-15.5-15.5-15.5m-.5 23c-4.403 0-8-3.597-8-8 0-4.403 3.597-8 8-8 4.403 0 8 3.597 8 8 0 4.403-3.597 8-8 8" id="Shape"/><path d="M88 21h8v30h-8z"/><path d="M7.907 50v-36.007l-7.907 2.612v-9.204l18-7.4v50h-10.093zM58.834 1h10.166l-20.897 49h-10.103l20.834-49zM132 26.913c-1.741 0-3.358.373-4.788.996v-6.909h-7.212v29.502h6.902v-.685c1.554.747 3.295 1.183 5.098 1.183 6.591 0 12-5.353 12-12.012 0-6.66-5.409-12.075-12-12.075m-.5 17.087c-3.056 0-5.5-2.444-5.5-5.5s2.444-5.5 5.5-5.5c2.994 0 5.5 2.444 5.5 5.5s-2.444 5.5-5.5 5.5" id="Shape"/><path d="M110.704 28v12.949c0 1.727-1.459 3.145-3.236 3.145-1.776 0-3.172-1.418-3.172-3.145v-12.949h-7.296v12.764c0 5.611 4.695 10.236 10.468 10.236 1.776 0 3.363-.432 4.822-1.172v.678h5.71v-22.507h-7.296zM79.36 39.233c-1.304 2.657-3.975 4.429-7.081 4.429-4.41 0-8.012-3.669-8.012-8.161 0-4.492 3.602-8.161 8.012-8.161 3.106 0 5.776 1.835 7.081 4.429h7.64c-1.615-6.769-7.64-11.767-14.783-11.767-8.385 0-15.217 6.959-15.217 15.5s6.832 15.5 15.217 15.5c7.143 0 13.106-4.998 14.783-11.767h-7.64z"/></g></svg>