<?xml version="1.0" encoding="iso-8859-1"?>
<!-- Generator: Adobe Illustrator 16.0.0, SVG Export Plug-In . SVG Version: 6.00 Build 0)  -->
<!DOCTYPE svg PUBLIC "-//W3C//DTD SVG 1.1//EN" "http://www.w3.org/Graphics/SVG/1.1/DTD/svg11.dtd">
<svg version="1.1" id="Layer_1" xmlns="http://www.w3.org/2000/svg" xmlns:xlink="http://www.w3.org/1999/xlink" x="0px" y="0px"
	 width="14px" height="17px" viewBox="0 0 14 17" style="enable-background:new 0 0 14 17;" xml:space="preserve">
<path id="Add_to_Clipboard_1" style="fill-rule:evenodd;clip-rule:evenodd;" d="M11,2v2.548C11,4.825,10.776,5,10.5,5h-7
	C3.224,5,3,4.825,3,4.548V2H1C0.45,2,0,2.499,0,3.048v13C0,16.598,0.45,17,1,17h12c0.55,0,1-0.402,1-0.952v-13
	C14,2.499,13.55,2,13,2H11z M4.5,9H6V7.548C6,7.272,6.224,7,6.5,7h1C7.776,7,8,7.272,8,7.548V9h1.5C9.776,9,10,9.272,10,9.548v1
	C10,10.825,9.776,11,9.5,11H8v1.548C8,12.825,7.776,13,7.5,13h-1C6.224,13,6,12.825,6,12.548V11H4.5C4.224,11,4,10.825,4,10.548v-1
	C4,9.272,4.224,9,4.5,9z M9,1H8c0-1-0.447-1-1-1S6,0,6,1H5C4.354,1,4,1.465,4,2.048v1.5C4,3.825,4.224,4,4.5,4h5
	C9.776,4,10,3.825,10,3.548v-1.5C10,1.465,9.729,1,9,1z"/>
<g>
</g>
<g>
</g>
<g>
</g>
<g>
</g>
<g>
</g>
<g>
</g>
<g>
</g>
<g>
</g>
<g>
</g>
<g>
</g>
<g>
</g>
<g>
</g>
<g>
</g>
<g>
</g>
<g>
</g>
</svg>
