<?xml version="1.0" encoding="iso-8859-1"?>
<!-- Generator: Adobe Illustrator 16.0.0, SVG Export Plug-In . SVG Version: 6.00 Build 0)  -->
<!DOCTYPE svg PUBLIC "-//W3C//DTD SVG 1.1//EN" "http://www.w3.org/Graphics/SVG/1.1/DTD/svg11.dtd">
<svg version="1.1" id="Layer_1" xmlns="http://www.w3.org/2000/svg" xmlns:xlink="http://www.w3.org/1999/xlink" x="0px" y="0px"
	 width="20px" height="16px" viewBox="0 0 20 16" style="enable-background:new 0 0 20 16;" xml:space="preserve">
<g id="Add_User_1">
	<path d="M19.5,6H18V4.5C18,4.224,17.776,4,17.5,4h-1C16.224,4,16,4.224,16,4.5V6h-1.5C14.224,6,14,6.224,14,6.5v1
		C14,7.776,14.224,8,14.5,8H16v1.5c0,0.276,0.224,0.5,0.5,0.5h1c0.276,0,0.5-0.224,0.5-0.5V8h1.5C19.776,8,20,7.776,20,7.5v-1
		C20,6.224,19.776,6,19.5,6z"/>
	<path d="M10,9.164V8.445C11.19,7.752,12,6.477,12,5V4c0-2.209-1.791-4-4-4S4,1.791,4,4v1c0,1.477,0.81,2.752,2,3.445v0.719
		C2.551,9.72,0,11.671,0,14v1c0,0.553,0.448,1,1,1h14c0.552,0,1-0.447,1-1v-1C16,11.671,13.449,9.72,10,9.164z"/>
</g>
<g>
</g>
<g>
</g>
<g>
</g>
<g>
</g>
<g>
</g>
<g>
</g>
<g>
</g>
<g>
</g>
<g>
</g>
<g>
</g>
<g>
</g>
<g>
</g>
<g>
</g>
<g>
</g>
<g>
</g>
</svg>
