<?xml version="1.0" encoding="iso-8859-1"?>
<!-- Generator: Adobe Illustrator 16.0.0, SVG Export Plug-In . SVG Version: 6.00 Build 0)  -->
<!DOCTYPE svg PUBLIC "-//W3C//DTD SVG 1.1//EN" "http://www.w3.org/Graphics/SVG/1.1/DTD/svg11.dtd">
<svg version="1.1" id="Layer_1" xmlns="http://www.w3.org/2000/svg" xmlns:xlink="http://www.w3.org/1999/xlink" x="0px" y="0px"
	 width="16px" height="16px" viewBox="0 0 16 16" style="enable-background:new 0 0 16 16;" xml:space="preserve">
<path id="Align_Right_1" d="M16,1c0-0.553-0.447-1-1-1H1C0.447,0,0,0.447,0,1v14c0,0.553,0.447,1,1,1h14c0.553,0,1-0.447,1-1V1z
	 M12,10.5c0,0.276-0.224,0.5-0.5,0.5h-3C8.224,11,8,10.776,8,10.5v-1C8,9.224,8.224,9,8.5,9h3C11.776,9,12,9.224,12,9.5V10.5z
	 M12,6.5C12,6.776,11.776,7,11.5,7h-5C6.224,7,6,6.776,6,6.5v-1C6,5.224,6.224,5,6.5,5h5C11.776,5,12,5.224,12,5.5V6.5z"/>
<g>
</g>
<g>
</g>
<g>
</g>
<g>
</g>
<g>
</g>
<g>
</g>
<g>
</g>
<g>
</g>
<g>
</g>
<g>
</g>
<g>
</g>
<g>
</g>
<g>
</g>
<g>
</g>
<g>
</g>
</svg>
