<?xml version="1.0" encoding="iso-8859-1"?>
<!-- Generator: Adobe Illustrator 16.0.0, SVG Export Plug-In . SVG Version: 6.00 Build 0)  -->
<!DOCTYPE svg PUBLIC "-//W3C//DTD SVG 1.1//EN" "http://www.w3.org/Graphics/SVG/1.1/DTD/svg11.dtd">
<svg version="1.1" id="Layer_1" xmlns="http://www.w3.org/2000/svg" xmlns:xlink="http://www.w3.org/1999/xlink" x="0px" y="0px"
	 width="16px" height="14px" viewBox="0 0 16 14" style="enable-background:new 0 0 16 14;" xml:space="preserve">
<path id="Basket_1" d="M15.788,5.385C15.599,5.142,15.309,5,15,5h-3V1c0-0.553-0.447-1-1-1H5C4.447,0,4,0.447,4,1v4H1
	C0.691,5,0.401,5.142,0.212,5.385C0.022,5.627-0.045,5.943,0.029,6.242l2,7C2.141,13.688,2.541,14,3,14h10
	c0.459,0,0.859-0.312,0.971-0.758l2-7C16.045,5.943,15.978,5.627,15.788,5.385z M6,2h4v3H6V2z"/>
<g>
</g>
<g>
</g>
<g>
</g>
<g>
</g>
<g>
</g>
<g>
</g>
<g>
</g>
<g>
</g>
<g>
</g>
<g>
</g>
<g>
</g>
<g>
</g>
<g>
</g>
<g>
</g>
<g>
</g>
</svg>
