<?xml version="1.0" encoding="iso-8859-1"?>
<!-- Generator: Adobe Illustrator 16.0.0, SVG Export Plug-In . SVG Version: 6.00 Build 0)  -->
<!DOCTYPE svg PUBLIC "-//W3C//DTD SVG 1.1//EN" "http://www.w3.org/Graphics/SVG/1.1/DTD/svg11.dtd">
<svg version="1.1" id="Layer_1" xmlns="http://www.w3.org/2000/svg" xmlns:xlink="http://www.w3.org/1999/xlink" x="0px" y="0px"
	 width="18px" height="15px" viewBox="0 0 18 15" style="enable-background:new 0 0 18 15;" xml:space="preserve">
<path id="Bike_1_x2C__Travel_4" d="M14.603,7.061L12.767,4H14c1.104,0,2-0.896,2-2s-0.896-2-2-2s-2,0.896-2,2h-1H9H5
	C4.523,2,4.113,2.337,4.02,2.804L3.162,7.092C1.357,7.479,0,9.082,0,11c0,2.206,1.794,4,4,4s4-1.794,4-4
	c0-0.207-0.03-0.406-0.062-0.605l1.894-2.84C10.067,7.202,10.055,6.739,9.8,6.4L8,4h1h1.434l1.994,3.323
	C11.002,7.936,10,9.353,10,11c0,2.206,1.794,4,4,4s4-1.794,4-4C18,9,16.521,7.354,14.603,7.061z M4,13c-1.103,0-2-0.897-2-2
	s0.897-2,2-2s2,0.897,2,2S5.103,13,4,13z M5.18,7.198l0.572-2.862l2.023,2.698L6.932,8.3C6.461,7.788,5.859,7.409,5.18,7.198z
	 M14,13c-1.103,0-2-0.897-2-2s0.897-2,2-2s2,0.897,2,2S15.103,13,14,13z"/>
<g>
</g>
<g>
</g>
<g>
</g>
<g>
</g>
<g>
</g>
<g>
</g>
<g>
</g>
<g>
</g>
<g>
</g>
<g>
</g>
<g>
</g>
<g>
</g>
<g>
</g>
<g>
</g>
<g>
</g>
</svg>
