<?xml version="1.0" encoding="iso-8859-1"?>
<!-- Generator: Adobe Illustrator 16.0.0, SVG Export Plug-In . SVG Version: 6.00 Build 0)  -->
<!DOCTYPE svg PUBLIC "-//W3C//DTD SVG 1.1//EN" "http://www.w3.org/Graphics/SVG/1.1/DTD/svg11.dtd">
<svg version="1.1" id="Layer_1" xmlns="http://www.w3.org/2000/svg" xmlns:xlink="http://www.w3.org/1999/xlink" x="0px" y="0px"
	 width="14px" height="16px" viewBox="0 0 14 16" style="enable-background:new 0 0 14 16;" xml:space="preserve">
<path id="Book_4" d="M0,3v10c0,1.66,1.34,3,3,3h10c0.553,0,1-0.447,1-1v-0.5c0-0.276-0.224-0.5-0.5-0.5H3c-0.55,0-1-0.45-1-1
	s0.45-1,1-1h10c0.553,0,1-0.447,1-1V1c0-0.553-0.447-1-1-1H3C1.34,0,0,1.34,0,3z M10.5,8h-6C4.224,8,4,7.776,4,7.5v-1
	C4,6.224,4.224,6,4.5,6h6C10.776,6,11,6.224,11,6.5v1C11,7.776,10.776,8,10.5,8z M10.5,5h-6C4.224,5,4,4.776,4,4.5v-1
	C4,3.224,4.224,3,4.5,3h6C10.776,3,11,3.224,11,3.5v1C11,4.776,10.776,5,10.5,5z"/>
<g>
</g>
<g>
</g>
<g>
</g>
<g>
</g>
<g>
</g>
<g>
</g>
<g>
</g>
<g>
</g>
<g>
</g>
<g>
</g>
<g>
</g>
<g>
</g>
<g>
</g>
<g>
</g>
<g>
</g>
</svg>
