<?xml version="1.0" encoding="iso-8859-1"?>
<!-- Generator: Adobe Illustrator 16.0.0, SVG Export Plug-In . SVG Version: 6.00 Build 0)  -->
<!DOCTYPE svg PUBLIC "-//W3C//DTD SVG 1.1//EN" "http://www.w3.org/Graphics/SVG/1.1/DTD/svg11.dtd">
<svg version="1.1" id="Layer_1" xmlns="http://www.w3.org/2000/svg" xmlns:xlink="http://www.w3.org/1999/xlink" x="0px" y="0px"
	 width="12px" height="16px" viewBox="0 0 12 16" style="enable-background:new 0 0 12 16;" xml:space="preserve">
<path id="Bookmark_3" d="M10.537,0H1.575C0.619,0,0,0.674,0,1.233v14.192c0,0.561,0.43,0.741,0.96,0.406L6,12.639l5.04,3.193
	c0.53,0.335,0.96,0.154,0.96-0.406V1.233C12,0.491,11.513,0,10.537,0z M9.916,5.803L7.871,8.015l0.799,2.667
	C8.73,10.882,8.684,11,8.565,11c-0.044,0-0.101-0.016-0.163-0.053L6,9.598l-2.373,1.348c-0.063,0.036-0.119,0.054-0.164,0.054
	c-0.119,0-0.166-0.117-0.107-0.318l0.773-2.666L2.084,5.803C1.923,5.575,2,5.39,2.26,5.39l2.338-0.015L5.76,3.188
	C5.826,3.063,5.912,3,6,3s0.174,0.063,0.24,0.188l1.162,2.187L9.74,5.39C10,5.39,10.077,5.575,9.916,5.803z"/>
<g>
</g>
<g>
</g>
<g>
</g>
<g>
</g>
<g>
</g>
<g>
</g>
<g>
</g>
<g>
</g>
<g>
</g>
<g>
</g>
<g>
</g>
<g>
</g>
<g>
</g>
<g>
</g>
<g>
</g>
</svg>
