<?xml version="1.0" encoding="iso-8859-1"?>
<!-- Generator: Adobe Illustrator 16.0.0, SVG Export Plug-In . SVG Version: 6.00 Build 0)  -->
<!DOCTYPE svg PUBLIC "-//W3C//DTD SVG 1.1//EN" "http://www.w3.org/Graphics/SVG/1.1/DTD/svg11.dtd">
<svg version="1.1" id="Layer_1" xmlns="http://www.w3.org/2000/svg" xmlns:xlink="http://www.w3.org/1999/xlink" x="0px" y="0px"
	 width="14px" height="16px" viewBox="0 0 14 16" style="enable-background:new 0 0 14 16;" xml:space="preserve">
<path id="Book_2" d="M13.5,2C13.776,2,14,1.776,14,1.5V1c0-0.553-0.447-1-1-1H3C1.34,0,0,1.34,0,3v10c0,1.66,1.34,3,3,3h10
	c0.553,0,1-0.447,1-1V5c0-0.553-0.447-1-1-1H3C2.45,4,2,3.55,2,3s0.45-1,1-1H13.5z M4.5,10h6c0.276,0,0.5,0.224,0.5,0.5v1
	c0,0.276-0.224,0.5-0.5,0.5h-6C4.224,12,4,11.776,4,11.5v-1C4,10.224,4.224,10,4.5,10z M4.5,7h6C10.776,7,11,7.224,11,7.5v1
	C11,8.776,10.776,9,10.5,9h-6C4.224,9,4,8.776,4,8.5v-1C4,7.224,4.224,7,4.5,7z"/>
<g>
</g>
<g>
</g>
<g>
</g>
<g>
</g>
<g>
</g>
<g>
</g>
<g>
</g>
<g>
</g>
<g>
</g>
<g>
</g>
<g>
</g>
<g>
</g>
<g>
</g>
<g>
</g>
<g>
</g>
</svg>
