<?xml version="1.0" encoding="iso-8859-1"?>
<!-- Generator: Adobe Illustrator 16.0.0, SVG Export Plug-In . SVG Version: 6.00 Build 0)  -->
<!DOCTYPE svg PUBLIC "-//W3C//DTD SVG 1.1//EN" "http://www.w3.org/Graphics/SVG/1.1/DTD/svg11.dtd">
<svg version="1.1" id="Layer_1" xmlns="http://www.w3.org/2000/svg" xmlns:xlink="http://www.w3.org/1999/xlink" x="0px" y="0px"
	 width="16px" height="16px" viewBox="0 0 16 16" style="enable-background:new 0 0 16 16;" xml:space="preserve">
<g id="Box_1_x2C__Files_2">
	<path d="M15.5,0h-15C0.224,0,0,0.224,0,0.5v3C0,3.776,0.224,4,0.5,4h15C15.776,4,16,3.776,16,3.5v-3C16,0.224,15.776,0,15.5,0z"/>
	<path d="M14.5,5h-13C1.224,5,1,5.224,1,5.5v10C1,15.776,1.224,16,1.5,16h13c0.276,0,0.5-0.224,0.5-0.5v-10
		C15,5.224,14.776,5,14.5,5z M11,8.5C11,8.776,10.776,9,10.5,9h-5C5.224,9,5,8.776,5,8.5v-1C5,7.224,5.224,7,5.5,7h5
		C10.776,7,11,7.224,11,7.5V8.5z"/>
</g>
<g>
</g>
<g>
</g>
<g>
</g>
<g>
</g>
<g>
</g>
<g>
</g>
<g>
</g>
<g>
</g>
<g>
</g>
<g>
</g>
<g>
</g>
<g>
</g>
<g>
</g>
<g>
</g>
<g>
</g>
</svg>
