<?xml version="1.0" encoding="iso-8859-1"?>
<!-- Generator: Adobe Illustrator 16.0.0, SVG Export Plug-In . SVG Version: 6.00 Build 0)  -->
<!DOCTYPE svg PUBLIC "-//W3C//DTD SVG 1.1//EN" "http://www.w3.org/Graphics/SVG/1.1/DTD/svg11.dtd">
<svg version="1.1" id="Layer_1" xmlns="http://www.w3.org/2000/svg" xmlns:xlink="http://www.w3.org/1999/xlink" x="0px" y="0px"
	 width="16px" height="16px" viewBox="0 0 16 16" style="enable-background:new 0 0 16 16;" xml:space="preserve">
<path id="Browser_3" style="fill-rule:evenodd;clip-rule:evenodd;" d="M15,0H1C0.45,0,0,0.45,0,1v14c0,0.55,0.45,1,1,1h14
	c0.55,0,1-0.45,1-1V1C16,0.45,15.55,0,15,0z M8.5,1h1C9.776,1,10,1.224,10,1.5v1C10,2.776,9.776,3,9.5,3h-1C8.224,3,8,2.776,8,2.5
	v-1C8,1.224,8.224,1,8.5,1z M5.5,1h1C6.776,1,7,1.224,7,1.5v1C7,2.776,6.776,3,6.5,3h-1C5.224,3,5,2.776,5,2.5v-1
	C5,1.224,5.224,1,5.5,1z M2.5,1h1C3.776,1,4,1.224,4,1.5v1C4,2.776,3.776,3,3.5,3h-1C2.224,3,2,2.776,2,2.5v-1
	C2,1.224,2.224,1,2.5,1z"/>
<g>
</g>
<g>
</g>
<g>
</g>
<g>
</g>
<g>
</g>
<g>
</g>
<g>
</g>
<g>
</g>
<g>
</g>
<g>
</g>
<g>
</g>
<g>
</g>
<g>
</g>
<g>
</g>
<g>
</g>
</svg>
