<?xml version="1.0" encoding="iso-8859-1"?>
<!-- Generator: Adobe Illustrator 16.0.0, SVG Export Plug-In . SVG Version: 6.00 Build 0)  -->
<!DOCTYPE svg PUBLIC "-//W3C//DTD SVG 1.1//EN" "http://www.w3.org/Graphics/SVG/1.1/DTD/svg11.dtd">
<svg version="1.1" id="Layer_1" xmlns="http://www.w3.org/2000/svg" xmlns:xlink="http://www.w3.org/1999/xlink" x="0px" y="0px"
	 width="16px" height="16px" viewBox="0 0 16 16" style="enable-background:new 0 0 16 16;" xml:space="preserve">
<g id="Call_4_x2C__Phone_4">
	<path d="M14,8c0,0-1,0-2,0s-1-1.1-1-1.1v-2C11,4.348,10.553,4,10,4H6C5.447,4,5,4.349,5,4.9c0,0.648,0,1.467,0,2C5,7.9,4,8,4,8H2
		c0,0-1-0.1-1,0.9V15c0,0.553,0.447,1,1,1h12c0.553,0,1-0.447,1-1c0-1.279,0-5.5,0-6.1C15,8.025,14,8,14,8z M8,14
		c-1.657,0-3-1.343-3-3s1.343-3,3-3s3,1.343,3,3S9.657,14,8,14z"/>
	<path d="M0.865,1.964C0.378,2.225,0,2.912,0,3.465V5c0,0.553,0.447,1,1,1h1c0.553,0,1-0.447,1-1V3c0-0.553,0.447-1,1-1h8
		c0.553,0,1,0.447,1,1v2c0,0.553,0.447,1,1,1h1c0.553,0,1-0.447,1-1V3.465c0-0.553-0.378-1.24-0.865-1.501
		C13.786,1.243,11.021,0,8,0S2.214,1.243,0.865,1.964z"/>
</g>
<g>
</g>
<g>
</g>
<g>
</g>
<g>
</g>
<g>
</g>
<g>
</g>
<g>
</g>
<g>
</g>
<g>
</g>
<g>
</g>
<g>
</g>
<g>
</g>
<g>
</g>
<g>
</g>
<g>
</g>
</svg>
