<?xml version="1.0" encoding="iso-8859-1"?>
<!-- Generator: Adobe Illustrator 16.0.0, SVG Export Plug-In . SVG Version: 6.00 Build 0)  -->
<!DOCTYPE svg PUBLIC "-//W3C//DTD SVG 1.1//EN" "http://www.w3.org/Graphics/SVG/1.1/DTD/svg11.dtd">
<svg version="1.1" id="Layer_1" xmlns="http://www.w3.org/2000/svg" xmlns:xlink="http://www.w3.org/1999/xlink" x="0px" y="0px"
	 width="16px" height="15.998px" viewBox="0 0 16 15.998" style="enable-background:new 0 0 16 15.998;" xml:space="preserve">
<path id="Call_1_x2C__Phone_1" d="M13.994,10.313c-0.459-0.459-1.203-0.459-1.663,0l-0.831,0.831c-0.459,0.459-1.203,0.459-1.662,0
	L4.855,6.16c-0.459-0.459-0.459-1.203,0-1.662l0.831-0.83c0.459-0.459,0.459-1.204,0-1.662L4.024,0.344
	c-0.459-0.458-1.203-0.459-1.662,0L0.285,2.422c-0.229,0.229-0.348,0.67-0.25,0.979c0.862,2.724,2.699,5.622,4.82,7.743
	c2.12,2.12,5.019,3.958,7.743,4.818c0.31,0.099,0.751-0.021,0.98-0.25l2.077-2.076c0.459-0.459,0.459-1.203,0-1.662L13.994,10.313z"
	/>
<g>
</g>
<g>
</g>
<g>
</g>
<g>
</g>
<g>
</g>
<g>
</g>
<g>
</g>
<g>
</g>
<g>
</g>
<g>
</g>
<g>
</g>
<g>
</g>
<g>
</g>
<g>
</g>
<g>
</g>
</svg>
