<?xml version="1.0" encoding="iso-8859-1"?>
<!-- Generator: Adobe Illustrator 16.0.0, SVG Export Plug-In . SVG Version: 6.00 Build 0)  -->
<!DOCTYPE svg PUBLIC "-//W3C//DTD SVG 1.1//EN" "http://www.w3.org/Graphics/SVG/1.1/DTD/svg11.dtd">
<svg version="1.1" id="Layer_1" xmlns="http://www.w3.org/2000/svg" xmlns:xlink="http://www.w3.org/1999/xlink" x="0px" y="0px"
	 width="16px" height="16px" viewBox="0 0 16 16" style="enable-background:new 0 0 16 16;" xml:space="preserve">
<path id="Car_1_x2C__Vehicle_1_x2C__Travel_3" d="M15,6h-0.153l-0.86-5.164C13.906,0.354,13.489,0,13,0H3
	C2.511,0,2.094,0.354,2.014,0.836L1.153,6H1C0.447,6,0,6.447,0,7v5c0,0.553,0.447,1,1,1v1.5C1,15.328,1.672,16,2.5,16
	S4,15.328,4,14.5V13h8v1.5c0,0.828,0.672,1.5,1.5,1.5s1.5-0.672,1.5-1.5V13c0.553,0,1-0.447,1-1V7C16,6.447,15.553,6,15,6z M4,9.5
	C4,9.776,3.776,10,3.5,10h-1C2.224,10,2,9.776,2,9.5v-1C2,8.224,2.224,8,2.5,8h1C3.776,8,4,8.224,4,8.5V9.5z M3.181,6l0.666-4h8.307
	l0.666,4H3.181z M14,9.5c0,0.276-0.224,0.5-0.5,0.5h-1C12.224,10,12,9.776,12,9.5v-1C12,8.224,12.224,8,12.5,8h1
	C13.776,8,14,8.224,14,8.5V9.5z"/>
<g>
</g>
<g>
</g>
<g>
</g>
<g>
</g>
<g>
</g>
<g>
</g>
<g>
</g>
<g>
</g>
<g>
</g>
<g>
</g>
<g>
</g>
<g>
</g>
<g>
</g>
<g>
</g>
<g>
</g>
</svg>
