<?xml version="1.0" encoding="iso-8859-1"?>
<!-- Generator: Adobe Illustrator 16.0.0, SVG Export Plug-In . SVG Version: 6.00 Build 0)  -->
<!DOCTYPE svg PUBLIC "-//W3C//DTD SVG 1.1//EN" "http://www.w3.org/Graphics/SVG/1.1/DTD/svg11.dtd">
<svg version="1.1" id="Layer_1" xmlns="http://www.w3.org/2000/svg" xmlns:xlink="http://www.w3.org/1999/xlink" x="0px" y="0px"
	 width="16px" height="16px" viewBox="0 0 16 16" style="enable-background:new 0 0 16 16;" xml:space="preserve">
<g id="Cart_3_x2C__Shopping_Cart_3">
	<path d="M13.175,9c0.56,0,1.124-0.435,1.259-0.97L15.97,0.97C16.106,0.435,15.763,0,15.202,0H1.014C0.453,0,0,0.447,0,1
		s0.453,1,1.014,1H2v7v3c0,0.553,0.48,1,1.041,1H14c0.56,0,1-0.447,1-1s-0.44-1-1-1H4V9H13.175z"/>
	<circle cx="4.5" cy="14.5" r="1.5"/>
	<circle cx="12.5" cy="14.5" r="1.5"/>
</g>
<g>
</g>
<g>
</g>
<g>
</g>
<g>
</g>
<g>
</g>
<g>
</g>
<g>
</g>
<g>
</g>
<g>
</g>
<g>
</g>
<g>
</g>
<g>
</g>
<g>
</g>
<g>
</g>
<g>
</g>
</svg>
