<?xml version="1.0" encoding="iso-8859-1"?>
<!-- Generator: Adobe Illustrator 16.0.0, SVG Export Plug-In . SVG Version: 6.00 Build 0)  -->
<!DOCTYPE svg PUBLIC "-//W3C//DTD SVG 1.1//EN" "http://www.w3.org/Graphics/SVG/1.1/DTD/svg11.dtd">
<svg version="1.1" id="Layer_1" xmlns="http://www.w3.org/2000/svg" xmlns:xlink="http://www.w3.org/1999/xlink" x="0px" y="0px"
	 width="16px" height="16px" viewBox="0 0 16 16" style="enable-background:new 0 0 16 16;" xml:space="preserve">
<path id="Center_Text_1" style="fill-rule:evenodd;clip-rule:evenodd;" d="M15,0H1C0.447,0,0,0.447,0,1v14c0,0.553,0.447,1,1,1h14
	c0.553,0,1-0.447,1-1V1C16,0.447,15.553,0,15,0z M5,4.5C5,4.224,5.224,4,5.5,4h5C10.776,4,11,4.224,11,4.5v1
	C11,5.776,10.776,6,10.5,6h-5C5.224,6,5,5.776,5,5.5V4.5z M11,11.5c0,0.276-0.224,0.5-0.5,0.5h-5C5.224,12,5,11.776,5,11.5v-1
	C5,10.224,5.224,10,5.5,10h5c0.276,0,0.5,0.224,0.5,0.5V11.5z M12,8.5C12,8.776,11.776,9,11.5,9h-7C4.224,9,4,8.776,4,8.5v-1
	C4,7.224,4.224,7,4.5,7h7C11.776,7,12,7.224,12,7.5V8.5z"/>
<g>
</g>
<g>
</g>
<g>
</g>
<g>
</g>
<g>
</g>
<g>
</g>
<g>
</g>
<g>
</g>
<g>
</g>
<g>
</g>
<g>
</g>
<g>
</g>
<g>
</g>
<g>
</g>
<g>
</g>
</svg>
