<?xml version="1.0" encoding="iso-8859-1"?>
<!-- Generator: Adobe Illustrator 16.0.0, SVG Export Plug-In . SVG Version: 6.00 Build 0)  -->
<!DOCTYPE svg PUBLIC "-//W3C//DTD SVG 1.1//EN" "http://www.w3.org/Graphics/SVG/1.1/DTD/svg11.dtd">
<svg version="1.1" id="Layer_1" xmlns="http://www.w3.org/2000/svg" xmlns:xlink="http://www.w3.org/1999/xlink" x="0px" y="0px"
	 width="16px" height="15.917px" viewBox="0 0 16 15.917" style="enable-background:new 0 0 16 15.917;" xml:space="preserve">
<g id="Chat_1">
	<path d="M15,0H4C3.447,0,3,0.496,3,1.048V2h2h8c0.553,0,1,0.496,1,1.048v4V9h1c0.553,0,1-0.399,1-0.952v-7C16,0.496,15.553,0,15,0z
		"/>
	<path d="M12,3H1C0.45,3,0,3.508,0,4.07v7.978C0,12.61,0.45,13,1,13h3.72l5.378,2.791C10.596,16.035,11,15.94,11,15.376V13h1
		c0.55,0,1-0.39,1-0.952V4.07C13,3.508,12.55,3,12,3z"/>
</g>
<g>
</g>
<g>
</g>
<g>
</g>
<g>
</g>
<g>
</g>
<g>
</g>
<g>
</g>
<g>
</g>
<g>
</g>
<g>
</g>
<g>
</g>
<g>
</g>
<g>
</g>
<g>
</g>
<g>
</g>
</svg>
