<?xml version="1.0" encoding="iso-8859-1"?>
<!-- Generator: Adobe Illustrator 16.0.0, SVG Export Plug-In . SVG Version: 6.00 Build 0)  -->
<!DOCTYPE svg PUBLIC "-//W3C//DTD SVG 1.1//EN" "http://www.w3.org/Graphics/SVG/1.1/DTD/svg11.dtd">
<svg version="1.1" id="Layer_1" xmlns="http://www.w3.org/2000/svg" xmlns:xlink="http://www.w3.org/1999/xlink" x="0px" y="0px"
	 width="16px" height="15.917px" viewBox="0 0 16 15.917" style="enable-background:new 0 0 16 15.917;" xml:space="preserve">
<g id="Chat_2">
	<path d="M15,0H4C3.447,0,3,0.496,3,1.048V2h2h8c0.553,0,1,0.496,1,1.048v6V11h1c0.553,0,1-0.399,1-0.952v-9C16,0.496,15.553,0,15,0
		z"/>
	<path d="M12,3H1C0.45,3,0,3.508,0,4.07v7.978C0,12.61,0.45,13,1,13h3.72l5.378,2.791C10.596,16.035,11,15.94,11,15.376V13h1
		c0.55,0,1-0.39,1-0.952V4.07C13,3.508,12.55,3,12,3z M10,9.5C10,9.776,9.776,10,9.5,10h-6C3.224,10,3,9.776,3,9.5v-1
		C3,8.224,3.224,8,3.5,8h6C9.776,8,10,8.224,10,8.5V9.5z M10,6.5C10,6.776,9.776,7,9.5,7h-6C3.224,7,3,6.776,3,6.5v-1
		C3,5.224,3.224,5,3.5,5h6C9.776,5,10,5.224,10,5.5V6.5z"/>
</g>
<g>
</g>
<g>
</g>
<g>
</g>
<g>
</g>
<g>
</g>
<g>
</g>
<g>
</g>
<g>
</g>
<g>
</g>
<g>
</g>
<g>
</g>
<g>
</g>
<g>
</g>
<g>
</g>
<g>
</g>
</svg>
