<?xml version="1.0" encoding="iso-8859-1"?>
<!-- Generator: Adobe Illustrator 16.0.0, SVG Export Plug-In . SVG Version: 6.00 Build 0)  -->
<!DOCTYPE svg PUBLIC "-//W3C//DTD SVG 1.1//EN" "http://www.w3.org/Graphics/SVG/1.1/DTD/svg11.dtd">
<svg version="1.1" id="Layer_1" xmlns="http://www.w3.org/2000/svg" xmlns:xlink="http://www.w3.org/1999/xlink" x="0px" y="0px"
	 width="14px" height="17px" viewBox="0 0 14 17" style="enable-background:new 0 0 14 17;" xml:space="preserve">
<g id="Clipboard_1_x2C__Copy_1">
	<path style="fill-rule:evenodd;clip-rule:evenodd;" d="M9,1H8c0-1-0.447-1-1-1S6,0,6,1H5C4.354,1,4,1.465,4,2.048v1.5
		C4,3.825,4.224,4,4.5,4h5C9.776,4,10,3.825,10,3.548v-1.5C10,1.465,9.729,1,9,1z"/>
	<path style="fill-rule:evenodd;clip-rule:evenodd;" d="M11,2v2.048v0.5C11,4.825,10.776,5,10.5,5H4H3.5C3.224,5,3,4.825,3,4.548V2
		H1C0.447,2,0,2.496,0,3.048v13C0,16.601,0.447,17,1,17h12c0.553,0,1-0.399,1-0.952v-13C14,2.496,13.553,2,13,2H11z"/>
</g>
<g>
</g>
<g>
</g>
<g>
</g>
<g>
</g>
<g>
</g>
<g>
</g>
<g>
</g>
<g>
</g>
<g>
</g>
<g>
</g>
<g>
</g>
<g>
</g>
<g>
</g>
<g>
</g>
<g>
</g>
</svg>
