<?xml version="1.0" encoding="iso-8859-1"?>
<!-- Generator: Adobe Illustrator 16.0.0, SVG Export Plug-In . SVG Version: 6.00 Build 0)  -->
<!DOCTYPE svg PUBLIC "-//W3C//DTD SVG 1.1//EN" "http://www.w3.org/Graphics/SVG/1.1/DTD/svg11.dtd">
<svg version="1.1" id="Layer_1" xmlns="http://www.w3.org/2000/svg" xmlns:xlink="http://www.w3.org/1999/xlink" x="0px" y="0px"
	 width="16px" height="16px" viewBox="0 0 16 16" style="enable-background:new 0 0 16 16;" xml:space="preserve">
<path id="Close_Browser_1" style="fill-rule:evenodd;clip-rule:evenodd;" d="M15,0H1C0.447,0,0,0.448,0,1v14c0,0.552,0.447,1,1,1h14
	c0.553,0,1-0.448,1-1V1C16,0.448,15.553,0,15,0z M4,4H2V2h2V4z M10.851,11.439c0.195,0.195,0.195,0.512,0,0.707l-0.707,0.707
	c-0.195,0.195-0.512,0.195-0.707,0l-1.439-1.439l-1.434,1.434c-0.195,0.195-0.512,0.195-0.707,0l-0.707-0.707
	c-0.195-0.195-0.195-0.512,0-0.707L6.583,10L5.149,8.566c-0.195-0.195-0.195-0.512,0-0.707l0.707-0.707
	c0.195-0.195,0.512-0.195,0.707,0l1.434,1.434l1.439-1.439c0.195-0.195,0.512-0.195,0.707,0l0.707,0.707
	c0.195,0.195,0.195,0.512,0,0.707L9.411,10L10.851,11.439z M14,4H6V2h8V4z"/>
<g>
</g>
<g>
</g>
<g>
</g>
<g>
</g>
<g>
</g>
<g>
</g>
<g>
</g>
<g>
</g>
<g>
</g>
<g>
</g>
<g>
</g>
<g>
</g>
<g>
</g>
<g>
</g>
<g>
</g>
</svg>
