<?xml version="1.0" encoding="iso-8859-1"?>
<!-- Generator: Adobe Illustrator 16.0.0, SVG Export Plug-In . SVG Version: 6.00 Build 0)  -->
<!DOCTYPE svg PUBLIC "-//W3C//DTD SVG 1.1//EN" "http://www.w3.org/Graphics/SVG/1.1/DTD/svg11.dtd">
<svg version="1.1" id="Layer_1" xmlns="http://www.w3.org/2000/svg" xmlns:xlink="http://www.w3.org/1999/xlink" x="0px" y="0px"
	 width="17.98px" height="12.991px" viewBox="0 0 17.98 12.991" style="enable-background:new 0 0 17.98 12.991;"
	 xml:space="preserve">
<path id="Cloud_Add_1" d="M15,4.991h-0.093C14.422,1.991,11.965,0,9,0C6.028,0,3.567,1.991,3.09,4.991H3c-1.756,0-3,2.111-3,4
	c0,2.2,1.79,4,4,4h10c2.21,0,3.98-1.79,3.98-3.99C17.98,7.141,16.72,4.991,15,4.991z M11.992,7.481c0,0.277-0.235,0.51-0.512,0.51
	H9.992v1.49c0,0.277-0.235,0.51-0.512,0.51h-1c-0.276,0-0.488-0.232-0.488-0.51v-1.49H6.48c-0.276,0-0.488-0.232-0.488-0.51v-1
	c0-0.275,0.212-0.49,0.488-0.49h1.512v-1.51c0-0.275,0.212-0.49,0.488-0.49h1c0.276,0,0.512,0.215,0.512,0.49v1.51h1.488
	c0.276,0,0.512,0.215,0.512,0.49V7.481z"/>
<g>
</g>
<g>
</g>
<g>
</g>
<g>
</g>
<g>
</g>
<g>
</g>
<g>
</g>
<g>
</g>
<g>
</g>
<g>
</g>
<g>
</g>
<g>
</g>
<g>
</g>
<g>
</g>
<g>
</g>
</svg>
