<?xml version="1.0" encoding="iso-8859-1"?>
<!-- Generator: Adobe Illustrator 16.0.0, SVG Export Plug-In . SVG Version: 6.00 Build 0)  -->
<!DOCTYPE svg PUBLIC "-//W3C//DTD SVG 1.1//EN" "http://www.w3.org/Graphics/SVG/1.1/DTD/svg11.dtd">
<svg version="1.1" id="Layer_1" xmlns="http://www.w3.org/2000/svg" xmlns:xlink="http://www.w3.org/1999/xlink" x="0px" y="0px"
	 width="17.98px" height="12.991px" viewBox="0 0 17.98 12.991" style="enable-background:new 0 0 17.98 12.991;"
	 xml:space="preserve">
<path id="Cloud_Upload_1" d="M15,4.991h-0.093C14.422,1.991,11.965,0,9,0C6.028,0,3.567,1.991,3.09,4.991H3c-1.756,0-3,2.111-3,4
	c0,2.2,1.79,4,4,4h10c2.21,0,3.98-1.79,3.98-3.99C17.98,7.141,16.72,4.991,15,4.991z M6.09,7.436l2.587-3.354
	c0.179-0.235,0.468-0.244,0.646-0.01l2.587,3.37c0.179,0.235,0.082,0.548-0.215,0.548H10v2.391c0,0.275-0.224,0.609-0.5,0.609h-1
	c-0.276,0-0.5-0.334-0.5-0.609V7.991H6.305C6.008,7.991,5.911,7.672,6.09,7.436z"/>
<g>
</g>
<g>
</g>
<g>
</g>
<g>
</g>
<g>
</g>
<g>
</g>
<g>
</g>
<g>
</g>
<g>
</g>
<g>
</g>
<g>
</g>
<g>
</g>
<g>
</g>
<g>
</g>
<g>
</g>
</svg>
