<?xml version="1.0" encoding="iso-8859-1"?>
<!-- Generator: Adobe Illustrator 16.0.0, SVG Export Plug-In . SVG Version: 6.00 Build 0)  -->
<!DOCTYPE svg PUBLIC "-//W3C//DTD SVG 1.1//EN" "http://www.w3.org/Graphics/SVG/1.1/DTD/svg11.dtd">
<svg version="1.1" id="Layer_1" xmlns="http://www.w3.org/2000/svg" xmlns:xlink="http://www.w3.org/1999/xlink" x="0px" y="0px"
	 width="16px" height="16px" viewBox="0 0 16 16" style="enable-background:new 0 0 16 16;" xml:space="preserve">
<path id="Compose_3_x2C__Message_3" d="M15,0H1C0.447,0,0,0.447,0,1v12v2c0,0.553,0.447,1,1,1h14c0.553,0,1-0.447,1-1V1
	C16,0.447,15.553,0,15,0z M6.5,12.5c-0.637,0-1.015-0.161-1.5-0.5l-2,2H2v-1l2.04-1.79L12,4l-9,6
	C2.925,9.738,2.879,9.464,2.879,9.178C2.879,7.521,11.594,2,13.25,2C14,2,14,2,14,2.75C14,4.406,8.156,12.5,6.5,12.5z"/>
<g>
</g>
<g>
</g>
<g>
</g>
<g>
</g>
<g>
</g>
<g>
</g>
<g>
</g>
<g>
</g>
<g>
</g>
<g>
</g>
<g>
</g>
<g>
</g>
<g>
</g>
<g>
</g>
<g>
</g>
</svg>
