<?xml version="1.0" encoding="iso-8859-1"?>
<!-- Generator: Adobe Illustrator 16.0.0, SVG Export Plug-In . SVG Version: 6.00 Build 0)  -->
<!DOCTYPE svg PUBLIC "-//W3C//DTD SVG 1.1//EN" "http://www.w3.org/Graphics/SVG/1.1/DTD/svg11.dtd">
<svg version="1.1" id="Layer_1" xmlns="http://www.w3.org/2000/svg" xmlns:xlink="http://www.w3.org/1999/xlink" x="0px" y="0px"
	 width="16px" height="13px" viewBox="0 0 16 13" style="enable-background:new 0 0 16 13;" xml:space="preserve">
<g id="Credit_Card_1_x2C__Payment_1">
	<path style="fill-rule:evenodd;clip-rule:evenodd;" d="M0,5.5V12c0,0.553,0.447,1,1,1h14c0.553,0,1-0.447,1-1V5.5
		C16,5.224,15.776,5,15.5,5h-15C0.224,5,0,5.224,0,5.5z M13,9.5c0,0.276-0.224,0.5-0.5,0.5h-3C9.224,10,9,9.776,9,9.5v-1
		C9,8.224,9.224,8,9.5,8h3C12.776,8,13,8.224,13,8.5V9.5z"/>
	<path style="fill-rule:evenodd;clip-rule:evenodd;" d="M16,2.5V1c0-0.553-0.447-1-1-1H1C0.447,0,0,0.447,0,1v1.5
		C0,2.776,0.224,3,0.5,3h15C15.776,3,16,2.776,16,2.5z"/>
</g>
<g>
</g>
<g>
</g>
<g>
</g>
<g>
</g>
<g>
</g>
<g>
</g>
<g>
</g>
<g>
</g>
<g>
</g>
<g>
</g>
<g>
</g>
<g>
</g>
<g>
</g>
<g>
</g>
<g>
</g>
</svg>
