<?xml version="1.0" encoding="iso-8859-1"?>
<!-- Generator: Adobe Illustrator 16.0.0, SVG Export Plug-In . SVG Version: 6.00 Build 0)  -->
<!DOCTYPE svg PUBLIC "-//W3C//DTD SVG 1.1//EN" "http://www.w3.org/Graphics/SVG/1.1/DTD/svg11.dtd">
<svg version="1.1" id="Layer_1" xmlns="http://www.w3.org/2000/svg" xmlns:xlink="http://www.w3.org/1999/xlink" x="0px" y="0px"
	 width="18px" height="18px" viewBox="0 0 18 18" style="enable-background:new 0 0 18 18;" xml:space="preserve">
<path id="Crosshairs_1_x2C__Aim_1" d="M17,8h-1.079C15.481,4.937,13.063,2.519,10,2.079V1c0-0.553-0.447-1-1-1S8,0.447,8,1v1.079
	C4.937,2.519,2.519,4.937,2.079,8H1C0.447,8,0,8.447,0,9s0.447,1,1,1h1.079C2.519,13.063,4.937,15.481,8,15.921V17
	c0,0.553,0.447,1,1,1s1-0.447,1-1v-1.079c3.063-0.439,5.481-2.857,5.921-5.921H17c0.553,0,1-0.447,1-1S17.553,8,17,8z M10,13.898V13
	c0-0.553-0.447-1-1-1s-1,0.447-1,1v0.898C6.044,13.5,4.5,11.956,4.102,10H5c0.553,0,1-0.447,1-1S5.553,8,5,8H4.102
	C4.5,6.044,6.044,4.5,8,4.102V5c0,0.553,0.447,1,1,1s1-0.447,1-1V4.102C11.956,4.5,13.5,6.044,13.898,8H13c-0.553,0-1,0.447-1,1
	s0.447,1,1,1h0.898C13.5,11.956,11.956,13.5,10,13.898z"/>
<g>
</g>
<g>
</g>
<g>
</g>
<g>
</g>
<g>
</g>
<g>
</g>
<g>
</g>
<g>
</g>
<g>
</g>
<g>
</g>
<g>
</g>
<g>
</g>
<g>
</g>
<g>
</g>
<g>
</g>
</svg>
