<?xml version="1.0" encoding="iso-8859-1"?>
<!-- Generator: Adobe Illustrator 16.0.0, SVG Export Plug-In . SVG Version: 6.00 Build 0)  -->
<!DOCTYPE svg PUBLIC "-//W3C//DTD SVG 1.1//EN" "http://www.w3.org/Graphics/SVG/1.1/DTD/svg11.dtd">
<svg version="1.1" id="Layer_1" xmlns="http://www.w3.org/2000/svg" xmlns:xlink="http://www.w3.org/1999/xlink" x="0px" y="0px"
	 width="16px" height="14px" viewBox="0 0 16 14" style="enable-background:new 0 0 16 14;" xml:space="preserve">
<g id="Dashboard_1_x2C__See_All_1">
	<path style="fill-rule:evenodd;clip-rule:evenodd;" d="M1,6h4c0.553,0,1-0.447,1-1V1c0-0.553-0.447-1-1-1H1C0.447,0,0,0.447,0,1v4
		C0,5.553,0.447,6,1,6z"/>
	<path style="fill-rule:evenodd;clip-rule:evenodd;" d="M7,8H1C0.447,8,0,8.447,0,9v4c0,0.553,0.447,1,1,1h6c0.553,0,1-0.447,1-1V9
		C8,8.447,7.553,8,7,8z"/>
	<path style="fill-rule:evenodd;clip-rule:evenodd;" d="M15,2h-4c-0.553,0-1,0.447-1,1v8c0,0.553,0.447,1,1,1h4c0.553,0,1-0.447,1-1
		V3C16,2.447,15.553,2,15,2z"/>
</g>
<g>
</g>
<g>
</g>
<g>
</g>
<g>
</g>
<g>
</g>
<g>
</g>
<g>
</g>
<g>
</g>
<g>
</g>
<g>
</g>
<g>
</g>
<g>
</g>
<g>
</g>
<g>
</g>
<g>
</g>
</svg>
