<?xml version="1.0" encoding="iso-8859-1"?>
<!-- Generator: Adobe Illustrator 16.0.0, SVG Export Plug-In . SVG Version: 6.00 Build 0)  -->
<!DOCTYPE svg PUBLIC "-//W3C//DTD SVG 1.1//EN" "http://www.w3.org/Graphics/SVG/1.1/DTD/svg11.dtd">
<svg version="1.1" id="Layer_1" xmlns="http://www.w3.org/2000/svg" xmlns:xlink="http://www.w3.org/1999/xlink" x="0px" y="0px"
	 width="14px" height="16px" viewBox="0 0 14 16" style="enable-background:new 0 0 14 16;" xml:space="preserve">
<g id="Document_3">
	<path d="M10.5,4h3c0.276,0,0.342-0.158,0.146-0.354l-3.293-3.293C10.158,0.158,10,0.224,10,0.5v3C10,3.776,10.224,4,10.5,4z"/>
	<path d="M13.5,5h-4C9.224,5,9,4.776,9,4.5v-4C9,0.224,8.776,0,8.5,0H1C0.447,0,0,0.447,0,1v14c0,0.553,0.447,1,1,1h12
		c0.553,0,1-0.447,1-1V5.5C14,5.224,13.776,5,13.5,5z M2,3.5C2,3.224,2.224,3,2.5,3h4C6.776,3,7,3.224,7,3.5v1
		C7,4.776,6.776,5,6.5,5h-4C2.224,5,2,4.776,2,4.5V3.5z M10,12.5c0,0.276-0.224,0.5-0.5,0.5h-7C2.224,13,2,12.776,2,12.5v-1
		C2,11.224,2.224,11,2.5,11h7c0.276,0,0.5,0.224,0.5,0.5V12.5z M11,8.5C11,8.776,10.776,9,10.5,9h-8C2.224,9,2,8.776,2,8.5v-1
		C2,7.224,2.224,7,2.5,7h8C10.776,7,11,7.224,11,7.5V8.5z"/>
</g>
<g>
</g>
<g>
</g>
<g>
</g>
<g>
</g>
<g>
</g>
<g>
</g>
<g>
</g>
<g>
</g>
<g>
</g>
<g>
</g>
<g>
</g>
<g>
</g>
<g>
</g>
<g>
</g>
<g>
</g>
</svg>
