<?xml version="1.0" encoding="iso-8859-1"?>
<!-- Generator: Adobe Illustrator 16.0.0, SVG Export Plug-In . SVG Version: 6.00 Build 0)  -->
<!DOCTYPE svg PUBLIC "-//W3C//DTD SVG 1.1//EN" "http://www.w3.org/Graphics/SVG/1.1/DTD/svg11.dtd">
<svg version="1.1" id="Layer_1" xmlns="http://www.w3.org/2000/svg" xmlns:xlink="http://www.w3.org/1999/xlink" x="0px" y="0px"
	 width="14px" height="16px" viewBox="0 0 14 16" style="enable-background:new 0 0 14 16;" xml:space="preserve">
<g id="Document_4">
	<path d="M2.5,3h4C6.776,3,7,3.224,7,3.5v1C7,4.776,6.776,5,6.5,5h-4C2.224,5,2,4.776,2,4.5v-1C2,3.224,2.224,3,2.5,3z M11.5,14h-9
		C2.224,14,2,13.776,2,13.5l0,0C2,13.224,2.224,13,2.5,13h9c0.276,0,0.5,0.224,0.5,0.5l0,0C12,13.776,11.776,14,11.5,14z M11.5,12
		h-9C2.224,12,2,11.776,2,11.5l0,0C2,11.224,2.224,11,2.5,11h9c0.276,0,0.5,0.224,0.5,0.5l0,0C12,11.776,11.776,12,11.5,12z
		 M11.5,10h-9C2.224,10,2,9.776,2,9.5l0,0C2,9.224,2.224,9,2.5,9h9C11.776,9,12,9.224,12,9.5l0,0C12,9.776,11.776,10,11.5,10z
		 M11.5,8h-9C2.224,8,2,7.776,2,7.5l0,0C2,7.224,2.224,7,2.5,7h9C11.776,7,12,7.224,12,7.5l0,0C12,7.776,11.776,8,11.5,8z M9.5,5
		C9.224,5,9,4.776,9,4.5v-4C9,0.224,8.776,0,8.5,0H1C0.447,0,0,0.447,0,1v14c0,0.553,0.447,1,1,1h12c0.553,0,1-0.447,1-1V7V6V5.5
		C14,5.224,13.776,5,13.5,5H9.5z"/>
	<path d="M10,0.5v3C10,3.776,10.224,4,10.5,4h3c0.276,0,0.342-0.158,0.146-0.354l-3.293-3.293C10.158,0.158,10,0.224,10,0.5z"/>
</g>
<g>
</g>
<g>
</g>
<g>
</g>
<g>
</g>
<g>
</g>
<g>
</g>
<g>
</g>
<g>
</g>
<g>
</g>
<g>
</g>
<g>
</g>
<g>
</g>
<g>
</g>
<g>
</g>
<g>
</g>
</svg>
