<?xml version="1.0" encoding="iso-8859-1"?>
<!-- Generator: Adobe Illustrator 16.0.0, SVG Export Plug-In . SVG Version: 6.00 Build 0)  -->
<!DOCTYPE svg PUBLIC "-//W3C//DTD SVG 1.1//EN" "http://www.w3.org/Graphics/SVG/1.1/DTD/svg11.dtd">
<svg version="1.1" id="Layer_1" xmlns="http://www.w3.org/2000/svg" xmlns:xlink="http://www.w3.org/1999/xlink" x="0px" y="0px"
	 width="14px" height="16px" viewBox="0 0 14 16" style="enable-background:new 0 0 14 16;" xml:space="preserve">
<g id="Document_2">
	<path d="M3.51,12h-3c-0.276,0-0.342,0.158-0.146,0.354l3.288,3.293C3.847,15.842,4,15.776,4,15.5v-3C4,12.224,3.786,12,3.51,12z"/>
	<path d="M13.01,0h-12C0.457,0,0,0.447,0,1v8v1v0.5C0,10.776,0.233,11,0.51,11h4C4.786,11,5,11.224,5,11.5v4
		C5,15.776,5.233,16,5.51,16h7.5c0.553,0,0.99-0.447,0.99-1V1C14,0.447,13.562,0,13.01,0z M11,7.5C11,7.776,10.776,8,10.5,8h-7
		C3.224,8,3,7.776,3,7.5v-1C3,6.224,3.224,6,3.5,6h7C10.776,6,11,6.224,11,6.5V7.5z M11,4.5C11,4.776,10.776,5,10.5,5h-7
		C3.224,5,3,4.776,3,4.5v-1C3,3.224,3.224,3,3.5,3h7C10.776,3,11,3.224,11,3.5V4.5z"/>
</g>
<g>
</g>
<g>
</g>
<g>
</g>
<g>
</g>
<g>
</g>
<g>
</g>
<g>
</g>
<g>
</g>
<g>
</g>
<g>
</g>
<g>
</g>
<g>
</g>
<g>
</g>
<g>
</g>
<g>
</g>
</svg>
