<?xml version="1.0" encoding="iso-8859-1"?>
<!-- Generator: Adobe Illustrator 16.0.0, SVG Export Plug-In . SVG Version: 6.00 Build 0)  -->
<!DOCTYPE svg PUBLIC "-//W3C//DTD SVG 1.1//EN" "http://www.w3.org/Graphics/SVG/1.1/DTD/svg11.dtd">
<svg version="1.1" id="Layer_1" xmlns="http://www.w3.org/2000/svg" xmlns:xlink="http://www.w3.org/1999/xlink" x="0px" y="0px"
	 width="16px" height="16px" viewBox="0 0 16 16" style="enable-background:new 0 0 16 16;" xml:space="preserve">
<path id="Download_Folder_1" style="fill-rule:evenodd;clip-rule:evenodd;" d="M15,2H7V1c0-0.55-0.45-1-1-1H1C0.45,0,0,0.45,0,1v14
	c0,0.55,0.45,1,1,1h14c0.55,0,1-0.45,1-1V3C16,2.45,15.55,2,15,2z M10.91,8.5l-2.587,3.326c-0.179,0.234-0.468,0.231-0.646-0.004
	L5.09,8.5C4.911,8.265,5.008,8,5.305,8H7V5.501C7,5.225,7.224,5,7.5,5h1C8.776,5,9,5.225,9,5.501V8h1.695
	C10.992,8,11.089,8.264,10.91,8.5z"/>
<g>
</g>
<g>
</g>
<g>
</g>
<g>
</g>
<g>
</g>
<g>
</g>
<g>
</g>
<g>
</g>
<g>
</g>
<g>
</g>
<g>
</g>
<g>
</g>
<g>
</g>
<g>
</g>
<g>
</g>
</svg>
