<?xml version="1.0" encoding="iso-8859-1"?>
<!-- Generator: Adobe Illustrator 16.0.0, SVG Export Plug-In . SVG Version: 6.00 Build 0)  -->
<!DOCTYPE svg PUBLIC "-//W3C//DTD SVG 1.1//EN" "http://www.w3.org/Graphics/SVG/1.1/DTD/svg11.dtd">
<svg version="1.1" id="Layer_1" xmlns="http://www.w3.org/2000/svg" xmlns:xlink="http://www.w3.org/1999/xlink" x="0px" y="0px"
	 width="16px" height="17px" viewBox="0 0 16 17" style="enable-background:new 0 0 16 17;" xml:space="preserve">
<g id="Download_2">
	<path d="M15.997,11.987c-0.001-0.122-0.026-0.239-0.07-0.352c-0.014-0.034-0.035-0.062-0.053-0.096
		c-0.038-0.071-0.08-0.14-0.136-0.201c-0.03-0.034-0.063-0.062-0.099-0.092c-0.029-0.025-0.052-0.057-0.085-0.079l-3-2
		C12.391,9.059,12.197,9,12,9H4C3.803,9,3.609,9.059,3.445,9.168l-3,2c-0.033,0.022-0.056,0.054-0.086,0.079
		c-0.034,0.03-0.067,0.058-0.098,0.092c-0.056,0.062-0.099,0.13-0.136,0.202c-0.018,0.032-0.039,0.061-0.053,0.095
		c-0.044,0.112-0.069,0.229-0.07,0.352C0.003,11.992,0,11.995,0,12v4c0,0.553,0.447,1,1,1h14c0.553,0,1-0.447,1-1v-4
		C16,11.995,15.997,11.992,15.997,11.987z M14,15H2v-2h12V15z"/>
	<path d="M7.677,6.822c0.179,0.234,0.468,0.238,0.646,0.004L10.91,3.5C11.089,3.264,10.992,3,10.695,3H9V0.5C9,0.225,8.776,0,8.5,0
		h-1C7.224,0,7,0.225,7,0.5V3H5.305C5.008,3,4.911,3.265,5.09,3.5L7.677,6.822z"/>
</g>
<g>
</g>
<g>
</g>
<g>
</g>
<g>
</g>
<g>
</g>
<g>
</g>
<g>
</g>
<g>
</g>
<g>
</g>
<g>
</g>
<g>
</g>
<g>
</g>
<g>
</g>
<g>
</g>
<g>
</g>
</svg>
