<?xml version="1.0" encoding="iso-8859-1"?>
<!-- Generator: Adobe Illustrator 16.0.0, SVG Export Plug-In . SVG Version: 6.00 Build 0)  -->
<!DOCTYPE svg PUBLIC "-//W3C//DTD SVG 1.1//EN" "http://www.w3.org/Graphics/SVG/1.1/DTD/svg11.dtd">
<svg version="1.1" id="Layer_1" xmlns="http://www.w3.org/2000/svg" xmlns:xlink="http://www.w3.org/1999/xlink" x="0px" y="0px"
	 width="16px" height="16px" viewBox="0 0 16 16" style="enable-background:new 0 0 16 16;" xml:space="preserve">
<g id="Download_Inbox_1">
	<path d="M7.677,8.822c0.179,0.234,0.468,0.238,0.646,0.004L10.91,5.5C11.089,5.264,10.992,5,10.695,5H9V0.5C9,0.225,8.776,0,8.5,0
		h-1C7.224,0,7,0.225,7,0.5V5H5.305C5.008,5,4.911,5.265,5.09,5.5L7.677,8.822z"/>
	<path d="M15,7h-3.5C11.224,7,11,7.224,11,7.5v1C11,8.776,11.224,9,11.5,9H14v3h-3.5c-0.276,0-0.5,0.224-0.5,0.5v1
		c0,0.276-0.224,0.5-0.5,0.5h-3C6.224,14,6,13.776,6,13.5v-1C6,12.224,5.776,12,5.5,12H2V9h2.5C4.776,9,5,8.776,5,8.5v-1
		C5,7.224,4.776,7,4.5,7H1C0.447,7,0,7.447,0,8v7c0,0.553,0.447,1,1,1h14c0.553,0,1-0.447,1-1V8C16,7.447,15.553,7,15,7z"/>
</g>
<g>
</g>
<g>
</g>
<g>
</g>
<g>
</g>
<g>
</g>
<g>
</g>
<g>
</g>
<g>
</g>
<g>
</g>
<g>
</g>
<g>
</g>
<g>
</g>
<g>
</g>
<g>
</g>
<g>
</g>
</svg>
