<?xml version="1.0" encoding="iso-8859-1"?>
<!-- Generator: Adobe Illustrator 16.0.0, SVG Export Plug-In . SVG Version: 6.00 Build 0)  -->
<!DOCTYPE svg PUBLIC "-//W3C//DTD SVG 1.1//EN" "http://www.w3.org/Graphics/SVG/1.1/DTD/svg11.dtd">
<svg version="1.1" id="Layer_1" xmlns="http://www.w3.org/2000/svg" xmlns:xlink="http://www.w3.org/1999/xlink" x="0px" y="0px"
	 width="14px" height="16px" viewBox="0 0 14 16" style="enable-background:new 0 0 14 16;" xml:space="preserve">
<g id="Export_Document_1">
	<path d="M10.5,4h3c0.276,0,0.342-0.158,0.146-0.354l-3.293-3.293C10.158,0.158,10,0.224,10,0.5v3C10,3.776,10.224,4,10.5,4z"/>
	<path d="M13.5,5h-4C9.224,5,9,4.776,9,4.5v-4C9,0.224,8.776,0,8.5,0H1C0.447,0,0,0.447,0,1v14c0,0.553,0.447,1,1,1h12
		c0.553,0,1-0.447,1-1V7V6V5.5C14,5.224,13.776,5,13.5,5z M7,6.305V8h3.5C10.776,8,11,8.224,11,8.5v1c0,0.276-0.224,0.5-0.5,0.5H7
		v1.695c0,0.297-0.264,0.394-0.5,0.215L3.174,9.323c-0.234-0.179-0.23-0.468,0.005-0.646L6.5,6.09C6.735,5.911,7,6.008,7,6.305z"/>
</g>
<g>
</g>
<g>
</g>
<g>
</g>
<g>
</g>
<g>
</g>
<g>
</g>
<g>
</g>
<g>
</g>
<g>
</g>
<g>
</g>
<g>
</g>
<g>
</g>
<g>
</g>
<g>
</g>
<g>
</g>
</svg>
