<?xml version="1.0" encoding="iso-8859-1"?>
<!-- Generator: Adobe Illustrator 16.0.0, SVG Export Plug-In . SVG Version: 6.00 Build 0)  -->
<!DOCTYPE svg PUBLIC "-//W3C//DTD SVG 1.1//EN" "http://www.w3.org/Graphics/SVG/1.1/DTD/svg11.dtd">
<svg version="1.1" id="Layer_1" xmlns="http://www.w3.org/2000/svg" xmlns:xlink="http://www.w3.org/1999/xlink" x="0px" y="0px"
	 width="17.862px" height="14px" viewBox="0 0 17.862 14" style="enable-background:new 0 0 17.862 14;" xml:space="preserve">
<g id="Eye_3_x2C__View_3">
	<circle cx="8.938" cy="7" r="2"/>
	<path d="M8.928,0c-3.521,0-6.891,2.52-8.78,6.57c0,0-0.047,0.101-0.104,0.225C-0.016,6.919-0.014,7.118,0.047,7.24l0.11,0.22
		C2.178,11.43,5.617,14,8.928,14c3.3,0,6.569-2.4,8.75-6.42c0,0,0.059-0.107,0.13-0.24s0.074-0.348,0.005-0.48L17.688,6.62
		C15.487,2.41,12.287,0,8.928,0z M8.938,11c-2.21,0-4.001-1.791-4.001-4s1.791-4,4.001-4c2.208,0,3.999,1.791,3.999,4
		S11.146,11,8.938,11z"/>
</g>
<g>
</g>
<g>
</g>
<g>
</g>
<g>
</g>
<g>
</g>
<g>
</g>
<g>
</g>
<g>
</g>
<g>
</g>
<g>
</g>
<g>
</g>
<g>
</g>
<g>
</g>
<g>
</g>
<g>
</g>
</svg>
