<?xml version="1.0" encoding="iso-8859-1"?>
<!-- Generator: Adobe Illustrator 16.0.0, SVG Export Plug-In . SVG Version: 6.00 Build 0)  -->
<!DOCTYPE svg PUBLIC "-//W3C//DTD SVG 1.1//EN" "http://www.w3.org/Graphics/SVG/1.1/DTD/svg11.dtd">
<svg version="1.1" id="Layer_1" xmlns="http://www.w3.org/2000/svg" xmlns:xlink="http://www.w3.org/1999/xlink" x="0px" y="0px"
	 width="16.01px" height="16px" viewBox="0 0 16.01 16" style="enable-background:new 0 0 16.01 16;" xml:space="preserve">
<path id="Feather_2" style="fill-rule:evenodd;clip-rule:evenodd;" d="M13.01,0C4.975,0,0.92,11.957,0.144,14.52
	C0.063,14.784,0,15.112,0,15.25v0.25C0,15.776,0.225,16,0.5,16C0.776,16,1,15.776,1,15.5V15c1-1.791,2.353-4.772,4.273-6.016
	C5.618,9.588,6.262,10,7.008,10c0.355,0,0.688-0.102,0.978-0.265l0,0l0,0c0.299-0.169,0.549-0.407,0.727-0.699
	C8.723,9.018,8.732,8.999,8.743,8.98c0.067-0.119,0.121-0.244,0.163-0.376C8.919,8.566,8.932,8.529,8.941,8.49
	C8.982,8.333,9.01,8.17,9.01,8c0-0.101-0.016-0.197-0.029-0.293C9.282,7.889,9.632,8,10.01,8c1.104,0,2-0.895,2-2
	c0-0.064-0.013-0.126-0.02-0.189C12.311,5.926,12.65,6,13.01,6c1.657,0,3-1.343,3-3S14.667,0,13.01,0z"/>
<g>
</g>
<g>
</g>
<g>
</g>
<g>
</g>
<g>
</g>
<g>
</g>
<g>
</g>
<g>
</g>
<g>
</g>
<g>
</g>
<g>
</g>
<g>
</g>
<g>
</g>
<g>
</g>
<g>
</g>
</svg>
