<?xml version="1.0" encoding="iso-8859-1"?>
<!-- Generator: Adobe Illustrator 16.0.0, SVG Export Plug-In . SVG Version: 6.00 Build 0)  -->
<!DOCTYPE svg PUBLIC "-//W3C//DTD SVG 1.1//EN" "http://www.w3.org/Graphics/SVG/1.1/DTD/svg11.dtd">
<svg version="1.1" id="Layer_1" xmlns="http://www.w3.org/2000/svg" xmlns:xlink="http://www.w3.org/1999/xlink" x="0px" y="0px"
	 width="16px" height="14px" viewBox="0 0 16 14" style="enable-background:new 0 0 16 14;" xml:space="preserve">
<path id="Film_1_x2C__Video_2" style="fill-rule:evenodd;clip-rule:evenodd;" d="M16,1c0-0.553-0.447-1-1-1H1C0.447,0,0,0.447,0,1
	v12c0,0.553,0.447,1,1,1h14c0.553,0,1-0.447,1-1V1z M4.008,12h-2v-2h2V12z M4.008,8h-2V6h2V8z M4.008,4h-2V2h2V4z M10.296,7.274
	L6.584,9.934C6.385,10.085,6,9.969,6,9.673V4.326c0-0.295,0.416-0.411,0.615-0.26l3.616,2.658
	C10.431,6.876,10.495,7.123,10.296,7.274z M14.008,12h-2v-2h2V12z M14.008,8h-2V6h2V8z M14.008,4h-2V2h2V4z"/>
<g>
</g>
<g>
</g>
<g>
</g>
<g>
</g>
<g>
</g>
<g>
</g>
<g>
</g>
<g>
</g>
<g>
</g>
<g>
</g>
<g>
</g>
<g>
</g>
<g>
</g>
<g>
</g>
<g>
</g>
</svg>
