<?xml version="1.0" encoding="iso-8859-1"?>
<!-- Generator: Adobe Illustrator 16.0.0, SVG Export Plug-In . SVG Version: 6.00 Build 0)  -->
<!DOCTYPE svg PUBLIC "-//W3C//DTD SVG 1.1//EN" "http://www.w3.org/Graphics/SVG/1.1/DTD/svg11.dtd">
<svg version="1.1" id="Layer_1" xmlns="http://www.w3.org/2000/svg" xmlns:xlink="http://www.w3.org/1999/xlink" x="0px" y="0px"
	 width="18px" height="16px" viewBox="0 0 18 16" style="enable-background:new 0 0 18 16;" xml:space="preserve">
<path id="Gas_1_x2C__Travel_1" d="M15,2c-0.553,0-1,0.447-1,1v3c0,1.302-0.839,2.401-2,2.815V1c0-0.553-0.447-1-1-1H3
	C2.447,0,2,0.447,2,1v13H0.5C0.224,14,0,14.224,0,14.5v1C0,15.776,0.224,16,0.5,16H3h8h2.5c0.276,0,0.5-0.224,0.5-0.5v-1
	c0-0.276-0.224-0.5-0.5-0.5H12v-3.102c2.279-0.464,4-2.484,4-4.898V4h1c0.553,0,1-0.447,1-1s-0.447-1-1-1H15z M10,2v4H4V2H10z"/>
<g>
</g>
<g>
</g>
<g>
</g>
<g>
</g>
<g>
</g>
<g>
</g>
<g>
</g>
<g>
</g>
<g>
</g>
<g>
</g>
<g>
</g>
<g>
</g>
<g>
</g>
<g>
</g>
<g>
</g>
</svg>
