<?xml version="1.0" encoding="iso-8859-1"?>
<!-- Generator: Adobe Illustrator 16.0.0, SVG Export Plug-In . SVG Version: 6.00 Build 0)  -->
<!DOCTYPE svg PUBLIC "-//W3C//DTD SVG 1.1//EN" "http://www.w3.org/Graphics/SVG/1.1/DTD/svg11.dtd">
<svg version="1.1" id="Layer_1" xmlns="http://www.w3.org/2000/svg" xmlns:xlink="http://www.w3.org/1999/xlink" x="0px" y="0px"
	 width="16px" height="16px" viewBox="0 0 16 16" style="enable-background:new 0 0 16 16;" xml:space="preserve">
<path id="Graph_1_x2C__Stats_1" d="M15,0H1C0.447,0,0,0.447,0,1v14c0,0.553,0.447,1,1,1h14c0.553,0,1-0.447,1-1V1
	C16,0.447,15.553,0,15,0z M6,11.5C6,11.776,5.776,12,5.5,12h-1C4.224,12,4,11.776,4,11.5v-3C4,8.224,4.224,8,4.5,8h1
	C5.776,8,6,8.224,6,8.5V11.5z M9,11.5C9,11.776,8.776,12,8.5,12h-1C7.224,12,7,11.776,7,11.5v-7C7,4.224,7.224,4,7.5,4h1
	C8.776,4,9,4.224,9,4.5V11.5z M12,11.5c0,0.276-0.224,0.5-0.5,0.5h-1c-0.276,0-0.5-0.224-0.5-0.5v-5C10,6.224,10.224,6,10.5,6h1
	C11.776,6,12,6.224,12,6.5V11.5z"/>
<g>
</g>
<g>
</g>
<g>
</g>
<g>
</g>
<g>
</g>
<g>
</g>
<g>
</g>
<g>
</g>
<g>
</g>
<g>
</g>
<g>
</g>
<g>
</g>
<g>
</g>
<g>
</g>
<g>
</g>
</svg>
