<?xml version="1.0" encoding="iso-8859-1"?>
<!-- Generator: Adobe Illustrator 16.0.0, SVG Export Plug-In . SVG Version: 6.00 Build 0)  -->
<!DOCTYPE svg PUBLIC "-//W3C//DTD SVG 1.1//EN" "http://www.w3.org/Graphics/SVG/1.1/DTD/svg11.dtd">
<svg version="1.1" id="Layer_1" xmlns="http://www.w3.org/2000/svg" xmlns:xlink="http://www.w3.org/1999/xlink" x="0px" y="0px"
	 width="16px" height="16.036px" viewBox="0 0 16 16.036" style="enable-background:new 0 0 16 16.036;" xml:space="preserve">
<path id="Heart_Comment_1" d="M15,0H1C0.447,0,0,0.496,0,1.048v11C0,12.601,0.447,13,1,13h3.586l2.707,2.731
	C7.488,15.927,7.744,16.036,8,16.036s0.512-0.116,0.707-0.311L11.414,13H15c0.553,0,1-0.399,1-0.952v-11C16,0.496,15.553,0,15,0z
	 M11.514,6.995l-3.068,3.3c-0.19,0.206-0.501,0.206-0.691,0l-3.068-3.3c-0.781-0.812-0.781-2.126,0-2.938
	c0.781-0.811,2.049-0.811,2.831,0L8.1,4.792l0.582-0.735c0.784-0.811,2.051-0.811,2.832,0C12.295,4.869,12.295,6.183,11.514,6.995z"
	/>
<g>
</g>
<g>
</g>
<g>
</g>
<g>
</g>
<g>
</g>
<g>
</g>
<g>
</g>
<g>
</g>
<g>
</g>
<g>
</g>
<g>
</g>
<g>
</g>
<g>
</g>
<g>
</g>
<g>
</g>
</svg>
