<?xml version="1.0" encoding="iso-8859-1"?>
<!-- Generator: Adobe Illustrator 16.0.0, SVG Export Plug-In . SVG Version: 6.00 Build 0)  -->
<!DOCTYPE svg PUBLIC "-//W3C//DTD SVG 1.1//EN" "http://www.w3.org/Graphics/SVG/1.1/DTD/svg11.dtd">
<svg version="1.1" id="Layer_1" xmlns="http://www.w3.org/2000/svg" xmlns:xlink="http://www.w3.org/1999/xlink" x="0px" y="0px"
	 width="16px" height="16px" viewBox="0 0 16 16" style="enable-background:new 0 0 16 16;" xml:space="preserve">
<g id="History_1_x2C__Time_Machine_1">
	<path d="M7,5C6.447,5,6,5.447,6,6v2v1c0,0.553,0.447,1,1,1h1h2c0.553,0,1-0.447,1-1s-0.447-1-1-1H8V6C8,5.447,7.553,5,7,5z"/>
	<path d="M15.293,0.708l-1.586,1.586l-0.023,0.023C12.195,0.877,10.096,0,8,0C3.589,0,0,3.589,0,8s3.589,8,8,8
		c3.57,0,6.651-2.297,7.668-5.715c0.158-0.529-0.144-1.086-0.673-1.244c-0.528-0.158-1.086,0.145-1.244,0.674
		C12.989,12.277,10.678,14,8,14c-3.309,0-6-2.691-6-6s2.691-6,6-6c1.559,0,3.166,0.651,4.285,1.716l-1.578,1.577
		C10.316,5.684,10.447,6,11,6h4.5C15.776,6,16,5.777,16,5.501v-4.5C16,0.448,15.684,0.317,15.293,0.708z"/>
</g>
<g>
</g>
<g>
</g>
<g>
</g>
<g>
</g>
<g>
</g>
<g>
</g>
<g>
</g>
<g>
</g>
<g>
</g>
<g>
</g>
<g>
</g>
<g>
</g>
<g>
</g>
<g>
</g>
<g>
</g>
</svg>
