<?xml version="1.0" encoding="iso-8859-1"?>
<!-- Generator: Adobe Illustrator 16.0.0, SVG Export Plug-In . SVG Version: 6.00 Build 0)  -->
<!DOCTYPE svg PUBLIC "-//W3C//DTD SVG 1.1//EN" "http://www.w3.org/Graphics/SVG/1.1/DTD/svg11.dtd">
<svg version="1.1" id="Layer_1" xmlns="http://www.w3.org/2000/svg" xmlns:xlink="http://www.w3.org/1999/xlink" x="0px" y="0px"
	 width="18px" height="15.989px" viewBox="0 0 18 15.989" style="enable-background:new 0 0 18 15.989;" xml:space="preserve">
<path id="House_2_x2C__Home_2" d="M9.363,0.16C9.162-0.038,8.838-0.061,8.637,0.137L0.115,8.584c-0.2,0.198-0.133,0.404,0.15,0.404
	H2v6.5c0,0.276,0.224,0.5,0.5,0.5h3.932C6.715,15.989,7,15.762,7,15.482v-3.993c0-0.276,0.224-0.5,0.5-0.5h3
	c0.276,0,0.5,0.224,0.5,0.5v3.993c0,0.28,0.285,0.507,0.568,0.507H15.5c0.276,0,0.5-0.224,0.5-0.5v-6.5h1.734
	c0.283,0,0.351-0.206,0.15-0.404L9.363,0.16z"/>
<g>
</g>
<g>
</g>
<g>
</g>
<g>
</g>
<g>
</g>
<g>
</g>
<g>
</g>
<g>
</g>
<g>
</g>
<g>
</g>
<g>
</g>
<g>
</g>
<g>
</g>
<g>
</g>
<g>
</g>
</svg>
