<?xml version="1.0" encoding="iso-8859-1"?>
<!-- Generator: Adobe Illustrator 16.0.0, SVG Export Plug-In . SVG Version: 6.00 Build 0)  -->
<!DOCTYPE svg PUBLIC "-//W3C//DTD SVG 1.1//EN" "http://www.w3.org/Graphics/SVG/1.1/DTD/svg11.dtd">
<svg version="1.1" id="Layer_1" xmlns="http://www.w3.org/2000/svg" xmlns:xlink="http://www.w3.org/1999/xlink" x="0px" y="0px"
	 width="18px" height="16px" viewBox="0 0 18 16" style="enable-background:new 0 0 18 16;" xml:space="preserve">
<g id="House_1_x2C__Home_1">
	<path d="M6.48,16H2.954C2.397,16,2,15.553,2,15V9H0.521c-0.557,0-0.688-0.316-0.295-0.707l8.061-8c0.395-0.391,1.031-0.391,1.426,0
		l8.061,8C18.167,8.684,18.035,9,17.479,9H16v6c0,0.553-0.397,1-0.954,1H11.52C11.24,16,11,15.776,11,15.5v-4
		c0-0.276-0.21-0.5-0.488-0.5H7.488C7.21,11,7,11.224,7,11.5v4C7,15.776,6.76,16,6.48,16z"/>
</g>
<g>
</g>
<g>
</g>
<g>
</g>
<g>
</g>
<g>
</g>
<g>
</g>
<g>
</g>
<g>
</g>
<g>
</g>
<g>
</g>
<g>
</g>
<g>
</g>
<g>
</g>
<g>
</g>
<g>
</g>
</svg>
