<?xml version="1.0" encoding="iso-8859-1"?>
<!-- Generator: Adobe Illustrator 16.0.0, SVG Export Plug-In . SVG Version: 6.00 Build 0)  -->
<!DOCTYPE svg PUBLIC "-//W3C//DTD SVG 1.1//EN" "http://www.w3.org/Graphics/SVG/1.1/DTD/svg11.dtd">
<svg version="1.1" id="Layer_1" xmlns="http://www.w3.org/2000/svg" xmlns:xlink="http://www.w3.org/1999/xlink" x="0px" y="0px"
	 width="17.997px" height="15.793px" viewBox="0 0 17.997 15.793" style="enable-background:new 0 0 17.997 15.793;"
	 xml:space="preserve">
<path id="House_3_x2C__Home_3" style="fill-rule:evenodd;clip-rule:evenodd;" d="M14.011,4.793v-3.5c0-0.276-0.218-0.5-0.494-0.5
	h-1.002c-0.276,0-0.504,0.224-0.504,0.5v1.5L9.362,0.146c-0.195-0.195-0.511-0.195-0.706,0L0.112,8.439
	c-0.195,0.195-0.13,0.354,0.146,0.354h1.752v6.5c0,0.276,0.215,0.5,0.492,0.5h4.005c0.276,0,0.503-0.224,0.503-0.5v-4
	c0-0.276,0.222-0.5,0.498-0.5h3.004c0.276,0,0.498,0.224,0.498,0.5v4c0,0.276,0.227,0.5,0.503,0.5h4.005
	c0.277,0,0.492-0.224,0.492-0.5v-6.5h1.729c0.276,0,0.339-0.158,0.144-0.354L14.011,4.793z"/>
<g>
</g>
<g>
</g>
<g>
</g>
<g>
</g>
<g>
</g>
<g>
</g>
<g>
</g>
<g>
</g>
<g>
</g>
<g>
</g>
<g>
</g>
<g>
</g>
<g>
</g>
<g>
</g>
<g>
</g>
</svg>
