<?xml version="1.0" encoding="iso-8859-1"?>
<!-- Generator: Adobe Illustrator 16.0.0, SVG Export Plug-In . SVG Version: 6.00 Build 0)  -->
<!DOCTYPE svg PUBLIC "-//W3C//DTD SVG 1.1//EN" "http://www.w3.org/Graphics/SVG/1.1/DTD/svg11.dtd">
<svg version="1.1" id="Layer_1" xmlns="http://www.w3.org/2000/svg" xmlns:xlink="http://www.w3.org/1999/xlink" x="0px" y="0px"
	 width="14px" height="16px" viewBox="0 0 14 16" style="enable-background:new 0 0 14 16;" xml:space="preserve">
<g id="Import_Document_1">
	<path d="M10.5,4h3c0.276,0,0.342-0.158,0.146-0.354l-3.293-3.293C10.158,0.158,10,0.224,10,0.5v3C10,3.776,10.224,4,10.5,4z"/>
	<path d="M13.5,5h-4C9.224,5,9,4.776,9,4.5v-4C9,0.224,8.776,0,8.5,0H1C0.447,0,0,0.447,0,1v14c0,0.553,0.447,1,1,1h12
		c0.553,0,1-0.447,1-1V7V6V5.5C14,5.224,13.776,5,13.5,5z M7,11.695V10H3.5C3.224,10,3,9.776,3,9.5v-1C3,8.224,3.224,8,3.5,8H7
		V6.305C7,6.008,7.264,5.911,7.5,6.09l3.326,2.587c0.234,0.179,0.23,0.468-0.005,0.646L7.5,11.91C7.265,12.089,7,11.992,7,11.695z"
		/>
</g>
<g>
</g>
<g>
</g>
<g>
</g>
<g>
</g>
<g>
</g>
<g>
</g>
<g>
</g>
<g>
</g>
<g>
</g>
<g>
</g>
<g>
</g>
<g>
</g>
<g>
</g>
<g>
</g>
<g>
</g>
</svg>
