<?xml version="1.0" encoding="iso-8859-1"?>
<!-- Generator: Adobe Illustrator 16.0.0, SVG Export Plug-In . SVG Version: 6.00 Build 0)  -->
<!DOCTYPE svg PUBLIC "-//W3C//DTD SVG 1.1//EN" "http://www.w3.org/Graphics/SVG/1.1/DTD/svg11.dtd">
<svg version="1.1" id="Layer_1" xmlns="http://www.w3.org/2000/svg" xmlns:xlink="http://www.w3.org/1999/xlink" x="0px" y="0px"
	 width="16px" height="16px" viewBox="0 0 16 16" style="enable-background:new 0 0 16 16;" xml:space="preserve">
<g id="Inbox_5">
	<path style="fill-rule:evenodd;clip-rule:evenodd;" d="M15,0H1C0.447,0,0,0.447,0,1v13v1c0,0.553,0.447,1,1,1h14
		c0.553,0,1-0.447,1-1V1C16,0.447,15.553,0,15,0z M14,10h-2c-0.553,0-1,0.447-1,1v1.5c0,0.276-0.224,0.5-0.5,0.5h-5
		C5.224,13,5,12.776,5,12.5V11c0-0.553-0.447-1-1-1H2V2h12V10z"/>
	<path style="fill-rule:evenodd;clip-rule:evenodd;" d="M5.307,7H7v2.498C7,9.774,7.226,10,7.502,10h1C8.778,10,9,9.774,9,9.498V7
		h1.697c0.297,0,0.394-0.266,0.215-0.501L8.325,3.178C8.146,2.941,7.857,2.938,7.679,3.173L5.092,6.499C4.913,6.735,5.01,7,5.307,7z
		"/>
</g>
<g>
</g>
<g>
</g>
<g>
</g>
<g>
</g>
<g>
</g>
<g>
</g>
<g>
</g>
<g>
</g>
<g>
</g>
<g>
</g>
<g>
</g>
<g>
</g>
<g>
</g>
<g>
</g>
<g>
</g>
</svg>
