<?xml version="1.0" encoding="iso-8859-1"?>
<!-- Generator: Adobe Illustrator 16.0.0, SVG Export Plug-In . SVG Version: 6.00 Build 0)  -->
<!DOCTYPE svg PUBLIC "-//W3C//DTD SVG 1.1//EN" "http://www.w3.org/Graphics/SVG/1.1/DTD/svg11.dtd">
<svg version="1.1" id="Layer_1" xmlns="http://www.w3.org/2000/svg" xmlns:xlink="http://www.w3.org/1999/xlink" x="0px" y="0px"
	 width="16px" height="16px" viewBox="0 0 16 16" style="enable-background:new 0 0 16 16;" xml:space="preserve">
<g id="Inbox_4">
	<path style="fill-rule:evenodd;clip-rule:evenodd;" d="M15.01,0h-14C0.457,0,0,0.447,0,1v13v1c0,0.553,0.457,1,1.01,1h14
		c0.553,0,0.99-0.447,0.99-1V1C16,0.447,15.562,0,15.01,0z M14,10h-1.99C11.457,10,11,10.447,11,11v1.5c0,0.276-0.214,0.5-0.49,0.5
		h-5C5.233,13,5,12.776,5,12.5V11c0-0.553-0.438-1-0.99-1H2V2h12V10z"/>
	<path style="fill-rule:evenodd;clip-rule:evenodd;" d="M7.687,9.822c0.179,0.234,0.468,0.238,0.646,0.004L10.92,6.5
		C11.099,6.264,11.002,6,10.705,6H9V3.5C9,3.225,8.786,3,8.51,3h-1C7.233,3,7,3.225,7,3.5V6H5.314C5.018,6,4.921,6.265,5.1,6.5
		L7.687,9.822z"/>
</g>
<g>
</g>
<g>
</g>
<g>
</g>
<g>
</g>
<g>
</g>
<g>
</g>
<g>
</g>
<g>
</g>
<g>
</g>
<g>
</g>
<g>
</g>
<g>
</g>
<g>
</g>
<g>
</g>
<g>
</g>
</svg>
