<?xml version="1.0" encoding="iso-8859-1"?>
<!-- Generator: Adobe Illustrator 16.0.0, SVG Export Plug-In . SVG Version: 6.00 Build 0)  -->
<!DOCTYPE svg PUBLIC "-//W3C//DTD SVG 1.1//EN" "http://www.w3.org/Graphics/SVG/1.1/DTD/svg11.dtd">
<svg version="1.1" id="Layer_1" xmlns="http://www.w3.org/2000/svg" xmlns:xlink="http://www.w3.org/1999/xlink" x="0px" y="0px"
	 width="16px" height="14px" viewBox="0 0 16 14" style="enable-background:new 0 0 16 14;" xml:space="preserve">
<g id="Inbox_6">
	<path d="M2,1l-2,9v2v1c0,0.553,0.447,1,1,1h14c0.553,0,1-0.447,1-1v-3l-2-9c0-0.553-0.447-1-1-1H3C2.447,0,2,0.447,2,1z M11,9v1
		c0,0.553-0.447,1-1,1H6c-0.553,0-1-0.447-1-1V9c0-0.553-0.447-1-1-1H3l1-6h8l1,6h-1C11.447,8,11,8.447,11,9z"/>
</g>
<g>
</g>
<g>
</g>
<g>
</g>
<g>
</g>
<g>
</g>
<g>
</g>
<g>
</g>
<g>
</g>
<g>
</g>
<g>
</g>
<g>
</g>
<g>
</g>
<g>
</g>
<g>
</g>
<g>
</g>
</svg>
