<?xml version="1.0" encoding="iso-8859-1"?>
<!-- Generator: Adobe Illustrator 16.0.0, SVG Export Plug-In . SVG Version: 6.00 Build 0)  -->
<!DOCTYPE svg PUBLIC "-//W3C//DTD SVG 1.1//EN" "http://www.w3.org/Graphics/SVG/1.1/DTD/svg11.dtd">
<svg version="1.1" id="Layer_1" xmlns="http://www.w3.org/2000/svg" xmlns:xlink="http://www.w3.org/1999/xlink" x="0px" y="0px"
	 width="14px" height="16px" viewBox="0 0 14 16" style="enable-background:new 0 0 14 16;" xml:space="preserve">
<g id="Journal_2">
	<path d="M1,0C0.447,0,0,0.447,0,1v14c0,0.553,0.447,1,1,1h1V0H1z"/>
	<path d="M13,0H3v16h10c0.553,0,1-0.447,1-1V1C14,0.447,13.553,0,13,0z M10.5,9h-4C6.224,9,6,8.776,6,8.5v-1C6,7.224,6.224,7,6.5,7
		h4C10.776,7,11,7.224,11,7.5v1C11,8.776,10.776,9,10.5,9z M10.5,6h-4C6.224,6,6,5.776,6,5.5v-1C6,4.224,6.224,4,6.5,4h4
		C10.776,4,11,4.224,11,4.5v1C11,5.776,10.776,6,10.5,6z"/>
</g>
<g>
</g>
<g>
</g>
<g>
</g>
<g>
</g>
<g>
</g>
<g>
</g>
<g>
</g>
<g>
</g>
<g>
</g>
<g>
</g>
<g>
</g>
<g>
</g>
<g>
</g>
<g>
</g>
<g>
</g>
</svg>
