<?xml version="1.0" encoding="iso-8859-1"?>
<!-- Generator: Adobe Illustrator 16.0.0, SVG Export Plug-In . SVG Version: 6.00 Build 0)  -->
<!DOCTYPE svg PUBLIC "-//W3C//DTD SVG 1.1//EN" "http://www.w3.org/Graphics/SVG/1.1/DTD/svg11.dtd">
<svg version="1.1" id="Layer_1" xmlns="http://www.w3.org/2000/svg" xmlns:xlink="http://www.w3.org/1999/xlink" x="0px" y="0px"
	 width="16px" height="16px" viewBox="0 0 16 16" style="enable-background:new 0 0 16 16;" xml:space="preserve">
<path id="Layout_4" d="M15,0H1C0.447,0,0,0.447,0,1v14c0,0.553,0.447,1,1,1h14c0.553,0,1-0.447,1-1V1C16,0.447,15.553,0,15,0z
	 M6,11.5C6,11.776,5.776,12,5.5,12h-1C4.224,12,4,11.776,4,11.5v-2C4,9.224,4.224,9,4.5,9h1C5.776,9,6,9.224,6,9.5V11.5z M9,11.5
	C9,11.776,8.776,12,8.5,12h-1C7.224,12,7,11.776,7,11.5v-2C7,9.224,7.224,9,7.5,9h1C8.776,9,9,9.224,9,9.5V11.5z M12,11.5
	c0,0.276-0.224,0.5-0.5,0.5h-1c-0.276,0-0.5-0.224-0.5-0.5v-2C10,9.224,10.224,9,10.5,9h1C11.776,9,12,9.224,12,9.5V11.5z M12,6.5
	C12,6.776,11.776,7,11.5,7h-7C4.224,7,4,6.776,4,6.5v-2C4,4.224,4.224,4,4.5,4h7C11.776,4,12,4.224,12,4.5V6.5z"/>
<g>
</g>
<g>
</g>
<g>
</g>
<g>
</g>
<g>
</g>
<g>
</g>
<g>
</g>
<g>
</g>
<g>
</g>
<g>
</g>
<g>
</g>
<g>
</g>
<g>
</g>
<g>
</g>
<g>
</g>
</svg>
