<?xml version="1.0" encoding="iso-8859-1"?>
<!-- Generator: Adobe Illustrator 16.0.0, SVG Export Plug-In . SVG Version: 6.00 Build 0)  -->
<!DOCTYPE svg PUBLIC "-//W3C//DTD SVG 1.1//EN" "http://www.w3.org/Graphics/SVG/1.1/DTD/svg11.dtd">
<svg version="1.1" id="Layer_1" xmlns="http://www.w3.org/2000/svg" xmlns:xlink="http://www.w3.org/1999/xlink" x="0px" y="0px"
	 width="16.749px" height="16.019px" viewBox="0 0 16.749 16.019" style="enable-background:new 0 0 16.749 16.019;"
	 xml:space="preserve">
<path id="Leaf_1_x2C__Nature_2" d="M1.481,7.594c0,0.201,0.012,0.398,0.032,0.594c0.028,0.274,0.24,0.352,0.457,0.18
	C5.11,5.871,7.71,4.756,9.041,4.3c0.522-0.18,0.557-0.084,0.078,0.191c-3.266,1.876-6.826,6.282-6.812,6.307
	c-0.478,0.611-0.891,1.219-1.216,1.765c-0.351,0.57-0.602,1.081-0.774,1.444c-0.168,0.359-0.267,0.631-0.26,0.607
	c-0.182,0.549,0.086,1.148,0.601,1.343s1.079-0.091,1.262-0.636c0.008-0.023,0.042-0.16,0.158-0.486
	c0.122-0.316,0.297-0.779,0.565-1.314c0.193-0.402,0.445-0.85,0.725-1.309c1.069,1.068,2.504,1.73,4.085,1.73
	c2.56,0,5.923-1.986,6.548-5.924c0,0,0.681-4.301,2.575-5.738c0.22-0.167,0.242-0.393,0.004-0.531
	C15.08,0.875,12.493,0.147,10,0.019C7.875-0.091,6.735,0.331,6.735,0.331C3.445,1.452,1.481,4.167,1.481,7.594z"/>
<g>
</g>
<g>
</g>
<g>
</g>
<g>
</g>
<g>
</g>
<g>
</g>
<g>
</g>
<g>
</g>
<g>
</g>
<g>
</g>
<g>
</g>
<g>
</g>
<g>
</g>
<g>
</g>
<g>
</g>
</svg>
