<?xml version="1.0" encoding="iso-8859-1"?>
<!-- Generator: Adobe Illustrator 16.0.0, SVG Export Plug-In . SVG Version: 6.00 Build 0)  -->
<!DOCTYPE svg PUBLIC "-//W3C//DTD SVG 1.1//EN" "http://www.w3.org/Graphics/SVG/1.1/DTD/svg11.dtd">
<svg version="1.1" id="Layer_1" xmlns="http://www.w3.org/2000/svg" xmlns:xlink="http://www.w3.org/1999/xlink" x="0px" y="0px"
	 width="16px" height="16px" viewBox="0 0 16 16" style="enable-background:new 0 0 16 16;" xml:space="preserve">
<path id="Left_Square_3" style="fill-rule:evenodd;clip-rule:evenodd;" d="M16,1c0-0.553-0.447-1-1-1H1C0.447,0,0,0.447,0,1v14
	c0,0.553,0.447,1,1,1h14c0.553,0,1-0.447,1-1V1z M12,8.5C12,8.776,11.784,9,11.508,9H8v1.532c0,0.466-0.187,0.607-0.587,0.316
	L4.289,8.526c-0.4-0.29-0.364-0.763,0.036-1.054L7.395,5.15C7.797,4.859,8,5.002,8,5.468V7h3.508C11.784,7,12,7.224,12,7.5V8.5z"/>
<g>
</g>
<g>
</g>
<g>
</g>
<g>
</g>
<g>
</g>
<g>
</g>
<g>
</g>
<g>
</g>
<g>
</g>
<g>
</g>
<g>
</g>
<g>
</g>
<g>
</g>
<g>
</g>
<g>
</g>
</svg>
