<?xml version="1.0" encoding="iso-8859-1"?>
<!-- Generator: Adobe Illustrator 16.0.0, SVG Export Plug-In . SVG Version: 6.00 Build 0)  -->
<!DOCTYPE svg PUBLIC "-//W3C//DTD SVG 1.1//EN" "http://www.w3.org/Graphics/SVG/1.1/DTD/svg11.dtd">
<svg version="1.1" id="Layer_1" xmlns="http://www.w3.org/2000/svg" xmlns:xlink="http://www.w3.org/1999/xlink" x="0px" y="0px"
	 width="16px" height="16px" viewBox="0 0 16 16" style="enable-background:new 0 0 16 16;" xml:space="preserve">
<path id="Life_Ring_1_x2C__Support_1" d="M8,0C3.589,0,0,3.589,0,8s3.589,8,8,8s8-3.589,8-8S12.411,0,8,0z M11.601,9.695
	C11.846,9.179,11.992,8.608,11.992,8s-0.146-1.179-0.392-1.695l1.694-1.129C13.746,6.019,14.004,6.979,14.004,8
	s-0.258,1.981-0.709,2.824L11.601,9.695z M2.705,10.824C2.254,9.981,1.996,9.021,1.996,8s0.258-1.981,0.709-2.824l1.694,1.129
	C4.154,6.821,4.007,7.392,4.007,8s0.147,1.179,0.393,1.695L2.705,10.824z M6.004,8c0-1.101,0.896-1.996,1.996-1.996
	S9.996,6.899,9.996,8S9.101,9.996,8,9.996S6.004,9.101,6.004,8z M10.824,2.705L9.695,4.399C9.179,4.154,8.608,4.007,8,4.007
	S6.821,4.154,6.305,4.399L5.176,2.705C6.019,2.254,6.979,1.996,8,1.996S9.981,2.254,10.824,2.705z M5.176,13.295l1.129-1.694
	C6.821,11.846,7.392,11.993,8,11.993s1.179-0.147,1.695-0.393l1.129,1.694C9.981,13.746,9.021,14.004,8,14.004
	S6.019,13.746,5.176,13.295z"/>
<g>
</g>
<g>
</g>
<g>
</g>
<g>
</g>
<g>
</g>
<g>
</g>
<g>
</g>
<g>
</g>
<g>
</g>
<g>
</g>
<g>
</g>
<g>
</g>
<g>
</g>
<g>
</g>
<g>
</g>
</svg>
