<?xml version="1.0" encoding="iso-8859-1"?>
<!-- Generator: Adobe Illustrator 16.0.0, SVG Export Plug-In . SVG Version: 6.00 Build 0)  -->
<!DOCTYPE svg PUBLIC "-//W3C//DTD SVG 1.1//EN" "http://www.w3.org/Graphics/SVG/1.1/DTD/svg11.dtd">
<svg version="1.1" id="Layer_1" xmlns="http://www.w3.org/2000/svg" xmlns:xlink="http://www.w3.org/1999/xlink" x="0px" y="0px"
	 width="10px" height="16.001px" viewBox="0 0 10 16.001" style="enable-background:new 0 0 10 16.001;" xml:space="preserve">
<g id="Lightbulb_2">
	<path d="M3.878,15.521c0.132,0.242,0.346,0.479,0.622,0.479h1c0.276,0,0.49-0.237,0.622-0.479C6.291,15.211,6.621,15.001,7,15.001
		c0.553,0,1-0.447,1-1v-1.5c0-0.276-0.224-0.5-0.5-0.5h-5c-0.276,0-0.5,0.224-0.5,0.5v1.5c0,0.553,0.447,1,1,1
		C3.379,15.001,3.709,15.211,3.878,15.521z"/>
	<path d="M8.876,4.009l-8,1C0.328,5.077-0.061,5.577,0.008,6.125c0.062,0.506,0.494,0.876,0.99,0.876
		c0.042,0,0.084-0.002,0.126-0.008l8-1c0.548-0.068,0.937-0.568,0.868-1.116S9.416,3.938,8.876,4.009z"/>
	<path d="M0.998,3.001c0.042,0,0.084-0.002,0.126-0.008l8-1c0.548-0.068,0.937-0.568,0.868-1.116S9.416-0.062,8.876,0.009l-8,1
		C0.328,1.077-0.061,1.577,0.008,2.125C0.07,2.631,0.502,3.001,0.998,3.001z"/>
	<path d="M8.876,8.009l-8,1c-0.548,0.068-0.937,0.568-0.868,1.116c0.062,0.506,0.494,0.876,0.99,0.876
		c0.042,0,0.084-0.002,0.126-0.008l8-1c0.548-0.068,0.937-0.568,0.868-1.116S9.416,7.938,8.876,8.009z"/>
</g>
<g>
</g>
<g>
</g>
<g>
</g>
<g>
</g>
<g>
</g>
<g>
</g>
<g>
</g>
<g>
</g>
<g>
</g>
<g>
</g>
<g>
</g>
<g>
</g>
<g>
</g>
<g>
</g>
<g>
</g>
</svg>
