<?xml version="1.0" encoding="iso-8859-1"?>
<!-- Generator: Adobe Illustrator 16.0.0, SVG Export Plug-In . SVG Version: 6.00 Build 0)  -->
<!DOCTYPE svg PUBLIC "-//W3C//DTD SVG 1.1//EN" "http://www.w3.org/Graphics/SVG/1.1/DTD/svg11.dtd">
<svg version="1.1" id="Layer_1" xmlns="http://www.w3.org/2000/svg" xmlns:xlink="http://www.w3.org/1999/xlink" x="0px" y="0px"
	 width="16px" height="16px" viewBox="0 0 16 16" style="enable-background:new 0 0 16 16;" xml:space="preserve">
<g id="Location_Pin_4">
	<path d="M15.929,14.629l-2-5C13.776,9.249,13.409,9,13,9H9.992v2h2.331l1.2,3H2.477l1.2-3h2.315V9H3
		C2.591,9,2.224,9.249,2.071,9.629l-2,5c-0.123,0.308-0.085,0.656,0.101,0.932C0.358,15.836,0.668,16,1,16h14
		c0.332,0,0.642-0.164,0.828-0.439C16.014,15.285,16.052,14.937,15.929,14.629z"/>
	<path d="M6.992,7.858V12.5c0,0.276,0.231,0.5,0.508,0.5h1c0.276,0,0.492-0.224,0.492-0.5V7.858c2-0.446,3.004-1.997,3.004-3.858
		c0-2.209-1.79-4-3.998-4S3.995,1.791,3.995,4C3.995,5.861,4.992,7.412,6.992,7.858z"/>
</g>
<g>
</g>
<g>
</g>
<g>
</g>
<g>
</g>
<g>
</g>
<g>
</g>
<g>
</g>
<g>
</g>
<g>
</g>
<g>
</g>
<g>
</g>
<g>
</g>
<g>
</g>
<g>
</g>
<g>
</g>
</svg>
