<?xml version="1.0" encoding="iso-8859-1"?>
<!-- Generator: Adobe Illustrator 16.0.0, SVG Export Plug-In . SVG Version: 6.00 Build 0)  -->
<!DOCTYPE svg PUBLIC "-//W3C//DTD SVG 1.1//EN" "http://www.w3.org/Graphics/SVG/1.1/DTD/svg11.dtd">
<svg version="1.1" id="Layer_1" xmlns="http://www.w3.org/2000/svg" xmlns:xlink="http://www.w3.org/1999/xlink" x="0px" y="0px"
	 width="16px" height="15.999px" viewBox="0 0 16 15.999" style="enable-background:new 0 0 16 15.999;" xml:space="preserve">
<g id="Location_Arrow_1">
	<path d="M7.771,15.972C7.319,15.866,7,15.463,7,14.999v-5.5c0-0.276-0.224-0.5-0.5-0.5H1c-0.464,0-0.866-0.318-0.974-0.77
		C-0.08,7.777,0.138,7.312,0.553,7.104l14-7c0.385-0.19,0.849-0.117,1.154,0.188c0.305,0.305,0.38,0.77,0.188,1.154l-7,14
		C8.723,15.79,8.372,15.999,8,15.999C7.924,15.999,7.847,15.99,7.771,15.972z"/>
</g>
<g>
</g>
<g>
</g>
<g>
</g>
<g>
</g>
<g>
</g>
<g>
</g>
<g>
</g>
<g>
</g>
<g>
</g>
<g>
</g>
<g>
</g>
<g>
</g>
<g>
</g>
<g>
</g>
<g>
</g>
</svg>
