<?xml version="1.0" encoding="iso-8859-1"?>
<!-- Generator: Adobe Illustrator 16.0.0, SVG Export Plug-In . SVG Version: 6.00 Build 0)  -->
<!DOCTYPE svg PUBLIC "-//W3C//DTD SVG 1.1//EN" "http://www.w3.org/Graphics/SVG/1.1/DTD/svg11.dtd">
<svg version="1.1" id="Layer_1" xmlns="http://www.w3.org/2000/svg" xmlns:xlink="http://www.w3.org/1999/xlink" x="0px" y="0px"
	 width="16px" height="16px" viewBox="0 0 16 16" style="enable-background:new 0 0 16 16;" xml:space="preserve">
<g id="Location_Pin_5">
	<path d="M7,5.82v5.68C7,11.779,7.22,12,7.5,12h1C8.78,12,9,11.779,9,11.5V5.82C10.16,5.4,11,4.3,11,3c0-1.66-1.34-3-3-3S5,1.34,5,3
		C5,4.3,5.84,5.4,7,5.82z"/>
	<path d="M15,3h-2c0,0.71-0.15,1.391-0.41,2H14v9H2V5h1.41C3.15,4.391,3,3.71,3,3H1C0.45,3,0,3.45,0,4v11c0,0.55,0.45,1,1,1h14
		c0.55,0,1-0.45,1-1V4C16,3.45,15.55,3,15,3z"/>
</g>
<g>
</g>
<g>
</g>
<g>
</g>
<g>
</g>
<g>
</g>
<g>
</g>
<g>
</g>
<g>
</g>
<g>
</g>
<g>
</g>
<g>
</g>
<g>
</g>
<g>
</g>
<g>
</g>
<g>
</g>
</svg>
