<?xml version="1.0" encoding="iso-8859-1"?>
<!-- Generator: Adobe Illustrator 16.0.0, SVG Export Plug-In . SVG Version: 6.00 Build 0)  -->
<!DOCTYPE svg PUBLIC "-//W3C//DTD SVG 1.1//EN" "http://www.w3.org/Graphics/SVG/1.1/DTD/svg11.dtd">
<svg version="1.1" id="Layer_1" xmlns="http://www.w3.org/2000/svg" xmlns:xlink="http://www.w3.org/1999/xlink" x="0px" y="0px"
	 width="16px" height="14px" viewBox="0 0 16 14" style="enable-background:new 0 0 16 14;" xml:space="preserve">
<path id="Macbook_1_x2C__Laptop_2" style="fill-rule:evenodd;clip-rule:evenodd;" d="M15,11v-1V1c0-0.553-0.447-1-1-1H2
	C1.447,0,1,0.447,1,1v9v1c-0.553,0-1,0.447-1,1v1c0,0.553,0.447,1,1,1h14c0.553,0,1-0.447,1-1v-1C16,11.447,15.553,11,15,11z M3,2
	h10v7H3V2z M10,12H6v-1h4V12z"/>
<g>
</g>
<g>
</g>
<g>
</g>
<g>
</g>
<g>
</g>
<g>
</g>
<g>
</g>
<g>
</g>
<g>
</g>
<g>
</g>
<g>
</g>
<g>
</g>
<g>
</g>
<g>
</g>
<g>
</g>
</svg>
