<?xml version="1.0" encoding="iso-8859-1"?>
<!-- Generator: Adobe Illustrator 16.0.0, SVG Export Plug-In . SVG Version: 6.00 Build 0)  -->
<!DOCTYPE svg PUBLIC "-//W3C//DTD SVG 1.1//EN" "http://www.w3.org/Graphics/SVG/1.1/DTD/svg11.dtd">
<svg version="1.1" id="Layer_1" xmlns="http://www.w3.org/2000/svg" xmlns:xlink="http://www.w3.org/1999/xlink" x="0px" y="0px"
	 width="16.207px" height="16.207px" viewBox="0 0 16.207 16.207" style="enable-background:new 0 0 16.207 16.207;"
	 xml:space="preserve">
<g id="Magic_Wand_1">
	<path d="M7.561,6.939c-0.195-0.195-0.512-0.195-0.707,0l-6.707,6.707c-0.195,0.195-0.195,0.512,0,0.707l1.707,1.707
		c0.195,0.195,0.512,0.195,0.707,0l6.707-6.707c0.195-0.195,0.195-0.512,0-0.707L7.561,6.939z"/>
	<path d="M12.268,5.646l-1.707-1.707c-0.195-0.195-0.512-0.195-0.707,0L8.146,5.646c-0.195,0.195-0.195,0.512,0,0.707l1.707,1.707
		c0.195,0.195,0.512,0.195,0.707,0l1.707-1.707C12.463,6.158,12.463,5.842,12.268,5.646z"/>
	<path d="M10.207,3c0.552,0,1-0.447,1-1V1c0-0.553-0.448-1-1-1s-1,0.447-1,1v1C9.207,2.553,9.655,3,10.207,3z"/>
	<path d="M13.035,4.172c0.256,0,0.512-0.098,0.707-0.293l0.707-0.707c0.391-0.391,0.391-1.023,0-1.414s-1.023-0.391-1.414,0
		l-0.707,0.707c-0.391,0.391-0.391,1.023,0,1.414C12.523,4.074,12.779,4.172,13.035,4.172z"/>
	<path d="M15.207,5h-1c-0.552,0-1,0.447-1,1s0.448,1,1,1h1c0.552,0,1-0.447,1-1S15.759,5,15.207,5z"/>
	<path d="M13.742,8.121c-0.391-0.391-1.023-0.391-1.414,0s-0.391,1.023,0,1.414l0.707,0.707c0.195,0.195,0.451,0.293,0.707,0.293
		s0.512-0.098,0.707-0.293c0.391-0.391,0.391-1.023,0-1.414L13.742,8.121z"/>
	<path d="M6.671,3.878c0.195,0.195,0.451,0.293,0.707,0.293S7.89,4.073,8.085,3.878c0.391-0.391,0.391-1.023,0-1.414L7.378,1.757
		c-0.391-0.391-1.023-0.391-1.414,0s-0.391,1.023,0,1.414L6.671,3.878z"/>
</g>
<g>
</g>
<g>
</g>
<g>
</g>
<g>
</g>
<g>
</g>
<g>
</g>
<g>
</g>
<g>
</g>
<g>
</g>
<g>
</g>
<g>
</g>
<g>
</g>
<g>
</g>
<g>
</g>
<g>
</g>
</svg>
