<?xml version="1.0" encoding="iso-8859-1"?>
<!-- Generator: Adobe Illustrator 16.0.0, SVG Export Plug-In . SVG Version: 6.00 Build 0)  -->
<!DOCTYPE svg PUBLIC "-//W3C//DTD SVG 1.1//EN" "http://www.w3.org/Graphics/SVG/1.1/DTD/svg11.dtd">
<svg version="1.1" id="Layer_1" xmlns="http://www.w3.org/2000/svg" xmlns:xlink="http://www.w3.org/1999/xlink" x="0px" y="0px"
	 width="16px" height="16px" viewBox="0 0 16 16" style="enable-background:new 0 0 16 16;" xml:space="preserve">
<path id="Magnifying_Glass_2_x2C__Zoom_2" style="fill-rule:evenodd;clip-rule:evenodd;" d="M15.707,14.293l-3.112-3.092
	c-0.002-0.002-0.004-0.002-0.006-0.004C13.471,10.025,14,8.575,14,7c0-3.859-3.141-7-7-7S0,3.141,0,7s3.141,7,7,7
	c1.575,0,3.025-0.529,4.196-1.41c0.002,0.002,0.002,0.004,0.004,0.006l3.093,3.111C14.488,15.902,14.744,16,15,16
	s0.512-0.098,0.707-0.293C16.098,15.316,16.098,14.684,15.707,14.293z M9.992,7.5C9.992,7.776,9.776,8,9.5,8H7.992v1.5
	c0,0.276-0.216,0.5-0.492,0.5h-1c-0.276,0-0.508-0.224-0.508-0.5V8H4.5C4.224,8,3.992,7.776,3.992,7.5v-1C3.992,6.224,4.224,6,4.5,6
	h1.492V4.5C5.992,4.224,6.224,4,6.5,4h1c0.276,0,0.492,0.224,0.492,0.5V6H9.5c0.276,0,0.492,0.224,0.492,0.5V7.5z"/>
<g>
</g>
<g>
</g>
<g>
</g>
<g>
</g>
<g>
</g>
<g>
</g>
<g>
</g>
<g>
</g>
<g>
</g>
<g>
</g>
<g>
</g>
<g>
</g>
<g>
</g>
<g>
</g>
<g>
</g>
</svg>
