<?xml version="1.0" encoding="iso-8859-1"?>
<!-- Generator: Adobe Illustrator 16.0.0, SVG Export Plug-In . SVG Version: 6.00 Build 0)  -->
<!DOCTYPE svg PUBLIC "-//W3C//DTD SVG 1.1//EN" "http://www.w3.org/Graphics/SVG/1.1/DTD/svg11.dtd">
<svg version="1.1" id="Layer_1" xmlns="http://www.w3.org/2000/svg" xmlns:xlink="http://www.w3.org/1999/xlink" x="0px" y="0px"
	 width="16px" height="14px" viewBox="0 0 16 14" style="enable-background:new 0 0 16 14;" xml:space="preserve">
<path id="Mail_1_x2C__Envelope_1" style="fill-rule:evenodd;clip-rule:evenodd;" d="M7.635,10.859l-2.56-2.39
	c-0.202-0.188-0.529-0.188-0.731,0L0,12.516v0.551C0,13.58,0.45,14,1,14h14c0.55,0,1-0.42,1-0.934v-0.551L11.656,8.47
	c-0.202-0.188-0.529-0.188-0.731,0l-2.56,2.39C8.164,11.048,7.836,11.048,7.635,10.859z M13.076,7.146l2.559,2.389
	C15.836,9.723,16,9.651,16,9.375V4.233c0-0.276-0.164-0.348-0.365-0.159l-2.559,2.39C12.873,6.652,12.873,6.957,13.076,7.146z M1,0
	C0.45,0,0,0.42,0,0.934v0.168l7.596,7.115c0.201,0.188,0.527,0.188,0.729,0L16,1.018V0.934C16,0.42,15.55,0,15,0H1z M0,4.233v5.142
	c0,0.276,0.164,0.348,0.365,0.159l2.559-2.389c0.203-0.188,0.203-0.493,0-0.682l-2.559-2.39C0.164,3.886,0,3.957,0,4.233z"/>
<g>
</g>
<g>
</g>
<g>
</g>
<g>
</g>
<g>
</g>
<g>
</g>
<g>
</g>
<g>
</g>
<g>
</g>
<g>
</g>
<g>
</g>
<g>
</g>
<g>
</g>
<g>
</g>
<g>
</g>
</svg>
