<?xml version="1.0" encoding="iso-8859-1"?>
<!-- Generator: Adobe Illustrator 16.0.0, SVG Export Plug-In . SVG Version: 6.00 Build 0)  -->
<!DOCTYPE svg PUBLIC "-//W3C//DTD SVG 1.1//EN" "http://www.w3.org/Graphics/SVG/1.1/DTD/svg11.dtd">
<svg version="1.1" id="Layer_1" xmlns="http://www.w3.org/2000/svg" xmlns:xlink="http://www.w3.org/1999/xlink" x="0px" y="0px"
	 width="16px" height="14px" viewBox="0 0 16 14" style="enable-background:new 0 0 16 14;" xml:space="preserve">
<g id="Mail_2_x2C__Envelope_2">
	<path d="M0.354,4.768C0.158,4.572,0,4.638,0,4.914V13c0,0.553,0.447,1,1,1h14c0.553,0,1-0.447,1-1V4.914
		c0-0.276-0.158-0.342-0.354-0.146l-7.293,7.293c-0.195,0.195-0.512,0.195-0.707,0L0.354,4.768z"/>
	<path d="M15.646,1.939C15.842,1.744,16,1.455,16,1.293V1c0-0.553-0.447-1-1-1H1C0.447,0,0,0.447,0,1c0,0,0,0.131,0,0.293
		s0.158,0.451,0.354,0.646l7.293,7.293c0.195,0.195,0.512,0.195,0.707,0L15.646,1.939z"/>
</g>
<g>
</g>
<g>
</g>
<g>
</g>
<g>
</g>
<g>
</g>
<g>
</g>
<g>
</g>
<g>
</g>
<g>
</g>
<g>
</g>
<g>
</g>
<g>
</g>
<g>
</g>
<g>
</g>
<g>
</g>
</svg>
