<?xml version="1.0" encoding="iso-8859-1"?>
<!-- Generator: Adobe Illustrator 16.0.0, SVG Export Plug-In . SVG Version: 6.00 Build 0)  -->
<!DOCTYPE svg PUBLIC "-//W3C//DTD SVG 1.1//EN" "http://www.w3.org/Graphics/SVG/1.1/DTD/svg11.dtd">
<svg version="1.1" id="Layer_1" xmlns="http://www.w3.org/2000/svg" xmlns:xlink="http://www.w3.org/1999/xlink" x="0px" y="0px"
	 width="16px" height="16px" viewBox="0 0 16 16" style="enable-background:new 0 0 16 16;" xml:space="preserve">
<g id="Marquee_Plus_1">
	<path d="M10.508,7H9V5.5C9,5.224,8.784,5,8.508,5h-1C7.231,5,7,5.224,7,5.5V7H5.508C5.231,7,5,7.224,5,7.5v1
		C5,8.776,5.231,9,5.508,9H7v1.5C7,10.776,7.231,11,7.508,11h1C8.784,11,9,10.776,9,10.5V9h1.508C10.784,9,11,8.776,11,8.5v-1
		C11,7.224,10.784,7,10.508,7z"/>
	<path d="M3.508,0h-2.5C0.455,0,0,0.447,0,1v2.5C0,3.776,0.231,4,0.508,4h1C1.784,4,2,3.776,2,3.5V2h1.508C3.784,2,4,1.776,4,1.5v-1
		C4,0.224,3.784,0,3.508,0z"/>
	<path d="M3.508,14H2v-1.5C2,12.224,1.784,12,1.508,12h-1C0.231,12,0,12.224,0,12.5V15c0,0.553,0.455,1,1.008,1h2.5
		C3.784,16,4,15.776,4,15.5v-1C4,14.224,3.784,14,3.508,14z"/>
	<path d="M15.508,12h-1C14.231,12,14,12.224,14,12.5V14h-1.492C12.231,14,12,14.224,12,14.5v1c0,0.276,0.231,0.5,0.508,0.5h2.5
		C15.561,16,16,15.553,16,15v-2.5C16,12.224,15.784,12,15.508,12z"/>
	<path d="M15.008,0h-2.5C12.231,0,12,0.224,12,0.5v1C12,1.776,12.231,2,12.508,2H14v1.5C14,3.776,14.231,4,14.508,4h1
		C15.784,4,16,3.776,16,3.5V1C16,0.447,15.561,0,15.008,0z"/>
	<path d="M10,14.5c0-0.276-0.224-0.5-0.5-0.5h-3C6.224,14,6,14.224,6,14.5v1C6,15.776,6.224,16,6.5,16h3c0.276,0,0.5-0.224,0.5-0.5
		V14.5z"/>
	<path d="M10,0.5C10,0.224,9.776,0,9.5,0h-3C6.224,0,6,0.224,6,0.5v1C6,1.776,6.224,2,6.5,2h3C9.776,2,10,1.776,10,1.5V0.5z"/>
	<path d="M16,6.5C16,6.224,15.776,6,15.5,6h-1C14.224,6,14,6.224,14,6.5v3c0,0.276,0.224,0.5,0.5,0.5h1c0.276,0,0.5-0.224,0.5-0.5
		V6.5z"/>
	<path d="M2,6.5C2,6.224,1.776,6,1.5,6h-1C0.224,6,0,6.224,0,6.5v3C0,9.776,0.224,10,0.5,10h1C1.776,10,2,9.776,2,9.5V6.5z"/>
</g>
<g>
</g>
<g>
</g>
<g>
</g>
<g>
</g>
<g>
</g>
<g>
</g>
<g>
</g>
<g>
</g>
<g>
</g>
<g>
</g>
<g>
</g>
<g>
</g>
<g>
</g>
<g>
</g>
<g>
</g>
</svg>
