<?xml version="1.0" encoding="iso-8859-1"?>
<!-- Generator: Adobe Illustrator 16.0.0, SVG Export Plug-In . SVG Version: 6.00 Build 0)  -->
<!DOCTYPE svg PUBLIC "-//W3C//DTD SVG 1.1//EN" "http://www.w3.org/Graphics/SVG/1.1/DTD/svg11.dtd">
<svg version="1.1" id="Layer_1" xmlns="http://www.w3.org/2000/svg" xmlns:xlink="http://www.w3.org/1999/xlink" x="0px" y="0px"
	 width="16px" height="16px" viewBox="0 0 16 16" style="enable-background:new 0 0 16 16;" xml:space="preserve">
<path id="Maximize_2_x2C__Expand_2" d="M15,0H1C0.447,0,0,0.447,0,1v14c0,0.553,0.447,1,1,1h14c0.553,0,1-0.447,1-1V1
	C16,0.447,15.553,0,15,0z M7.844,9.662l-1.961,1.961l1,1.001C7.091,12.832,7.021,13,6.727,13H3.532C3.238,13,3,12.762,3,12.468
	V9.273c0-0.295,0.168-0.364,0.377-0.156l1,1l1.961-1.961c0.208-0.208,0.545-0.208,0.753,0l0.753,0.753
	C8.052,9.117,8.052,9.454,7.844,9.662z M13,6.727c0,0.295-0.168,0.364-0.377,0.156l-1-1L9.662,7.844
	c-0.208,0.208-0.545,0.208-0.753,0L8.156,7.091c-0.208-0.208-0.208-0.545,0-0.753l1.961-1.961l-1-1.001C8.909,3.168,8.979,3,9.273,3
	h3.194C12.762,3,13,3.238,13,3.532V6.727z"/>
<g>
</g>
<g>
</g>
<g>
</g>
<g>
</g>
<g>
</g>
<g>
</g>
<g>
</g>
<g>
</g>
<g>
</g>
<g>
</g>
<g>
</g>
<g>
</g>
<g>
</g>
<g>
</g>
<g>
</g>
</svg>
