<?xml version="1.0" encoding="iso-8859-1"?>
<!-- Generator: Adobe Illustrator 16.0.0, SVG Export Plug-In . SVG Version: 6.00 Build 0)  -->
<!DOCTYPE svg PUBLIC "-//W3C//DTD SVG 1.1//EN" "http://www.w3.org/Graphics/SVG/1.1/DTD/svg11.dtd">
<svg version="1.1" id="Layer_1" xmlns="http://www.w3.org/2000/svg" xmlns:xlink="http://www.w3.org/1999/xlink" x="0px" y="0px"
	 width="16px" height="16px" viewBox="0 0 16 16" style="enable-background:new 0 0 16 16;" xml:space="preserve">
<path id="Menu_1" style="fill-rule:evenodd;clip-rule:evenodd;" d="M15,0H1C0.448,0,0,0.447,0,1v14c0,0.553,0.448,1,1,1h14
	c0.552,0,1-0.447,1-1V1C16,0.447,15.552,0,15,0z M12.5,12h-9C3.224,12,3,11.776,3,11.5v-1C3,10.224,3.224,10,3.5,10h9
	c0.276,0,0.5,0.224,0.5,0.5v1C13,11.776,12.776,12,12.5,12z M12.5,9h-9C3.224,9,3,8.776,3,8.5v-1C3,7.224,3.224,7,3.5,7h9
	C12.776,7,13,7.224,13,7.5v1C13,8.776,12.776,9,12.5,9z M12.5,6h-9C3.224,6,3,5.776,3,5.5v-1C3,4.224,3.224,4,3.5,4h9
	C12.776,4,13,4.224,13,4.5v1C13,5.776,12.776,6,12.5,6z"/>
<g>
</g>
<g>
</g>
<g>
</g>
<g>
</g>
<g>
</g>
<g>
</g>
<g>
</g>
<g>
</g>
<g>
</g>
<g>
</g>
<g>
</g>
<g>
</g>
<g>
</g>
<g>
</g>
<g>
</g>
</svg>
