<?xml version="1.0" encoding="iso-8859-1"?>
<!-- Generator: Adobe Illustrator 16.0.0, SVG Export Plug-In . SVG Version: 6.00 Build 0)  -->
<!DOCTYPE svg PUBLIC "-//W3C//DTD SVG 1.1//EN" "http://www.w3.org/Graphics/SVG/1.1/DTD/svg11.dtd">
<svg version="1.1" id="Layer_1" xmlns="http://www.w3.org/2000/svg" xmlns:xlink="http://www.w3.org/1999/xlink" x="0px" y="0px"
	 width="16px" height="16px" viewBox="0 0 16 16" style="enable-background:new 0 0 16 16;" xml:space="preserve">
<path id="Menu_List_1" style="fill-rule:evenodd;clip-rule:evenodd;" d="M15,0H1C0.447,0,0,0.447,0,1v14c0,0.553,0.447,1,1,1h14
	c0.553,0,1-0.447,1-1V1C16,0.447,15.553,0,15,0z M6,11.5C6,11.776,5.776,12,5.5,12h-1C4.224,12,4,11.776,4,11.5v-1
	C4,10.224,4.224,10,4.5,10h1C5.776,10,6,10.224,6,10.5V11.5z M6,8.5C6,8.776,5.776,9,5.5,9h-1C4.224,9,4,8.776,4,8.5v-1
	C4,7.224,4.224,7,4.5,7h1C5.776,7,6,7.224,6,7.5V8.5z M6,5.5C6,5.776,5.776,6,5.5,6h-1C4.224,6,4,5.776,4,5.5v-1
	C4,4.224,4.224,4,4.5,4h1C5.776,4,6,4.224,6,4.5V5.5z M12,11.5c0,0.276-0.224,0.5-0.5,0.5h-4C7.224,12,7,11.776,7,11.5v-1
	C7,10.224,7.224,10,7.5,10h4c0.276,0,0.5,0.224,0.5,0.5V11.5z M12,8.5C12,8.776,11.776,9,11.5,9h-4C7.224,9,7,8.776,7,8.5v-1
	C7,7.224,7.224,7,7.5,7h4C11.776,7,12,7.224,12,7.5V8.5z M12,5.5C12,5.776,11.776,6,11.5,6h-4C7.224,6,7,5.776,7,5.5v-1
	C7,4.224,7.224,4,7.5,4h4C11.776,4,12,4.224,12,4.5V5.5z"/>
<g>
</g>
<g>
</g>
<g>
</g>
<g>
</g>
<g>
</g>
<g>
</g>
<g>
</g>
<g>
</g>
<g>
</g>
<g>
</g>
<g>
</g>
<g>
</g>
<g>
</g>
<g>
</g>
<g>
</g>
</svg>
