<?xml version="1.0" encoding="iso-8859-1"?>
<!-- Generator: Adobe Illustrator 16.0.0, SVG Export Plug-In . SVG Version: 6.00 Build 0)  -->
<!DOCTYPE svg PUBLIC "-//W3C//DTD SVG 1.1//EN" "http://www.w3.org/Graphics/SVG/1.1/DTD/svg11.dtd">
<svg version="1.1" id="Layer_1" xmlns="http://www.w3.org/2000/svg" xmlns:xlink="http://www.w3.org/1999/xlink" x="0px" y="0px"
	 width="16px" height="16px" viewBox="0 0 16 16" style="enable-background:new 0 0 16 16;" xml:space="preserve">
<path id="Menu_List_2" style="fill-rule:evenodd;clip-rule:evenodd;" d="M16,1c0-0.553-0.447-1-1-1H1C0.447,0,0,0.447,0,1v14
	c0,0.553,0.447,1,1,1h14c0.553,0,1-0.447,1-1V1z M4.5,4h-1C3.224,4,3,4.224,3,4.5v1C3,5.776,3.224,6,3.5,6h1C4.776,6,5,5.776,5,5.5
	v-1C5,4.224,4.776,4,4.5,4z M12.5,4h-6C6.224,4,6,4.224,6,4.5v1C6,5.776,6.224,6,6.5,6h6C12.776,6,13,5.776,13,5.5v-1
	C13,4.224,12.776,4,12.5,4z M4.5,7h-1C3.224,7,3,7.224,3,7.5v1C3,8.776,3.224,9,3.5,9h1C4.776,9,5,8.776,5,8.5v-1
	C5,7.224,4.776,7,4.5,7z M6.5,9h4C10.776,9,11,8.776,11,8.5v-1C11,7.224,10.776,7,10.5,7h-4C6.224,7,6,7.224,6,7.5v1
	C6,8.776,6.224,9,6.5,9z M4.5,10h-1C3.224,10,3,10.224,3,10.5v1C3,11.776,3.224,12,3.5,12h1C4.776,12,5,11.776,5,11.5v-1
	C5,10.224,4.776,10,4.5,10z M12.5,10h-6C6.224,10,6,10.224,6,10.5v1C6,11.776,6.224,12,6.5,12h6c0.276,0,0.5-0.224,0.5-0.5v-1
	C13,10.224,12.776,10,12.5,10z"/>
<g>
</g>
<g>
</g>
<g>
</g>
<g>
</g>
<g>
</g>
<g>
</g>
<g>
</g>
<g>
</g>
<g>
</g>
<g>
</g>
<g>
</g>
<g>
</g>
<g>
</g>
<g>
</g>
<g>
</g>
</svg>
