<?xml version="1.0" encoding="iso-8859-1"?>
<!-- Generator: Adobe Illustrator 16.0.0, SVG Export Plug-In . SVG Version: 6.00 Build 0)  -->
<!DOCTYPE svg PUBLIC "-//W3C//DTD SVG 1.1//EN" "http://www.w3.org/Graphics/SVG/1.1/DTD/svg11.dtd">
<svg version="1.1" id="Layer_1" xmlns="http://www.w3.org/2000/svg" xmlns:xlink="http://www.w3.org/1999/xlink" x="0px" y="0px"
	 width="14px" height="16px" viewBox="0 0 14 16" style="enable-background:new 0 0 14 16;" xml:space="preserve">
<path id="Menu_2" style="fill-rule:evenodd;clip-rule:evenodd;" d="M13,0H1C0.448,0,0,0.447,0,1v14c0,0.553,0.448,1,1,1h12
	c0.552,0,1-0.447,1-1V1C14,0.447,13.552,0,13,0z M10.5,12h-7C3.224,12,3,11.776,3,11.5v-1C3,10.224,3.224,10,3.5,10h7
	c0.276,0,0.5,0.224,0.5,0.5v1C11,11.776,10.776,12,10.5,12z M10.5,9h-7C3.224,9,3,8.776,3,8.5v-1C3,7.224,3.224,7,3.5,7h7
	C10.776,7,11,7.224,11,7.5v1C11,8.776,10.776,9,10.5,9z M10.5,6h-7C3.224,6,3,5.776,3,5.5v-1C3,4.224,3.224,4,3.5,4h7
	C10.776,4,11,4.224,11,4.5v1C11,5.776,10.776,6,10.5,6z"/>
<g>
</g>
<g>
</g>
<g>
</g>
<g>
</g>
<g>
</g>
<g>
</g>
<g>
</g>
<g>
</g>
<g>
</g>
<g>
</g>
<g>
</g>
<g>
</g>
<g>
</g>
<g>
</g>
<g>
</g>
</svg>
