<?xml version="1.0" encoding="iso-8859-1"?>
<!-- Generator: Adobe Illustrator 16.0.0, SVG Export Plug-In . SVG Version: 6.00 Build 0)  -->
<!DOCTYPE svg PUBLIC "-//W3C//DTD SVG 1.1//EN" "http://www.w3.org/Graphics/SVG/1.1/DTD/svg11.dtd">
<svg version="1.1" id="Layer_1" xmlns="http://www.w3.org/2000/svg" xmlns:xlink="http://www.w3.org/1999/xlink" x="0px" y="0px"
	 width="16px" height="16px" viewBox="0 0 16 16" style="enable-background:new 0 0 16 16;" xml:space="preserve">
<path id="Minimize_Browser_2" style="fill-rule:evenodd;clip-rule:evenodd;" d="M15,0H1C0.45,0,0,0.45,0,1v14c0,0.55,0.45,1,1,1h14
	c0.55,0,1-0.45,1-1V1C16,0.45,15.55,0,15,0z M4,2.5C4,2.776,3.776,3,3.5,3h-1C2.224,3,2,2.776,2,2.5v-1C2,1.224,2.224,1,2.5,1h1
	C3.776,1,4,1.224,4,1.5V2.5z M11,9.5c0,0.276-0.224,0.5-0.5,0.5h-5C5.224,10,5,9.776,5,9.5v-1C5,8.224,5.224,8,5.5,8h5
	C10.776,8,11,8.224,11,8.5V9.5z"/>
<g>
</g>
<g>
</g>
<g>
</g>
<g>
</g>
<g>
</g>
<g>
</g>
<g>
</g>
<g>
</g>
<g>
</g>
<g>
</g>
<g>
</g>
<g>
</g>
<g>
</g>
<g>
</g>
<g>
</g>
</svg>
