<?xml version="1.0" encoding="iso-8859-1"?>
<!-- Generator: Adobe Illustrator 16.0.0, SVG Export Plug-In . SVG Version: 6.00 Build 0)  -->
<!DOCTYPE svg PUBLIC "-//W3C//DTD SVG 1.1//EN" "http://www.w3.org/Graphics/SVG/1.1/DTD/svg11.dtd">
<svg version="1.1" id="Layer_1" xmlns="http://www.w3.org/2000/svg" xmlns:xlink="http://www.w3.org/1999/xlink" x="0px" y="0px"
	 width="15.998px" height="16px" viewBox="0 0 15.998 16" style="enable-background:new 0 0 15.998 16;" xml:space="preserve">
<g id="Moon_1_x2C__Sleep_1">
	<path d="M8.116,16C3.641,16,0,12.359,0,7.884c0-3.698,2.494-6.926,6.065-7.851c0.35-0.092,0.722,0.012,0.976,0.268
		c0.255,0.257,0.353,0.629,0.26,0.978C7.169,1.771,7.102,2.285,7.102,2.811c0,3.357,2.73,6.088,6.088,6.088
		c0.524,0,1.04-0.067,1.532-0.198c0.351-0.095,0.722,0.005,0.977,0.259c0.256,0.254,0.358,0.625,0.268,0.975
		C15.042,13.505,11.813,16,8.116,16z"/>
</g>
<g>
</g>
<g>
</g>
<g>
</g>
<g>
</g>
<g>
</g>
<g>
</g>
<g>
</g>
<g>
</g>
<g>
</g>
<g>
</g>
<g>
</g>
<g>
</g>
<g>
</g>
<g>
</g>
<g>
</g>
</svg>
