<?xml version="1.0" encoding="iso-8859-1"?>
<!-- Generator: Adobe Illustrator 16.0.0, SVG Export Plug-In . SVG Version: 6.00 Build 0)  -->
<!DOCTYPE svg PUBLIC "-//W3C//DTD SVG 1.1//EN" "http://www.w3.org/Graphics/SVG/1.1/DTD/svg11.dtd">
<svg version="1.1" id="Layer_1" xmlns="http://www.w3.org/2000/svg" xmlns:xlink="http://www.w3.org/1999/xlink" x="0px" y="0px"
	 width="16px" height="16px" viewBox="0 0 16 16" style="enable-background:new 0 0 16 16;" xml:space="preserve">
<g id="Move_Up_1">
	<path style="fill-rule:evenodd;clip-rule:evenodd;" d="M15,0H1C0.447,0,0,0.447,0,1v14c0,0.553,0.447,1,1,1h3.5
		C4.776,16,5,15.776,5,15.5v-1C5,14.224,4.776,14,4.5,14H2V2h12v12h-2.5c-0.276,0-0.5,0.224-0.5,0.5v1c0,0.276,0.224,0.5,0.5,0.5H15
		c0.553,0,1-0.447,1-1V1C16,0.447,15.553,0,15,0z"/>
	<path style="fill-rule:evenodd;clip-rule:evenodd;" d="M8.323,6.178C8.145,5.943,7.855,5.939,7.677,6.174L5.09,9.5
		C4.911,9.736,5.008,10,5.305,10H7v5.5C7,15.775,7.224,16,7.5,16h1C8.776,16,9,15.775,9,15.5V10h1.695
		c0.297,0,0.394-0.265,0.215-0.5L8.323,6.178z"/>
</g>
<g>
</g>
<g>
</g>
<g>
</g>
<g>
</g>
<g>
</g>
<g>
</g>
<g>
</g>
<g>
</g>
<g>
</g>
<g>
</g>
<g>
</g>
<g>
</g>
<g>
</g>
<g>
</g>
<g>
</g>
</svg>
