<?xml version="1.0" encoding="iso-8859-1"?>
<!-- Generator: Adobe Illustrator 16.0.0, SVG Export Plug-In . SVG Version: 6.00 Build 0)  -->
<!DOCTYPE svg PUBLIC "-//W3C//DTD SVG 1.1//EN" "http://www.w3.org/Graphics/SVG/1.1/DTD/svg11.dtd">
<svg version="1.1" id="Layer_1" xmlns="http://www.w3.org/2000/svg" xmlns:xlink="http://www.w3.org/1999/xlink" x="0px" y="0px"
	 width="16px" height="16px" viewBox="0 0 16 16" style="enable-background:new 0 0 16 16;" xml:space="preserve">
<path id="Music_1" d="M6,7.662c1.183-0.471,4.143-1.484,8-1.642v5.132C13.686,11.061,13.353,11,13,11c-1.657,0-3,1.119-3,2.5
	s1.343,2.5,3,2.5s3-1.119,3-2.5V12V1c0-0.553-0.271-1-1.021-1H15C9.008,0,5.178,1.914,5,2c0,0,0.152-0.083,0,0
	C4.556,2.242,4,2.521,4,3.333v7.819C3.686,11.061,3.353,11,3,11c-1.657,0-3,1.119-3,2.5S1.343,16,3,16s3-1.119,3-2.5V13V7.662z"/>
<g>
</g>
<g>
</g>
<g>
</g>
<g>
</g>
<g>
</g>
<g>
</g>
<g>
</g>
<g>
</g>
<g>
</g>
<g>
</g>
<g>
</g>
<g>
</g>
<g>
</g>
<g>
</g>
<g>
</g>
</svg>
