<?xml version="1.0" encoding="iso-8859-1"?>
<!-- Generator: Adobe Illustrator 16.0.0, SVG Export Plug-In . SVG Version: 6.00 Build 0)  -->
<!DOCTYPE svg PUBLIC "-//W3C//DTD SVG 1.1//EN" "http://www.w3.org/Graphics/SVG/1.1/DTD/svg11.dtd">
<svg version="1.1" id="Layer_1" xmlns="http://www.w3.org/2000/svg" xmlns:xlink="http://www.w3.org/1999/xlink" x="0px" y="0px"
	 width="16px" height="16px" viewBox="0 0 16 16" style="enable-background:new 0 0 16 16;" xml:space="preserve">
<path id="Newspaper_4" d="M5,0C4.447,0,4,0.447,4,1v12c0,0.55-0.45,1-1,1s-1-0.45-1-1V2.5C2,2.224,1.776,2,1.5,2H1
	C0.447,2,0,2.447,0,3v10c0,1.66,1.34,3,3,3h10c1.66,0,3-1.34,3-3V1c0-0.553-0.447-1-1-1H5z M12.5,12h-5C7.224,12,7,11.776,7,11.5v-1
	C7,10.224,7.224,10,7.5,10h5c0.276,0,0.5,0.224,0.5,0.5v1C13,11.776,12.776,12,12.5,12z M12.5,9h-5C7.224,9,7,8.776,7,8.5v-1
	C7,7.224,7.224,7,7.5,7h5C12.776,7,13,7.224,13,7.5v1C13,8.776,12.776,9,12.5,9z M12.5,6h-5C7.224,6,7,5.776,7,5.5v-2
	C7,3.224,7.224,3,7.5,3h5C12.776,3,13,3.224,13,3.5v2C13,5.776,12.776,6,12.5,6z"/>
<g>
</g>
<g>
</g>
<g>
</g>
<g>
</g>
<g>
</g>
<g>
</g>
<g>
</g>
<g>
</g>
<g>
</g>
<g>
</g>
<g>
</g>
<g>
</g>
<g>
</g>
<g>
</g>
<g>
</g>
</svg>
