<?xml version="1.0" encoding="iso-8859-1"?>
<!-- Generator: Adobe Illustrator 16.0.0, SVG Export Plug-In . SVG Version: 6.00 Build 0)  -->
<!DOCTYPE svg PUBLIC "-//W3C//DTD SVG 1.1//EN" "http://www.w3.org/Graphics/SVG/1.1/DTD/svg11.dtd">
<svg version="1.1" id="Layer_1" xmlns="http://www.w3.org/2000/svg" xmlns:xlink="http://www.w3.org/1999/xlink" x="0px" y="0px"
	 width="16px" height="16px" viewBox="0 0 16 16" style="enable-background:new 0 0 16 16;" xml:space="preserve">
<path id="Newspaper_3" d="M15,0H5C4.447,0,4,0.447,4,1v1H1C0.447,2,0,2.447,0,3v10c0,1.66,1.34,3,3,3h10c1.66,0,3-1.34,3-3V1
	C16,0.447,15.553,0,15,0z M4,13c0,0.55-0.45,1-1,1s-1-0.45-1-1V4h2V13z M12.5,11h-5C7.224,11,7,10.776,7,10.5v-1
	C7,9.224,7.224,9,7.5,9h5C12.776,9,13,9.224,13,9.5v1C13,10.776,12.776,11,12.5,11z M12.5,8h-5C7.224,8,7,7.776,7,7.5v-1
	C7,6.224,7.224,6,7.5,6h5C12.776,6,13,6.224,13,6.5v1C13,7.776,12.776,8,12.5,8z M12.5,5h-5C7.224,5,7,4.776,7,4.5v-1
	C7,3.224,7.224,3,7.5,3h5C12.776,3,13,3.224,13,3.5v1C13,4.776,12.776,5,12.5,5z"/>
<g>
</g>
<g>
</g>
<g>
</g>
<g>
</g>
<g>
</g>
<g>
</g>
<g>
</g>
<g>
</g>
<g>
</g>
<g>
</g>
<g>
</g>
<g>
</g>
<g>
</g>
<g>
</g>
<g>
</g>
</svg>
