<?xml version="1.0" encoding="iso-8859-1"?>
<!-- Generator: Adobe Illustrator 16.0.0, SVG Export Plug-In . SVG Version: 6.00 Build 0)  -->
<!DOCTYPE svg PUBLIC "-//W3C//DTD SVG 1.1//EN" "http://www.w3.org/Graphics/SVG/1.1/DTD/svg11.dtd">
<svg version="1.1" id="Layer_1" xmlns="http://www.w3.org/2000/svg" xmlns:xlink="http://www.w3.org/1999/xlink" x="0px" y="0px"
	 width="16px" height="14px" viewBox="0 0 16 14" style="enable-background:new 0 0 16 14;" xml:space="preserve">
<path id="Newspaper_2" d="M15,2h-0.5C14.224,2,14,2.224,14,2.5V11c0,0.55-0.45,1-1,1s-1-0.45-1-1V1c0-0.553-0.447-1-1-1H1
	C0.447,0,0,0.447,0,1v10c0,1.66,1.34,3,3,3h10c1.66,0,3-1.34,3-3V3C16,2.447,15.553,2,15,2z M9,7.5C9,7.776,8.776,8,8.5,8h-5
	C3.224,8,3,7.776,3,7.5v-1C3,6.224,3.224,6,3.5,6h5C8.776,6,9,6.224,9,6.5V7.5z M9,4.5C9,4.776,8.776,5,8.5,5h-5
	C3.224,5,3,4.776,3,4.5v-1C3,3.224,3.224,3,3.5,3h5C8.776,3,9,3.224,9,3.5V4.5z"/>
<g>
</g>
<g>
</g>
<g>
</g>
<g>
</g>
<g>
</g>
<g>
</g>
<g>
</g>
<g>
</g>
<g>
</g>
<g>
</g>
<g>
</g>
<g>
</g>
<g>
</g>
<g>
</g>
<g>
</g>
</svg>
