<?xml version="1.0" encoding="iso-8859-1"?>
<!-- Generator: Adobe Illustrator 16.0.0, SVG Export Plug-In . SVG Version: 6.00 Build 0)  -->
<!DOCTYPE svg PUBLIC "-//W3C//DTD SVG 1.1//EN" "http://www.w3.org/Graphics/SVG/1.1/DTD/svg11.dtd">
<svg version="1.1" id="Layer_1" xmlns="http://www.w3.org/2000/svg" xmlns:xlink="http://www.w3.org/1999/xlink" x="0px" y="0px"
	 width="16px" height="16px" viewBox="0 0 16 16" style="enable-background:new 0 0 16 16;" xml:space="preserve">
<g id="Notebook_1">
	<path style="fill-rule:evenodd;clip-rule:evenodd;" d="M15,0H3C2.45,0,2,0.45,2,1H1C0.45,1,0,1.45,0,2s0.45,1,1,1h1v1H1
		C0.45,4,0,4.45,0,5s0.45,1,1,1h1v1H1C0.45,7,0,7.45,0,8s0.45,1,1,1h1v1H1c-0.55,0-1,0.45-1,1s0.45,1,1,1h1v1H1c-0.55,0-1,0.45-1,1
		s0.45,1,1,1h1c0,0.55,0.45,1,1,1h12c0.55,0,1-0.45,1-1V1C16,0.45,15.55,0,15,0z M12.5,8h-7C5.224,8,5,7.776,5,7.5v-1
		C5,6.224,5.224,6,5.5,6h7C12.776,6,13,6.224,13,6.5v1C13,7.776,12.776,8,12.5,8z M12.5,5h-7C5.224,5,5,4.776,5,4.5v-1
		C5,3.224,5.224,3,5.5,3h7C12.776,3,13,3.224,13,3.5v1C13,4.776,12.776,5,12.5,5z"/>
</g>
<g>
</g>
<g>
</g>
<g>
</g>
<g>
</g>
<g>
</g>
<g>
</g>
<g>
</g>
<g>
</g>
<g>
</g>
<g>
</g>
<g>
</g>
<g>
</g>
<g>
</g>
<g>
</g>
<g>
</g>
</svg>
