<?xml version="1.0" encoding="iso-8859-1"?>
<!-- Generator: Adobe Illustrator 16.0.0, SVG Export Plug-In . SVG Version: 6.00 Build 0)  -->
<!DOCTYPE svg PUBLIC "-//W3C//DTD SVG 1.1//EN" "http://www.w3.org/Graphics/SVG/1.1/DTD/svg11.dtd">
<svg version="1.1" id="Layer_1" xmlns="http://www.w3.org/2000/svg" xmlns:xlink="http://www.w3.org/1999/xlink" x="0px" y="0px"
	 width="16px" height="16.205px" viewBox="0 0 16 16.205" style="enable-background:new 0 0 16 16.205;" xml:space="preserve">
<path id="Open_Book_3" d="M11.389,4.901C11.174,5.075,11,4.992,11,4.716V0.973c0-0.276-0.219-0.447-0.484-0.373
	C9.623,0.852,8.736,1.207,8,1.713C6.192,0.471,3.479,0.124,2,0.028C1.781,0.014,1.384,0.006,1,0C0.447-0.008,0,0.439,0,0.992v12
	c0,0.553,0.447,0.991,1,0.987c0.406-0.002,0.821-0.001,1,0.013c1.495,0.112,3.77,0.52,5,1.45c0.1,0.08,0.2,0.17,0.29,0.26
	c0,0,0.159,0.159,0.355,0.354c0.196,0.197,0.514,0.197,0.71,0l0.355-0.354c0.09-0.09,0.19-0.18,0.29-0.26
	c1.23-0.931,3.505-1.338,5-1.45c0.179-0.014,0.594-0.015,1-0.013c0.553,0.004,1-0.435,1-0.987v-12c0-0.553-0.447-1-1-0.992
	c-0.17,0.002-0.342,0.006-0.5,0.01C14.224,0.016,14,0.252,14,0.528v4.192c0,0.277-0.174,0.359-0.389,0.186L12.5,3.779L11.389,4.901z
	"/>
<g>
</g>
<g>
</g>
<g>
</g>
<g>
</g>
<g>
</g>
<g>
</g>
<g>
</g>
<g>
</g>
<g>
</g>
<g>
</g>
<g>
</g>
<g>
</g>
<g>
</g>
<g>
</g>
<g>
</g>
</svg>
