<?xml version="1.0" encoding="iso-8859-1"?>
<!-- Generator: Adobe Illustrator 16.0.0, SVG Export Plug-In . SVG Version: 6.00 Build 0)  -->
<!DOCTYPE svg PUBLIC "-//W3C//DTD SVG 1.1//EN" "http://www.w3.org/Graphics/SVG/1.1/DTD/svg11.dtd">
<svg version="1.1" id="Layer_1" xmlns="http://www.w3.org/2000/svg" xmlns:xlink="http://www.w3.org/1999/xlink" x="0px" y="0px"
	 width="16px" height="16.213px" viewBox="0 0 16 16.213" style="enable-background:new 0 0 16 16.213;" xml:space="preserve">
<path id="Open_Book_4" d="M15,0c-0.5,0-4.57,0.05-7,1.721C5.57,0.05,1.5,0,1,0C0.406,0,0,0.447,0,1v12c0,0.553,0.469,1,1,1l0,0
	c1.2,0,4.439,0.27,6,1.45c0.1,0.08,0.2,0.17,0.29,0.26c0,0,0.159,0.159,0.354,0.354c0.197,0.197,0.514,0.197,0.711,0L8.71,15.71
	C8.8,15.62,8.9,15.53,9,15.45C10.561,14.27,13.8,14,15,14c0.594,0,1-0.447,1-1V1C16,0.447,15.562,0,15,0z M2.496,3.062
	c0.834,0.11,2.567,0.366,4.024,0.771C6.787,3.906,7,4.197,7,4.474V5v0.582c0,0.276-0.211,0.422-0.473,0.336
	c-1.512-0.49-3.199-0.767-4.03-0.87C2.223,5.014,2,4.776,2,4.5v-1C2,3.224,2.223,3.025,2.496,3.062z M6.527,8.918
	c-1.512-0.49-3.199-0.767-4.03-0.87C2.223,8.014,2,7.776,2,7.5v-1c0-0.276,0.223-0.475,0.496-0.438
	c0.834,0.11,2.567,0.366,4.024,0.771C6.787,6.906,7,7.197,7,7.474V8v0.582C7,8.858,6.789,9.004,6.527,8.918z M9.479,3.829
	c1.436-0.403,3.185-0.659,4.024-0.769C13.777,3.025,14,3.224,14,3.5V4v0.5c0,0.276-0.223,0.525-0.496,0.562
	c-0.842,0.112-2.596,0.385-4.033,0.854C9.209,6.002,9,5.858,9,5.582V4.474C9,4.197,9.213,3.904,9.479,3.829z M13.504,8.062
	c-0.842,0.112-2.596,0.385-4.033,0.854C9.209,9.002,9,8.858,9,8.582V7.474c0-0.276,0.213-0.569,0.479-0.645
	c1.436-0.403,3.185-0.659,4.024-0.769C13.777,6.025,14,6.224,14,6.5V7v0.5C14,7.776,13.777,8.025,13.504,8.062z"/>
<g>
</g>
<g>
</g>
<g>
</g>
<g>
</g>
<g>
</g>
<g>
</g>
<g>
</g>
<g>
</g>
<g>
</g>
<g>
</g>
<g>
</g>
<g>
</g>
<g>
</g>
<g>
</g>
<g>
</g>
</svg>
