<?xml version="1.0" encoding="iso-8859-1"?>
<!-- Generator: Adobe Illustrator 16.0.0, SVG Export Plug-In . SVG Version: 6.00 Build 0)  -->
<!DOCTYPE svg PUBLIC "-//W3C//DTD SVG 1.1//EN" "http://www.w3.org/Graphics/SVG/1.1/DTD/svg11.dtd">
<svg version="1.1" id="Layer_1" xmlns="http://www.w3.org/2000/svg" xmlns:xlink="http://www.w3.org/1999/xlink" x="0px" y="0px"
	 width="18px" height="16px" viewBox="0 0 18 16" style="enable-background:new 0 0 18 16;" xml:space="preserve">
<g id="Open_Folder_3">
	<path d="M2,15.2C2,15.75,2.45,16,3,16h12c0.55,0,1-0.25,1-0.8l2-8.7C18,6.224,17.776,6,17.5,6h-17C0.224,6,0,6.224,0,6.5L2,15.2z"
		/>
	<path d="M7.1,0H3C2.45,0,2,0.55,2,1.1v2.4C2,3.776,2.224,4,2.5,4h13C15.776,4,16,3.776,16,3.5V3c0-0.552-0.447-1-1-1H8V1.1
		C8,0.55,7.65,0,7.1,0z"/>
</g>
<g>
</g>
<g>
</g>
<g>
</g>
<g>
</g>
<g>
</g>
<g>
</g>
<g>
</g>
<g>
</g>
<g>
</g>
<g>
</g>
<g>
</g>
<g>
</g>
<g>
</g>
<g>
</g>
<g>
</g>
</svg>
