<?xml version="1.0" encoding="iso-8859-1"?>
<!-- Generator: Adobe Illustrator 16.0.0, SVG Export Plug-In . SVG Version: 6.00 Build 0)  -->
<!DOCTYPE svg PUBLIC "-//W3C//DTD SVG 1.1//EN" "http://www.w3.org/Graphics/SVG/1.1/DTD/svg11.dtd">
<svg version="1.1" id="Layer_1" xmlns="http://www.w3.org/2000/svg" xmlns:xlink="http://www.w3.org/1999/xlink" x="0px" y="0px"
	 width="11px" height="16px" viewBox="0 0 11 16" style="enable-background:new 0 0 11 16;" xml:space="preserve">
<path id="Paperclip_2_x2C__Attachment_2" style="fill-rule:evenodd;clip-rule:evenodd;" d="M9,1c0-0.553,0.447-1,1-1s1,0.447,1,1
	v9.5c0,3.037-2.463,5.5-5.5,5.5S0,13.537,0,10.5V4c0-2.209,1.791-4,4-4s4,1.791,4,4v6.5C8,11.881,6.881,13,5.5,13S3,11.881,3,10.5V4
	c0-0.552,0.447-1,1-1s1,0.448,1,1v6.5C5,10.776,5.224,11,5.5,11S6,10.776,6,10.5V4c0-1.104-0.896-2-2-2S2,2.896,2,4v6.5
	C2,12.434,3.567,14,5.5,14S9,12.434,9,10.5V1z"/>
<g>
</g>
<g>
</g>
<g>
</g>
<g>
</g>
<g>
</g>
<g>
</g>
<g>
</g>
<g>
</g>
<g>
</g>
<g>
</g>
<g>
</g>
<g>
</g>
<g>
</g>
<g>
</g>
<g>
</g>
</svg>
