<?xml version="1.0" encoding="iso-8859-1"?>
<!-- Generator: Adobe Illustrator 16.0.0, SVG Export Plug-In . SVG Version: 6.00 Build 0)  -->
<!DOCTYPE svg PUBLIC "-//W3C//DTD SVG 1.1//EN" "http://www.w3.org/Graphics/SVG/1.1/DTD/svg11.dtd">
<svg version="1.1" id="Layer_1" xmlns="http://www.w3.org/2000/svg" xmlns:xlink="http://www.w3.org/1999/xlink" x="0px" y="0px"
	 width="15.983px" height="15.983px" viewBox="0 0 15.983 15.983" style="enable-background:new 0 0 15.983 15.983;"
	 xml:space="preserve">
<g id="Pie_Graph_1_x2C__Graph_3">
	<path d="M9.499,0.001C9.224-0.019,9,0.207,9,0.483v6c0,0.276,0.224,0.5,0.5,0.5h6c0.276,0,0.502-0.225,0.482-0.5
		C15.738,3.016,12.968,0.245,9.499,0.001z"/>
	<path d="M13.5,8.983h-6c-0.276,0-0.5-0.224-0.5-0.5v-6c0-0.276-0.225-0.502-0.5-0.482C2.867,2.257,0,5.285,0,8.983
		c0,3.866,3.134,7,7,7c3.698,0,6.727-2.867,6.982-6.5C14.002,9.208,13.776,8.983,13.5,8.983z"/>
</g>
<g>
</g>
<g>
</g>
<g>
</g>
<g>
</g>
<g>
</g>
<g>
</g>
<g>
</g>
<g>
</g>
<g>
</g>
<g>
</g>
<g>
</g>
<g>
</g>
<g>
</g>
<g>
</g>
<g>
</g>
</svg>
