<?xml version="1.0" encoding="iso-8859-1"?>
<!-- Generator: Adobe Illustrator 16.0.0, SVG Export Plug-In . SVG Version: 6.00 Build 0)  -->
<!DOCTYPE svg PUBLIC "-//W3C//DTD SVG 1.1//EN" "http://www.w3.org/Graphics/SVG/1.1/DTD/svg11.dtd">
<svg version="1.1" id="Layer_1" xmlns="http://www.w3.org/2000/svg" xmlns:xlink="http://www.w3.org/1999/xlink" x="0px" y="0px"
	 width="16px" height="15.917px" viewBox="0 0 16 15.917" style="enable-background:new 0 0 16 15.917;" xml:space="preserve">
<g id="Post_Comment_2">
	<path d="M1,0C0.45,0,0,0.508,0,1.07v10.978C0,12.61,0.45,13,1,13h1v2.376c0,0.564,0.404,0.659,0.902,0.415L8.28,13H15
		c0.55,0,1-0.39,1-0.952V1.07C16,0.508,15.55,0,15,0H1z M12,5.5C12,5.776,11.776,6,11.5,6h-7C4.224,6,4,5.776,4,5.5v-1
		C4,4.224,4.224,4,4.5,4h7C11.776,4,12,4.224,12,4.5V5.5z M12,8.5C12,8.776,11.776,9,11.5,9h-7C4.224,9,4,8.776,4,8.5v-1
		C4,7.224,4.224,7,4.5,7h7C11.776,7,12,7.224,12,7.5V8.5z"/>
</g>
<g>
</g>
<g>
</g>
<g>
</g>
<g>
</g>
<g>
</g>
<g>
</g>
<g>
</g>
<g>
</g>
<g>
</g>
<g>
</g>
<g>
</g>
<g>
</g>
<g>
</g>
<g>
</g>
<g>
</g>
</svg>
