<?xml version="1.0" encoding="iso-8859-1"?>
<!-- Generator: Adobe Illustrator 16.0.0, SVG Export Plug-In . SVG Version: 6.00 Build 0)  -->
<!DOCTYPE svg PUBLIC "-//W3C//DTD SVG 1.1//EN" "http://www.w3.org/Graphics/SVG/1.1/DTD/svg11.dtd">
<svg version="1.1" id="Layer_1" xmlns="http://www.w3.org/2000/svg" xmlns:xlink="http://www.w3.org/1999/xlink" x="0px" y="0px"
	 width="13.008px" height="8px" viewBox="0 0 13.008 8" style="enable-background:new 0 0 13.008 8;" xml:space="preserve">
<g id="Previous_3">
	<path d="M2,0.5C2,0.224,1.776,0,1.5,0h-1C0.224,0,0,0.224,0,0.5v7C0,7.776,0.224,8,0.5,8h1C1.776,8,2,7.776,2,7.5V0.5z"/>
	<path d="M5.524,3.984l2.312-2.418c0.188-0.195,0.188-0.514,0-0.709L7.158,0.146c-0.188-0.195-0.491-0.195-0.679,0L3.148,3.629
		c-0.188,0.197-0.188,0.514,0,0.711L6.51,7.853c0.188,0.196,0.491,0.196,0.679,0l0.679-0.709c0.188-0.196,0.188-0.514,0-0.71
		L5.524,3.984z"/>
	<path d="M12.867,6.434l-2.343-2.449l2.312-2.418c0.188-0.195,0.188-0.514,0-0.709l-0.679-0.711c-0.188-0.195-0.491-0.195-0.679,0
		L8.148,3.629c-0.188,0.197-0.188,0.514,0,0.711l3.361,3.513c0.188,0.196,0.491,0.196,0.679,0l0.679-0.709
		C13.055,6.947,13.055,6.63,12.867,6.434z"/>
</g>
<g>
</g>
<g>
</g>
<g>
</g>
<g>
</g>
<g>
</g>
<g>
</g>
<g>
</g>
<g>
</g>
<g>
</g>
<g>
</g>
<g>
</g>
<g>
</g>
<g>
</g>
<g>
</g>
<g>
</g>
</svg>
