<?xml version="1.0" encoding="iso-8859-1"?>
<!-- Generator: Adobe Illustrator 16.0.0, SVG Export Plug-In . SVG Version: 6.00 Build 0)  -->
<!DOCTYPE svg PUBLIC "-//W3C//DTD SVG 1.1//EN" "http://www.w3.org/Graphics/SVG/1.1/DTD/svg11.dtd">
<svg version="1.1" id="Layer_1" xmlns="http://www.w3.org/2000/svg" xmlns:xlink="http://www.w3.org/1999/xlink" x="0px" y="0px"
	 width="16px" height="10px" viewBox="0 0 16 10" style="enable-background:new 0 0 16 10;" xml:space="preserve">
<path id="Previous_2" d="M14.55,0.109L9,2.891V1c0-0.35-0.18-0.67-0.471-0.85c-0.299-0.18-0.67-0.2-0.979-0.041L2,2.891V0.5
	C2,0.224,1.776,0,1.5,0h-1C0.224,0,0,0.224,0,0.5v9C0,9.776,0.224,10,0.5,10h1C1.776,10,2,9.776,2,9.5V7.12l5.55,2.77
	C7.689,9.96,7.85,10,8,10c0.18,0,0.37-0.05,0.529-0.15C8.82,9.67,9,9.35,9,9V7.12l5.55,2.77C14.69,9.96,14.85,10,15,10
	c0.18,0,0.37-0.05,0.53-0.15C15.82,9.67,16,9.35,16,9V1c0-0.35-0.18-0.67-0.47-0.85C15.23-0.029,14.86-0.05,14.55,0.109z"/>
<g>
</g>
<g>
</g>
<g>
</g>
<g>
</g>
<g>
</g>
<g>
</g>
<g>
</g>
<g>
</g>
<g>
</g>
<g>
</g>
<g>
</g>
<g>
</g>
<g>
</g>
<g>
</g>
<g>
</g>
</svg>
