<?xml version="1.0" encoding="iso-8859-1"?>
<!-- Generator: Adobe Illustrator 16.0.0, SVG Export Plug-In . SVG Version: 6.00 Build 0)  -->
<!DOCTYPE svg PUBLIC "-//W3C//DTD SVG 1.1//EN" "http://www.w3.org/Graphics/SVG/1.1/DTD/svg11.dtd">
<svg version="1.1" id="Layer_1" xmlns="http://www.w3.org/2000/svg" xmlns:xlink="http://www.w3.org/1999/xlink" x="0px" y="0px"
	 width="16px" height="16px" viewBox="0 0 16 16" style="enable-background:new 0 0 16 16;" xml:space="preserve">
<path id="Printer_1_x2C__Print_1" d="M15,4h-2V1c0-0.553-0.447-1-1-1H4C3.447,0,3,0.447,3,1v3H1C0.447,4,0,4.447,0,5v8
	c0,0.553,0.447,1,1,1h2v1c0,0.553,0.447,1,1,1h8c0.553,0,1-0.447,1-1v-1h2c0.553,0,1-0.447,1-1V5C16,4.447,15.553,4,15,4z M5,2h6v2
	H5V2z M10,7v2H8V7H10z M11,14H5v-2h6V14z M13,9h-2V7h2V9z"/>
<g>
</g>
<g>
</g>
<g>
</g>
<g>
</g>
<g>
</g>
<g>
</g>
<g>
</g>
<g>
</g>
<g>
</g>
<g>
</g>
<g>
</g>
<g>
</g>
<g>
</g>
<g>
</g>
<g>
</g>
</svg>
