<?xml version="1.0" encoding="iso-8859-1"?>
<!-- Generator: Adobe Illustrator 16.0.0, SVG Export Plug-In . SVG Version: 6.00 Build 0)  -->
<!DOCTYPE svg PUBLIC "-//W3C//DTD SVG 1.1//EN" "http://www.w3.org/Graphics/SVG/1.1/DTD/svg11.dtd">
<svg version="1.1" id="Layer_1" xmlns="http://www.w3.org/2000/svg" xmlns:xlink="http://www.w3.org/1999/xlink" x="0px" y="0px"
	 width="16px" height="16px" viewBox="0 0 16 16" style="enable-background:new 0 0 16 16;" xml:space="preserve">
<path id="Question_1_x2C__Help_1" d="M16,1c0-0.553-0.447-1-1-1H1C0.447,0,0,0.447,0,1v14c0,0.553,0.447,1,1,1h14
	c0.553,0,1-0.447,1-1V1z M9.008,12.56c0,0.276-0.224,0.5-0.5,0.5h-1c-0.276,0-0.5-0.224-0.5-0.5v-1c0-0.276,0.224-0.5,0.5-0.5h1
	c0.276,0,0.5,0.224,0.5,0.5V12.56z M9,8.888V9.56C9,9.836,8.784,10,8.508,10h-1C7.231,10,7,9.836,7,9.56v-1.5
	C7,7.507,7.133,7,7.758,7c0.414,0,0.75,0,0.75,0C8.784,7,9,6.836,9,6.56v-1C9,5.283,8.784,5,8.508,5h-1c-0.276,0-0.5,0.224-0.5,0.5
	c0,0.139-0.094,0.5-0.5,0.5h-1C5.133,6,5.004,5.805,5.049,5.531c0.238-1.418,1.475-2.486,2.959-2.486
	c1.654,0,2.996,1.353,2.996,3.007C11.004,7.355,10,8.476,9,8.888z"/>
<g>
</g>
<g>
</g>
<g>
</g>
<g>
</g>
<g>
</g>
<g>
</g>
<g>
</g>
<g>
</g>
<g>
</g>
<g>
</g>
<g>
</g>
<g>
</g>
<g>
</g>
<g>
</g>
<g>
</g>
</svg>
