<?xml version="1.0" encoding="iso-8859-1"?>
<!-- Generator: Adobe Illustrator 16.0.0, SVG Export Plug-In . SVG Version: 6.00 Build 0)  -->
<!DOCTYPE svg PUBLIC "-//W3C//DTD SVG 1.1//EN" "http://www.w3.org/Graphics/SVG/1.1/DTD/svg11.dtd">
<svg version="1.1" id="Layer_1" xmlns="http://www.w3.org/2000/svg" xmlns:xlink="http://www.w3.org/1999/xlink" x="0px" y="0px"
	 width="18.003px" height="20.001px" viewBox="0 0 18.003 20.001" style="enable-background:new 0 0 18.003 20.001;"
	 xml:space="preserve">
<g id="Repeat_3_x2C__Reload_3">
	<path style="fill-rule:evenodd;clip-rule:evenodd;" d="M4.998,16.006v-1.3c0-0.32-0.09-0.55-0.23-0.641
		c-0.14-0.1-0.34-0.079-0.55,0.08l-3.88,2.36c-0.45,0.27-0.45,0.72,0,1l0.59,0.36l3.29,1.989c0.431,0.33,0.78,0.08,0.78-0.55v-1.3
		h11c0.55,0,1-0.45,1-1V6.756c0-0.276-0.191-0.384-0.428-0.241l-1.291,0.772c-0.236,0.143-0.281,0.402-0.281,0.679v8.04H4.998z"/>
	<path style="fill-rule:evenodd;clip-rule:evenodd;" d="M17.108,2.166l-3.33-2.021c-0.431-0.33-0.78-0.08-0.78,0.561v1.3h-11
		c-0.55,0-1,0.45-1,1v10.26c0,0.276,0.191,0.384,0.427,0.239l1.276-0.765c0.235-0.145,0.297-0.418,0.297-0.694v-8.04h10v1.3
		c0,0.32,0.09,0.55,0.24,0.641c0.14,0.09,0.33,0.069,0.54-0.091l3.88-2.35c0.46-0.28,0.46-0.73,0-1L17.108,2.166z"/>
</g>
<g>
</g>
<g>
</g>
<g>
</g>
<g>
</g>
<g>
</g>
<g>
</g>
<g>
</g>
<g>
</g>
<g>
</g>
<g>
</g>
<g>
</g>
<g>
</g>
<g>
</g>
<g>
</g>
<g>
</g>
</svg>
