<?xml version="1.0" encoding="iso-8859-1"?>
<!-- Generator: Adobe Illustrator 16.0.0, SVG Export Plug-In . SVG Version: 6.00 Build 0)  -->
<!DOCTYPE svg PUBLIC "-//W3C//DTD SVG 1.1//EN" "http://www.w3.org/Graphics/SVG/1.1/DTD/svg11.dtd">
<svg version="1.1" id="Layer_1" xmlns="http://www.w3.org/2000/svg" xmlns:xlink="http://www.w3.org/1999/xlink" x="0px" y="0px"
	 width="13.995px" height="9.724px" viewBox="0 0 13.995 9.724" style="enable-background:new 0 0 13.995 9.724;"
	 xml:space="preserve">
<g id="Reply_to_All_1">
	<path d="M8.997,2.09V2V0.625c0-0.621-0.373-0.812-0.824-0.422L4.169,3.648C3.942,3.844,3.943,4.158,4.17,4.353l4.005,3.446
		c0.449,0.388,0.822,0.198,0.822-0.423V6h0.995c1.757,0.317,2.817,1.887,3.476,3.532c0.103,0.257,0.253,0.257,0.324-0.011
		c0.13-0.485,0.203-0.995,0.203-1.521C13.995,5.027,11.997,2.566,8.997,2.09z"/>
	<path d="M2.17,4.353C1.943,4.158,1.942,3.844,2.169,3.648l2.449-2.107C4.827,1.36,4.997,1.082,4.997,0.92V0.625
		c0-0.621-0.373-0.812-0.824-0.422L0.169,3.648c-0.227,0.195-0.226,0.51,0.001,0.704l4.005,3.446
		c0.449,0.388,0.822,0.198,0.822-0.423c0,0,0-0.132,0-0.296c0-0.163-0.17-0.441-0.379-0.621L2.17,4.353z"/>
</g>
<g>
</g>
<g>
</g>
<g>
</g>
<g>
</g>
<g>
</g>
<g>
</g>
<g>
</g>
<g>
</g>
<g>
</g>
<g>
</g>
<g>
</g>
<g>
</g>
<g>
</g>
<g>
</g>
<g>
</g>
</svg>
