<?xml version="1.0" encoding="iso-8859-1"?>
<!-- Generator: Adobe Illustrator 16.0.0, SVG Export Plug-In . SVG Version: 6.00 Build 0)  -->
<!DOCTYPE svg PUBLIC "-//W3C//DTD SVG 1.1//EN" "http://www.w3.org/Graphics/SVG/1.1/DTD/svg11.dtd">
<svg version="1.1" id="Layer_1" xmlns="http://www.w3.org/2000/svg" xmlns:xlink="http://www.w3.org/1999/xlink" x="0px" y="0px"
	 width="16px" height="16px" viewBox="0 0 16 16" style="enable-background:new 0 0 16 16;" xml:space="preserve">
<path id="Right_Angle_Quote_2" style="fill-rule:evenodd;clip-rule:evenodd;" d="M15,0H1C0.447,0,0,0.447,0,1v14
	c0,0.553,0.447,1,1,1h14c0.553,0,1-0.447,1-1V1C16,0.447,15.553,0,15,0z M7.859,8.371l-3.331,3.482
	c-0.188,0.195-0.491,0.195-0.679,0l-0.679-0.711c-0.188-0.195-0.188-0.514,0-0.709l2.312-2.418L3.141,5.566
	c-0.188-0.197-0.188-0.514,0-0.711l0.679-0.709c0.188-0.195,0.491-0.195,0.679,0L7.859,7.66C8.047,7.857,8.047,8.174,7.859,8.371z
	 M12.859,8.371l-3.331,3.482c-0.188,0.195-0.491,0.195-0.679,0l-0.679-0.711c-0.188-0.195-0.188-0.514,0-0.709l2.312-2.418
	L8.141,5.566c-0.188-0.197-0.188-0.514,0-0.711l0.679-0.709c0.188-0.195,0.491-0.195,0.679,0l3.361,3.514
	C13.047,7.857,13.047,8.174,12.859,8.371z"/>
<g>
</g>
<g>
</g>
<g>
</g>
<g>
</g>
<g>
</g>
<g>
</g>
<g>
</g>
<g>
</g>
<g>
</g>
<g>
</g>
<g>
</g>
<g>
</g>
<g>
</g>
<g>
</g>
<g>
</g>
</svg>
