<?xml version="1.0" encoding="iso-8859-1"?>
<!-- Generator: Adobe Illustrator 16.0.0, SVG Export Plug-In . SVG Version: 6.00 Build 0)  -->
<!DOCTYPE svg PUBLIC "-//W3C//DTD SVG 1.1//EN" "http://www.w3.org/Graphics/SVG/1.1/DTD/svg11.dtd">
<svg version="1.1" id="Layer_1" xmlns="http://www.w3.org/2000/svg" xmlns:xlink="http://www.w3.org/1999/xlink" x="0px" y="0px"
	 width="15.945px" height="16px" viewBox="0 0 15.945 16" style="enable-background:new 0 0 15.945 16;" xml:space="preserve">
<g id="Running_1">
	<path d="M4.97,8c1.198,0,1.749-0.367,2.446-0.832C8.197,6.647,9.169,6,10.972,6c1.804,0,2.775,0.647,3.556,1.168
		c0.326,0.218,0.622,0.412,0.967,0.559c0.254,0.107,0.471-0.066,0.45-0.342C15.629,3.261,12.176,0,7.973,0
		C4.385,0,1.351,2.376,0.34,5.635C0.258,5.898,0.428,6.157,0.691,6.236c0.787,0.235,1.348,0.607,1.834,0.932
		C3.223,7.633,3.773,8,4.97,8z"/>
	<path d="M10.972,8C9.773,8,9.223,8.367,8.525,8.832C7.744,9.353,6.772,10,4.97,10S2.196,9.353,1.416,8.832
		C1.09,8.615,0.795,8.421,0.452,8.274C0.197,8.166-0.02,8.34,0.001,8.615C0.316,12.739,3.77,16,7.973,16
		c3.586,0,6.622-2.376,7.633-5.635c0.082-0.264-0.086-0.522-0.352-0.602c-0.789-0.235-1.35-0.607-1.836-0.932
		C12.721,8.367,12.17,8,10.972,8z"/>
</g>
<g>
</g>
<g>
</g>
<g>
</g>
<g>
</g>
<g>
</g>
<g>
</g>
<g>
</g>
<g>
</g>
<g>
</g>
<g>
</g>
<g>
</g>
<g>
</g>
<g>
</g>
<g>
</g>
<g>
</g>
</svg>
