<?xml version="1.0" encoding="iso-8859-1"?>
<!-- Generator: Adobe Illustrator 16.0.0, SVG Export Plug-In . SVG Version: 6.00 Build 0)  -->
<!DOCTYPE svg PUBLIC "-//W3C//DTD SVG 1.1//EN" "http://www.w3.org/Graphics/SVG/1.1/DTD/svg11.dtd">
<svg version="1.1" id="Layer_1" xmlns="http://www.w3.org/2000/svg" xmlns:xlink="http://www.w3.org/1999/xlink" x="0px" y="0px"
	 width="16px" height="16px" viewBox="0 0 16 16" style="enable-background:new 0 0 16 16;" xml:space="preserve">
<g id="Sack_1">
	<path d="M11.618,0H4.382c-0.553,0-0.8,0.4-0.553,0.895L5.052,3.34C5.949,3.759,6.946,4,8,4c1.055,0,2.051-0.241,2.949-0.66
		l1.222-2.445C12.418,0.4,12.171,0,11.618,0z"/>
	<path d="M11.894,5.102C10.713,5.672,9.396,6,8,6C6.599,6,5.276,5.669,4.092,5.095C1.659,6.461,0,9.049,0,12.031V15
		c0,0.553,0.447,1,1,1h14c0.553,0,1-0.447,1-1v-3C16,9.036,14.336,6.465,11.894,5.102z"/>
</g>
<g>
</g>
<g>
</g>
<g>
</g>
<g>
</g>
<g>
</g>
<g>
</g>
<g>
</g>
<g>
</g>
<g>
</g>
<g>
</g>
<g>
</g>
<g>
</g>
<g>
</g>
<g>
</g>
<g>
</g>
</svg>
