<?xml version="1.0" encoding="iso-8859-1"?>
<!-- Generator: Adobe Illustrator 16.0.0, SVG Export Plug-In . SVG Version: 6.00 Build 0)  -->
<!DOCTYPE svg PUBLIC "-//W3C//DTD SVG 1.1//EN" "http://www.w3.org/Graphics/SVG/1.1/DTD/svg11.dtd">
<svg version="1.1" id="Layer_1" xmlns="http://www.w3.org/2000/svg" xmlns:xlink="http://www.w3.org/1999/xlink" x="0px" y="0px"
	 width="16px" height="17px" viewBox="0 0 16 17" style="enable-background:new 0 0 16 17;" xml:space="preserve">
<g id="Server_1">
	<path d="M15,0H4H1C0.447,0,0,0.447,0,1v3c0,0.553,0.447,1,1,1h3h11c0.553,0,1-0.447,1-1V1C16,0.447,15.553,0,15,0z M2,2h1v1H2V2z
		 M14,3H5V2h9V3z"/>
	<path d="M15,6H4H1C0.447,6,0,6.447,0,7v3c0,0.553,0.447,1,1,1h3h11c0.553,0,1-0.447,1-1V7C16,6.447,15.553,6,15,6z M2,8h1v1H2V8z
		 M14,9H5V8h9V9z"/>
	<path d="M15,12H4H1c-0.553,0-1,0.447-1,1v3c0,0.553,0.447,1,1,1h3h11c0.553,0,1-0.447,1-1v-3C16,12.447,15.553,12,15,12z M2,14h1v1
		H2V14z M14,15H5v-1h9V15z"/>
</g>
<g>
</g>
<g>
</g>
<g>
</g>
<g>
</g>
<g>
</g>
<g>
</g>
<g>
</g>
<g>
</g>
<g>
</g>
<g>
</g>
<g>
</g>
<g>
</g>
<g>
</g>
<g>
</g>
<g>
</g>
</svg>
