<?xml version="1.0" encoding="iso-8859-1"?>
<!-- Generator: Adobe Illustrator 16.0.0, SVG Export Plug-In . SVG Version: 6.00 Build 0)  -->
<!DOCTYPE svg PUBLIC "-//W3C//DTD SVG 1.1//EN" "http://www.w3.org/Graphics/SVG/1.1/DTD/svg11.dtd">
<svg version="1.1" id="Layer_1" xmlns="http://www.w3.org/2000/svg" xmlns:xlink="http://www.w3.org/1999/xlink" x="0px" y="0px"
	 width="16px" height="16px" viewBox="0 0 16 16" style="enable-background:new 0 0 16 16;" xml:space="preserve">
<path id="Settings_2_x2C__Gear_2" style="fill-rule:evenodd;clip-rule:evenodd;" d="M15,7h-1.09c-0.15-0.91-0.5-1.75-1.021-2.471
	l0.761-0.77c0.39-0.39,0.39-1.029,0-1.42c-0.391-0.39-1.021-0.39-1.41,0l-0.771,0.77C10.75,2.59,10,2.24,9,2.09V1c0-0.55-0.45-1-1-1
	S7,0.45,7,1v1.09c-1,0.15-1.75,0.5-2.47,1.02L3.76,2.34c-0.389-0.39-1.029-0.39-1.42,0c-0.39,0.391-0.39,1.03,0,1.42l0.771,0.77
	C2.59,5.25,2.24,6.09,2.09,7H1C0.45,7,0,7.48,0,8.029C0,8.58,0.45,9,1.12,9h0.97c0.15,0.91,0.5,1.75,1.021,2.471L2.34,12.24
	c-0.39,0.39-0.39,1.029,0,1.42c0.391,0.39,1.021,0.39,1.41,0l0.78-0.77C5.25,13.41,6,13.76,7,13.91V15c0,0.55,0.45,1,1,1s1-0.45,1-1
	v-1.09c1-0.15,1.75-0.5,2.47-1.02l0.771,0.77c0.391,0.39,1.02,0.39,1.41,0c0.39-0.391,0.39-1.03,0-1.42l-0.761-0.76
	C13.4,10.76,13.76,9.92,13.91,9H15c0.55,0,1-0.45,1-1S15.55,7,15,7z M8,11c-1.66,0-3-1.35-3-3s1.34-3,3-3c1.65,0,3,1.35,3,3
	S9.65,11,8,11z"/>
<g>
</g>
<g>
</g>
<g>
</g>
<g>
</g>
<g>
</g>
<g>
</g>
<g>
</g>
<g>
</g>
<g>
</g>
<g>
</g>
<g>
</g>
<g>
</g>
<g>
</g>
<g>
</g>
<g>
</g>
</svg>
