<?xml version="1.0" encoding="iso-8859-1"?>
<!-- Generator: Adobe Illustrator 16.0.0, SVG Export Plug-In . SVG Version: 6.00 Build 0)  -->
<!DOCTYPE svg PUBLIC "-//W3C//DTD SVG 1.1//EN" "http://www.w3.org/Graphics/SVG/1.1/DTD/svg11.dtd">
<svg version="1.1" id="Layer_1" xmlns="http://www.w3.org/2000/svg" xmlns:xlink="http://www.w3.org/1999/xlink" x="0px" y="0px"
	 width="16.001px" height="15.001px" viewBox="0 0 16.001 15.001" style="enable-background:new 0 0 16.001 15.001;"
	 xml:space="preserve">
<g id="Share_1">
	<path d="M2,11.001v-6h1.091c0.276,0,0.583-0.209,0.703-0.457c0.191-0.4,0.415-0.783,0.669-1.144c0.158-0.226,0.076-0.399-0.2-0.399
		H1c-0.553,0-1,0.447-1,1v1v9c0,0.553,0.447,1,1,1h14c0.553,0,1-0.447,1-1V7.474c0-0.276-0.174-0.359-0.389-0.186l-1.377,1.119
		C14.02,8.581,14,8.813,14,9.09v1.911H2z"/>
	<path d="M5.526,9.534C6.422,7.333,8.199,5.067,11,6.001v1.374c0,0.621,0.375,0.812,0.826,0.422l4.006-3.446
		c0.227-0.194,0.225-0.509-0.002-0.703L11.824,0.2C11.375-0.187,11,0.003,11,0.624v1.375v0.002c-3.313,0-6,2.687-6,6
		c0,0.526,0.071,1.036,0.2,1.521C5.271,9.79,5.422,9.79,5.526,9.534z"/>
</g>
<g>
</g>
<g>
</g>
<g>
</g>
<g>
</g>
<g>
</g>
<g>
</g>
<g>
</g>
<g>
</g>
<g>
</g>
<g>
</g>
<g>
</g>
<g>
</g>
<g>
</g>
<g>
</g>
<g>
</g>
</svg>
