<?xml version="1.0" encoding="iso-8859-1"?>
<!-- Generator: Adobe Illustrator 16.0.0, SVG Export Plug-In . SVG Version: 6.00 Build 0)  -->
<!DOCTYPE svg PUBLIC "-//W3C//DTD SVG 1.1//EN" "http://www.w3.org/Graphics/SVG/1.1/DTD/svg11.dtd">
<svg version="1.1" id="Layer_1" xmlns="http://www.w3.org/2000/svg" xmlns:xlink="http://www.w3.org/1999/xlink" x="0px" y="0px"
	 width="17.998px" height="16px" viewBox="0 0 17.998 16" style="enable-background:new 0 0 17.998 16;" xml:space="preserve">
<path id="Shirt_1" d="M5.406,0c0,0-0.12,0-0.268,0S4.676,0.109,4.434,0.242L0.59,2.379C0.098,2.668-0.132,3.265,0.078,3.797
	l1.31,3.275c0.209,0.532,0.875,0.738,1.387,0.482L4,6.966v8.277C4,15.814,4.299,16,4.871,16h8.277C13.721,16,14,15.814,14,15.243
	V6.966l1.235,0.572c0.512,0.255,1.142,0.032,1.351-0.5l1.333-3.311c0.21-0.532-0.009-1.06-0.501-1.349l-3.833-2.136
	C13.344,0.109,13.028,0,12.881,0h-0.268c-0.276,0-0.496,0.231-0.604,0.485C11.656,1.318,10.45,2.069,9.01,2.069
	S6.363,1.318,6.011,0.485C5.902,0.231,5.683,0,5.406,0z"/>
<g>
</g>
<g>
</g>
<g>
</g>
<g>
</g>
<g>
</g>
<g>
</g>
<g>
</g>
<g>
</g>
<g>
</g>
<g>
</g>
<g>
</g>
<g>
</g>
<g>
</g>
<g>
</g>
<g>
</g>
</svg>
