<?xml version="1.0" encoding="iso-8859-1"?>
<!-- Generator: Adobe Illustrator 16.0.0, SVG Export Plug-In . SVG Version: 6.00 Build 0)  -->
<!DOCTYPE svg PUBLIC "-//W3C//DTD SVG 1.1//EN" "http://www.w3.org/Graphics/SVG/1.1/DTD/svg11.dtd">
<svg version="1.1" id="Layer_1" xmlns="http://www.w3.org/2000/svg" xmlns:xlink="http://www.w3.org/1999/xlink" x="0px" y="0px"
	 width="16.006px" height="14px" viewBox="0 0 16.006 14" style="enable-background:new 0 0 16.006 14;" xml:space="preserve">
<g id="Shuffle_1">
	<path style="fill-rule:evenodd;clip-rule:evenodd;" d="M4.085,5.388C4.263,5.145,4.492,4.833,4.696,4.56
		c0.165-0.222,0.147-0.562-0.055-0.751C3.585,2.826,2.279,2.126,0.504,2.016C0.229,1.998,0,2.224,0,2.5v0.953
		C0,3.729,0.229,3.95,0.503,3.977C1.725,4.092,2.639,4.636,3.44,5.428C3.638,5.622,3.921,5.61,4.085,5.388z"/>
	<path style="fill-rule:evenodd;clip-rule:evenodd;" d="M12,5.299c0,0.636,0.354,0.884,0.787,0.558l2.878-2.355
		c0.454-0.276,0.455-0.725,0.001-1.001l-2.879-2.356C12.354-0.184,12,0.066,12,0.701V2C9,2,7.384,3.64,6.004,5.41
		c-0.28,0.36-1.098,1.479-1.238,1.67c-1.181,1.578-2.331,2.73-4.263,2.898C0.228,10.003,0,10.224,0,10.5v1
		c0,0.276,0.228,0.502,0.503,0.485c2.618-0.159,4.203-1.568,5.503-3.235c0.28-0.36,1.097-1.479,1.237-1.67C8.522,5.37,10,4,12,4
		V5.299z"/>
	<path style="fill-rule:evenodd;clip-rule:evenodd;" d="M12.787,8.144C12.354,7.816,12,8.066,12,8.701V10
		c-1,0-2.523-0.542-3.432-1.43C8.371,8.377,8.093,8.39,7.929,8.612C7.751,8.855,7.522,9.167,7.318,9.44
		c-0.165,0.222-0.15,0.562,0.051,0.751C8.523,11.264,10,12,12,12v1.299c0,0.636,0.354,0.884,0.787,0.558l2.878-2.355
		c0.454-0.276,0.453-0.725-0.001-1.001L12.787,8.144z"/>
</g>
<g>
</g>
<g>
</g>
<g>
</g>
<g>
</g>
<g>
</g>
<g>
</g>
<g>
</g>
<g>
</g>
<g>
</g>
<g>
</g>
<g>
</g>
<g>
</g>
<g>
</g>
<g>
</g>
<g>
</g>
</svg>
