<?xml version="1.0" encoding="iso-8859-1"?>
<!-- Generator: Adobe Illustrator 16.0.0, SVG Export Plug-In . SVG Version: 6.00 Build 0)  -->
<!DOCTYPE svg PUBLIC "-//W3C//DTD SVG 1.1//EN" "http://www.w3.org/Graphics/SVG/1.1/DTD/svg11.dtd">
<svg version="1.1" id="Layer_1" xmlns="http://www.w3.org/2000/svg" xmlns:xlink="http://www.w3.org/1999/xlink" x="0px" y="0px"
	 width="14px" height="14px" viewBox="0 0 14 14" style="enable-background:new 0 0 14 14;" xml:space="preserve">
<g id="Signal_Bars_1">
	<path d="M6.5,14h1C7.776,14,8,13.776,8,13.5v-9C8,4.224,7.776,4,7.5,4h-1C6.224,4,6,4.224,6,4.5v9C6,13.776,6.224,14,6.5,14z"/>
	<path d="M0.5,14h1C1.776,14,2,13.776,2,13.5v-5C2,8.224,1.776,8,1.5,8h-1C0.224,8,0,8.224,0,8.5v5C0,13.776,0.224,14,0.5,14z"/>
	<path d="M9,2.5v11C9,13.776,9.224,14,9.5,14h1c0.276,0,0.5-0.224,0.5-0.5v-11C11,2.224,10.776,2,10.5,2h-1C9.224,2,9,2.224,9,2.5z"
		/>
	<path d="M12,0.5v13c0,0.276,0.224,0.5,0.5,0.5h1c0.276,0,0.5-0.224,0.5-0.5v-13C14,0.224,13.776,0,13.5,0h-1
		C12.224,0,12,0.224,12,0.5z"/>
	<path d="M3.5,14h1C4.776,14,5,13.776,5,13.5v-7C5,6.224,4.776,6,4.5,6h-1C3.224,6,3,6.224,3,6.5v7C3,13.776,3.224,14,3.5,14z"/>
</g>
<g>
</g>
<g>
</g>
<g>
</g>
<g>
</g>
<g>
</g>
<g>
</g>
<g>
</g>
<g>
</g>
<g>
</g>
<g>
</g>
<g>
</g>
<g>
</g>
<g>
</g>
<g>
</g>
<g>
</g>
</svg>
