<?xml version="1.0" encoding="iso-8859-1"?>
<!-- Generator: Adobe Illustrator 16.0.0, SVG Export Plug-In . SVG Version: 6.00 Build 0)  -->
<!DOCTYPE svg PUBLIC "-//W3C//DTD SVG 1.1//EN" "http://www.w3.org/Graphics/SVG/1.1/DTD/svg11.dtd">
<svg version="1.1" id="Layer_1" xmlns="http://www.w3.org/2000/svg" xmlns:xlink="http://www.w3.org/1999/xlink" x="0px" y="0px"
	 width="16px" height="16px" viewBox="0 0 16 16" style="enable-background:new 0 0 16 16;" xml:space="preserve">
<g id="Slider_4">
	<path style="fill-rule:evenodd;clip-rule:evenodd;" d="M15.508,2H8.824C8.411,0.837,7.312,0,6.008,0S3.604,0.837,3.191,2H0.508
		C0.231,2,0,2.224,0,2.5v1C0,3.776,0.231,4,0.508,4h2.684c0.413,1.163,1.512,2,2.816,2s2.403-0.837,2.816-2h6.684
		C15.784,4,16,3.776,16,3.5v-1C16,2.224,15.784,2,15.508,2z"/>
	<path style="fill-rule:evenodd;clip-rule:evenodd;" d="M15.508,12h-2.684c-0.413-1.163-1.512-2-2.816-2s-2.403,0.837-2.816,2H0.508
		C0.231,12,0,12.224,0,12.5v1C0,13.776,0.231,14,0.508,14h6.684c0.413,1.163,1.512,2,2.816,2s2.403-0.837,2.816-2h2.684
		C15.784,14,16,13.776,16,13.5v-1C16,12.224,15.784,12,15.508,12z"/>
</g>
<g>
</g>
<g>
</g>
<g>
</g>
<g>
</g>
<g>
</g>
<g>
</g>
<g>
</g>
<g>
</g>
<g>
</g>
<g>
</g>
<g>
</g>
<g>
</g>
<g>
</g>
<g>
</g>
<g>
</g>
</svg>
