<?xml version="1.0" encoding="iso-8859-1"?>
<!-- Generator: Adobe Illustrator 16.0.0, SVG Export Plug-In . SVG Version: 6.00 Build 0)  -->
<!DOCTYPE svg PUBLIC "-//W3C//DTD SVG 1.1//EN" "http://www.w3.org/Graphics/SVG/1.1/DTD/svg11.dtd">
<svg version="1.1" id="Layer_1" xmlns="http://www.w3.org/2000/svg" xmlns:xlink="http://www.w3.org/1999/xlink" x="0px" y="0px"
	 width="14px" height="16.006px" viewBox="0 0 14 16.006" style="enable-background:new 0 0 14 16.006;" xml:space="preserve">
<g id="Speaker_2_x2C__Volume_2">
	<path style="fill-rule:evenodd;clip-rule:evenodd;" d="M10,4.506v1C10,5.782,10.228,6,10.495,6.068C11.357,6.29,12,7.077,12,8.006
		s-0.643,1.716-1.505,1.938C10.228,10.012,10,10.229,10,10.506v1c0,0.276,0.225,0.503,0.498,0.47C12.473,11.729,14,10.047,14,8.006
		s-1.527-3.724-3.502-3.97C10.225,4.003,10,4.229,10,4.506z"/>
	<path style="fill-rule:evenodd;clip-rule:evenodd;" d="M8.041,0.134L4,4.001H1c-0.553,0-1,0.493-1,1.035v5.952
		c0,0.542,0.447,1.013,1,1.013h3l4.062,3.91c0,0,0.938,0.564,0.938-1.062c0-0.8,0-8.463,0-13.737C9-0.534,8.041,0.134,8.041,0.134z"
		/>
</g>
<g>
</g>
<g>
</g>
<g>
</g>
<g>
</g>
<g>
</g>
<g>
</g>
<g>
</g>
<g>
</g>
<g>
</g>
<g>
</g>
<g>
</g>
<g>
</g>
<g>
</g>
<g>
</g>
<g>
</g>
</svg>
