<?xml version="1.0" encoding="iso-8859-1"?>
<!-- Generator: Adobe Illustrator 16.0.0, SVG Export Plug-In . SVG Version: 6.00 Build 0)  -->
<!DOCTYPE svg PUBLIC "-//W3C//DTD SVG 1.1//EN" "http://www.w3.org/Graphics/SVG/1.1/DTD/svg11.dtd">
<svg version="1.1" id="Layer_1" xmlns="http://www.w3.org/2000/svg" xmlns:xlink="http://www.w3.org/1999/xlink" x="0px" y="0px"
	 width="18px" height="16.013px" viewBox="0 0 18 16.013" style="enable-background:new 0 0 18 16.013;" xml:space="preserve">
<g id="Speaker_1_x2C__Volume_1">
	<path style="fill-rule:evenodd;clip-rule:evenodd;" d="M8.041,0.135L4,4H1C0.447,4,0,4.49,0,5.032v5.95C0,11.524,0.447,12,1,12h3
		l4.062,3.904c0,0,0.938,0.563,0.938-1.062c0-0.8,0-8.46,0-13.733C9-0.535,8.041,0.135,8.041,0.135z"/>
	<path style="fill-rule:evenodd;clip-rule:evenodd;" d="M10.498,4.058C10.225,4.024,10,4.251,10,4.527v1
		c0,0.276,0.228,0.494,0.495,0.562C11.357,6.312,12,7.099,12,8.027s-0.643,1.716-1.505,1.938C10.228,10.033,10,10.251,10,10.527v1
		c0,0.276,0.225,0.503,0.498,0.47C12.473,11.751,14,10.068,14,8.027S12.473,4.304,10.498,4.058z"/>
	<path style="fill-rule:evenodd;clip-rule:evenodd;" d="M10,0.527v1c0,0.276,0.225,0.498,0.499,0.521
		C13.576,2.302,16,4.885,16,8.027s-2.424,5.726-5.501,5.979C10.225,14.029,10,14.251,10,14.527v1c0,0.276,0.225,0.502,0.5,0.484
		c4.187-0.258,7.5-3.732,7.5-7.984s-3.313-7.727-7.5-7.984C10.225,0.025,10,0.251,10,0.527z"/>
</g>
<g>
</g>
<g>
</g>
<g>
</g>
<g>
</g>
<g>
</g>
<g>
</g>
<g>
</g>
<g>
</g>
<g>
</g>
<g>
</g>
<g>
</g>
<g>
</g>
<g>
</g>
<g>
</g>
<g>
</g>
</svg>
