<?xml version="1.0" encoding="iso-8859-1"?>
<!-- Generator: Adobe Illustrator 16.0.0, SVG Export Plug-In . SVG Version: 6.00 Build 0)  -->
<!DOCTYPE svg PUBLIC "-//W3C//DTD SVG 1.1//EN" "http://www.w3.org/Graphics/SVG/1.1/DTD/svg11.dtd">
<svg version="1.1" id="Layer_1" xmlns="http://www.w3.org/2000/svg" xmlns:xlink="http://www.w3.org/1999/xlink" x="0px" y="0px"
	 width="16px" height="16px" viewBox="0 0 16 16" style="enable-background:new 0 0 16 16;" xml:space="preserve">
<g id="Store_2_x2C__Market_2_x2C__Shop_2">
	<path style="fill-rule:evenodd;clip-rule:evenodd;" d="M1.914,7c1.12,0,2.029-0.896,2.029-2c0,1.104,0.908,2,2.027,2
		C7.092,7,8,6.104,8,5c0,1.104,0.908,2,2.028,2c1.121,0,2.029-0.896,2.029-2c0,1.104,0.908,2,2.028,2
		c0.769,0,1.437-0.421,1.781-1.041c0.27-0.485,0.079-1.375-0.129-1.888l-1.464-3.607C14.17,0.208,13.859,0,13.579,0H2.422
		C2.141,0,1.83,0.208,1.726,0.464L0.262,4.071C0.054,4.584-0.137,5.474,0.133,5.959C0.478,6.579,1.146,7,1.914,7z"/>
	<path style="fill-rule:evenodd;clip-rule:evenodd;" d="M15,14h-1V8c-0.75-0.02-1.43-0.31-1.94-0.77C12.04,7.25,12.02,7.26,12,7.28
		V14h-2v-3c0-0.55-0.43-1-0.99-1H6.98C6.42,10,6,10.45,6,11v3H4V7.28C3.98,7.26,3.96,7.25,3.939,7.23C3.43,7.69,2.75,7.98,2,8v6H1
		c-0.553,0-1,0.447-1,1s0.447,1,1,1h1.91h10.17H15c0.553,0,1-0.447,1-1S15.553,14,15,14z"/>
</g>
<g>
</g>
<g>
</g>
<g>
</g>
<g>
</g>
<g>
</g>
<g>
</g>
<g>
</g>
<g>
</g>
<g>
</g>
<g>
</g>
<g>
</g>
<g>
</g>
<g>
</g>
<g>
</g>
<g>
</g>
</svg>
