<?xml version="1.0" encoding="iso-8859-1"?>
<!-- Generator: Adobe Illustrator 16.0.0, SVG Export Plug-In . SVG Version: 6.00 Build 0)  -->
<!DOCTYPE svg PUBLIC "-//W3C//DTD SVG 1.1//EN" "http://www.w3.org/Graphics/SVG/1.1/DTD/svg11.dtd">
<svg version="1.1" id="Layer_1" xmlns="http://www.w3.org/2000/svg" xmlns:xlink="http://www.w3.org/1999/xlink" x="0px" y="0px"
	 width="16px" height="16px" viewBox="0 0 16 16" style="enable-background:new 0 0 16 16;" xml:space="preserve">
<g id="Store_1_x2C__Market_1_x2C__Shop_1">
	<path style="fill-rule:evenodd;clip-rule:evenodd;" d="M15.738,4.071l-1.464-3.607C14.17,0.208,13.859,0,13.579,0H2.422
		C2.141,0,1.83,0.208,1.726,0.464L0.262,4.071C0.054,4.584-0.137,5.474,0.133,5.959C0.478,6.579,1.146,7,1.914,7
		c1.12,0,2.029-0.896,2.029-2c0,1.104,0.908,2,2.027,2C7.092,7,8,6.104,8,5c0,1.104,0.908,2,2.028,2c1.121,0,2.029-0.896,2.029-2
		c0,1.104,0.908,2,2.028,2c0.769,0,1.437-0.421,1.781-1.041C16.137,5.474,15.946,4.584,15.738,4.071z"/>
	<path style="fill-rule:evenodd;clip-rule:evenodd;" d="M12.06,8.46C11.46,8.8,10.77,9,10.03,9C9.29,9,8.6,8.8,8,8.46
		C7.4,8.8,6.71,9,5.97,9C5.23,9,4.54,8.8,3.94,8.46C3.35,8.8,2.65,9,1.91,9C1.6,9,1.29,8.96,1,8.89V15c0,0.55,0.35,1,0.91,1H5.5
		C5.776,16,6,15.776,6,15.5v-3C6,12.224,6.224,12,6.5,12h3c0.276,0,0.5,0.224,0.5,0.5v3c0,0.276,0.224,0.5,0.5,0.5h3.58
		c0.57,0,0.92-0.45,0.92-1V8.89C14.71,8.96,14.4,9,14.09,9C13.35,9,12.65,8.8,12.06,8.46z"/>
</g>
<g>
</g>
<g>
</g>
<g>
</g>
<g>
</g>
<g>
</g>
<g>
</g>
<g>
</g>
<g>
</g>
<g>
</g>
<g>
</g>
<g>
</g>
<g>
</g>
<g>
</g>
<g>
</g>
<g>
</g>
</svg>
