<?xml version="1.0" encoding="iso-8859-1"?>
<!-- Generator: Adobe Illustrator 16.0.0, SVG Export Plug-In . SVG Version: 6.00 Build 0)  -->
<!DOCTYPE svg PUBLIC "-//W3C//DTD SVG 1.1//EN" "http://www.w3.org/Graphics/SVG/1.1/DTD/svg11.dtd">
<svg version="1.1" id="Layer_1" xmlns="http://www.w3.org/2000/svg" xmlns:xlink="http://www.w3.org/1999/xlink" x="0px" y="0px"
	 width="16px" height="16px" viewBox="0 0 16 16" style="enable-background:new 0 0 16 16;" xml:space="preserve">
<path id="Suitcase_2" d="M15,3h-1V2.5C14,2.224,13.776,2,13.5,2h-1C12.224,2,12,2.224,12,2.5V3h-1V1c0-0.553-0.447-1-1-1H6
	C5.447,0,5,0.447,5,1v2H4V2.5C4,2.224,3.776,2,3.5,2h-1C2.224,2,2,2.224,2,2.5V3H1C0.447,3,0,3.447,0,4v11c0,0.553,0.447,1,1,1h14
	c0.553,0,1-0.447,1-1V4C16,3.447,15.553,3,15,3z M9,3H7V2h2V3z"/>
<g>
</g>
<g>
</g>
<g>
</g>
<g>
</g>
<g>
</g>
<g>
</g>
<g>
</g>
<g>
</g>
<g>
</g>
<g>
</g>
<g>
</g>
<g>
</g>
<g>
</g>
<g>
</g>
<g>
</g>
</svg>
