<?xml version="1.0" encoding="iso-8859-1"?>
<!-- Generator: Adobe Illustrator 16.0.0, SVG Export Plug-In . SVG Version: 6.00 Build 0)  -->
<!DOCTYPE svg PUBLIC "-//W3C//DTD SVG 1.1//EN" "http://www.w3.org/Graphics/SVG/1.1/DTD/svg11.dtd">
<svg version="1.1" id="Layer_1" xmlns="http://www.w3.org/2000/svg" xmlns:xlink="http://www.w3.org/1999/xlink" x="0px" y="0px"
	 width="16px" height="16px" viewBox="0 0 16 16" style="enable-background:new 0 0 16 16;" xml:space="preserve">
<g id="Switch_Window_1">
	<path style="fill-rule:evenodd;clip-rule:evenodd;" d="M1,16h9c0.553,0,1-0.447,1-1V6c0-0.553-0.447-1-1-1H1C0.447,5,0,5.447,0,6v9
		C0,15.553,0.447,16,1,16z"/>
	<path style="fill-rule:evenodd;clip-rule:evenodd;" d="M12,3c0.553,0,1,0.448,1,1v7h2c0.553,0,1-0.447,1-1V1c0-0.553-0.447-1-1-1H6
		C5.447,0,5,0.447,5,1v2H12z"/>
</g>
<g>
</g>
<g>
</g>
<g>
</g>
<g>
</g>
<g>
</g>
<g>
</g>
<g>
</g>
<g>
</g>
<g>
</g>
<g>
</g>
<g>
</g>
<g>
</g>
<g>
</g>
<g>
</g>
<g>
</g>
</svg>
