<?xml version="1.0" encoding="iso-8859-1"?>
<!-- Generator: Adobe Illustrator 16.0.0, SVG Export Plug-In . SVG Version: 6.00 Build 0)  -->
<!DOCTYPE svg PUBLIC "-//W3C//DTD SVG 1.1//EN" "http://www.w3.org/Graphics/SVG/1.1/DTD/svg11.dtd">
<svg version="1.1" id="Layer_1" xmlns="http://www.w3.org/2000/svg" xmlns:xlink="http://www.w3.org/1999/xlink" x="0px" y="0px"
	 width="14px" height="16px" viewBox="0 0 14 16" style="enable-background:new 0 0 14 16;" xml:space="preserve">
<g id="Tablet_1">
	<path style="fill-rule:evenodd;clip-rule:evenodd;" d="M13,0H1C0.447,0,0,0.447,0,1v14c0,0.553,0.447,1,1,1h12c0.553,0,1-0.447,1-1
		V1C14,0.447,13.553,0,13,0z M8,14.5C8,14.776,7.776,15,7.5,15h-1C6.224,15,6,14.776,6,14.5v-1C6,13.224,6.224,13,6.5,13h1
		C7.776,13,8,13.224,8,13.5V14.5z M12,12H2V2h10V12z"/>
	<path style="fill-rule:evenodd;clip-rule:evenodd;" d="M4.5,6h5C9.776,6,10,5.776,10,5.5v-1C10,4.224,9.776,4,9.5,4h-5
		C4.224,4,4,4.224,4,4.5v1C4,5.776,4.224,6,4.5,6z"/>
	<path style="fill-rule:evenodd;clip-rule:evenodd;" d="M4.5,9h5C9.776,9,10,8.776,10,8.5v-1C10,7.224,9.776,7,9.5,7h-5
		C4.224,7,4,7.224,4,7.5v1C4,8.776,4.224,9,4.5,9z"/>
</g>
<g>
</g>
<g>
</g>
<g>
</g>
<g>
</g>
<g>
</g>
<g>
</g>
<g>
</g>
<g>
</g>
<g>
</g>
<g>
</g>
<g>
</g>
<g>
</g>
<g>
</g>
<g>
</g>
<g>
</g>
</svg>
