<?xml version="1.0" encoding="iso-8859-1"?>
<!-- Generator: Adobe Illustrator 16.0.0, SVG Export Plug-In . SVG Version: 6.00 Build 0)  -->
<!DOCTYPE svg PUBLIC "-//W3C//DTD SVG 1.1//EN" "http://www.w3.org/Graphics/SVG/1.1/DTD/svg11.dtd">
<svg version="1.1" id="Layer_1" xmlns="http://www.w3.org/2000/svg" xmlns:xlink="http://www.w3.org/1999/xlink" x="0px" y="0px"
	 width="16px" height="16px" viewBox="0 0 16 16" style="enable-background:new 0 0 16 16;" xml:space="preserve">
<path id="Tag_1" style="fill-rule:evenodd;clip-rule:evenodd;" d="M15,0H8.086C7.81,0,7.428,0.158,7.232,0.354L0.293,7.293
	c-0.391,0.391-0.391,1.023,0,1.414l7,7c0.391,0.391,1.023,0.391,1.414,0l6.939-6.939C15.842,8.572,16,8.19,16,7.914V1
	C16,0.447,15.553,0,15,0z M11,7C9.896,7,9,6.104,9,5s0.896-2,2-2s2,0.896,2,2S12.104,7,11,7z"/>
<g>
</g>
<g>
</g>
<g>
</g>
<g>
</g>
<g>
</g>
<g>
</g>
<g>
</g>
<g>
</g>
<g>
</g>
<g>
</g>
<g>
</g>
<g>
</g>
<g>
</g>
<g>
</g>
<g>
</g>
</svg>
