<?xml version="1.0" encoding="iso-8859-1"?>
<!-- Generator: Adobe Illustrator 16.0.0, SVG Export Plug-In . SVG Version: 6.00 Build 0)  -->
<!DOCTYPE svg PUBLIC "-//W3C//DTD SVG 1.1//EN" "http://www.w3.org/Graphics/SVG/1.1/DTD/svg11.dtd">
<svg version="1.1" id="Layer_1" xmlns="http://www.w3.org/2000/svg" xmlns:xlink="http://www.w3.org/1999/xlink" x="0px" y="0px"
	 width="16px" height="16px" viewBox="0 0 16 16" style="enable-background:new 0 0 16 16;" xml:space="preserve">
<path id="Thumbs_Up_1_x2C__Like_1" d="M15.479,9.878C15.79,9.708,16,9.379,16,9s-0.21-0.708-0.521-0.878
	C15.237,7.989,15,7.776,15,7.5s0.237-0.489,0.479-0.622C15.79,6.708,16,6.379,16,6c0-0.553-0.447-1-1-1h-2h-1.5
	C11.224,5,11,4.776,11,4.5V1c0-0.553-0.447-1-1-1H9.5C9.224,0,8.967,0.221,8.917,0.492C8.623,2.086,7.514,7,5,7H4V6H1
	C0.447,6,0,6.447,0,7v7c0,0.553,0.447,1,1,1h3v-1h1h1c0,2,2,2,2,2h5h2c0.553,0,1-0.447,1-1c0-0.379-0.21-0.708-0.521-0.878
	C15.237,13.989,15,13.776,15,13.5s0.237-0.489,0.479-0.622C15.79,12.708,16,12.379,16,12s-0.21-0.708-0.521-0.878
	C15.237,10.989,15,10.776,15,10.5S15.237,10.011,15.479,9.878z"/>
<g>
</g>
<g>
</g>
<g>
</g>
<g>
</g>
<g>
</g>
<g>
</g>
<g>
</g>
<g>
</g>
<g>
</g>
<g>
</g>
<g>
</g>
<g>
</g>
<g>
</g>
<g>
</g>
<g>
</g>
</svg>
