<?xml version="1.0" encoding="iso-8859-1"?>
<!-- Generator: Adobe Illustrator 16.0.0, SVG Export Plug-In . SVG Version: 6.00 Build 0)  -->
<!DOCTYPE svg PUBLIC "-//W3C//DTD SVG 1.1//EN" "http://www.w3.org/Graphics/SVG/1.1/DTD/svg11.dtd">
<svg version="1.1" id="Layer_1" xmlns="http://www.w3.org/2000/svg" xmlns:xlink="http://www.w3.org/1999/xlink" x="0px" y="0px"
	 width="12.244px" height="17.935px" viewBox="0 0 12.244 17.935" style="enable-background:new 0 0 12.244 17.935;"
	 xml:space="preserve">
<path id="Tree_1_x2C__Nature_1" d="M9.271,10.935h2.236c0.744,0,0.961-0.473,0.484-0.992L8.366,5.935h1.889
	c0.762,0,0.993-0.232,0.517-0.838L6.983,0.399C6.507-0.206,5.737-0.089,5.261,0.518L1.472,5.09C0.996,5.695,1.228,5.935,1.988,5.935
	h1.89L0.253,9.942c-0.477,0.52-0.26,0.992,0.484,0.992h2.236l-2.721,3.008c-0.477,0.52-0.26,0.992,0.484,0.992h4.385v2.5
	c0,0.276,0.224,0.5,0.5,0.5h1c0.276,0,0.5-0.224,0.5-0.5v-2.5h4.385c0.744,0,0.961-0.473,0.484-0.992L9.271,10.935z"/>
<g>
</g>
<g>
</g>
<g>
</g>
<g>
</g>
<g>
</g>
<g>
</g>
<g>
</g>
<g>
</g>
<g>
</g>
<g>
</g>
<g>
</g>
<g>
</g>
<g>
</g>
<g>
</g>
<g>
</g>
</svg>
