<?xml version="1.0" encoding="iso-8859-1"?>
<!-- Generator: Adobe Illustrator 16.0.0, SVG Export Plug-In . SVG Version: 6.00 Build 0)  -->
<!DOCTYPE svg PUBLIC "-//W3C//DTD SVG 1.1//EN" "http://www.w3.org/Graphics/SVG/1.1/DTD/svg11.dtd">
<svg version="1.1" id="Layer_1" xmlns="http://www.w3.org/2000/svg" xmlns:xlink="http://www.w3.org/1999/xlink" x="0px" y="0px"
	 width="16px" height="16px" viewBox="0 0 16 16" style="enable-background:new 0 0 16 16;" xml:space="preserve">
<g id="Turn_Page_Up_1">
	<path d="M0.009,10c0.001,0.26,0.093,0.516,0.284,0.707l5,5C5.483,15.898,5.739,15.99,6,15.99V16h1h1h7c0.553,0,1-0.447,1-1V1
		c0-0.553-0.447-1-1-1H1C0.447,0,0,0.447,0,1v7v1v1H0.009z M2,2h12v12H7v-4c0-0.553-0.447-1-1-1H2V2z"/>
	<path d="M12.447,3H8.573C7.962,3,7.816,3.351,8.249,3.782L9.526,5.06L7.293,7.293C7.098,7.488,7.098,7.805,7.293,8L8,8.707
		c0.195,0.195,0.512,0.195,0.707,0l2.233-2.233l1.277,1.277C12.65,8.184,13,8.039,13,7.427V3.554C13,3.247,12.752,3,12.447,3z"/>
</g>
<g>
</g>
<g>
</g>
<g>
</g>
<g>
</g>
<g>
</g>
<g>
</g>
<g>
</g>
<g>
</g>
<g>
</g>
<g>
</g>
<g>
</g>
<g>
</g>
<g>
</g>
<g>
</g>
<g>
</g>
</svg>
