<?xml version="1.0" encoding="iso-8859-1"?>
<!-- Generator: Adobe Illustrator 16.0.0, SVG Export Plug-In . SVG Version: 6.00 Build 0)  -->
<!DOCTYPE svg PUBLIC "-//W3C//DTD SVG 1.1//EN" "http://www.w3.org/Graphics/SVG/1.1/DTD/svg11.dtd">
<svg version="1.1" id="Layer_1" xmlns="http://www.w3.org/2000/svg" xmlns:xlink="http://www.w3.org/1999/xlink" x="0px" y="0px"
	 width="16px" height="16px" viewBox="0 0 16 16" style="enable-background:new 0 0 16 16;" xml:space="preserve">
<path id="TV_1_x2C__Television_1" d="M15,3h-4.586l1.293-1.293c0.391-0.391,0.391-1.023,0-1.414s-1.023-0.391-1.414,0L8,2.586
	L5.707,0.293c-0.391-0.391-1.023-0.391-1.414,0s-0.391,1.023,0,1.414L5.586,3H1C0.447,3,0,3.447,0,4v11c0,0.553,0.447,1,1,1h14
	c0.553,0,1-0.447,1-1V4C16,3.447,15.553,3,15,3z M12,13.5c0,0.276-0.224,0.5-0.5,0.5h-9C2.224,14,2,13.776,2,13.5v-8
	C2,5.224,2.224,5,2.5,5h9C11.776,5,12,5.224,12,5.5V13.5z M15,9.5c0,0.276-0.224,0.5-0.5,0.5h-1C13.224,10,13,9.776,13,9.5v-1
	C13,8.224,13.224,8,13.5,8h1C14.776,8,15,8.224,15,8.5V9.5z M15,6.5C15,6.776,14.776,7,14.5,7h-1C13.224,7,13,6.776,13,6.5v-1
	C13,5.224,13.224,5,13.5,5h1C14.776,5,15,5.224,15,5.5V6.5z"/>
<g>
</g>
<g>
</g>
<g>
</g>
<g>
</g>
<g>
</g>
<g>
</g>
<g>
</g>
<g>
</g>
<g>
</g>
<g>
</g>
<g>
</g>
<g>
</g>
<g>
</g>
<g>
</g>
<g>
</g>
</svg>
