<?xml version="1.0" encoding="iso-8859-1"?>
<!-- Generator: Adobe Illustrator 16.0.0, SVG Export Plug-In . SVG Version: 6.00 Build 0)  -->
<!DOCTYPE svg PUBLIC "-//W3C//DTD SVG 1.1//EN" "http://www.w3.org/Graphics/SVG/1.1/DTD/svg11.dtd">
<svg version="1.1" id="Layer_1" xmlns="http://www.w3.org/2000/svg" xmlns:xlink="http://www.w3.org/1999/xlink" x="0px" y="0px"
	 width="16px" height="16px" viewBox="0 0 16 16" style="enable-background:new 0 0 16 16;" xml:space="preserve">
<path id="Up_Square_4" style="fill-rule:evenodd;clip-rule:evenodd;" d="M16,1c0-0.553-0.447-1-1-1H1C0.447,0,0,0.447,0,1v14
	c0,0.553,0.447,1,1,1h14c0.553,0,1-0.447,1-1V1z M11.753,8.174l-0.717,0.684c-0.197,0.189-0.468,0.189-0.666,0L9,7.516V11.5
	C9,11.776,8.677,12,8.4,12h-1C7.124,12,7,11.776,7,11.5V7.489L5.531,8.83c-0.197,0.189-0.543,0.189-0.74,0L4.062,8.146
	C3.863,7.959,3.856,7.652,4.056,7.463l3.477-3.322c0.197-0.188,0.517-0.188,0.716,0l3.506,3.35
	C11.951,7.68,11.95,7.986,11.753,8.174z"/>
<g>
</g>
<g>
</g>
<g>
</g>
<g>
</g>
<g>
</g>
<g>
</g>
<g>
</g>
<g>
</g>
<g>
</g>
<g>
</g>
<g>
</g>
<g>
</g>
<g>
</g>
<g>
</g>
<g>
</g>
</svg>
