<?xml version="1.0" encoding="iso-8859-1"?>
<!-- Generator: Adobe Illustrator 16.0.0, SVG Export Plug-In . SVG Version: 6.00 Build 0)  -->
<!DOCTYPE svg PUBLIC "-//W3C//DTD SVG 1.1//EN" "http://www.w3.org/Graphics/SVG/1.1/DTD/svg11.dtd">
<svg version="1.1" id="Layer_1" xmlns="http://www.w3.org/2000/svg" xmlns:xlink="http://www.w3.org/1999/xlink" x="0px" y="0px"
	 width="16px" height="16px" viewBox="0 0 16 16" style="enable-background:new 0 0 16 16;" xml:space="preserve">
<path id="Upload_Folder_1" style="fill-rule:evenodd;clip-rule:evenodd;" d="M15,2H7V1c0-0.55-0.45-1-1-1H1C0.45,0,0,0.45,0,1v14
	c0,0.55,0.45,1,1,1h14c0.55,0,1-0.45,1-1V3C16,2.45,15.55,2,15,2z M10.695,9H9v2.5C9,11.776,8.776,12,8.5,12h-1
	C7.224,12,7,11.776,7,11.5V9H5.305C5.008,9,4.911,8.736,5.09,8.5l2.587-3.326C7.855,4.94,8.145,4.943,8.323,5.178L10.91,8.5
	C11.089,8.735,10.992,9,10.695,9z"/>
<g>
</g>
<g>
</g>
<g>
</g>
<g>
</g>
<g>
</g>
<g>
</g>
<g>
</g>
<g>
</g>
<g>
</g>
<g>
</g>
<g>
</g>
<g>
</g>
<g>
</g>
<g>
</g>
<g>
</g>
</svg>
