<?xml version="1.0" encoding="iso-8859-1"?>
<!-- Generator: Adobe Illustrator 16.0.0, SVG Export Plug-In . SVG Version: 6.00 Build 0)  -->
<!DOCTYPE svg PUBLIC "-//W3C//DTD SVG 1.1//EN" "http://www.w3.org/Graphics/SVG/1.1/DTD/svg11.dtd">
<svg version="1.1" id="Layer_1" xmlns="http://www.w3.org/2000/svg" xmlns:xlink="http://www.w3.org/1999/xlink" x="0px" y="0px"
	 width="16px" height="16px" viewBox="0 0 16 16" style="enable-background:new 0 0 16 16;" xml:space="preserve">
<g id="User_3_x2C__Profile_4">
	<path d="M9.979,9.039c0-0.865,0.721-0.583,1.037-2.169c0.132-0.658,0.769-0.011,0.891-1.512c0-0.599-0.348-0.748-0.348-0.748
		s0.177-0.885,0.246-1.567C11.891,2.194,11.276,0,8,0S4.109,2.194,4.195,3.043C4.265,3.726,4.441,4.61,4.441,4.61
		S4.094,4.76,4.094,5.358c0.121,1.501,0.758,0.854,0.89,1.512c0.317,1.586,1.037,1.304,1.037,2.169c0,1.442-0.754,2.116-3.114,2.914
		C0.538,12.755,0,13.571,0,14.129c0,0.231,0,0.593,0,0.937C0,15.582,0.447,16,1,16h7h7c0.553,0,1-0.418,1-0.935
		c0-0.344,0-0.705,0-0.937c0-0.558-0.538-1.374-2.906-2.176C10.733,11.155,9.979,10.481,9.979,9.039z"/>
</g>
<g>
</g>
<g>
</g>
<g>
</g>
<g>
</g>
<g>
</g>
<g>
</g>
<g>
</g>
<g>
</g>
<g>
</g>
<g>
</g>
<g>
</g>
<g>
</g>
<g>
</g>
<g>
</g>
<g>
</g>
</svg>
