<?xml version="1.0" encoding="iso-8859-1"?>
<!-- Generator: Adobe Illustrator 16.0.0, SVG Export Plug-In . SVG Version: 6.00 Build 0)  -->
<!DOCTYPE svg PUBLIC "-//W3C//DTD SVG 1.1//EN" "http://www.w3.org/Graphics/SVG/1.1/DTD/svg11.dtd">
<svg version="1.1" id="Layer_1" xmlns="http://www.w3.org/2000/svg" xmlns:xlink="http://www.w3.org/1999/xlink" x="0px" y="0px"
	 width="16px" height="16px" viewBox="0 0 16 16" style="enable-background:new 0 0 16 16;" xml:space="preserve">
<path id="Wallet_1_x2C__Payment_1" d="M15,4h-1V1c0-0.553-0.447-1-1-1H3C1.346,0,0,1.346,0,3v10c0,1.654,1.346,3,3,3h12
	c0.553,0,1-0.447,1-1V5C16,4.447,15.553,4,15,4z M2,3c0-0.552,0.448-1,1-1h9v2H3C2.448,4,2,3.552,2,3z M13,10.5
	c0,0.276-0.224,0.5-0.5,0.5h-1c-0.276,0-0.5-0.224-0.5-0.5v-1C11,9.224,11.224,9,11.5,9h1C12.776,9,13,9.224,13,9.5V10.5z"/>
<g>
</g>
<g>
</g>
<g>
</g>
<g>
</g>
<g>
</g>
<g>
</g>
<g>
</g>
<g>
</g>
<g>
</g>
<g>
</g>
<g>
</g>
<g>
</g>
<g>
</g>
<g>
</g>
<g>
</g>
</svg>
