<?xml version="1.0" encoding="iso-8859-1"?>
<!-- Generator: Adobe Illustrator 16.0.0, SVG Export Plug-In . SVG Version: 6.00 Build 0)  -->
<!DOCTYPE svg PUBLIC "-//W3C//DTD SVG 1.1//EN" "http://www.w3.org/Graphics/SVG/1.1/DTD/svg11.dtd">
<svg version="1.1" id="Layer_1" xmlns="http://www.w3.org/2000/svg" xmlns:xlink="http://www.w3.org/1999/xlink" x="0px" y="0px"
	 width="14.996px" height="15px" viewBox="0 0 14.996 15" style="enable-background:new 0 0 14.996 15;" xml:space="preserve">
<g id="Wifi_3_x2C__Wireless_3_1_">
	<path d="M14.996,14.498c-0.074-4.731-1.214-8.043-3.879-10.708S5.226,0.068,0.5,0C0.224-0.004,0,0.22,0,0.496v1
		c0,0.276,0.221,0.461,0.496,0.436c2.966-0.289,6.973,1.037,9.207,3.271s3.642,6.324,3.361,9.3C13.038,14.777,13.224,15,13.5,15h1
		C14.776,15,15,14.773,14.996,14.498z"/>
	<path d="M0,4.496v1C0,5.772,0.225,5.996,0.501,6c2.756,0.05,4.888,0.53,6.39,2.031c1.502,1.502,2.048,3.703,2.104,6.467
		C9.001,14.775,9.224,15,9.5,15h1c0.276,0,0.5-0.226,0.496-0.502c-0.06-3.703-0.803-5.991-2.691-7.88S4.197,4.055,0.501,4
		C0.225,3.996,0,4.22,0,4.496z"/>
	<path d="M0,8.479v1.018c0,0.276,0.225,0.5,0.501,0.502C3.023,10.021,3.228,10.234,4,11.007c0.749,0.749,1.052,1.792,1.019,3.491
		C5.013,14.773,5.224,15,5.5,15h0.896c0.276,0,0.513-0.225,0.517-0.502c0.028-1.875-0.336-3.925-1.453-5.041
		c-1.114-1.116-3.096-1.414-4.96-1.469C0.224,7.98,0,8.202,0,8.479z"/>
	<circle cx="1.5" cy="13.496" r="1.5"/>
</g>
<g>
</g>
<g>
</g>
<g>
</g>
<g>
</g>
<g>
</g>
<g>
</g>
<g>
</g>
<g>
</g>
<g>
</g>
<g>
</g>
<g>
</g>
<g>
</g>
<g>
</g>
<g>
</g>
<g>
</g>
</svg>
