<?xml version="1.0" encoding="iso-8859-1"?>
<!-- Generator: Adobe Illustrator 16.0.0, SVG Export Plug-In . SVG Version: 6.00 Build 0)  -->
<!DOCTYPE svg PUBLIC "-//W3C//DTD SVG 1.1//EN" "http://www.w3.org/Graphics/SVG/1.1/DTD/svg11.dtd">
<svg version="1.1" id="Layer_1" xmlns="http://www.w3.org/2000/svg" xmlns:xlink="http://www.w3.org/1999/xlink" x="0px" y="0px"
	 width="18px" height="14.227px" viewBox="0 0 18 14.227" style="enable-background:new 0 0 18 14.227;" xml:space="preserve">
<g id="Wifi_1_x2C__Wireless_1">
	<path d="M0.115,4.357c-0.17,0.213-0.147,0.551,0.04,0.746L0.85,5.826c0.188,0.195,0.465,0.172,0.629-0.045C3.244,3.479,5.963,2,9,2
		s5.756,1.479,7.521,3.781c0.165,0.217,0.442,0.24,0.63,0.045l0.694-0.723c0.188-0.195,0.21-0.533,0.04-0.746
		C15.772,1.701,12.574,0,9,0S2.229,1.701,0.115,4.357z"/>
	<path d="M2.85,7.211C2.69,7.432,2.725,7.778,2.912,7.974l0.714,0.743C3.813,8.912,4.07,8.873,4.219,8.645C5.257,7.051,7.01,6,9,6
		s3.743,1.051,4.781,2.645c0.149,0.229,0.405,0.268,0.593,0.072l0.714-0.743c0.188-0.195,0.222-0.542,0.062-0.763
		C13.74,5.262,11.509,4,9,4S4.26,5.262,2.85,7.211z"/>
	<path d="M5.323,9.782c-0.171,0.211-0.139,0.556,0.049,0.751l0.724,0.753c0.188,0.195,0.436,0.151,0.594-0.069
		C7.217,10.48,8.057,10,9,10c0.944,0,1.783,0.48,2.311,1.217c0.159,0.221,0.406,0.265,0.594,0.069l0.724-0.753
		c0.188-0.195,0.22-0.54,0.049-0.751C11.797,8.697,10.479,8,9,8S6.203,8.697,5.323,9.782z"/>
	<ellipse cx="9" cy="13" rx="1.178" ry="1.227"/>
</g>
<g>
</g>
<g>
</g>
<g>
</g>
<g>
</g>
<g>
</g>
<g>
</g>
<g>
</g>
<g>
</g>
<g>
</g>
<g>
</g>
<g>
</g>
<g>
</g>
<g>
</g>
<g>
</g>
<g>
</g>
</svg>
