<?xml version="1.0" encoding="iso-8859-1"?>
<!-- Generator: Adobe Illustrator 16.0.0, SVG Export Plug-In . SVG Version: 6.00 Build 0)  -->
<!DOCTYPE svg PUBLIC "-//W3C//DTD SVG 1.1//EN" "http://www.w3.org/Graphics/SVG/1.1/DTD/svg11.dtd">
<svg version="1.1" id="Layer_1" xmlns="http://www.w3.org/2000/svg" xmlns:xlink="http://www.w3.org/1999/xlink" x="0px" y="0px"
	 width="16px" height="16px" viewBox="0 0 16 16" style="enable-background:new 0 0 16 16;" xml:space="preserve">
<g id="Window_1">
	<path style="fill-rule:evenodd;clip-rule:evenodd;" d="M0,1v5c0,0.553,0.448,1,1,1h5c0.552,0,1-0.447,1-1V1c0-0.553-0.448-1-1-1H1
		C0.448,0,0,0.447,0,1z"/>
	<path style="fill-rule:evenodd;clip-rule:evenodd;" d="M1,9c-0.552,0-1,0.447-1,1v5c0,0.553,0.448,1,1,1h5c0.552,0,1-0.447,1-1v-5
		c0-0.553-0.448-1-1-1H1z"/>
	<path style="fill-rule:evenodd;clip-rule:evenodd;" d="M10,9c-0.552,0-1,0.447-1,1v5c0,0.553,0.448,1,1,1h5c0.552,0,1-0.447,1-1v-5
		c0-0.553-0.448-1-1-1H10z"/>
	<path style="fill-rule:evenodd;clip-rule:evenodd;" d="M10,0C9.448,0,9,0.447,9,1v5c0,0.553,0.448,1,1,1h5c0.552,0,1-0.447,1-1V1
		c0-0.553-0.448-1-1-1H10z"/>
</g>
<g>
</g>
<g>
</g>
<g>
</g>
<g>
</g>
<g>
</g>
<g>
</g>
<g>
</g>
<g>
</g>
<g>
</g>
<g>
</g>
<g>
</g>
<g>
</g>
<g>
</g>
<g>
</g>
<g>
</g>
</svg>
