<?xml version="1.0" encoding="iso-8859-1"?>
<!-- Generator: Adobe Illustrator 16.0.0, SVG Export Plug-In . SVG Version: 6.00 Build 0)  -->
<!DOCTYPE svg PUBLIC "-//W3C//DTD SVG 1.1//EN" "http://www.w3.org/Graphics/SVG/1.1/DTD/svg11.dtd">
<svg version="1.1" id="Layer_1" xmlns="http://www.w3.org/2000/svg" xmlns:xlink="http://www.w3.org/1999/xlink" x="0px" y="0px"
	 width="8.071px" height="8.07px" viewBox="0 0 8.071 8.07" style="enable-background:new 0 0 8.071 8.07;" xml:space="preserve">
<path id="X_1" d="M7.924,6.51L5.45,4.035l2.475-2.475c0.196-0.195,0.196-0.512,0-0.707L7.217,0.146
	c-0.195-0.195-0.512-0.195-0.707,0L4.036,2.621L1.561,0.146c-0.195-0.195-0.512-0.195-0.707,0L0.147,0.854
	c-0.196,0.195-0.196,0.512,0,0.707l2.475,2.475L0.147,6.51c-0.196,0.195-0.196,0.512,0,0.707l0.707,0.707
	c0.195,0.195,0.512,0.195,0.707,0l2.475-2.475L6.51,7.924c0.195,0.195,0.512,0.195,0.707,0l0.707-0.707
	C8.121,7.021,8.121,6.705,7.924,6.51z"/>
<g>
</g>
<g>
</g>
<g>
</g>
<g>
</g>
<g>
</g>
<g>
</g>
<g>
</g>
<g>
</g>
<g>
</g>
<g>
</g>
<g>
</g>
<g>
</g>
<g>
</g>
<g>
</g>
<g>
</g>
</svg>
