<?xml version="1.0" encoding="iso-8859-1"?>
<!-- Generator: Adobe Illustrator 16.0.0, SVG Export Plug-In . SVG Version: 6.00 Build 0)  -->
<!DOCTYPE svg PUBLIC "-//W3C//DTD SVG 1.1//EN" "http://www.w3.org/Graphics/SVG/1.1/DTD/svg11.dtd">
<svg version="1.1" id="Layer_1" xmlns="http://www.w3.org/2000/svg" xmlns:xlink="http://www.w3.org/1999/xlink" x="0px" y="0px"
	 width="16px" height="16px" viewBox="0 0 16 16" style="enable-background:new 0 0 16 16;" xml:space="preserve">
<path id="X_2" style="fill-rule:evenodd;clip-rule:evenodd;" d="M8,0C3.582,0,0,3.582,0,8s3.582,8,8,8s8-3.582,8-8S12.418,0,8,0z
	 M10.721,9.359c0.375,0.375,0.375,0.984,0,1.359c-0.376,0.375-0.984,0.375-1.359,0L8.002,9.359l-1.359,1.359
	c-0.375,0.375-0.983,0.375-1.359,0c-0.375-0.375-0.375-0.984,0-1.359L6.643,8L5.283,6.641c-0.375-0.375-0.375-0.983,0-1.359
	c0.376-0.375,0.984-0.375,1.359,0l1.359,1.359l1.359-1.359c0.375-0.375,0.983-0.375,1.359,0c0.375,0.376,0.375,0.984,0,1.359
	L9.361,8L10.721,9.359z"/>
<g>
</g>
<g>
</g>
<g>
</g>
<g>
</g>
<g>
</g>
<g>
</g>
<g>
</g>
<g>
</g>
<g>
</g>
<g>
</g>
<g>
</g>
<g>
</g>
<g>
</g>
<g>
</g>
<g>
</g>
</svg>
