<?xml version="1.0" encoding="UTF-8" standalone="no"?>
<svg width="228px" height="115px" viewBox="0 0 228 115" version="1.1" xmlns="http://www.w3.org/2000/svg" xmlns:xlink="http://www.w3.org/1999/xlink" xmlns:sketch="http://www.bohemiancoding.com/sketch/ns">
    <!-- Generator: Sketch 3.0.4 (8053) - http://www.bohemiancoding.com/sketch -->
    <title>do-good-logo</title>
    <desc>Created with Sketch.</desc>
    <defs></defs>
    <g id="Page-1" stroke="none" stroke-width="1" fill="none" fill-rule="evenodd" sketch:type="MSPage">
        <g id="do-good-logo" sketch:type="MSLayerGroup" transform="translate(0.000000, 1.000000)">
            <g id="Page-1" sketch:type="MSShapeGroup">
                <g id="1%Club-do-good-engagement">
                    <path d="M54.6075724,0.269668966 C41.1940966,0.269668966 30.3137793,11.1334759 30.3137793,24.5556 C30.3137793,37.9525655 41.1940966,48.841531 54.6075724,48.841531 C68.0037517,48.841531 78.8856414,37.9525655 78.8856414,24.5556 C78.8856414,11.1334759 68.0037517,0.269668966 54.6075724,0.269668966 M54.6075724,37.3361793 C47.5293517,37.3361793 41.819131,31.6180966 41.819131,24.5556 C41.819131,17.4954621 47.5293517,11.7561517 54.6075724,11.7561517 C61.6653517,11.7561517 67.3881517,17.4954621 67.3881517,24.5556 C67.3881517,31.6180966 61.6653517,37.3361793 54.6075724,37.3361793" id="Fill-1" fill="#00BF51"></path>
                    <path d="M139.723903,32.2596414 L151.159283,32.2596414 L151.159283,79.1466621 L139.723903,79.1466621 L139.723903,32.2596414 L139.723903,32.2596414 Z" id="Fill-2" fill="#00BF51"></path>
                    <path d="M12.4778897,79.3683724 L12.4778897,22.0224414 L0.334137931,26.1799034 L0.334137931,11.5155724 L28.0919586,-0.280675862 L28.0919586,79.3683724 L12.4778897,79.3683724" id="Fill-3" fill="#00BF51"></path>
                    <path d="M92.7386069,1.87746207 L108.736345,1.87746207 L75.8123586,79.3683724 L59.8146207,79.3683724 L92.7386069,1.87746207" id="Fill-4" fill="#00BF51"></path>
                    <path d="M208.550028,41.750731 C205.823462,41.750731 203.244703,42.3396 200.891586,43.3656 L200.891586,32.2588552 L189.46171,32.2588552 L189.46171,79.1450897 L200.404138,79.1450897 L200.396276,78.0420414 C202.883834,79.2142759 205.612759,79.9352276 208.550028,79.9352276 C219.096207,79.9352276 227.653283,71.3781517 227.653283,60.834331 C227.653283,50.2936552 219.096207,41.750731 208.550028,41.750731 M208.179724,69.8371862 C203.273793,69.8371862 199.30109,65.8542621 199.30109,60.9514759 C199.30109,56.0290345 203.273793,52.0579034 208.179724,52.0579034 C213.081724,52.0579034 217.052855,56.0290345 217.052855,60.9514759 C217.052855,65.8542621 213.081724,69.8371862 208.179724,69.8371862" id="Fill-5" fill="#00BF51"></path>
                    <path d="M175.188124,43.0872828 L175.188124,63.8887448 C175.188124,66.6577655 172.9152,68.9220414 170.141462,68.9220414 C167.407821,68.9220414 165.152193,66.6577655 165.152193,63.8887448 L165.204083,43.0872828 L153.782855,43.0872828 L153.782855,63.539669 C153.782855,72.5818345 161.123669,79.9352276 170.121021,79.9352276 C172.85309,79.9352276 175.372883,79.2127034 177.635586,78.0318207 L177.635586,79.1466621 L186.538593,79.1466621 L186.538593,43.0872828 L175.188124,43.0872828" id="Fill-6" fill="#00BF51"></path>
                    <path d="M125.762441,61.4750897 C123.645186,65.5948138 119.38709,68.4432414 114.425338,68.4432414 C107.364414,68.4432414 101.646331,62.7172966 101.646331,55.6524414 C101.646331,48.5757931 107.364414,42.8655724 114.425338,42.8655724 C119.38709,42.8655724 123.645186,45.7108552 125.762441,49.8329379 L137.977738,49.8329379 C135.358097,39.2435172 125.829269,31.3641517 114.425338,31.3641517 C101.012648,31.3641517 90.1582759,42.2436828 90.1582759,55.6524414 C90.1582759,69.0667034 101.012648,79.9360138 114.425338,79.9360138 C125.829269,79.9360138 135.358097,72.0652966 137.977738,61.4750897 L125.762441,61.4750897" id="Fill-7" fill="#00BF51"></path>
                    <path d="M12.543931,108.022469 L17.2391586,108.022469 C22.0696138,108.022469 25.4392966,104.338303 25.4392966,99.5754621 C25.4392966,94.7450069 22.1592414,91.0836414 17.2619586,91.0836414 L12.543931,91.0836414 L12.543931,108.022469 L12.543931,108.022469 Z M15.8467862,93.9588 L16.3861241,93.9588 C20.1379034,93.9588 22.0248,95.8684966 22.0248,99.5534483 C22.0248,102.900331 20.4523862,105.14731 16.3861241,105.14731 L15.8467862,105.14731 L15.8467862,93.9588 L15.8467862,93.9588 Z M32.2824414,96.6326897 C28.8451448,96.6326897 26.4865241,99.0809379 26.4865241,102.518234 C26.4865241,105.933517 28.823131,108.382552 32.2824414,108.382552 C35.7425379,108.382552 38.0791448,105.933517 38.0791448,102.518234 C38.0791448,99.0809379 35.7197379,96.6326897 32.2824414,96.6326897 L32.2824414,96.6326897 L32.2824414,96.6326897 Z M32.2824414,99.4182207 C33.9004552,99.4182207 34.8887172,100.990634 34.8887172,102.518234 C34.8887172,104.001021 33.9004552,105.596234 32.2824414,105.596234 C30.6652138,105.596234 29.6769517,104.001021 29.6769517,102.518234 C29.6769517,100.990634 30.6652138,99.4182207 32.2824414,99.4182207 L32.2824414,99.4182207 L32.2824414,99.4182207 Z M39.7545517,102.114124 L45.2359862,102.114124 L45.2359862,99.5306483 L39.7545517,99.5306483 L39.7545517,102.114124 L39.7545517,102.114124 Z M58.0550897,96.9919862 L54.9102621,96.9919862 L54.9102621,98.0478621 L54.8654483,98.0478621 C54.2356966,97.1940414 53.1129931,96.6326897 52.0115172,96.6326897 C48.7314621,96.6326897 46.8893793,99.5534483 46.8893793,102.585848 C46.8893793,105.551421 48.6198207,108.382552 51.8542759,108.382552 C53.0225793,108.382552 54.1908828,107.820414 54.8654483,106.921779 L54.9102621,106.921779 L54.9102621,107.641159 C54.9102621,109.3032 54.8654483,111.25771 52.641269,111.25771 C51.4501655,111.25771 50.6191448,110.494303 50.4619034,109.326 L47.1370345,109.326 C47.2942759,112.268772 50.0121931,113.9088 52.7080966,113.9088 C56.8419724,113.9088 58.0550897,110.943228 58.0550897,107.34869 L58.0550897,96.9919862 L58.0550897,96.9919862 Z M52.6860828,105.596234 C51.068069,105.596234 50.0798069,104.001021 50.0798069,102.518234 C50.0798069,101.035448 51.068069,99.4182207 52.6860828,99.4182207 C54.3033103,99.4182207 55.2915724,101.035448 55.2915724,102.518234 C55.2915724,104.001021 54.3033103,105.596234 52.6860828,105.596234 L52.6860828,105.596234 L52.6860828,105.596234 Z M65.5680828,96.6326897 C62.1307862,96.6326897 59.7713793,99.0809379 59.7713793,102.518234 C59.7713793,105.933517 62.1079862,108.382552 65.5680828,108.382552 C69.0273931,108.382552 71.364,105.933517 71.364,102.518234 C71.364,99.0809379 69.0053793,96.6326897 65.5680828,96.6326897 L65.5680828,96.6326897 L65.5680828,96.6326897 Z M65.5680828,99.4182207 C67.1853103,99.4182207 68.1735724,100.990634 68.1735724,102.518234 C68.1735724,104.001021 67.1853103,105.596234 65.5680828,105.596234 C63.950069,105.596234 62.9618069,104.001021 62.9618069,102.518234 C62.9618069,100.990634 63.950069,99.4182207 65.5680828,99.4182207 L65.5680828,99.4182207 L65.5680828,99.4182207 Z M78.2433103,96.6326897 C74.8052276,96.6326897 72.4466069,99.0809379 72.4466069,102.518234 C72.4466069,105.933517 74.7832138,108.382552 78.2433103,108.382552 C81.7026207,108.382552 84.0392276,105.933517 84.0392276,102.518234 C84.0392276,99.0809379 81.6806069,96.6326897 78.2433103,96.6326897 L78.2433103,96.6326897 L78.2433103,96.6326897 Z M78.2433103,99.4182207 C79.8605379,99.4182207 80.8488,100.990634 80.8488,102.518234 C80.8488,104.001021 79.8605379,105.596234 78.2433103,105.596234 C76.6252966,105.596234 75.6370345,104.001021 75.6370345,102.518234 C75.6370345,100.990634 76.6252966,99.4182207 78.2433103,99.4182207 L78.2433103,99.4182207 L78.2433103,99.4182207 Z M93.1985379,108.022469 L96.3433655,108.022469 L96.3433655,88.9718897 L93.1985379,88.9718897 L93.1985379,98.0030483 L93.1537241,98.0030483 C92.4571448,97.1264276 91.2888414,96.6326897 90.1433379,96.6326897 C86.9749241,96.6326897 85.1108276,99.5306483 85.1108276,102.451407 C85.1108276,105.438993 86.9529103,108.382552 90.1881517,108.382552 C91.3336552,108.382552 92.5019586,107.888028 93.1537241,106.989393 L93.1985379,106.989393 L93.1985379,108.022469 L93.1985379,108.022469 Z M90.9067448,105.596234 C89.2895172,105.596234 88.300469,103.979007 88.300469,102.496221 C88.300469,101.013434 89.2895172,99.4182207 90.9067448,99.4182207 C92.5239724,99.4182207 93.5130207,101.013434 93.5130207,102.496221 C93.5130207,103.979007 92.5239724,105.596234 90.9067448,105.596234 L90.9067448,105.596234 L90.9067448,105.596234 Z M115.776041,103.012759 L115.776041,102.630662 C115.776041,99.3057931 114.158814,96.6326897 110.541476,96.6326897 C106.969738,96.6326897 105.194483,99.2609793 105.194483,102.608648 C105.194483,105.955531 107.284221,108.382552 110.698717,108.382552 C113.012524,108.382552 114.945021,107.146634 115.708428,104.945255 L112.810469,104.473531 C112.383559,105.349366 111.732579,105.978331 110.698717,105.978331 C109.05869,105.978331 108.519352,104.405917 108.519352,103.012759 L115.776041,103.012759 L115.776041,103.012759 Z M108.609766,101.058248 C108.767007,99.9127448 109.4628,98.834069 110.721517,98.834069 C111.934634,98.834069 112.653228,99.9347586 112.810469,101.058248 L108.609766,101.058248 L108.609766,101.058248 Z M120.662317,96.9919862 L117.516703,96.9919862 L117.516703,108.022469 L120.662317,108.022469 L120.662317,102.563834 C120.662317,101.23829 120.685117,99.1485517 122.549214,99.1485517 C124.324469,99.1485517 124.256855,100.856193 124.256855,102.181738 L124.256855,108.022469 L127.402469,108.022469 L127.402469,101.283103 C127.402469,98.7216414 126.548648,96.6326897 123.583076,96.6326897 C122.459586,96.6326897 121.358897,97.0147862 120.707131,98.0030483 L120.662317,98.0030483 L120.662317,96.9919862 L120.662317,96.9919862 Z M140.272676,96.9919862 L137.127848,96.9919862 L137.127848,98.0478621 L137.082248,98.0478621 C136.453283,97.1940414 135.330579,96.6326897 134.229103,96.6326897 C130.949048,96.6326897 129.106966,99.5534483 129.106966,102.585848 C129.106966,105.551421 130.837407,108.382552 134.071862,108.382552 C135.240166,108.382552 136.408469,107.820414 137.082248,106.921779 L137.127848,106.921779 L137.127848,107.641159 C137.127848,109.3032 137.082248,111.25771 134.858855,111.25771 C133.667752,111.25771 132.836731,110.494303 132.67949,109.326 L129.354621,109.326 C129.511862,112.268772 132.229779,113.9088 134.925683,113.9088 C139.059559,113.9088 140.272676,110.943228 140.272676,107.34869 L140.272676,96.9919862 L140.272676,96.9919862 Z M134.903669,105.596234 C133.285655,105.596234 132.297393,104.001021 132.297393,102.518234 C132.297393,101.035448 133.285655,99.4182207 134.903669,99.4182207 C136.520897,99.4182207 137.509159,101.035448 137.509159,102.518234 C137.509159,104.001021 136.520897,105.596234 134.903669,105.596234 L134.903669,105.596234 L134.903669,105.596234 Z M153.224648,96.9919862 L150.123848,96.9919862 L150.123848,98.0250621 C149.360441,97.1264276 148.192138,96.6326897 147.046634,96.6326897 C143.878221,96.6326897 142.014124,99.5306483 142.014124,102.451407 C142.014124,105.438993 143.856207,108.382552 147.091448,108.382552 C148.236952,108.382552 149.405255,107.888028 150.079034,107.012193 L150.123848,107.012193 L150.123848,108.022469 L153.224648,108.022469 L153.224648,96.9919862 L153.224648,96.9919862 Z M147.810041,105.596234 C146.192814,105.596234 145.203766,103.979007 145.203766,102.496221 C145.203766,101.013434 146.192814,99.4182207 147.810041,99.4182207 C149.427269,99.4182207 150.438331,101.013434 150.438331,102.496221 C150.438331,103.979007 149.427269,105.596234 147.810041,105.596234 L147.810041,105.596234 L147.810041,105.596234 Z M166.142028,96.9919862 L162.9972,96.9919862 L162.9972,98.0478621 L162.9516,98.0478621 C162.322634,97.1940414 161.199931,96.6326897 160.098455,96.6326897 C156.8184,96.6326897 154.976317,99.5534483 154.976317,102.585848 C154.976317,105.551421 156.705972,108.382552 159.941214,108.382552 C161.109517,108.382552 162.277821,107.820414 162.9516,106.921779 L162.9972,106.921779 L162.9972,107.641159 C162.9972,109.3032 162.9516,111.25771 160.727421,111.25771 C159.537103,111.25771 158.706083,110.494303 158.548841,109.326 L155.223972,109.326 C155.381214,112.268772 158.099131,113.9088 160.795034,113.9088 C164.92891,113.9088 166.142028,110.943228 166.142028,107.34869 L166.142028,96.9919862 L166.142028,96.9919862 Z M160.773021,105.596234 C159.155007,105.596234 158.166745,104.001021 158.166745,102.518234 C158.166745,101.035448 159.155007,99.4182207 160.773021,99.4182207 C162.390248,99.4182207 163.37851,101.035448 163.37851,102.518234 C163.37851,104.001021 162.390248,105.596234 160.773021,105.596234 L160.773021,105.596234 L160.773021,105.596234 Z M178.465034,103.012759 L178.465034,102.630662 C178.465034,99.3057931 176.847021,96.6326897 173.230469,96.6326897 C169.657945,96.6326897 167.883476,99.2609793 167.883476,102.608648 C167.883476,105.955531 169.972428,108.382552 173.38771,108.382552 C175.701517,108.382552 177.633228,107.146634 178.397421,104.945255 L175.499462,104.473531 C175.072552,105.349366 174.420786,105.978331 173.38771,105.978331 C171.747683,105.978331 171.208345,104.405917 171.208345,103.012759 L178.465034,103.012759 L178.465034,103.012759 Z M171.297972,101.058248 C171.455214,99.9127448 172.151793,98.834069 173.409724,98.834069 C174.622841,98.834069 175.342221,99.9347586 175.499462,101.058248 L171.297972,101.058248 L171.297972,101.058248 Z M183.350524,96.9919862 L180.205697,96.9919862 L180.205697,108.022469 L183.350524,108.022469 L183.350524,102.608648 C183.350524,101.440345 183.260897,99.1485517 185.013352,99.1485517 C186.653379,99.1485517 186.518938,101.350717 186.518938,102.428607 L186.518938,108.022469 L189.663766,108.022469 L189.663766,102.608648 C189.663766,101.462359 189.641752,99.1485517 191.348607,99.1485517 C192.899007,99.1485517 192.831393,101.147876 192.831393,102.226552 L192.831393,108.022469 L195.977007,108.022469 L195.977007,101.147876 C195.977007,98.7444414 195.280428,96.6326897 192.472097,96.6326897 C191.191366,96.6326897 189.933434,97.283669 189.259655,98.3623448 C188.540276,97.1940414 187.462386,96.6326897 186.092028,96.6326897 C185.080966,96.6326897 184.00229,97.1044138 183.396124,97.9802483 L183.350524,97.9802483 L183.350524,96.9919862 L183.350524,96.9919862 Z M208.288221,103.012759 L208.288221,102.630662 C208.288221,99.3057931 206.670207,96.6326897 203.053655,96.6326897 C199.481131,96.6326897 197.706662,99.2609793 197.706662,102.608648 C197.706662,105.955531 199.795614,108.382552 203.210897,108.382552 C205.524703,108.382552 207.456414,107.146634 208.220607,104.945255 L205.322648,104.473531 C204.895738,105.349366 204.243972,105.978331 203.210897,105.978331 C201.570869,105.978331 201.031531,104.405917 201.031531,103.012759 L208.288221,103.012759 L208.288221,103.012759 Z M201.121159,101.058248 C201.2784,99.9127448 201.974979,98.834069 203.23291,98.834069 C204.446028,98.834069 205.165407,99.9347586 205.322648,101.058248 L201.121159,101.058248 L201.121159,101.058248 Z M213.17371,96.9919862 L210.028883,96.9919862 L210.028883,108.022469 L213.17371,108.022469 L213.17371,102.563834 C213.17371,101.23829 213.19651,99.1485517 215.061393,99.1485517 C216.835862,99.1485517 216.769034,100.856193 216.769034,102.181738 L216.769034,108.022469 L219.913862,108.022469 L219.913862,101.283103 C219.913862,98.7216414 219.060041,96.6326897 216.094469,96.6326897 C214.970979,96.6326897 213.87029,97.0147862 213.21931,98.0030483 L213.17371,98.0030483 L213.17371,96.9919862 L213.17371,96.9919862 Z M225.721572,99.6430759 L227.653283,99.6430759 L227.653283,96.9919862 L225.721572,96.9919862 L225.721572,93.2622207 L222.575959,93.2622207 L222.575959,96.9919862 L221.497283,96.9919862 L221.497283,99.6430759 L222.575959,99.6430759 L222.575959,108.022469 L225.721572,108.022469 L225.721572,99.6430759 L225.721572,99.6430759 Z" id="Fill-8" fill="#2C2C2B"></path>
                </g>
            </g>
        </g>
    </g>
</svg>