<?xml version="1.0" encoding="UTF-8" standalone="no"?>
<svg width="39px" height="39px" viewBox="0 0 39 39" version="1.1" xmlns="http://www.w3.org/2000/svg" xmlns:xlink="http://www.w3.org/1999/xlink" xmlns:sketch="http://www.bohemiancoding.com/sketch/ns">
    <!-- Generator: Sketch Beta 3.1 (8715) - http://www.bohemiancoding.com/sketch -->
    <title>Imported Layers</title>
    <desc>Created with Sketch Beta.</desc>
    <defs></defs>
    <g id="1%Cub-|-Business" stroke="none" stroke-width="1" fill="none" fill-rule="evenodd" sketch:type="MSPage">
        <g id="Desktop" sketch:type="MSArtboardGroup" transform="translate(-728.000000, -497.000000)" fill="#D8D8D8">
            <g id="Zo-werkt-het" sketch:type="MSLayerGroup" transform="translate(138.000000, 483.000000)">
                <g id="Nav" transform="translate(262.000000, 0.000000)" sketch:type="MSShapeGroup">
                    <g id="Group" transform="translate(22.000000, 14.000000)">
                        <g id="Updates" transform="translate(278.000000, 0.235294)">
                            <path d="M47.0695067,0 C36.5383716,0 28,8.53358824 28,19.0588235 C28,29.5840588 36.5383716,38.1176471 47.0695067,38.1176471 C57.6006418,38.1176471 66.1390135,29.5840588 66.1390135,19.0588235 C66.1390135,8.53358824 57.6006418,0 47.0695067,0 L47.0695067,0 Z M32.7673767,19.0588235 C32.7673767,15.1303235 34.3620642,11.5639412 36.9388313,8.97908824 C36.9435987,13.7080588 37.5419044,15.4948235 39.9184417,17.8676471 C42.30213,20.25 45.8776626,24.4191176 45.8776626,29.1838235 C45.8776626,31.2779118 46.4521314,32.7573529 47.098111,33.3529412 L47.0695067,33.3529412 C39.181882,33.3529412 32.7673767,26.9420294 32.7673767,19.0588235 L32.7673767,19.0588235 Z M52.1896693,32.4023824 C54.0775504,30.2368235 56.3039154,26.7967059 54.8164938,23.8235294 C52.4328055,19.0588235 44.0898963,22.6323529 44.0898963,17.8676471 C44.0898963,13.1029412 51.8368834,19.0588235 51.8368834,9.52941176 C51.8368834,6.10120588 49.0980255,5.00770588 46.2447506,4.79091176 C46.5188747,4.77423529 46.7929989,4.76470588 47.0695067,4.76470588 C54.9571314,4.76470588 61.3716368,11.1756176 61.3716368,19.0588235 C61.3716368,25.1362059 57.552968,30.3368824 52.1896693,32.4023824 L52.1896693,32.4023824 Z" id="Imported-Layers"></path>
                        </g>
                    </g>
                </g>
            </g>
        </g>
    </g>
</svg>