<?xml version="1.0" encoding="UTF-8" standalone="no"?>
<svg width="71px" height="41px" viewBox="0 0 71 41" version="1.1" xmlns="http://www.w3.org/2000/svg" xmlns:xlink="http://www.w3.org/1999/xlink" xmlns:sketch="http://www.bohemiancoding.com/sketch/ns">
    <!-- Generator: Sketch Beta 3.1 (8715) - http://www.bohemiancoding.com/sketch -->
    <title>Group + Group 2 + Group 2</title>
    <desc>Created with Sketch Beta.</desc>
    <defs></defs>
    <g id="1%Cub-|-Business" stroke="none" stroke-width="1" fill="none" fill-rule="evenodd" sketch:type="MSPage">
        <g id="Desktop" sketch:type="MSArtboardGroup" transform="translate(-569.000000, -497.000000)" fill="#00C051">
            <g id="Zo-werkt-het" sketch:type="MSLayerGroup" transform="translate(138.000000, 483.000000)">
                <g id="Nav" transform="translate(262.000000, 0.000000)" sketch:type="MSShapeGroup">
                    <g id="Group" transform="translate(22.000000, 14.000000)">
                        <g transform="translate(137.000000, 0.000000)" id="Group-+-Group-2-+-Group-2">
                            <g transform="translate(10.000000, 0.000000)">
                                <g id="Group" transform="translate(22.358744, 0.487939)">
                                    <path d="M20.5518258,22.0618167 L20.5518258,39.7023587 L26.4390961,39.7023587 L26.4390961,22.9448181 C24.3889913,22.5530567 22.4238385,22.2669274 20.5518258,22.0618167" id="Fill-186"></path>
                                    <path d="M-0.110748524,22.0618167 L-0.110748524,39.7023587 L5.7765218,39.7023587 L5.7765218,22.9448181 C3.72641706,22.5530567 1.76126424,22.2669274 -0.110748524,22.0618167" id="Fill-187" transform="translate(2.832887, 30.882088) scale(-1, 1) translate(-2.832887, -30.882088) "></path>
                                    <path d="M13.2379217,15.4530368 C16.1252634,15.4530368 18.4650235,13.1075965 18.4650235,10.2145107 C18.4650235,7.32245042 16.1252634,4.97495896 13.2379217,4.97495896 C10.3516035,4.97495896 8.00979635,7.32245042 8.00979635,10.2145107 C8.00979635,13.1075965 10.3516035,15.4530368 13.2379217,15.4530368 M13.2379217,0 C18.8672657,0 23.4331754,4.57294208 23.4331754,10.2145107 C23.4331754,15.8560793 18.8672657,20.4279958 13.2379217,20.4279958 C7.60857765,20.4279958 3.04471493,15.8560793 3.04471493,10.2145107 C3.04471493,4.57294208 7.60857765,0 13.2379217,0" id="Fill-188"></path>
                                    <path d="M6.85060858,39.7023587 L19.477739,39.7023587 L19.477739,21.6192034 C14.4062118,21.1367632 10.0961813,21.2704263 6.85060858,21.5753452 L6.85060858,39.7023587" id="Fill-184"></path>
                                </g>
                                <g id="Group-2" transform="translate(55.442917, 12.689208)">
                                    <path d="M12.0303493,12.9142474 L12.0303493,23.2404289 L15.4765599,23.2404289 L15.4765599,13.4311268 C14.2764973,13.2018028 13.1261628,13.0343123 12.0303493,12.9142474" id="Fill-186"></path>
                                    <path d="M-0.0648284708,12.9142474 L-0.0648284708,23.2404289 L3.38138207,23.2404289 L3.38138207,13.4311268 C2.18131954,13.2018028 1.030985,13.0343123 -0.0648284708,12.9142474" id="Fill-187" transform="translate(1.658277, 18.077338) scale(-1, 1) translate(-1.658277, -18.077338) "></path>
                                    <path d="M7.74903524,9.04568935 C9.43918822,9.04568935 10.8088053,7.67274725 10.8088053,5.97923188 C10.8088053,4.28631683 9.43918822,2.91217408 7.74903524,2.91217408 C6.0594814,2.91217408 4.68866607,4.28631683 4.68866607,5.97923188 C4.68866607,7.67274725 6.0594814,9.04568935 7.74903524,9.04568935 M7.74903524,0 C11.0442644,0 13.7169948,2.67684688 13.7169948,5.97923188 C13.7169948,9.28161687 11.0442644,11.9578634 7.74903524,11.9578634 C4.45380611,11.9578634 1.78227398,9.28161687 1.78227398,5.97923188 C1.78227398,2.67684688 4.45380611,0 7.74903524,0" id="Fill-188"></path>
                                    <path d="M4.01011645,23.2404289 L11.401615,23.2404289 L11.401615,12.6551564 C8.43291308,12.3727521 5.90996583,12.450994 4.01011645,12.6294833 L4.01011645,23.2404289" id="Fill-184"></path>
                                </g>
                                <g id="Group-2" transform="translate(0.320930, 12.689208)">
                                    <path d="M12.0303493,12.9142474 L12.0303493,23.2404289 L15.4765599,23.2404289 L15.4765599,13.4311268 C14.2764973,13.2018028 13.1261628,13.0343123 12.0303493,12.9142474" id="Fill-186"></path>
                                    <path d="M-0.0648284708,12.9142474 L-0.0648284708,23.2404289 L3.38138207,23.2404289 L3.38138207,13.4311268 C2.18131954,13.2018028 1.030985,13.0343123 -0.0648284708,12.9142474" id="Fill-187" transform="translate(1.658277, 18.077338) scale(-1, 1) translate(-1.658277, -18.077338) "></path>
                                    <path d="M7.74903524,9.04568935 C9.43918822,9.04568935 10.8088053,7.67274725 10.8088053,5.97923188 C10.8088053,4.28631683 9.43918822,2.91217408 7.74903524,2.91217408 C6.0594814,2.91217408 4.68866607,4.28631683 4.68866607,5.97923188 C4.68866607,7.67274725 6.0594814,9.04568935 7.74903524,9.04568935 M7.74903524,0 C11.0442644,0 13.7169948,2.67684688 13.7169948,5.97923188 C13.7169948,9.28161687 11.0442644,11.9578634 7.74903524,11.9578634 C4.45380611,11.9578634 1.78227398,9.28161687 1.78227398,5.97923188 C1.78227398,2.67684688 4.45380611,0 7.74903524,0" id="Fill-188"></path>
                                    <path d="M4.01011645,23.2404289 L11.401615,23.2404289 L11.401615,12.6551564 C8.43291308,12.3727521 5.90996583,12.450994 4.01011645,12.6294833 L4.01011645,23.2404289" id="Fill-184"></path>
                                </g>
                            </g>
                        </g>
                    </g>
                </g>
            </g>
        </g>
    </g>
</svg>