<?xml version="1.0" encoding="UTF-8" standalone="no"?>
<svg width="38px" height="38px" viewBox="0 0 38 38" version="1.1" xmlns="http://www.w3.org/2000/svg" xmlns:xlink="http://www.w3.org/1999/xlink" xmlns:sketch="http://www.bohemiancoding.com/sketch/ns">
    <!-- Generator: Sketch Beta 3.1 (8715) - http://www.bohemiancoding.com/sketch -->
    <title>Imported Layers</title>
    <desc>Created with Sketch Beta.</desc>
    <defs></defs>
    <g id="1%Cub-|-Business" stroke="none" stroke-width="1" fill="none" fill-rule="evenodd" sketch:type="MSPage">
        <g id="Desktop" sketch:type="MSArtboardGroup" transform="translate(-444.000000, -499.000000)" fill="#00C051">
            <g id="Zo-werkt-het" sketch:type="MSLayerGroup" transform="translate(138.000000, 483.000000)">
                <g id="Nav" transform="translate(262.000000, 0.000000)" sketch:type="MSShapeGroup">
                    <g id="Group" transform="translate(22.000000, 14.000000)">
                        <g id="Tools-+-Imported-Layers" transform="translate(0.403587, 2.776471)">
                            <path d="M56.6875,6.9375 L42.8125,6.9375 L42.8125,2.3125 C42.8125,1.0336875 41.7788125,0 40.5,0 L24.3125,0 C23.0336875,0 22,1.0336875 22,2.3125 L22,34.6875 C22,35.9663125 23.0336875,37 24.3125,37 L56.6875,37 C57.9663125,37 59,35.9663125 59,34.6875 L59,9.25 C59,7.9711875 57.9663125,6.9375 56.6875,6.9375 L56.6875,6.9375 Z M26.625,18.5 L31.25,18.5 L31.25,23.125 L26.625,23.125 L26.625,18.5 Z M26.625,11.5625 L31.25,11.5625 L31.25,16.1875 L26.625,16.1875 L26.625,11.5625 Z M26.625,4.625 L31.25,4.625 L31.25,9.25 L26.625,9.25 L26.625,4.625 Z M33.5625,18.5 L38.1875,18.5 L38.1875,23.125 L33.5625,23.125 L33.5625,18.5 Z M33.5625,11.5625 L38.1875,11.5625 L38.1875,16.1875 L33.5625,16.1875 L33.5625,11.5625 Z M33.5625,4.625 L38.1875,4.625 L38.1875,9.25 L33.5625,9.25 L33.5625,4.625 Z M42.8125,18.5 L47.4375,18.5 L47.4375,23.125 L42.8125,23.125 L42.8125,18.5 Z M42.8125,11.5625 L47.4375,11.5625 L47.4375,16.1875 L42.8125,16.1875 L42.8125,11.5625 Z M49.75,18.5 L54.375,18.5 L54.375,23.125 L49.75,23.125 L49.75,18.5 Z M49.75,11.5625 L54.375,11.5625 L54.375,16.1875 L49.75,16.1875 L49.75,11.5625 Z" id="Imported-Layers"></path>
                        </g>
                    </g>
                </g>
            </g>
        </g>
    </g>
</svg>