<?xml version="1.0" encoding="UTF-8" standalone="no"?>
<svg width="42px" height="171px" viewBox="0 0 42 171" version="1.1" xmlns="http://www.w3.org/2000/svg" xmlns:xlink="http://www.w3.org/1999/xlink" xmlns:sketch="http://www.bohemiancoding.com/sketch/ns">
    <!-- Generator: Sketch Beta 3.1 (8715) - http://www.bohemiancoding.com/sketch -->
    <title>Group</title>
    <desc>Created with Sketch Beta.</desc>
    <defs></defs>
    <g id="1%Cub-|-Business" stroke="none" stroke-width="1" fill="none" fill-rule="evenodd" sketch:type="MSPage">
        <g id="Desktop" sketch:type="MSArtboardGroup" transform="translate(-1049.000000, -711.000000)" fill="#B2B2B2">
            <g id="Zo-werkt-het" sketch:type="MSLayerGroup" transform="translate(138.000000, 483.000000)">
                <g id="Model" transform="translate(559.000000, 139.000000)" sketch:type="MSShapeGroup">
                    <g id="Imported-Layers" transform="translate(63.000000, 27.000000)">
                        <g id="Group" transform="translate(289.000000, 63.000000)">
                            <path d="M6.635,3.881 C6.796,3.255 6.672,2.578 6.299,2.069 C5.467,0.933 3.939,1.047 2.89,1.815 C1.865,2.565 1.338,3.994 2.146,5.099 C2.519,5.607 3.158,5.92 3.779,5.973 L2.368,7.007 C1.832,6.717 1.354,6.385 0.994,5.894 C-0.258,4.184 0.289,1.836 1.968,0.607 C3.694,-0.657 6.111,-0.557 7.416,1.226 C7.766,1.703 7.979,2.265 8.055,2.841 L6.635,3.881" id="Fill-20"></path>
                            <path d="M5.559,12.102 L4.555,10.633 L6.031,7.408 L6.019,7.392 L3.512,9.106 L2.683,7.894 L8.904,3.64 L10.027,5.283 C10.867,6.512 10.902,7.734 9.574,8.642 C8.783,9.184 7.691,9.288 6.982,8.55 L5.559,12.102 L5.559,12.102 Z M6.869,6.81 L6.977,6.967 C7.434,7.636 7.953,7.971 8.713,7.452 C9.48,6.927 9.295,6.339 8.855,5.696 L8.743,5.53 L6.869,6.81 L6.869,6.81 Z" id="Fill-21"></path>
                            <path d="M7.416,15.408 C6.193,13.459 6.922,11.312 8.803,10.131 C10.699,8.94 12.944,9.279 14.141,11.185 C15.338,13.09 14.668,15.258 12.769,16.45 C10.891,17.63 8.639,17.356 7.416,15.408 L7.416,15.408 Z M12.912,11.956 C12.173,10.778 10.695,10.738 9.662,11.387 C8.68,12.004 7.777,13.256 8.644,14.636 C9.511,16.017 11.03,15.747 12.013,15.131 C13.047,14.482 13.651,13.133 12.912,11.956 L12.912,11.956 Z" id="Fill-22"></path>
                            <path d="M13.162,19.921 L13.173,19.939 L18.477,18.698 L18.9,19.458 L15.085,23.37 L15.095,23.388 L20.303,22.178 L21.053,23.523 L13.098,25.04 L12.571,24.096 L16.146,20.387 L16.137,20.37 L11.141,21.529 L10.615,20.585 L16.161,14.748 L16.91,16.093 L13.162,19.921" id="Fill-23"></path>
                            <path d="M21.331,24.148 L22.268,26.026 C23.238,27.977 22.43,30.011 20.506,30.969 C18.609,31.914 16.473,31.303 15.516,29.379 L14.582,27.508 L21.331,24.148 L21.331,24.148 Z M16.383,28.253 L16.49,28.468 C17.297,30.088 18.504,30.268 19.838,29.604 C21.305,28.873 21.691,27.743 20.947,26.248 L20.841,26.034 L16.383,28.253 L16.383,28.253 Z" id="Fill-24"></path>
                            <path d="M23.721,31.996 L22.213,32.688 L23.1,34.625 L21.935,35.158 L21.049,33.221 L18.029,34.604 L17.418,33.269 L24.273,30.126 L25.832,33.527 L24.668,34.06 L23.721,31.996" id="Fill-25"></path>
                            <path d="M26.26,34.469 L26.827,35.825 L22.935,37.456 C22.078,37.815 20.9,38.395 21.383,39.549 C21.867,40.701 23.105,40.27 23.963,39.909 L27.856,38.278 L28.424,39.633 L24.264,41.377 C22.567,42.089 20.984,41.907 20.203,40.044 C19.422,38.181 20.402,36.923 22.1,36.212 L26.26,34.469" id="Fill-26"></path>
                            <path d="M29.095,40.76 L29.465,41.753 L25.914,47.31 L25.921,47.328 L30.67,45.559 L31.182,46.935 L23.981,49.62 L23.61,48.627 L27.16,43.07 L27.154,43.051 L22.358,44.838 L21.846,43.461 L29.095,40.76" id="Fill-27"></path>
                            <path d="M31.609,48.173 L32.264,50.17 C32.941,52.243 31.847,54.138 29.803,54.807 C27.786,55.467 25.76,54.552 25.092,52.508 L24.441,50.52 L31.609,48.173 L31.609,48.173 Z M26.115,51.52 L26.19,51.748 C26.753,53.468 27.922,53.823 29.339,53.359 C30.898,52.849 31.445,51.786 30.926,50.197 L30.851,49.969 L26.115,51.52 L26.115,51.52 Z" id="Fill-28"></path>
                            <path d="M26.82,58.046 L26.398,56.638 L33.626,54.477 L34.047,55.886 L26.82,58.046" id="Fill-29"></path>
                            <path d="M34.608,57.019 L34.881,58.044 L30.81,63.236 L30.815,63.255 L35.715,61.95 L36.093,63.371 L28.662,65.351 L28.39,64.326 L32.46,59.133 L32.455,59.114 L27.508,60.432 L27.129,59.012 L34.608,57.019" id="Fill-30"></path>
                            <path d="M34.4,71.938 L34.215,71.979 C32.135,72.438 30.055,71.781 29.551,69.497 C29.078,67.349 30.594,65.591 32.625,65.143 C34.723,64.68 36.838,65.677 37.322,67.874 C37.598,69.123 37.204,70.357 36.206,71.17 L35.243,70.053 C35.842,69.613 36.211,68.877 36.044,68.115 C35.738,66.729 34.172,66.358 32.951,66.627 C31.73,66.896 30.527,67.889 30.833,69.274 C31.031,70.173 31.978,70.752 32.873,70.586 L32.528,69.024 L33.699,68.765 L34.4,71.938" id="Fill-31"></path>
                            <path d="M32.546,80.237 C31.914,79.711 31.39,79.096 31.255,78.257 C31.052,77.004 31.82,75.926 33.074,75.725 C33.904,75.591 34.621,75.891 35.184,76.488 L35.56,76.884 C35.989,76.46 36.441,76.123 37.043,76.026 C38.149,75.848 39.023,76.558 39.195,77.624 C39.369,78.7 38.783,79.646 37.666,79.826 C36.848,79.958 36.189,79.457 35.672,78.892 L34.506,80.143 L35.586,80.739 L34.875,81.796 L33.669,81.17 L32.178,82.728 L31.893,80.96 L32.546,80.237 L32.546,80.237 Z M34.769,77.811 C34.408,77.464 33.981,77.078 33.437,77.166 C32.965,77.242 32.505,77.721 32.584,78.215 C32.657,78.669 33.059,78.958 33.404,79.217 L34.769,77.811 L34.769,77.811 Z M36.413,78.083 L36.66,78.296 C36.919,78.518 37.182,78.638 37.537,78.58 C37.883,78.524 38.236,78.266 38.174,77.88 C38.109,77.485 37.738,77.322 37.383,77.379 C37.185,77.412 37.008,77.501 36.859,77.647 L36.413,78.083 L36.413,78.083 Z" id="Fill-32"></path>
                            <path d="M38.619,90.391 C39.072,89.93 39.306,89.283 39.238,88.656 C39.09,87.253 37.713,86.585 36.42,86.723 C35.158,86.856 33.983,87.826 34.128,89.189 C34.194,89.814 34.589,90.406 35.1,90.763 L33.359,90.949 C33.043,90.429 32.796,89.902 32.732,89.296 C32.509,87.188 34.162,85.435 36.23,85.214 C38.357,84.989 40.396,86.291 40.629,88.488 C40.691,89.075 40.594,89.669 40.369,90.205 L38.619,90.391" id="Fill-33"></path>
                            <path d="M33.564,96.983 L33.434,95.209 L36.329,93.164 L36.328,93.144 L33.299,93.365 L33.191,91.9 L40.705,91.35 L40.851,93.333 C40.959,94.817 40.377,95.892 38.771,96.01 C37.815,96.081 36.82,95.622 36.576,94.628 L33.564,96.983 L33.564,96.983 Z M37.354,93.068 L37.368,93.258 C37.428,94.065 37.708,94.615 38.625,94.548 C39.551,94.48 39.688,93.879 39.631,93.102 L39.616,92.902 L37.354,93.068 L37.354,93.068 Z" id="Fill-34"></path>
                            <path d="M33.51,100.763 C33.431,98.466 35.141,96.977 37.357,96.901 C39.596,96.824 41.364,98.244 41.441,100.491 C41.519,102.739 39.852,104.276 37.613,104.353 C35.396,104.429 33.588,103.061 33.51,100.763 L33.51,100.763 Z M39.993,100.541 C39.945,99.152 38.687,98.375 37.469,98.417 C36.31,98.457 34.902,99.085 34.959,100.713 C35.014,102.342 36.462,102.872 37.621,102.833 C38.84,102.791 40.041,101.93 39.993,100.541 L39.993,100.541 Z" id="Fill-35"></path>
                            <path d="M36.225,107.549 L36.225,107.569 L41.437,109.148 L41.424,110.017 L36.162,111.496 L36.163,111.516 L41.276,113.073 L41.252,114.612 L33.607,111.946 L33.624,110.867 L38.574,109.444 L38.574,109.424 L33.67,107.929 L33.685,106.85 L41.406,104.57 L41.383,106.109 L36.225,107.549" id="Fill-36"></path>
                            <path d="M41.178,115.297 L41.048,117.394 C40.913,119.57 39.195,120.927 37.048,120.794 C34.932,120.663 33.387,119.065 33.519,116.918 L33.648,114.831 L41.178,115.297 L41.178,115.297 Z M34.836,116.378 L34.821,116.617 C34.709,118.425 35.664,119.185 37.152,119.278 C38.789,119.378 39.69,118.593 39.793,116.925 L39.809,116.686 L34.836,116.378 L34.836,116.378 Z" id="Fill-37"></path>
                            <path d="M38.738,125.329 C39.144,125.086 39.416,124.751 39.463,124.263 C39.508,123.795 39.193,123.313 38.705,123.266 C37.441,123.146 37.684,126.172 35.166,125.931 C33.662,125.787 32.687,124.751 32.834,123.217 C32.932,122.182 33.602,121.483 34.518,121.047 L35.353,122.082 C34.757,122.226 34.188,122.704 34.128,123.331 C34.07,123.928 34.543,124.345 35.121,124.4 C35.898,124.475 36.185,123.779 36.471,123.214 C36.961,122.286 37.516,121.625 38.68,121.737 C39.924,121.856 40.842,122.878 40.721,124.142 C40.657,124.81 40.24,125.704 39.688,126.113 L38.738,125.329" id="Fill-38"></path>
                            <path d="M32.092,129.717 C32.394,127.436 34.328,126.251 36.529,126.544 C38.75,126.84 40.26,128.534 39.962,130.764 C39.665,132.995 37.766,134.235 35.544,133.939 C33.344,133.646 31.787,131.996 32.092,129.717 L32.092,129.717 Z M38.524,130.573 C38.708,129.194 37.597,128.22 36.388,128.059 C35.238,127.905 33.744,128.292 33.529,129.908 C33.313,131.523 34.654,132.287 35.805,132.44 C37.014,132.601 38.341,131.95 38.524,130.573 L38.524,130.573 Z" id="Fill-39"></path>
                            <path d="M39.106,135.36 L38.852,136.808 L34.694,136.078 C33.777,135.918 32.473,135.77 32.258,137.002 C32.041,138.232 33.317,138.538 34.233,138.699 L38.392,139.429 L38.137,140.877 L33.693,140.097 C31.881,139.778 30.646,138.77 30.996,136.78 C31.346,134.79 32.851,134.262 34.662,134.58 L39.106,135.36" id="Fill-40"></path>
                            <path d="M29.451,145.523 L29.82,143.781 L33.176,142.621 L33.18,142.601 L30.205,141.97 L30.51,140.531 L37.891,142.096 L37.477,144.044 C37.168,145.502 36.308,146.374 34.732,146.04 C33.793,145.84 32.963,145.123 33.006,144.098 L29.451,145.523 L29.451,145.523 Z M34.187,142.815 L34.148,143.001 C33.98,143.793 34.098,144.402 34.998,144.593 C35.908,144.785 36.207,144.246 36.369,143.482 L36.41,143.286 L34.187,142.815 L34.187,142.815 Z" id="Fill-41"></path>
                            <path d="M33.514,152.162 C34.098,151.883 34.537,151.354 34.688,150.743 C35.027,149.375 33.959,148.276 32.698,147.964 C31.467,147.66 30.031,148.17 29.703,149.499 C29.552,150.11 29.721,150.801 30.078,151.312 L28.381,150.892 C28.26,150.296 28.208,149.716 28.354,149.125 C28.863,147.067 31.016,145.983 33.033,146.482 C35.11,146.995 36.582,148.915 36.051,151.06 C35.91,151.632 35.615,152.156 35.221,152.583 L33.514,152.162" id="Fill-42"></path>
                            <path d="M27.494,153.137 L27.882,151.72 L35.15,153.708 L34.764,155.125 L27.494,153.137" id="Fill-43"></path>
                            <path d="M34.641,156.386 L34.332,157.398 L28.137,159.654 L28.131,159.673 L32.976,161.153 L32.547,162.558 L25.199,160.314 L25.508,159.3 L31.703,157.044 L31.709,157.025 L26.815,155.531 L27.244,154.126 L34.641,156.386" id="Fill-44"></path>
                            <path d="M26.594,168.918 L26.414,168.856 C24.406,168.147 22.986,166.488 23.766,164.282 C24.498,162.208 26.716,161.517 28.677,162.209 C30.704,162.925 31.972,164.889 31.223,167.011 C30.797,168.217 29.81,169.057 28.533,169.222 L28.307,167.762 C29.048,167.706 29.75,167.275 30.01,166.54 C30.482,165.201 29.35,164.059 28.17,163.642 C26.992,163.226 25.445,163.433 24.973,164.771 C24.666,165.639 25.164,166.632 26.012,166.963 L26.545,165.454 L27.676,165.853 L26.594,168.918" id="Fill-45"></path>
                        </g>
                    </g>
                </g>
            </g>
        </g>
    </g>
</svg>