<?xml version="1.0" encoding="UTF-8" standalone="no"?>
<svg width="92px" height="75px" viewBox="0 0 92 75" version="1.1" xmlns="http://www.w3.org/2000/svg" xmlns:xlink="http://www.w3.org/1999/xlink" xmlns:sketch="http://www.bohemiancoding.com/sketch/ns">
    <!-- Generator: Sketch Beta 3.1 (8715) - http://www.bohemiancoding.com/sketch -->
    <title>Group</title>
    <desc>Created with Sketch Beta.</desc>
    <defs></defs>
    <g id="1%Cub-|-Business" stroke="none" stroke-width="1" fill="none" fill-rule="evenodd" sketch:type="MSPage">
        <g id="Desktop" sketch:type="MSArtboardGroup" transform="translate(-761.000000, -648.000000)" fill="#B2B2B2">
            <g id="Zo-werkt-het" sketch:type="MSLayerGroup" transform="translate(138.000000, 483.000000)">
                <g id="Model" transform="translate(559.000000, 139.000000)" sketch:type="MSShapeGroup">
                    <g id="Imported-Layers" transform="translate(63.000000, 27.000000)">
                        <g id="Group" transform="translate(1.000000, 0.000000)">
                            <path d="M1.981,69.019 L3.352,69.96 L4.677,68.029 L5.732,68.755 L4.406,70.686 L6.09,71.842 L7.467,69.836 L8.522,70.562 L6.312,73.779 L0.092,69.507 L2.303,66.289 L3.358,67.014 L1.981,69.019" id="Fill-2"></path>
                            <path d="M8.648,62.465 L8.636,62.481 L11.452,66.707 L11.147,67.116 L6.326,65.588 L6.314,65.604 L9.67,68.935 L8.786,70.123 L3.333,64.483 L3.954,63.649 L9.053,65.122 L6.127,60.728 L6.76,59.877 L13.646,63.59 L12.763,64.777 L8.648,62.465" id="Fill-3"></path>
                            <path d="M14.963,62.009 L14.04,63.152 L8.172,58.414 L9.428,56.858 C10.421,55.629 11.559,55.222 12.889,56.298 C14.135,57.303 14.195,58.469 13.227,59.668 L12.769,60.235 L14.963,62.009 L14.963,62.009 Z M11.818,59.47 L12.008,59.237 C12.554,58.559 12.701,58.074 11.938,57.458 C11.184,56.849 10.723,57.197 10.208,57.835 L10.044,58.037 L11.818,59.47 L11.818,59.47 Z" id="Fill-4"></path>
                            <path d="M17.311,57.167 L18.661,55.586 L19.634,56.417 L17.331,59.113 L11.6,54.224 L12.554,53.106 L17.311,57.167" id="Fill-5"></path>
                            <path d="M22.322,53.724 C20.771,55.423 18.506,55.293 16.865,53.795 C15.21,52.285 14.938,50.031 16.455,48.368 C17.973,46.705 20.242,46.773 21.898,48.284 C23.537,49.78 23.873,52.024 22.322,53.724 L22.322,53.724 Z M17.526,49.346 C16.589,50.373 16.945,51.81 17.846,52.631 C18.703,53.414 20.15,53.949 21.25,52.745 C22.35,51.541 21.685,50.148 20.828,49.365 C19.926,48.543 18.464,48.319 17.526,49.346 L17.526,49.346 Z" id="Fill-6"></path>
                            <path d="M19.309,45.58 L20.511,44.365 L23.301,45.269 L22.451,42.403 L23.661,41.181 L24.887,45.742 L27.345,48.175 L26.311,49.22 L23.852,46.786 L19.309,45.58" id="Fill-7"></path>
                            <path d="M26.023,40.713 L27.166,41.914 L28.86,40.302 L29.742,41.229 L28.049,42.841 L29.453,44.319 L31.213,42.644 L32.096,43.571 L29.271,46.258 L24.075,40.799 L26.9,38.11 L27.782,39.038 L26.023,40.713" id="Fill-8"></path>
                            <path d="M29.699,37.301 L30.809,38.535 L32.549,36.972 L33.404,37.924 L31.663,39.486 L33.025,41.005 L34.834,39.382 L35.688,40.333 L32.787,42.938 L27.751,37.33 L30.652,34.725 L31.507,35.677 L29.699,37.301" id="Fill-9"></path>
                            <path d="M35.746,32.077 L36.8,33.36 L38.607,31.875 L39.42,32.864 L37.612,34.35 L38.906,35.926 L40.785,34.383 L41.598,35.372 L38.584,37.848 L33.797,32.021 L36.811,29.545 L37.623,30.534 L35.746,32.077" id="Fill-10"></path>
                            <path d="M37.616,28.627 L38.459,27.984 L44.813,29.766 L44.829,29.753 L41.754,25.722 L42.922,24.83 L47.588,30.945 L46.744,31.589 L40.391,29.806 L40.375,29.817 L43.481,33.889 L42.312,34.781 L37.616,28.627" id="Fill-11"></path>
                            <path d="M51.468,23.155 L51.576,23.312 C52.793,25.059 52.979,27.231 51.059,28.568 C49.254,29.825 47.051,29.094 45.862,27.388 C44.635,25.623 44.75,23.289 46.597,22.003 C47.646,21.271 48.937,21.166 50.069,21.776 L49.402,23.095 C48.769,22.708 47.946,22.648 47.307,23.092 C46.142,23.904 46.395,25.493 47.109,26.519 C47.823,27.545 49.2,28.279 50.365,27.467 C51.12,26.942 51.295,25.846 50.8,25.082 L49.487,25.996 L48.801,25.012 L51.468,23.155" id="Fill-12"></path>
                            <path d="M54.764,23.912 L55.097,25.587 L53.791,26.42 L52.104,18.313 L53.065,17.7 L59.642,22.685 L58.318,23.531 L56.973,22.503 L54.764,23.912 L54.764,23.912 Z M53.714,19.907 L53.697,19.918 L54.473,22.675 L55.982,21.711 L53.714,19.907 L53.714,19.907 Z" id="Fill-13"></path>
                            <path d="M63.704,15.668 L63.799,15.832 C64.873,17.673 64.885,19.854 62.863,21.034 C60.963,22.143 58.824,21.238 57.775,19.441 C56.691,17.582 56.994,15.264 58.938,14.129 C60.043,13.484 61.339,13.481 62.42,14.183 L61.649,15.441 C61.048,15.006 60.232,14.879 59.559,15.273 C58.332,15.989 58.458,17.595 59.089,18.674 C59.719,19.754 61.033,20.597 62.26,19.881 C63.055,19.417 63.316,18.338 62.883,17.537 L61.502,18.343 L60.896,17.307 L63.704,15.668" id="Fill-14"></path>
                            <path d="M64.657,12.627 L65.442,14.088 L67.503,12.982 L68.108,14.109 L66.047,15.215 L67.012,17.012 L69.152,15.863 L69.758,16.991 L66.322,18.834 L62.758,12.193 L66.192,10.351 L66.797,11.477 L64.657,12.627" id="Fill-15"></path>
                            <path d="M73.565,9.862 L73.547,9.872 L74.111,14.918 L73.652,15.142 L70.069,11.572 L70.052,11.581 L71.506,16.08 L70.176,16.731 L67.916,9.218 L68.851,8.761 L72.705,12.409 L72.121,7.161 L73.073,6.696 L77.49,13.153 L76.16,13.804 L73.565,9.862" id="Fill-16"></path>
                            <path d="M76.852,6.62 L77.523,8.138 L79.664,7.19 L80.182,8.36 L78.042,9.308 L78.868,11.175 L81.091,10.19 L81.609,11.36 L78.043,12.94 L74.988,6.045 L78.555,4.465 L79.073,5.636 L76.852,6.62" id="Fill-17"></path>
                            <path d="M79.562,3.799 L80.547,3.403 L86.196,6.813 L86.215,6.806 L84.324,2.101 L85.687,1.553 L88.557,8.688 L87.572,9.083 L81.923,5.674 L81.904,5.682 L83.815,10.432 L82.45,10.981 L79.562,3.799" id="Fill-18"></path>
                            <path d="M91.762,7.389 L90.378,7.888 L88.253,1.997 L86.822,2.513 L86.389,1.309 L90.632,-0.221 L91.066,0.982 L89.637,1.498 L91.762,7.389" id="Fill-19"></path>
                        </g>
                    </g>
                </g>
            </g>
        </g>
    </g>
</svg>