<?xml version="1.0" encoding="UTF-8" standalone="no"?>
<svg width="99px" height="47px" viewBox="0 0 99 47" version="1.1" xmlns="http://www.w3.org/2000/svg" xmlns:xlink="http://www.w3.org/1999/xlink" xmlns:sketch="http://www.bohemiancoding.com/sketch/ns">
    <!-- Generator: Sketch Beta 3.1 (8715) - http://www.bohemiancoding.com/sketch -->
    <title>Group</title>
    <desc>Created with Sketch Beta.</desc>
    <defs></defs>
    <g id="1%Cub-|-Business" stroke="none" stroke-width="1" fill="none" fill-rule="evenodd" sketch:type="MSPage">
        <g id="Desktop" sketch:type="MSArtboardGroup" transform="translate(-796.000000, -951.000000)" fill="#B2B2B2">
            <g id="Zo-werkt-het" sketch:type="MSLayerGroup" transform="translate(138.000000, 483.000000)">
                <g id="Model" transform="translate(559.000000, 139.000000)" sketch:type="MSShapeGroup">
                    <g id="Imported-Layers" transform="translate(63.000000, 27.000000)">
                        <g id="Group" transform="translate(36.000000, 302.000000)">
                            <path d="M1.341,6.867 L0.202,5.935 L4.982,0.096 L6.121,1.025 L1.341,6.867" id="Fill-46"></path>
                            <path d="M9.442,7.279 L9.427,7.266 L5.155,10.008 L4.752,9.697 L6.362,4.904 L6.347,4.893 L2.959,8.19 L1.787,7.287 L7.518,1.932 L8.341,2.566 L6.78,7.637 L11.223,4.789 L12.062,5.436 L8.233,12.254 L7.061,11.352 L9.442,7.279" id="Fill-47"></path>
                            <path d="M9.937,13.43 L8.738,12.578 L13.113,6.43 L14.744,7.59 C16.032,8.508 16.506,9.617 15.514,11.012 C14.586,12.316 13.424,12.447 12.168,11.555 L11.573,11.131 L9.937,13.43 L9.937,13.43 Z M12.281,10.137 L12.525,10.311 C13.235,10.815 13.729,10.934 14.297,10.133 C14.859,9.342 14.484,8.904 13.816,8.428 L13.603,8.277 L12.281,10.137 L12.281,10.137 Z" id="Fill-48"></path>
                            <path d="M14.513,14.69 L13.115,15.666 L11.827,14.807 L18.569,10.008 L19.516,10.641 L17.592,18.66 L16.288,17.787 L16.689,16.147 L14.513,14.69 L14.513,14.69 Z M17.757,12.121 L17.74,12.111 L15.528,13.926 L17.016,14.92 L17.757,12.121 L17.757,12.121 Z" id="Fill-49"></path>
                            <path d="M25.129,16.805 C25.043,16.164 24.674,15.582 24.14,15.252 C22.941,14.508 21.568,15.186 20.884,16.291 C20.215,17.371 20.26,18.893 21.424,19.613 C21.959,19.945 22.668,19.996 23.264,19.813 L22.343,21.301 C21.738,21.232 21.171,21.104 20.652,20.781 C18.851,19.664 18.481,17.283 19.576,15.518 C20.703,13.697 22.981,12.887 24.859,14.051 C25.361,14.361 25.769,14.803 26.056,15.31 L25.129,16.805" id="Fill-50"></path>
                            <path d="M25.128,23.205 L23.856,22.467 L26.998,17.053 L25.683,16.289 L26.325,15.182 L30.227,17.445 L29.585,18.553 L28.269,17.789 L25.128,23.205" id="Fill-51"></path>
                            <path d="M33.441,26.844 C32.643,27.039 31.836,27.096 31.081,26.705 C29.953,26.123 29.545,24.863 30.128,23.736 C30.514,22.99 31.182,22.592 31.996,22.494 L32.539,22.426 C32.453,21.83 32.451,21.268 32.731,20.725 C33.246,19.73 34.336,19.449 35.296,19.945 C36.265,20.445 36.676,21.48 36.156,22.484 C35.775,23.223 34.981,23.453 34.219,23.531 L34.531,25.213 L35.652,24.701 L36.079,25.9 L34.859,26.496 L35.225,28.621 L33.634,27.801 L33.441,26.844 L33.441,26.844 Z M32.813,23.617 C32.32,23.697 31.755,23.811 31.502,24.299 C31.282,24.727 31.394,25.381 31.838,25.611 C32.247,25.822 32.719,25.672 33.132,25.547 L32.813,23.617 L32.813,23.617 Z M34.01,22.455 L34.328,22.385 C34.66,22.309 34.913,22.168 35.078,21.848 C35.238,21.537 35.24,21.1 34.894,20.92 C34.539,20.736 34.187,20.937 34.021,21.258 C33.93,21.435 33.895,21.631 33.924,21.838 L34.01,22.455 L34.01,22.455 Z" id="Fill-52"></path>
                            <path d="M43.844,26.15 C43.747,25.69 43.519,25.32 43.074,25.117 C42.646,24.922 42.087,25.063 41.884,25.508 C41.356,26.664 44.296,27.424 43.245,29.727 C42.617,31.1 41.318,31.682 39.917,31.043 C38.971,30.609 38.529,29.748 38.417,28.74 L39.668,28.289 C39.609,28.9 39.875,29.594 40.448,29.855 C40.994,30.105 41.543,29.795 41.783,29.266 C42.107,28.557 41.544,28.057 41.102,27.603 C40.387,26.836 39.943,26.096 40.43,25.031 C40.949,23.895 42.215,23.361 43.371,23.891 C43.981,24.168 44.69,24.855 44.895,25.51 L43.844,26.15" id="Fill-53"></path>
                            <path d="M45.182,33.133 L43.828,32.559 L46.273,26.799 L44.874,26.203 L45.374,25.025 L49.524,26.787 L49.024,27.965 L47.626,27.371 L45.182,33.133" id="Fill-54"></path>
                            <path d="M50.11,35.336 C47.965,34.508 47.266,32.35 48.065,30.281 C48.872,28.191 50.872,27.119 52.971,27.93 C55.068,28.74 55.83,30.877 55.023,32.967 C54.223,35.039 52.256,36.164 50.11,35.336 L50.11,35.336 Z M52.448,29.283 C51.152,28.781 49.943,29.633 49.504,30.772 C49.087,31.853 49.112,33.397 50.633,33.982 C52.152,34.57 53.209,33.445 53.627,32.363 C54.066,31.227 53.744,29.783 52.448,29.283 L52.448,29.283 Z" id="Fill-55"></path>
                            <path d="M59.115,38.344 L57.433,37.766 L56.691,34.297 L56.672,34.291 L55.684,37.164 L54.294,36.685 L56.746,29.559 L58.627,30.205 C60.035,30.691 60.795,31.65 60.271,33.172 C59.959,34.08 59.145,34.815 58.136,34.647 L59.115,38.344 L59.115,38.344 Z M57.008,33.318 L57.187,33.379 C57.953,33.643 58.569,33.6 58.868,32.73 C59.171,31.852 58.672,31.49 57.935,31.236 L57.746,31.172 L57.008,33.318 L57.008,33.318 Z" id="Fill-56"></path>
                            <path d="M60.924,31.01 L62.557,31.516 L63.043,34.406 L65.191,32.332 L66.834,32.84 L63.355,36.031 L62.332,39.334 L60.929,38.9 L61.952,35.598 L60.924,31.01" id="Fill-57"></path>
                            <path d="M67.285,40.77 L65.87,40.375 L67.549,34.346 L66.085,33.94 L66.429,32.707 L70.771,33.916 L70.429,35.148 L68.965,34.74 L67.285,40.77" id="Fill-58"></path>
                            <path d="M72.193,35.584 L71.791,37.195 L74.062,37.762 L73.751,39.004 L71.481,38.437 L70.986,40.416 L73.344,41.006 L73.033,42.248 L69.249,41.301 L71.078,33.986 L74.861,34.932 L74.551,36.174 L72.193,35.584" id="Fill-59"></path>
                            <path d="M75.658,41.529 L77.69,41.986 L77.41,43.236 L73.943,42.459 L75.592,35.096 L77.027,35.418 L75.658,41.529" id="Fill-60"></path>
                            <path d="M79.512,42.353 L81.551,42.764 L81.298,44.018 L77.818,43.318 L79.306,35.928 L80.746,36.217 L79.512,42.353" id="Fill-61"></path>
                            <path d="M83.189,44.354 L81.745,44.09 L83.094,36.678 L84.539,36.941 L83.189,44.354" id="Fill-62"></path>
                            <path d="M85.391,36.912 L86.439,37.072 L89.56,42.887 L89.581,42.891 L90.352,37.879 L91.806,38.102 L90.635,45.703 L89.588,45.541 L86.465,39.728 L86.445,39.725 L85.666,44.785 L84.213,44.56 L85.391,36.912" id="Fill-63"></path>
                            <path d="M98.697,42.418 L98.677,42.605 C98.443,44.725 97.152,46.484 94.826,46.227 C92.639,45.986 91.461,43.984 91.688,41.918 C91.924,39.779 93.549,38.098 95.785,38.344 C97.058,38.484 98.1,39.254 98.551,40.459 L97.182,41.012 C96.958,40.305 96.379,39.717 95.604,39.631 C94.191,39.477 93.336,40.84 93.199,42.084 C93.062,43.326 93.616,44.787 95.028,44.941 C95.943,45.043 96.796,44.332 96.926,43.43 L95.335,43.254 L95.466,42.06 L98.697,42.418" id="Fill-64"></path>
                        </g>
                    </g>
                </g>
            </g>
        </g>
    </g>
</svg>