<?xml version="1.0" encoding="UTF-8" standalone="no"?>
<svg width="122px" height="127px" viewBox="0 0 122 127" version="1.1" xmlns="http://www.w3.org/2000/svg" xmlns:xlink="http://www.w3.org/1999/xlink" xmlns:sketch="http://www.bohemiancoding.com/sketch/ns">
    <!-- Generator: Sketch Beta 3.1 (8715) - http://www.bohemiancoding.com/sketch -->
    <title>Imported Layers</title>
    <desc>Created with Sketch Beta.</desc>
    <defs></defs>
    <g id="1%Cub-|-Business" stroke="none" stroke-width="1" fill="none" fill-rule="evenodd" sketch:type="MSPage">
        <g id="Desktop" sketch:type="MSArtboardGroup" transform="translate(-938.000000, -883.000000)">
            <g id="Zo-werkt-het" sketch:type="MSLayerGroup" transform="translate(138.000000, 483.000000)">
                <g id="Model" transform="translate(559.000000, 139.000000)" sketch:type="MSShapeGroup">
                    <g id="Imported-Layers" transform="translate(242.000000, 262.000000)">
                        <path d="M60.761,125.916 C93.651,125.916 120.313,99.253 120.313,66.364 C120.313,33.474 93.651,6.812 60.761,6.812 C27.872,6.812 1.209,33.474 1.209,66.364 C1.209,99.253 27.872,125.916 60.761,125.916" id="Fill-1" fill="#E8FBED"></path>
                        <path d="M60.761,114.466 C86.321,114.466 107.041,92.93 107.041,66.364 C107.041,39.798 86.321,18.262 60.761,18.262 C35.202,18.262 14.482,39.798 14.482,66.364 C14.482,92.93 35.202,114.466 60.761,114.466" id="Fill-2" fill="#D2F9DC"></path>
                        <path d="M60.595,101.878 C41.051,101.878 25.151,85.978 25.151,66.434 C25.151,46.89 41.051,30.99 60.595,30.99 C80.139,30.99 96.039,46.89 96.039,66.434 C96.039,85.978 80.139,101.878 60.595,101.878" id="Fill-3" fill="#FFFFFF"></path>
                        <path d="M60.595,31.99 C79.588,31.99 95.039,47.441 95.039,66.434 C95.039,85.426 79.588,100.878 60.595,100.878 C41.603,100.878 26.151,85.426 26.151,66.434 C26.151,47.441 41.603,31.99 60.595,31.99 M60.595,29.99 C40.471,29.99 24.151,46.31 24.151,66.434 C24.151,86.558 40.471,102.878 60.595,102.878 C80.719,102.878 97.039,86.558 97.039,66.434 C97.039,46.31 80.719,29.99 60.595,29.99" id="Fill-4" fill="#282827"></path>
                        <path d="M49.356,101.103 C48.313,100.089 47.4,98.861 46.357,97.847 C47.212,97.311 48.067,96.775 48.922,96.239 C48.791,95.877 48.661,95.515 48.531,95.152 L49.921,95.152 C50.761,93.646 51.602,92.139 52.442,90.632 C53.601,90.386 54.76,90.14 55.919,89.894 C56.339,88.155 56.759,86.417 57.179,84.678 C58.135,83.592 59.092,82.505 60.048,81.419 C58.918,80.477 57.788,79.535 56.658,78.594 C55.817,78.608 54.977,78.622 54.137,78.637 C52.978,77.942 51.819,77.246 50.66,76.551 C49.965,76.739 49.269,76.927 48.574,77.116 C48.487,75.696 48.4,74.276 48.313,72.857 C47.169,72.552 46.024,72.248 44.88,71.944 C43.75,70.785 42.62,69.626 41.49,68.467 C41.084,68.496 40.678,68.525 40.273,68.554 C38.998,68.003 37.723,67.453 36.448,66.903 C35.724,67.38 34.999,67.859 34.275,68.337 C33.565,67.946 32.855,67.554 32.145,67.163 C32.102,65.888 32.058,64.613 32.015,63.339 C31.363,62.933 30.711,62.527 30.059,62.122 C30.494,61.006 30.928,59.891 31.363,58.775 C30.624,59.195 29.885,59.615 29.147,60.035 C28.915,59.528 28.683,59.021 28.451,58.514 C29.349,56.573 30.248,54.632 31.146,52.69 C32.044,52.72 32.942,52.748 33.84,52.777 C34.232,53.27 34.623,53.763 35.014,54.255 C34.84,54.617 34.666,54.98 34.492,55.342 C34.695,55.906 34.898,56.472 35.101,57.037 C35.376,55.675 35.651,54.313 35.927,52.951 C37.042,52.357 38.158,51.763 39.273,51.169 C39.288,50.677 39.302,50.184 39.317,49.692 C41.185,48.475 43.054,47.258 44.923,46.041 C45.329,46.244 45.734,46.447 46.14,46.649 C46.27,46.186 46.401,45.722 46.531,45.259 C46.821,44.925 47.111,44.592 47.4,44.259 C46.908,44.157 46.415,44.056 45.923,43.955 C46.473,43.752 47.024,43.549 47.574,43.346 C48.559,43.274 49.544,43.201 50.53,43.129 C50.24,43.694 49.95,44.259 49.661,44.824 C50.008,45.041 50.356,45.259 50.703,45.476 C50.964,45.201 51.225,44.925 51.486,44.65 C51.297,44.331 51.109,44.013 50.921,43.694 C51.109,43.201 51.297,42.709 51.486,42.216 C51.095,41.738 50.703,41.26 50.312,40.782 C50.341,40.246 50.37,39.71 50.399,39.174 C49.878,39.232 49.356,39.29 48.835,39.348 C48.791,38.783 48.748,38.218 48.704,37.653 C48.415,37.566 48.125,37.479 47.835,37.392 C47.343,37.943 46.85,38.493 46.357,39.044 C46.111,39.493 45.865,39.942 45.619,40.391 C45.155,40.507 44.691,40.623 44.228,40.739 C43.981,41.144 43.735,41.55 43.489,41.955 L42.967,41.955 C42.953,41.666 42.938,41.376 42.924,41.086 C43.054,40.724 43.185,40.362 43.315,40 C43.011,39.449 42.707,38.899 42.402,38.348 C44.358,37.334 46.314,36.32 48.27,35.306 C48.342,35.06 48.415,34.813 48.487,34.567 C48.936,34.118 49.385,33.669 49.834,33.22 C49.009,33.495 48.183,33.77 47.357,34.045 C47.777,33.698 48.197,33.35 48.617,33.002 C48.226,33.046 47.835,33.089 47.444,33.133 C47.111,33.379 46.778,33.625 46.444,33.871 C46.198,33.756 45.952,33.64 45.705,33.524 C46.401,33.249 47.375,33.008 48.07,32.733 C48.794,32.327 49.31,32.2 50.034,31.795 C51.367,31.824 52.63,31.539 53.963,31.568 C53.427,31.858 52.891,32.148 52.355,32.437 C52.949,32.597 53.543,32.756 54.137,32.915 C54.992,32.684 55.846,32.452 56.701,32.22 C56.31,32.394 55.919,32.568 55.528,32.742 C55.89,32.93 56.252,33.118 56.614,33.307 C56.6,34.234 56.585,35.161 56.571,36.088 C56.455,36.581 56.339,37.073 56.223,37.566 C55.948,37.74 55.673,37.914 55.397,38.087 C56.093,38.464 56.788,38.841 57.484,39.217 C57.628,38.884 57.773,38.551 57.918,38.218 C58.295,38 58.671,37.783 59.048,37.566 C59.092,37.349 59.135,37.131 59.179,36.914 C59.874,36.711 60.569,36.508 61.265,36.305 C61.308,36.204 61.352,36.103 61.395,36.001 C62.047,35.871 62.699,35.74 63.351,35.61 C63.293,34.466 63.235,33.321 63.177,32.177 C62.148,32.003 61.12,31.829 60.091,31.655 L62.047,31.394 C63.018,31.278 63.988,31.163 64.959,31.047 C63.757,30.713 62.554,30.38 61.352,30.047 C61.981,30.012 62.611,29.977 63.24,29.942 C54.2,29.252 39.072,32.173 29.625,47.345 C28.871,49.967 28.118,52.589 27.365,55.211 C27.278,56.457 27.191,57.703 27.104,58.949 C27.654,59.659 28.205,60.369 28.755,61.079 C28.799,61.426 28.842,61.774 28.886,62.122 C29.538,63.136 30.19,64.15 30.842,65.164 C30.928,65.671 31.016,66.178 31.102,66.685 C31.667,67.366 32.232,68.047 32.797,68.728 C33.044,68.597 33.29,68.467 33.536,68.337 C33.536,68.337 34.145,71.683 34.101,71.901 C34.058,72.118 32.406,76.247 32.406,76.247 C33.464,78.55 34.521,80.853 35.579,83.157 C36.81,84.026 38.042,84.895 39.273,85.765 C39.809,87.779 40.345,89.792 40.881,91.806 C41.765,93.559 42.649,95.312 43.532,97.065 C44.952,98.18 46.498,99.492 47.918,100.607 C48.483,100.81 48.848,100.948 49.356,101.103 L49.356,101.103 Z M34.499,59.158 L33.781,58.33 L32.998,58.439 L33.77,57.861 L34.706,58.526 L34.499,59.158 L34.499,59.158 Z M36.37,60.89 L35.478,60.378 L35.217,59.626 L36.37,60.89 L36.37,60.89 Z M37.305,62.121 L38.187,61.783 L39.166,62.371 L37.882,62.447 C37.882,62.447 37.327,62.131 37.305,62.121 L37.305,62.121 Z M49.174,35.007 C49.229,34.986 50.86,33.297 50.86,33.297 L52.742,33.504 L52.895,35.106 L52.449,35.476 L53.341,36.413 L51.763,36.293 C51.763,36.293 50.86,37.655 50.806,37.655 C50.752,37.655 49.729,37.611 49.729,37.611 L50.306,36.151 L51.567,35.639 L51.198,34.365 L49.174,35.062 L49.174,35.007 L49.174,35.007 Z" id="Fill-5" fill="#221F1F"></path>
                        <path d="M84.212,92.458 C84.444,91.864 84.676,91.27 84.908,90.676 C84.937,90.169 84.966,89.662 84.995,89.155 C85.328,88.677 85.661,88.199 85.994,87.72 C85.893,86.533 85.792,85.345 85.69,84.157 C86.429,83.244 87.168,82.331 87.907,81.419 C87.849,80.057 87.791,78.695 87.733,77.333 C87.197,76.623 86.661,75.914 86.125,75.203 C86.356,74.132 86.588,73.06 86.82,71.987 C86.154,71.799 85.487,71.611 84.821,71.422 C84.357,71.133 83.894,70.843 83.43,70.553 C82.894,70.973 82.358,71.393 81.822,71.814 C80.982,71.828 80.141,71.842 79.301,71.857 C78.954,72.19 78.606,72.523 78.258,72.857 C77.041,72.234 75.824,71.611 74.607,70.988 C74.26,70.177 73.912,69.365 73.564,68.554 C72.985,68.09 72.405,67.627 71.826,67.163 C71.869,65.671 71.913,64.179 71.956,62.687 C71.565,62.252 71.174,61.817 70.783,61.383 C71.667,60.093 72.55,58.804 73.434,57.515 C73.927,57.066 74.419,56.617 74.912,56.167 C74.883,55.631 74.854,55.095 74.825,54.559 C75.259,53.791 75.694,53.024 76.129,52.256 C76.81,52.299 77.49,52.343 78.171,52.386 C78.664,51.923 79.156,51.459 79.649,50.995 C80.547,50.807 81.445,50.619 82.344,50.43 C82.633,51.025 82.923,51.618 83.213,52.212 C83.894,52.343 84.575,52.473 85.255,52.604 C85.878,52.908 86.501,53.212 87.124,53.516 C87.081,52.922 87.037,52.328 86.994,51.734 C87.936,51.879 88.877,52.024 89.819,52.169 C90.181,51.85 90.543,51.531 90.906,51.213 C90.456,50.112 90.007,49.011 89.558,47.91 C89.109,48.315 88.66,48.721 88.211,49.127 C87.776,48.837 87.342,48.547 86.907,48.257 C86.559,47.779 86.212,47.301 85.864,46.823 C85.792,47.026 85.719,47.229 85.647,47.432 C85.951,47.765 86.255,48.098 86.559,48.431 C86.516,48.765 86.472,49.098 86.429,49.431 C85.458,48.489 84.488,47.548 83.517,46.606 C82.488,46.142 81.46,45.679 80.431,45.215 C81.011,45.737 81.59,46.258 82.17,46.78 L83.778,47.779 C83.763,48.011 83.749,48.243 83.734,48.475 C83.85,48.735 83.966,48.996 84.082,49.257 C83.937,49.344 83.792,49.431 83.647,49.518 C83.444,49.663 83.242,49.807 83.039,49.952 C82.822,49.735 82.604,49.518 82.387,49.3 C82.619,49.228 82.851,49.155 83.082,49.083 L83.734,49.083 C83.372,48.605 83.01,48.127 82.648,47.649 C81.996,47.417 81.344,47.185 80.692,46.954 C80.315,46.62 79.939,46.287 79.562,45.954 C79.272,46.316 78.983,46.678 78.693,47.04 C78.418,47.113 78.142,47.185 77.867,47.258 C77.852,48.388 77.838,49.518 77.824,50.648 C77.244,51.053 76.665,51.459 76.085,51.865 C75.259,51.575 74.433,51.285 73.608,50.995 C73.712,50.446 73.817,49.896 73.922,49.346 C73.658,48.708 73.394,48.07 73.13,47.432 C73.449,47.342 73.768,47.253 74.087,47.164 C74.685,46.997 75.813,47.29 76.433,47.258 C75.969,46.548 75.506,45.838 75.042,45.128 C74.738,45.027 74.433,44.925 74.129,44.824 C74.564,44.491 74.999,44.157 75.433,43.824 L75.433,41.521 C75.68,41.376 75.926,41.231 76.172,41.086 C75.853,40.666 75.534,40.246 75.216,39.826 C75.593,39.782 75.969,39.739 76.346,39.696 C75.795,39.304 75.245,38.913 74.694,38.522 C74.549,38.841 74.405,39.159 74.26,39.478 C73.651,38.927 73.043,38.377 72.434,37.827 L72.434,36.045 C72.101,35.393 71.768,34.741 71.435,34.089 C72.318,33.973 73.202,33.857 74.086,33.741 C74.593,34.19 75.1,34.64 75.607,35.089 L76.346,35.089 C76.331,34.668 76.317,34.248 76.303,33.828 C76.505,33.712 76.708,33.596 76.911,33.481 C89.992,39.791 96.468,52.37 97.292,62.786 C98.038,72.204 93.474,87.561 84.734,92.632 C84.56,92.574 84.386,92.516 84.212,92.458 L84.212,92.458 Z M64.708,37.077 L64.991,37.861 L66.688,36.794 L65.274,36.75 L64.708,37.077 L64.708,37.077 Z M70.887,41.543 L71.104,42.327 L70.974,43.025 L71.823,42.371 L70.887,41.543 L70.887,41.543 Z M71.039,39.604 C71.039,39.713 71.931,41.26 71.931,41.26 L72.976,41.587 L73.019,43.547 L74.89,43.112 L74.803,41.957 L72.606,40.693 L72.105,39.735 L71.039,39.604 L71.039,39.604 Z M80.744,49.005 L80.363,47.785 L80.907,48.482 L80.744,49.005 L80.744,49.005 Z" id="Fill-6" fill="#221F1F"></path>
                        <path d="M60.645,26.339 C59.882,27.135 58.641,27.135 57.878,26.339 L45.607,13.562 C42.479,10.417 42.479,5.324 45.607,2.182 C48.733,-0.959 53.804,-0.959 56.932,2.182 L59.262,5.027 L61.592,2.182 C64.719,-0.959 69.791,-0.959 72.917,2.182 C76.045,5.324 76.045,10.417 72.917,13.562 L60.645,26.339" id="Fill-7" fill="#37B34B"></path>
                        <path d="M79.546,123.146 C79.045,123.669 78.231,123.669 77.73,123.146 L69.677,114.761 C67.624,112.697 67.624,109.355 69.677,107.293 C71.728,105.231 75.057,105.231 77.109,107.293 L78.638,109.16 L80.167,107.293 C82.22,105.231 85.548,105.231 87.6,107.293 C89.653,109.355 89.653,112.697 87.6,114.761 L79.546,123.146" id="Fill-8" fill="#37B34B"></path>
                        <path d="M103.028,51.582 C102.605,52.023 101.916,52.023 101.493,51.582 L94.684,44.492 C92.949,42.747 92.949,39.922 94.684,38.178 C96.419,36.435 99.232,36.435 100.968,38.178 L102.26,39.757 L103.553,38.178 C105.289,36.435 108.102,36.435 109.837,38.178 C111.572,39.922 111.572,42.747 109.837,44.492 L103.028,51.582" id="Fill-9" fill="#96CF9F"></path>
                        <path d="M109.354,64.713 C109.149,64.928 108.814,64.928 108.609,64.713 L105.303,61.271 C104.46,60.424 104.46,59.052 105.303,58.205 C106.145,57.359 107.511,57.359 108.354,58.205 L108.982,58.972 L109.609,58.205 C110.452,57.359 111.818,57.359 112.66,58.205 C113.503,59.052 113.503,60.424 112.66,61.271 L109.354,64.713" id="Fill-10" fill="#37B34B"></path>
                        <path d="M12.148,97.531 C11.611,98.092 10.737,98.092 10.199,97.531 L1.556,88.531 C-0.648,86.316 -0.648,82.728 1.556,80.516 C3.758,78.303 7.33,78.303 9.533,80.516 L11.174,82.519 L12.815,80.516 C15.018,78.303 18.59,78.303 20.792,80.516 C22.995,82.728 22.995,86.316 20.792,88.531 L12.148,97.531" id="Fill-11" fill="#96CF9F"></path>
                    </g>
                </g>
            </g>
        </g>
    </g>
</svg>