<?xml version="1.0" encoding="UTF-8" standalone="no"?>
<svg width="123px" height="120px" viewBox="0 0 123 120" version="1.1" xmlns="http://www.w3.org/2000/svg" xmlns:xlink="http://www.w3.org/1999/xlink" xmlns:sketch="http://www.bohemiancoding.com/sketch/ns">
    <!-- Generator: Sketch Beta 3.1 (8715) - http://www.bohemiancoding.com/sketch -->
    <title>Imported Layers</title>
    <desc>Created with Sketch Beta.</desc>
    <defs></defs>
    <g id="1%Cub-|-Business" stroke="none" stroke-width="1" fill="none" fill-rule="evenodd" sketch:type="MSPage">
        <g id="Desktop" sketch:type="MSArtboardGroup" transform="translate(-696.000000, -767.000000)">
            <g id="Zo-werkt-het" sketch:type="MSLayerGroup" transform="translate(138.000000, 483.000000)">
                <g id="Model" transform="translate(559.000000, 139.000000)">
                    <g id="Imported-Layers" transform="translate(0.000000, 145.000000)">
                        <path d="M59.067,119.41 C91.957,119.41 118.619,92.747 118.619,59.858 C118.619,26.968 91.957,0.305 59.067,0.305 C26.178,0.305 -0.485,26.968 -0.485,59.858 C-0.485,92.747 26.178,119.41 59.067,119.41" id="Fill-1" fill="#E8FBED" sketch:type="MSShapeGroup"></path>
                        <path d="M59.067,107.959 C84.627,107.959 105.347,86.424 105.347,59.858 C105.347,33.292 84.627,11.756 59.067,11.756 C33.508,11.756 12.788,33.292 12.788,59.858 C12.788,86.424 33.508,107.959 59.067,107.959" id="Fill-2" fill="#D2F9DC" sketch:type="MSShapeGroup"></path>
                        <text id="-" sketch:type="MSTextLayer" font-family=".Lucida Grande UI" font-size="1.9343" font-weight="normal" fill="#282827">
                            <tspan x="65.804" y="92.7607084"> </tspan>
                        </text>
                        <text id="-" sketch:type="MSTextLayer" font-family=".Lucida Grande UI" font-size="2.3527" font-weight="normal" fill="#282827">
                            <tspan x="63.6433" y="89.3558443"> </tspan>
                        </text>
                        <text id="-" sketch:type="MSTextLayer" font-family=".Lucida Grande UI" font-size="2.7706" font-weight="normal" fill="#282827">
                            <tspan x="61.2628" y="86.9078691"> </tspan>
                        </text>
                        <text id="-" sketch:type="MSTextLayer" font-family=".Lucida Grande UI" font-size="3.1883" font-weight="normal" fill="#282827">
                            <tspan x="59.2345" y="83.4039295"> </tspan>
                        </text>
                        <text id="-" sketch:type="MSTextLayer" font-family=".Lucida Grande UI" font-size="3.6054" font-weight="normal" fill="#282827">
                            <tspan x="57.1538" y="79.8759965"> </tspan>
                        </text>
                        <text id="-" sketch:type="MSTextLayer" font-family=".Lucida Grande UI" font-size="3.8135" font-weight="normal" fill="#282827">
                            <tspan x="55.1786" y="77.59651"> </tspan>
                        </text>
                        <text id="-" sketch:type="MSTextLayer" font-family=".Lucida Grande UI" font-size="4.2287" font-weight="normal" fill="#282827">
                            <tspan x="53.1317" y="73.9709146"> </tspan>
                        </text>
                        <text id="-" sketch:type="MSTextLayer" font-family=".Lucida Grande UI" font-size="4.6425" font-weight="normal" fill="#282827">
                            <tspan x="51.1657" y="70.2940682"> </tspan>
                        </text>
                        <text id="-" sketch:type="MSTextLayer" font-family=".Lucida Grande UI" font-size="5.0548" font-weight="normal" fill="#282827">
                            <tspan x="49.3924" y="67.5699883"> </tspan>
                        </text>
                        <text id="-" sketch:type="MSTextLayer" font-family=".Lucida Grande UI" font-size="5.26" font-weight="normal" fill="#282827">
                            <tspan x="47.6452" y="64.1238172"> </tspan>
                        </text>
                        <text id="-" sketch:type="MSTextLayer" font-family=".Lucida Grande UI" font-size="5.6692" font-weight="normal" fill="#282827">
                            <tspan x="45.9887" y="60.3693883"> </tspan>
                        </text>
                        <text id="-" sketch:type="MSTextLayer" font-family=".Lucida Grande UI" font-size="6.0758" font-weight="normal" fill="#282827">
                            <tspan x="44.3122" y="57.5239215"> </tspan>
                        </text>
                        <text id="-" sketch:type="MSTextLayer" font-family=".Lucida Grande UI" font-size="6.4796" font-weight="normal" fill="#282827">
                            <tspan x="42.818" y="53.7034523"> </tspan>
                        </text>
                        <text id="-" sketch:type="MSTextLayer" font-family=".Lucida Grande UI" font-size="6.6802" font-weight="normal" fill="#282827">
                            <tspan x="41.398" y="50.1057988"> </tspan>
                        </text>
                        <text id="-" sketch:type="MSTextLayer" font-family=".Lucida Grande UI" font-size="7.0792" font-weight="normal" fill="#282827">
                            <tspan x="40.0511" y="47.2167828"> </tspan>
                        </text>
                        <text id="-" sketch:type="MSTextLayer" font-family=".Lucida Grande UI" font-size="7.4743" font-weight="normal" fill="#282827">
                            <tspan x="38.7712" y="43.30356"> </tspan>
                        </text>
                        <text id="-" sketch:type="MSTextLayer" font-family=".Lucida Grande UI" font-size="7.8653" font-weight="normal" fill="#282827">
                            <tspan x="37.541" y="40.3045658"> </tspan>
                        </text>
                        <text id="-" sketch:type="MSTextLayer" font-family=".Lucida Grande UI" font-size="8.0592" font-weight="normal" fill="#282827">
                            <tspan x="36.3771" y="36.6393031"> </tspan>
                        </text>
                        <text id="-" sketch:type="MSTextLayer" font-family=".Lucida Grande UI" font-size="8.4435" font-weight="normal" fill="#282827">
                            <tspan x="35.3452" y="32.6827998"> </tspan>
                        </text>
                        <path d="M33.792,47.715 C31.95,45.221 28.997,43.597 25.66,43.597 C20.074,43.597 15.542,48.123 15.542,53.71 C15.542,55.827 16.197,57.789 17.305,59.417 C13.587,62.042 11.154,66.369 11.154,71.273 C11.154,78.946 17.119,85.226 24.671,85.737 L24.671,105.217 L27.095,105.217 L27.095,85.706 C29.564,85.462 31.844,84.589 33.792,83.264 L33.792,47.715" id="Fill-3" fill="#96CF9F" sketch:type="MSShapeGroup"></path>
                        <path d="M121.17,42.382 C120.499,38.857 117.406,36.189 113.685,36.189 C112.514,36.189 111.408,36.462 110.415,36.935 C109.459,30.978 104.311,26.427 98.088,26.427 C92.716,26.427 88.151,29.821 86.382,34.578 C84.677,33.065 82.444,32.14 79.991,32.14 C74.664,32.14 70.344,36.459 70.344,41.787 C70.344,41.989 70.362,42.182 70.375,42.382 L121.17,42.382" id="Fill-4" fill="#96CF9F" sketch:type="MSShapeGroup"></path>
                        <path d="M22.807,91.493 L13.637,58.087 C13.454,57.434 13.22,57.342 12.982,57.342 C12.745,57.342 12.507,57.434 12.326,58.087 L3.156,91.493 C2.797,92.803 3.614,93.874 4.972,93.874 L12.126,93.874 L12.126,105.217 L14.55,105.217 L14.55,93.874 L20.989,93.874 C22.349,93.874 23.167,92.803 22.807,91.493" id="Fill-5" fill="#37B34B" sketch:type="MSShapeGroup"></path>
                        <path d="M85.576,40.631 L85.576,28.423 L36.269,28.423 L36.269,40.631 L29.787,40.631 L29.787,105.217 L92.058,105.217 L92.058,40.631 L85.576,40.631" id="Fill-6" fill="#282827" sketch:type="MSShapeGroup"></path>
                        <path d="M38.658,47.649 L44.297,47.649 L44.297,54.215 L38.658,54.215 L38.658,47.649 Z" id="Fill-7" fill="#FFFFFF" sketch:type="MSShapeGroup"></path>
                        <path d="M48.38,47.649 L54.02,47.649 L54.02,54.215 L48.38,54.215 L48.38,47.649 Z" id="Fill-8" fill="#FFFFFF" sketch:type="MSShapeGroup"></path>
                        <path d="M58.102,47.649 L63.741,47.649 L63.741,54.215 L58.102,54.215 L58.102,47.649 Z" id="Fill-9" fill="#FFFFFF" sketch:type="MSShapeGroup"></path>
                        <path d="M67.826,47.649 L73.465,47.649 L73.465,54.215 L67.826,54.215 L67.826,47.649 Z" id="Fill-10" fill="#FFFFFF" sketch:type="MSShapeGroup"></path>
                        <path d="M77.548,47.649 L83.188,47.649 L83.188,54.215 L77.548,54.215 L77.548,47.649 Z" id="Fill-11" fill="#FFFFFF" sketch:type="MSShapeGroup"></path>
                        <path d="M38.658,58.761 L44.297,58.761 L44.297,65.326 L38.658,65.326 L38.658,58.761 Z" id="Fill-12" fill="#FFFFFF" sketch:type="MSShapeGroup"></path>
                        <path d="M48.38,58.761 L54.02,58.761 L54.02,65.326 L48.38,65.326 L48.38,58.761 Z" id="Fill-13" fill="#FFFFFF" sketch:type="MSShapeGroup"></path>
                        <path d="M58.102,58.761 L63.741,58.761 L63.741,65.326 L58.102,65.326 L58.102,58.761 Z" id="Fill-14" fill="#FFFFFF" sketch:type="MSShapeGroup"></path>
                        <path d="M67.826,58.761 L73.465,58.761 L73.465,65.326 L67.826,65.326 L67.826,58.761 Z" id="Fill-15" fill="#FFFFFF" sketch:type="MSShapeGroup"></path>
                        <path d="M77.548,58.761 L83.188,58.761 L83.188,65.326 L77.548,65.326 L77.548,58.761 Z" id="Fill-16" fill="#FFFFFF" sketch:type="MSShapeGroup"></path>
                        <path d="M38.658,69.872 L44.297,69.872 L44.297,76.438 L38.658,76.438 L38.658,69.872 Z" id="Fill-17" fill="#FFFFFF" sketch:type="MSShapeGroup"></path>
                        <path d="M48.38,69.872 L54.02,69.872 L54.02,76.438 L48.38,76.438 L48.38,69.872 Z" id="Fill-18" fill="#FFFFFF" sketch:type="MSShapeGroup"></path>
                        <path d="M58.102,69.872 L63.741,69.872 L63.741,76.438 L58.102,76.438 L58.102,69.872 Z" id="Fill-19" fill="#FFFFFF" sketch:type="MSShapeGroup"></path>
                        <path d="M67.826,69.872 L73.465,69.872 L73.465,76.438 L67.826,76.438 L67.826,69.872 Z" id="Fill-20" fill="#FFFFFF" sketch:type="MSShapeGroup"></path>
                        <path d="M77.548,69.872 L83.188,69.872 L83.188,76.438 L77.548,76.438 L77.548,69.872 Z" id="Fill-21" fill="#FFFFFF" sketch:type="MSShapeGroup"></path>
                        <path d="M38.658,80.984 L44.297,80.984 L44.297,87.55 L38.658,87.55 L38.658,80.984 Z" id="Fill-22" fill="#FFFFFF" sketch:type="MSShapeGroup"></path>
                        <path d="M48.38,80.984 L54.02,80.984 L54.02,87.55 L48.38,87.55 L48.38,80.984 Z" id="Fill-23" fill="#FFFFFF" sketch:type="MSShapeGroup"></path>
                        <path d="M58.102,80.984 L63.741,80.984 L63.741,87.55 L58.102,87.55 L58.102,80.984 Z" id="Fill-24" fill="#FFFFFF" sketch:type="MSShapeGroup"></path>
                        <path d="M67.826,80.984 L73.465,80.984 L73.465,87.55 L67.826,87.55 L67.826,80.984 Z" id="Fill-25" fill="#FFFFFF" sketch:type="MSShapeGroup"></path>
                        <path d="M77.548,80.984 L83.188,80.984 L83.188,87.55 L77.548,87.55 L77.548,80.984 Z" id="Fill-26" fill="#FFFFFF" sketch:type="MSShapeGroup"></path>
                    </g>
                </g>
            </g>
        </g>
    </g>
</svg>