<?xml version="1.0" encoding="UTF-8" standalone="no"?>
<svg width="120px" height="123px" viewBox="0 0 120 123" version="1.1" xmlns="http://www.w3.org/2000/svg" xmlns:xlink="http://www.w3.org/1999/xlink" xmlns:sketch="http://www.bohemiancoding.com/sketch/ns">
    <!-- Generator: Sketch Beta 3.1 (8715) - http://www.bohemiancoding.com/sketch -->
    <title>Imported Layers</title>
    <desc>Created with Sketch Beta.</desc>
    <defs></defs>
    <g id="1%Cub-|-Business" stroke="none" stroke-width="1" fill="none" fill-rule="evenodd" sketch:type="MSPage">
        <g id="Desktop" sketch:type="MSArtboardGroup" transform="translate(-911.000000, -621.000000)">
            <g id="Zo-werkt-het" sketch:type="MSLayerGroup" transform="translate(138.000000, 483.000000)">
                <g id="Model" transform="translate(559.000000, 139.000000)" sketch:type="MSShapeGroup">
                    <g id="Imported-Layers" transform="translate(214.000000, 0.000000)">
                        <path d="M59.741,121.265 C92.631,121.265 119.293,94.602 119.293,61.713 C119.293,28.823 92.631,2.161 59.741,2.161 C26.852,2.161 0.189,28.823 0.189,61.713 C0.189,94.602 26.852,121.265 59.741,121.265" id="Fill-1" fill="#E8FBED"></path>
                        <path d="M59.256,109.814 C84.816,109.814 105.536,88.279 105.536,61.713 C105.536,35.146 84.816,13.611 59.256,13.611 C33.697,13.611 12.977,35.146 12.977,61.713 C12.977,88.279 33.697,109.814 59.256,109.814" id="Fill-2" fill="#D2F9DC"></path>
                        <path d="M38.937,37.066 C38.936,37.089 38.934,37.112 38.936,37.137 L39.241,41.508 C39.299,42.34 40.028,42.973 40.859,42.915 L46.671,42.509 C47.503,42.451 48.136,41.724 48.078,40.89 L47.771,36.519 C47.769,36.492 47.765,36.468 47.758,36.443 C47.738,36.444 47.718,36.453 47.697,36.453 L38.937,37.066" id="Fill-3" fill="#074A31"></path>
                        <path d="M37.427,35.905 L36.113,32.088 L35.606,30.463 L32.29,28.718 L30.188,22.239 L30.048,17.596 L32.782,12.051 L37.254,10.147 L43.515,8.911 L50.19,11.965 L52.487,16.857 L54.079,22.032 L52.475,26.007 L49.426,29.042 L47.727,31.957 L47.816,34.867 L43.799,36.689 L37.427,35.905" id="Fill-4" fill="#FFFFFF"></path>
                        <path d="M41.117,3.992 C41.586,3.958 41.94,3.551 41.907,3.082 L41.73,0.54 C41.697,0.071 41.289,-0.282 40.82,-0.251 C40.351,-0.217 39.997,0.19 40.03,0.658 L40.207,3.201 C40.24,3.67 40.648,4.025 41.117,3.992" id="Fill-5" fill="#3DAC53"></path>
                        <path d="M60.179,14.687 L57.636,14.864 C57.167,14.898 56.812,15.305 56.845,15.774 C56.878,16.243 57.286,16.598 57.755,16.565 L60.299,16.387 C60.766,16.354 61.121,15.946 61.087,15.477 C61.054,15.009 60.647,14.654 60.179,14.687" id="Fill-6" fill="#3DAC53"></path>
                        <path d="M25.952,17.08 L23.408,17.258 C22.939,17.291 22.584,17.699 22.618,18.167 C22.651,18.636 23.058,18.991 23.527,18.958 L26.071,18.781 C26.538,18.747 26.893,18.34 26.86,17.871 C26.826,17.402 26.419,17.047 25.952,17.08" id="Fill-7" fill="#3DAC53"></path>
                        <path d="M32.898,5.912 C33.161,6.3 33.69,6.404 34.079,6.142 C34.469,5.879 34.573,5.349 34.31,4.959 L33.049,3.088 C32.785,2.699 32.256,2.596 31.865,2.858 C31.476,3.121 31.373,3.652 31.637,4.041 L32.898,5.912" id="Fill-8" fill="#3DAC53"></path>
                        <path d="M28.693,11.294 C28.9,10.87 28.725,10.361 28.301,10.156 L26.274,9.166 C25.852,8.959 25.343,9.135 25.136,9.559 C24.93,9.982 25.106,10.49 25.528,10.696 L27.555,11.685 C27.978,11.892 28.488,11.716 28.693,11.294" id="Fill-9" fill="#3DAC53"></path>
                        <path d="M57.621,7.286 C57.358,6.897 56.829,6.792 56.44,7.058 L54.569,8.317 C54.18,8.58 54.077,9.109 54.339,9.5 C54.602,9.89 55.131,9.994 55.52,9.729 L57.391,8.468 C57.78,8.206 57.885,7.677 57.621,7.286" id="Fill-10" fill="#3DAC53"></path>
                        <path d="M48.385,5.141 C48.808,5.346 49.318,5.171 49.522,4.748 L50.513,2.722 C50.718,2.299 50.542,1.789 50.12,1.581 C49.697,1.376 49.187,1.552 48.982,1.974 L47.992,4.002 C47.787,4.423 47.963,4.934 48.385,5.141" id="Fill-11" fill="#3DAC53"></path>
                        <path d="M48.426,30.043 C48.278,30.36 48.179,30.625 48.113,30.88 C47.852,31.886 47.495,33.908 47.495,34.488 L38.732,35.101 C38.653,34.524 38.026,32.599 37.619,31.614 C37.481,31.281 37.29,30.952 37.022,30.579 C36.941,30.464 36.836,30.372 36.715,30.3 C33.545,28.459 31.502,25.18 31.247,21.529 C30.823,15.463 35.411,10.184 41.478,9.76 C47.544,9.335 52.825,13.925 53.249,19.99 C53.515,23.79 51.828,27.406 48.737,29.662 C48.603,29.76 48.495,29.891 48.426,30.043 M41.34,7.789 C34.188,8.29 28.777,14.515 29.275,21.667 C29.572,25.898 31.905,29.704 35.531,31.894 C35.648,32.07 35.734,32.227 35.792,32.37 C36.228,33.419 36.715,35.044 36.772,35.339 C36.863,36.321 37.822,37.144 38.808,37.074 L38.937,37.066 L47.697,36.453 C47.718,36.451 47.738,36.445 47.758,36.443 C48.716,36.339 49.516,35.414 49.47,34.451 C49.485,34.15 49.742,32.473 50.025,31.374 C50.047,31.291 50.078,31.2 50.121,31.096 C53.624,28.426 55.526,24.244 55.218,19.853 C54.719,12.701 48.494,7.289 41.34,7.789" id="Fill-12" fill="#3DAC53"></path>
                        <path d="M43.943,45.257 C45.022,45.181 45.872,44.399 46.099,43.396 L41.549,43.715 C41.915,44.676 42.864,45.332 43.943,45.257" id="Fill-13" fill="#282827"></path>
                        <path d="M79.398,38.132 C79.392,38.149 79.386,38.166 79.383,38.185 L78.74,41.492 C78.617,42.122 79.033,42.737 79.662,42.859 L84.059,43.713 C84.688,43.836 85.303,43.422 85.425,42.791 L86.067,39.484 C86.071,39.463 86.073,39.444 86.073,39.424 C86.057,39.422 86.041,39.424 86.025,39.419 L79.398,38.132" id="Fill-14" fill="#074A31"></path>
                        <path d="M78.507,36.97 L78.291,33.873 L78.237,32.566 L76.122,30.611 L75.849,25.381 L76.669,21.905 L79.803,18.33 L83.502,17.806 L88.398,18.133 L92.748,21.729 L93.481,25.819 L93.634,29.979 L91.652,32.612 L88.783,34.26 L86.942,36.087 L86.429,38.265 L83.083,38.819 L78.507,36.97" id="Fill-15" fill="#FFFFFF"></path>
                        <path d="M87.595,14.003 C87.95,14.071 88.295,13.839 88.363,13.484 L88.737,11.561 C88.806,11.206 88.573,10.863 88.219,10.793 C87.864,10.725 87.52,10.957 87.451,11.31 L87.077,13.235 C87.008,13.59 87.24,13.934 87.595,14.003" id="Fill-16" fill="#3DAC53"></path>
                        <path d="M99.625,25.738 L97.701,25.364 C97.346,25.295 97.002,25.527 96.933,25.882 C96.864,26.237 97.096,26.581 97.451,26.65 L99.376,27.024 C99.729,27.093 100.074,26.86 100.142,26.505 C100.211,26.151 99.979,25.806 99.625,25.738" id="Fill-17" fill="#3DAC53"></path>
                        <path d="M73.729,20.707 L71.805,20.333 C71.45,20.264 71.106,20.496 71.037,20.851 C70.968,21.206 71.2,21.55 71.555,21.619 L73.48,21.993 C73.833,22.062 74.178,21.83 74.246,21.475 C74.315,21.12 74.083,20.775 73.729,20.707" id="Fill-18" fill="#3DAC53"></path>
                        <path d="M81.11,13.794 C81.228,14.135 81.6,14.317 81.941,14.2 C82.283,14.082 82.466,13.709 82.348,13.367 L81.783,11.727 C81.665,11.385 81.293,11.204 80.95,11.321 C80.609,11.439 80.427,11.812 80.545,12.154 L81.11,13.794" id="Fill-19" fill="#3DAC53"></path>
                        <path d="M76.916,16.955 C77.155,16.681 77.125,16.268 76.851,16.031 L75.543,14.893 C75.27,14.656 74.858,14.685 74.619,14.959 C74.383,15.232 74.412,15.644 74.685,15.881 L75.993,17.019 C76.266,17.257 76.68,17.228 76.916,16.955" id="Fill-20" fill="#3DAC53"></path>
                        <path d="M99.198,19.733 C99.079,19.391 98.708,19.208 98.366,19.328 L96.726,19.891 C96.384,20.009 96.203,20.381 96.319,20.724 C96.437,21.065 96.809,21.248 97.151,21.129 L98.791,20.564 C99.133,20.447 99.315,20.076 99.198,19.733" id="Fill-21" fill="#3DAC53"></path>
                        <path d="M92.765,16.302 C93.038,16.539 93.452,16.51 93.687,16.237 L94.826,14.929 C95.063,14.656 95.034,14.242 94.761,14.004 C94.488,13.767 94.074,13.796 93.838,14.069 L92.7,15.378 C92.463,15.65 92.492,16.064 92.765,16.302" id="Fill-22" fill="#3DAC53"></path>
                        <path d="M87.842,34.805 C87.669,35.01 87.543,35.187 87.443,35.364 C87.049,36.059 86.381,37.489 86.266,37.92 L79.636,36.632 C79.692,36.188 79.61,34.634 79.503,33.822 C79.467,33.547 79.391,33.264 79.266,32.934 C79.228,32.833 79.169,32.743 79.093,32.666 C77.106,30.668 76.24,27.826 76.777,25.064 C77.669,20.475 82.127,17.467 86.716,18.358 C91.306,19.25 94.315,23.709 93.424,28.298 C92.865,31.172 90.893,33.522 88.149,34.584 C88.03,34.629 87.924,34.705 87.842,34.805 M87.006,16.868 C81.595,15.817 76.337,19.364 75.285,24.774 C74.664,27.975 75.64,31.266 77.896,33.614 C77.949,33.768 77.982,33.902 77.996,34.019 C78.111,34.885 78.15,36.189 78.133,36.42 C78.006,37.166 78.554,37.969 79.3,38.113 L79.398,38.133 L86.025,39.42 C86.041,39.423 86.058,39.422 86.073,39.425 C86.805,39.537 87.583,39.01 87.74,38.286 C87.811,38.065 88.335,36.87 88.764,36.111 C88.797,36.054 88.839,35.992 88.891,35.923 C92.024,34.638 94.269,31.91 94.913,28.587 C95.965,23.177 92.418,17.919 87.006,16.868" id="Fill-23" fill="#3DAC53"></path>
                        <path d="M81.486,45.212 C82.302,45.37 83.089,44.958 83.457,44.259 L80.015,43.59 C80.096,44.376 80.67,45.053 81.486,45.212" id="Fill-24" fill="#282827"></path>
                        <path d="M52.153,102.846 L69.077,102.846 L69.077,79.089 C62.279,78.456 56.502,78.631 52.153,79.031 L52.153,102.846" id="Fill-25" fill="#282827"></path>
                        <path d="M50.591,79.191 C45.958,79.709 43.314,80.429 43.314,80.429 L43.314,102.846 L50.591,102.846 L50.591,79.191" id="Fill-26" fill="#282827"></path>
                        <path d="M70.638,79.248 L70.638,102.846 L78.529,102.846 L78.529,80.429 C75.781,79.905 73.147,79.523 70.638,79.248" id="Fill-27" fill="#282827"></path>
                        <path d="M52.947,62.755 C52.947,67.372 56.69,71.117 61.308,71.117 C65.925,71.117 69.669,67.372 69.669,62.755 C69.669,58.137 65.925,54.394 61.308,54.394 C56.69,54.394 52.947,58.137 52.947,62.755" id="Fill-28" fill="#FFFFFF"></path>
                        <path d="M61.042,70.277 C64.912,70.277 68.048,67.139 68.048,63.269 C68.048,59.399 64.912,56.26 61.042,56.26 C57.174,56.26 54.035,59.399 54.035,63.269 C54.035,67.139 57.174,70.277 61.042,70.277 M61.042,49.604 C68.587,49.604 74.707,55.723 74.707,63.269 C74.707,70.816 68.587,76.931 61.042,76.931 C53.497,76.931 47.379,70.816 47.379,63.269 C47.379,55.723 53.497,49.604 61.042,49.604" id="Fill-29" fill="#37B34B"></path>
                        <path d="M89.736,87.75 L101.582,87.75 L101.582,71.122 C96.824,70.678 92.78,70.801 89.736,71.081 L89.736,87.75" id="Fill-30" fill="#282827"></path>
                        <path d="M88.643,71.193 C85.4,71.556 83.55,72.06 83.55,72.06 L83.55,87.75 L88.643,87.75 L88.643,71.193" id="Fill-31" fill="#282827"></path>
                        <path d="M102.675,71.233 L102.675,87.75 L108.198,87.75 L108.198,72.06 C106.274,71.693 104.431,71.425 102.675,71.233" id="Fill-32" fill="#282827"></path>
                        <path d="M90.292,59.688 C90.292,62.92 92.912,65.542 96.144,65.542 C99.376,65.542 101.996,62.92 101.996,59.688 C101.996,56.456 99.376,53.836 96.144,53.836 C92.912,53.836 90.292,56.456 90.292,59.688" id="Fill-33" fill="#FFFFFF"></path>
                        <path d="M95.958,64.953 C98.667,64.953 100.862,62.757 100.862,60.049 C100.862,57.34 98.667,55.143 95.958,55.143 C93.25,55.143 91.053,57.34 91.053,60.049 C91.053,62.757 93.25,64.953 95.958,64.953 M95.958,50.484 C101.239,50.484 105.523,54.766 105.523,60.049 C105.523,65.331 101.239,69.611 95.958,69.611 C90.677,69.611 86.394,65.331 86.394,60.049 C86.394,54.766 90.677,50.484 95.958,50.484" id="Fill-34" fill="#37B34B"></path>
                        <path d="M18.765,87.75 L30.611,87.75 L30.611,71.122 C25.853,70.678 21.81,70.801 18.765,71.081 L18.765,87.75" id="Fill-35" fill="#282827"></path>
                        <path d="M17.673,71.193 C14.429,71.556 12.579,72.06 12.579,72.06 L12.579,87.75 L17.673,87.75 L17.673,71.193" id="Fill-36" fill="#282827"></path>
                        <path d="M31.704,71.233 L31.704,87.75 L37.227,87.75 L37.227,72.06 C35.304,71.693 33.46,71.425 31.704,71.233" id="Fill-37" fill="#282827"></path>
                        <path d="M19.321,59.688 C19.321,62.92 21.942,65.542 25.174,65.542 C28.406,65.542 31.026,62.92 31.026,59.688 C31.026,56.456 28.406,53.836 25.174,53.836 C21.942,53.836 19.321,56.456 19.321,59.688" id="Fill-38" fill="#FFFFFF"></path>
                        <path d="M24.988,64.953 C27.696,64.953 29.892,62.757 29.892,60.049 C29.892,57.34 27.696,55.143 24.988,55.143 C22.28,55.143 20.083,57.34 20.083,60.049 C20.083,62.757 22.28,64.953 24.988,64.953 M24.988,50.484 C30.269,50.484 34.552,54.766 34.552,60.049 C34.552,65.331 30.269,69.611 24.988,69.611 C19.706,69.611 15.424,65.331 15.424,60.049 C15.424,54.766 19.706,50.484 24.988,50.484" id="Fill-39" fill="#37B34B"></path>
                    </g>
                </g>
            </g>
        </g>
    </g>
</svg>