<?xml version="1.0" encoding="iso-8859-1"?>
<!-- Generator: Adobe Illustrator 16.0.0, SVG Export Plug-In . SVG Version: 6.00 Build 0)  -->
<!DOCTYPE svg PUBLIC "-//W3C//DTD SVG 1.1//EN" "http://www.w3.org/Graphics/SVG/1.1/DTD/svg11.dtd">
<svg version="1.1" id="Layer_1" xmlns="http://www.w3.org/2000/svg" xmlns:xlink="http://www.w3.org/1999/xlink" x="0px" y="0px"
	 width="19px" height="16px" viewBox="0 0 19 16" style="enable-background:new 0 0 19 16;" xml:space="preserve">
<g id="Add_User_1">
	<path d="M18.5,6H17V4.5C17,4.224,16.776,4,16.5,4h-1C15.224,4,15,4.224,15,4.5V6h-1.5C13.224,6,13,6.224,13,6.5v1
		C13,7.776,13.224,8,13.5,8H15v1.5c0,0.276,0.224,0.5,0.5,0.5h1c0.276,0,0.5-0.224,0.5-0.5V8h1.5C18.776,8,19,7.776,19,7.5v-1
		C19,6.224,18.776,6,18.5,6z"/>
	<path d="M10.867,8.17C11.592,7.289,12,6.178,12,5c0-2.757-2.243-5-5-5S2,2.243,2,5c0,1.178,0.408,2.289,1.133,3.17
		C1.213,9.447,0,11.635,0,14v1c0,0.553,0.448,1,1,1h12c0.552,0,1-0.447,1-1v-1C14,11.635,12.787,9.447,10.867,8.17z M2,14
		c0-2.068,1.299-3.946,3.232-4.674c0.355-0.133,0.604-0.457,0.643-0.835c0.038-0.378-0.141-0.745-0.462-0.947
		C4.528,6.987,4,6.037,4,5c0-1.654,1.346-3,3-3s3,1.346,3,3c0,1.037-0.528,1.987-1.413,2.544c-0.321,0.202-0.5,0.569-0.462,0.947
		c0.039,0.378,0.288,0.702,0.643,0.835C10.701,10.054,12,11.932,12,14H2z"/>
</g>
<g>
</g>
<g>
</g>
<g>
</g>
<g>
</g>
<g>
</g>
<g>
</g>
<g>
</g>
<g>
</g>
<g>
</g>
<g>
</g>
<g>
</g>
<g>
</g>
<g>
</g>
<g>
</g>
<g>
</g>
</svg>
