<?xml version="1.0" encoding="iso-8859-1"?>
<!-- Generator: Adobe Illustrator 16.0.0, SVG Export Plug-In . SVG Version: 6.00 Build 0)  -->
<!DOCTYPE svg PUBLIC "-//W3C//DTD SVG 1.1//EN" "http://www.w3.org/Graphics/SVG/1.1/DTD/svg11.dtd">
<svg version="1.1" id="Layer_1" xmlns="http://www.w3.org/2000/svg" xmlns:xlink="http://www.w3.org/1999/xlink" x="0px" y="0px"
	 width="14px" height="16px" viewBox="0 0 14 16" style="enable-background:new 0 0 14 16;" xml:space="preserve">
<g id="Add_to_Clipboard_1_x2C__Copy_5">
	<path style="fill-rule:evenodd;clip-rule:evenodd;" d="M13,1h-3c0-0.276-0.447-1-1-1H5C4.447,0,4,0.724,4,1H1C0.447,1,0,1.447,0,2
		v13c0,0.553,0.447,1,1,1h12c0.553,0,1-0.447,1-1V2C14,1.447,13.553,1,13,1z M6,2h2v1H6V2z M12,14H2V3h2v1c0,0.553,0.447,1,1,1h4
		c0.553,0,1-0.447,1-1V3h2V14z"/>
	<path style="fill-rule:evenodd;clip-rule:evenodd;" d="M7.5,6h-1C6.224,6,6,6.224,6,6.5V8H4.5C4.224,8,4,8.224,4,8.5v1
		C4,9.776,4.224,10,4.5,10H6v1.5C6,11.776,6.224,12,6.5,12h1C7.776,12,8,11.776,8,11.5V10h1.5C9.776,10,10,9.776,10,9.5v-1
		C10,8.224,9.776,8,9.5,8H8V6.5C8,6.224,7.776,6,7.5,6z"/>
</g>
<g>
</g>
<g>
</g>
<g>
</g>
<g>
</g>
<g>
</g>
<g>
</g>
<g>
</g>
<g>
</g>
<g>
</g>
<g>
</g>
<g>
</g>
<g>
</g>
<g>
</g>
<g>
</g>
<g>
</g>
</svg>
