<?xml version="1.0" encoding="iso-8859-1"?>
<!-- Generator: Adobe Illustrator 16.0.0, SVG Export Plug-In . SVG Version: 6.00 Build 0)  -->
<!DOCTYPE svg PUBLIC "-//W3C//DTD SVG 1.1//EN" "http://www.w3.org/Graphics/SVG/1.1/DTD/svg11.dtd">
<svg version="1.1" id="Layer_1" xmlns="http://www.w3.org/2000/svg" xmlns:xlink="http://www.w3.org/1999/xlink" x="0px" y="0px"
	 width="16px" height="16px" viewBox="0 0 16 16" style="enable-background:new 0 0 16 16;" xml:space="preserve">
<g id="Align_Bottom_1">
	<path d="M15,0H1C0.447,0,0,0.447,0,1v14c0,0.553,0.447,1,1,1h14c0.553,0,1-0.447,1-1V1C16,0.447,15.553,0,15,0z M14,14H2V2h12V14z"
		/>
	<path d="M6.5,6h-1C5.224,6,5,6.224,5,6.5v5C5,11.776,5.224,12,5.5,12h1C6.776,12,7,11.776,7,11.5v-5C7,6.224,6.776,6,6.5,6z"/>
	<path d="M10.5,8h-1C9.224,8,9,8.224,9,8.5v3C9,11.776,9.224,12,9.5,12h1c0.276,0,0.5-0.224,0.5-0.5v-3C11,8.224,10.776,8,10.5,8z"
		/>
</g>
<g>
</g>
<g>
</g>
<g>
</g>
<g>
</g>
<g>
</g>
<g>
</g>
<g>
</g>
<g>
</g>
<g>
</g>
<g>
</g>
<g>
</g>
<g>
</g>
<g>
</g>
<g>
</g>
<g>
</g>
</svg>
