<?xml version="1.0" encoding="iso-8859-1"?>
<!-- Generator: Adobe Illustrator 16.0.0, SVG Export Plug-In . SVG Version: 6.00 Build 0)  -->
<!DOCTYPE svg PUBLIC "-//W3C//DTD SVG 1.1//EN" "http://www.w3.org/Graphics/SVG/1.1/DTD/svg11.dtd">
<svg version="1.1" id="Layer_1" xmlns="http://www.w3.org/2000/svg" xmlns:xlink="http://www.w3.org/1999/xlink" x="0px" y="0px"
	 width="16px" height="16px" viewBox="0 0 16 16" style="enable-background:new 0 0 16 16;" xml:space="preserve">
<path id="Anchor_1" style="fill-rule:evenodd;clip-rule:evenodd;" d="M13.1,10.1C12.22,11.56,10.74,12.61,9,12.91V9h1
	c0.553,0,1-0.447,1-1s-0.447-1-1-1H9V6V5.836C10.194,5.44,11,4.329,11,3c0-1.66-1.28-3-2.94-3c-1.649,0-3,1.34-3,3
	c0,1.284,0.812,2.368,1.94,2.797V6v1H6C5.447,7,5,7.447,5,8s0.447,1,1,1h1v3.91c-1.74-0.3-3.22-1.351-4.1-2.811l0.746-0.746
	C3.842,9.158,3.776,9,3.5,9h-3C0.224,9,0,9.224,0,9.5v3c0,0.276,0.158,0.342,0.354,0.146L1.22,11.78C2.34,13.29,4.02,14.58,6,15
	l0.646,0.646C6.842,15.842,7.224,16,7.5,16h1c0.276,0,0.658-0.158,0.854-0.354L10,15c2.029-0.41,3.64-1.68,4.78-3.22l0.866,0.866
	C15.842,12.842,16,12.776,16,12.5v-3C16,9.224,15.776,9,15.5,9h-3c-0.276,0-0.342,0.158-0.146,0.354L13.1,10.1z M9,3
	c0,0.553-0.447,1-1,1S7,3.553,7,3s0.447-1,1-1S9,2.447,9,3z"/>
<g>
</g>
<g>
</g>
<g>
</g>
<g>
</g>
<g>
</g>
<g>
</g>
<g>
</g>
<g>
</g>
<g>
</g>
<g>
</g>
<g>
</g>
<g>
</g>
<g>
</g>
<g>
</g>
<g>
</g>
</svg>
