<?xml version="1.0" encoding="iso-8859-1"?>
<!-- Generator: Adobe Illustrator 16.0.0, SVG Export Plug-In . SVG Version: 6.00 Build 0)  -->
<!DOCTYPE svg PUBLIC "-//W3C//DTD SVG 1.1//EN" "http://www.w3.org/Graphics/SVG/1.1/DTD/svg11.dtd">
<svg version="1.1" id="Layer_1" xmlns="http://www.w3.org/2000/svg" xmlns:xlink="http://www.w3.org/1999/xlink" x="0px" y="0px"
	 width="16px" height="16px" viewBox="0 0 16 16" style="enable-background:new 0 0 16 16;" xml:space="preserve">
<path id="Bag_1" d="M11.618,0H4.382c-0.553,0-0.8,0.4-0.553,0.895l1.765,3.529C2.356,5.438,0,8.465,0,12.031V15c0,0.553,0.447,1,1,1
	h14c0.553,0,1-0.447,1-1v-3c0-3.539-2.356-6.543-5.6-7.563l1.771-3.542C12.418,0.4,12.171,0,11.618,0z M6.618,2h2.764L8.341,4.081
	C8.217,4.075,8.095,4.062,7.969,4.062c-0.105,0-0.207,0.012-0.312,0.016L6.618,2z M14,14H2v-1.969C2,8.74,4.678,6.062,7.969,6.062
	C11.294,6.062,14,8.726,14,12V14z"/>
<g>
</g>
<g>
</g>
<g>
</g>
<g>
</g>
<g>
</g>
<g>
</g>
<g>
</g>
<g>
</g>
<g>
</g>
<g>
</g>
<g>
</g>
<g>
</g>
<g>
</g>
<g>
</g>
<g>
</g>
</svg>
