<?xml version="1.0" encoding="iso-8859-1"?>
<!-- Generator: Adobe Illustrator 16.0.0, SVG Export Plug-In . SVG Version: 6.00 Build 0)  -->
<!DOCTYPE svg PUBLIC "-//W3C//DTD SVG 1.1//EN" "http://www.w3.org/Graphics/SVG/1.1/DTD/svg11.dtd">
<svg version="1.1" id="Layer_1" xmlns="http://www.w3.org/2000/svg" xmlns:xlink="http://www.w3.org/1999/xlink" x="0px" y="0px"
	 width="16px" height="14px" viewBox="0 0 16 14" style="enable-background:new 0 0 16 14;" xml:space="preserve">
<path id="Basket_1" d="M15.788,4.385C15.599,4.142,15.309,4,15,4h-2V1c0-0.553-0.447-1-1-1H4C3.447,0,3,0.447,3,1v3H1
	C0.691,4,0.401,4.142,0.212,4.385C0.022,4.627-0.045,4.943,0.029,5.242l2,8C2.141,13.688,2.541,14,3,14h10
	c0.459,0,0.859-0.312,0.971-0.758l2-8C16.045,4.943,15.978,4.627,15.788,4.385z M5,12H3.781l-0.5-2H5V12z M5,8H2.781l-0.5-2H5V8z
	 M5,2h6v2H5V2z M9,12H7v-2h2V12z M9,8H7V6h2V8z M12.219,12H11v-2h1.719L12.219,12z M13.219,8H11V6h2.719L13.219,8z"/>
<g>
</g>
<g>
</g>
<g>
</g>
<g>
</g>
<g>
</g>
<g>
</g>
<g>
</g>
<g>
</g>
<g>
</g>
<g>
</g>
<g>
</g>
<g>
</g>
<g>
</g>
<g>
</g>
<g>
</g>
</svg>
