<?xml version="1.0" encoding="iso-8859-1"?>
<!-- Generator: Adobe Illustrator 16.0.0, SVG Export Plug-In . SVG Version: 6.00 Build 0)  -->
<!DOCTYPE svg PUBLIC "-//W3C//DTD SVG 1.1//EN" "http://www.w3.org/Graphics/SVG/1.1/DTD/svg11.dtd">
<svg version="1.1" id="Layer_1" xmlns="http://www.w3.org/2000/svg" xmlns:xlink="http://www.w3.org/1999/xlink" x="0px" y="0px"
	 width="16px" height="11px" viewBox="0 0 16 11" style="enable-background:new 0 0 16 11;" xml:space="preserve">
<g id="Battery_Full_1">
	<path style="fill-rule:evenodd;clip-rule:evenodd;" d="M3.5,8h1C4.776,8,5,7.776,5,7.5v-4C5,3.224,4.776,3,4.5,3h-1
		C3.224,3,3,3.224,3,3.5v4C3,7.776,3.224,8,3.5,8z"/>
	<path style="fill-rule:evenodd;clip-rule:evenodd;" d="M6.5,8h1C7.776,8,8,7.776,8,7.5v-4C8,3.224,7.776,3,7.5,3h-1
		C6.224,3,6,3.224,6,3.5v4C6,7.776,6.224,8,6.5,8z"/>
	<path style="fill-rule:evenodd;clip-rule:evenodd;" d="M9.5,8h1C10.776,8,11,7.776,11,7.5v-4C11,3.224,10.776,3,10.5,3h-1
		C9.224,3,9,3.224,9,3.5v4C9,7.776,9.224,8,9.5,8z"/>
	<path style="fill-rule:evenodd;clip-rule:evenodd;" d="M15,3h-1V1c0-0.553-0.447-1-1-1H1C0.448,0,0,0.447,0,1v9
		c0,0.553,0.448,1,1,1h12c0.553,0,1-0.447,1-1V8h1c0.553,0,1-0.447,1-1V4C16,3.447,15.553,3,15,3z M12,9H2V2h10V9z"/>
</g>
<g>
</g>
<g>
</g>
<g>
</g>
<g>
</g>
<g>
</g>
<g>
</g>
<g>
</g>
<g>
</g>
<g>
</g>
<g>
</g>
<g>
</g>
<g>
</g>
<g>
</g>
<g>
</g>
<g>
</g>
</svg>
