<?xml version="1.0" encoding="iso-8859-1"?>
<!-- Generator: Adobe Illustrator 16.0.0, SVG Export Plug-In . SVG Version: 6.00 Build 0)  -->
<!DOCTYPE svg PUBLIC "-//W3C//DTD SVG 1.1//EN" "http://www.w3.org/Graphics/SVG/1.1/DTD/svg11.dtd">
<svg version="1.1" id="Layer_1" xmlns="http://www.w3.org/2000/svg" xmlns:xlink="http://www.w3.org/1999/xlink" x="0px" y="0px"
	 width="16px" height="11px" viewBox="0 0 16 11" style="enable-background:new 0 0 16 11;" xml:space="preserve">
<g id="Battery_Dead_1">
	<path d="M15,3h-1V1c0-0.553-0.447-1-1-1H1C0.448,0,0,0.447,0,1v9c0,0.553,0.448,1,1,1h12c0.553,0,1-0.447,1-1V8h1
		c0.553,0,1-0.447,1-1V4C16,3.447,15.553,3,15,3z M12,9H2V2h10V9z"/>
	<path d="M5.105,7.391l0.504,0.506c0.14,0.139,0.366,0.139,0.506,0L7.5,6.51l1.385,1.387c0.14,0.139,0.366,0.139,0.505,0
		l0.505-0.506c0.14-0.139,0.14-0.365,0-0.505L8.51,5.5l1.385-1.385c0.14-0.14,0.14-0.366,0-0.506L9.391,3.104
		c-0.14-0.14-0.365-0.14-0.505,0L7.5,4.49L6.115,3.104c-0.14-0.14-0.366-0.14-0.506,0L5.105,3.609c-0.14,0.14-0.14,0.366,0,0.506
		L6.49,5.5L5.105,6.886C4.965,7.025,4.965,7.252,5.105,7.391z"/>
</g>
<g>
</g>
<g>
</g>
<g>
</g>
<g>
</g>
<g>
</g>
<g>
</g>
<g>
</g>
<g>
</g>
<g>
</g>
<g>
</g>
<g>
</g>
<g>
</g>
<g>
</g>
<g>
</g>
<g>
</g>
</svg>
