<?xml version="1.0" encoding="iso-8859-1"?>
<!-- Generator: Adobe Illustrator 16.0.0, SVG Export Plug-In . SVG Version: 6.00 Build 0)  -->
<!DOCTYPE svg PUBLIC "-//W3C//DTD SVG 1.1//EN" "http://www.w3.org/Graphics/SVG/1.1/DTD/svg11.dtd">
<svg version="1.1" id="Layer_1" xmlns="http://www.w3.org/2000/svg" xmlns:xlink="http://www.w3.org/1999/xlink" x="0px" y="0px"
	 width="16px" height="11px" viewBox="0 0 16 11" style="enable-background:new 0 0 16 11;" xml:space="preserve">
<g id="Battery_Charging_1">
	<path style="fill-rule:evenodd;clip-rule:evenodd;" d="M3.5,7H6c0,0.005,0,0.039,0,0.224C6,7.5,6.448,8,7,8h1.5H9V7h2V6H9V5h2V4H9
		V3H8.5H7C6.448,3,6,3.724,6,4H3.5C3.224,4,3,4.224,3,4.5v2C3,6.776,3.224,7,3.5,7z"/>
	<path style="fill-rule:evenodd;clip-rule:evenodd;" d="M15,3h-1V1c0-0.553-0.447-1-1-1H1C0.448,0,0,0.447,0,1v9
		c0,0.553,0.448,1,1,1h12c0.553,0,1-0.447,1-1V8h1c0.553,0,1-0.447,1-1V4C16,3.447,15.553,3,15,3z M12,9H2V2h10V9z"/>
</g>
<g>
</g>
<g>
</g>
<g>
</g>
<g>
</g>
<g>
</g>
<g>
</g>
<g>
</g>
<g>
</g>
<g>
</g>
<g>
</g>
<g>
</g>
<g>
</g>
<g>
</g>
<g>
</g>
<g>
</g>
</svg>
