<?xml version="1.0" encoding="iso-8859-1"?>
<!-- Generator: Adobe Illustrator 16.0.0, SVG Export Plug-In . SVG Version: 6.00 Build 0)  -->
<!DOCTYPE svg PUBLIC "-//W3C//DTD SVG 1.1//EN" "http://www.w3.org/Graphics/SVG/1.1/DTD/svg11.dtd">
<svg version="1.1" id="Layer_1" xmlns="http://www.w3.org/2000/svg" xmlns:xlink="http://www.w3.org/1999/xlink" x="0px" y="0px"
	 width="14px" height="16px" viewBox="0 0 14 16" style="enable-background:new 0 0 14 16;" xml:space="preserve">
<path id="Book_5" d="M13,0h-3H7H3C1.34,0,0,1.34,0,3v10c0,1.66,1.34,3,3,3h10c0.553,0,1-0.447,1-1v-4V1C14,0.447,13.553,0,13,0z
	 M12,14H5.816H3c-0.55,0-1-0.45-1-1s0.45-1,1-1h9V14z M3,10c-0.353,0-0.686,0.072-1,0.184V3c0-0.55,0.45-1,1-1h4v4.5
	c0,0.276,0.135,0.32,0.3,0.1l1.2-1.256L9.7,6.6C9.865,6.82,10,6.776,10,6.5V2h2v8H3z"/>
<g>
</g>
<g>
</g>
<g>
</g>
<g>
</g>
<g>
</g>
<g>
</g>
<g>
</g>
<g>
</g>
<g>
</g>
<g>
</g>
<g>
</g>
<g>
</g>
<g>
</g>
<g>
</g>
<g>
</g>
</svg>
