<?xml version="1.0" encoding="iso-8859-1"?>
<!-- Generator: Adobe Illustrator 16.0.0, SVG Export Plug-In . SVG Version: 6.00 Build 0)  -->
<!DOCTYPE svg PUBLIC "-//W3C//DTD SVG 1.1//EN" "http://www.w3.org/Graphics/SVG/1.1/DTD/svg11.dtd">
<svg version="1.1" id="Layer_1" xmlns="http://www.w3.org/2000/svg" xmlns:xlink="http://www.w3.org/1999/xlink" x="0px" y="0px"
	 width="14px" height="16px" viewBox="0 0 14 16" style="enable-background:new 0 0 14 16;" xml:space="preserve">
<g id="Book_6">
	<path d="M13,0H3C1.34,0,0,1.34,0,3v10c0,1.66,1.34,3,3,3h10c0.553,0,1-0.447,1-1v-4V1C14,0.447,13.553,0,13,0z M12,14H5.816H3
		c-0.55,0-1-0.45-1-1s0.45-1,1-1h9V14z M12,10H3c-0.353,0-0.686,0.072-1,0.184V3c0-0.55,0.45-1,1-1h9V10z"/>
	<path d="M4.5,8h5C9.776,8,10,7.776,10,7.5v-1C10,6.224,9.776,6,9.5,6h-5C4.224,6,4,6.224,4,6.5v1C4,7.776,4.224,8,4.5,8z"/>
	<path d="M4.5,5h5C9.776,5,10,4.776,10,4.5v-1C10,3.224,9.776,3,9.5,3h-5C4.224,3,4,3.224,4,3.5v1C4,4.776,4.224,5,4.5,5z"/>
</g>
<g>
</g>
<g>
</g>
<g>
</g>
<g>
</g>
<g>
</g>
<g>
</g>
<g>
</g>
<g>
</g>
<g>
</g>
<g>
</g>
<g>
</g>
<g>
</g>
<g>
</g>
<g>
</g>
<g>
</g>
</svg>
