<?xml version="1.0" encoding="iso-8859-1"?>
<!-- Generator: Adobe Illustrator 16.0.0, SVG Export Plug-In . SVG Version: 6.00 Build 0)  -->
<!DOCTYPE svg PUBLIC "-//W3C//DTD SVG 1.1//EN" "http://www.w3.org/Graphics/SVG/1.1/DTD/svg11.dtd">
<svg version="1.1" id="Layer_1" xmlns="http://www.w3.org/2000/svg" xmlns:xlink="http://www.w3.org/1999/xlink" x="0px" y="0px"
	 width="14px" height="16px" viewBox="0 0 14 16" style="enable-background:new 0 0 14 16;" xml:space="preserve">
<path id="Book_3" d="M13,0H3C1.34,0,0,1.34,0,3v10c0,1.66,1.34,3,3,3h10c0.553,0,1-0.447,1-1V1C14,0.447,13.553,0,13,0z M3,14
	c-0.55,0-1-0.45-1-1V5.816C2.314,5.928,2.647,6,3,6h4v4.5c0,0.276,0.15,0.334,0.334,0.129L8.5,9.334l1.166,1.295
	C9.85,10.834,10,10.776,10,10.5V6h2v8H3z M12,4H3C2.45,4,2,3.55,2,3s0.45-1,1-1h9V4z"/>
<g>
</g>
<g>
</g>
<g>
</g>
<g>
</g>
<g>
</g>
<g>
</g>
<g>
</g>
<g>
</g>
<g>
</g>
<g>
</g>
<g>
</g>
<g>
</g>
<g>
</g>
<g>
</g>
<g>
</g>
</svg>
