<?xml version="1.0" encoding="iso-8859-1"?>
<!-- Generator: Adobe Illustrator 16.0.0, SVG Export Plug-In . SVG Version: 6.00 Build 0)  -->
<!DOCTYPE svg PUBLIC "-//W3C//DTD SVG 1.1//EN" "http://www.w3.org/Graphics/SVG/1.1/DTD/svg11.dtd">
<svg version="1.1" id="Layer_1" xmlns="http://www.w3.org/2000/svg" xmlns:xlink="http://www.w3.org/1999/xlink" x="0px" y="0px"
	 width="15.805px" height="15.923px" viewBox="0 0 15.805 15.923" style="enable-background:new 0 0 15.805 15.923;"
	 xml:space="preserve">
<g id="Brush_1_x2C__Paint_1">
	<path style="fill-rule:evenodd;clip-rule:evenodd;" d="M8.882,4.853L5.368,8.324c-0.196,0.194-0.145,0.43,0.097,0.563
		c0.609,0.337,1.112,0.844,1.449,1.459c0.132,0.242,0.367,0.294,0.561,0.098c0.977-0.989,2.178-2.204,3.478-3.521
		c3.274-3.313,5.314-6.281,4.762-6.834C15.163-0.462,12.195,1.578,8.882,4.853z"/>
	<path d="M3.718,9.924c-0.989,0-1.909,0.701-2.138,1.669c-0.262,1.022-0.579,2.527-1.387,3.661
		c-0.351,0.491-0.219,0.744,0.357,0.649c1.799-0.295,5.332-1.69,5.332-3.754c0,0,0,0.187,0,0C5.882,10.92,4.884,9.924,3.718,9.924z"
		/>
</g>
<g>
</g>
<g>
</g>
<g>
</g>
<g>
</g>
<g>
</g>
<g>
</g>
<g>
</g>
<g>
</g>
<g>
</g>
<g>
</g>
<g>
</g>
<g>
</g>
<g>
</g>
<g>
</g>
<g>
</g>
</svg>
