<?xml version="1.0" encoding="iso-8859-1"?>
<!-- Generator: Adobe Illustrator 16.0.0, SVG Export Plug-In . SVG Version: 6.00 Build 0)  -->
<!DOCTYPE svg PUBLIC "-//W3C//DTD SVG 1.1//EN" "http://www.w3.org/Graphics/SVG/1.1/DTD/svg11.dtd">
<svg version="1.1" id="Layer_1" xmlns="http://www.w3.org/2000/svg" xmlns:xlink="http://www.w3.org/1999/xlink" x="0px" y="0px"
	 width="17px" height="15.92px" viewBox="0 0 17 15.92" style="enable-background:new 0 0 17 15.92;" xml:space="preserve">
<path id="Bucket_1" d="M16.988,3.286C16.859,1.404,14.075,0,10.5,0C6.993,0,4.246,1.352,4.021,3.179C1.571,3.789,0,5.521,0,7.42
	c0,1.939,1.645,3.624,4,4.24v0.76c0,2.298,3.27,3.5,6.5,3.5s6.5-1.202,6.5-3.5V3.279L16.988,3.286z M10.5,1.84
	c2.841,0,4.58,1.023,4.58,1.58S13.341,5,10.5,5S5.92,3.977,5.92,3.42S7.659,1.84,10.5,1.84z M2,7.42c0-0.866,0.8-1.703,2-2.147
	v4.296C2.81,9.121,2,8.301,2,7.42z M10.5,13.92c-2.923,0-4.5-1.064-4.5-1.5v-0.5c1.48,0,2.868-0.4,3.949-1.107
	c0.171,0.067,0.355,0.107,0.551,0.107c0.828,0,1.5-0.672,1.5-1.5s-0.672-1.5-1.5-1.5c-0.667,0-1.226,0.438-1.421,1.039
	C8.312,9.557,7.198,9.92,6,9.92V5.919C7.158,6.494,8.731,6.84,10.5,6.84s3.342-0.346,4.5-0.921v6.501
	C15,12.855,13.423,13.92,10.5,13.92z"/>
<g>
</g>
<g>
</g>
<g>
</g>
<g>
</g>
<g>
</g>
<g>
</g>
<g>
</g>
<g>
</g>
<g>
</g>
<g>
</g>
<g>
</g>
<g>
</g>
<g>
</g>
<g>
</g>
<g>
</g>
</svg>
