<?xml version="1.0" encoding="iso-8859-1"?>
<!-- Generator: Adobe Illustrator 16.0.0, SVG Export Plug-In . SVG Version: 6.00 Build 0)  -->
<!DOCTYPE svg PUBLIC "-//W3C//DTD SVG 1.1//EN" "http://www.w3.org/Graphics/SVG/1.1/DTD/svg11.dtd">
<svg version="1.1" id="Layer_1" xmlns="http://www.w3.org/2000/svg" xmlns:xlink="http://www.w3.org/1999/xlink" x="0px" y="0px"
	 width="17px" height="16px" viewBox="0 0 17 16" style="enable-background:new 0 0 17 16;" xml:space="preserve">
<g id="Building_1_x2C__City_1">
	<path d="M16,3h-5V1c0-0.553-0.447-1-1-1H1C0.447,0,0,0.447,0,1v14c0,0.553,0.447,1,1,1h9h6c0.553,0,1-0.447,1-1V4
		C17,3.447,16.553,3,16,3z M9,4v10H2V2h7V4z M15,14h-4V5h4V14z"/>
	<rect x="3" y="3" width="2" height="2"/>
	<rect x="6" y="3" width="2" height="2"/>
	<rect x="3" y="6" width="2" height="2"/>
	<rect x="6" y="6" width="2" height="2"/>
	<rect x="3" y="9" width="2" height="2"/>
	<rect x="6" y="9" width="2" height="2"/>
	<rect x="12" y="6" width="2" height="2"/>
	<rect x="12" y="9" width="2" height="2"/>
</g>
<g>
</g>
<g>
</g>
<g>
</g>
<g>
</g>
<g>
</g>
<g>
</g>
<g>
</g>
<g>
</g>
<g>
</g>
<g>
</g>
<g>
</g>
<g>
</g>
<g>
</g>
<g>
</g>
<g>
</g>
</svg>
