<?xml version="1.0" encoding="iso-8859-1"?>
<!-- Generator: Adobe Illustrator 16.0.0, SVG Export Plug-In . SVG Version: 6.00 Build 0)  -->
<!DOCTYPE svg PUBLIC "-//W3C//DTD SVG 1.1//EN" "http://www.w3.org/Graphics/SVG/1.1/DTD/svg11.dtd">
<svg version="1.1" id="Layer_1" xmlns="http://www.w3.org/2000/svg" xmlns:xlink="http://www.w3.org/1999/xlink" x="0px" y="0px"
	 width="16px" height="16px" viewBox="0 0 16 16" style="enable-background:new 0 0 16 16;" xml:space="preserve">
<g id="Camera_3">
	<path d="M15,2H9V1c0-0.553-0.447-1-1-1H3C2.447,0,2,0.447,2,1v1H1C0.447,2,0,2.447,0,3v12c0,0.553,0.447,1,1,1h14
		c0.553,0,1-0.447,1-1V3C16,2.447,15.553,2,15,2z M14,14H2V4h1c0.553,0,1-0.447,1-1V2h3v1c0,0.553,0.447,1,1,1h6V14z"/>
	<path d="M9,5C6.791,5,5,6.791,5,9s1.791,4,4,4s4-1.791,4-4S11.209,5,9,5z M9,11c-1.103,0-2-0.896-2-2s0.897-2,2-2s2,0.896,2,2
		S10.103,11,9,11z"/>
</g>
<g>
</g>
<g>
</g>
<g>
</g>
<g>
</g>
<g>
</g>
<g>
</g>
<g>
</g>
<g>
</g>
<g>
</g>
<g>
</g>
<g>
</g>
<g>
</g>
<g>
</g>
<g>
</g>
<g>
</g>
</svg>
