<?xml version="1.0" encoding="iso-8859-1"?>
<!-- Generator: Adobe Illustrator 16.0.0, SVG Export Plug-In . SVG Version: 6.00 Build 0)  -->
<!DOCTYPE svg PUBLIC "-//W3C//DTD SVG 1.1//EN" "http://www.w3.org/Graphics/SVG/1.1/DTD/svg11.dtd">
<svg version="1.1" id="Layer_1" xmlns="http://www.w3.org/2000/svg" xmlns:xlink="http://www.w3.org/1999/xlink" x="0px" y="0px"
	 width="16px" height="16px" viewBox="0 0 16 16" style="enable-background:new 0 0 16 16;" xml:space="preserve">
<g id="Chat_2">
	<path style="fill-rule:evenodd;clip-rule:evenodd;" d="M12,3H1C0.447,3,0,3.447,0,4v9c0,0.553,0.447,1,1,1h4l2.623,1.725
		C7.854,15.877,8.265,16,8.541,16H10.5c0.276,0,0.5-0.224,0.5-0.5V14h1c0.553,0,1-0.447,1-1V4C13,3.447,12.553,3,12,3z M11,12H9v2
		l-3-2H2V5h9V12z"/>
	<path style="fill-rule:evenodd;clip-rule:evenodd;" d="M15,0H4C3.447,0,3,0.447,3,1v1h2h8.5C13.776,2,14,2.224,14,2.5V9v2h1
		c0.553,0,1-0.447,1-1V1C16,0.447,15.553,0,15,0z"/>
	<path style="fill-rule:evenodd;clip-rule:evenodd;" d="M3.5,8h6C9.776,8,10,7.776,10,7.5v-1C10,6.224,9.776,6,9.5,6h-6
		C3.224,6,3,6.224,3,6.5v1C3,7.776,3.224,8,3.5,8z"/>
	<path style="fill-rule:evenodd;clip-rule:evenodd;" d="M3.5,11h6c0.276,0,0.5-0.224,0.5-0.5v-1C10,9.224,9.776,9,9.5,9h-6
		C3.224,9,3,9.224,3,9.5v1C3,10.776,3.224,11,3.5,11z"/>
</g>
<g>
</g>
<g>
</g>
<g>
</g>
<g>
</g>
<g>
</g>
<g>
</g>
<g>
</g>
<g>
</g>
<g>
</g>
<g>
</g>
<g>
</g>
<g>
</g>
<g>
</g>
<g>
</g>
<g>
</g>
</svg>
