<?xml version="1.0" encoding="iso-8859-1"?>
<!-- Generator: Adobe Illustrator 16.0.0, SVG Export Plug-In . SVG Version: 6.00 Build 0)  -->
<!DOCTYPE svg PUBLIC "-//W3C//DTD SVG 1.1//EN" "http://www.w3.org/Graphics/SVG/1.1/DTD/svg11.dtd">
<svg version="1.1" id="Layer_1" xmlns="http://www.w3.org/2000/svg" xmlns:xlink="http://www.w3.org/1999/xlink" x="0px" y="0px"
	 width="14px" height="16px" viewBox="0 0 14 16" style="enable-background:new 0 0 14 16;" xml:space="preserve">
<g id="Clipboard_2b">
	<path d="M13,1h-3c0-0.276-0.447-1-1-1H5C4.447,0,4,0.724,4,1H1C0.447,1,0,1.447,0,2v13c0,0.553,0.447,1,1,1h12c0.553,0,1-0.447,1-1
		V2C14,1.447,13.553,1,13,1z M6,2h2v1H6V2z M12,14H2V3h2v1c0,0.553,0.447,1,1,1h4c0.553,0,1-0.447,1-1V3h2V14z"/>
	<path d="M9.5,7h-5C4.224,7,4,7.224,4,7.5v1C4,8.776,4.224,9,4.5,9h5C9.776,9,10,8.776,10,8.5v-1C10,7.224,9.776,7,9.5,7z"/>
	<path d="M9.5,10h-5C4.224,10,4,10.224,4,10.5v1C4,11.776,4.224,12,4.5,12h5c0.276,0,0.5-0.224,0.5-0.5v-1
		C10,10.224,9.776,10,9.5,10z"/>
</g>
<g>
</g>
<g>
</g>
<g>
</g>
<g>
</g>
<g>
</g>
<g>
</g>
<g>
</g>
<g>
</g>
<g>
</g>
<g>
</g>
<g>
</g>
<g>
</g>
<g>
</g>
<g>
</g>
<g>
</g>
</svg>
