<?xml version="1.0" encoding="iso-8859-1"?>
<!-- Generator: Adobe Illustrator 16.0.0, SVG Export Plug-In . SVG Version: 6.00 Build 0)  -->
<!DOCTYPE svg PUBLIC "-//W3C//DTD SVG 1.1//EN" "http://www.w3.org/Graphics/SVG/1.1/DTD/svg11.dtd">
<svg version="1.1" id="Layer_1" xmlns="http://www.w3.org/2000/svg" xmlns:xlink="http://www.w3.org/1999/xlink" x="0px" y="0px"
	 width="14px" height="16px" viewBox="0 0 14 16" style="enable-background:new 0 0 14 16;" xml:space="preserve">
<g id="Close_Document_1">
	<path style="fill-rule:evenodd;clip-rule:evenodd;" d="M13.646,3.646l-3.293-3.293C10.158,0.158,9.776,0,9.5,0H1
		C0.447,0,0,0.447,0,1v14c0,0.553,0.447,1,1,1h12c0.553,0,1-0.447,1-1V4.5C14,4.224,13.842,3.842,13.646,3.646z M12,14H2V2h6v3.5
		C8,5.776,8.224,6,8.5,6H12V14z"/>
	<path style="fill-rule:evenodd;clip-rule:evenodd;" d="M6.997,8.586L5.563,7.152c-0.195-0.195-0.512-0.195-0.707,0L4.149,7.859
		c-0.195,0.195-0.195,0.512,0,0.707L5.583,10l-1.434,1.434c-0.195,0.195-0.195,0.512,0,0.707l0.707,0.707
		c0.195,0.195,0.512,0.195,0.707,0l1.434-1.434l1.439,1.439c0.195,0.195,0.512,0.195,0.707,0l0.707-0.707
		c0.195-0.195,0.195-0.512,0-0.707L8.411,10l1.439-1.439c0.195-0.195,0.195-0.512,0-0.707L9.144,7.146
		c-0.195-0.195-0.512-0.195-0.707,0L6.997,8.586z"/>
</g>
<g>
</g>
<g>
</g>
<g>
</g>
<g>
</g>
<g>
</g>
<g>
</g>
<g>
</g>
<g>
</g>
<g>
</g>
<g>
</g>
<g>
</g>
<g>
</g>
<g>
</g>
<g>
</g>
<g>
</g>
</svg>
