<?xml version="1.0" encoding="iso-8859-1"?>
<!-- Generator: Adobe Illustrator 16.0.0, SVG Export Plug-In . SVG Version: 6.00 Build 0)  -->
<!DOCTYPE svg PUBLIC "-//W3C//DTD SVG 1.1//EN" "http://www.w3.org/Graphics/SVG/1.1/DTD/svg11.dtd">
<svg version="1.1" id="Layer_1" xmlns="http://www.w3.org/2000/svg" xmlns:xlink="http://www.w3.org/1999/xlink" x="0px" y="0px"
	 width="17.98px" height="12.98px" viewBox="0 0 17.98 12.98" style="enable-background:new 0 0 17.98 12.98;" xml:space="preserve"
	>
<g id="Cloud_Download_1">
	<path style="fill-rule:evenodd;clip-rule:evenodd;" d="M15,4.98C15,1.98,12.53,0,9.49,0C6.641,0,4,2,4,4.98
		c-1.1,0-2.1,0.45-2.819,1.18C0.45,6.881,0,7.881,0,8.99c0,2.2,1.79,3.99,4,3.99h2.54c0.276,0,0.364-0.178,0.197-0.398l-0.914-1.203
		c-0.167-0.221-0.526-0.398-0.803-0.398H4c-1,0-2-0.891-2-1.99c0-0.33,0.08-0.65,0.23-0.93c0.33-0.641,1-1.08,1.77-1.08h1.48
		c0.28,0,0.5-0.221,0.5-0.5v-1.52c0-0.351,0.06-0.681,0.18-0.98c0.13-0.34,0.34-0.65,0.61-0.93C7.431,2.391,8.44,2,9.48,2
		c1.68,0,3.5,0.931,3.5,2.98v1.5c0,0.279,0.22,0.5,0.5,0.5H14c0.681,0,1.37,0.471,1.73,1.08C15.9,8.351,16,8.66,16,8.98
		c0,1-0.909,2-2.01,2h-1.05c-0.276,0-0.636,0.178-0.803,0.398l-0.914,1.203c-0.167,0.221-0.079,0.398,0.197,0.398H14
		c2.211-0.01,3.98-1.79,3.98-3.99C17.98,7.131,16.721,5.42,15,4.98z"/>
	<path style="fill-rule:evenodd;clip-rule:evenodd;" d="M11.676,7.98H9.98v-2.5c0-0.275-0.224-0.5-0.5-0.5h-1
		c-0.276,0-0.5,0.225-0.5,0.5v2.5H6.285c-0.297,0-0.394,0.265-0.215,0.5l2.587,3.322c0.179,0.234,0.468,0.238,0.646,0.004
		l2.587-3.326C12.069,8.244,11.973,7.98,11.676,7.98z"/>
</g>
<g>
</g>
<g>
</g>
<g>
</g>
<g>
</g>
<g>
</g>
<g>
</g>
<g>
</g>
<g>
</g>
<g>
</g>
<g>
</g>
<g>
</g>
<g>
</g>
<g>
</g>
<g>
</g>
<g>
</g>
</svg>
