<?xml version="1.0" encoding="iso-8859-1"?>
<!-- Generator: Adobe Illustrator 16.0.0, SVG Export Plug-In . SVG Version: 6.00 Build 0)  -->
<!DOCTYPE svg PUBLIC "-//W3C//DTD SVG 1.1//EN" "http://www.w3.org/Graphics/SVG/1.1/DTD/svg11.dtd">
<svg version="1.1" id="Layer_1" xmlns="http://www.w3.org/2000/svg" xmlns:xlink="http://www.w3.org/1999/xlink" x="0px" y="0px"
	 width="17.98px" height="13px" viewBox="0 0 17.98 13" style="enable-background:new 0 0 17.98 13;" xml:space="preserve">
<path id="Cloud_1" d="M15,4.98C15,1.98,12.53,0,9.49,0C6.64,0,4,2,4,4.98l0,0C1.8,4.98,0,6.79,0,9c0,2.2,1.79,4,4,4h10
	c2.21,0,3.98-1.8,3.98-4C17.98,7.141,16.72,5.42,15,4.98z M4,11c-1,0-2-0.891-2-1.99C2,7.9,2.9,7,4,7h1.5C5.776,7,6,6.776,6,6.5
	V4.961c0-0.74,0.26-1.381,0.78-1.91C7.44,2.391,8.45,2,9.49,2C11.18,2,13,2.931,13,4.98V6.5C13,6.776,13.224,7,13.5,7H14
	c1,0,2,1,2,2s-0.91,2-2.01,2H4z"/>
<g>
</g>
<g>
</g>
<g>
</g>
<g>
</g>
<g>
</g>
<g>
</g>
<g>
</g>
<g>
</g>
<g>
</g>
<g>
</g>
<g>
</g>
<g>
</g>
<g>
</g>
<g>
</g>
<g>
</g>
</svg>
