<?xml version="1.0" encoding="iso-8859-1"?>
<!-- Generator: Adobe Illustrator 16.0.0, SVG Export Plug-In . SVG Version: 6.00 Build 0)  -->
<!DOCTYPE svg PUBLIC "-//W3C//DTD SVG 1.1//EN" "http://www.w3.org/Graphics/SVG/1.1/DTD/svg11.dtd">
<svg version="1.1" id="Layer_1" xmlns="http://www.w3.org/2000/svg" xmlns:xlink="http://www.w3.org/1999/xlink" x="0px" y="0px"
	 width="16px" height="16px" viewBox="0 0 16 16" style="enable-background:new 0 0 16 16;" xml:space="preserve">
<g id="Compose_5_x2C__Message_5">
	<path style="fill-rule:evenodd;clip-rule:evenodd;" d="M15.553,6.224l-1.105,0.553C14.2,6.9,14,7.224,14,7.5V14H2V2h4.33
		c0.276,0,0.639-0.175,0.818-0.385C7.55,1.146,7.978,0.711,8.434,0.318C8.643,0.138,8.597,0,8.32,0H1C0.45,0,0,0.45,0,1v14
		c0,0.55,0.45,1,1,1h14c0.55,0,1-0.45,1-1V6.5C16,6.224,15.8,6.1,15.553,6.224z"/>
	<path style="fill-rule:evenodd;clip-rule:evenodd;" d="M4,12.391v0.203C4,12.818,4.293,13,4.5,13S5,12.818,5,12.594v-0.406
		C5,10.731,6.636,8.311,8.076,7.3c0.259,0.49,0.678,0.825,1.236,0.825c0.268,0,0.483-0.082,0.701-0.215
		c0.225-0.138,0.396-0.331,0.529-0.568c0.008-0.016,0.007-0.03,0.015-0.045c0.051-0.097,0.087-0.199,0.118-0.307
		c0.01-0.03,0.018-0.06,0.025-0.092c0.03-0.127,0.05-0.26,0.05-0.398c0-0.082-0.013-0.16-0.022-0.238
		C10.955,6.41,11.217,6.5,11.5,6.5c0.828,0,1.5-0.727,1.5-1.625c0-0.053-0.01-0.103-0.015-0.154c0.24,0.094,0.495,0.154,0.765,0.154
		c1.243,0,2.25-1.091,2.25-2.438S14.993,0,13.75,0C7.724,0,4.687,9.715,4.104,11.797C4.044,12.012,4,12.278,4,12.391z"/>
</g>
<g>
</g>
<g>
</g>
<g>
</g>
<g>
</g>
<g>
</g>
<g>
</g>
<g>
</g>
<g>
</g>
<g>
</g>
<g>
</g>
<g>
</g>
<g>
</g>
<g>
</g>
<g>
</g>
<g>
</g>
</svg>
