<?xml version="1.0" encoding="iso-8859-1"?>
<!-- Generator: Adobe Illustrator 16.0.0, SVG Export Plug-In . SVG Version: 6.00 Build 0)  -->
<!DOCTYPE svg PUBLIC "-//W3C//DTD SVG 1.1//EN" "http://www.w3.org/Graphics/SVG/1.1/DTD/svg11.dtd">
<svg version="1.1" id="Layer_1" xmlns="http://www.w3.org/2000/svg" xmlns:xlink="http://www.w3.org/1999/xlink" x="0px" y="0px"
	 width="16px" height="16px" viewBox="0 0 16 16" style="enable-background:new 0 0 16 16;" xml:space="preserve">
<g id="Compose_3_x2C__Message_3">
	<path d="M15.646,7.354l-1.293,1.293C14.158,8.842,14,9.224,14,9.5V14H2V2h4.5c0.276,0,0.658-0.158,0.854-0.354l1.293-1.293
		C8.842,0.158,8.776,0,8.5,0H1C0.447,0,0,0.447,0,1v14c0,0.553,0.447,1,1,1h14c0.553,0,1-0.447,1-1V7.5
		C16,7.224,15.842,7.158,15.646,7.354z"/>
	<path d="M3,13h4l8.293-8.293c0.391-0.391,0.391-1.023,0-1.414l-2.586-2.586c-0.391-0.391-1.023-0.391-1.414,0L3,9V13z M5,9.828
		l5.707-5.707l1.172,1.172L6.171,11H5V9.828z"/>
</g>
<g>
</g>
<g>
</g>
<g>
</g>
<g>
</g>
<g>
</g>
<g>
</g>
<g>
</g>
<g>
</g>
<g>
</g>
<g>
</g>
<g>
</g>
<g>
</g>
<g>
</g>
<g>
</g>
<g>
</g>
</svg>
