<?xml version="1.0" encoding="iso-8859-1"?>
<!-- Generator: Adobe Illustrator 16.0.0, SVG Export Plug-In . SVG Version: 6.00 Build 0)  -->
<!DOCTYPE svg PUBLIC "-//W3C//DTD SVG 1.1//EN" "http://www.w3.org/Graphics/SVG/1.1/DTD/svg11.dtd">
<svg version="1.1" id="Layer_1" xmlns="http://www.w3.org/2000/svg" xmlns:xlink="http://www.w3.org/1999/xlink" x="0px" y="0px"
	 width="16px" height="16px" viewBox="0 0 16 16" style="enable-background:new 0 0 16 16;" xml:space="preserve">
<g id="Contacts_1">
	<path style="fill-rule:evenodd;clip-rule:evenodd;" d="M15,0H3C2.447,0,2,0.447,2,1H1C0.447,1,0,1.447,0,2s0.447,1,1,1h1v1H1
		C0.447,4,0,4.447,0,5s0.447,1,1,1h1v1H1C0.447,7,0,7.447,0,8s0.447,1,1,1h1v1H1c-0.553,0-1,0.447-1,1s0.447,1,1,1h1v1H1
		c-0.553,0-1,0.447-1,1s0.447,1,1,1h1c0,0.553,0.447,1,1,1h12c0.553,0,1-0.447,1-1V1C16,0.447,15.553,0,15,0z M14,14H4V2h10V14z"/>
	<path style="fill-rule:evenodd;clip-rule:evenodd;" d="M11.5,12c0.276,0,0.5-0.224,0.5-0.5V9.676c0-0.276-0.154-0.664-0.375-0.83
		C11.16,8.496,10.591,8.257,10,8.125V7.723C10.596,7.376,11,6.738,11,6c0-1.104-0.896-2-2-2S7,4.896,7,6
		c0,0.738,0.404,1.376,1,1.723v0.402C7.409,8.257,6.84,8.496,6.375,8.846C6.154,9.012,6,9.399,6,9.676V11.5
		C6,11.776,6.224,12,6.5,12h0.893h3.215H11.5z"/>
</g>
<g>
</g>
<g>
</g>
<g>
</g>
<g>
</g>
<g>
</g>
<g>
</g>
<g>
</g>
<g>
</g>
<g>
</g>
<g>
</g>
<g>
</g>
<g>
</g>
<g>
</g>
<g>
</g>
<g>
</g>
</svg>
