<?xml version="1.0" encoding="iso-8859-1"?>
<!-- Generator: Adobe Illustrator 16.0.0, SVG Export Plug-In . SVG Version: 6.00 Build 0)  -->
<!DOCTYPE svg PUBLIC "-//W3C//DTD SVG 1.1//EN" "http://www.w3.org/Graphics/SVG/1.1/DTD/svg11.dtd">
<svg version="1.1" id="Layer_1" xmlns="http://www.w3.org/2000/svg" xmlns:xlink="http://www.w3.org/1999/xlink" x="0px" y="0px"
	 width="16px" height="16px" viewBox="0 0 16 16" style="enable-background:new 0 0 16 16;" xml:space="preserve">
<path id="Crop_1" d="M14,12V3.414l1.832-1.832c0.195-0.195,0.195-0.512,0-0.707l-0.707-0.707c-0.195-0.195-0.512-0.195-0.707,0
	L12.586,2H4V0.5C4,0.224,3.776,0,3.5,0h-1C2.224,0,2,0.224,2,0.5V2H0.5C0.224,2,0,2.224,0,2.5v1C0,3.776,0.224,4,0.5,4H2v9
	c0,0.553,0.447,1,1,1h9v1.5c0,0.276,0.224,0.5,0.5,0.5h1c0.276,0,0.5-0.224,0.5-0.5V14h1.5c0.276,0,0.5-0.224,0.5-0.5v-1
	c0-0.276-0.224-0.5-0.5-0.5H14z M10.586,4L4,10.586V4H10.586z M5.414,12L12,5.414V12H5.414z"/>
<g>
</g>
<g>
</g>
<g>
</g>
<g>
</g>
<g>
</g>
<g>
</g>
<g>
</g>
<g>
</g>
<g>
</g>
<g>
</g>
<g>
</g>
<g>
</g>
<g>
</g>
<g>
</g>
<g>
</g>
</svg>
