<?xml version="1.0" encoding="iso-8859-1"?>
<!-- Generator: Adobe Illustrator 16.0.0, SVG Export Plug-In . SVG Version: 6.00 Build 0)  -->
<!DOCTYPE svg PUBLIC "-//W3C//DTD SVG 1.1//EN" "http://www.w3.org/Graphics/SVG/1.1/DTD/svg11.dtd">
<svg version="1.1" id="Layer_1" xmlns="http://www.w3.org/2000/svg" xmlns:xlink="http://www.w3.org/1999/xlink" x="0px" y="0px"
	 width="14px" height="16px" viewBox="0 0 14 16" style="enable-background:new 0 0 14 16;" xml:space="preserve">
<path id="Cube_1" d="M14,5c0-0.334-0.167-0.646-0.445-0.832l-6-4c-0.336-0.224-0.773-0.224-1.109,0l-6,4C0.167,4.354,0,4.666,0,5
	c0,0,0,5.809,0,6c0,0.322,0.156,0.64,0.445,0.832l6,4C6.613,15.943,6.807,16,7,16s0.387-0.057,0.555-0.168l6-4
	c0.286-0.19,0.424-0.504,0.427-0.822L14,11V5z M6,13.132l-4-2.667V6.869l4,2.666V13.132z M7,7.799L2.803,5L7,2.201L11.197,5L7,7.799
	z M8,9.535l4-2.666v3.596l-4,2.667V9.535z"/>
<g>
</g>
<g>
</g>
<g>
</g>
<g>
</g>
<g>
</g>
<g>
</g>
<g>
</g>
<g>
</g>
<g>
</g>
<g>
</g>
<g>
</g>
<g>
</g>
<g>
</g>
<g>
</g>
<g>
</g>
</svg>
