<?xml version="1.0" encoding="iso-8859-1"?>
<!-- Generator: Adobe Illustrator 16.0.0, SVG Export Plug-In . SVG Version: 6.00 Build 0)  -->
<!DOCTYPE svg PUBLIC "-//W3C//DTD SVG 1.1//EN" "http://www.w3.org/Graphics/SVG/1.1/DTD/svg11.dtd">
<svg version="1.1" id="Layer_1" xmlns="http://www.w3.org/2000/svg" xmlns:xlink="http://www.w3.org/1999/xlink" x="0px" y="0px"
	 width="16px" height="16px" viewBox="0 0 16 16" style="enable-background:new 0 0 16 16;" xml:space="preserve">
<g id="Distribute_Vertical_Centers_1">
	<path d="M15,0H1C0.447,0,0,0.447,0,1v14c0,0.553,0.447,1,1,1h14c0.553,0,1-0.447,1-1V1C16,0.447,15.553,0,15,0z M14,14H2V2h12V14z"
		/>
	<path d="M5.5,7h5C10.776,7,11,6.776,11,6.5V6h2V5h-2V4.5C11,4.224,10.776,4,10.5,4h-5C5.224,4,5,4.224,5,4.5V5H3v1h2v0.5
		C5,6.776,5.224,7,5.5,7z"/>
	<path d="M6.5,12h3c0.276,0,0.5-0.224,0.5-0.5V11h3v-1h-3V9.5C10,9.224,9.776,9,9.5,9h-3C6.224,9,6,9.224,6,9.5V10H3v1h3v0.5
		C6,11.776,6.224,12,6.5,12z"/>
</g>
<g>
</g>
<g>
</g>
<g>
</g>
<g>
</g>
<g>
</g>
<g>
</g>
<g>
</g>
<g>
</g>
<g>
</g>
<g>
</g>
<g>
</g>
<g>
</g>
<g>
</g>
<g>
</g>
<g>
</g>
</svg>
