<?xml version="1.0" encoding="iso-8859-1"?>
<!-- Generator: Adobe Illustrator 16.0.0, SVG Export Plug-In . SVG Version: 6.00 Build 0)  -->
<!DOCTYPE svg PUBLIC "-//W3C//DTD SVG 1.1//EN" "http://www.w3.org/Graphics/SVG/1.1/DTD/svg11.dtd">
<svg version="1.1" id="Layer_1" xmlns="http://www.w3.org/2000/svg" xmlns:xlink="http://www.w3.org/1999/xlink" x="0px" y="0px"
	 width="14px" height="16px" viewBox="0 0 14 16" style="enable-background:new 0 0 14 16;" xml:space="preserve">
<g id="Document_3">
	<path d="M10.5,0H1C0.447,0,0,0.447,0,1v14c0,0.553,0.447,1,1,1h12c0.553,0,1-0.447,1-1V3.5c0-0.276-0.158-0.658-0.354-0.854
		l-2.293-2.293C11.158,0.158,10.776,0,10.5,0z M2,14V2h7v2.5C9,4.776,9.224,5,9.5,5H12v9H2z"/>
	<path d="M10.5,6h-7C3.224,6,3,6.224,3,6.5v1C3,7.776,3.224,8,3.5,8h7C10.776,8,11,7.776,11,7.5v-1C11,6.224,10.776,6,10.5,6z"/>
	<path d="M7.5,3h-4C3.224,3,3,3.224,3,3.5v1C3,4.776,3.224,5,3.5,5h4C7.776,5,8,4.776,8,4.5v-1C8,3.224,7.776,3,7.5,3z"/>
	<path d="M10.5,9h-7C3.224,9,3,9.224,3,9.5v1C3,10.776,3.224,11,3.5,11h7c0.276,0,0.5-0.224,0.5-0.5v-1C11,9.224,10.776,9,10.5,9z"
		/>
</g>
<g>
</g>
<g>
</g>
<g>
</g>
<g>
</g>
<g>
</g>
<g>
</g>
<g>
</g>
<g>
</g>
<g>
</g>
<g>
</g>
<g>
</g>
<g>
</g>
<g>
</g>
<g>
</g>
<g>
</g>
</svg>
