<?xml version="1.0" encoding="iso-8859-1"?>
<!-- Generator: Adobe Illustrator 16.0.0, SVG Export Plug-In . SVG Version: 6.00 Build 0)  -->
<!DOCTYPE svg PUBLIC "-//W3C//DTD SVG 1.1//EN" "http://www.w3.org/Graphics/SVG/1.1/DTD/svg11.dtd">
<svg version="1.1" id="Layer_1" xmlns="http://www.w3.org/2000/svg" xmlns:xlink="http://www.w3.org/1999/xlink" x="0px" y="0px"
	 width="14px" height="16px" viewBox="0 0 14 16" style="enable-background:new 0 0 14 16;" xml:space="preserve">
<g id="Document_2">
	<path d="M3,16h10c0.553,0,1-0.447,1-1V1c0-0.553-0.447-1-1-1H1C0.447,0,0,0.447,0,1v12L3,16z M12,2v12H5v-2.5
		C5,11.224,4.776,11,4.5,11H2V2H12z"/>
	<path d="M3.5,8h7C10.776,8,11,7.776,11,7.5v-1C11,6.224,10.776,6,10.5,6h-7C3.224,6,3,6.224,3,6.5v1C3,7.776,3.224,8,3.5,8z"/>
	<path d="M3.5,5h7C10.776,5,11,4.776,11,4.5v-1C11,3.224,10.776,3,10.5,3h-7C3.224,3,3,3.224,3,3.5v1C3,4.776,3.224,5,3.5,5z"/>
</g>
<g>
</g>
<g>
</g>
<g>
</g>
<g>
</g>
<g>
</g>
<g>
</g>
<g>
</g>
<g>
</g>
<g>
</g>
<g>
</g>
<g>
</g>
<g>
</g>
<g>
</g>
<g>
</g>
<g>
</g>
</svg>
