<?xml version="1.0" encoding="iso-8859-1"?>
<!-- Generator: Adobe Illustrator 16.0.0, SVG Export Plug-In . SVG Version: 6.00 Build 0)  -->
<!DOCTYPE svg PUBLIC "-//W3C//DTD SVG 1.1//EN" "http://www.w3.org/Graphics/SVG/1.1/DTD/svg11.dtd">
<svg version="1.1" id="Layer_1" xmlns="http://www.w3.org/2000/svg" xmlns:xlink="http://www.w3.org/1999/xlink" x="0px" y="0px"
	 width="14px" height="16px" viewBox="0 0 14 16" style="enable-background:new 0 0 14 16;" xml:space="preserve">
<g id="Download_Document_1">
	<path style="fill-rule:evenodd;clip-rule:evenodd;" d="M13.646,3.646l-3.293-3.293C10.158,0.158,9.776,0,9.5,0H1
		C0.447,0,0,0.447,0,1v14c0,0.553,0.447,1,1,1h12c0.553,0,1-0.447,1-1V4.5C14,4.224,13.842,3.842,13.646,3.646z M12,14H2V2h6v3.5
		C8,5.776,8.224,6,8.5,6H12V14z"/>
	<path style="fill-rule:evenodd;clip-rule:evenodd;" d="M7,6.499C7,6.223,6.778,6,6.502,6h-1C5.226,6,5,6.223,5,6.499V9H3.307
		C3.01,9,2.913,9.264,3.092,9.499l2.587,3.322c0.179,0.235,0.468,0.238,0.646,0.004L8.912,9.5C9.091,9.263,8.994,9,8.697,9H7V6.499z
		"/>
</g>
<g>
</g>
<g>
</g>
<g>
</g>
<g>
</g>
<g>
</g>
<g>
</g>
<g>
</g>
<g>
</g>
<g>
</g>
<g>
</g>
<g>
</g>
<g>
</g>
<g>
</g>
<g>
</g>
<g>
</g>
</svg>
