<?xml version="1.0" encoding="iso-8859-1"?>
<!-- Generator: Adobe Illustrator 16.0.0, SVG Export Plug-In . SVG Version: 6.00 Build 0)  -->
<!DOCTYPE svg PUBLIC "-//W3C//DTD SVG 1.1//EN" "http://www.w3.org/Graphics/SVG/1.1/DTD/svg11.dtd">
<svg version="1.1" id="Layer_1" xmlns="http://www.w3.org/2000/svg" xmlns:xlink="http://www.w3.org/1999/xlink" x="0px" y="0px"
	 width="16px" height="16px" viewBox="0 0 16 16" style="enable-background:new 0 0 16 16;" xml:space="preserve">
<g id="Down_Circle_4">
	<path d="M7,4.501v3.984L5.58,7.144c-0.199-0.189-0.52-0.189-0.717,0L4.146,7.827c-0.197,0.188-0.197,0.494,0,0.684l3.507,3.35
		c0.199,0.188,0.52,0.188,0.717,0l3.479-3.322c0.199-0.189,0.199-0.496,0-0.684l-0.717-0.684c-0.197-0.189-0.518-0.189-0.715,0
		L9,8.512V4.501C9,4.225,8.775,4,8.499,4h-1C7.223,4,7,4.225,7,4.501z"/>
	<path style="fill-rule:evenodd;clip-rule:evenodd;" d="M8,0C3.582,0,0,3.582,0,8s3.582,8,8,8s8-3.582,8-8S12.418,0,8,0z M8,14
		c-3.309,0-6-2.691-6-6s2.691-6,6-6s6,2.691,6,6S11.309,14,8,14z"/>
</g>
<g>
</g>
<g>
</g>
<g>
</g>
<g>
</g>
<g>
</g>
<g>
</g>
<g>
</g>
<g>
</g>
<g>
</g>
<g>
</g>
<g>
</g>
<g>
</g>
<g>
</g>
<g>
</g>
<g>
</g>
</svg>
