<?xml version="1.0" encoding="iso-8859-1"?>
<!-- Generator: Adobe Illustrator 16.0.0, SVG Export Plug-In . SVG Version: 6.00 Build 0)  -->
<!DOCTYPE svg PUBLIC "-//W3C//DTD SVG 1.1//EN" "http://www.w3.org/Graphics/SVG/1.1/DTD/svg11.dtd">
<svg version="1.1" id="Layer_1" xmlns="http://www.w3.org/2000/svg" xmlns:xlink="http://www.w3.org/1999/xlink" x="0px" y="0px"
	 width="18px" height="14px" viewBox="0 0 18 14" style="enable-background:new 0 0 18 14;" xml:space="preserve">
<g id="Eye_4_x2C__View_4">
	<path d="M17.75,6.625C15.546,2.414,12.353,0,8.989,0c-3.522,0-6.888,2.518-8.78,6.572L0,7.018l0.223,0.439
		C2.236,11.432,5.678,14,8.989,14c3.299,0,6.571-2.401,8.754-6.424L18,7.102L17.75,6.625z M8.989,12
		c-2.465,0-5.086-1.954-6.78-5.018C3.798,3.896,6.361,2,8.989,2c2.451,0,4.95,1.891,6.758,5.085C13.934,10.174,11.436,12,8.989,12z"
		/>
	<path d="M8.989,4C7.358,4,6.031,5.346,6.031,7s1.327,3,2.958,3c1.632,0,2.959-1.346,2.959-3S10.621,4,8.989,4z"/>
</g>
<g>
</g>
<g>
</g>
<g>
</g>
<g>
</g>
<g>
</g>
<g>
</g>
<g>
</g>
<g>
</g>
<g>
</g>
<g>
</g>
<g>
</g>
<g>
</g>
<g>
</g>
<g>
</g>
<g>
</g>
</svg>
