<?xml version="1.0" encoding="iso-8859-1"?>
<!-- Generator: Adobe Illustrator 16.0.0, SVG Export Plug-In . SVG Version: 6.00 Build 0)  -->
<!DOCTYPE svg PUBLIC "-//W3C//DTD SVG 1.1//EN" "http://www.w3.org/Graphics/SVG/1.1/DTD/svg11.dtd">
<svg version="1.1" id="Layer_1" xmlns="http://www.w3.org/2000/svg" xmlns:xlink="http://www.w3.org/1999/xlink" x="0px" y="0px"
	 width="18px" height="12px" viewBox="0 0 18 12" style="enable-background:new 0 0 18 12;" xml:space="preserve">
<g id="Eye_1_x2C__View_1">
	<path d="M9.001,3C7.344,3,6,4.344,6,6s1.344,3,3.001,3C10.656,9,12,7.656,12,6S10.656,3,9.001,3z M10,6c0,0.553-0.447,1-1,1
		S8,6.553,8,6s0.447-1,1-1S10,5.447,10,6z"/>
	<path d="M17.659,5.541C15.459,2.02,12.298,0,8.985,0C5.513,0,2.18,2.109,0.287,5.506L0,6.021l0.305,0.505
		C2.315,9.851,5.723,12,8.985,12c3.248,0,6.486-2.008,8.664-5.371L18,6.088L17.659,5.541z M8.985,10C6.551,10,3.98,8.439,2.3,5.98
		C3.877,3.511,6.393,2,8.985,2c2.422,0,4.873,1.509,6.657,4.068C13.852,8.542,11.401,10,8.985,10z"/>
</g>
<g>
</g>
<g>
</g>
<g>
</g>
<g>
</g>
<g>
</g>
<g>
</g>
<g>
</g>
<g>
</g>
<g>
</g>
<g>
</g>
<g>
</g>
<g>
</g>
<g>
</g>
<g>
</g>
<g>
</g>
</svg>
