<?xml version="1.0" encoding="iso-8859-1"?>
<!-- Generator: Adobe Illustrator 16.0.0, SVG Export Plug-In . SVG Version: 6.00 Build 0)  -->
<!DOCTYPE svg PUBLIC "-//W3C//DTD SVG 1.1//EN" "http://www.w3.org/Graphics/SVG/1.1/DTD/svg11.dtd">
<svg version="1.1" id="Layer_1" xmlns="http://www.w3.org/2000/svg" xmlns:xlink="http://www.w3.org/1999/xlink" x="0px" y="0px"
	 width="16px" height="9.998px" viewBox="0 0 16 9.998" style="enable-background:new 0 0 16 9.998;" xml:space="preserve">
<path id="Fast_Forward_2" d="M0.47,9.85c0.3,0.18,0.67,0.2,0.98,0.04L6,7.609V9c0,0.35,0.18,0.67,0.47,0.85
	c0.3,0.18,0.67,0.2,0.98,0.04l8-3.999C15.79,5.73,16,5.38,16,5s-0.21-0.73-0.55-0.891l-8-3.999C7.31,0.04,7.15,0,7,0
	C6.82,0,6.63,0.05,6.47,0.15C6.18,0.33,6,0.65,6,1v1.38L1.45,0.11C1.31,0.04,1.15,0,1,0C0.82,0,0.63,0.05,0.47,0.15
	C0.18,0.33,0,0.65,0,1v8C0,9.35,0.18,9.67,0.47,9.85z M8,2.62L13,5L8,7.38V2.62z M2,2.62L6,4.52V5.48L2,7.38V2.62z"/>
<g>
</g>
<g>
</g>
<g>
</g>
<g>
</g>
<g>
</g>
<g>
</g>
<g>
</g>
<g>
</g>
<g>
</g>
<g>
</g>
<g>
</g>
<g>
</g>
<g>
</g>
<g>
</g>
<g>
</g>
</svg>
