<?xml version="1.0" encoding="iso-8859-1"?>
<!-- Generator: Adobe Illustrator 16.0.0, SVG Export Plug-In . SVG Version: 6.00 Build 0)  -->
<!DOCTYPE svg PUBLIC "-//W3C//DTD SVG 1.1//EN" "http://www.w3.org/Graphics/SVG/1.1/DTD/svg11.dtd">
<svg version="1.1" id="Layer_1" xmlns="http://www.w3.org/2000/svg" xmlns:xlink="http://www.w3.org/1999/xlink" x="0px" y="0px"
	 width="16px" height="16px" viewBox="0 0 16 16" style="enable-background:new 0 0 16 16;" xml:space="preserve">
<path id="Gauge_1_x2C__Speedometer_1" d="M8,0C3.582,0,0,3.582,0,8s3.582,8,8,8s8-3.582,8-8S12.418,0,8,0z M8,14
	c-1.771,0-3.36-0.775-4.46-2h8.92C11.36,13.225,9.771,14,8,14z M9,10V7c0-0.553-0.447-1-1-1l0,0C7.447,6,7,6.447,7,7v3H2.35
	C2.235,9.678,2.148,9.344,2.09,9h0.912c0.553,0,1-0.449,0.999-1C4,7.447,3.552,7,3,7H2.09c0.157-0.928,0.525-1.782,1.057-2.514
	L3.76,5.172c0.391,0.391,1.023,0.391,1.413,0s0.39-1.11-0.001-1.501L4.599,3.062C5.305,2.574,6.12,2.238,7,2.09V3
	c0,0.553,0.447,1,1,1s1-0.447,1-1V2.09c0.909,0.154,1.749,0.51,2.471,1.025l-0.643,0.643c-0.391,0.391-0.391,1.023,0,1.414
	s1.023,0.391,1.414,0l0.643-0.643C13.399,5.251,13.756,6.09,13.91,7H13c-0.553,0-1,0.447-1,1s0.447,1,1,1h0.91
	c-0.059,0.344-0.146,0.678-0.26,1H9z"/>
<g>
</g>
<g>
</g>
<g>
</g>
<g>
</g>
<g>
</g>
<g>
</g>
<g>
</g>
<g>
</g>
<g>
</g>
<g>
</g>
<g>
</g>
<g>
</g>
<g>
</g>
<g>
</g>
<g>
</g>
</svg>
