<?xml version="1.0" encoding="iso-8859-1"?>
<!-- Generator: Adobe Illustrator 16.0.0, SVG Export Plug-In . SVG Version: 6.00 Build 0)  -->
<!DOCTYPE svg PUBLIC "-//W3C//DTD SVG 1.1//EN" "http://www.w3.org/Graphics/SVG/1.1/DTD/svg11.dtd">
<svg version="1.1" id="Layer_1" xmlns="http://www.w3.org/2000/svg" xmlns:xlink="http://www.w3.org/1999/xlink" x="0px" y="0px"
	 width="16px" height="16px" viewBox="0 0 16 16" style="enable-background:new 0 0 16 16;" xml:space="preserve">
<path id="Gift_2_x2C__Present_2" d="M15,5h-1h-1.78C12.699,4.468,13,3.771,13,3c0-1.654-1.346-3-3-3C9.229,0,8.532,0.301,8,0.78
	C7.468,0.301,6.771,0,6,0C4.346,0,3,1.346,3,3c0,0.771,0.301,1.468,0.78,2H2H1C0.447,5,0,5.447,0,6v3c0,0.553,0.447,1,1,1v5
	c0,0.553,0.447,1,1,1h5h2h5c0.553,0,1-0.447,1-1v-5c0.553,0,1-0.447,1-1V6C16,5.447,15.553,5,15,5z M9,2.5C9,2.224,9.224,2,9.5,2h1
	C10.776,2,11,2.224,11,2.5v1C11,3.776,10.776,4,10.5,4H10H9V3V2.5z M5.5,2h1C6.776,2,7,2.224,7,2.5V3v1H6H5.5C5.224,4,5,3.776,5,3.5
	v-1C5,2.224,5.224,2,5.5,2z M14,7v1H9V7H14z M7,7v1H2V7H7z M3,14v-4h4v4H3z M13,14H9v-4h4V14z"/>
<g>
</g>
<g>
</g>
<g>
</g>
<g>
</g>
<g>
</g>
<g>
</g>
<g>
</g>
<g>
</g>
<g>
</g>
<g>
</g>
<g>
</g>
<g>
</g>
<g>
</g>
<g>
</g>
<g>
</g>
</svg>
