<?xml version="1.0" encoding="iso-8859-1"?>
<!-- Generator: Adobe Illustrator 16.0.0, SVG Export Plug-In . SVG Version: 6.00 Build 0)  -->
<!DOCTYPE svg PUBLIC "-//W3C//DTD SVG 1.1//EN" "http://www.w3.org/Graphics/SVG/1.1/DTD/svg11.dtd">
<svg version="1.1" id="Layer_1" xmlns="http://www.w3.org/2000/svg" xmlns:xlink="http://www.w3.org/1999/xlink" x="0px" y="0px"
	 width="16px" height="16px" viewBox="0 0 16 16" style="enable-background:new 0 0 16 16;" xml:space="preserve">
<path id="Globe_1_x2C__World_1" d="M11.896,1.021C10.746,0.377,9.418,0.01,8,0C3.578,0,0,3.589,0,8c0,4.025,2.965,7.346,6.83,7.92
	C7.217,15.971,7.604,16,8,16c1.418,0,2.746-0.367,3.896-1.012C14.345,13.621,16,11.004,16,8C15.99,4.996,14.345,2.389,11.896,1.021z
	 M13.205,5h-2.426c-0.148-1-0.369-1.873-0.645-2.617C11.433,2.879,12.516,4,13.205,5z M7.933,1.986C7.955,1.985,7.977,1.982,8,1.982
	s0.045,0.003,0.067,0.004C8.389,2.483,8.797,4,9.054,5H6.946C7.203,4,7.611,2.483,7.933,1.986z M2.074,9C2.02,9,1.982,8.342,1.982,8
	s0.035-1,0.09-1h2.953C5.011,7,5,7.66,5,8s0.011,1,0.025,1H2.074z M4.977,13.194c-0.01,0-0.02,0-0.02-0.01
	C4.055,12.658,3.307,12,2.785,11h2.436c0.148,1,0.368,1.871,0.644,2.614C5.556,13.498,5.257,13.363,4.977,13.194z M5.221,5H2.793
	c0.688-1,1.772-2.123,3.072-2.619C5.59,3.125,5.369,4,5.221,5z M8.068,14.014c-0.023,0-0.045,0.004-0.068,0.004
	s-0.045-0.004-0.068-0.004C7.61,13.516,7.203,13,6.946,11h2.107C8.797,13,8.39,13.516,8.068,14.014z M9.27,9H6.73
	C6.713,9,6.7,8.35,6.7,8s0.013-1,0.03-1H9.27C9.287,7,9.3,7.65,9.3,8S9.287,9,9.27,9z M11.896,12.58
	c-0.318,0.268-0.664,0.506-1.031,0.713c-0.235,0.125-0.48,0.238-0.733,0.334C10.408,12.881,10.63,12,10.779,11h2.43
	C12.862,12,12.42,12.135,11.896,12.58z M10.975,9C10.989,9,11,8.34,11,8s-0.011-1-0.025-1h2.952c0.056,0,0.091,0.658,0.091,1
	s-0.037,1-0.092,1H10.975z"/>
<g>
</g>
<g>
</g>
<g>
</g>
<g>
</g>
<g>
</g>
<g>
</g>
<g>
</g>
<g>
</g>
<g>
</g>
<g>
</g>
<g>
</g>
<g>
</g>
<g>
</g>
<g>
</g>
<g>
</g>
</svg>
