<?xml version="1.0" encoding="iso-8859-1"?>
<!-- Generator: Adobe Illustrator 16.0.0, SVG Export Plug-In . SVG Version: 6.00 Build 0)  -->
<!DOCTYPE svg PUBLIC "-//W3C//DTD SVG 1.1//EN" "http://www.w3.org/Graphics/SVG/1.1/DTD/svg11.dtd">
<svg version="1.1" id="Layer_1" xmlns="http://www.w3.org/2000/svg" xmlns:xlink="http://www.w3.org/1999/xlink" x="0px" y="0px"
	 width="18px" height="17.001px" viewBox="0 0 18 17.001" style="enable-background:new 0 0 18 17.001;" xml:space="preserve">
<path id="Government_1_x2C__Politics_1_x2C__Building_2" d="M17,15.001h-1v-7h1c0.431,0,0.812-0.275,0.948-0.684
	c0.137-0.408-0.004-0.858-0.349-1.116l-8-6c-0.355-0.268-0.844-0.268-1.199,0l-8,6C0.056,6.459-0.085,6.909,0.052,7.317
	C0.188,7.726,0.569,8.001,1,8.001h1v7H1c-0.553,0-1,0.447-1,1s0.447,1,1,1h16c0.553,0,1-0.447,1-1S17.553,15.001,17,15.001z
	 M9,2.251l5,3.75H4L9,2.251z M4,15.001v-7h2v7H4z M8,15.001v-7h2v7H8z M12,15.001v-7h2v7H12z"/>
<g>
</g>
<g>
</g>
<g>
</g>
<g>
</g>
<g>
</g>
<g>
</g>
<g>
</g>
<g>
</g>
<g>
</g>
<g>
</g>
<g>
</g>
<g>
</g>
<g>
</g>
<g>
</g>
<g>
</g>
</svg>
