<?xml version="1.0" encoding="iso-8859-1"?>
<!-- Generator: Adobe Illustrator 16.0.0, SVG Export Plug-In . SVG Version: 6.00 Build 0)  -->
<!DOCTYPE svg PUBLIC "-//W3C//DTD SVG 1.1//EN" "http://www.w3.org/Graphics/SVG/1.1/DTD/svg11.dtd">
<svg version="1.1" id="Layer_1" xmlns="http://www.w3.org/2000/svg" xmlns:xlink="http://www.w3.org/1999/xlink" x="0px" y="0px"
	 width="16px" height="16px" viewBox="0 0 16 16" style="enable-background:new 0 0 16 16;" xml:space="preserve">
<path id="Headphones_1" d="M0,8v6c0,0.553,0.447,1,1,1s1-0.447,1-1h1v1c0,0.553,0.447,1,1,1l0,0c0.553,0,1-0.447,1-1v-4
	c0-0.553-0.447-1-1-1l0,0c-0.553,0-1,0.447-1,1v1H2V8c0-3.309,2.691-6,6-6s6,2.691,6,6v4h-1v-1c0-0.553-0.447-1-1-1l0,0
	c-0.553,0-1,0.447-1,1v4c0,0.553,0.447,1,1,1l0,0c0.553,0,1-0.447,1-1v-1h1c0,0.553,0.447,1,1,1s1-0.447,1-1v-2V8
	c0-4.418-3.582-8-8-8S0,3.582,0,8z"/>
<g>
</g>
<g>
</g>
<g>
</g>
<g>
</g>
<g>
</g>
<g>
</g>
<g>
</g>
<g>
</g>
<g>
</g>
<g>
</g>
<g>
</g>
<g>
</g>
<g>
</g>
<g>
</g>
<g>
</g>
</svg>
