<?xml version="1.0" encoding="iso-8859-1"?>
<!-- Generator: Adobe Illustrator 16.0.0, SVG Export Plug-In . SVG Version: 6.00 Build 0)  -->
<!DOCTYPE svg PUBLIC "-//W3C//DTD SVG 1.1//EN" "http://www.w3.org/Graphics/SVG/1.1/DTD/svg11.dtd">
<svg version="1.1" id="Layer_1" xmlns="http://www.w3.org/2000/svg" xmlns:xlink="http://www.w3.org/1999/xlink" x="0px" y="0px"
	 width="16.016px" height="13.568px" viewBox="0 0 16.016 13.568" style="enable-background:new 0 0 16.016 13.568;"
	 xml:space="preserve">
<path id="Heart_1" style="fill-rule:evenodd;clip-rule:evenodd;" d="M8.701,13.27c-0.382,0.398-1.003,0.398-1.385,0L1.174,6.875
	c-1.565-1.574-1.565-4.123,0-5.695c1.564-1.572,4.103-1.572,5.668,0l1.166,1.424L9.174,1.18c1.565-1.572,4.104-1.572,5.668,0
	c1.565,1.572,1.565,4.121,0,5.695L8.701,13.27z M8.68,4.709c-0.371,0.41-0.973,0.41-1.344,0L5.424,2.604
	c-0.782-0.787-2.051-0.787-2.834,0c-0.782,0.785-0.782,2.061,0,2.848l5.418,5.693l5.418-5.693c0.781-0.787,0.781-2.062,0-2.848
	c-0.783-0.787-2.052-0.787-2.834,0L8.68,4.709z"/>
<g>
</g>
<g>
</g>
<g>
</g>
<g>
</g>
<g>
</g>
<g>
</g>
<g>
</g>
<g>
</g>
<g>
</g>
<g>
</g>
<g>
</g>
<g>
</g>
<g>
</g>
<g>
</g>
<g>
</g>
</svg>
