<?xml version="1.0" encoding="iso-8859-1"?>
<!-- Generator: Adobe Illustrator 16.0.0, SVG Export Plug-In . SVG Version: 6.00 Build 0)  -->
<!DOCTYPE svg PUBLIC "-//W3C//DTD SVG 1.1//EN" "http://www.w3.org/Graphics/SVG/1.1/DTD/svg11.dtd">
<svg version="1.1" id="Layer_1" xmlns="http://www.w3.org/2000/svg" xmlns:xlink="http://www.w3.org/1999/xlink" x="0px" y="0px"
	 width="18px" height="16px" viewBox="0 0 18 16" style="enable-background:new 0 0 18 16;" xml:space="preserve">
<g id="Home_1_x2C__House_1">
	<path d="M8,15.5C8,15.776,7.767,16,7.488,16H2.954C2.397,16,2,15.553,2,15V9H0.521c-0.557,0-0.688-0.316-0.295-0.707l8.061-8
		c0.395-0.391,1.031-0.391,1.426,0l8.061,8C18.167,8.684,18.035,9,17.479,9H16v6c0,0.553-0.397,1-0.954,1h-4.534
		C10.233,16,10,15.776,10,15.5V12H8V15.5z M14,14V7.414l-5-5l-5,5V14h2v-3c0-0.553,0.428-1,0.984-1h4.031C11.572,10,12,10.447,12,11
		v3H14z"/>
</g>
<g>
</g>
<g>
</g>
<g>
</g>
<g>
</g>
<g>
</g>
<g>
</g>
<g>
</g>
<g>
</g>
<g>
</g>
<g>
</g>
<g>
</g>
<g>
</g>
<g>
</g>
<g>
</g>
<g>
</g>
</svg>
