<?xml version="1.0" encoding="iso-8859-1"?>
<!-- Generator: Adobe Illustrator 16.0.0, SVG Export Plug-In . SVG Version: 6.00 Build 0)  -->
<!DOCTYPE svg PUBLIC "-//W3C//DTD SVG 1.1//EN" "http://www.w3.org/Graphics/SVG/1.1/DTD/svg11.dtd">
<svg version="1.1" id="Layer_1" xmlns="http://www.w3.org/2000/svg" xmlns:xlink="http://www.w3.org/1999/xlink" x="0px" y="0px"
	 width="16px" height="16px" viewBox="0 0 16 16" style="enable-background:new 0 0 16 16;" xml:space="preserve">
<g id="Inbox_5">
	<path d="M15,0H1C0.447,0,0,0.447,0,1v13l0,0v1c0,0.553,0.447,1,1,1h14c0.553,0,1-0.447,1-1V1C16,0.447,15.553,0,15,0z M12,11
		c-0.553,0-1,0.447-1,1v1.5c0,0.276-0.224,0.5-0.5,0.5h-5C5.224,14,5,13.776,5,13.5V12c0-0.553-0.447-1-1-1H2V2h12v9H12z"/>
	<path d="M11.5,4h-7C4.224,4,4,4.224,4,4.5v1C4,5.776,4.224,6,4.5,6h7C11.776,6,12,5.776,12,5.5v-1C12,4.224,11.776,4,11.5,4z"/>
	<path d="M11.5,7h-7C4.224,7,4,7.224,4,7.5v1C4,8.776,4.224,9,4.5,9h7C11.776,9,12,8.776,12,8.5v-1C12,7.224,11.776,7,11.5,7z"/>
</g>
<g>
</g>
<g>
</g>
<g>
</g>
<g>
</g>
<g>
</g>
<g>
</g>
<g>
</g>
<g>
</g>
<g>
</g>
<g>
</g>
<g>
</g>
<g>
</g>
<g>
</g>
<g>
</g>
<g>
</g>
</svg>
