<?xml version="1.0" encoding="iso-8859-1"?>
<!-- Generator: Adobe Illustrator 16.0.0, SVG Export Plug-In . SVG Version: 6.00 Build 0)  -->
<!DOCTYPE svg PUBLIC "-//W3C//DTD SVG 1.1//EN" "http://www.w3.org/Graphics/SVG/1.1/DTD/svg11.dtd">
<svg version="1.1" id="Layer_1" xmlns="http://www.w3.org/2000/svg" xmlns:xlink="http://www.w3.org/1999/xlink" x="0px" y="0px"
	 width="16px" height="16px" viewBox="0 0 16 16" style="enable-background:new 0 0 16 16;" xml:space="preserve">
<g id="Inbox_6">
	<path d="M2,1l-2,9v5c0,0.553,0.447,1,1,1h14c0.553,0,1-0.447,1-1v-5l-2-9c0-0.553-0.447-1-1-1H3C2.447,0,2,0.447,2,1z M11,11.5
		c0,0.276-0.224,0.5-0.5,0.5h-5C5.224,12,5,11.776,5,11.5V10c0-0.553-0.447-1-1-1H3l1-7h8l1,7h-1c-0.553,0-1,0.447-1,1V11.5z"/>
</g>
<g>
</g>
<g>
</g>
<g>
</g>
<g>
</g>
<g>
</g>
<g>
</g>
<g>
</g>
<g>
</g>
<g>
</g>
<g>
</g>
<g>
</g>
<g>
</g>
<g>
</g>
<g>
</g>
<g>
</g>
</svg>
