<?xml version="1.0" encoding="iso-8859-1"?>
<!-- Generator: Adobe Illustrator 16.0.0, SVG Export Plug-In . SVG Version: 6.00 Build 0)  -->
<!DOCTYPE svg PUBLIC "-//W3C//DTD SVG 1.1//EN" "http://www.w3.org/Graphics/SVG/1.1/DTD/svg11.dtd">
<svg version="1.1" id="Layer_1" xmlns="http://www.w3.org/2000/svg" xmlns:xlink="http://www.w3.org/1999/xlink" x="0px" y="0px"
	 width="16px" height="16px" viewBox="0 0 16 16" style="enable-background:new 0 0 16 16;" xml:space="preserve">
<g id="Inbox_3_1_">
	<path style="fill-rule:evenodd;clip-rule:evenodd;" d="M15,0H1C0.447,0,0,0.447,0,1v13v1c0,0.553,0.447,1,1,1h14
		c0.553,0,1-0.447,1-1V1C16,0.447,15.553,0,15,0z M14,11h-2c-0.553,0-1,0.447-1,1v1.5c0,0.276-0.224,0.5-0.5,0.5h-5
		C5.224,14,5,13.776,5,13.5V12c0-0.553-0.447-1-1-1H2V2h12V11z"/>
	<path style="fill-rule:evenodd;clip-rule:evenodd;" d="M5.305,8H7v2.5C7,10.775,7.224,11,7.5,11h1C8.776,11,9,10.775,9,10.5V8
		h1.695c0.297,0,0.394-0.265,0.215-0.5L8.323,4.178C8.145,3.943,7.855,3.939,7.677,4.174L5.09,7.5C4.911,7.736,5.008,8,5.305,8z"/>
</g>
<g>
</g>
<g>
</g>
<g>
</g>
<g>
</g>
<g>
</g>
<g>
</g>
<g>
</g>
<g>
</g>
<g>
</g>
<g>
</g>
<g>
</g>
<g>
</g>
<g>
</g>
<g>
</g>
<g>
</g>
</svg>
