<?xml version="1.0" encoding="iso-8859-1"?>
<!-- Generator: Adobe Illustrator 16.0.0, SVG Export Plug-In . SVG Version: 6.00 Build 0)  -->
<!DOCTYPE svg PUBLIC "-//W3C//DTD SVG 1.1//EN" "http://www.w3.org/Graphics/SVG/1.1/DTD/svg11.dtd">
<svg version="1.1" id="Layer_1" xmlns="http://www.w3.org/2000/svg" xmlns:xlink="http://www.w3.org/1999/xlink" x="0px" y="0px"
	 width="16px" height="16px" viewBox="0 0 16 16" style="enable-background:new 0 0 16 16;" xml:space="preserve">
<g id="Inbox_2_1_">
	<path d="M15,0H1C0.447,0,0,0.447,0,1v14c0,0.553,0.447,1,1,1h14c0.553,0,1-0.447,1-1V1C16,0.447,15.553,0,15,0z M12,11
		c-0.553,0-1,0.447-1,1v1.5c0,0.276-0.224,0.5-0.5,0.5h-5C5.224,14,5,13.776,5,13.5V12c0-0.553-0.447-1-1-1H2V2h12v9H12z"/>
	<path d="M6.797,9.869c0.174,0.175,0.455,0.175,0.629,0l4.443-4.473c0.174-0.176,0.174-0.458,0-0.633l-0.628-0.633
		c-0.174-0.174-0.454-0.174-0.628,0L7.111,7.655L5.387,5.92c-0.174-0.174-0.454-0.174-0.628,0L4.13,6.553
		c-0.173,0.175-0.173,0.458,0,0.633L6.797,9.869z"/>
</g>
<g>
</g>
<g>
</g>
<g>
</g>
<g>
</g>
<g>
</g>
<g>
</g>
<g>
</g>
<g>
</g>
<g>
</g>
<g>
</g>
<g>
</g>
<g>
</g>
<g>
</g>
<g>
</g>
<g>
</g>
</svg>
