<?xml version="1.0" encoding="iso-8859-1"?>
<!-- Generator: Adobe Illustrator 16.0.0, SVG Export Plug-In . SVG Version: 6.00 Build 0)  -->
<!DOCTYPE svg PUBLIC "-//W3C//DTD SVG 1.1//EN" "http://www.w3.org/Graphics/SVG/1.1/DTD/svg11.dtd">
<svg version="1.1" id="Layer_1" xmlns="http://www.w3.org/2000/svg" xmlns:xlink="http://www.w3.org/1999/xlink" x="0px" y="0px"
	 width="16px" height="16px" viewBox="0 0 16 16" style="enable-background:new 0 0 16 16;" xml:space="preserve">
<g id="Info_1_x2C__About_1">
	<path style="fill-rule:evenodd;clip-rule:evenodd;" d="M8,13h1.5c0.276,0,0.5-0.224,0.5-0.5v-1c0-0.276-0.224-0.5-0.5-0.5H9V7
		c0-0.553-0.447-1-1-1H6.5C6.224,6,6,6.224,6,6.5v1C6,7.776,6.224,8,6.5,8H7v4C7,12.553,7.447,13,8,13z"/>
	<path style="fill-rule:evenodd;clip-rule:evenodd;" d="M8.5,3h-1C7.224,3,7,3.224,7,3.5v1C7,4.776,7.224,5,7.5,5h1
		C8.776,5,9,4.776,9,4.5v-1C9,3.224,8.776,3,8.5,3z"/>
	<path style="fill-rule:evenodd;clip-rule:evenodd;" d="M15,0H1C0.447,0,0,0.447,0,1v14c0,0.553,0.447,1,1,1h14c0.553,0,1-0.447,1-1
		V1C16,0.447,15.553,0,15,0z M14,14H2V2h12V14z"/>
</g>
<g>
</g>
<g>
</g>
<g>
</g>
<g>
</g>
<g>
</g>
<g>
</g>
<g>
</g>
<g>
</g>
<g>
</g>
<g>
</g>
<g>
</g>
<g>
</g>
<g>
</g>
<g>
</g>
<g>
</g>
</svg>
