<?xml version="1.0" encoding="iso-8859-1"?>
<!-- Generator: Adobe Illustrator 16.0.0, SVG Export Plug-In . SVG Version: 6.00 Build 0)  -->
<!DOCTYPE svg PUBLIC "-//W3C//DTD SVG 1.1//EN" "http://www.w3.org/Graphics/SVG/1.1/DTD/svg11.dtd">
<svg version="1.1" id="Layer_1" xmlns="http://www.w3.org/2000/svg" xmlns:xlink="http://www.w3.org/1999/xlink" x="0px" y="0px"
	 width="12px" height="16px" viewBox="0 0 12 16" style="enable-background:new 0 0 12 16;" xml:space="preserve">
<path id="Ipad_Mini_1_x2C__Tablet_2" style="fill-rule:evenodd;clip-rule:evenodd;" d="M11,0H1C0.447,0,0,0.447,0,1v14
	c0,0.553,0.447,1,1,1h10c0.553,0,1-0.447,1-1V1C12,0.447,11.553,0,11,0z M6.5,15h-1C5.224,15,5,14.776,5,14.5v-1
	C5,13.224,5.224,13,5.5,13h1C6.776,13,7,13.224,7,13.5v1C7,14.776,6.776,15,6.5,15z M10,12H2V2h8V12z"/>
<g>
</g>
<g>
</g>
<g>
</g>
<g>
</g>
<g>
</g>
<g>
</g>
<g>
</g>
<g>
</g>
<g>
</g>
<g>
</g>
<g>
</g>
<g>
</g>
<g>
</g>
<g>
</g>
<g>
</g>
</svg>
