<?xml version="1.0" encoding="iso-8859-1"?>
<!-- Generator: Adobe Illustrator 16.0.0, SVG Export Plug-In . SVG Version: 6.00 Build 0)  -->
<!DOCTYPE svg PUBLIC "-//W3C//DTD SVG 1.1//EN" "http://www.w3.org/Graphics/SVG/1.1/DTD/svg11.dtd">
<svg version="1.1" id="Layer_1" xmlns="http://www.w3.org/2000/svg" xmlns:xlink="http://www.w3.org/1999/xlink" x="0px" y="0px"
	 width="10px" height="14px" viewBox="0 0 10 14" style="enable-background:new 0 0 10 14;" xml:space="preserve">
<path id="Iphone_1_x2C__Smart_Phone_3" style="fill-rule:evenodd;clip-rule:evenodd;" d="M9,0H1C0.447,0,0,0.447,0,1v12
	c0,0.553,0.447,1,1,1h8c0.553,0,1-0.447,1-1V1C10,0.447,9.553,0,9,0z M5.5,13h-1C4.224,13,4,12.776,4,12.5v-1
	C4,11.224,4.224,11,4.5,11h1C5.776,11,6,11.224,6,11.5v1C6,12.776,5.776,13,5.5,13z M8,10H2V2h6V10z"/>
<g>
</g>
<g>
</g>
<g>
</g>
<g>
</g>
<g>
</g>
<g>
</g>
<g>
</g>
<g>
</g>
<g>
</g>
<g>
</g>
<g>
</g>
<g>
</g>
<g>
</g>
<g>
</g>
<g>
</g>
</svg>
