<?xml version="1.0" encoding="iso-8859-1"?>
<!-- Generator: Adobe Illustrator 16.0.0, SVG Export Plug-In . SVG Version: 6.00 Build 0)  -->
<!DOCTYPE svg PUBLIC "-//W3C//DTD SVG 1.1//EN" "http://www.w3.org/Graphics/SVG/1.1/DTD/svg11.dtd">
<svg version="1.1" id="Layer_1" xmlns="http://www.w3.org/2000/svg" xmlns:xlink="http://www.w3.org/1999/xlink" x="0px" y="0px"
	 width="14px" height="16px" viewBox="0 0 14 16" style="enable-background:new 0 0 14 16;" xml:space="preserve">
<g id="Journal_3">
	<path d="M13,0H1C0.447,0,0,0.447,0,1v14c0,0.553,0.447,1,1,1h12c0.553,0,1-0.447,1-1V1C14,0.447,13.553,0,13,0z M3,14H2V2h1V14z
		 M12,14H5V2h7V14z"/>
	<path d="M10.5,4h-4C6.224,4,6,4.224,6,4.5v1C6,5.776,6.224,6,6.5,6h4C10.776,6,11,5.776,11,5.5v-1C11,4.224,10.776,4,10.5,4z"/>
	<path d="M10.5,7h-4C6.224,7,6,7.224,6,7.5v1C6,8.776,6.224,9,6.5,9h4C10.776,9,11,8.776,11,8.5v-1C11,7.224,10.776,7,10.5,7z"/>
</g>
<g>
</g>
<g>
</g>
<g>
</g>
<g>
</g>
<g>
</g>
<g>
</g>
<g>
</g>
<g>
</g>
<g>
</g>
<g>
</g>
<g>
</g>
<g>
</g>
<g>
</g>
<g>
</g>
<g>
</g>
</svg>
