<?xml version="1.0" encoding="iso-8859-1"?>
<!-- Generator: Adobe Illustrator 16.0.0, SVG Export Plug-In . SVG Version: 6.00 Build 0)  -->
<!DOCTYPE svg PUBLIC "-//W3C//DTD SVG 1.1//EN" "http://www.w3.org/Graphics/SVG/1.1/DTD/svg11.dtd">
<svg version="1.1" id="Layer_1" xmlns="http://www.w3.org/2000/svg" xmlns:xlink="http://www.w3.org/1999/xlink" x="0px" y="0px"
	 width="16px" height="16px" viewBox="0 0 16 16" style="enable-background:new 0 0 16 16;" xml:space="preserve">
<g id="Key_1_x2C__Password_1">
	<path d="M0,5c0,2.757,2.243,5,5,5c0.181,0,0.364-0.011,0.554-0.032L6,10.414V12.5C6,12.776,6.224,13,6.5,13H8v1.5
		C8,14.776,8.224,15,8.5,15H10v0.5c0,0.276,0.224,0.5,0.5,0.5h5c0.276,0,0.5-0.224,0.5-0.5v-3.42c0-0.276-0.16-0.656-0.357-0.851
		L9.958,5.646C9.986,5.438,10,5.223,10,5c0-2.757-2.243-5-5-5S0,2.243,0,5z M14,14h-2v-1h-2v-2H8V9.586L6.227,7.811l-0.529,0.11
		C5.439,7.975,5.212,8,5,8C3.346,8,2,6.654,2,5s1.346-3,3-3s3,1.346,3,3c0,0.259-0.03,0.494-0.091,0.701L7.743,6.275L14,12.42V14z"
		/>
	<circle cx="4.5" cy="4.5" r="1.5"/>
</g>
<g>
</g>
<g>
</g>
<g>
</g>
<g>
</g>
<g>
</g>
<g>
</g>
<g>
</g>
<g>
</g>
<g>
</g>
<g>
</g>
<g>
</g>
<g>
</g>
<g>
</g>
<g>
</g>
<g>
</g>
</svg>
