<?xml version="1.0" encoding="iso-8859-1"?>
<!-- Generator: Adobe Illustrator 16.0.0, SVG Export Plug-In . SVG Version: 6.00 Build 0)  -->
<!DOCTYPE svg PUBLIC "-//W3C//DTD SVG 1.1//EN" "http://www.w3.org/Graphics/SVG/1.1/DTD/svg11.dtd">
<svg version="1.1" id="Layer_1" xmlns="http://www.w3.org/2000/svg" xmlns:xlink="http://www.w3.org/1999/xlink" x="0px" y="0px"
	 width="18px" height="15px" viewBox="0 0 18 15" style="enable-background:new 0 0 18 15;" xml:space="preserve">
<g id="Laptop_1">
	<path style="fill-rule:evenodd;clip-rule:evenodd;" d="M5.5,5h7C12.776,5,13,4.776,13,4.5v-1C13,3.224,12.776,3,12.5,3h-7
		C5.224,3,5,3.224,5,3.5v1C5,4.776,5.224,5,5.5,5z"/>
	<path style="fill-rule:evenodd;clip-rule:evenodd;" d="M5.5,8h7C12.776,8,13,7.776,13,7.5v-1C13,6.224,12.776,6,12.5,6h-7
		C5.224,6,5,6.224,5,6.5v1C5,7.776,5.224,8,5.5,8z"/>
	<path style="fill-rule:evenodd;clip-rule:evenodd;" d="M16,10.122V1c0-0.575-0.41-1-0.996-1H2.811C2.227,0,2,0.425,2,1v9.122L0,13
		v1c0,0.553,0.447,1,1,1h16c0.553,0,1-0.447,1-1v-1L16,10.122z M11,13H7v-1h4V13z M14,10H4V2h10V10z"/>
</g>
<g>
</g>
<g>
</g>
<g>
</g>
<g>
</g>
<g>
</g>
<g>
</g>
<g>
</g>
<g>
</g>
<g>
</g>
<g>
</g>
<g>
</g>
<g>
</g>
<g>
</g>
<g>
</g>
<g>
</g>
</svg>
