<?xml version="1.0" encoding="iso-8859-1"?>
<!-- Generator: Adobe Illustrator 16.0.0, SVG Export Plug-In . SVG Version: 6.00 Build 0)  -->
<!DOCTYPE svg PUBLIC "-//W3C//DTD SVG 1.1//EN" "http://www.w3.org/Graphics/SVG/1.1/DTD/svg11.dtd">
<svg version="1.1" id="Layer_1" xmlns="http://www.w3.org/2000/svg" xmlns:xlink="http://www.w3.org/1999/xlink" x="0px" y="0px"
	 width="16px" height="16px" viewBox="0 0 16 16" style="enable-background:new 0 0 16 16;" xml:space="preserve">
<path id="Leaf_1_x2C__Nature_1" d="M12.015,8.318c-1.003,2.77-4.823,5.081-7.438,2.196c0.172-0.214,0.341-0.427,0.524-0.631
	c0.255-0.311,0.554-0.576,0.823-0.863c0.751-0.758,1.615-1.396,2.5-1.991C8.679,6.869,8.9,6.698,9.119,6.591
	c0.346-0.19,0.693-0.379,1.039-0.57l0.028-0.016c0.434-0.238,0.135-0.979-0.348-0.77c-2.075,0.888-4.123,1.995-5.723,3.6
	C3.993,8.95,3.881,9.073,3.762,9.191c-1.095-2.857,0.737-5.958,3.564-6.74c2.031-0.562,4.491-0.414,6.398,0.515L12.015,8.318z
	 M6.773,0.451C2.537,1.867,0.03,6.763,2.308,10.808c-0.663,0.832-3.31,3.952-1.9,4.977c0.885,0.646,1.421-0.298,1.669-0.982
	c0.356-0.905,0.787-1.766,1.301-2.596c1.529,1.499,3.806,2.104,5.875,1.437c2.136-0.689,3.902-2.339,4.576-4.459l2.138-6.655
	c0.083-0.26,0.01-0.57-0.166-0.692l-0.316-0.22C13.071-0.064,9.357-0.399,6.773,0.451z"/>
<g>
</g>
<g>
</g>
<g>
</g>
<g>
</g>
<g>
</g>
<g>
</g>
<g>
</g>
<g>
</g>
<g>
</g>
<g>
</g>
<g>
</g>
<g>
</g>
<g>
</g>
<g>
</g>
<g>
</g>
</svg>
