<?xml version="1.0" encoding="iso-8859-1"?>
<!-- Generator: Adobe Illustrator 16.0.0, SVG Export Plug-In . SVG Version: 6.00 Build 0)  -->
<!DOCTYPE svg PUBLIC "-//W3C//DTD SVG 1.1//EN" "http://www.w3.org/Graphics/SVG/1.1/DTD/svg11.dtd">
<svg version="1.1" id="Layer_1" xmlns="http://www.w3.org/2000/svg" xmlns:xlink="http://www.w3.org/1999/xlink" x="0px" y="0px"
	 width="12px" height="10px" viewBox="0 0 12 10" style="enable-background:new 0 0 12 10;" xml:space="preserve">
<path id="Left_4" d="M11.5,4H3.516l2.342-2.42c0.189-0.198,0.189-0.519,0-0.716L5.174,0.147C4.986-0.05,4.68-0.05,4.49,0.147
	l-4.35,4.507c-0.188,0.199-0.188,0.52,0,0.717l4.322,4.479c0.189,0.199,0.496,0.199,0.684,0L5.83,9.134
	c0.189-0.197,0.189-0.518,0-0.715L3.489,6H11.5C11.776,6,12,5.776,12,5.5v-1C12,4.224,11.776,4,11.5,4z"/>
<g>
</g>
<g>
</g>
<g>
</g>
<g>
</g>
<g>
</g>
<g>
</g>
<g>
</g>
<g>
</g>
<g>
</g>
<g>
</g>
<g>
</g>
<g>
</g>
<g>
</g>
<g>
</g>
<g>
</g>
</svg>
