<?xml version="1.0" encoding="iso-8859-1"?>
<!-- Generator: Adobe Illustrator 16.0.0, SVG Export Plug-In . SVG Version: 6.00 Build 0)  -->
<!DOCTYPE svg PUBLIC "-//W3C//DTD SVG 1.1//EN" "http://www.w3.org/Graphics/SVG/1.1/DTD/svg11.dtd">
<svg version="1.1" id="Layer_1" xmlns="http://www.w3.org/2000/svg" xmlns:xlink="http://www.w3.org/1999/xlink" x="0px" y="0px"
	 width="12px" height="16px" viewBox="0 0 12 16" style="enable-background:new 0 0 12 16;" xml:space="preserve">
<path id="Lightbulb_1_x2C__Idea_1" d="M6,0C2.689,0,0,2.689,0,6c0,2.221,1.21,4.15,3,5.189V15c0,0.553,0.447,1,1,1h4
	c0.553,0,1-0.447,1-1v-3.811C10.79,10.15,12,8.221,12,6C12,2.689,9.311,0,6,0z M5,14v-1h2v1H5z M7,10.37V11H5v-0.63
	c0-0.276-0.219-0.553-0.476-0.653C3.042,9.131,2,7.684,2,6c0-2.21,1.79-4,4-4s4,1.79,4,4c0,1.684-1.042,3.131-2.524,3.717
	C7.219,9.817,7,10.094,7,10.37z"/>
<g>
</g>
<g>
</g>
<g>
</g>
<g>
</g>
<g>
</g>
<g>
</g>
<g>
</g>
<g>
</g>
<g>
</g>
<g>
</g>
<g>
</g>
<g>
</g>
<g>
</g>
<g>
</g>
<g>
</g>
</svg>
