<?xml version="1.0" encoding="iso-8859-1"?>
<!-- Generator: Adobe Illustrator 16.0.0, SVG Export Plug-In . SVG Version: 6.00 Build 0)  -->
<!DOCTYPE svg PUBLIC "-//W3C//DTD SVG 1.1//EN" "http://www.w3.org/Graphics/SVG/1.1/DTD/svg11.dtd">
<svg version="1.1" id="Layer_1" xmlns="http://www.w3.org/2000/svg" xmlns:xlink="http://www.w3.org/1999/xlink" x="0px" y="0px"
	 width="16px" height="8px" viewBox="0 0 16 8" style="enable-background:new 0 0 16 8;" xml:space="preserve">
<g id="Link_3">
	<path d="M4.635,6.446C4.499,6.206,4.422,6,4.205,6C4.092,6,4,6,4,6C2.9,6,2,5.1,2,4s0.9-2,2-2h3c1.1,0,2,0.9,2,2c0,0.55,0.45,1,1,1
		s1-0.45,1-1c0-0.35-0.04-0.68-0.13-1c-0.045-0.178-0.103-0.35-0.171-0.517c-0.002-0.006-0.006-0.012-0.008-0.018
		c-0.193-0.469-0.471-0.892-0.817-1.249C9.862,1.204,9.849,1.194,9.836,1.183C9.38,0.723,8.814,0.372,8.18,0.18C7.8,0.06,7.41,0,7,0
		H4C1.79,0,0,1.79,0,4s1.79,4,4,4h1.5c0.276,0,0.319-0.133,0.116-0.319C5.228,7.323,4.896,6.906,4.635,6.446z"/>
	<path d="M12,0h-1.51c-0.276,0-0.318,0.131-0.114,0.316c0.391,0.354,0.726,0.771,0.984,1.234C11.495,1.792,11.594,2,11.79,2
		C11.906,2,12,2,12,2c1.1,0,2,0.9,2,2s-0.9,2-2,2H9C7.9,6,7,5.1,7,4c0-0.55-0.45-1-1-1S5,3.45,5,4c0,0.69,0.18,1.34,0.48,1.9
		C5.54,6.01,5.61,6.12,5.67,6.22C5.75,6.34,5.83,6.44,5.91,6.54C6,6.65,6.1,6.76,6.21,6.86c0.11,0.109,0.22,0.21,0.34,0.3
		C6.62,7.22,6.69,7.27,6.77,7.32C7.41,7.75,8.18,8,9,8h3c2.21,0,4-1.79,4-4S14.21,0,12,0z"/>
</g>
<g>
</g>
<g>
</g>
<g>
</g>
<g>
</g>
<g>
</g>
<g>
</g>
<g>
</g>
<g>
</g>
<g>
</g>
<g>
</g>
<g>
</g>
<g>
</g>
<g>
</g>
<g>
</g>
<g>
</g>
</svg>
