<?xml version="1.0" encoding="iso-8859-1"?>
<!-- Generator: Adobe Illustrator 16.0.0, SVG Export Plug-In . SVG Version: 6.00 Build 0)  -->
<!DOCTYPE svg PUBLIC "-//W3C//DTD SVG 1.1//EN" "http://www.w3.org/Graphics/SVG/1.1/DTD/svg11.dtd">
<svg version="1.1" id="Layer_1" xmlns="http://www.w3.org/2000/svg" xmlns:xlink="http://www.w3.org/1999/xlink" x="0px" y="0px"
	 width="16px" height="16px" viewBox="0 0 16 16" style="enable-background:new 0 0 16 16;" xml:space="preserve">
<path id="Link_2" d="M9.478,0.613L6.522,3.567c-0.257,0.257-0.333,0.609-0.267,0.94C6.236,4.51,6.865,7.656,6.865,7.656l-1.82,1.82
	c-0.408,0.408-0.408,1.07,0,1.479s1.07,0.408,1.478,0l0.836-0.836l0.246,1.231l-1.82,1.821c-0.408,0.406-1.069,0.408-1.478,0
	l-1.478-1.479c-0.408-0.407-0.408-1.069,0-1.478l2.248-2.247C5.617,7.43,5.25,6.728,5.045,6.523
	C4.637,6.114,3.977,6.114,3.568,6.522L0.611,9.477c-0.814,0.816-0.814,2.141,0,2.955l2.957,2.956c0.815,0.815,2.139,0.817,2.954,0
	l2.955-2.957c0.257-0.254,0.333-0.606,0.268-0.938c0.019-0.003-0.611-3.15-0.611-3.15l1.821-1.819c0.408-0.408,0.408-1.069,0-1.478
	s-1.069-0.408-1.478,0L8.643,5.881L8.396,4.648l1.82-1.82c0.408-0.407,1.068-0.407,1.477,0l1.479,1.479
	c0.408,0.408,0.408,1.068,0,1.477l-2.248,2.248c-0.391,0.391-0.283,1.172,0.031,1.445l0,0c0.408,0.408,1.069,0.408,1.478,0
	l2.956-2.954c0.815-0.816,0.815-2.139,0-2.955l-2.956-2.956C11.616-0.205,10.294-0.203,9.478,0.613z"/>
<g>
</g>
<g>
</g>
<g>
</g>
<g>
</g>
<g>
</g>
<g>
</g>
<g>
</g>
<g>
</g>
<g>
</g>
<g>
</g>
<g>
</g>
<g>
</g>
<g>
</g>
<g>
</g>
<g>
</g>
</svg>
