<?xml version="1.0" encoding="iso-8859-1"?>
<!-- Generator: Adobe Illustrator 16.0.0, SVG Export Plug-In . SVG Version: 6.00 Build 0)  -->
<!DOCTYPE svg PUBLIC "-//W3C//DTD SVG 1.1//EN" "http://www.w3.org/Graphics/SVG/1.1/DTD/svg11.dtd">
<svg version="1.1" id="Layer_1" xmlns="http://www.w3.org/2000/svg" xmlns:xlink="http://www.w3.org/1999/xlink" x="0px" y="0px"
	 width="15.979px" height="15.989px" viewBox="0 0 15.979 15.989" style="enable-background:new 0 0 15.979 15.989;"
	 xml:space="preserve">
<path id="Loading_3" style="fill-rule:evenodd;clip-rule:evenodd;" d="M1.997,7.947c0.022-3.146,2.423-5.708,5.5-5.94
	c0.275-0.021,0.5-0.241,0.5-0.518v-1c0-0.276-0.224-0.504-0.499-0.488C3.48,0.222,0.288,3.415,0.016,7.433
	c-0.019,0.275-0.021,0.725-0.007,1c0.229,4.188,3.682,7.526,7.933,7.557c4.251,0.029,7.749-3.299,8.037-7.484
	c0.019-0.275-0.205-0.497-0.481-0.493l-1,0.013c-0.276,0.004-0.499,0.231-0.524,0.506c-0.275,3.078-2.872,5.48-6.017,5.459
	C4.642,13.966,1.974,11.261,1.997,7.947z"/>
<g>
</g>
<g>
</g>
<g>
</g>
<g>
</g>
<g>
</g>
<g>
</g>
<g>
</g>
<g>
</g>
<g>
</g>
<g>
</g>
<g>
</g>
<g>
</g>
<g>
</g>
<g>
</g>
<g>
</g>
</svg>
