<?xml version="1.0" encoding="iso-8859-1"?>
<!-- Generator: Adobe Illustrator 16.0.0, SVG Export Plug-In . SVG Version: 6.00 Build 0)  -->
<!DOCTYPE svg PUBLIC "-//W3C//DTD SVG 1.1//EN" "http://www.w3.org/Graphics/SVG/1.1/DTD/svg11.dtd">
<svg version="1.1" id="Layer_1" xmlns="http://www.w3.org/2000/svg" xmlns:xlink="http://www.w3.org/1999/xlink" x="0px" y="0px"
	 width="14px" height="15.852px" viewBox="0 0 14 15.852" style="enable-background:new 0 0 14 15.852;" xml:space="preserve">
<g id="Location_Pin_2">
	<path d="M7,4C5.343,4,4,5.343,4,7s1.343,3,3,3s3-1.343,3-3S8.657,4,7,4z M7,8C6.448,8,6,7.552,6,7s0.448-1,1-1s1,0.448,1,1
		S7.552,8,7,8z"/>
	<path d="M7,0C3.152,0,0,3.153,0,7c0,4.328,5.05,7.797,6.571,8.744c0.234,0.146,0.623,0.144,0.856-0.004C8.947,14.78,14,11.268,14,7
		C14,3.153,10.848,0,7,0z M7,14c-1.949-1.328-5-4.204-5-7c0-2.836,2.243-5,5-5s5,2.164,5,5C12,9.758,8.883,12.65,7,14z"/>
</g>
<g>
</g>
<g>
</g>
<g>
</g>
<g>
</g>
<g>
</g>
<g>
</g>
<g>
</g>
<g>
</g>
<g>
</g>
<g>
</g>
<g>
</g>
<g>
</g>
<g>
</g>
<g>
</g>
<g>
</g>
</svg>
