<?xml version="1.0" encoding="iso-8859-1"?>
<!-- Generator: Adobe Illustrator 16.0.0, SVG Export Plug-In . SVG Version: 6.00 Build 0)  -->
<!DOCTYPE svg PUBLIC "-//W3C//DTD SVG 1.1//EN" "http://www.w3.org/Graphics/SVG/1.1/DTD/svg11.dtd">
<svg version="1.1" id="Layer_1" xmlns="http://www.w3.org/2000/svg" xmlns:xlink="http://www.w3.org/1999/xlink" x="0px" y="0px"
	 width="16px" height="16px" viewBox="0 0 16 16" style="enable-background:new 0 0 16 16;" xml:space="preserve">
<g id="Location_Pin_4">
	<path d="M15,5h-2c0-2.772-2.228-5-5-5S3,2.228,3,5H1C0.447,5,0,5.447,0,6v9c0,0.553,0.447,1,1,1h14c0.553,0,1-0.447,1-1V6
		C16,5.447,15.276,5,15,5z M8,1.7c1.819,0,3.3,1.479,3.3,3.3c0,1.611-1.647,3.645-3.235,5.07C6.414,8.658,4.7,6.631,4.7,5
		C4.7,3.18,6.181,1.7,8,1.7z M14,14H2V7h1.459c0.926,2.139,3.029,4.01,4.056,4.818C7.667,11.939,7.871,12,8.075,12
		c0.213,0,0.424-0.064,0.58-0.193c0.991-0.82,3.001-2.693,3.896-4.807H14V14z"/>
	<circle cx="8" cy="5" r="1.262"/>
</g>
<g>
</g>
<g>
</g>
<g>
</g>
<g>
</g>
<g>
</g>
<g>
</g>
<g>
</g>
<g>
</g>
<g>
</g>
<g>
</g>
<g>
</g>
<g>
</g>
<g>
</g>
<g>
</g>
<g>
</g>
</svg>
