<?xml version="1.0" encoding="iso-8859-1"?>
<!-- Generator: Adobe Illustrator 16.0.0, SVG Export Plug-In . SVG Version: 6.00 Build 0)  -->
<!DOCTYPE svg PUBLIC "-//W3C//DTD SVG 1.1//EN" "http://www.w3.org/Graphics/SVG/1.1/DTD/svg11.dtd">
<svg version="1.1" id="Layer_1" xmlns="http://www.w3.org/2000/svg" xmlns:xlink="http://www.w3.org/1999/xlink" x="0px" y="0px"
	 width="16px" height="16px" viewBox="0 0 16 16" style="enable-background:new 0 0 16 16;" xml:space="preserve">
<g id="Location_Pin_5">
	<path d="M15.929,14.629l-2-5C13.776,9.249,13.409,9,13,9h-2.5C10.224,9,10,9.224,10,9.5v1c0,0.276,0.224,0.5,0.5,0.5h1.823l1.2,3
		H2.477l1.2-3H5.5C5.776,11,6,10.776,6,10.5v-1C6,9.224,5.776,9,5.5,9H3C2.591,9,2.224,9.249,2.071,9.629l-2,5
		c-0.123,0.308-0.085,0.656,0.101,0.932C0.358,15.836,0.668,16,1,16h14c0.332,0,0.642-0.164,0.828-0.439
		C16.014,15.285,16.052,14.937,15.929,14.629z"/>
	<path d="M7,7.858V12.5C7,12.776,7.224,13,7.5,13h1C8.776,13,9,12.776,9,12.5V7.858C10.722,7.412,12,5.861,12,4c0-2.209-1.792-4-4-4
		S4,1.791,4,4C4,5.861,5.278,7.412,7,7.858z M8,2c1.104,0,2,0.896,2,2S9.104,6,8,6S6,5.104,6,4S6.896,2,8,2z"/>
</g>
<g>
</g>
<g>
</g>
<g>
</g>
<g>
</g>
<g>
</g>
<g>
</g>
<g>
</g>
<g>
</g>
<g>
</g>
<g>
</g>
<g>
</g>
<g>
</g>
<g>
</g>
<g>
</g>
<g>
</g>
</svg>
