<?xml version="1.0" encoding="iso-8859-1"?>
<!-- Generator: Adobe Illustrator 16.0.0, SVG Export Plug-In . SVG Version: 6.00 Build 0)  -->
<!DOCTYPE svg PUBLIC "-//W3C//DTD SVG 1.1//EN" "http://www.w3.org/Graphics/SVG/1.1/DTD/svg11.dtd">
<svg version="1.1" id="Layer_1" xmlns="http://www.w3.org/2000/svg" xmlns:xlink="http://www.w3.org/1999/xlink" x="0px" y="0px"
	 width="12px" height="16px" viewBox="0 0 12 16" style="enable-background:new 0 0 12 16;" xml:space="preserve">
<path id="Lock_1" d="M11,6L11,6V5c0-2.762-2.238-5-5-5S1,2.238,1,5v1l0,0C0.447,6,0,6.447,0,7v8c0,0.553,0.447,1,1,1h10
	c0.553,0,1-0.447,1-1V7C12,6.447,11.553,6,11,6z M6,2c1.654,0,3,1.346,3,3v1H3V5C3,3.346,4.346,2,6,2z M10,14H2V8h8V14z"/>
<g>
</g>
<g>
</g>
<g>
</g>
<g>
</g>
<g>
</g>
<g>
</g>
<g>
</g>
<g>
</g>
<g>
</g>
<g>
</g>
<g>
</g>
<g>
</g>
<g>
</g>
<g>
</g>
<g>
</g>
</svg>
