<?xml version="1.0" encoding="iso-8859-1"?>
<!-- Generator: Adobe Illustrator 16.0.0, SVG Export Plug-In . SVG Version: 6.00 Build 0)  -->
<!DOCTYPE svg PUBLIC "-//W3C//DTD SVG 1.1//EN" "http://www.w3.org/Graphics/SVG/1.1/DTD/svg11.dtd">
<svg version="1.1" id="Layer_1" xmlns="http://www.w3.org/2000/svg" xmlns:xlink="http://www.w3.org/1999/xlink" x="0px" y="0px"
	 width="16px" height="16px" viewBox="0 0 16 16" style="enable-background:new 0 0 16 16;" xml:space="preserve">
<g id="Marquee_Plus_2">
	<path d="M12,8.5v-1C12,7.224,11.776,7,11.5,7H9V4.5C9,4.224,8.776,4,8.5,4h-1C7.224,4,7,4.224,7,4.5V7H4.5C4.224,7,4,7.224,4,7.5v1
		C4,8.776,4.224,9,4.5,9H7v2.5C7,11.776,7.224,12,7.5,12h1C8.776,12,9,11.776,9,11.5V9h2.5C11.776,9,12,8.776,12,8.5z"/>
	<path d="M0.5,5h1C1.776,5,2,4.776,2,4.5V2h2.5C4.776,2,5,1.776,5,1.5v-1C5,0.224,4.776,0,4.5,0H1C0.447,0,0,0.447,0,1v3.5
		C0,4.776,0.224,5,0.5,5z"/>
	<path d="M4.5,14H2v-2.5C2,11.224,1.776,11,1.5,11h-1C0.224,11,0,11.224,0,11.5V15c0,0.553,0.447,1,1,1h3.5
		C4.776,16,5,15.776,5,15.5v-1C5,14.224,4.776,14,4.5,14z"/>
	<path d="M15.5,11h-1c-0.276,0-0.5,0.224-0.5,0.5V14h-2.5c-0.276,0-0.5,0.224-0.5,0.5v1c0,0.276,0.224,0.5,0.5,0.5H15
		c0.553,0,1-0.447,1-1v-3.5C16,11.224,15.776,11,15.5,11z"/>
	<path d="M15,0h-3.5C11.224,0,11,0.224,11,0.5v1C11,1.776,11.224,2,11.5,2H14v2.5C14,4.776,14.224,5,14.5,5h1
		C15.776,5,16,4.776,16,4.5V1C16,0.447,15.553,0,15,0z"/>
</g>
<g>
</g>
<g>
</g>
<g>
</g>
<g>
</g>
<g>
</g>
<g>
</g>
<g>
</g>
<g>
</g>
<g>
</g>
<g>
</g>
<g>
</g>
<g>
</g>
<g>
</g>
<g>
</g>
<g>
</g>
</svg>
