<?xml version="1.0" encoding="iso-8859-1"?>
<!-- Generator: Adobe Illustrator 16.0.0, SVG Export Plug-In . SVG Version: 6.00 Build 0)  -->
<!DOCTYPE svg PUBLIC "-//W3C//DTD SVG 1.1//EN" "http://www.w3.org/Graphics/SVG/1.1/DTD/svg11.dtd">
<svg version="1.1" id="Layer_1" xmlns="http://www.w3.org/2000/svg" xmlns:xlink="http://www.w3.org/1999/xlink" x="0px" y="0px"
	 width="16px" height="16px" viewBox="0 0 16 16" style="enable-background:new 0 0 16 16;" xml:space="preserve">
<g id="Maximize_2_x2C__Expand_2">
	<path d="M15,0H1C0.447,0,0,0.447,0,1v14c0,0.553,0.447,1,1,1h14c0.553,0,1-0.447,1-1V1C16,0.447,15.553,0,15,0z M14,14H2V2h12V14z"
		/>
	<path d="M8.909,7.844c0.208,0.208,0.545,0.208,0.753,0l1.961-1.961l1,1C12.832,7.091,13,7.021,13,6.727V3.532
		C13,3.238,12.762,3,12.468,3H9.273C8.979,3,8.909,3.168,9.117,3.376l1,1.001L8.156,6.338c-0.208,0.208-0.208,0.545,0,0.753
		L8.909,7.844z"/>
	<path d="M3.532,13h3.194c0.295,0,0.364-0.168,0.156-0.376l-1-1.001l1.961-1.961c0.208-0.208,0.208-0.545,0-0.753L7.091,8.156
		c-0.208-0.208-0.545-0.208-0.753,0l-1.961,1.961l-1-1C3.168,8.909,3,8.979,3,9.273v3.194C3,12.762,3.238,13,3.532,13z"/>
</g>
<g>
</g>
<g>
</g>
<g>
</g>
<g>
</g>
<g>
</g>
<g>
</g>
<g>
</g>
<g>
</g>
<g>
</g>
<g>
</g>
<g>
</g>
<g>
</g>
<g>
</g>
<g>
</g>
<g>
</g>
</svg>
