<?xml version="1.0" encoding="iso-8859-1"?>
<!-- Generator: Adobe Illustrator 16.0.0, SVG Export Plug-In . SVG Version: 6.00 Build 0)  -->
<!DOCTYPE svg PUBLIC "-//W3C//DTD SVG 1.1//EN" "http://www.w3.org/Graphics/SVG/1.1/DTD/svg11.dtd">
<svg version="1.1" id="Layer_1" xmlns="http://www.w3.org/2000/svg" xmlns:xlink="http://www.w3.org/1999/xlink" x="0px" y="0px"
	 width="16px" height="14px" viewBox="0 0 16 14" style="enable-background:new 0 0 16 14;" xml:space="preserve">
<g id="Menu_List_4">
	<path style="fill-rule:evenodd;clip-rule:evenodd;" d="M8,0.5v1C8,1.776,8.224,2,8.5,2h7C15.776,2,16,1.776,16,1.5v-1
		C16,0.224,15.776,0,15.5,0h-7C8.224,0,8,0.224,8,0.5z"/>
	<path style="fill-rule:evenodd;clip-rule:evenodd;" d="M8,3.5v1C8,4.776,8.224,5,8.5,5h5C13.776,5,14,4.776,14,4.5v-1
		C14,3.224,13.776,3,13.5,3h-5C8.224,3,8,3.224,8,3.5z"/>
	<path style="fill-rule:evenodd;clip-rule:evenodd;" d="M0,1v4c0,0.553,0.447,1,1,1h4c0.553,0,1-0.447,1-1V1c0-0.553-0.447-1-1-1H1
		C0.447,0,0,0.447,0,1z M4,4H2V2h2V4z"/>
	<path style="fill-rule:evenodd;clip-rule:evenodd;" d="M0,9v4c0,0.553,0.447,1,1,1h4c0.553,0,1-0.447,1-1V9c0-0.553-0.447-1-1-1H1
		C0.447,8,0,8.447,0,9z M4,12H2v-2h2V12z"/>
	<path style="fill-rule:evenodd;clip-rule:evenodd;" d="M8.5,10h7c0.276,0,0.5-0.224,0.5-0.5v-1C16,8.224,15.776,8,15.5,8h-7
		C8.224,8,8,8.224,8,8.5v1C8,9.776,8.224,10,8.5,10z"/>
	<path style="fill-rule:evenodd;clip-rule:evenodd;" d="M8.5,13h5c0.276,0,0.5-0.224,0.5-0.5v-1c0-0.276-0.224-0.5-0.5-0.5h-5
		C8.224,11,8,11.224,8,11.5v1C8,12.776,8.224,13,8.5,13z"/>
</g>
<g>
</g>
<g>
</g>
<g>
</g>
<g>
</g>
<g>
</g>
<g>
</g>
<g>
</g>
<g>
</g>
<g>
</g>
<g>
</g>
<g>
</g>
<g>
</g>
<g>
</g>
<g>
</g>
<g>
</g>
</svg>
