<?xml version="1.0" encoding="iso-8859-1"?>
<!-- Generator: Adobe Illustrator 16.0.0, SVG Export Plug-In . SVG Version: 6.00 Build 0)  -->
<!DOCTYPE svg PUBLIC "-//W3C//DTD SVG 1.1//EN" "http://www.w3.org/Graphics/SVG/1.1/DTD/svg11.dtd">
<svg version="1.1" id="Layer_1" xmlns="http://www.w3.org/2000/svg" xmlns:xlink="http://www.w3.org/1999/xlink" x="0px" y="0px"
	 width="10px" height="16px" viewBox="0 0 10 16" style="enable-background:new 0 0 10 16;" xml:space="preserve">
<path id="Money_1_x2C__Currency_1" d="M6,3c0.932,0,1.717,0.642,1.938,1.505C8.006,4.772,8.224,5,8.5,5h1
	c0.276,0,0.503-0.226,0.469-0.499C9.723,2.529,8.037,1,6,1V0.5C6,0.224,5.776,0,5.5,0h-1C4.224,0,4,0.224,4,0.5V1
	C1.794,1,0,2.794,0,5s1.794,4,4,4v4c-0.932,0-1.717-0.642-1.938-1.505C1.994,11.228,1.776,11,1.5,11h-1
	c-0.276,0-0.503,0.226-0.469,0.499C0.277,13.471,1.963,15,4,15v0.5C4,15.776,4.224,16,4.5,16h1C5.776,16,6,15.776,6,15.5V15
	c2.206,0,4-1.794,4-4S8.206,7,6,7V3z M2,5c0-1.103,0.897-2,2-2v4C2.897,7,2,6.103,2,5z M6,13V9c1.103,0,2,0.897,2,2S7.103,13,6,13z"
	/>
<g>
</g>
<g>
</g>
<g>
</g>
<g>
</g>
<g>
</g>
<g>
</g>
<g>
</g>
<g>
</g>
<g>
</g>
<g>
</g>
<g>
</g>
<g>
</g>
<g>
</g>
<g>
</g>
<g>
</g>
</svg>
