<?xml version="1.0" encoding="iso-8859-1"?>
<!-- Generator: Adobe Illustrator 16.0.0, SVG Export Plug-In . SVG Version: 6.00 Build 0)  -->
<!DOCTYPE svg PUBLIC "-//W3C//DTD SVG 1.1//EN" "http://www.w3.org/Graphics/SVG/1.1/DTD/svg11.dtd">
<svg version="1.1" id="Layer_1" xmlns="http://www.w3.org/2000/svg" xmlns:xlink="http://www.w3.org/1999/xlink" x="0px" y="0px"
	 width="16px" height="16px" viewBox="0 0 16 16" style="enable-background:new 0 0 16 16;" xml:space="preserve">
<path id="Multiple_Browsers_1" style="fill-rule:evenodd;clip-rule:evenodd;" d="M15,0H5C4.45,0,4,0.45,4,1v3H1C0.45,4,0,4.45,0,5
	v10c0,0.55,0.45,1,1,1h10c0.55,0,1-0.45,1-1v-3h3c0.55,0,1-0.45,1-1V1C16,0.45,15.55,0,15,0z M2,5.5C2,5.224,2.224,5,2.5,5h1
	C3.776,5,4,5.224,4,5.5v1C4,6.776,3.776,7,3.5,7h-1C2.224,7,2,6.776,2,6.5V5.5z M10,14H2V8h8V14z M14,10h-2V5c0-0.55-0.45-1-1-1H6V2
	h8V10z"/>
<g>
</g>
<g>
</g>
<g>
</g>
<g>
</g>
<g>
</g>
<g>
</g>
<g>
</g>
<g>
</g>
<g>
</g>
<g>
</g>
<g>
</g>
<g>
</g>
<g>
</g>
<g>
</g>
<g>
</g>
</svg>
