<?xml version="1.0" encoding="iso-8859-1"?>
<!-- Generator: Adobe Illustrator 16.0.0, SVG Export Plug-In . SVG Version: 6.00 Build 0)  -->
<!DOCTYPE svg PUBLIC "-//W3C//DTD SVG 1.1//EN" "http://www.w3.org/Graphics/SVG/1.1/DTD/svg11.dtd">
<svg version="1.1" id="Layer_1" xmlns="http://www.w3.org/2000/svg" xmlns:xlink="http://www.w3.org/1999/xlink" x="0px" y="0px"
	 width="16px" height="16px" viewBox="0 0 16 16" style="enable-background:new 0 0 16 16;" xml:space="preserve">
<g id="Newspaper_4">
	<path d="M15,2h-3V1c0-0.553-0.447-1-1-1H1C0.447,0,0,0.447,0,1v12c0,1.66,1.34,3,3,3h10c1.66,0,3-1.34,3-3V3
		C16,2.447,15.553,2,15,2z M12,4h2v9c0,0.55-0.45,1-1,1s-1-0.45-1-1V4z M2,13V2h8v11c0,0.353,0.072,0.686,0.184,1H3
		C2.45,14,2,13.55,2,13z"/>
	<path d="M8.5,7h-5C3.224,7,3,7.224,3,7.5v1C3,8.776,3.224,9,3.5,9h5C8.776,9,9,8.776,9,8.5v-1C9,7.224,8.776,7,8.5,7z"/>
	<path d="M8.5,3h-5C3.224,3,3,3.224,3,3.5v2C3,5.776,3.224,6,3.5,6h5C8.776,6,9,5.776,9,5.5v-2C9,3.224,8.776,3,8.5,3z"/>
	<path d="M8.5,10h-5C3.224,10,3,10.224,3,10.5v1C3,11.776,3.224,12,3.5,12h5C8.776,12,9,11.776,9,11.5v-1C9,10.224,8.776,10,8.5,10z
		"/>
</g>
<g>
</g>
<g>
</g>
<g>
</g>
<g>
</g>
<g>
</g>
<g>
</g>
<g>
</g>
<g>
</g>
<g>
</g>
<g>
</g>
<g>
</g>
<g>
</g>
<g>
</g>
<g>
</g>
<g>
</g>
</svg>
