<?xml version="1.0" encoding="iso-8859-1"?>
<!-- Generator: Adobe Illustrator 16.0.0, SVG Export Plug-In . SVG Version: 6.00 Build 0)  -->
<!DOCTYPE svg PUBLIC "-//W3C//DTD SVG 1.1//EN" "http://www.w3.org/Graphics/SVG/1.1/DTD/svg11.dtd">
<svg version="1.1" id="Layer_1" xmlns="http://www.w3.org/2000/svg" xmlns:xlink="http://www.w3.org/1999/xlink" x="0px" y="0px"
	 width="16px" height="15.582px" viewBox="0 0 16 15.582" style="enable-background:new 0 0 16 15.582;" xml:space="preserve">
<path id="Open_Book_4" d="M0.97,0.029C0.435-0.104,0,0.234,0,0.787v11c0,0.553,0.419,1.157,0.937,1.352l6.127,2.297
	c0.517,0.194,1.356,0.194,1.873,0l6.127-2.297C15.581,12.944,16,12.34,16,11.787v-11c0-0.553-0.435-0.892-0.97-0.758L8,1.787
	L0.97,0.029z M2,2.349l5,1.25v9.677L2,11.4V2.349z M9,13.275V3.619l2-0.42v3.542c0,0.276,0.158,0.342,0.354,0.146L12,6.146
	l0.646,0.741C12.842,7.083,13,7.018,13,6.741V2.778l1-0.21V11.4L9,13.275z"/>
<g>
</g>
<g>
</g>
<g>
</g>
<g>
</g>
<g>
</g>
<g>
</g>
<g>
</g>
<g>
</g>
<g>
</g>
<g>
</g>
<g>
</g>
<g>
</g>
<g>
</g>
<g>
</g>
<g>
</g>
</svg>
