<?xml version="1.0" encoding="iso-8859-1"?>
<!-- Generator: Adobe Illustrator 16.0.0, SVG Export Plug-In . SVG Version: 6.00 Build 0)  -->
<!DOCTYPE svg PUBLIC "-//W3C//DTD SVG 1.1//EN" "http://www.w3.org/Graphics/SVG/1.1/DTD/svg11.dtd">
<svg version="1.1" id="Layer_1" xmlns="http://www.w3.org/2000/svg" xmlns:xlink="http://www.w3.org/1999/xlink" x="0px" y="0px"
	 width="6px" height="8px" viewBox="0 0 6 8" style="enable-background:new 0 0 6 8;" xml:space="preserve">
<g id="Pause_3">
	<path style="fill-rule:evenodd;clip-rule:evenodd;" d="M0.5,8h1C1.776,8,2,7.776,2,7.5v-7C2,0.224,1.776,0,1.5,0h-1
		C0.224,0,0,0.224,0,0.5v7C0,7.776,0.224,8,0.5,8z"/>
	<path style="fill-rule:evenodd;clip-rule:evenodd;" d="M4,0.5v7C4,7.776,4.224,8,4.5,8h1C5.776,8,6,7.776,6,7.5v-7
		C6,0.224,5.776,0,5.5,0h-1C4.224,0,4,0.224,4,0.5z"/>
</g>
<g>
</g>
<g>
</g>
<g>
</g>
<g>
</g>
<g>
</g>
<g>
</g>
<g>
</g>
<g>
</g>
<g>
</g>
<g>
</g>
<g>
</g>
<g>
</g>
<g>
</g>
<g>
</g>
<g>
</g>
</svg>
