<?xml version="1.0" encoding="iso-8859-1"?>
<!-- Generator: Adobe Illustrator 16.0.0, SVG Export Plug-In . SVG Version: 6.00 Build 0)  -->
<!DOCTYPE svg PUBLIC "-//W3C//DTD SVG 1.1//EN" "http://www.w3.org/Graphics/SVG/1.1/DTD/svg11.dtd">
<svg version="1.1" id="Layer_1" xmlns="http://www.w3.org/2000/svg" xmlns:xlink="http://www.w3.org/1999/xlink" x="0px" y="0px"
	 width="16px" height="16px" viewBox="0 0 16 16" style="enable-background:new 0 0 16 16;" xml:space="preserve">
<g id="Photo_Gallery_1">
	<path style="fill-rule:evenodd;clip-rule:evenodd;" d="M15,0H4C3.447,0,3,0.447,3,1v2H1C0.447,3,0,3.447,0,4v11
		c0,0.553,0.447,1,1,1h11c0.553,0,1-0.447,1-1v-2h2c0.553,0,1-0.447,1-1V1C16,0.447,15.553,0,15,0z M11,14H2V5h9V14z M14,11h-1V4
		c0-0.553-0.447-1-1-1H5V2h9V11z"/>
	<path style="fill-rule:evenodd;clip-rule:evenodd;" d="M3.5,13h6c0.276,0,0.5-0.139,0.5-0.432c0,0,0-0.119,0-0.266
		s-0.175-0.413-0.391-0.596L5.391,8.125C5.175,7.942,4.842,7.962,4.646,8.17L3.354,9.541C3.158,9.748,3,10.153,3,10.446v2.122
		C3,12.861,3.224,13,3.5,13z"/>
	<circle style="fill-rule:evenodd;clip-rule:evenodd;" cx="8.5" cy="7.5" r="1.5"/>
</g>
<g>
</g>
<g>
</g>
<g>
</g>
<g>
</g>
<g>
</g>
<g>
</g>
<g>
</g>
<g>
</g>
<g>
</g>
<g>
</g>
<g>
</g>
<g>
</g>
<g>
</g>
<g>
</g>
<g>
</g>
</svg>
