<?xml version="1.0" encoding="iso-8859-1"?>
<!-- Generator: Adobe Illustrator 16.0.0, SVG Export Plug-In . SVG Version: 6.00 Build 0)  -->
<!DOCTYPE svg PUBLIC "-//W3C//DTD SVG 1.1//EN" "http://www.w3.org/Graphics/SVG/1.1/DTD/svg11.dtd">
<svg version="1.1" id="Layer_1" xmlns="http://www.w3.org/2000/svg" xmlns:xlink="http://www.w3.org/1999/xlink" x="0px" y="0px"
	 width="10px" height="10px" viewBox="0 0 10 10" style="enable-background:new 0 0 10 10;" xml:space="preserve">
<path id="Plus_1" d="M9.5,4H6V0.5C6,0.224,5.776,0,5.5,0h-1C4.224,0,4,0.224,4,0.5V4H0.5C0.224,4,0,4.224,0,4.5v1
	C0,5.776,0.224,6,0.5,6H4v3.5C4,9.776,4.224,10,4.5,10h1C5.776,10,6,9.776,6,9.5V6h3.5C9.776,6,10,5.776,10,5.5v-1
	C10,4.224,9.776,4,9.5,4z"/>
<g>
</g>
<g>
</g>
<g>
</g>
<g>
</g>
<g>
</g>
<g>
</g>
<g>
</g>
<g>
</g>
<g>
</g>
<g>
</g>
<g>
</g>
<g>
</g>
<g>
</g>
<g>
</g>
<g>
</g>
</svg>
