<?xml version="1.0" encoding="iso-8859-1"?>
<!-- Generator: Adobe Illustrator 16.0.0, SVG Export Plug-In . SVG Version: 6.00 Build 0)  -->
<!DOCTYPE svg PUBLIC "-//W3C//DTD SVG 1.1//EN" "http://www.w3.org/Graphics/SVG/1.1/DTD/svg11.dtd">
<svg version="1.1" id="Layer_1" xmlns="http://www.w3.org/2000/svg" xmlns:xlink="http://www.w3.org/1999/xlink" x="0px" y="0px"
	 width="16px" height="16px" viewBox="0 0 16 16" style="enable-background:new 0 0 16 16;" xml:space="preserve">
<g id="Profile_1">
	<path style="fill-rule:evenodd;clip-rule:evenodd;" d="M15,0H1C0.447,0,0,0.447,0,1v14c0,0.553,0.447,1,1,1h14c0.553,0,1-0.447,1-1
		V1C16,0.447,15.553,0,15,0z M14,14H2V2h12V14z"/>
	<path style="fill-rule:evenodd;clip-rule:evenodd;" d="M10.5,12c0.276,0,0.5-0.224,0.5-0.5V9.676c0-0.276-0.154-0.664-0.375-0.83
		C10.16,8.496,9.591,8.257,9,8.125V7.723C9.596,7.376,10,6.738,10,6c0-1.104-0.896-2-2-2S6,4.896,6,6c0,0.738,0.404,1.376,1,1.723
		v0.402C6.409,8.257,5.84,8.496,5.375,8.846C5.154,9.012,5,9.399,5,9.676V11.5C5,11.776,5.224,12,5.5,12h0.893h3.215H10.5z"/>
</g>
<g>
</g>
<g>
</g>
<g>
</g>
<g>
</g>
<g>
</g>
<g>
</g>
<g>
</g>
<g>
</g>
<g>
</g>
<g>
</g>
<g>
</g>
<g>
</g>
<g>
</g>
<g>
</g>
<g>
</g>
</svg>
