<?xml version="1.0" encoding="iso-8859-1"?>
<!-- Generator: Adobe Illustrator 16.0.0, SVG Export Plug-In . SVG Version: 6.00 Build 0)  -->
<!DOCTYPE svg PUBLIC "-//W3C//DTD SVG 1.1//EN" "http://www.w3.org/Graphics/SVG/1.1/DTD/svg11.dtd">
<svg version="1.1" id="Layer_1" xmlns="http://www.w3.org/2000/svg" xmlns:xlink="http://www.w3.org/1999/xlink" x="0px" y="0px"
	 width="16px" height="16px" viewBox="0 0 16 16" style="enable-background:new 0 0 16 16;" xml:space="preserve">
<path id="Refresh_1" d="M15.231,1.244l-1.359,1.36c-0.067-0.081-0.142-0.166-0.226-0.251C12.154,0.867,10.133,0,8,0
	C3.589,0,0,3.589,0,8s3.589,8,8,8c3.57,0,6.651-2.297,7.668-5.715c0.158-0.529-0.144-1.086-0.673-1.244
	c-0.528-0.158-1.086,0.145-1.243,0.674C12.988,12.277,10.678,14,8,14c-3.309,0-6-2.691-6-6s2.691-6,6-6
	c1.6,0,3.115,0.65,4.236,1.765l0.204,0.271l-2.195,2.195C9.82,6.656,9.962,7,10.563,7h4.893C15.757,7,16,6.757,16,6.456V1.563
	C16,0.962,15.656,0.82,15.231,1.244z"/>
<g>
</g>
<g>
</g>
<g>
</g>
<g>
</g>
<g>
</g>
<g>
</g>
<g>
</g>
<g>
</g>
<g>
</g>
<g>
</g>
<g>
</g>
<g>
</g>
<g>
</g>
<g>
</g>
<g>
</g>
</svg>
