<?xml version="1.0" encoding="iso-8859-1"?>
<!-- Generator: Adobe Illustrator 16.0.0, SVG Export Plug-In . SVG Version: 6.00 Build 0)  -->
<!DOCTYPE svg PUBLIC "-//W3C//DTD SVG 1.1//EN" "http://www.w3.org/Graphics/SVG/1.1/DTD/svg11.dtd">
<svg version="1.1" id="Layer_1" xmlns="http://www.w3.org/2000/svg" xmlns:xlink="http://www.w3.org/1999/xlink" x="0px" y="0px"
	 width="16px" height="9.998px" viewBox="0 0 16 9.998" style="enable-background:new 0 0 16 9.998;" xml:space="preserve">
<path id="Rewind_2" d="M15.53,0.148c-0.3-0.18-0.67-0.2-0.98-0.041L10,2.389V0.998c0-0.35-0.18-0.67-0.47-0.85
	c-0.3-0.18-0.67-0.2-0.98-0.041l-8,4C0.21,4.268,0,4.618,0,4.998s0.21,0.73,0.55,0.891l8,3.999c0.141,0.07,0.3,0.11,0.45,0.11
	c0.18,0,0.37-0.05,0.53-0.15c0.29-0.18,0.47-0.5,0.47-0.85v-1.38l4.55,2.27c0.141,0.07,0.3,0.11,0.45,0.11
	c0.18,0,0.37-0.05,0.53-0.15c0.29-0.18,0.47-0.5,0.47-0.85v-8C16,0.648,15.82,0.328,15.53,0.148z M8,7.378l-5-2.38l5-2.38V7.378z
	 M14,7.378l-4-1.899V4.518l4-1.899V7.378z"/>
<g>
</g>
<g>
</g>
<g>
</g>
<g>
</g>
<g>
</g>
<g>
</g>
<g>
</g>
<g>
</g>
<g>
</g>
<g>
</g>
<g>
</g>
<g>
</g>
<g>
</g>
<g>
</g>
<g>
</g>
</svg>
