<?xml version="1.0" encoding="iso-8859-1"?>
<!-- Generator: Adobe Illustrator 16.0.0, SVG Export Plug-In . SVG Version: 6.00 Build 0)  -->
<!DOCTYPE svg PUBLIC "-//W3C//DTD SVG 1.1//EN" "http://www.w3.org/Graphics/SVG/1.1/DTD/svg11.dtd">
<svg version="1.1" id="Layer_1" xmlns="http://www.w3.org/2000/svg" xmlns:xlink="http://www.w3.org/1999/xlink" x="0px" y="0px"
	 width="16px" height="16px" viewBox="0 0 16 16" style="enable-background:new 0 0 16 16;" xml:space="preserve">
<g id="Right_Angle_Quote_2">
	<path d="M15,0H1C0.447,0,0,0.447,0,1v14c0,0.553,0.447,1,1,1h14c0.553,0,1-0.447,1-1V1C16,0.447,15.553,0,15,0z M14,14H2V2h12V14z"
		/>
	<path d="M10.483,8.016l-2.312,2.418c-0.188,0.195-0.188,0.514,0,0.709l0.679,0.711c0.188,0.195,0.491,0.195,0.679,0l3.331-3.482
		c0.188-0.197,0.188-0.514,0-0.711L9.498,4.146c-0.188-0.195-0.491-0.195-0.679,0L8.141,4.855c-0.188,0.197-0.188,0.514,0,0.711
		L10.483,8.016z"/>
	<path d="M5.483,8.016l-2.312,2.418c-0.188,0.195-0.188,0.514,0,0.709l0.679,0.711c0.188,0.195,0.491,0.195,0.679,0l3.331-3.482
		c0.188-0.197,0.188-0.514,0-0.711L4.498,4.146c-0.188-0.195-0.491-0.195-0.679,0L3.141,4.855c-0.188,0.197-0.188,0.514,0,0.711
		L5.483,8.016z"/>
</g>
<g>
</g>
<g>
</g>
<g>
</g>
<g>
</g>
<g>
</g>
<g>
</g>
<g>
</g>
<g>
</g>
<g>
</g>
<g>
</g>
<g>
</g>
<g>
</g>
<g>
</g>
<g>
</g>
<g>
</g>
</svg>
