<?xml version="1.0" encoding="iso-8859-1"?>
<!-- Generator: Adobe Illustrator 16.0.0, SVG Export Plug-In . SVG Version: 6.00 Build 0)  -->
<!DOCTYPE svg PUBLIC "-//W3C//DTD SVG 1.1//EN" "http://www.w3.org/Graphics/SVG/1.1/DTD/svg11.dtd">
<svg version="1.1" id="Layer_1" xmlns="http://www.w3.org/2000/svg" xmlns:xlink="http://www.w3.org/1999/xlink" x="0px" y="0px"
	 width="12px" height="10.001px" viewBox="0 0 12 10.001" style="enable-background:new 0 0 12 10.001;" xml:space="preserve">
<path id="Right_4" d="M0.5,6.001h7.984l-2.342,2.42c-0.189,0.197-0.189,0.518,0,0.715l0.684,0.717c0.188,0.197,0.494,0.197,0.684,0
	l4.35-4.506c0.188-0.199,0.188-0.52,0-0.717l-4.322-4.48c-0.189-0.199-0.496-0.199-0.684,0L6.17,0.866
	c-0.189,0.197-0.189,0.519,0,0.716l2.341,2.419H0.5c-0.276,0-0.5,0.223-0.5,0.5v1C0,5.776,0.224,6.001,0.5,6.001z"/>
<g>
</g>
<g>
</g>
<g>
</g>
<g>
</g>
<g>
</g>
<g>
</g>
<g>
</g>
<g>
</g>
<g>
</g>
<g>
</g>
<g>
</g>
<g>
</g>
<g>
</g>
<g>
</g>
<g>
</g>
</svg>
