<?xml version="1.0" encoding="iso-8859-1"?>
<!-- Generator: Adobe Illustrator 16.0.0, SVG Export Plug-In . SVG Version: 6.00 Build 0)  -->
<!DOCTYPE svg PUBLIC "-//W3C//DTD SVG 1.1//EN" "http://www.w3.org/Graphics/SVG/1.1/DTD/svg11.dtd">
<svg version="1.1" id="Layer_1" xmlns="http://www.w3.org/2000/svg" xmlns:xlink="http://www.w3.org/1999/xlink" x="0px" y="0px"
	 width="16px" height="16px" viewBox="0 0 16 16" style="enable-background:new 0 0 16 16;" xml:space="preserve">
<g id="Right_Square_3">
	<path style="fill-rule:evenodd;clip-rule:evenodd;" d="M1,16h14c0.553,0,1-0.447,1-1V1c0-0.553-0.447-1-1-1H1C0.447,0,0,0.447,0,1
		v14C0,15.553,0.447,16,1,16z M2,2h12v12H2V2z"/>
	<path style="fill-rule:evenodd;clip-rule:evenodd;" d="M8.591,5.151C8.19,4.86,8,5.002,8,5.468V7H4.5C4.224,7,4,7.224,4,7.5v1
		C4,8.776,4.224,9,4.5,9H8v1.532c0,0.466,0.207,0.608,0.608,0.317l3.073-2.322c0.4-0.291,0.436-0.764,0.035-1.054L8.591,5.151z"/>
</g>
<g>
</g>
<g>
</g>
<g>
</g>
<g>
</g>
<g>
</g>
<g>
</g>
<g>
</g>
<g>
</g>
<g>
</g>
<g>
</g>
<g>
</g>
<g>
</g>
<g>
</g>
<g>
</g>
<g>
</g>
</svg>
