<?xml version="1.0" encoding="iso-8859-1"?>
<!-- Generator: Adobe Illustrator 16.0.0, SVG Export Plug-In . SVG Version: 6.00 Build 0)  -->
<!DOCTYPE svg PUBLIC "-//W3C//DTD SVG 1.1//EN" "http://www.w3.org/Graphics/SVG/1.1/DTD/svg11.dtd">
<svg version="1.1" id="Layer_1" xmlns="http://www.w3.org/2000/svg" xmlns:xlink="http://www.w3.org/1999/xlink" x="0px" y="0px"
	 width="16px" height="16px" viewBox="0 0 16 16" style="enable-background:new 0 0 16 16;" xml:space="preserve">
<g id="Right_Text_1">
	<path style="fill-rule:evenodd;clip-rule:evenodd;" d="M15,0H1C0.447,0,0,0.447,0,1v14c0,0.553,0.447,1,1,1h14c0.553,0,1-0.447,1-1
		V1C16,0.447,15.553,0,15,0z M14,14H2V2h12V14z"/>
	<path style="fill-rule:evenodd;clip-rule:evenodd;" d="M11.5,6h-6C5.224,6,5,5.776,5,5.5v-1C5,4.224,5.224,4,5.5,4h6
		C11.776,4,12,4.224,12,4.5v1C12,5.776,11.776,6,11.5,6z"/>
	<path style="fill-rule:evenodd;clip-rule:evenodd;" d="M11.5,9h-7C4.224,9,4,8.776,4,8.5v-1C4,7.224,4.224,7,4.5,7h7
		C11.776,7,12,7.224,12,7.5v1C12,8.776,11.776,9,11.5,9z"/>
	<path style="fill-rule:evenodd;clip-rule:evenodd;" d="M11.5,12h-5C6.224,12,6,11.776,6,11.5v-1C6,10.224,6.224,10,6.5,10h5
		c0.276,0,0.5,0.224,0.5,0.5v1C12,11.776,11.776,12,11.5,12z"/>
</g>
<g>
</g>
<g>
</g>
<g>
</g>
<g>
</g>
<g>
</g>
<g>
</g>
<g>
</g>
<g>
</g>
<g>
</g>
<g>
</g>
<g>
</g>
<g>
</g>
<g>
</g>
<g>
</g>
<g>
</g>
</svg>
