<?xml version="1.0" encoding="iso-8859-1"?>
<!-- Generator: Adobe Illustrator 16.0.0, SVG Export Plug-In . SVG Version: 6.00 Build 0)  -->
<!DOCTYPE svg PUBLIC "-//W3C//DTD SVG 1.1//EN" "http://www.w3.org/Graphics/SVG/1.1/DTD/svg11.dtd">
<svg version="1.1" id="Layer_1" xmlns="http://www.w3.org/2000/svg" xmlns:xlink="http://www.w3.org/1999/xlink" x="0px" y="0px"
	 width="16.003px" height="16px" viewBox="0 0 16.003 16" style="enable-background:new 0 0 16.003 16;" xml:space="preserve">
<g id="Send_1">
	<path d="M0.253,6.592l3.261,3.115L3.22,9.949c-0.25,0.203-0.219,0.674-0.219,0.959v4.074c0,0.407,0.078,0.783,0.477,0.936
		C3.604,15.98,3.653,16,3.788,16c0.273,0,0.503-0.102,0.702-0.295l2.635-2.577l2.262,2.159c0.414,0.394,0.907,0.285,1.106-0.242
		l5.445-14.384c0.199-0.527-0.08-0.794-0.622-0.595L0.487,5.518C-0.056,5.716-0.16,6.197,0.253,6.592z M2.747,6.539l8.302-2.76
		L4.847,8.535L2.747,6.539z M9.411,12.885L6.347,9.971l6.225-5.438L9.411,12.885z"/>
</g>
<g>
</g>
<g>
</g>
<g>
</g>
<g>
</g>
<g>
</g>
<g>
</g>
<g>
</g>
<g>
</g>
<g>
</g>
<g>
</g>
<g>
</g>
<g>
</g>
<g>
</g>
<g>
</g>
<g>
</g>
</svg>
