<?xml version="1.0" encoding="iso-8859-1"?>
<!-- Generator: Adobe Illustrator 16.0.0, SVG Export Plug-In . SVG Version: 6.00 Build 0)  -->
<!DOCTYPE svg PUBLIC "-//W3C//DTD SVG 1.1//EN" "http://www.w3.org/Graphics/SVG/1.1/DTD/svg11.dtd">
<svg version="1.1" id="Layer_1" xmlns="http://www.w3.org/2000/svg" xmlns:xlink="http://www.w3.org/1999/xlink" x="0px" y="0px"
	 width="16px" height="16px" viewBox="0 0 16 16" style="enable-background:new 0 0 16 16;" xml:space="preserve">
<path id="Server_1" d="M16,3.996C16,1.365,11.976,0,8,0S0,1.363,0,3.994C0,4,0.002,4,0.002,4H0v4.002
	c0,0.006,0.001,0.014,0.001,0.02H0v3.967C0,14.621,4.024,16,8,16s8-1.375,8-4.002V8h-0.014C15.989,8,16,7.926,16,7.877V4h-0.002
	C15.998,4,16,4.004,16,3.996z M2,6.753C3.541,7.59,5.777,8.021,8,8.021s4.459-0.432,6-1.269v1.124c0,0.32-0.41,0.844-1.201,1.224
	C11.614,9.681,9.865,10.015,8,10.015S4.386,9.681,3.194,9.097C2.312,8.674,2,8.242,2,8.002V6.753z M8,2.001c3.722,0,6,1.305,6,2.013
	c0,0.711-2.278,2.015-6,2.015S2,4.725,2,4.014C2,3.306,4.278,2.001,8,2.001z M8,14.005c-3.722,0-6-1.307-6-2.017v-1.275
	c0.106,0.059,0.2,0.119,0.318,0.176C3.789,11.609,5.807,12.008,8,12.008s4.211-0.398,5.675-1.115
	c0.114-0.055,0.218-0.117,0.325-0.178v1.283C14,12.704,11.722,14.005,8,14.005z"/>
<g>
</g>
<g>
</g>
<g>
</g>
<g>
</g>
<g>
</g>
<g>
</g>
<g>
</g>
<g>
</g>
<g>
</g>
<g>
</g>
<g>
</g>
<g>
</g>
<g>
</g>
<g>
</g>
<g>
</g>
</svg>
