<?xml version="1.0" encoding="iso-8859-1"?>
<!-- Generator: Adobe Illustrator 16.0.0, SVG Export Plug-In . SVG Version: 6.00 Build 0)  -->
<!DOCTYPE svg PUBLIC "-//W3C//DTD SVG 1.1//EN" "http://www.w3.org/Graphics/SVG/1.1/DTD/svg11.dtd">
<svg version="1.1" id="Layer_1" xmlns="http://www.w3.org/2000/svg" xmlns:xlink="http://www.w3.org/1999/xlink" x="0px" y="0px"
	 width="16px" height="16px" viewBox="0 0 16 16" style="enable-background:new 0 0 16 16;" xml:space="preserve">
<path id="Share_3" d="M12.5,9c-1.088,0-2.049,0.508-2.69,1.287L7.775,9.27C7.91,8.868,8,8.446,8,8S7.91,7.132,7.775,6.73L9.81,5.713
	C10.451,6.492,11.412,7,12.5,7C14.433,7,16,5.433,16,3.5S14.433,0,12.5,0S9,1.567,9,3.5c0,0.125,0.023,0.242,0.037,0.363
	L6.674,5.045C5.965,4.402,5.032,4,4,4C1.791,4,0,5.791,0,8s1.791,4,4,4c1.032,0,1.965-0.402,2.674-1.045l2.363,1.182
	C9.023,12.258,9,12.375,9,12.5c0,1.933,1.567,3.5,3.5,3.5s3.5-1.567,3.5-3.5S14.433,9,12.5,9z M12.5,1.7c0.992,0,1.8,0.808,1.8,1.8
	s-0.808,1.8-1.8,1.8s-1.8-0.808-1.8-1.8S11.508,1.7,12.5,1.7z M4,10.057c-1.135,0-2.057-0.922-2.057-2.057S2.865,5.943,4,5.943
	S6.057,6.865,6.057,8S5.135,10.057,4,10.057z M12.5,14.3c-0.992,0-1.8-0.808-1.8-1.8s0.808-1.8,1.8-1.8s1.8,0.808,1.8,1.8
	S13.492,14.3,12.5,14.3z"/>
<g>
</g>
<g>
</g>
<g>
</g>
<g>
</g>
<g>
</g>
<g>
</g>
<g>
</g>
<g>
</g>
<g>
</g>
<g>
</g>
<g>
</g>
<g>
</g>
<g>
</g>
<g>
</g>
<g>
</g>
</svg>
