<?xml version="1.0" encoding="iso-8859-1"?>
<!-- Generator: Adobe Illustrator 16.0.0, SVG Export Plug-In . SVG Version: 6.00 Build 0)  -->
<!DOCTYPE svg PUBLIC "-//W3C//DTD SVG 1.1//EN" "http://www.w3.org/Graphics/SVG/1.1/DTD/svg11.dtd">
<svg version="1.1" id="Layer_1" xmlns="http://www.w3.org/2000/svg" xmlns:xlink="http://www.w3.org/1999/xlink" x="0px" y="0px"
	 width="16px" height="16px" viewBox="0 0 16 16" style="enable-background:new 0 0 16 16;" xml:space="preserve">
<path id="Share_4" d="M12.5,9c-0.125,0-0.242,0.023-0.363,0.037l-1.182-2.362C11.598,5.965,12,5.033,12,4c0-2.209-1.791-4-4-4
	S4,1.791,4,4c0,1.033,0.402,1.965,1.045,2.674L3.863,9.037C3.742,9.023,3.625,9,3.5,9C1.567,9,0,10.567,0,12.5S1.567,16,3.5,16
	S7,14.433,7,12.5c0-1.088-0.508-2.049-1.287-2.69L6.73,7.775C7.132,7.91,7.554,8,8,8s0.868-0.09,1.27-0.225l1.018,2.034
	C9.508,10.451,9,11.412,9,12.5c0,1.933,1.567,3.5,3.5,3.5s3.5-1.567,3.5-3.5S14.433,9,12.5,9z M3.5,14.3c-0.992,0-1.8-0.808-1.8-1.8
	s0.808-1.8,1.8-1.8s1.8,0.808,1.8,1.8S4.492,14.3,3.5,14.3z M5.943,4c0-1.135,0.922-2.057,2.057-2.057S10.057,2.865,10.057,4
	S9.135,6.057,8,6.057S5.943,5.135,5.943,4z M12.5,14.3c-0.992,0-1.8-0.808-1.8-1.8s0.808-1.8,1.8-1.8s1.8,0.808,1.8,1.8
	S13.492,14.3,12.5,14.3z"/>
<g>
</g>
<g>
</g>
<g>
</g>
<g>
</g>
<g>
</g>
<g>
</g>
<g>
</g>
<g>
</g>
<g>
</g>
<g>
</g>
<g>
</g>
<g>
</g>
<g>
</g>
<g>
</g>
<g>
</g>
</svg>
