<?xml version="1.0" encoding="iso-8859-1"?>
<!-- Generator: Adobe Illustrator 16.0.0, SVG Export Plug-In . SVG Version: 6.00 Build 0)  -->
<!DOCTYPE svg PUBLIC "-//W3C//DTD SVG 1.1//EN" "http://www.w3.org/Graphics/SVG/1.1/DTD/svg11.dtd">
<svg version="1.1" id="Layer_1" xmlns="http://www.w3.org/2000/svg" xmlns:xlink="http://www.w3.org/1999/xlink" x="0px" y="0px"
	 width="16.001px" height="16.001px" viewBox="0 0 16.001 16.001" style="enable-background:new 0 0 16.001 16.001;"
	 xml:space="preserve">
<g id="Share_2">
	<path d="M5.2,9.522C5.271,9.79,5.422,9.79,5.526,9.534C6.422,7.333,8.199,5.067,11,6.001v1.374c0,0.621,0.375,0.812,0.826,0.422
		l4.006-3.446c0.227-0.194,0.225-0.51-0.002-0.703L11.824,0.2C11.375-0.187,11,0.003,11,0.624v1.375v0.002c-3.313,0-6,2.687-6,6
		C5,8.527,5.071,9.037,5.2,9.522z"/>
	<path d="M15.611,6.288l-1.223,0.987C14.174,7.449,14,7.813,14,8.09v5.911H2v-9h2.091c0.276,0,0.583-0.209,0.703-0.458
		c0.191-0.4,0.415-0.782,0.669-1.144c0.158-0.225,0.076-0.398-0.2-0.398H1c-0.553,0-1,0.447-1,1v1v10c0,0.553,0.447,1,1,1h14
		c0.553,0,1-0.447,1-1V6.474C16,6.197,15.826,6.114,15.611,6.288z"/>
</g>
<g>
</g>
<g>
</g>
<g>
</g>
<g>
</g>
<g>
</g>
<g>
</g>
<g>
</g>
<g>
</g>
<g>
</g>
<g>
</g>
<g>
</g>
<g>
</g>
<g>
</g>
<g>
</g>
<g>
</g>
</svg>
