<?xml version="1.0" encoding="iso-8859-1"?>
<!-- Generator: Adobe Illustrator 16.0.0, SVG Export Plug-In . SVG Version: 6.00 Build 0)  -->
<!DOCTYPE svg PUBLIC "-//W3C//DTD SVG 1.1//EN" "http://www.w3.org/Graphics/SVG/1.1/DTD/svg11.dtd">
<svg version="1.1" id="Layer_1" xmlns="http://www.w3.org/2000/svg" xmlns:xlink="http://www.w3.org/1999/xlink" x="0px" y="0px"
	 width="16px" height="12px" viewBox="0 0 16 12" style="enable-background:new 0 0 16 12;" xml:space="preserve">
<g id="Share_5">
	<path d="M4,6c0-2.206,1.794-4,4-4c1.066,0,2.073,0.416,2.837,1.171c0.392,0.388,1.026,0.386,1.414-0.008
		c0.389-0.393,0.385-1.025-0.008-1.414C11.104,0.621,9.597,0,8,0C5.032,0,2.561,2.166,2.083,5H0.5C0.224,5,0,5.224,0,5.5v1
		C0,6.776,0.224,7,0.5,7H3C3.553,7,4,6.553,4,6z"/>
	<path d="M15.5,5H13c-0.553,0-1,0.447-1,1c0,2.206-1.794,4-4,4c-1.066,0-2.073-0.416-2.837-1.171
		C4.771,8.441,4.137,8.443,3.749,8.837C3.36,9.229,3.364,9.862,3.757,10.251C4.896,11.379,6.403,12,8,12
		c2.968,0,5.439-2.166,5.917-5H15.5C15.776,7,16,6.776,16,6.5v-1C16,5.224,15.776,5,15.5,5z"/>
	<circle cx="8" cy="6" r="2"/>
</g>
<g>
</g>
<g>
</g>
<g>
</g>
<g>
</g>
<g>
</g>
<g>
</g>
<g>
</g>
<g>
</g>
<g>
</g>
<g>
</g>
<g>
</g>
<g>
</g>
<g>
</g>
<g>
</g>
<g>
</g>
</svg>
