<?xml version="1.0" encoding="iso-8859-1"?>
<!-- Generator: Adobe Illustrator 16.0.0, SVG Export Plug-In . SVG Version: 6.00 Build 0)  -->
<!DOCTYPE svg PUBLIC "-//W3C//DTD SVG 1.1//EN" "http://www.w3.org/Graphics/SVG/1.1/DTD/svg11.dtd">
<svg version="1.1" id="Layer_1" xmlns="http://www.w3.org/2000/svg" xmlns:xlink="http://www.w3.org/1999/xlink" x="0px" y="0px"
	 width="17.999px" height="16px" viewBox="0 0 17.999 16" style="enable-background:new 0 0 17.999 16;" xml:space="preserve">
<path id="Shirt_1" d="M13.215,2.163l2.531,1.488L15.157,5.14l-0.049-0.025c-0.292-0.146-0.609-0.218-0.926-0.218
	c-0.378,0-0.806,0.104-1.14,0.309c-0.609,0.377-1.033,1.043-1.033,1.761V14h-6V6.966c0-0.718-0.424-1.384-1.033-1.761
	C4.643,5,4.241,4.896,3.863,4.896c-0.316,0-0.647,0.072-0.939,0.218L2.868,5.14L2.276,3.651l2.53-1.488
	c0.932,1.035,2.452,1.698,4.204,1.698S12.283,3.198,13.215,2.163 M5.406,0c0,0-0.12,0-0.268,0S4.676,0.109,4.434,0.242L0.59,2.379
	C0.098,2.668-0.132,3.265,0.078,3.797l1.31,3.275c0.209,0.532,0.88,0.738,1.392,0.482l1.23-0.589v8.277
	C4.01,15.814,4.299,16,4.871,16h8.277c0.572,0,0.861-0.186,0.861-0.757V6.966l1.23,0.572c0.512,0.255,1.14,0.032,1.349-0.5
	l1.331-3.311c0.21-0.532-0.009-1.06-0.501-1.349l-3.834-2.136C13.344,0.109,13.028,0,12.881,0h-0.268
	c-0.276,0-0.496,0.231-0.604,0.485C11.656,1.318,10.45,2.069,9.01,2.069S6.363,1.318,6.011,0.485C5.902,0.231,5.683,0,5.406,0z"/>
<g>
</g>
<g>
</g>
<g>
</g>
<g>
</g>
<g>
</g>
<g>
</g>
<g>
</g>
<g>
</g>
<g>
</g>
<g>
</g>
<g>
</g>
<g>
</g>
<g>
</g>
<g>
</g>
<g>
</g>
</svg>
