<?xml version="1.0" encoding="iso-8859-1"?>
<!-- Generator: Adobe Illustrator 16.0.0, SVG Export Plug-In . SVG Version: 6.00 Build 0)  -->
<!DOCTYPE svg PUBLIC "-//W3C//DTD SVG 1.1//EN" "http://www.w3.org/Graphics/SVG/1.1/DTD/svg11.dtd">
<svg version="1.1" id="Layer_1" xmlns="http://www.w3.org/2000/svg" xmlns:xlink="http://www.w3.org/1999/xlink" x="0px" y="0px"
	 width="16px" height="16px" viewBox="0 0 16 16" style="enable-background:new 0 0 16 16;" xml:space="preserve">
<g id="Shop_1_x2C__Market_1_x2C__Store_1">
	<path style="fill-rule:evenodd;clip-rule:evenodd;" d="M2.675,8C3.35,8,3.969,7.738,4.45,7.305C4.932,7.738,5.551,8,6.225,8
		C6.899,8,7.519,7.738,8,7.305C8.48,7.738,9.1,8,9.774,8s1.294-0.262,1.776-0.695C12.032,7.738,12.65,8,13.325,8
		c1.035,0,1.977-0.614,2.458-1.604c0.481-0.992,0.025-2.39-0.07-2.66C15.7,3.7,15.685,3.665,15.668,3.631l-1.262-2.569
		C14.153,0.442,13.523,0,12.882,0H3.119C2.476,0,1.846,0.442,1.594,1.062L0.332,3.63C0.314,3.665,0.299,3.701,0.287,3.737
		C0.19,4.008-0.264,5.408,0.217,6.396C0.698,7.386,1.641,8,2.675,8z M2.154,4.456L3.361,2h9.278l1.206,2.457
		c0.151,0.452,0.182,0.94,0.139,1.064C13.872,5.753,13.64,6,13.325,6c-0.42,0-0.774-0.458-0.774-1c0-0.553-0.447-1-1-1s-1,0.447-1,1
		c0,0.542-0.355,1-0.776,1C9.354,6,9,5.542,9,5c0-0.553-0.447-1-1-1S7,4.447,7,5c0,0.542-0.355,1-0.775,1S5.45,5.542,5.45,5
		c0-0.553-0.448-1-1-1s-1,0.447-1,1c0,0.542-0.354,1-0.775,1C2.36,6,2.128,5.753,2.02,5.532C1.973,5.398,2.004,4.909,2.154,4.456z"
		/>
	<path style="fill-rule:evenodd;clip-rule:evenodd;" d="M15.5,14H15V9.37c0-0.276-0.168-0.437-0.447-0.401
		C14.385,8.99,14.237,9,14.06,9c-0.176,0-0.372-0.013-0.539-0.035C13.242,8.929,13,9.094,13,9.37V14h-3v-3c0-0.553-0.427-1-0.987-1
		H6.984C6.424,10,6,10.447,6,11v3H3V9.37c0-0.276-0.257-0.441-0.535-0.405C2.298,8.987,2.107,9,1.931,9
		C1.753,9,1.623,8.99,1.455,8.969C1.176,8.934,1,9.094,1,9.37V14H0.5C0.224,14,0,14.224,0,14.5v1C0,15.776,0.224,16,0.5,16h1.412
		h12.172H15.5c0.276,0,0.5-0.224,0.5-0.5v-1C16,14.224,15.776,14,15.5,14z"/>
</g>
<g>
</g>
<g>
</g>
<g>
</g>
<g>
</g>
<g>
</g>
<g>
</g>
<g>
</g>
<g>
</g>
<g>
</g>
<g>
</g>
<g>
</g>
<g>
</g>
<g>
</g>
<g>
</g>
<g>
</g>
</svg>
