<?xml version="1.0" encoding="iso-8859-1"?>
<!-- Generator: Adobe Illustrator 16.0.0, SVG Export Plug-In . SVG Version: 6.00 Build 0)  -->
<!DOCTYPE svg PUBLIC "-//W3C//DTD SVG 1.1//EN" "http://www.w3.org/Graphics/SVG/1.1/DTD/svg11.dtd">
<svg version="1.1" id="Layer_1" xmlns="http://www.w3.org/2000/svg" xmlns:xlink="http://www.w3.org/1999/xlink" x="0px" y="0px"
	 width="16px" height="14px" viewBox="0 0 16 14" style="enable-background:new 0 0 16 14;" xml:space="preserve">
<g id="Shuffle_1">
	<path style="fill-rule:evenodd;clip-rule:evenodd;" d="M4.077,5.388C4.255,5.145,4.484,4.833,4.688,4.56
		c0.165-0.222,0.147-0.562-0.055-0.751C3.577,2.826,2.275,2.126,0.5,2.016C0.225,1.998,0,2.224,0,2.5v0.953
		C0,3.729,0.225,3.95,0.499,3.977c1.222,0.115,2.134,0.659,2.936,1.451C3.632,5.622,3.913,5.61,4.077,5.388z"/>
	<path style="fill-rule:evenodd;clip-rule:evenodd;" d="M12,5.299c0,0.636,0.351,0.884,0.783,0.558l2.876-2.355
		c0.454-0.276,0.454-0.725,0-1.001l-2.876-2.356C12.351-0.184,12,0.066,12,0.701V2C9.08,2,7.38,3.64,6,5.41
		C5.72,5.771,4.9,6.89,4.76,7.08C3.579,8.658,2.432,9.811,0.5,9.979C0.225,10.003,0,10.224,0,10.5v1
		c0,0.276,0.224,0.502,0.499,0.485C3.117,11.826,4.7,10.417,6,8.75c0.28-0.36,1.1-1.479,1.24-1.67C8.52,5.37,9.76,4,12,4V5.299z"/>
	<path style="fill-rule:evenodd;clip-rule:evenodd;" d="M12.783,8.144C12.351,7.816,12,8.066,12,8.701V10
		c-1.479,0-2.527-0.542-3.436-1.43C8.367,8.377,8.087,8.39,7.923,8.612C7.745,8.855,7.516,9.167,7.312,9.44
		c-0.165,0.222-0.147,0.562,0.055,0.751C8.52,11.264,9.965,12,12,12v1.299c0,0.636,0.351,0.884,0.783,0.558l2.876-2.355
		c0.454-0.276,0.454-0.725,0-1.001L12.783,8.144z"/>
</g>
<g>
</g>
<g>
</g>
<g>
</g>
<g>
</g>
<g>
</g>
<g>
</g>
<g>
</g>
<g>
</g>
<g>
</g>
<g>
</g>
<g>
</g>
<g>
</g>
<g>
</g>
<g>
</g>
<g>
</g>
</svg>
