<?xml version="1.0" encoding="iso-8859-1"?>
<!-- Generator: Adobe Illustrator 16.0.0, SVG Export Plug-In . SVG Version: 6.00 Build 0)  -->
<!DOCTYPE svg PUBLIC "-//W3C//DTD SVG 1.1//EN" "http://www.w3.org/Graphics/SVG/1.1/DTD/svg11.dtd">
<svg version="1.1" id="Layer_1" xmlns="http://www.w3.org/2000/svg" xmlns:xlink="http://www.w3.org/1999/xlink" x="0px" y="0px"
	 width="16px" height="16px" viewBox="0 0 16 16" style="enable-background:new 0 0 16 16;" xml:space="preserve">
<g id="Slider_2">
	<path style="fill-rule:evenodd;clip-rule:evenodd;" d="M7.5,13h1C8.776,13,9,12.776,9,12.5V9h0.5C9.776,9,10,8.776,10,8.5v-1
		C10,7.224,9.776,7,9.5,7H9V3.5C9,3.224,8.776,3,8.5,3h-1C7.224,3,7,3.224,7,3.5V7H6.5C6.224,7,6,7.224,6,7.5v1
		C6,8.776,6.224,9,6.5,9H7v3.5C7,12.776,7.224,13,7.5,13z"/>
	<path style="fill-rule:evenodd;clip-rule:evenodd;" d="M15,0H1C0.447,0,0,0.447,0,1v14c0,0.553,0.447,1,1,1h14c0.553,0,1-0.447,1-1
		V1C16,0.447,15.553,0,15,0z M14,14H2V2h12V14z"/>
</g>
<g>
</g>
<g>
</g>
<g>
</g>
<g>
</g>
<g>
</g>
<g>
</g>
<g>
</g>
<g>
</g>
<g>
</g>
<g>
</g>
<g>
</g>
<g>
</g>
<g>
</g>
<g>
</g>
<g>
</g>
</svg>
