<?xml version="1.0" encoding="iso-8859-1"?>
<!-- Generator: Adobe Illustrator 16.0.0, SVG Export Plug-In . SVG Version: 6.00 Build 0)  -->
<!DOCTYPE svg PUBLIC "-//W3C//DTD SVG 1.1//EN" "http://www.w3.org/Graphics/SVG/1.1/DTD/svg11.dtd">
<svg version="1.1" id="Layer_1" xmlns="http://www.w3.org/2000/svg" xmlns:xlink="http://www.w3.org/1999/xlink" x="0px" y="0px"
	 width="14px" height="14px" viewBox="0 0 14 14" style="enable-background:new 0 0 14 14;" xml:space="preserve">
<g id="Slider_3">
	<path style="fill-rule:evenodd;clip-rule:evenodd;" d="M0,2.5v1C0,3.776,0.224,4,0.5,4H3v1.5C3,5.776,3.224,6,3.5,6h1
		C4.776,6,5,5.776,5,5.5V4h8.5C13.776,4,14,3.776,14,3.5v-1C14,2.224,13.776,2,13.5,2H5V0.5C5,0.224,4.776,0,4.5,0h-1
		C3.224,0,3,0.224,3,0.5V2H0.5C0.224,2,0,2.224,0,2.5z"/>
	<path style="fill-rule:evenodd;clip-rule:evenodd;" d="M0,10.5v1C0,11.776,0.224,12,0.5,12H9v1.5C9,13.776,9.224,14,9.5,14h1
		c0.276,0,0.5-0.224,0.5-0.5V12h2.5c0.276,0,0.5-0.224,0.5-0.5v-1c0-0.276-0.224-0.5-0.5-0.5H11V8.5C11,8.224,10.776,8,10.5,8h-1
		C9.224,8,9,8.224,9,8.5V10H0.5C0.224,10,0,10.224,0,10.5z"/>
</g>
<g>
</g>
<g>
</g>
<g>
</g>
<g>
</g>
<g>
</g>
<g>
</g>
<g>
</g>
<g>
</g>
<g>
</g>
<g>
</g>
<g>
</g>
<g>
</g>
<g>
</g>
<g>
</g>
<g>
</g>
</svg>
