<?xml version="1.0" encoding="iso-8859-1"?>
<!-- Generator: Adobe Illustrator 16.0.0, SVG Export Plug-In . SVG Version: 6.00 Build 0)  -->
<!DOCTYPE svg PUBLIC "-//W3C//DTD SVG 1.1//EN" "http://www.w3.org/Graphics/SVG/1.1/DTD/svg11.dtd">
<svg version="1.1" id="Layer_1" xmlns="http://www.w3.org/2000/svg" xmlns:xlink="http://www.w3.org/1999/xlink" x="0px" y="0px"
	 width="16px" height="15.999px" viewBox="0 0 16 15.999" style="enable-background:new 0 0 16 15.999;" xml:space="preserve">
<g id="Star_2">
	<path d="M12.427,15.898L8,13.462l-4.427,2.436C3.13,16.142,2.838,15.929,2.92,15.42l0.848-5.172L0.207,6.614
		c-0.356-0.363-0.242-0.721,0.256-0.795l4.914-0.747l2.228-4.725c0.219-0.464,0.573-0.464,0.792,0l2.227,4.725l4.914,0.747
		c0.498,0.074,0.612,0.432,0.256,0.795l-3.561,3.634l0.848,5.172C13.162,15.929,12.87,16.143,12.427,15.898z M3.418,7.256
		l2.303,2.351l-0.539,3.286L8,11.344l2.817,1.549l-0.539-3.286l2.303-2.351L9.4,6.772L8,3.803l-1.4,2.97L3.418,7.256z"/>
</g>
<g>
</g>
<g>
</g>
<g>
</g>
<g>
</g>
<g>
</g>
<g>
</g>
<g>
</g>
<g>
</g>
<g>
</g>
<g>
</g>
<g>
</g>
<g>
</g>
<g>
</g>
<g>
</g>
<g>
</g>
</svg>
