<?xml version="1.0" encoding="iso-8859-1"?>
<!-- Generator: Adobe Illustrator 16.0.0, SVG Export Plug-In . SVG Version: 6.00 Build 0)  -->
<!DOCTYPE svg PUBLIC "-//W3C//DTD SVG 1.1//EN" "http://www.w3.org/Graphics/SVG/1.1/DTD/svg11.dtd">
<svg version="1.1" id="Layer_1" xmlns="http://www.w3.org/2000/svg" xmlns:xlink="http://www.w3.org/1999/xlink" x="0px" y="0px"
	 width="18px" height="18px" viewBox="0 0 18 18" style="enable-background:new 0 0 18 18;" xml:space="preserve">
<g id="Sun_3_x2C__Brightness_3">
	<path d="M4,9c0-0.553-0.447-1-1-1H1C0.448,8,0.001,8.447,0,9c0.001,0.555,0.447,1.001,0.999,1h2C3.553,10,4,9.554,4,9z"/>
	<path d="M9,4c0.553,0,1-0.447,1-1V1c0-0.553-0.447-1-1-1S8,0.447,8,1v2C8,3.553,8.447,4,9,4z"/>
	<path d="M4.05,5.465c0.391,0.391,1.023,0.393,1.414,0c0.392-0.391,0.391-1.023,0-1.414L4.05,2.637c-0.39-0.39-1.021-0.391-1.414,0
		c-0.391,0.393-0.391,1.023,0,1.414L4.05,5.465z"/>
	<path d="M13.949,5.465l1.415-1.414c0.391-0.391,0.391-1.023-0.001-1.415c-0.391-0.391-1.023-0.391-1.414,0l-1.415,1.415
		c-0.391,0.391-0.391,1.023,0,1.414C12.926,5.855,13.559,5.855,13.949,5.465z"/>
	<path d="M4.05,12.535l-1.414,1.414c-0.391,0.391-0.391,1.023,0,1.414c0.393,0.393,1.023,0.392,1.414,0.001l1.414-1.414
		c0.391-0.392,0.392-1.023,0-1.415C5.073,12.145,4.44,12.145,4.05,12.535z"/>
	<path d="M13.948,12.535c-0.391-0.391-1.022-0.391-1.414,0c-0.391,0.391-0.391,1.023,0,1.414l1.415,1.415
		c0.391,0.391,1.023,0.391,1.414,0c0.392-0.392,0.391-1.023,0-1.414L13.948,12.535z"/>
	<path d="M9,14c-0.553,0-1,0.447-1,1v2c0,0.553,0.447,1,1,1s1-0.447,1-1v-2C10,14.447,9.553,14,9,14z"/>
	<path d="M17,8h-2c-0.553,0-1,0.447-1,1s0.447,1,1,1h2c0.553,0,1-0.447,1-1S17.553,8,17,8z"/>
	<path d="M8.999,5c-2.21,0-4,1.79-4,4s1.79,4,4,4s4-1.79,4-4S11.209,5,8.999,5z M8.999,11c-1.104,0-2-0.896-2-2s0.896-2,2-2
		s2,0.896,2,2S10.103,11,8.999,11z"/>
</g>
<g>
</g>
<g>
</g>
<g>
</g>
<g>
</g>
<g>
</g>
<g>
</g>
<g>
</g>
<g>
</g>
<g>
</g>
<g>
</g>
<g>
</g>
<g>
</g>
<g>
</g>
<g>
</g>
<g>
</g>
</svg>
