<?xml version="1.0" encoding="iso-8859-1"?>
<!-- Generator: Adobe Illustrator 16.0.0, SVG Export Plug-In . SVG Version: 6.00 Build 0)  -->
<!DOCTYPE svg PUBLIC "-//W3C//DTD SVG 1.1//EN" "http://www.w3.org/Graphics/SVG/1.1/DTD/svg11.dtd">
<svg version="1.1" id="Layer_1" xmlns="http://www.w3.org/2000/svg" xmlns:xlink="http://www.w3.org/1999/xlink" x="0px" y="0px"
	 width="14px" height="16px" viewBox="0 0 14 16" style="enable-background:new 0 0 14 16;" xml:space="preserve">
<g id="Time_2_x2C__Watch_1">
	<path d="M14,8c0-2.791-1.637-5.193-4-6.317V1c0-0.553-0.448-1-1-1H5C4.448,0,4,0.447,4,1v0.683C1.637,2.807,0,5.209,0,8
		s1.637,5.193,4,6.317V15c0,0.553,0.448,1,1,1h4c0.552,0,1-0.447,1-1v-0.683C12.363,13.193,14,10.791,14,8z M7,13
		c-2.757,0-5-2.243-5-5s2.243-5,5-5s5,2.243,5,5S9.757,13,7,13z"/>
	<path d="M9,8H7V6c0-0.553-0.447-1-1-1S5,5.447,5,6v3c0,0.553,0.447,1,1,1h3c0.553,0,1-0.447,1-1S9.553,8,9,8z"/>
</g>
<g>
</g>
<g>
</g>
<g>
</g>
<g>
</g>
<g>
</g>
<g>
</g>
<g>
</g>
<g>
</g>
<g>
</g>
<g>
</g>
<g>
</g>
<g>
</g>
<g>
</g>
<g>
</g>
<g>
</g>
</svg>
