<?xml version="1.0" encoding="iso-8859-1"?>
<!-- Generator: Adobe Illustrator 16.0.0, SVG Export Plug-In . SVG Version: 6.00 Build 0)  -->
<!DOCTYPE svg PUBLIC "-//W3C//DTD SVG 1.1//EN" "http://www.w3.org/Graphics/SVG/1.1/DTD/svg11.dtd">
<svg version="1.1" id="Layer_1" xmlns="http://www.w3.org/2000/svg" xmlns:xlink="http://www.w3.org/1999/xlink" x="0px" y="0px"
	 width="14px" height="16px" viewBox="0 0 14 16" style="enable-background:new 0 0 14 16;" xml:space="preserve">
<path id="Trash_4_x2C__Delete_4" d="M13,3h-2V1c0-0.553-0.447-1-1-1H4C3.447,0,3,0.447,3,1v2H1C0.447,3,0,3.447,0,4s0.447,1,1,1v9v1
	c0,0.553,0.447,1,1,1h10c0.553,0,1-0.447,1-1V5c0.553,0,1-0.447,1-1S13.553,3,13,3z M5,2h4v1H5V2z M3,14V5h1v9H3z M6,14V5h2v9H6z
	 M11,14h-1V5h1V14z"/>
<g>
</g>
<g>
</g>
<g>
</g>
<g>
</g>
<g>
</g>
<g>
</g>
<g>
</g>
<g>
</g>
<g>
</g>
<g>
</g>
<g>
</g>
<g>
</g>
<g>
</g>
<g>
</g>
<g>
</g>
</svg>
