<?xml version="1.0" encoding="iso-8859-1"?>
<!-- Generator: Adobe Illustrator 16.0.0, SVG Export Plug-In . SVG Version: 6.00 Build 0)  -->
<!DOCTYPE svg PUBLIC "-//W3C//DTD SVG 1.1//EN" "http://www.w3.org/Graphics/SVG/1.1/DTD/svg11.dtd">
<svg version="1.1" id="Layer_1" xmlns="http://www.w3.org/2000/svg" xmlns:xlink="http://www.w3.org/1999/xlink" x="0px" y="0px"
	 width="16px" height="16px" viewBox="0 0 16 16" style="enable-background:new 0 0 16 16;" xml:space="preserve">
<g id="Turn_Page_Down_1">
	<path d="M15.991,6c-0.001-0.26-0.093-0.516-0.284-0.707l-5-5C10.517,0.102,10.261,0.01,10,0.01V0H9H8H1C0.447,0,0,0.447,0,1v14
		c0,0.553,0.447,1,1,1h14c0.553,0,1-0.447,1-1V8V7V6H15.991z M11,3.414L12.586,5H11V3.414z M14,14H2V2h7v4c0,0.553,0.447,1,1,1h4V14
		z"/>
	<path d="M8.146,7.151C7.951,6.956,7.635,6.953,7.439,7.148L5.206,9.381l-1.35-1.277C3.423,7.671,3,7.814,3,8.427V12.3
		C3,12.606,3.394,13,3.7,13h3.874c0.611,0,0.757-0.424,0.324-0.855L6.62,10.83l2.233-2.251c0.195-0.195,0.195-0.521,0-0.717
		L8.146,7.151z"/>
</g>
<g>
</g>
<g>
</g>
<g>
</g>
<g>
</g>
<g>
</g>
<g>
</g>
<g>
</g>
<g>
</g>
<g>
</g>
<g>
</g>
<g>
</g>
<g>
</g>
<g>
</g>
<g>
</g>
<g>
</g>
</svg>
