<?xml version="1.0" encoding="iso-8859-1"?>
<!-- Generator: Adobe Illustrator 16.0.0, SVG Export Plug-In . SVG Version: 6.00 Build 0)  -->
<!DOCTYPE svg PUBLIC "-//W3C//DTD SVG 1.1//EN" "http://www.w3.org/Graphics/SVG/1.1/DTD/svg11.dtd">
<svg version="1.1" id="Layer_1" xmlns="http://www.w3.org/2000/svg" xmlns:xlink="http://www.w3.org/1999/xlink" x="0px" y="0px"
	 width="12px" height="16px" viewBox="0 0 12 16" style="enable-background:new 0 0 12 16;" xml:space="preserve">
<path id="Unlock_1" d="M8,6H3V5c0-1.654,1.346-3,3-3c1.311,0,2.428,0.846,2.835,2.02C9.017,4.541,9.447,5,10,5l0,0
	c0.553,0,1.011-0.451,0.901-0.992C10.441,1.721,8.422,0,6,0C3.238,0,1,2.238,1,5v1C0.447,6,0,6.447,0,7v8c0,0.553,0.447,1,1,1h10
	c0.553,0,1-0.447,1-1V7c0-0.553-0.447-1-1-1H8z M10,14H2V8h8V14z"/>
<g>
</g>
<g>
</g>
<g>
</g>
<g>
</g>
<g>
</g>
<g>
</g>
<g>
</g>
<g>
</g>
<g>
</g>
<g>
</g>
<g>
</g>
<g>
</g>
<g>
</g>
<g>
</g>
<g>
</g>
</svg>
