<?xml version="1.0" encoding="iso-8859-1"?>
<!-- Generator: Adobe Illustrator 16.0.0, SVG Export Plug-In . SVG Version: 6.00 Build 0)  -->
<!DOCTYPE svg PUBLIC "-//W3C//DTD SVG 1.1//EN" "http://www.w3.org/Graphics/SVG/1.1/DTD/svg11.dtd">
<svg version="1.1" id="Layer_1" xmlns="http://www.w3.org/2000/svg" xmlns:xlink="http://www.w3.org/1999/xlink" x="0px" y="0px"
	 width="16px" height="16px" viewBox="0 0 16 16" style="enable-background:new 0 0 16 16;" xml:space="preserve">
<g id="Up_Square_4">
	<path d="M15,0H1C0.447,0,0,0.447,0,1v14c0,0.553,0.447,1,1,1h14c0.553,0,1-0.447,1-1V1C16,0.447,15.553,0,15,0z M14,14H2V2h12V14z"
		/>
	<path d="M4.866,8.83c0.197,0.189,0.518,0.189,0.715,0L7,7.489V11.5C7,11.776,7.224,12,7.5,12h1C8.776,12,9,11.776,9,11.5V7.516
		l1.42,1.342c0.198,0.189,0.519,0.189,0.716,0l0.717-0.684c0.197-0.188,0.197-0.494,0-0.684l-3.507-3.35
		c-0.199-0.188-0.52-0.188-0.717,0L4.149,7.463c-0.199,0.189-0.199,0.496,0,0.684L4.866,8.83z"/>
</g>
<g>
</g>
<g>
</g>
<g>
</g>
<g>
</g>
<g>
</g>
<g>
</g>
<g>
</g>
<g>
</g>
<g>
</g>
<g>
</g>
<g>
</g>
<g>
</g>
<g>
</g>
<g>
</g>
<g>
</g>
</svg>
