<?xml version="1.0" encoding="iso-8859-1"?>
<!-- Generator: Adobe Illustrator 16.0.0, SVG Export Plug-In . SVG Version: 6.00 Build 0)  -->
<!DOCTYPE svg PUBLIC "-//W3C//DTD SVG 1.1//EN" "http://www.w3.org/Graphics/SVG/1.1/DTD/svg11.dtd">
<svg version="1.1" id="Layer_1" xmlns="http://www.w3.org/2000/svg" xmlns:xlink="http://www.w3.org/1999/xlink" x="0px" y="0px"
	 width="16px" height="14px" viewBox="0 0 16 14" style="enable-background:new 0 0 16 14;" xml:space="preserve">
<g id="Upload_1">
	<path style="fill-rule:evenodd;clip-rule:evenodd;" d="M15.5,6h-1C14.224,6,14,6.224,14,6.5V12H2V6.5C2,6.224,1.776,6,1.5,6h-1
		C0.224,6,0,6.224,0,6.5V13c0,0.553,0.447,1,1,1h14c0.553,0,1-0.447,1-1V6.5C16,6.224,15.776,6,15.5,6z"/>
	<path style="fill-rule:evenodd;clip-rule:evenodd;" d="M5.305,4H7v5.5C7,9.775,7.224,10,7.5,10h1C8.776,10,9,9.775,9,9.5V4h1.695
		c0.297,0,0.394-0.265,0.215-0.5L8.323,0.178C8.145-0.057,7.855-0.061,7.677,0.174L5.09,3.5C4.911,3.736,5.008,4,5.305,4z"/>
</g>
<g>
</g>
<g>
</g>
<g>
</g>
<g>
</g>
<g>
</g>
<g>
</g>
<g>
</g>
<g>
</g>
<g>
</g>
<g>
</g>
<g>
</g>
<g>
</g>
<g>
</g>
<g>
</g>
<g>
</g>
</svg>
