<?xml version="1.0" encoding="iso-8859-1"?>
<!-- Generator: Adobe Illustrator 16.0.0, SVG Export Plug-In . SVG Version: 6.00 Build 0)  -->
<!DOCTYPE svg PUBLIC "-//W3C//DTD SVG 1.1//EN" "http://www.w3.org/Graphics/SVG/1.1/DTD/svg11.dtd">
<svg version="1.1" id="Layer_1" xmlns="http://www.w3.org/2000/svg" xmlns:xlink="http://www.w3.org/1999/xlink" x="0px" y="0px"
	 width="16px" height="16px" viewBox="0 0 16 16" style="enable-background:new 0 0 16 16;" xml:space="preserve">
<g id="Upload_to_Folder_1">
	<path style="fill-rule:evenodd;clip-rule:evenodd;" d="M15,2H7V1c0-0.55-0.45-1-1-1H1C0.45,0,0,0.45,0,1v14c0,0.55,0.45,1,1,1h14
		c0.55,0,1-0.45,1-1V3C16,2.45,15.55,2,15,2z M14,14H2V2h3v1.5C5,3.776,5.224,4,5.5,4H14V14z"/>
	<path style="fill-rule:evenodd;clip-rule:evenodd;" d="M5.305,9H7v2.5C7,11.776,7.224,12,7.5,12h1C8.776,12,9,11.776,9,11.5V9
		h1.695c0.297,0,0.394-0.265,0.215-0.5L8.323,5.178C8.145,4.943,7.855,4.94,7.677,5.174L5.09,8.5C4.911,8.736,5.008,9,5.305,9z"/>
</g>
<g>
</g>
<g>
</g>
<g>
</g>
<g>
</g>
<g>
</g>
<g>
</g>
<g>
</g>
<g>
</g>
<g>
</g>
<g>
</g>
<g>
</g>
<g>
</g>
<g>
</g>
<g>
</g>
<g>
</g>
</svg>
