<?xml version="1.0" encoding="iso-8859-1"?>
<!-- Generator: Adobe Illustrator 16.0.0, SVG Export Plug-In . SVG Version: 6.00 Build 0)  -->
<!DOCTYPE svg PUBLIC "-//W3C//DTD SVG 1.1//EN" "http://www.w3.org/Graphics/SVG/1.1/DTD/svg11.dtd">
<svg version="1.1" id="Layer_1" xmlns="http://www.w3.org/2000/svg" xmlns:xlink="http://www.w3.org/1999/xlink" x="0px" y="0px"
	 width="16px" height="14px" viewBox="0 0 16 14" style="enable-background:new 0 0 16 14;" xml:space="preserve">
<g id="Upload_2">
	<path style="fill-rule:evenodd;clip-rule:evenodd;" d="M5.305,4H7v5.5C7,9.775,7.224,10,7.5,10h1C8.776,10,9,9.775,9,9.5V4h1.695
		c0.297,0,0.394-0.265,0.215-0.5L8.323,0.178C8.145-0.057,7.855-0.061,7.677,0.174L5.09,3.5C4.911,3.736,5.008,4,5.305,4z"/>
	<path style="fill-rule:evenodd;clip-rule:evenodd;" d="M15.5,12h-15C0.224,12,0,12.224,0,12.5v1C0,13.776,0.224,14,0.5,14h15
		c0.276,0,0.5-0.224,0.5-0.5v-1C16,12.224,15.776,12,15.5,12z"/>
</g>
<g>
</g>
<g>
</g>
<g>
</g>
<g>
</g>
<g>
</g>
<g>
</g>
<g>
</g>
<g>
</g>
<g>
</g>
<g>
</g>
<g>
</g>
<g>
</g>
<g>
</g>
<g>
</g>
<g>
</g>
</svg>
