<?xml version="1.0" encoding="iso-8859-1"?>
<!-- Generator: Adobe Illustrator 16.0.0, SVG Export Plug-In . SVG Version: 6.00 Build 0)  -->
<!DOCTYPE svg PUBLIC "-//W3C//DTD SVG 1.1//EN" "http://www.w3.org/Graphics/SVG/1.1/DTD/svg11.dtd">
<svg version="1.1" id="Layer_1" xmlns="http://www.w3.org/2000/svg" xmlns:xlink="http://www.w3.org/1999/xlink" x="0px" y="0px"
	 width="16px" height="16px" viewBox="0 0 16 16" style="enable-background:new 0 0 16 16;" xml:space="preserve">
<path id="User_3_x2C__Profile_4" style="fill-rule:evenodd;clip-rule:evenodd;" d="M11.681,8.36C12.492,7.471,13,6.299,13,5
	c0-2.762-2.238-5-5-5S3,2.238,3,5c0,1.299,0.508,2.471,1.319,3.36C1.467,9.158,0,11.366,0,15c0,1,0.447,1,1,1h14c0.553,0,1,0,1-1
	C16,11.366,14.533,9.158,11.681,8.36z M12,13.5c0-0.276-0.224-0.5-0.5-0.5h-1c-0.276,0-0.5,0.224-0.5,0.5V14H6v-0.5
	C6,13.224,5.776,13,5.5,13h-1C4.224,13,4,13.224,4,13.5V14H2.048c0.268-2.646,1.618-3.38,2.811-3.714
	C5.526,10.1,6.051,9.579,6.242,8.912c0.191-0.668,0.022-1.387-0.445-1.899C5.434,6.614,5,5.941,5,5c0-1.654,1.346-3,3-3s3,1.346,3,3
	c0,0.941-0.434,1.614-0.797,2.013C9.735,7.525,9.566,8.244,9.758,8.912c0.191,0.667,0.716,1.188,1.384,1.374
	c1.192,0.334,2.543,1.068,2.811,3.714H12V13.5z"/>
<g>
</g>
<g>
</g>
<g>
</g>
<g>
</g>
<g>
</g>
<g>
</g>
<g>
</g>
<g>
</g>
<g>
</g>
<g>
</g>
<g>
</g>
<g>
</g>
<g>
</g>
<g>
</g>
<g>
</g>
</svg>
