<?xml version="1.0" encoding="iso-8859-1"?>
<!-- Generator: Adobe Illustrator 16.0.0, SVG Export Plug-In . SVG Version: 6.00 Build 0)  -->
<!DOCTYPE svg PUBLIC "-//W3C//DTD SVG 1.1//EN" "http://www.w3.org/Graphics/SVG/1.1/DTD/svg11.dtd">
<svg version="1.1" id="Layer_1" xmlns="http://www.w3.org/2000/svg" xmlns:xlink="http://www.w3.org/1999/xlink" x="0px" y="0px"
	 width="16px" height="16px" viewBox="0 0 16 16" style="enable-background:new 0 0 16 16;" xml:space="preserve">
<g id="Wallet_1_x2C__Payment_1">
	<path d="M15,4h-1V1c0-0.553-0.447-1-1-1H3C1.346,0,0,1.346,0,3v10c0,1.654,1.346,3,3,3h12c0.553,0,1-0.447,1-1V5
		C16,4.447,15.553,4,15,4z M3,2h9v2H3C2.448,4,2,3.552,2,3S2.448,2,3,2z M14,14H3c-0.552,0-1-0.448-1-1V5.815
		C2.314,5.928,2.647,6,3,6h11V14z"/>
	<path d="M11.5,11h1c0.276,0,0.5-0.224,0.5-0.5v-1C13,9.224,12.776,9,12.5,9h-1C11.224,9,11,9.224,11,9.5v1
		C11,10.776,11.224,11,11.5,11z"/>
</g>
<g>
</g>
<g>
</g>
<g>
</g>
<g>
</g>
<g>
</g>
<g>
</g>
<g>
</g>
<g>
</g>
<g>
</g>
<g>
</g>
<g>
</g>
<g>
</g>
<g>
</g>
<g>
</g>
<g>
</g>
</svg>
