<?xml version="1.0" encoding="iso-8859-1"?>
<!-- Generator: Adobe Illustrator 16.0.0, SVG Export Plug-In . SVG Version: 6.00 Build 0)  -->
<!DOCTYPE svg PUBLIC "-//W3C//DTD SVG 1.1//EN" "http://www.w3.org/Graphics/SVG/1.1/DTD/svg11.dtd">
<svg version="1.1" id="Layer_1" xmlns="http://www.w3.org/2000/svg" xmlns:xlink="http://www.w3.org/1999/xlink" x="0px" y="0px"
	 width="18.001px" height="16px" viewBox="0 0 18.001 16" style="enable-background:new 0 0 18.001 16;" xml:space="preserve">
<g id="Wifi_Rounded_2_x2C__Wireless_Rounded_2">
	<path style="fill-rule:evenodd;clip-rule:evenodd;" d="M17.753,3.98C15.6,1.541,12.475,0,9.001,0c-3.475,0-6.6,1.541-8.753,3.98
		c-0.363,0.41-0.315,1.086,0.068,1.477l0.015,0.016c0.384,0.391,0.948,0.339,1.307-0.075C3.439,3.315,6.076,2,9.001,2
		s5.561,1.315,7.363,3.397c0.358,0.414,0.922,0.466,1.306,0.075l0.016-0.016C18.068,5.066,18.116,4.391,17.753,3.98z"/>
	<path style="fill-rule:evenodd;clip-rule:evenodd;" d="M9.001,4C6.613,4,4.473,5.096,3.027,6.821
		c-0.352,0.42-0.279,1.115,0.104,1.506l0.035,0.036C3.55,8.754,4.069,8.674,4.41,8.244C5.489,6.877,7.145,6,9.001,6
		c1.855,0,3.511,0.877,4.591,2.244c0.34,0.43,0.86,0.51,1.243,0.119l0.035-0.036c0.384-0.391,0.455-1.086,0.104-1.506
		C13.528,5.096,11.388,4,9.001,4z"/>
	<path style="fill-rule:evenodd;clip-rule:evenodd;" d="M9.001,8C7.668,8,6.463,8.543,5.58,9.417
		c-0.389,0.385-0.32,1.079,0.062,1.47l0.045,0.046c0.384,0.391,0.888,0.292,1.277-0.091C7.494,10.321,8.212,10,9.001,10
		c0.788,0,1.506,0.321,2.035,0.842c0.391,0.383,0.895,0.481,1.277,0.091l0.045-0.046c0.383-0.391,0.451-1.085,0.062-1.47
		C11.538,8.543,10.333,8,9.001,8z"/>
	<ellipse style="fill-rule:evenodd;clip-rule:evenodd;" cx="9.001" cy="14" rx="1.962" ry="2"/>
</g>
<g>
</g>
<g>
</g>
<g>
</g>
<g>
</g>
<g>
</g>
<g>
</g>
<g>
</g>
<g>
</g>
<g>
</g>
<g>
</g>
<g>
</g>
<g>
</g>
<g>
</g>
<g>
</g>
<g>
</g>
</svg>
