<?xml version="1.0" encoding="iso-8859-1"?>
<!-- Generator: Adobe Illustrator 16.0.0, SVG Export Plug-In . SVG Version: 6.00 Build 0)  -->
<!DOCTYPE svg PUBLIC "-//W3C//DTD SVG 1.1//EN" "http://www.w3.org/Graphics/SVG/1.1/DTD/svg11.dtd">
<svg version="1.1" id="Layer_1" xmlns="http://www.w3.org/2000/svg" xmlns:xlink="http://www.w3.org/1999/xlink" x="0px" y="0px"
	 width="13.865px" height="13.865px" viewBox="0 0 13.865 13.865" style="enable-background:new 0 0 13.865 13.865;"
	 xml:space="preserve">
<path id="Wrench_2_x2C__Tool_2" d="M13.71,12.29c-0.28,0.28-0.5,0.5-0.5,0.5l-0.92,0.92c-0.27,0.271-0.81,0.18-1.2-0.21L4.44,6.86
	C4.14,6.94,3.83,7,3.5,7C1.57,7,0,5.43,0,3.5c0-0.55,0.45-1,1-1s1,0.45,1,1C2,4.33,2.67,5,3.5,5c0.09,0,0.18-0.01,0.27-0.03
	c0.03,0,0.05,0,0.07-0.01c0.08-0.02,0.15-0.04,0.22-0.07C4.1,4.88,4.13,4.86,4.17,4.83C4.46,4.7,4.7,4.46,4.83,4.17
	C4.86,4.13,4.88,4.1,4.89,4.06C4.92,3.99,4.94,3.92,4.96,3.84C4.97,3.82,4.97,3.8,4.97,3.77C4.99,3.68,5,3.59,5,3.5
	C5,2.67,4.33,2,3.5,2c-0.55,0-1-0.45-1-1s0.45-1,1-1C5.43,0,7,1.57,7,3.5c0,0.33-0.06,0.64-0.14,0.94l6.64,6.649
	C13.89,11.48,13.98,12.02,13.71,12.29z"/>
<g>
</g>
<g>
</g>
<g>
</g>
<g>
</g>
<g>
</g>
<g>
</g>
<g>
</g>
<g>
</g>
<g>
</g>
<g>
</g>
<g>
</g>
<g>
</g>
<g>
</g>
<g>
</g>
<g>
</g>
</svg>
