<?xml version="1.0" encoding="iso-8859-1"?>
<!-- Generator: Adobe Illustrator 16.0.0, SVG Export Plug-In . SVG Version: 6.00 Build 0)  -->
<!DOCTYPE svg PUBLIC "-//W3C//DTD SVG 1.1//EN" "http://www.w3.org/Graphics/SVG/1.1/DTD/svg11.dtd">
<svg version="1.1" id="Layer_1" xmlns="http://www.w3.org/2000/svg" xmlns:xlink="http://www.w3.org/1999/xlink" x="0px" y="0px"
	 width="16px" height="16px" viewBox="0 0 16 16" style="enable-background:new 0 0 16 16;" xml:space="preserve">
<g id="X_2">
	<path style="fill-rule:evenodd;clip-rule:evenodd;" d="M8,0C3.582,0,0,3.582,0,8s3.582,8,8,8s8-3.582,8-8S12.418,0,8,0z M8,14
		c-3.309,0-6-2.691-6-6s2.691-6,6-6s6,2.691,6,6S11.309,14,8,14z"/>
	<path style="fill-rule:evenodd;clip-rule:evenodd;" d="M10.721,5.281c-0.376-0.375-0.984-0.375-1.359,0L8.002,6.641L6.643,5.281
		c-0.375-0.375-0.983-0.375-1.359,0c-0.375,0.376-0.375,0.984,0,1.359L6.643,8L5.283,9.359c-0.375,0.375-0.375,0.984,0,1.359
		c0.376,0.375,0.984,0.375,1.359,0l1.359-1.359l1.359,1.359c0.375,0.375,0.983,0.375,1.359,0c0.375-0.375,0.375-0.984,0-1.359
		L9.361,8l1.359-1.359C11.096,6.266,11.096,5.657,10.721,5.281z"/>
</g>
<g>
</g>
<g>
</g>
<g>
</g>
<g>
</g>
<g>
</g>
<g>
</g>
<g>
</g>
<g>
</g>
<g>
</g>
<g>
</g>
<g>
</g>
<g>
</g>
<g>
</g>
<g>
</g>
<g>
</g>
</svg>
