<?xml version="1.0" encoding="iso-8859-1"?>
<!-- Generator: Adobe Illustrator 16.0.0, SVG Export Plug-In . SVG Version: 6.00 Build 0)  -->
<!DOCTYPE svg PUBLIC "-//W3C//DTD SVG 1.1//EN" "http://www.w3.org/Graphics/SVG/1.1/DTD/svg11.dtd">
<svg version="1.1" id="Layer_1" xmlns="http://www.w3.org/2000/svg" xmlns:xlink="http://www.w3.org/1999/xlink" x="0px" y="0px"
	 width="16px" height="16px" viewBox="0 0 16 16" style="enable-background:new 0 0 16 16;" xml:space="preserve">
<path id="Zoom_1_x2C__Magnifying_Glass_1" d="M15.19,11.26L12.62,8.69C12.87,8.01,13,7.27,13,6.5C13,2.91,10.09,0,6.5,0
	S0,2.91,0,6.5S2.91,13,6.5,13c0.77,0,1.51-0.13,2.19-0.38l2.569,2.57C11.78,15.71,12.48,16,13.22,16c0.74,0,1.44-0.29,1.971-0.81
	C16.27,14.1,16.27,12.34,15.19,11.26z M7.04,10.97C6.86,10.99,6.68,11,6.5,11C4.02,11,2,8.98,2,6.5S4.02,2,6.5,2S11,4.02,11,6.5
	c0,0.18-0.01,0.36-0.03,0.54c-0.09,0.75-0.37,1.45-0.79,2.04c-0.3,0.43-0.67,0.8-1.1,1.1C8.49,10.6,7.79,10.88,7.04,10.97z
	 M13.77,13.77c-0.289,0.301-0.81,0.301-1.1,0l-2.16-2.159c0.41-0.32,0.78-0.69,1.101-1.101l2.159,2.16
	C14.08,12.98,14.08,13.47,13.77,13.77z"/>
<g>
</g>
<g>
</g>
<g>
</g>
<g>
</g>
<g>
</g>
<g>
</g>
<g>
</g>
<g>
</g>
<g>
</g>
<g>
</g>
<g>
</g>
<g>
</g>
<g>
</g>
<g>
</g>
<g>
</g>
</svg>
