<?xml version="1.0" encoding="utf-8"?>
<!-- Generator: Adobe Illustrator 15.1.0, SVG Export Plug-In . SVG Version: 6.00 Build 0)  -->
<!DOCTYPE svg PUBLIC "-//W3C//DTD SVG 1.1//EN" "http://www.w3.org/Graphics/SVG/1.1/DTD/svg11.dtd">
<svg version="1.1" id="Layer_1" xmlns="http://www.w3.org/2000/svg" xmlns:xlink="http://www.w3.org/1999/xlink" x="0px" y="0px"
	 width="426px" height="162px" viewBox="-7.386 -16.889 426 162" enable-background="new -7.386 -16.889 426 162"
	 xml:space="preserve">
<g>
	<path d="M376.003,91.518c-8.876,0-16.062,7.181-16.062,16.083c0,8.874,7.186,16.073,16.062,16.073
		c8.864,0,16.051-7.199,16.051-16.073C392.054,98.699,384.867,91.518,376.003,91.518z"/>
	<path d="M98.184,18.608c-12.8,0-23.134,10.382-23.134,23.152c0,12.772,10.334,23.118,23.134,23.118
		c12.766,0,23.123-10.346,23.123-23.118C121.307,28.99,110.95,18.608,98.184,18.608z"/>
	<path d="M-7.386-16.889v162h426v-162H-7.386z M50.217,140.92H21.968V37.181l-21.969,7.517V18.176L50.217-3.167V140.92z
		 M54.239,41.762c0-24.28,19.676-43.933,43.945-43.933c24.235,0,43.917,19.652,43.917,43.933c0,24.237-19.682,43.936-43.917,43.936
		C73.915,85.698,54.239,65.999,54.239,41.762z M107.604,140.92L167.16,0.736h28.947L136.54,140.92H107.604z M206.4,121.158
		c8.972,0,16.672-5.158,20.506-12.605v-0.001h22.101c-4.743,19.159-21.981,33.393-42.606,33.393
		c-24.271,0-43.906-19.668-43.906-43.925s19.635-43.94,43.906-43.94c20.625,0,37.863,14.255,42.606,33.407h-22.101
		c-3.834-7.455-11.534-12.601-20.506-12.601c-12.779,0-23.124,10.332-23.124,23.134C183.277,110.798,193.621,121.158,206.4,121.158z
		 M272.85,140.517h-20.688V55.701h20.688V140.517z M336.854,140.518h-16.105v-2.014c-4.097,2.135-8.661,3.439-13.595,3.439
		c-16.278,0-29.559-13.304-29.559-29.653V75.285h20.657l-0.089,37.633c0,5.008,4.079,9.105,9.025,9.105
		c5.018,0,9.128-4.097,9.128-9.105V75.285h20.537V140.518z M376.673,141.944c-5.311,0-10.258-1.299-14.749-3.425l0.013,1.998H342.14
		V55.701h20.675v20.088c4.258-1.854,8.923-2.921,13.858-2.921c19.079,0,34.555,15.455,34.557,34.523
		C411.229,126.463,395.752,141.944,376.673,141.944z"/>
</g>
</svg>
