<?xml version="1.0" encoding="utf-8"?>
<!-- Generator: Adobe Illustrator 15.1.0, SVG Export Plug-In . SVG Version: 6.00 Build 0)  -->
<!DOCTYPE svg PUBLIC "-//W3C//DTD SVG 1.1//EN" "http://www.w3.org/Graphics/SVG/1.1/DTD/svg11.dtd">
<svg version="1.1" id="Layer_1" xmlns="http://www.w3.org/2000/svg" xmlns:xlink="http://www.w3.org/1999/xlink" x="0px" y="0px"
	 width="54.572px" height="35.724px" viewBox="0 0 54.572 35.724" enable-background="new 0 0 54.572 35.724" xml:space="preserve">
<g>
	<path fill="#919090" d="M20,2.64c-1.718,0-3.125-0.595-3.125-1.321C16.876,0.593,15.471,0,13.751,0h-4.5
		c-1.72,0-3.125,0.593-3.125,1.318c0,0.727-1.377,1.321-3.063,1.321C1.377,2.64,0,4.044,0,5.764V32.6
		c0,1.717,1.407,3.124,3.125,3.124h48.323c1.718,0,3.124-1.407,3.124-3.124V5.764c0-1.72-1.406-3.124-3.124-3.124H20z M16.876,9.996
		c0,1.358-1.405,2.472-3.125,2.472h-4.5c-1.72,0-3.125-1.113-3.125-2.472c0-1.361,1.405-2.472,3.125-2.472h4.5
		C15.471,7.524,16.876,8.634,16.876,9.996 M37.493,30.083c-6.184,0-11.202-5.013-11.202-11.2c0-6.182,5.018-11.2,11.202-11.2
		c6.187,0,11.199,5.019,11.199,11.2C48.692,25.071,43.679,30.083,37.493,30.083"/>
	<path fill="#919090" d="M37.493,11.649c-3.994,0-7.235,3.24-7.235,7.232c0,3.996,3.241,7.238,7.235,7.238s7.229-3.242,7.229-7.238
		C44.722,14.889,41.487,11.649,37.493,11.649 M37.746,21.823c-1.672,0-3.023-1.353-3.023-3.025c0-1.67,1.352-3.023,3.023-3.023
		c1.671,0,3.025,1.354,3.025,3.023C40.771,20.47,39.417,21.823,37.746,21.823"/>
</g>
</svg>
