<?xml version="1.0" encoding="utf-8"?>
<!-- Generator: Adobe Illustrator 15.1.0, SVG Export Plug-In . SVG Version: 6.00 Build 0)  -->
<!DOCTYPE svg PUBLIC "-//W3C//DTD SVG 1.1//EN" "http://www.w3.org/Graphics/SVG/1.1/DTD/svg11.dtd">
<svg version="1.1" id="Layer_1" xmlns="http://www.w3.org/2000/svg" xmlns:xlink="http://www.w3.org/1999/xlink" x="0px" y="0px"
	 width="54.984px" height="31.323px" viewBox="0 0 54.984 31.323" enable-background="new 0 0 54.984 31.323" xml:space="preserve">
<g>
	<path fill="#919090" d="M53.045,0H23.071c-1.067,0-1.917,0.871-1.891,1.938l0.018,0.701c0.026,1.064-0.824,1.937-1.891,1.937
		h-0.303c-0.074,0-0.145,0.014-0.217,0.022V2.959C18.788,1.331,17.456,0,15.83,0H8.758H2.899C1.304,0,0,1.331,0,2.959v25.404
		c0,1.627,1.332,2.959,2.958,2.959H15.83c1.626,0,2.958-1.332,2.958-2.959V16.922c0.072,0.01,0.143,0.025,0.217,0.027l0.189,0.005
		c1.066,0.028,1.937,0.843,1.937,1.809c0,0.968,0.873,1.761,1.94,1.761h29.975c1.065,0,1.938-0.873,1.938-1.939V1.939
		C54.984,0.872,54.111,0,53.045,0z M9.304,15.661c-3.774,0-6.835-3.059-6.835-6.834c0-3.771,3.061-6.833,6.835-6.833
		c3.774,0,6.833,3.062,6.833,6.833C16.138,12.602,13.078,15.661,9.304,15.661z"/>
	<path fill="#919090" d="M9.305,4.415c-2.438,0-4.415,1.978-4.415,4.413c0,2.438,1.977,4.416,4.415,4.416
		c2.434,0,4.408-1.978,4.408-4.416C13.713,6.392,11.739,4.415,9.305,4.415z M9.458,10.622c-1.021,0-1.846-0.827-1.846-1.846
		s0.826-1.845,1.846-1.845c1.02,0,1.846,0.826,1.846,1.845S10.478,10.622,9.458,10.622z"/>
</g>
</svg>
