<?xml version="1.0" encoding="utf-8"?>
<!-- Generator: Adobe Illustrator 15.1.0, SVG Export Plug-In . SVG Version: 6.00 Build 0)  -->
<!DOCTYPE svg PUBLIC "-//W3C//DTD SVG 1.1//EN" "http://www.w3.org/Graphics/SVG/1.1/DTD/svg11.dtd">
<svg version="1.1" id="Layer_1" xmlns="http://www.w3.org/2000/svg" xmlns:xlink="http://www.w3.org/1999/xlink" x="0px" y="0px"
	 width="56.693px" height="566.929px" viewBox="0 0 56.693 566.929" enable-background="new 0 0 56.693 566.929"
	 xml:space="preserve">
<path fill="#3B5998" d="M22.295,15.643H14.65v-5.014c0-1.883,1.247-2.322,2.126-2.322c0.877,0,5.395,0,5.395,0V0.029L14.741,0
	C6.493,0,4.616,6.174,4.616,10.125v5.518h-4.77v8.529h4.77c0,10.947,0,24.137,0,24.137H14.65c0,0,0-13.32,0-24.137h6.769
	L22.295,15.643z"/>
<path fill="#1DADCE" d="M29.124,137.623h-9.318c-6.633,0-7.689-2.934-7.689-5.654c0-1.291,0.081-3.42,0.16-6.027H27.85
	c2.326,0,6.773-0.955,6.773-5.219c0-4.26-2.053-7.053-4.803-7.053H12.468c-0.018-6.146-0.418-12.271-6.422-12.271
	c-2.481,0-4.498,1.02-5.348,3.553c-1.115,3.328-0.82,7.225-0.806,10.689c0.004,0.658,0.007,1.32,0.009,1.98
	c0.008,2.27,0.054,4.553,0.062,6.834c0.008,2.455,0.011,4.91,0.011,7.363c0,13.746,12.491,17.641,14.89,17.641
	s11.785,0.223,13.478,0.223c1.697,0,6.562-0.449,6.562-5.371S31.452,137.623,29.124,137.623z"/>
<polygon fill="#808080" points="11.265,189.971 2.563,198.674 24.626,220.736 2.563,242.794 11.265,251.497 42.026,220.736 "/>
<polygon fill="#00C051" points="11.265,287.675 2.563,296.378 24.626,318.44 2.563,340.499 11.265,349.201 42.026,318.44 "/>
</svg>
