<?xml version="1.0" encoding="UTF-8" standalone="no"?>
<!-- Generator: Adobe Illustrator 16.0.0, SVG Export Plug-In . SVG Version: 6.00 Build 0)  -->

<svg
   xmlns:dc="http://purl.org/dc/elements/1.1/"
   xmlns:cc="http://creativecommons.org/ns#"
   xmlns:rdf="http://www.w3.org/1999/02/22-rdf-syntax-ns#"
   xmlns:svg="http://www.w3.org/2000/svg"
   xmlns="http://www.w3.org/2000/svg"
   xmlns:sodipodi="http://sodipodi.sourceforge.net/DTD/sodipodi-0.dtd"
   xmlns:inkscape="http://www.inkscape.org/namespaces/inkscape"
   version="1.1"
   id="Layer_1"
   x="0px"
   y="0px"
   width="659.04999"
   height="350"
   viewBox="0 0 659.05 350"
   enable-background="new 0 0 659.055 202.069"
   xml:space="preserve"
   inkscape:version="0.48.4 r9939"
   sodipodi:docname="icon-visa.svg"><metadata
     id="metadata21"><rdf:RDF><cc:Work
         rdf:about=""><dc:format>image/svg+xml</dc:format><dc:type
           rdf:resource="http://purl.org/dc/dcmitype/StillImage" /></cc:Work></rdf:RDF></metadata><defs
     id="defs19" /><sodipodi:namedview
     pagecolor="#ffffff"
     bordercolor="#666666"
     borderopacity="1"
     objecttolerance="10"
     gridtolerance="10"
     guidetolerance="10"
     inkscape:pageopacity="0"
     inkscape:pageshadow="2"
     inkscape:window-width="644"
     inkscape:window-height="480"
     id="namedview17"
     showgrid="false"
     inkscape:zoom="0.53409807"
     inkscape:cx="329.5275"
     inkscape:cy="101.0345"
     inkscape:window-x="0"
     inkscape:window-y="27"
     inkscape:window-maximized="0"
     inkscape:current-layer="Layer_1" /><g
     id="g3"
     transform="translate(-0.002,73.9655)"><g
       id="g5"><polygon
         points="285.514,199.164 232.178,199.164 265.539,3.402 318.898,3.402 "
         id="polygon7"
         style="fill:#00249f" /><path
         d="M 479.04,8.222 C 468.468,4.256 451.904,0 431.217,0 c -52.724,0 -89.863,26.552 -90.18,64.604 -0.297,28.129 26.514,43.82 46.754,53.185 20.77,9.595 27.752,15.715 27.652,24.283 -0.131,13.122 -16.586,19.117 -31.922,19.117 -21.357,0 -32.703,-2.967 -50.227,-10.276 l -6.876,-3.111 -7.489,43.823 c 12.462,5.464 35.509,10.199 59.438,10.444 56.089,0 92.501,-26.247 92.915,-66.882 C 471.483,112.917 457.266,95.97 426.483,81.999 407.832,72.943 396.41,66.9 396.531,57.73 c 0,-8.137 9.668,-16.838 30.557,-16.838 17.449,-0.271 30.088,3.534 39.937,7.5 l 4.781,2.259 7.234,-42.429"
         id="path9"
         inkscape:connector-curvature="0"
         style="fill:#00249f" /><path
         d="m 615.867,3.589 h -41.231 c -12.772,0 -22.331,3.486 -27.94,16.234 L 467.45,199.226 h 56.031 c 0,0 9.161,-24.122 11.233,-29.418 6.123,0 60.555,0.084 68.336,0.084 1.597,6.853 6.492,29.334 6.492,29.334 h 49.512 L 615.867,3.589 M 550.07,129.767 c 4.413,-11.279 21.259,-54.724 21.259,-54.724 -0.315,0.521 4.38,-11.334 7.075,-18.684 l 3.606,16.878 c 0,0 10.217,46.729 12.353,56.528 l -44.293,0.002 0,0 z"
         id="path11"
         inkscape:connector-curvature="0"
         style="fill:#00249f" /><path
         d="m 187.425,3.545 -52.24,133.495 -5.566,-27.129 C 119.894,78.638 89.594,44.755 55.72,27.792 l 47.767,171.203 56.455,-0.064 84.004,-195.386 h -56.521"
         id="path13"
         inkscape:connector-curvature="0"
         style="fill:#00249f" /><path
         d="M 86.722,3.424 H 0.681 L 0,7.497 C 66.939,23.701 111.232,62.86 129.618,109.911 L 110.909,19.951 C 107.679,7.555 98.311,3.856 86.722,3.424"
         id="path15"
         inkscape:connector-curvature="0"
         style="fill:#ffa000" /></g></g></svg>