<?xml version="1.0" encoding="UTF-8" standalone="no"?>
<!-- Created with Inkscape (http://www.inkscape.org/) -->

<svg
   xmlns:dc="http://purl.org/dc/elements/1.1/"
   xmlns:cc="http://creativecommons.org/ns#"
   xmlns:rdf="http://www.w3.org/1999/02/22-rdf-syntax-ns#"
   xmlns:svg="http://www.w3.org/2000/svg"
   xmlns="http://www.w3.org/2000/svg"
   version="1.1"
   width="755.5"
   height="658.72498"
   id="svg2"
   xml:space="preserve"><metadata
     id="metadata8"><rdf:RDF><cc:Work
         rdf:about=""><dc:format>image/svg+xml</dc:format><dc:type
           rdf:resource="http://purl.org/dc/dcmitype/StillImage" /><dc:title></dc:title></cc:Work></rdf:RDF></metadata><defs
     id="defs6"><clipPath
       id="clipPath18"><path
         d="M 0,5269.76 0,0 l 6043.96,0 0,5269.76 -6043.96,0 z"
         id="path20" /></clipPath></defs><g
     transform="matrix(1.25,0,0,-1.25,0,658.725)"
     id="g10"><g
       transform="scale(0.1,0.1)"
       id="g12"><g
         id="g14"><g
           clip-path="url(#clipPath18)"
           id="g16"><path
             d="m 671.816,695.359 968.516,0 0,1608.17 -968.516,0 0,-1608.17 z"
             id="path22"
             style="fill:#100f0d;fill-opacity:1;fill-rule:nonzero;stroke:none" /><path
             d="m 1713.45,3107.57 c 0,-302.76 -245.47,-548.34 -548.23,-548.34 -302.747,0 -548.228,245.58 -548.228,548.34 0,302.76 245.481,548.23 548.228,548.23 302.76,0 548.23,-245.47 548.23,-548.23"
             id="path24"
             style="fill:#100f0d;fill-opacity:1;fill-rule:nonzero;stroke:none" /><path
             d="m 3409.09,4919.76 c 673.44,0 1234.71,-182.46 1623.14,-527.65 439.09,-390.23 661.73,-981.44 661.73,-1757.23 C 5693.96,1097.4 4946.57,350 3409.09,350 3289.6,350 657.258,350 350,350 c 0,313.539 0,4256.23 0,4569.76 307.258,0 2939.6,0 3059.09,0 z m 65.75,350 L 0,5269.76 0,0 l 3474.84,0 0,1 c 759.03,10.3398 1360.33,198.902 1787.04,561.941 518.95,441.519 782.08,1138.629 782.08,2071.939 0,446.14 -69.21,846.32 -205.7,1189.41 -130.58,328.21 -323.55,607.27 -573.53,829.44 -440.28,391.28 -1058.31,602.85 -1789.89,614.87 0,0.01 0,1.16 0,1.16"
             id="path26"
             style="fill:#100f0d;fill-opacity:1;fill-rule:nonzero;stroke:none" /><path
             d="m 3313.49,693.559 -1228.49,0 0,3800.111 1228.49,0 -49.58,0 c 1024.52,0 2115.05,-404.33 2115.05,-1905.05 0,-1586.53 -1090.53,-1895.061 -2115.05,-1895.061 l 49.58,0"
             id="path28"
             style="fill:#cc1068;fill-opacity:1;fill-rule:nonzero;stroke:none" /><path
             d="m 2057.63,3357.71 0,-604.37 138.13,0 c 51.66,0 88.95,2.9 111.87,8.71 30,7.47 54.89,20.13 74.69,37.97 19.78,17.84 35.94,47.2 48.44,88.07 12.5,40.87 18.75,96.58 18.75,167.12 0,70.54 -6.25,124.69 -18.75,162.46 -12.5,37.75 -30,67.21 -52.5,88.37 -22.5,21.17 -51.05,35.48 -85.63,42.96 -25.84,5.8 -76.46,8.71 -151.87,8.71 l -83.13,0 z m -184.37,155 337.29,0 c 76.07,0 134.05,-5.82 173.96,-17.46 53.61,-15.8 99.54,-43.87 137.78,-84.21 38.24,-40.33 67.33,-89.71 87.29,-148.13 19.95,-58.42 29.93,-130.46 29.93,-216.11 0,-75.27 -9.36,-140.13 -28.06,-194.6 -22.86,-66.54 -55.49,-120.38 -97.88,-161.55 -32.01,-31.19 -75.24,-55.51 -129.69,-72.97 -40.74,-12.9 -95.18,-19.34 -163.35,-19.34 l -347.27,0 0,914.37"
             id="path30"
             style="fill:#ffffff;fill-opacity:1;fill-rule:nonzero;stroke:none" /><path
             d="m 2210.55,3487.71 c 73.34,0 129.51,-5.53 166.95,-16.46 49.01,-14.44 91.65,-40.49 126.65,-77.41 35.56,-37.51 63.07,-84.28 81.77,-139.01 18.97,-55.55 28.59,-125.54 28.59,-208.03 0,-72.14 -8.99,-134.88 -26.71,-186.48 -21.46,-62.47 -52.3,-113.52 -91.65,-151.73 -29.1,-28.36 -69.43,-50.92 -119.9,-67.11 -38.02,-12.03 -90.44,-18.14 -155.72,-18.14 0,0 -279.21,0 -322.27,0 0,45.97 0,818.4 0,864.37 42.86,0 312.29,0 312.29,0 z m -362.29,50 0,-964.37 372.27,0 c 70.4,0 127.9,6.9 170.89,20.5 58,18.6 104.94,45.13 139.6,78.91 45.01,43.7 80.03,101.35 104.07,171.32 19.52,56.85 29.42,125.06 29.42,202.73 0,88 -10.53,163.43 -31.28,224.19 -21.03,61.59 -52.25,114.49 -92.8,157.26 -41.14,43.38 -91.22,74 -148.86,90.98 -42.64,12.44 -101.84,18.48 -181.02,18.48 l -362.29,0"
             id="path32"
             style="fill:#ffffff;fill-opacity:1;fill-rule:nonzero;stroke:none" /><path
             d="m 2140.76,3332.71 c 91.16,0 129.93,-4.41 146.39,-8.1 30.12,-6.52 54.94,-18.87 73.98,-36.78 19.33,-18.18 34.77,-44.43 45.9,-78.02 11.59,-35.05 17.48,-87.06 17.48,-154.6 0,-67.73 -5.95,-121.49 -17.66,-159.81 -11.09,-36.27 -24.98,-62.12 -41.27,-76.82 -16.62,-14.98 -38.15,-25.84 -63.99,-32.27 -20.9,-5.3 -56.47,-7.97 -105.83,-7.97 0,0 -79.59,0 -113.13,0 0,43.96 0,510.41 0,554.37 24.45,0 58.13,0 58.13,0 z m -108.13,50 0,-654.37 163.13,0 c 54.25,0 92.86,3.1 118.01,9.48 33.78,8.4 62.5,23.1 85.29,43.63 23.44,21.14 41.63,53.63 55.6,99.34 13.36,43.65 19.85,100.71 19.85,174.42 0,73.91 -6.55,129.62 -20.02,170.31 -13.76,41.57 -33.65,74.79 -59.1,98.73 -25.75,24.22 -58.54,40.76 -97.47,49.19 -27.74,6.23 -79.21,9.27 -157.16,9.27 l -108.13,0"
             id="path34"
             style="fill:#ffffff;fill-opacity:1;fill-rule:nonzero;stroke:none" /><path
             d="m 2848.12,2598.34 0,914.37 676.88,0 0,-155 -492.5,0 0,-202.5 458.12,0 0,-155 -458.12,0 0,-246.87 510,0 0,-155 -694.38,0"
             id="path36"
             style="fill:#ffffff;fill-opacity:1;fill-rule:nonzero;stroke:none" /><path
             d="m 3500,3487.71 c 0,-28.4 0,-76.59 0,-105 -45.05,0 -492.5,0 -492.5,0 l 0,-252.5 c 0,0 413.43,0 458.12,0 0,-28.4 0,-76.59 0,-105 -44.69,0 -458.12,0 -458.12,0 l 0,-296.87 c 0,0 464.78,0 510,0 0,-28.41 0,-76.59 0,-105 -44.73,0 -599.65,0 -644.38,0 0,45.97 0,818.4 0,864.37 44.6,0 582.28,0 626.88,0 z m -676.88,50 0,-964.37 744.38,0 0,205 c 0,0 -464.79,0 -510,0 0,35.83 0,161.04 0,196.87 44.68,0 458.12,0 458.12,0 l 0,205 c 0,0 -413.44,0 -458.12,0 0,33.01 0,119.5 0,152.5 45.04,0 492.5,0 492.5,0 l 0,205 -726.88,0"
             id="path38"
             style="fill:#ffffff;fill-opacity:1;fill-rule:nonzero;stroke:none" /><path
             d="m 4235.12,2960.84 -126.04,338.75 -123.51,-338.75 249.55,0 z m 339.89,-362.5 -200.85,0 -79.79,207.5 -365.3,0 -75.68,-207.5 -195.88,0 355.33,914.37 196.51,0 365.66,-914.37"
             id="path40"
             style="fill:#ffffff;fill-opacity:1;fill-rule:nonzero;stroke:none" /><path
             d="m 4192.43,3487.71 c 11.68,-29.2 320.71,-801.98 345.66,-864.37 -44.03,0 -123.82,0 -146.77,0 -10.49,27.29 -79.78,207.5 -79.78,207.5 l -399.96,0 c 0,0 -65.52,-179.63 -75.68,-207.5 -23.07,0 -98.81,0 -141.85,0 24.09,61.99 324.38,834.75 335.9,864.37 25.82,0 136.89,0 162.48,0 z m -196.7,50 -374.75,-964.37 249.9,0 c 0,0 65.52,179.63 75.68,207.5 30.15,0 301.01,0 330.64,0 10.49,-27.3 79.79,-207.5 79.79,-207.5 l 254.95,0 -385.67,964.37 -230.54,0"
             id="path42"
             style="fill:#ffffff;fill-opacity:1;fill-rule:nonzero;stroke:none" /><path
             d="m 4109.31,3227.26 c 27.4,-73.64 73.73,-198.14 89.84,-241.42 -43.89,0 -134.22,0 -177.86,0 15.72,43.1 61.13,167.64 88.02,241.42 z m -159.46,-291.42 321.25,0 -162.26,436.08 -158.99,-436.08"
             id="path44"
             style="fill:#ffffff;fill-opacity:1;fill-rule:nonzero;stroke:none" /><path
             d="m 4729.25,2598.34 0,906.87 184.38,0 0,-751.87 459.37,0 0,-155 -643.75,0"
             id="path46"
             style="fill:#ffffff;fill-opacity:1;fill-rule:nonzero;stroke:none" /><path
             d="m 4888.63,3480.21 c 0,-46.72 0,-751.87 0,-751.87 0,0 414.67,0 459.37,0 0,-28.41 0,-76.59 0,-105 -44.32,0 -549.42,0 -593.75,0 0,45.94 0,810.93 0,856.87 31.51,0 102.87,0 134.38,0 z m -184.38,50 0,-956.87 693.75,0 0,205 c 0,0 -414.67,0 -459.37,0 0,46.73 0,751.87 0,751.87 l -234.38,0"
             id="path48"
             style="fill:#ffffff;fill-opacity:1;fill-rule:nonzero;stroke:none" /></g></g></g></g></svg>