<?xml version="1.0" encoding="UTF-8" standalone="no"?>
<svg width="40px" height="13px" viewBox="0 0 40 13" version="1.1" xmlns="http://www.w3.org/2000/svg" xmlns:xlink="http://www.w3.org/1999/xlink" xmlns:sketch="http://www.bohemiancoding.com/sketch/ns">
    <!-- Generator: Sketch 3.0.4 (8053) - http://www.bohemiancoding.com/sketch -->
    <title>Imported Layers 3</title>
    <desc>Created with Sketch.</desc>
    <defs></defs>
    <g id="Partnerpage" stroke="none" stroke-width="1" fill="none" fill-rule="evenodd" sketch:type="MSPage">
        <g id="Desktop-Start-Campaign" sketch:type="MSArtboardGroup" transform="translate(-169.000000, -801.000000)" fill="#FFFFFF">
            <g id="Campaigns" sketch:type="MSLayerGroup" transform="translate(143.000000, 499.000000)">
                <g id="Campaign-Preview-3" transform="translate(0.000000, 25.000000)" sketch:type="MSShapeGroup">
                    <g id="Slider" transform="translate(18.000000, 274.000000)">
                        <path d="M46.8673488,11.6607161 C46.8673488,11.6607161 46.453963,11.9579722 45.8634118,11.6607161 C45.8634118,11.6607161 42.3201047,10.7094966 40.961837,10.7094966 C40.961837,10.7094966 40.6665614,10.2338868 40.3712858,9.99608194 C40.3712858,9.99608194 41.493333,8.92595999 41.0799472,7.4396795 C41.0799472,7.4396795 41.2571126,7.1424234 41.7295535,7.1424234 C41.7295535,7.1424234 43.2059315,6.96406974 43.5602622,7.08297218 C43.5602622,7.08297218 44.4460889,7.49913072 44.8594748,7.38022828 C44.8594748,7.38022828 45.6271913,7.1424234 45.7453015,6.54791121 C45.7453015,6.54791121 45.9224669,6.36955755 45.8634118,5.95339901 C45.8553803,5.89664291 45.8495535,5.85431365 45.8459315,5.82149657 C45.8449866,5.82006974 45.8440417,5.81895999 45.8434118,5.81753316 C45.7730181,5.75728926 45.5235693,5.5334356 45.2728606,5.18053316 C45.2728606,5.18053316 45.3909708,4.4076673 44.6823094,4.05095999 C44.6823094,4.05095999 44.0917582,3.69425267 43.7374275,3.57535023 C43.7374275,3.57535023 43.7374275,3.27809413 43.7964826,3.04028926 C43.7964826,3.04028926 43.2649866,2.92138682 43.0878212,3.1591917 C43.0878212,3.1591917 42.7925456,2.62413072 42.2019945,3.51589901 C42.1530181,3.58977706 41.9380574,3.62687462 41.8638842,3.64891121 C41.5468763,3.74276487 41.2371126,3.77383804 40.9073488,3.75735023 C40.7901834,3.75164291 40.6730181,3.74371609 40.5558527,3.73832584 C40.4238842,3.73245999 40.3041992,3.70138682 40.1747504,3.74038682 C40.0424669,3.78065511 39.9117582,3.8286917 39.7807346,3.87260633 C39.6875063,3.90399657 39.5860889,3.92127706 39.489396,3.93824048 C39.390026,3.9556795 39.2895535,3.97311852 39.1886086,3.98072828 C38.7964826,4.0111673 38.4363252,4.17477706 38.0662464,4.30747218 C38.0349078,4.31872828 37.9841992,4.34821609 37.950026,4.34821609 C37.950026,4.34821609 37.3004197,4.46711852 36.6509708,4.46711852 C36.6509708,4.46711852 36.2966401,4.4076673 35.1745929,5.18053316 C35.1745929,5.18053316 32.9895535,6.72626487 28.5605771,6.66681365 C28.4295535,6.66522828 28.2956952,6.68520389 28.1641992,6.68663072 C27.8352228,6.68995999 27.5059315,6.68171609 27.17727,6.66887462 C26.6689236,6.64889901 26.1607346,6.6141795 25.6561677,6.54791121 C25.0701834,6.47102096 24.4912858,6.34799657 23.9253015,6.17614291 C23.3131756,5.99033804 22.7190023,5.75078926 22.1289236,5.50426487 C21.9049866,5.41072828 21.7035693,5.37965511 21.461837,5.35698438 C21.1402622,5.32702096 20.8193173,5.29785023 20.4961677,5.28913072 C19.8553803,5.27232584 19.2552228,5.4619356 18.6542779,5.66200877 C17.9813645,5.88586243 17.3119157,6.12128926 16.6558527,6.39127706 C16.0656165,6.63431365 15.4860889,6.87703316 14.9342779,7.20282584 C14.7566401,7.30761852 14.5916008,7.41859413 14.4029393,7.50214291 C13.7363252,7.79828926 13.0119157,7.94985023 12.289711,8.02658194 C11.9766401,8.05971609 11.6623094,8.08286243 11.3478212,8.09522828 C11.0207346,8.10791121 10.5703409,8.1789356 10.253333,8.09364291 C9.8720732,7.99122828 9.473648,7.91370389 9.08104957,7.87533804 C8.83931729,7.85187462 8.58215194,7.8314234 8.3848291,7.9951917 C8.22845115,8.12503316 8.00530154,8.31226487 8.00010469,8.53278926 C7.99821493,8.60809413 8.02215194,8.68102096 8.05223068,8.74887462 C8.10120705,8.85905755 8.20923855,9.02805755 8.32750627,9.07403316 C8.40656138,9.10510633 8.49427792,9.11715511 8.57490784,9.14791121 C8.86057713,9.2566673 9.20104957,9.28520389 9.50388422,9.30105755 C9.77097083,9.3151673 10.0460889,9.3034356 10.3125456,9.2826673 C10.3125456,9.2826673 14.0920732,9.46102096 16.8084511,7.85583804 C16.8084511,7.85583804 20.1155378,6.31010633 21.237585,6.54791121 C21.2605771,6.55282584 21.2684511,6.62178926 21.2676637,6.63732584 C21.2632543,6.73974048 21.1590023,6.74845999 21.0755378,6.75163072 C20.9197897,6.7571795 20.7464039,6.69772828 20.5991598,6.76050877 C20.4961677,6.80474048 20.3873488,6.84500877 20.2867189,6.89574048 C19.9619945,7.05950877 19.6629393,7.26481365 19.3967976,7.51355755 C19.2330181,7.66670389 19.0188448,7.88041121 18.9344354,8.09364291 C18.9344354,8.09364291 18.4621519,9.2826673 18.1668763,9.75827706 C18.1668763,9.75827706 17.8125456,10.5311429 17.3399472,10.5311429 C17.3399472,10.5311429 17.0440417,10.4596429 16.5845141,10.4907161 C16.2232543,10.3659478 15.7106559,10.2643258 15.0960102,10.3527893 C15.0960102,10.3527893 13.7377425,10.7094966 12.970026,11.1851063 C12.970026,11.1851063 12.9108134,11.2445575 12.5564826,11.2445575 C12.5564826,11.2445575 12.0249866,11.4229112 11.7889236,11.5418136 C11.7889236,11.5418136 11.3163252,11.6012649 10.6076637,11.4229112 C10.6076637,11.4229112 9.60388422,12.730838 10.4304984,12.9090332 C10.4304984,12.9090332 12.1432543,12.1363258 12.6156952,12.1363258 C12.6156952,12.1363258 13.1273488,12.106521 13.7205771,12.1756429 C13.7065614,12.2016429 13.6927031,12.2268502 13.6786874,12.2552283 C13.6786874,12.2552283 11.9660889,13.2064478 11.6706559,13.6226063 C11.6706559,13.6226063 11.0802622,14.1576673 10.7259315,14.2171185 C10.7259315,14.2171185 10.4306559,14.4549234 10.3125456,14.1576673 L9.54467162,14.5738258 C9.54467162,14.5738258 9.30860863,15.5844966 9.66293934,15.8223015 C9.66293934,15.8223015 11.0212071,15.703399 11.4934905,15.3466917 C11.4934905,15.3466917 13.0290811,14.5738258 13.501522,14.2171185 C13.501522,14.2171185 13.6786874,14.336021 14.0920732,13.9793136 C14.0920732,13.9793136 14.3873488,13.6820575 14.7416795,13.7415088 C14.7416795,13.7415088 15.1550653,13.7415088 15.5682937,13.3253502 C15.5682937,13.3253502 16.6312858,13.265899 17.1627819,13.3253502 C17.1627819,13.3253502 17.5248291,13.2798502 17.773333,13.0691551 C18.961522,13.2781063 20.1908134,13.4123868 20.9424669,13.265899 C20.9424669,13.265899 21.237585,13.2064478 21.6511283,12.8495819 C21.6511283,12.8495819 24.1834118,10.90846 26.2304984,10.4292039 C26.5123882,10.4380819 26.8114433,10.4244478 27.0251441,10.3527893 C27.0251441,10.3527893 27.6747504,11.4229112 28.1471913,11.4229112 C28.1471913,11.4229112 29.6235693,11.4823624 30.0369551,11.6607161 C30.0369551,11.6607161 33.4621519,12.8495819 35.7062464,11.8390697 C35.7062464,11.8390697 37.0051441,11.6012649 37.7728606,10.7094966 C37.7728606,10.7094966 37.5956952,11.4229112 38.0090811,11.8390697 C38.0090811,11.8390697 40.7846716,12.7901307 42.2610496,12.4335819 C42.2610496,12.4335819 42.7029393,12.4706795 43.1549078,12.5344112 C43.1749078,12.8690819 43.2459315,13.4775454 43.5012071,13.5631551 C43.5012071,13.5631551 44.0327031,13.8604112 44.6823094,13.3848015 C44.6823094,13.3848015 44.6273488,13.1636429 44.5786874,12.9163258 C45.5738055,13.2091429 47.6051441,13.5804356 47.8712858,11.8390697 C47.8712858,11.8390697 47.4579,11.5418136 46.8673488,11.6607161" id="Imported-Layers-3"></path>
                    </g>
                </g>
            </g>
        </g>
    </g>
</svg>