<?xml version="1.0" encoding="iso-8859-1"?>
<!-- Generator: Adobe Illustrator 16.0.0, SVG Export Plug-In . SVG Version: 6.00 Build 0)  -->
<!DOCTYPE svg PUBLIC "-//W3C//DTD SVG 1.1//EN" "http://www.w3.org/Graphics/SVG/1.1/DTD/svg11.dtd">
<svg version="1.1" id="Layer_1" xmlns="http://www.w3.org/2000/svg" xmlns:xlink="http://www.w3.org/1999/xlink" x="0px" y="0px"
	 width="18px" height="12.049px" viewBox="0 0 18 12.049" style="enable-background:new 0 0 18 12.049;" xml:space="preserve">
<g id="Behance_1">
	<path d="M7.266,5.365c0,0,1.702-0.134,1.702-2.236C8.968,1.025,7.575,0,5.81,0H0v12h5.81c0,0,3.545-0.007,3.545-3.594
		C9.354,8.406,9.51,5.365,7.266,5.365z M3,2h2.81c0,0,0.789,0.188,0.789,1.412C6.599,4.634,6.135,5,5.607,5H3V2z M5.645,10H3V7h2.81
		c0,0,1.177-0.087,1.177,1.543C6.986,9.919,6.107,10,5.645,10z M14.084,2.944c-4.292,0-4.289,4.537-4.289,4.537
		s-0.294,4.568,4.289,4.568c0,0,3.82-0.049,3.82-3.049h-1.965c0,0,0.066,1.153-1.789,1.153c0,0-1.965-0.153-1.965-2.153h5.784
		C17.97,8,18.603,2.944,14.084,2.944z M15.831,7h-3.667c0,0,0.239-1.812,1.964-1.812C15.852,5.188,15.831,7,15.831,7z M17,0.021
		L11,0v2l6,0.021V0.021z"/>
</g>
<g>
</g>
<g>
</g>
<g>
</g>
<g>
</g>
<g>
</g>
<g>
</g>
<g>
</g>
<g>
</g>
<g>
</g>
<g>
</g>
<g>
</g>
<g>
</g>
<g>
</g>
<g>
</g>
<g>
</g>
</svg>
