<?xml version="1.0" encoding="iso-8859-1"?>
<!-- Generator: Adobe Illustrator 16.0.0, SVG Export Plug-In . SVG Version: 6.00 Build 0)  -->
<!DOCTYPE svg PUBLIC "-//W3C//DTD SVG 1.1//EN" "http://www.w3.org/Graphics/SVG/1.1/DTD/svg11.dtd">
<svg version="1.1" id="Layer_1" xmlns="http://www.w3.org/2000/svg" xmlns:xlink="http://www.w3.org/1999/xlink" x="0px" y="0px"
	 width="16px" height="16px" viewBox="0 0 16 16" style="enable-background:new 0 0 16 16;" xml:space="preserve">
<g id="Dropbox_1">
	<path d="M4.757,0L0,2.96l3.259,2.729L8,2.614L4.757,0z M10.876,12.563c-0.084,0-0.169-0.028-0.237-0.085L8,10.29l-2.64,2.188
		c-0.068,0.057-0.153,0.085-0.237,0.085c-0.071,0-0.124-0.02-0.187-0.061L3,11.227v1.605L8,16l5-3.168v-1.605l-1.937,1.276
		C11,12.544,10.947,12.563,10.876,12.563z M16,2.96L11.242,0L8,2.614l4.74,3.075L16,2.96z M8,8.649l2.939,2.437l4.701-3.07
		l-2.9-2.326L8,8.649z M5.06,11.086L8,8.649l-4.741-2.96l-2.9,2.326L5.06,11.086z"/>
</g>
<g>
</g>
<g>
</g>
<g>
</g>
<g>
</g>
<g>
</g>
<g>
</g>
<g>
</g>
<g>
</g>
<g>
</g>
<g>
</g>
<g>
</g>
<g>
</g>
<g>
</g>
<g>
</g>
<g>
</g>
</svg>
