<?xml version="1.0" encoding="iso-8859-1"?>
<!-- Generator: Adobe Illustrator 16.0.0, SVG Export Plug-In . SVG Version: 6.00 Build 0)  -->
<!DOCTYPE svg PUBLIC "-//W3C//DTD SVG 1.1//EN" "http://www.w3.org/Graphics/SVG/1.1/DTD/svg11.dtd">
<svg version="1.1" id="Layer_1" xmlns="http://www.w3.org/2000/svg" xmlns:xlink="http://www.w3.org/1999/xlink" x="0px" y="0px"
	 width="12.937px" height="15.987px" viewBox="0 0 12.937 15.987" style="enable-background:new 0 0 12.937 15.987;"
	 xml:space="preserve">
<g id="Etsy_1">
	<path d="M12.059,15.987c-0.429,0-0.444-0.136-2.335-0.136s-8.145,0.043-9.236,0.043C0.082,15.895,0,15.777,0,15.518
		c0-0.258,0.12-0.45,0.463-0.45s1.509,0.021,1.509-1.894V3.232c0-1.031-0.291-2.063-1.516-2.193
		c-0.479-0.043-0.434-0.258-0.445-0.504C0.003,0.31,0.091,0.127,0.38,0.127c0.292,0,3.34,0.096,5.322,0.096
		C9.814,0.223,10.78,0,11.486,0c0.395,0.012,0.479,0.223,0.479,0.406c0,0.182-0.186,0.568-0.186,1.074
		c0,0.505,0.113,1.042,0.113,1.482c0,0.441-0.363,0.592-0.561,0.592c-0.198,0-0.321-0.074-0.332-0.451
		c-0.021-0.72,0.508-1.784-4.485-1.784c-2.545,0-2.608,0.3-2.608,1.139c0,0.838,0.021,3.571,0.021,4.002s0.125,0.519,0.458,0.519
		H8.03c0.706,0,1.423-0.358,1.507-1.388c0.03-0.549,0.176-0.552,0.436-0.552c0.259,0,0.498,0.228,0.458,0.742
		c-0.042,0.516-0.146,1.068-0.146,1.811c0,0.739,0.146,1.474,0.146,2.011c0,0.538-0.687,0.592-0.82,0.011
		c-0.136-0.58-0.333-1.635-1.933-1.635H4.438c-0.354,0-0.467,0.357-0.467,0.961v4.29c0,0.742,0.188,1.537,1.641,1.537
		c1.454,0,4.273,0.169,5.477-0.809c0.521-0.44,0.667-1.054,0.844-2.054c0.083-0.461,1.045-0.451,1.003,0.613
		c-0.03,0.495-0.491,1.557-0.491,2.238C12.444,15.325,12.568,15.987,12.059,15.987z"/>
</g>
<g>
</g>
<g>
</g>
<g>
</g>
<g>
</g>
<g>
</g>
<g>
</g>
<g>
</g>
<g>
</g>
<g>
</g>
<g>
</g>
<g>
</g>
<g>
</g>
<g>
</g>
<g>
</g>
<g>
</g>
</svg>
