<?xml version="1.0" encoding="iso-8859-1"?>
<!-- Generator: Adobe Illustrator 16.0.0, SVG Export Plug-In . SVG Version: 6.00 Build 0)  -->
<!DOCTYPE svg PUBLIC "-//W3C//DTD SVG 1.1//EN" "http://www.w3.org/Graphics/SVG/1.1/DTD/svg11.dtd">
<svg version="1.1" id="Layer_1" xmlns="http://www.w3.org/2000/svg" xmlns:xlink="http://www.w3.org/1999/xlink" x="0px" y="0px"
	 width="15.951px" height="16.001px" viewBox="0 0 15.951 16.001" style="enable-background:new 0 0 15.951 16.001;"
	 xml:space="preserve">
<g id="Google_Plus_1">
	<path d="M0.922,3.989c0,1.358,0.484,2.338,1.439,2.915c0.781,0.472,1.689,0.542,2.161,0.542c0.114,0,0.206-0.13,0.271-0.134
		c0,0-0.149,0.688,0.572,1.688H5.333C4.082,9,0,9.373,0,12.514C0,15.711,3.748,16,4.5,16c0.061,0,0.094,0,0.094,0
		c0.009,0,0.062,0.001,0.154,0.001c0.482,0,1.73-0.058,2.889-0.585c1.504-0.684,2.266-1.871,2.266-3.532
		c0-1.604-1.161-2.56-2.01-3.257c-0.518-0.425-0.965-0.793-0.965-1.15c0-0.363,0.326-0.637,0.74-0.983
		c0.668-0.56,1.299-1.357,1.299-2.864c0-1.325-0.184-2.214-1.313-2.778c0.118-0.056,0.559-0.098,0.765-0.125
		C9.03,0.648,9.951,0.559,9.951,0.091V0H5.438C5.393,0.001,0.922,0.156,0.922,3.989z M8.131,12.184
		c0.084,1.277-1.084,2.222-2.838,2.341c-1.78,0.122-3.247-0.629-3.333-1.905c-0.042-0.613,0.247-1.216,0.812-1.694
		c0.572-0.485,1.357-0.785,2.212-0.844c0.101-0.006,0.2-0.01,0.301-0.01C6.933,10.071,8.05,10.979,8.131,12.184z M6.965,3.114
		c0.438,1.443-0.224,2.951-1.278,3.229C5.565,6.375,5.44,6.392,5.314,6.392c-0.966,0-1.923-0.914-2.277-2.175
		C2.84,3.509,2.855,2.891,3.082,2.296c0.224-0.586,0.624-0.98,1.129-1.113C4.332,1.15,4.458,1.134,4.584,1.134
		C5.75,1.134,6.5,1.586,6.965,3.114z M13.951,6V4h-2v2h-2v2h2v2h2V8h2V6H13.951z"/>
</g>
<g>
</g>
<g>
</g>
<g>
</g>
<g>
</g>
<g>
</g>
<g>
</g>
<g>
</g>
<g>
</g>
<g>
</g>
<g>
</g>
<g>
</g>
<g>
</g>
<g>
</g>
<g>
</g>
<g>
</g>
</svg>
