<?xml version="1.0" encoding="iso-8859-1"?>
<!-- Generator: Adobe Illustrator 16.0.0, SVG Export Plug-In . SVG Version: 6.00 Build 0)  -->
<!DOCTYPE svg PUBLIC "-//W3C//DTD SVG 1.1//EN" "http://www.w3.org/Graphics/SVG/1.1/DTD/svg11.dtd">
<svg version="1.1" id="Layer_1" xmlns="http://www.w3.org/2000/svg" xmlns:xlink="http://www.w3.org/1999/xlink" x="0px" y="0px"
	 width="16px" height="16px" viewBox="0 0 16 16" style="enable-background:new 0 0 16 16;" xml:space="preserve">
<g id="Google_Plus_2">
	<path d="M6.006,9.554c-0.075,0-0.15,0.003-0.226,0.007c-0.642,0.045-1.229,0.27-1.659,0.633c-0.422,0.359-0.639,0.811-0.608,1.271
		c0.064,0.957,1.165,1.52,2.5,1.428c1.315-0.089,2.191-0.797,2.128-1.755C8.08,10.234,7.242,9.554,6.006,9.554z"/>
	<path d="M7.266,4.336C6.918,3.189,6.355,2.851,5.48,2.851c-0.094,0-0.188,0.013-0.279,0.036c-0.379,0.1-0.68,0.396-0.846,0.836
		C4.185,4.168,4.172,4.632,4.32,5.163c0.266,0.945,0.984,1.631,1.708,1.631c0.095,0,0.188-0.013,0.279-0.036
		C7.099,6.549,7.594,5.418,7.266,4.336z"/>
	<path d="M15,0H1C0.447,0,0,0.447,0,1v14c0,0.553,0.447,1,1,1h14c0.553,0,1-0.447,1-1V1C16,0.447,15.553,0,15,0z M7.77,13.562
		C6.901,13.957,5.966,14,5.604,14c-0.068,0-0.109,0-0.115,0c0,0-0.025,0-0.07,0c-0.563,0-3.375-0.092-3.375-2.49
		c0-2.355,3.062-2.51,4-2.51h0.023C5.525,8,5.638,7.609,5.638,7.609C5.59,7.612,5.521,7.585,5.435,7.585
		c-0.354,0-1.034-0.053-1.62-0.407c-0.717-0.432-1.08-1.167-1.08-2.186C2.734,2.117,6.088,2,6.121,2H10v0.068
		c0,0.352-0.938,0.418-1.396,0.477c-0.154,0.02-0.732,0.052-0.82,0.094c0.848,0.423,0.984,1.09,0.984,2.084
		c0,1.129-0.473,1.728-0.975,2.147c-0.31,0.26-0.555,0.465-0.555,0.737c0,0.268,0.336,0.545,0.724,0.863
		C8.599,8.993,9.47,9.709,9.47,10.912C9.47,12.158,8.897,13.049,7.77,13.562z M14,8h-2v2h-1V8H9V7h2V5h1v2h2V8z"/>
</g>
<g>
</g>
<g>
</g>
<g>
</g>
<g>
</g>
<g>
</g>
<g>
</g>
<g>
</g>
<g>
</g>
<g>
</g>
<g>
</g>
<g>
</g>
<g>
</g>
<g>
</g>
<g>
</g>
<g>
</g>
</svg>
