<?xml version="1.0" encoding="iso-8859-1"?>
<!-- Generator: Adobe Illustrator 16.0.0, SVG Export Plug-In . SVG Version: 6.00 Build 0)  -->
<!DOCTYPE svg PUBLIC "-//W3C//DTD SVG 1.1//EN" "http://www.w3.org/Graphics/SVG/1.1/DTD/svg11.dtd">
<svg version="1.1" id="Layer_1" xmlns="http://www.w3.org/2000/svg" xmlns:xlink="http://www.w3.org/1999/xlink" x="0px" y="0px"
	 width="16px" height="16px" viewBox="0 0 16 16" style="enable-background:new 0 0 16 16;" xml:space="preserve">
<g id="Instagram_1">
	<path d="M2,0H1C0.447,0,0,0.447,0,1v1v6v6v1c0,0.553,0.447,1,1,1h1h12h1c0.553,0,1-0.447,1-1v-1V8V2V1c0-0.553-0.447-1-1-1h-1H2z
		 M8,6c1.104,0,2,0.897,2,2s-0.896,2-2,2S6,9.103,6,8S6.896,6,8,6z M14,14H2V8h2c0,2.206,1.795,4,4,4s4-1.794,4-4h2V14z M14,5h-3V2
		h3V5z"/>
</g>
<g>
</g>
<g>
</g>
<g>
</g>
<g>
</g>
<g>
</g>
<g>
</g>
<g>
</g>
<g>
</g>
<g>
</g>
<g>
</g>
<g>
</g>
<g>
</g>
<g>
</g>
<g>
</g>
<g>
</g>
</svg>
