<?xml version="1.0" encoding="iso-8859-1"?>
<!-- Generator: Adobe Illustrator 16.0.0, SVG Export Plug-In . SVG Version: 6.00 Build 0)  -->
<!DOCTYPE svg PUBLIC "-//W3C//DTD SVG 1.1//EN" "http://www.w3.org/Graphics/SVG/1.1/DTD/svg11.dtd">
<svg version="1.1" id="Layer_1" xmlns="http://www.w3.org/2000/svg" xmlns:xlink="http://www.w3.org/1999/xlink" x="0px" y="0px"
	 width="16px" height="16px" viewBox="0 0 16 16" style="enable-background:new 0 0 16 16;" xml:space="preserve">
<g id="Paypal_1">
	<path d="M14.377,3.195c0.254,0.478,0.379,1.069,0.379,1.778c0,1.612-0.68,2.735-2.036,3.723C11.362,9.685,9.466,10,7.029,10h-0.57
		c-0.429,0-0.857,0.515-0.954,0.926L4.82,14.048C4.724,14.46,4.294,15,3.867,15H2.619l-0.111,0.363C2.411,15.777,2.682,16,3.111,16
		H5.11c0.429,0,0.858-0.337,0.953-0.75l0.686-2.711C6.845,12.128,7.273,12,7.703,12h0.57c2.437,0,4.333-0.702,5.69-1.69
		C15.321,9.322,16,7.918,16,6.306c0-0.709-0.126-1.353-0.38-1.829c-0.252-0.475-0.619-0.888-1.098-1.184
		C14.471,3.263,14.43,3.225,14.377,3.195z M3.44,13.225L4.099,9.99C4.192,9.564,4.604,9,5.016,9h0.55
		c2.344,0,4.168-0.293,5.475-1.314C12.346,6.666,13,5.431,13,3.764c0-0.733-0.122-1.291-0.366-1.783
		c-0.242-0.49-0.596-0.864-1.056-1.169c-0.472-0.31-1.026-0.511-1.667-0.638C9.267,0.049,8.516,0,7.651,0H3.645
		C3.232,0,2.82,0.346,2.726,0.773L0.019,13.225C-0.075,13.652,0.187,14,0.599,14h1.924C2.935,14,3.347,13.652,3.44,13.225z
		 M5.01,6.111l0.578-2.489C5.682,3.196,6.094,3,6.505,3h0.629c0.734,0,1.29-0.076,1.663,0.189c0.373,0.262,0.561,0.56,0.561,1.106
		c0,0.826-0.291,1.524-0.868,1.972C7.912,6.715,7.108,7,6.07,7H5.593C5.18,7,4.919,6.539,5.01,6.111z"/>
</g>
<g>
</g>
<g>
</g>
<g>
</g>
<g>
</g>
<g>
</g>
<g>
</g>
<g>
</g>
<g>
</g>
<g>
</g>
<g>
</g>
<g>
</g>
<g>
</g>
<g>
</g>
<g>
</g>
<g>
</g>
</svg>
