<?xml version="1.0" encoding="iso-8859-1"?>
<!-- Generator: Adobe Illustrator 16.0.0, SVG Export Plug-In . SVG Version: 6.00 Build 0)  -->
<!DOCTYPE svg PUBLIC "-//W3C//DTD SVG 1.1//EN" "http://www.w3.org/Graphics/SVG/1.1/DTD/svg11.dtd">
<svg version="1.1" id="Layer_1" xmlns="http://www.w3.org/2000/svg" xmlns:xlink="http://www.w3.org/1999/xlink" x="0px" y="0px"
	 width="16px" height="16px" viewBox="0 0 16 16" style="enable-background:new 0 0 16 16;" xml:space="preserve">
<g id="Pinterest_3">
	<path d="M15,0H1C0.447,0,0,0.447,0,1v14c0,0.553,0.447,1,1,1h14c0.553,0,1-0.447,1-1V1C16,0.447,15.553,0,15,0z M8.835,10.703
		c-0.782-0.057-1.111-0.419-1.724-0.767C6.773,11.589,6.361,13.172,5.139,14c-0.376-2.497,0.555-4.372,0.986-6.363
		C5.389,6.479,6.214,4.15,7.768,4.724C9.68,5.43,6.111,9.027,8.507,9.477c2.501,0.469,3.521-4.05,1.971-5.52
		c-2.239-2.121-6.521-0.049-5.995,2.99c0.129,0.742,0.95,0.969,0.328,1.993C3.377,8.643,2.949,7.588,3.004,6.18
		c0.09-2.303,2.218-3.916,4.354-4.139c2.699-0.283,5.234,0.925,5.584,3.297C13.336,8.014,11.723,10.912,8.835,10.703z"/>
</g>
<g>
</g>
<g>
</g>
<g>
</g>
<g>
</g>
<g>
</g>
<g>
</g>
<g>
</g>
<g>
</g>
<g>
</g>
<g>
</g>
<g>
</g>
<g>
</g>
<g>
</g>
<g>
</g>
<g>
</g>
</svg>
