<?xml version="1.0" encoding="iso-8859-1"?>
<!-- Generator: Adobe Illustrator 16.0.0, SVG Export Plug-In . SVG Version: 6.00 Build 0)  -->
<!DOCTYPE svg PUBLIC "-//W3C//DTD SVG 1.1//EN" "http://www.w3.org/Graphics/SVG/1.1/DTD/svg11.dtd">
<svg version="1.1" id="Layer_1" xmlns="http://www.w3.org/2000/svg" xmlns:xlink="http://www.w3.org/1999/xlink" x="0px" y="0px"
	 width="16px" height="16px" viewBox="0 0 16 16" style="enable-background:new 0 0 16 16;" xml:space="preserve">
<g id="Pinterest_2">
	<path d="M8,0C3.582,0,0,3.582,0,8s3.582,8,8,8s8-3.582,8-8S12.418,0,8,0z M8.668,10.252c-0.626-0.046-0.889-0.349-1.379-0.639
		C7.018,10.99,6.688,12.311,5.711,13C5.41,10.919,6.154,9.356,6.5,7.697C5.91,6.732,6.571,4.791,7.814,5.27
		C9.344,5.858,6.49,8.855,8.405,9.23c2.001,0.391,2.817-3.375,1.577-4.6C8.189,2.863,4.765,4.59,5.186,7.122
		c0.104,0.62,0.761,0.808,0.264,1.661c-1.146-0.247-1.49-1.127-1.445-2.3c0.07-1.919,1.773-3.264,3.481-3.45
		c2.161-0.234,4.188,0.771,4.468,2.748C12.268,8.012,10.979,10.427,8.668,10.252z"/>
</g>
<g>
</g>
<g>
</g>
<g>
</g>
<g>
</g>
<g>
</g>
<g>
</g>
<g>
</g>
<g>
</g>
<g>
</g>
<g>
</g>
<g>
</g>
<g>
</g>
<g>
</g>
<g>
</g>
<g>
</g>
</svg>
