<?xml version="1.0" encoding="iso-8859-1"?>
<!-- Generator: Adobe Illustrator 16.0.0, SVG Export Plug-In . SVG Version: 6.00 Build 0)  -->
<!DOCTYPE svg PUBLIC "-//W3C//DTD SVG 1.1//EN" "http://www.w3.org/Graphics/SVG/1.1/DTD/svg11.dtd">
<svg version="1.1" id="Layer_1" xmlns="http://www.w3.org/2000/svg" xmlns:xlink="http://www.w3.org/1999/xlink" x="0px" y="0px"
	 width="12px" height="16px" viewBox="0 0 12 16" style="enable-background:new 0 0 12 16;" xml:space="preserve">
<g id="Pinterest_1">
	<path d="M4.933,10.582c-0.406,2.203-0.9,4.314-2.366,5.418c-0.452-3.329,0.665-5.829,1.183-8.484
		C2.866,5.973,3.857,2.866,5.721,3.631C8.015,4.573,3.734,9.37,6.608,9.97c3.001,0.625,4.225-5.401,2.365-7.36
		C6.285-0.22,1.147,2.545,1.779,6.596c0.154,0.991,1.14,1.292,0.394,2.658c-1.72-0.396-2.234-1.804-2.168-3.68
		c0.106-3.071,2.661-5.222,5.223-5.52c3.24-0.376,6.281,1.234,6.701,4.396c0.473,3.568-1.462,7.433-4.927,7.155
		C6.063,11.529,5.668,11.046,4.933,10.582z"/>
</g>
<g>
</g>
<g>
</g>
<g>
</g>
<g>
</g>
<g>
</g>
<g>
</g>
<g>
</g>
<g>
</g>
<g>
</g>
<g>
</g>
<g>
</g>
<g>
</g>
<g>
</g>
<g>
</g>
<g>
</g>
</svg>
