<?xml version="1.0" encoding="iso-8859-1"?>
<!-- Generator: Adobe Illustrator 16.0.0, SVG Export Plug-In . SVG Version: 6.00 Build 0)  -->
<!DOCTYPE svg PUBLIC "-//W3C//DTD SVG 1.1//EN" "http://www.w3.org/Graphics/SVG/1.1/DTD/svg11.dtd">
<svg version="1.1" id="Layer_1" xmlns="http://www.w3.org/2000/svg" xmlns:xlink="http://www.w3.org/1999/xlink" x="0px" y="0px"
	 width="16.001px" height="14px" viewBox="0 0 16.001 14" style="enable-background:new 0 0 16.001 14;" xml:space="preserve">
<g id="Rdio_1">
	<path d="M15.724,3.178c-2.207-0.116-4.732-1.291-5.732-2.117v4.948c0,1.698-1.041,3.052-2.17,3.615
		C6.187,10.44,4.338,9.928,3.725,8.479s0.252-3.286,1.888-4.103C6.407,3.98,6.991,3.914,7.991,4.098V0.133
		C7.991,0.054,7.134,0,6.711,0C3.017,0,0,3.134,0,7s2.983,7,6.677,7c3.694,0,6.683-3.134,6.683-7c0-0.312,0.001-0.618-0.038-0.918
		C15.363,5.457,16.579,3.223,15.724,3.178z"/>
</g>
<g>
</g>
<g>
</g>
<g>
</g>
<g>
</g>
<g>
</g>
<g>
</g>
<g>
</g>
<g>
</g>
<g>
</g>
<g>
</g>
<g>
</g>
<g>
</g>
<g>
</g>
<g>
</g>
<g>
</g>
</svg>
