<?xml version="1.0" encoding="iso-8859-1"?>
<!-- Generator: Adobe Illustrator 16.0.0, SVG Export Plug-In . SVG Version: 6.00 Build 0)  -->
<!DOCTYPE svg PUBLIC "-//W3C//DTD SVG 1.1//EN" "http://www.w3.org/Graphics/SVG/1.1/DTD/svg11.dtd">
<svg version="1.1" id="Layer_1" xmlns="http://www.w3.org/2000/svg" xmlns:xlink="http://www.w3.org/1999/xlink" x="0px" y="0px"
	 width="16px" height="16px" viewBox="0 0 16 16" style="enable-background:new 0 0 16 16;" xml:space="preserve">
<g id="Rss_2">
	<path style="fill-rule:evenodd;clip-rule:evenodd;" d="M15,0H1C0.447,0,0,0.447,0,1v14c0,0.553,0.447,1,1,1h14c0.553,0,1-0.447,1-1
		V1C16,0.447,15.553,0,15,0z M4.5,13C3.672,13,3,12.328,3,11.5S3.672,10,4.5,10S6,10.672,6,11.5S5.328,13,4.5,13z M8,13v-0.007
		c0-1.251-0.649-2.432-1.533-3.312C5.587,8.797,4,8.309,3,8.308V6.398c2,0,3.467,0.742,4.66,1.938C8.855,9.533,9.597,11,9.599,13H8z
		 M11.084,13C11.084,9,7,4.91,3,4.907V2.999C6,3,8.252,4.123,10.064,5.935C11.875,7.745,12.998,10,13,13H11.084z"/>
</g>
<g>
</g>
<g>
</g>
<g>
</g>
<g>
</g>
<g>
</g>
<g>
</g>
<g>
</g>
<g>
</g>
<g>
</g>
<g>
</g>
<g>
</g>
<g>
</g>
<g>
</g>
<g>
</g>
<g>
</g>
</svg>
