<?xml version="1.0" encoding="iso-8859-1"?>
<!-- Generator: Adobe Illustrator 16.0.0, SVG Export Plug-In . SVG Version: 6.00 Build 0)  -->
<!DOCTYPE svg PUBLIC "-//W3C//DTD SVG 1.1//EN" "http://www.w3.org/Graphics/SVG/1.1/DTD/svg11.dtd">
<svg version="1.1" id="Layer_1" xmlns="http://www.w3.org/2000/svg" xmlns:xlink="http://www.w3.org/1999/xlink" x="0px" y="0px"
	 width="16px" height="12px" viewBox="0 0 16 12" style="enable-background:new 0 0 16 12;" xml:space="preserve">
<g id="Stumble_Upon_1">
	<path d="M9,4.468l1.223,0.521L12,4.468V3.525C12,1.582,9.974,0,8,0S4,1.582,4,3.525v4.949c0,0.457-0.037,0.828-0.5,0.828
		S3,8.932,3,8.475V6H0v2.475C0,10.419,1.525,12,3.5,12S7,10.419,7,8.475V3.525c0-0.457,0.536-0.828,1-0.828s1,0.371,1,0.828V4.468z
		 M13,6v2.475c0,0.457-0.037,0.828-0.5,0.828S12,8.932,12,8.475V6.36l-1.777,0.521L9,6.36v2.114C9,10.419,10.525,12,12.5,12
		S16,10.419,16,8.475V6H13z"/>
</g>
<g>
</g>
<g>
</g>
<g>
</g>
<g>
</g>
<g>
</g>
<g>
</g>
<g>
</g>
<g>
</g>
<g>
</g>
<g>
</g>
<g>
</g>
<g>
</g>
<g>
</g>
<g>
</g>
<g>
</g>
</svg>
