<?xml version="1.0" encoding="iso-8859-1"?>
<!-- Generator: Adobe Illustrator 16.0.0, SVG Export Plug-In . SVG Version: 6.00 Build 0)  -->
<!DOCTYPE svg PUBLIC "-//W3C//DTD SVG 1.1//EN" "http://www.w3.org/Graphics/SVG/1.1/DTD/svg11.dtd">
<svg version="1.1" id="Layer_1" xmlns="http://www.w3.org/2000/svg" xmlns:xlink="http://www.w3.org/1999/xlink" x="0px" y="0px"
	 width="16px" height="16px" viewBox="0 0 16 16" style="enable-background:new 0 0 16 16;" xml:space="preserve">
<g id="Tumblr_2">
	<path style="fill-rule:evenodd;clip-rule:evenodd;" d="M15,0H1C0.447,0,0,0.447,0,1v14c0,0.553,0.447,1,1,1h14c0.553,0,1-0.447,1-1
		V1C16,0.447,15.553,0,15,0z M12,13.346c-0.854,0.301-1.116,0.411-1.537,0.509C10.041,13.951,9.521,14,9.033,14
		c-0.557,0-1.08-0.069-1.508-0.208c-0.429-0.14-0.619-0.327-0.922-0.583c-0.301-0.258-0.383-0.44-0.5-0.73
		C5.987,12.19,6,11.674,6,11.125V7H4V5.219c1-0.153,1.097-0.328,1.438-0.615c0.341-0.285,0.594-0.673,0.8-1.074
		C6.444,3.129,6.648,2.619,6.727,2H9v3.033L11,5v2H9v2c0,0.695-0.152,2.582,0.208,2.875c0.334,0.271,0.544,0.171,0.892,0.171
		c0.616,0,0.9-0.198,1.9-0.593V13.346z"/>
</g>
<g>
</g>
<g>
</g>
<g>
</g>
<g>
</g>
<g>
</g>
<g>
</g>
<g>
</g>
<g>
</g>
<g>
</g>
<g>
</g>
<g>
</g>
<g>
</g>
<g>
</g>
<g>
</g>
<g>
</g>
</svg>
