<?xml version="1.0" encoding="iso-8859-1"?>
<!-- Generator: Adobe Illustrator 16.0.0, SVG Export Plug-In . SVG Version: 6.00 Build 0)  -->
<!DOCTYPE svg PUBLIC "-//W3C//DTD SVG 1.1//EN" "http://www.w3.org/Graphics/SVG/1.1/DTD/svg11.dtd">
<svg version="1.1" id="Layer_1" xmlns="http://www.w3.org/2000/svg" xmlns:xlink="http://www.w3.org/1999/xlink" x="0px" y="0px"
	 width="10px" height="16px" viewBox="0 0 10 16" style="enable-background:new 0 0 10 16;" xml:space="preserve">
<g id="Tumblr_1">
	<path d="M10,15.127c-0.692,0.322-1.321,0.549-1.883,0.679C7.555,15.935,6.945,16,6.294,16c-0.742,0-1.399-0.093-1.97-0.277
		c-0.57-0.186-1.057-0.448-1.46-0.789c-0.402-0.343-0.459-0.59-0.614-0.976C2.094,13.573,2,12.731,2,12V7H0V4c3,0,3-3,3-4h3v4.045
		L9,4v3H6v4c0,0.928-0.109,1.625,0.315,2.076c0.287,0.305,0.771,0.318,1.233,0.318c0.822,0,1.639-0.264,2.451-0.791V15.127z"/>
</g>
<g>
</g>
<g>
</g>
<g>
</g>
<g>
</g>
<g>
</g>
<g>
</g>
<g>
</g>
<g>
</g>
<g>
</g>
<g>
</g>
<g>
</g>
<g>
</g>
<g>
</g>
<g>
</g>
<g>
</g>
</svg>
