<?xml version="1.0" encoding="iso-8859-1"?>
<!-- Generator: Adobe Illustrator 16.0.0, SVG Export Plug-In . SVG Version: 6.00 Build 0)  -->
<!DOCTYPE svg PUBLIC "-//W3C//DTD SVG 1.1//EN" "http://www.w3.org/Graphics/SVG/1.1/DTD/svg11.dtd">
<svg version="1.1" id="Layer_1" xmlns="http://www.w3.org/2000/svg" xmlns:xlink="http://www.w3.org/1999/xlink" x="0px" y="0px"
	 width="15.995px" height="13.004px" viewBox="0 0 15.995 13.004" style="enable-background:new 0 0 15.995 13.004;"
	 xml:space="preserve">
<g id="Twitter_1">
	<path d="M15.995,1.539c-0.589,0.262-1.221,0.438-1.885,0.518c0.678-0.406,1.197-1.049,1.443-1.816
		c-0.635,0.377-1.338,0.65-2.085,0.797C12.87,0.398,12.016,0,11.073,0C9.259,0,7.79,1.471,7.79,3.283
		c0,0.258,0.029,0.508,0.085,0.748c-2.728-0.137-5.147-1.443-6.767-3.43C0.827,1.086,0.665,1.65,0.665,2.252
		c0,1.139,0.758,2.143,1.639,2.732C1.765,4.967,0.995,4.818,0.995,4.572c0,0.016,0,0.029,0,0.043c0,1.59,0.953,2.916,2.454,3.219
		C3.173,7.908,2.795,7.949,2.495,7.949c-0.212,0-0.461-0.021-0.663-0.061c0.418,1.305,1.608,2.254,3.044,2.281
		c-1.123,0.879-2.55,1.404-4.087,1.404c-0.266,0-0.532-0.016-0.789-0.045c1.453,0.93,3.175,1.475,5.029,1.475
		c6.039,0,9.338-5.002,9.338-9.34c0-0.143-0.004-0.285-0.011-0.426C14.999,2.775,15.555,2.197,15.995,1.539z"/>
</g>
<g>
</g>
<g>
</g>
<g>
</g>
<g>
</g>
<g>
</g>
<g>
</g>
<g>
</g>
<g>
</g>
<g>
</g>
<g>
</g>
<g>
</g>
<g>
</g>
<g>
</g>
<g>
</g>
<g>
</g>
</svg>
