<?xml version="1.0" encoding="iso-8859-1"?>
<!-- Generator: Adobe Illustrator 16.0.0, SVG Export Plug-In . SVG Version: 6.00 Build 0)  -->
<!DOCTYPE svg PUBLIC "-//W3C//DTD SVG 1.1//EN" "http://www.w3.org/Graphics/SVG/1.1/DTD/svg11.dtd">
<svg version="1.1" id="Layer_1" xmlns="http://www.w3.org/2000/svg" xmlns:xlink="http://www.w3.org/1999/xlink" x="0px" y="0px"
	 width="16px" height="16px" viewBox="0 0 16 16" style="enable-background:new 0 0 16 16;" xml:space="preserve">
<path id="Twitter_4" style="fill-rule:evenodd;clip-rule:evenodd;" d="M15,0H1C0.45,0,0,0.45,0,1v14c0,0.55,0.45,1,1,1h14
	c0.55,0,1-0.45,1-1V1C16,0.45,15.55,0,15,0z M11.993,5.992c0.004,0.086,0.008,0.174,0.008,0.262c0,2.669-2.03,5.746-5.745,5.746
	c-1.14,0-2.198-0.336-3.092-0.907c0.158,0.019,0.326,0.028,0.489,0.028c0.946,0,1.831-0.324,2.522-0.865
	c-0.884-0.016-1.602-0.6-1.858-1.402C4.44,8.877,4.622,8.891,4.752,8.891c0.184,0,0.474-0.025,0.644-0.071
	C4.473,8.633,4,7.817,4,6.84c0-0.009,0-0.018,0-0.027c0,0.152,0.36,0.243,0.691,0.254c-0.542-0.363-1.122-0.98-1.122-1.682
	c0-0.369,0.1-0.717,0.273-1.015c0.996,1.222,2.484,2.026,4.163,2.11C7.97,6.332,7.953,6.178,7.953,6.02C7.953,4.904,8.856,4,9.972,4
	c0.581,0,1.105,0.245,1.475,0.639c0.459-0.091,0.892-0.259,1.282-0.49c-0.151,0.472-0.472,0.867-0.888,1.117
	c0.408-0.05,0.797-0.158,1.159-0.318C12.729,5.352,12.389,5.707,11.993,5.992z"/>
<g>
</g>
<g>
</g>
<g>
</g>
<g>
</g>
<g>
</g>
<g>
</g>
<g>
</g>
<g>
</g>
<g>
</g>
<g>
</g>
<g>
</g>
<g>
</g>
<g>
</g>
<g>
</g>
<g>
</g>
</svg>
