<?xml version="1.0" encoding="iso-8859-1"?>
<!-- Generator: Adobe Illustrator 16.0.0, SVG Export Plug-In . SVG Version: 6.00 Build 0)  -->
<!DOCTYPE svg PUBLIC "-//W3C//DTD SVG 1.1//EN" "http://www.w3.org/Graphics/SVG/1.1/DTD/svg11.dtd">
<svg version="1.1" id="Layer_1" xmlns="http://www.w3.org/2000/svg" xmlns:xlink="http://www.w3.org/1999/xlink" x="0px" y="0px"
	 width="16px" height="16px" viewBox="0 0 16 16" style="enable-background:new 0 0 16 16;" xml:space="preserve">
<g id="Vimeo_3">
	<path d="M8,0C3.582,0,0,3.582,0,8s3.582,8,8,8s8-3.582,8-8S12.418,0,8,0z M11.914,6.554c-0.501,2.585-3.299,4.774-4.139,5.274
		c-0.842,0.5-1.609-0.2-1.888-0.73C5.569,10.494,4.614,7.221,4.363,6.95c-0.25-0.272-1,0.271-1,0.271L3,6.783
		c0,0,1.523-1.668,2.684-1.877c1.229-0.221,1.227,1.73,1.522,2.814c0.286,1.048,0.479,1.648,0.728,1.648
		c0.25,0,0.729-0.584,1.251-1.481c0.523-0.896-0.022-1.689-1.046-1.126C8.548,4.51,12.414,3.969,11.914,6.554z"/>
</g>
<g>
</g>
<g>
</g>
<g>
</g>
<g>
</g>
<g>
</g>
<g>
</g>
<g>
</g>
<g>
</g>
<g>
</g>
<g>
</g>
<g>
</g>
<g>
</g>
<g>
</g>
<g>
</g>
<g>
</g>
</svg>
