<?xml version="1.0" encoding="iso-8859-1"?>
<!-- Generator: Adobe Illustrator 16.0.0, SVG Export Plug-In . SVG Version: 6.00 Build 0)  -->
<!DOCTYPE svg PUBLIC "-//W3C//DTD SVG 1.1//EN" "http://www.w3.org/Graphics/SVG/1.1/DTD/svg11.dtd">
<svg version="1.1" id="Layer_1" xmlns="http://www.w3.org/2000/svg" xmlns:xlink="http://www.w3.org/1999/xlink" x="0px" y="0px"
	 width="14px" height="16.004px" viewBox="0 0 14 16.004" style="enable-background:new 0 0 14 16.004;" xml:space="preserve">
<g id="Vine_1">
	<path d="M14,7.917c-2.412,0-3.467-0.359-4.581-2.377C8.744,4.317,8.914,3.197,9.266,2.609c0.169-0.284,0.481-0.622,1.005-0.622
		c0.776,0,1.604,0.143,1.605,2.003c0.004,0.089,0.027,0.926-0.133,1.926h2.021c0.146-1,0.116-1.892,0.111-1.975
		C13.875,1.434,12.562,0,10.271,0C9.144,0,8.149,0.583,7.545,1.597c-0.828,1.385-0.782,3.262,0.12,4.895
		c0.88,1.594,1.856,2.454,3.039,2.917c-0.714,1.517-1.859,3.077-3.703,4.283C2.001,10.343,1.999,2.061,2,1.975L0,1.958
		C-0.004,2.368-0.013,12.024,6.504,15.72l0.501,0.284l0.499-0.289c2.742-1.586,4.301-3.794,5.192-5.872
		C13.109,9.878,13.537,9.901,14,9.901V7.917z"/>
</g>
<g>
</g>
<g>
</g>
<g>
</g>
<g>
</g>
<g>
</g>
<g>
</g>
<g>
</g>
<g>
</g>
<g>
</g>
<g>
</g>
<g>
</g>
<g>
</g>
<g>
</g>
<g>
</g>
<g>
</g>
</svg>
