<?xml version="1.0" encoding="iso-8859-1"?>
<!-- Generator: Adobe Illustrator 16.0.0, SVG Export Plug-In . SVG Version: 6.00 Build 0)  -->
<!DOCTYPE svg PUBLIC "-//W3C//DTD SVG 1.1//EN" "http://www.w3.org/Graphics/SVG/1.1/DTD/svg11.dtd">
<svg version="1.1" id="Layer_1" xmlns="http://www.w3.org/2000/svg" xmlns:xlink="http://www.w3.org/1999/xlink" x="0px" y="0px"
	 width="12px" height="16px" viewBox="0 0 12 16" style="enable-background:new 0 0 12 16;" xml:space="preserve">
<g id="Zootool_1">
	<path d="M7.924,16c-1.869,0-2.636-0.761-5.358-5.442c-0.519,0.423-1.336,0.81-1.834,0.81C0.285,11.368,0,11.062,0,9.959
		c0-1.084,0.713-2.833,2.369-2.833c0.517,0,0.872,0.162,1.442,0.597C5.307,6.656,7.39,4.712,8.19,3.66
		C6.588,3.223,5.288,2.882,4.452,2.882c-0.32,0-0.818,0.13-1.424,0.453C2.565,3.206,2.262,2.833,2.262,2.17
		C2.262,1.003,3.295,0,4.56,0c1.353,0,2.58,0.306,5.197,1.214c0.357-0.503,0.626-0.793,0.962-0.793c0.713,0,1.265,0.778,1.265,1.36
		c0,0.68-0.552,1.424-1.958,2.266c-1.639,2.122-2.902,3.24-5.058,4.923c2.832,3.79,3.33,4.147,4.221,4.147
		c0.694,0,1.461-0.228,2.313-0.648C11.752,12.584,12,12.956,12,13.375C12,14.625,9.955,16,7.924,16z"/>
</g>
<g>
</g>
<g>
</g>
<g>
</g>
<g>
</g>
<g>
</g>
<g>
</g>
<g>
</g>
<g>
</g>
<g>
</g>
<g>
</g>
<g>
</g>
<g>
</g>
<g>
</g>
<g>
</g>
<g>
</g>
</svg>
