<?xml version="1.0" encoding="utf-8"?>
<!-- Generator: Adobe Illustrator 17.0.0, SVG Export Plug-In . SVG Version: 6.00 Build 0)  -->
<!DOCTYPE svg PUBLIC "-//W3C//DTD SVG 1.1//EN" "http://www.w3.org/Graphics/SVG/1.1/DTD/svg11.dtd">
<svg version="1.1" id="onepercentclub" xmlns="http://www.w3.org/2000/svg" xmlns:xlink="http://www.w3.org/1999/xlink" x="0px"
	 y="0px" viewBox="0 139.295 600 211.723"
	 xml:space="preserve">
<path fill="#00C051" d="M143.256,140.748c-35.408,0-64.118,28.673-64.118,64.102c0,35.361,28.71,64.1,64.118,64.1
	c35.361,0,64.076-28.738,64.076-64.1C207.332,169.421,178.617,140.748,143.256,140.748 M143.256,238.578
	c-18.676,0-33.754-15.096-33.754-33.728c0-18.637,15.077-33.783,33.754-33.783c18.627,0,33.738,15.145,33.738,33.783
	C176.994,223.482,161.882,238.578,143.256,238.578"/>
<rect x="367.918" y="225.184" fill="#00C051" width="30.184" height="123.751"/>
<polygon fill="#00C051" points="32.055,349.523 32.055,198.165 0,209.131 0,170.433 73.273,139.295 73.273,349.523 "/>
<polygon fill="#00C051" points="243.898,144.99 286.13,144.99 199.222,349.523 157.003,349.523 "/>
<path fill="#00C051" d="M549.582,250.232c-7.203,0-14.009,1.555-20.224,4.26v-29.308h-30.163v123.751h28.885l-0.018-2.914
	c6.552,3.1,13.771,4.997,21.52,4.997c27.834,0,50.418-22.591,50.418-50.415C600,272.784,577.416,250.232,549.582,250.232
	 M548.605,324.359c-12.95,0-23.436-10.506-23.436-23.451c0-12.989,10.485-23.467,23.436-23.467
	c12.932,0,23.417,10.478,23.417,23.467C572.022,313.853,561.537,324.359,548.605,324.359"/>
<path fill="#00C051" d="M461.519,253.757v54.905c0,7.31-5.995,13.287-13.316,13.287c-7.219,0-13.167-5.977-13.167-13.287
	l0.125-54.905h-30.137v53.993c0,23.854,19.374,43.264,43.126,43.264c7.198,0,13.854-1.903,19.834-5.018v2.938h23.498v-95.177
	H461.519z"/>
<path fill="#00C051" d="M331.067,302.296c-5.596,10.867-16.829,18.391-29.92,18.391c-18.645,0-33.738-15.114-33.738-33.759
	c0-18.676,15.093-33.751,33.738-33.751c13.091,0,24.324,7.506,29.92,18.381h32.246c-6.923-27.941-32.071-48.74-62.166-48.74
	c-35.411,0-64.06,28.715-64.06,64.11c0,35.393,28.65,64.089,64.06,64.089c30.095,0,55.242-20.767,62.166-48.722
	C363.313,302.296,331.067,302.296,331.067,302.296z"/>
</svg>
