<?xml version="1.0" encoding="UTF-8" standalone="no"?>
<svg width="599px" height="132px" viewBox="0 0 599 132" version="1.1" xmlns="http://www.w3.org/2000/svg" xmlns:xlink="http://www.w3.org/1999/xlink" xmlns:sketch="http://www.bohemiancoding.com/sketch/ns">
    <!-- Generator: Sketch 3.2.2 (9983) - http://www.bohemiancoding.com/sketch -->
    <title>1%Club|business</title>
    <desc>Created with Sketch.</desc>
    <defs></defs>
    <g id="Page-1" stroke="none" stroke-width="1" fill="none" fill-rule="evenodd" sketch:type="MSPage">
        <g id="1%Club|business" sketch:type="MSLayerGroup" transform="translate(-1.000000, 0.000000)">
            <path d="M65.951,1.139 C49.897,1.139 36.876,14.141 36.876,30.204 C36.876,46.236 49.897,59.268 65.951,59.268 C81.982,59.268 95.005,46.236 95.005,30.204 C95.005,14.141 81.982,1.139 65.951,1.139 M65.951,45.499 C57.479,45.499 50.645,38.656 50.645,30.204 C50.645,21.755 57.479,14.886 65.951,14.886 C74.396,14.886 81.246,21.755 81.246,30.204 C81.246,38.656 74.396,45.499 65.951,45.499" id="Fill-1" fill="#00BF51" sketch:type="MSShapeGroup"></path>
            <path d="M167.814,39.423 L181.499,39.423 L181.499,95.537 L167.814,95.537 L167.814,39.423 Z" id="Fill-2" fill="#00BF51" sketch:type="MSShapeGroup"></path>
            <path d="M15.531,95.801 L15.531,27.172 L0.998,32.147 L0.998,14.598 L34.218,0.48 L34.218,95.801 L15.531,95.801" id="Fill-3" fill="#00BF51" sketch:type="MSShapeGroup"></path>
            <path d="M111.584,3.064 L130.729,3.064 L91.327,95.802 L72.182,95.802 L111.584,3.064" id="Fill-4" fill="#00BF51" sketch:type="MSShapeGroup"></path>
            <path d="M250.182,50.783 C246.919,50.783 243.833,51.487 241.017,52.715 L241.017,39.423 L227.338,39.423 L227.338,95.535 L240.434,95.535 L240.424,94.214 C243.401,95.617 246.667,96.48 250.182,96.48 C262.803,96.48 273.044,86.239 273.044,73.621 C273.044,61.006 262.803,50.783 250.182,50.783 M249.739,84.395 C243.868,84.395 239.113,79.629 239.113,73.761 C239.113,67.87 243.868,63.118 249.739,63.118 C255.605,63.118 260.358,67.87 260.358,73.761 C260.358,79.629 255.605,84.395 249.739,84.395" id="Fill-5" fill="#00BF51" sketch:type="MSShapeGroup"></path>
            <path d="M210.256,52.382 L210.256,77.276 C210.256,80.59 207.536,83.3 204.216,83.3 C200.945,83.3 198.246,80.59 198.246,77.276 L198.308,52.382 L184.64,52.382 L184.64,76.859 C184.64,87.68 193.424,96.48 204.192,96.48 C207.461,96.48 210.478,95.615 213.186,94.202 L213.186,95.537 L223.84,95.537 L223.84,52.382 L210.256,52.382" id="Fill-6" fill="#00BF51" sketch:type="MSShapeGroup"></path>
            <path d="M151.105,74.388 C148.571,79.318 143.476,82.727 137.538,82.727 C129.087,82.727 122.244,75.874 122.244,67.42 C122.244,58.951 129.087,52.117 137.538,52.117 C143.476,52.117 148.571,55.521 151.105,60.455 L165.724,60.455 C162.589,47.782 151.185,38.352 137.538,38.352 C121.486,38.352 108.496,51.373 108.496,67.42 C108.496,83.473 121.486,96.48 137.538,96.48 C151.185,96.48 162.589,87.062 165.724,74.388 L151.105,74.388" id="Fill-7" fill="#00BF51" sketch:type="MSShapeGroup"></path>
            <path d="M292.929,95.527 L305.191,95.527 L305.191,91.498 L305.366,91.498 C307.819,95.002 312.461,96.929 316.84,96.929 C329.54,96.929 336.722,85.542 336.722,73.806 C336.722,62.507 329.277,51.121 317.103,51.121 C312.548,51.121 307.994,53.135 305.191,56.464 L305.191,39.422 L292.929,39.422 L292.929,95.527 L292.929,95.527 Z M314.125,86.068 C307.819,86.068 303.965,79.762 303.965,73.981 C303.965,68.2 307.819,61.982 314.125,61.982 C320.431,61.982 324.285,68.2 324.285,73.981 C324.285,79.762 320.431,86.068 314.125,86.068 L314.125,86.068 Z M342.257,52.522 L342.257,77.835 C342.257,90.36 348.738,96.929 361.526,96.929 C374.313,96.929 380.794,90.36 380.794,77.835 L380.794,52.522 L368.532,52.522 L368.532,75.82 C368.532,80.725 367.744,86.593 361.526,86.593 C355.307,86.593 354.519,80.725 354.519,75.82 L354.519,52.522 L342.257,52.522 L342.257,52.522 Z M415.364,55.588 C411.86,52.522 406.08,51.121 401.525,51.121 C393.467,51.121 387.862,56.989 387.862,65.047 C387.862,71.966 392.153,74.506 396.445,76.346 C400.737,78.185 405.029,79.061 405.029,82.827 C405.029,85.63 402.839,87.469 400.124,87.469 C396.533,87.469 393.38,85.104 391.015,82.477 L385.409,89.746 C389.175,94.301 394.781,96.929 400.562,96.929 C409.583,96.929 417.291,91.235 417.291,81.689 C417.291,74.244 412.911,71.266 408.444,69.339 C404.065,67.412 399.598,66.536 399.598,63.383 C399.598,61.281 401.613,59.704 403.627,59.704 C406.08,59.704 408.357,61.018 410.109,62.682 L415.364,55.588 L415.364,55.588 Z M423.508,95.527 L435.77,95.527 L435.77,52.522 L423.508,52.522 L423.508,95.527 Z M429.639,32.961 C425.61,32.961 422.37,36.289 422.37,40.231 C422.37,44.26 425.61,47.5 429.639,47.5 C433.668,47.5 436.909,44.26 436.909,40.231 C436.909,36.289 433.668,32.961 429.639,32.961 L429.639,32.961 Z M456.65,52.522 L444.388,52.522 L444.388,95.527 L456.65,95.527 L456.65,74.244 C456.65,69.076 456.738,60.931 464.007,60.931 C470.927,60.931 470.664,67.587 470.664,72.755 L470.664,95.527 L482.926,95.527 L482.926,69.251 C482.926,59.267 479.598,51.121 468.036,51.121 C463.657,51.121 459.365,52.61 456.825,56.464 L456.65,56.464 L456.65,52.522 L456.65,52.522 Z M529.994,75.995 L529.994,74.506 C529.994,61.544 523.688,51.121 509.587,51.121 C495.66,51.121 488.741,61.368 488.741,74.419 C488.741,87.469 496.887,96.929 510.2,96.929 C519.221,96.929 526.753,92.111 529.731,83.528 L518.433,81.689 C516.769,85.104 514.229,87.557 510.2,87.557 C503.806,87.557 501.704,81.426 501.704,75.995 L529.994,75.995 L529.994,75.995 Z M502.054,68.375 C502.667,63.908 505.382,59.704 510.287,59.704 C515.017,59.704 517.82,63.996 518.433,68.375 L502.054,68.375 L502.054,68.375 Z M562.304,55.588 C558.801,52.522 553.02,51.121 548.465,51.121 C540.407,51.121 534.802,56.989 534.802,65.047 C534.802,71.966 539.094,74.506 543.385,76.346 C547.677,78.185 551.969,79.061 551.969,82.827 C551.969,85.63 549.779,87.469 547.064,87.469 C543.473,87.469 540.32,85.104 537.955,82.477 L532.35,89.746 C536.116,94.301 541.721,96.929 547.502,96.929 C556.523,96.929 564.231,91.235 564.231,81.689 C564.231,74.244 559.852,71.266 555.385,69.339 C551.005,67.412 546.538,66.536 546.538,63.383 C546.538,61.281 548.553,59.704 550.567,59.704 C553.02,59.704 555.297,61.018 557.049,62.682 L562.304,55.588 L562.304,55.588 Z M597.39,55.588 C593.887,52.522 588.106,51.121 583.551,51.121 C575.493,51.121 569.888,56.989 569.888,65.047 C569.888,71.966 574.18,74.506 578.471,76.346 C582.763,78.185 587.055,79.061 587.055,82.827 C587.055,85.63 584.865,87.469 582.15,87.469 C578.559,87.469 575.406,85.104 573.041,82.477 L567.436,89.746 C571.202,94.301 576.807,96.929 582.588,96.929 C591.609,96.929 599.317,91.235 599.317,81.689 C599.317,74.244 594.938,71.266 590.471,69.339 C586.091,67.412 581.625,66.536 581.625,63.383 C581.625,61.281 583.639,59.704 585.653,59.704 C588.106,59.704 590.383,61.018 592.135,62.682 L597.39,55.588 L597.39,55.588 Z" id="Fill-8" fill="#FFFFFF" sketch:type="MSShapeGroup"></path>
            <path d="M281.611,3.064 L281.611,131.772" id="Stroke-9" stroke="#FFFFFF" stroke-width="5" sketch:type="MSShapeGroup"></path>
        </g>
    </g>
</svg>