<?xml version="1.0" encoding="utf-8"?>
<!-- Generator: Adobe Illustrator 17.0.0, SVG Export Plug-In . SVG Version: 6.00 Build 0)  -->
<!DOCTYPE svg PUBLIC "-//W3C//DTD SVG 1.1//EN" "http://www.w3.org/Graphics/SVG/1.1/DTD/svg11.dtd">
<svg version="1.1" id="onepercentclub" xmlns="http://www.w3.org/2000/svg" xmlns:xlink="http://www.w3.org/1999/xlink" x="0px" y="0px"
	  viewBox="0 0 229.574 122.979"
	 xml:space="preserve">
<g>
	<path fill="#FFFFFF" d="M54.813,0.556c-13.548,0-24.533,10.971-24.533,24.527c0,13.53,10.985,24.526,24.533,24.526
		c13.53,0,24.517-10.996,24.517-24.526C79.33,11.527,68.343,0.556,54.813,0.556 M54.813,37.988c-7.146,0-12.915-5.776-12.915-12.905
		c0-7.131,5.769-12.926,12.915-12.926c7.127,0,12.909,5.795,12.909,12.926C67.722,32.212,61.94,37.988,54.813,37.988"/>
	<rect x="140.774" y="32.863" fill="#FFFFFF" width="11.549" height="47.35"/>
	<polygon fill="#FFFFFF" points="12.265,80.438 12.265,22.525 0,26.721 0,11.914 28.036,0 28.036,80.438 	"/>
	<polygon fill="#FFFFFF" points="93.321,2.179 109.48,2.179 76.227,80.438 60.073,80.438 	"/>
	<path fill="#FFFFFF" d="M210.283,42.447c-2.756,0-5.36,0.595-7.738,1.63V32.863h-11.541v47.35h11.052l-0.007-1.115
		c2.507,1.186,5.269,1.912,8.234,1.912c10.65,0,19.291-8.644,19.291-19.29C229.574,51.076,220.933,42.447,210.283,42.447
		 M209.909,70.81c-4.955,0-8.967-4.02-8.967-8.973c0-4.97,4.012-8.979,8.967-8.979c4.948,0,8.96,4.009,8.96,8.979
		C218.869,66.79,214.857,70.81,209.909,70.81"/>
	<path fill="#FFFFFF" d="M176.588,43.796v21.008c0,2.797-2.294,5.084-5.095,5.084c-2.762,0-5.038-2.287-5.038-5.084l0.048-21.008
		h-11.531v20.659c0,9.127,7.413,16.554,16.501,16.554c2.754,0,5.301-0.728,7.589-1.92v1.124h8.991V43.796H176.588z"/>
	<path fill="#FFFFFF" d="M126.674,62.368c-2.141,4.158-6.439,7.037-11.448,7.037c-7.134,0-12.909-5.783-12.909-12.917
		c0-7.146,5.775-12.914,12.909-12.914c5.009,0,9.307,2.872,11.448,7.033h12.338c-2.649-10.691-12.271-18.649-23.786-18.649
		c-13.549,0-24.511,10.987-24.511,24.53c0,13.542,10.962,24.522,24.511,24.522c11.515,0,21.137-7.946,23.786-18.642H126.674z"/>
	<path fill="#FFFFFF" d="M21.51,113.685c-0.707-0.954-1.855-1.466-3.039-1.466c-2.121,0-3.552,1.625-3.552,3.692
		c0,2.103,1.449,3.623,3.605,3.623c1.131,0,2.261-0.548,2.986-1.414v4.152c-1.149,0.354-1.979,0.618-3.057,0.618
		c-1.855,0-3.622-0.706-5-1.961c-1.467-1.325-2.138-3.056-2.138-5.035c0-1.82,0.689-3.57,1.961-4.877
		c1.307-1.343,3.198-2.156,5.071-2.156c1.113,0,2.138,0.247,3.163,0.671V113.685z"/>
	<polygon fill="#FFFFFF" points="33.523,114.357 33.523,109.215 36.986,109.215 36.986,122.537 33.523,122.537 33.523,117.078 
		28.523,117.078 28.523,122.537 25.059,122.537 25.059,109.215 28.523,109.215 28.523,114.357 	"/>
	<path fill="#FFFFFF" d="M46.471,113.332h-0.036l-1.431,4.241h2.88L46.471,113.332z M44.05,120.223l-0.919,2.314h-3.675
		l5.124-13.322h3.781l5.019,13.322h-3.694l-0.865-2.314H44.05z"/>
	<polygon fill="#FFFFFF" points="55.868,109.215 59.331,109.215 65.674,117.361 65.71,117.361 65.71,109.215 69.173,109.215 
		69.173,122.537 65.71,122.537 59.367,114.374 59.331,114.374 59.331,122.537 55.868,122.537 	"/>
	<path fill="#FFFFFF" d="M86.132,115.099c-0.035,1.943-0.177,3.604-1.361,5.266c-1.307,1.819-3.269,2.614-5.495,2.614
		c-4.188,0-7.103-2.844-7.103-7.032c0-4.329,2.933-7.174,7.227-7.174c2.739,0,4.859,1.237,6.007,3.728l-3.286,1.379
		c-0.477-1.272-1.484-2.12-2.88-2.12c-2.28,0-3.463,2.173-3.463,4.205c0,2.067,1.236,4.17,3.516,4.17
		c1.502,0,2.65-0.778,2.791-2.315h-2.827v-2.721H86.132z"/>
	<polygon fill="#FFFFFF" points="92.596,112.148 92.596,114.374 96.501,114.374 96.501,117.307 92.596,117.307 92.596,119.604 
		96.713,119.604 96.713,122.537 89.133,122.537 89.133,109.215 96.713,109.215 96.713,112.148 	"/>
	<polygon fill="#FFFFFF" points="113.035,122.537 109.572,122.537 109.572,112.148 106.709,112.148 106.709,109.215 
		115.898,109.215 115.898,112.148 113.035,112.148 	"/>
	<polygon fill="#FFFFFF" points="127.027,114.357 127.027,109.215 130.49,109.215 130.49,122.537 127.027,122.537 127.027,117.078 
		122.027,117.078 122.027,122.537 118.563,122.537 118.563,109.215 122.027,109.215 122.027,114.357 	"/>
	<polygon fill="#FFFFFF" points="137.625,112.148 137.625,114.374 141.53,114.374 141.53,117.307 137.625,117.307 137.625,119.604 
		141.742,119.604 141.742,122.537 134.162,122.537 134.162,109.215 141.742,109.215 141.742,112.148 	"/>
	<polygon fill="#FFFFFF" points="157.287,117.82 157.322,117.82 160.114,109.215 162.871,109.215 165.486,117.82 165.521,117.82 
		168.03,109.215 171.635,109.215 167.376,122.537 163.842,122.537 161.51,114.816 161.475,114.816 158.86,122.537 155.343,122.537 
		151.368,109.215 154.972,109.215 	"/>
	<path fill="#FFFFFF" d="M176.843,115.646c0,2.297,1.696,3.975,3.764,3.975c2.067,0,3.763-1.678,3.763-3.975
		c0-1.837-1.696-3.516-3.763-3.516C178.539,112.13,176.843,113.809,176.843,115.646 M187.975,115.629c0,4.31-3.092,7.35-7.368,7.35
		s-7.368-3.04-7.368-7.35c0-4.029,3.533-6.856,7.368-6.856C184.441,108.773,187.975,111.6,187.975,115.629"/>
	<path fill="#FFFFFF" d="M194.455,115.187h0.336c1.131,0,2.403-0.212,2.403-1.661s-1.272-1.661-2.403-1.661h-0.336V115.187z
		 M202.071,122.537h-4.311l-3.269-5.123h-0.036v5.123h-3.463v-13.322h5.177c2.633,0,4.63,1.254,4.63,4.099
		c0,1.838-1.025,3.428-2.916,3.764L202.071,122.537z"/>
	<polygon fill="#FFFFFF" points="207.881,119.605 212.034,119.605 212.034,122.538 204.418,122.538 204.418,109.215 
		207.881,109.215 	"/>
	<path fill="#FFFFFF" d="M218.039,119.605h0.777c2.068,0,3.835-1.132,3.835-3.729c0-2.385-1.573-3.728-3.799-3.728h-0.813V119.605z
		 M214.576,109.215h4.912c3.711,0,6.768,2.915,6.768,6.661c0,3.746-3.075,6.661-6.768,6.661h-4.912V109.215z"/>
	<path fill="#FFFFFF" d="M17.941,91.118c-0.495-0.83-1.131-1.254-2.138-1.254c-1.06,0-2.226,0.724-2.226,1.89
		c0,1.043,1.025,1.591,1.855,1.908l0.954,0.372c1.891,0.742,3.304,1.784,3.304,4.01c0,2.421-1.872,4.153-4.258,4.153
		c-2.155,0-3.834-1.59-4.117-3.729l1.679-0.353c-0.018,1.467,1.148,2.527,2.579,2.527c1.432,0,2.457-1.202,2.457-2.598
		c0-1.431-1.149-2.049-2.298-2.526l-0.918-0.389c-1.52-0.654-2.898-1.519-2.898-3.375c0-2.155,1.908-3.445,3.922-3.445
		c1.485,0,2.704,0.724,3.428,2.014L17.941,91.118z"/>
	<polygon fill="#FFFFFF" points="31.844,93.963 31.844,88.592 33.505,88.592 33.505,101.914 31.844,101.914 31.844,95.518 
		25.501,95.518 25.501,101.914 23.84,101.914 23.84,88.592 25.501,88.592 25.501,93.963 	"/>
	<path fill="#FFFFFF" d="M43.326,91.666l-2.368,5.389h4.736L43.326,91.666z M40.269,98.575l-1.52,3.339h-1.784l6.361-13.888
		l6.361,13.888h-1.785l-1.519-3.339H40.269z"/>
	<path fill="#FFFFFF" d="M54.932,94.899h0.53c1.696,0,3.534-0.318,3.534-2.438c0-2.085-1.979-2.385-3.622-2.385h-0.442V94.899z
		 M61.558,101.914h-2.014l-3.923-5.637h-0.689v5.637h-1.661V88.591h2.015c1.183,0,2.455,0.018,3.516,0.619
		c1.113,0.654,1.749,1.908,1.749,3.18c0,1.909-1.272,3.499-3.198,3.729L61.558,101.914z"/>
	<polygon fill="#FFFFFF" points="65.337,88.592 72.493,88.592 72.493,90.111 66.998,90.111 66.998,93.84 72.334,93.84 
		72.334,95.359 66.998,95.359 66.998,100.395 72.493,100.395 72.493,101.915 65.337,101.915 	"/>
	<path fill="#FFFFFF" d="M90.352,91.666l-2.368,5.389h4.735L90.352,91.666z M87.295,98.575l-1.52,3.339h-1.784l6.361-13.888
		l6.361,13.888h-1.785l-1.519-3.339H87.295z"/>
	<polygon fill="#FFFFFF" points="108.37,100.395 112.416,100.395 112.416,101.914 106.709,101.914 106.709,88.592 108.37,88.592 	
		"/>
	<rect x="115.931" y="88.591" fill="#FFFFFF" width="1.661" height="13.323"/>
	<polygon fill="#FFFFFF" points="126.142,101.914 124.481,101.914 124.481,90.111 121.318,90.111 121.318,88.591 129.305,88.591 
		129.305,90.111 126.142,90.111 	"/>
	<polygon fill="#FFFFFF" points="136.671,101.914 135.01,101.914 135.01,90.111 131.847,90.111 131.847,88.591 139.834,88.591 
		139.834,90.111 136.671,90.111 	"/>
	<polygon fill="#FFFFFF" points="145.273,100.395 149.319,100.395 149.319,101.914 143.612,101.914 143.612,88.592 145.273,88.592 	
		"/>
	<polygon fill="#FFFFFF" points="152.887,88.592 160.043,88.592 160.043,90.111 154.548,90.111 154.548,93.84 159.884,93.84 
		159.884,95.359 154.548,95.359 154.548,100.395 160.043,100.395 160.043,101.915 152.887,101.915 	"/>
</g>
<g id="Layer_2">
</g>
<g>
</g>
<g>
</g>
<g>
</g>
<g>
</g>
<g>
</g>
<g>
</g>
<g>
</g>
<g>
</g>
<g>
</g>
<g>
</g>
<g>
</g>
<g>
</g>
<g>
</g>
<g>
</g>
<g>
</g>
</svg>
