<?xml version="1.0" encoding="utf-8"?>
<!-- Generator: Adobe Illustrator 17.0.0, SVG Export Plug-In . SVG Version: 6.00 Build 0)  -->
<!DOCTYPE svg PUBLIC "-//W3C//DTD SVG 1.1//EN" "http://www.w3.org/Graphics/SVG/1.1/DTD/svg11.dtd">
<svg version="1.1" id="onepercentclub" xmlns="http://www.w3.org/2000/svg" xmlns:xlink="http://www.w3.org/1999/xlink" x="0px" y="0px"
	 viewBox="0 0 232.755 130.667"
	 xml:space="preserve">
<g>
	<path fill="#36B559" d="M56.403,4.399c-13.548,0-24.533,10.971-24.533,24.527c0,13.53,10.985,24.526,24.533,24.526
		c13.53,0,24.517-10.996,24.517-24.526C80.92,15.37,69.933,4.399,56.403,4.399 M56.403,41.831c-7.146,0-12.915-5.776-12.915-12.905
		C43.488,21.795,49.257,16,56.403,16c7.127,0,12.909,5.795,12.909,12.926C69.312,36.055,63.53,41.831,56.403,41.831"/>
	<rect x="142.364" y="36.707" fill="#36B559" width="11.549" height="47.35"/>
	<polygon fill="#36B559" points="13.855,84.282 13.855,26.369 1.59,30.565 1.59,15.758 29.626,3.844 29.626,84.282 	"/>
	<polygon fill="#36B559" points="94.911,6.023 111.07,6.023 77.817,84.282 61.663,84.282 	"/>
	<path fill="#36B559" d="M211.874,46.291c-2.756,0-5.36,0.595-7.738,1.63V36.707h-11.541v47.35h11.052l-0.007-1.115
		c2.507,1.186,5.269,1.912,8.234,1.912c10.65,0,19.291-8.644,19.291-19.29C231.165,54.92,222.524,46.291,211.874,46.291
		 M211.5,74.654c-4.955,0-8.967-4.02-8.967-8.973c0-4.97,4.012-8.979,8.967-8.979c4.948,0,8.96,4.009,8.96,8.979
		C220.46,70.634,216.448,74.654,211.5,74.654"/>
	<path fill="#36B559" d="M178.179,47.64v21.008c0,2.797-2.294,5.084-5.095,5.084c-2.762,0-5.038-2.287-5.038-5.084l0.048-21.008
		h-11.531v20.659c0,9.127,7.413,16.554,16.501,16.554c2.754,0,5.301-0.728,7.589-1.92v1.124h8.991V47.64H178.179z"/>
	<path fill="#36B559" d="M128.264,66.212c-2.141,4.158-6.439,7.037-11.448,7.037c-7.134,0-12.909-5.783-12.909-12.917
		c0-7.146,5.775-12.914,12.909-12.914c5.009,0,9.307,2.872,11.448,7.033h12.338c-2.649-10.691-12.271-18.649-23.786-18.649
		c-13.549,0-24.511,10.987-24.511,24.53c0,13.542,10.962,24.522,24.511,24.522c11.515,0,21.137-7.946,23.786-18.642H128.264z"/>
	<path fill="#F066A6" d="M23.101,117.529c-0.707-0.954-1.855-1.466-3.039-1.466c-2.121,0-3.552,1.625-3.552,3.692
		c0,2.103,1.449,3.623,3.605,3.623c1.131,0,2.261-0.548,2.986-1.414v4.152c-1.149,0.354-1.979,0.618-3.057,0.618
		c-1.855,0-3.622-0.706-5-1.961c-1.467-1.325-2.138-3.056-2.138-5.035c0-1.82,0.689-3.57,1.961-4.877
		c1.307-1.343,3.198-2.156,5.071-2.156c1.113,0,2.138,0.247,3.163,0.671V117.529z"/>
	<polygon fill="#F066A6" points="35.113,118.2 35.113,113.058 38.576,113.058 38.576,126.38 35.113,126.38 35.113,120.921 
		30.113,120.921 30.113,126.38 26.649,126.38 26.649,113.058 30.113,113.058 30.113,118.2 	"/>
	<path fill="#F066A6" d="M48.062,117.176h-0.036l-1.431,4.241h2.88L48.062,117.176z M45.641,124.067l-0.919,2.314h-3.675
		l5.124-13.322h3.781l5.019,13.322h-3.694l-0.865-2.314H45.641z"/>
	<polygon fill="#F066A6" points="57.458,113.059 60.921,113.059 67.264,121.205 67.3,121.205 67.3,113.059 70.763,113.059 
		70.763,126.381 67.3,126.381 60.957,118.218 60.921,118.218 60.921,126.381 57.458,126.381 	"/>
	<path fill="#F066A6" d="M87.723,118.943c-0.035,1.943-0.177,3.604-1.361,5.266c-1.307,1.819-3.269,2.614-5.495,2.614
		c-4.188,0-7.103-2.844-7.103-7.032c0-4.329,2.933-7.174,7.227-7.174c2.739,0,4.859,1.237,6.007,3.728l-3.286,1.379
		c-0.477-1.272-1.484-2.12-2.88-2.12c-2.28,0-3.463,2.173-3.463,4.205c0,2.067,1.236,4.17,3.516,4.17
		c1.502,0,2.65-0.778,2.791-2.315h-2.827v-2.721H87.723z"/>
	<polygon fill="#F066A6" points="94.186,115.992 94.186,118.218 98.091,118.218 98.091,121.151 94.186,121.151 94.186,123.448 
		98.303,123.448 98.303,126.381 90.723,126.381 90.723,113.059 98.303,113.059 98.303,115.992 	"/>
	<polygon fill="#F066A6" points="114.625,126.381 111.162,126.381 111.162,115.992 108.299,115.992 108.299,113.059 
		117.488,113.059 117.488,115.992 114.625,115.992 	"/>
	<polygon fill="#F066A6" points="128.617,118.2 128.617,113.058 132.08,113.058 132.08,126.38 128.617,126.38 128.617,120.921 
		123.617,120.921 123.617,126.38 120.153,126.38 120.153,113.058 123.617,113.058 123.617,118.2 	"/>
	<polygon fill="#F066A6" points="139.215,115.992 139.215,118.218 143.12,118.218 143.12,121.151 139.215,121.151 139.215,123.448 
		143.332,123.448 143.332,126.381 135.752,126.381 135.752,113.059 143.332,113.059 143.332,115.992 	"/>
	<polygon fill="#F066A6" points="158.877,121.664 158.912,121.664 161.704,113.059 164.461,113.059 167.076,121.664 
		167.111,121.664 169.62,113.059 173.225,113.059 168.966,126.381 165.432,126.381 163.1,118.66 163.065,118.66 160.45,126.381 
		156.933,126.381 152.958,113.059 156.562,113.059 	"/>
	<path fill="#F066A6" d="M178.433,119.49c0,2.297,1.696,3.975,3.764,3.975c2.067,0,3.763-1.678,3.763-3.975
		c0-1.837-1.696-3.516-3.763-3.516C180.129,115.974,178.433,117.653,178.433,119.49 M189.565,119.473c0,4.31-3.092,7.35-7.368,7.35
		s-7.368-3.04-7.368-7.35c0-4.029,3.533-6.856,7.368-6.856C186.031,112.617,189.565,115.444,189.565,119.473"/>
	<path fill="#F066A6" d="M196.045,119.031h0.336c1.131,0,2.403-0.212,2.403-1.661s-1.272-1.661-2.403-1.661h-0.336V119.031z
		 M203.661,126.381h-4.311l-3.269-5.123h-0.036v5.123h-3.463v-13.322h5.177c2.633,0,4.63,1.254,4.63,4.099
		c0,1.838-1.025,3.428-2.916,3.764L203.661,126.381z"/>
	<polygon fill="#F066A6" points="209.471,123.448 213.624,123.448 213.624,126.381 206.008,126.381 206.008,113.058 
		209.471,113.058 	"/>
	<path fill="#F066A6" d="M219.629,123.449h0.777c2.068,0,3.835-1.132,3.835-3.729c0-2.385-1.573-3.728-3.799-3.728h-0.813V123.449z
		 M216.166,113.059h4.912c3.711,0,6.768,2.915,6.768,6.661c0,3.746-3.075,6.661-6.768,6.661h-4.912V113.059z"/>
	<path fill="#F066A6" d="M19.531,94.962c-0.495-0.83-1.131-1.254-2.138-1.254c-1.06,0-2.226,0.724-2.226,1.89
		c0,1.043,1.025,1.591,1.855,1.908l0.954,0.372c1.891,0.742,3.304,1.784,3.304,4.01c0,2.421-1.872,4.153-4.258,4.153
		c-2.155,0-3.834-1.59-4.117-3.729l1.679-0.353c-0.018,1.467,1.148,2.527,2.579,2.527c1.432,0,2.457-1.202,2.457-2.598
		c0-1.431-1.149-2.049-2.298-2.526l-0.918-0.389c-1.52-0.654-2.898-1.519-2.898-3.375c0-2.155,1.908-3.445,3.922-3.445
		c1.485,0,2.704,0.724,3.428,2.014L19.531,94.962z"/>
	<polygon fill="#F066A6" points="33.434,97.807 33.434,92.436 35.095,92.436 35.095,105.758 33.434,105.758 33.434,99.362 
		27.091,99.362 27.091,105.758 25.43,105.758 25.43,92.436 27.091,92.436 27.091,97.807 	"/>
	<path fill="#F066A6" d="M44.917,95.51l-2.368,5.389h4.736L44.917,95.51z M41.86,102.419l-1.52,3.339h-1.784l6.361-13.888
		l6.361,13.888h-1.785l-1.519-3.339H41.86z"/>
	<path fill="#F066A6" d="M56.522,98.743h0.53c1.696,0,3.534-0.318,3.534-2.438c0-2.085-1.979-2.385-3.622-2.385h-0.442V98.743z
		 M63.148,105.758h-2.014l-3.923-5.637h-0.689v5.637h-1.661V92.435h2.015c1.183,0,2.455,0.018,3.516,0.619
		c1.113,0.654,1.749,1.908,1.749,3.18c0,1.909-1.272,3.499-3.198,3.729L63.148,105.758z"/>
	<polygon fill="#F066A6" points="66.927,92.435 74.083,92.435 74.083,93.954 68.588,93.954 68.588,97.683 73.924,97.683 
		73.924,99.202 68.588,99.202 68.588,104.238 74.083,104.238 74.083,105.758 66.927,105.758 	"/>
	<path fill="#F066A6" d="M91.942,95.51l-2.368,5.389h4.735L91.942,95.51z M88.885,102.419l-1.52,3.339h-1.784l6.361-13.888
		l6.361,13.888h-1.785l-1.519-3.339H88.885z"/>
	<polygon fill="#F066A6" points="109.96,104.239 114.006,104.239 114.006,105.758 108.299,105.758 108.299,92.436 109.96,92.436 	
		"/>
	<rect x="117.521" y="92.435" fill="#F066A6" width="1.661" height="13.323"/>
	<polygon fill="#F066A6" points="127.732,105.758 126.071,105.758 126.071,93.955 122.908,93.955 122.908,92.435 130.895,92.435 
		130.895,93.955 127.732,93.955 	"/>
	<polygon fill="#F066A6" points="138.261,105.758 136.6,105.758 136.6,93.955 133.437,93.955 133.437,92.435 141.424,92.435 
		141.424,93.955 138.261,93.955 	"/>
	<polygon fill="#F066A6" points="146.864,104.239 150.91,104.239 150.91,105.758 145.203,105.758 145.203,92.436 146.864,92.436 	
		"/>
	<polygon fill="#F066A6" points="154.478,92.435 161.633,92.435 161.633,93.954 156.139,93.954 156.139,97.683 161.475,97.683 
		161.475,99.202 156.139,99.202 156.139,104.238 161.633,104.238 161.633,105.758 154.478,105.758 	"/>
</g>
<g>
</g>
<g>
</g>
<g>
</g>
<g>
</g>
<g>
</g>
<g>
</g>
<g>
</g>
<g>
</g>
<g>
</g>
<g>
</g>
<g>
</g>
<g>
</g>
<g>
</g>
<g>
</g>
<g>
</g>
</svg>
