<?xml version="1.0" encoding="iso-8859-1"?>
<!-- Generator: Adobe Illustrator 16.0.0, SVG Export Plug-In . SVG Version: 6.00 Build 0)  -->
<!DOCTYPE svg PUBLIC "-//W3C//DTD SVG 1.1//EN" "http://www.w3.org/Graphics/SVG/1.1/DTD/svg11.dtd">
<svg version="1.1" id="Layer_1" xmlns="http://www.w3.org/2000/svg" xmlns:xlink="http://www.w3.org/1999/xlink" x="0px" y="0px"
	 width="16.001px" height="9.999px" viewBox="0 0 16.001 9.999" style="enable-background:new 0 0 16.001 9.999;"
	 xml:space="preserve">
<g id="Activity_1_x2C__Graph_4">
	<path d="M6,9.999c-0.312,0-0.61-0.146-0.8-0.4L3.048,6.729L1.832,8.554C1.525,9.013,0.904,9.136,0.445,8.831
		c-0.459-0.307-0.584-0.927-0.277-1.387l2-3c0.18-0.271,0.48-0.436,0.805-0.445C3.3,4.004,3.605,4.139,3.8,4.399l2.029,2.705
		l2.276-4.553c0.155-0.31,0.459-0.518,0.805-0.549C9.258,1.968,9.592,2.121,9.8,2.399l2.029,2.705l2.276-4.553
		c0.247-0.493,0.847-0.692,1.342-0.447c0.494,0.247,0.694,0.848,0.447,1.342l-3,6c-0.155,0.31-0.459,0.518-0.805,0.549
		c-0.348,0.03-0.682-0.118-0.89-0.396L9.171,4.894L6.895,9.446C6.739,9.756,6.436,9.964,6.09,9.995C6.06,9.998,6.029,9.999,6,9.999z
		"/>
</g>
<g>
</g>
<g>
</g>
<g>
</g>
<g>
</g>
<g>
</g>
<g>
</g>
<g>
</g>
<g>
</g>
<g>
</g>
<g>
</g>
<g>
</g>
<g>
</g>
<g>
</g>
<g>
</g>
<g>
</g>
</svg>
