<?xml version="1.0" encoding="iso-8859-1"?>
<!-- Generator: Adobe Illustrator 16.0.0, SVG Export Plug-In . SVG Version: 6.00 Build 0)  -->
<!DOCTYPE svg PUBLIC "-//W3C//DTD SVG 1.1//EN" "http://www.w3.org/Graphics/SVG/1.1/DTD/svg11.dtd">
<svg version="1.1" id="Layer_1" xmlns="http://www.w3.org/2000/svg" xmlns:xlink="http://www.w3.org/1999/xlink" x="0px" y="0px"
	 width="16px" height="16px" viewBox="0 0 16 16" style="enable-background:new 0 0 16 16;" xml:space="preserve">
<g id="Add_to_Folder_1">
	<path style="fill-rule:evenodd;clip-rule:evenodd;" d="M15,7H7V6.1C7,5.55,6.65,5,6.1,5H2V2h3v1.5C5,3.776,5.324,4,5.6,4H8.4
		C8.676,4,9,3.776,9,3.5v-1C9,2.224,8.676,2,8.4,2H7V1.1C7,0.55,6.65,0,6.1,0H1C0.45,0,0,0.55,0,1.1v5V12v3.2C0,15.75,0.45,16,1,16
		h14c0.55,0,1-0.25,1-0.8V8.1C16,7.548,15.553,7,15,7z M14,12v2H2v-2V7h3v1.6C5,8.876,5.324,9,5.6,9h0.5h0.5h5.9H14V12z"/>
	<path style="fill-rule:evenodd;clip-rule:evenodd;" d="M15.5,2H14V0.5C14,0.224,13.776,0,13.5,0h-1C12.224,0,12,0.224,12,0.5V2
		h-1.5C10.224,2,10,2.224,10,2.5v1C10,3.776,10.224,4,10.5,4H12v1.5C12,5.776,12.224,6,12.5,6h1C13.776,6,14,5.776,14,5.5V4h1.5
		C15.776,4,16,3.776,16,3.5v-1C16,2.224,15.776,2,15.5,2z"/>
</g>
<g>
</g>
<g>
</g>
<g>
</g>
<g>
</g>
<g>
</g>
<g>
</g>
<g>
</g>
<g>
</g>
<g>
</g>
<g>
</g>
<g>
</g>
<g>
</g>
<g>
</g>
<g>
</g>
<g>
</g>
</svg>
