<?xml version="1.0" encoding="iso-8859-1"?>
<!-- Generator: Adobe Illustrator 16.0.0, SVG Export Plug-In . SVG Version: 6.00 Build 0)  -->
<!DOCTYPE svg PUBLIC "-//W3C//DTD SVG 1.1//EN" "http://www.w3.org/Graphics/SVG/1.1/DTD/svg11.dtd">
<svg version="1.1" id="Layer_1" xmlns="http://www.w3.org/2000/svg" xmlns:xlink="http://www.w3.org/1999/xlink" x="0px" y="0px"
	 width="14px" height="16px" viewBox="0 0 14 16" style="enable-background:new 0 0 14 16;" xml:space="preserve">
<g id="Add_to_Clipboard_2">
	<path style="fill-rule:evenodd;clip-rule:evenodd;" d="M13,1h-3c0-0.276-0.447-1-1-1H5C4.447,0,4,0.724,4,1H1C0.447,1,0,1.447,0,2
		v13c0,0.553,0.447,1,1,1h12c0.553,0,1-0.447,1-1V2C14,1.447,13.553,1,13,1z M6,2h2v1H6V2z M12,14H2V3h2v1c0,0.553,0.447,1,1,1h4
		c0.553,0,1-0.447,1-1V3h2V14z"/>
	<path style="fill-rule:evenodd;clip-rule:evenodd;" d="M6.678,12.822c0.179,0.235,0.468,0.238,0.646,0.004L9.911,9.5
		C10.09,9.264,9.993,9,9.696,9H8V6.501C8,6.225,7.777,6,7.501,6h-1C6.225,6,6,6.225,6,6.501V9H4.306C4.009,9,3.912,9.265,4.091,9.5
		L6.678,12.822z"/>
</g>
<g>
</g>
<g>
</g>
<g>
</g>
<g>
</g>
<g>
</g>
<g>
</g>
<g>
</g>
<g>
</g>
<g>
</g>
<g>
</g>
<g>
</g>
<g>
</g>
<g>
</g>
<g>
</g>
<g>
</g>
</svg>
