<?xml version="1.0" encoding="iso-8859-1"?>
<!-- Generator: Adobe Illustrator 16.0.0, SVG Export Plug-In . SVG Version: 6.00 Build 0)  -->
<!DOCTYPE svg PUBLIC "-//W3C//DTD SVG 1.1//EN" "http://www.w3.org/Graphics/SVG/1.1/DTD/svg11.dtd">
<svg version="1.1" id="Layer_1" xmlns="http://www.w3.org/2000/svg" xmlns:xlink="http://www.w3.org/1999/xlink" x="0px" y="0px"
	 width="16px" height="16px" viewBox="0 0 16 16" style="enable-background:new 0 0 16 16;" xml:space="preserve">
<g id="Add_Window_1">
	<path style="fill-rule:evenodd;clip-rule:evenodd;" d="M15,0H5C4.447,0,4,0.447,4,1v3H1C0.447,4,0,4.447,0,5v10
		c0,0.553,0.447,1,1,1h10c0.553,0,1-0.447,1-1v-3h3c0.553,0,1-0.447,1-1V1C16,0.447,15.553,0,15,0z M10,14H2V6h8V14z M14,10h-2V5
		c0-0.553-0.447-1-1-1H6V2h8V10z"/>
	<path style="fill-rule:evenodd;clip-rule:evenodd;" d="M3.5,11H5v1.5C5,12.776,5.224,13,5.5,13h1C6.776,13,7,12.776,7,12.5V11h1.5
		C8.776,11,9,10.776,9,10.5v-1C9,9.224,8.776,9,8.5,9H7V7.5C7,7.224,6.776,7,6.5,7h-1C5.224,7,5,7.224,5,7.5V9H3.5
		C3.224,9,3,9.224,3,9.5v1C3,10.776,3.224,11,3.5,11z"/>
</g>
<g>
</g>
<g>
</g>
<g>
</g>
<g>
</g>
<g>
</g>
<g>
</g>
<g>
</g>
<g>
</g>
<g>
</g>
<g>
</g>
<g>
</g>
<g>
</g>
<g>
</g>
<g>
</g>
<g>
</g>
</svg>
