<?xml version="1.0" encoding="iso-8859-1"?>
<!-- Generator: Adobe Illustrator 16.0.0, SVG Export Plug-In . SVG Version: 6.00 Build 0)  -->
<!DOCTYPE svg PUBLIC "-//W3C//DTD SVG 1.1//EN" "http://www.w3.org/Graphics/SVG/1.1/DTD/svg11.dtd">
<svg version="1.1" id="Layer_1" xmlns="http://www.w3.org/2000/svg" xmlns:xlink="http://www.w3.org/1999/xlink" x="0px" y="0px"
	 width="15.699px" height="15.699px" viewBox="0 0 15.699 15.699" style="enable-background:new 0 0 15.699 15.699;"
	 xml:space="preserve">
<path id="Aim_1_x2C__Crosshairs_1" d="M7.85,0C3.521,0,0,3.521,0,7.85s3.521,7.85,7.85,7.85s7.85-3.521,7.85-7.85S12.178,0,7.85,0z
	 M8.837,13.913c0.001-0.022,0.013-0.041,0.013-0.063v-2c0-0.553-0.447-1-1-1s-1,0.447-1,1v2c0,0.022,0.012,0.041,0.013,0.063
	c-2.6-0.423-4.653-2.477-5.076-5.076C1.809,8.838,1.827,8.85,1.85,8.85h2c0.553,0,1-0.447,1-1s-0.447-1-1-1h-2
	c-0.022,0-0.041,0.012-0.063,0.013c0.423-2.6,2.477-4.653,5.076-5.076C6.861,1.809,6.85,1.827,6.85,1.85v2c0,0.553,0.447,1,1,1
	s1-0.447,1-1v-2c0-0.022-0.012-0.041-0.013-0.063c2.6,0.423,4.653,2.477,5.076,5.076C13.891,6.861,13.872,6.85,13.85,6.85h-2
	c-0.553,0-1,0.447-1,1s0.447,1,1,1h2c0.022,0,0.041-0.012,0.063-0.013C13.49,11.437,11.437,13.49,8.837,13.913z"/>
<g>
</g>
<g>
</g>
<g>
</g>
<g>
</g>
<g>
</g>
<g>
</g>
<g>
</g>
<g>
</g>
<g>
</g>
<g>
</g>
<g>
</g>
<g>
</g>
<g>
</g>
<g>
</g>
<g>
</g>
</svg>
