<?xml version="1.0" encoding="iso-8859-1"?>
<!-- Generator: Adobe Illustrator 16.0.0, SVG Export Plug-In . SVG Version: 6.00 Build 0)  -->
<!DOCTYPE svg PUBLIC "-//W3C//DTD SVG 1.1//EN" "http://www.w3.org/Graphics/SVG/1.1/DTD/svg11.dtd">
<svg version="1.1" id="Layer_1" xmlns="http://www.w3.org/2000/svg" xmlns:xlink="http://www.w3.org/1999/xlink" x="0px" y="0px"
	 width="16px" height="16px" viewBox="0 0 16 16" style="enable-background:new 0 0 16 16;" xml:space="preserve">
<g id="Align_Center_1">
	<path d="M15,0H1C0.447,0,0,0.447,0,1v14c0,0.553,0.447,1,1,1h14c0.553,0,1-0.447,1-1V1C16,0.447,15.553,0,15,0z M14,14H2V2h12V14z"
		/>
	<path d="M10.5,5h-5C5.224,5,5,5.224,5,5.5v1C5,6.776,5.224,7,5.5,7h5C10.776,7,11,6.776,11,6.5v-1C11,5.224,10.776,5,10.5,5z"/>
	<path d="M6.5,11h3c0.276,0,0.5-0.224,0.5-0.5v-1C10,9.224,9.776,9,9.5,9h-3C6.224,9,6,9.224,6,9.5v1C6,10.776,6.224,11,6.5,11z"/>
</g>
<g>
</g>
<g>
</g>
<g>
</g>
<g>
</g>
<g>
</g>
<g>
</g>
<g>
</g>
<g>
</g>
<g>
</g>
<g>
</g>
<g>
</g>
<g>
</g>
<g>
</g>
<g>
</g>
<g>
</g>
</svg>
