<?xml version="1.0" encoding="iso-8859-1"?>
<!-- Generator: Adobe Illustrator 16.0.0, SVG Export Plug-In . SVG Version: 6.00 Build 0)  -->
<!DOCTYPE svg PUBLIC "-//W3C//DTD SVG 1.1//EN" "http://www.w3.org/Graphics/SVG/1.1/DTD/svg11.dtd">
<svg version="1.1" id="Layer_1" xmlns="http://www.w3.org/2000/svg" xmlns:xlink="http://www.w3.org/1999/xlink" x="0px" y="0px"
	 width="14px" height="16px" viewBox="0 0 14 16" style="enable-background:new 0 0 14 16;" xml:space="preserve">
<g id="Article_1">
	<path d="M13,0H1C0.447,0,0,0.447,0,1v14c0,0.553,0.447,1,1,1h12c0.553,0,1-0.447,1-1V1C14,0.447,13.553,0,13,0z M12,14H9H5H3H2V2
		h10V14z"/>
	<path d="M3.5,5h5C8.776,5,9,4.776,9,4.5v-1C9,3.224,8.776,3,8.5,3h-5C3.224,3,3,3.224,3,3.5v1C3,4.776,3.224,5,3.5,5z"/>
	<path d="M3.5,8h7C10.776,8,11,7.776,11,7.5v-1C11,6.224,10.776,6,10.5,6h-7C3.224,6,3,6.224,3,6.5v1C3,7.776,3.224,8,3.5,8z"/>
	<path d="M3.5,11h5C8.776,11,9,10.776,9,10.5v-1C9,9.224,8.776,9,8.5,9h-5C3.224,9,3,9.224,3,9.5v1C3,10.776,3.224,11,3.5,11z"/>
</g>
<g>
</g>
<g>
</g>
<g>
</g>
<g>
</g>
<g>
</g>
<g>
</g>
<g>
</g>
<g>
</g>
<g>
</g>
<g>
</g>
<g>
</g>
<g>
</g>
<g>
</g>
<g>
</g>
<g>
</g>
</svg>
