<?xml version="1.0" encoding="iso-8859-1"?>
<!-- Generator: Adobe Illustrator 16.0.0, SVG Export Plug-In . SVG Version: 6.00 Build 0)  -->
<!DOCTYPE svg PUBLIC "-//W3C//DTD SVG 1.1//EN" "http://www.w3.org/Graphics/SVG/1.1/DTD/svg11.dtd">
<svg version="1.1" id="Layer_1" xmlns="http://www.w3.org/2000/svg" xmlns:xlink="http://www.w3.org/1999/xlink" x="0px" y="0px"
	 width="14px" height="16px" viewBox="0 0 14 16" style="enable-background:new 0 0 14 16;" xml:space="preserve">
<g id="Article_3">
	<path d="M13,0H1C0.447,0,0,0.447,0,1v14c0,0.553,0.447,1,1,1h12c0.553,0,1-0.447,1-1V1C14,0.447,13.553,0,13,0z M12,14H2V2h10V14z"
		/>
	<path d="M3.5,10h7c0.276,0,0.5-0.224,0.5-0.5v-1C11,8.224,10.776,8,10.5,8h-7C3.224,8,3,8.224,3,8.5v1C3,9.776,3.224,10,3.5,10z"/>
	<path d="M3.5,13h7c0.276,0,0.5-0.224,0.5-0.5v-1c0-0.276-0.224-0.5-0.5-0.5h-7C3.224,11,3,11.224,3,11.5v1
		C3,12.776,3.224,13,3.5,13z"/>
	<path d="M3.5,7h7C10.776,7,11,6.776,11,6.5v-3C11,3.224,10.776,3,10.5,3h-7C3.224,3,3,3.224,3,3.5v3C3,6.776,3.224,7,3.5,7z"/>
</g>
<g>
</g>
<g>
</g>
<g>
</g>
<g>
</g>
<g>
</g>
<g>
</g>
<g>
</g>
<g>
</g>
<g>
</g>
<g>
</g>
<g>
</g>
<g>
</g>
<g>
</g>
<g>
</g>
<g>
</g>
</svg>
