<?xml version="1.0" encoding="iso-8859-1"?>
<!-- Generator: Adobe Illustrator 16.0.0, SVG Export Plug-In . SVG Version: 6.00 Build 0)  -->
<!DOCTYPE svg PUBLIC "-//W3C//DTD SVG 1.1//EN" "http://www.w3.org/Graphics/SVG/1.1/DTD/svg11.dtd">
<svg version="1.1" id="Layer_1" xmlns="http://www.w3.org/2000/svg" xmlns:xlink="http://www.w3.org/1999/xlink" x="0px" y="0px"
	 width="12.397px" height="14px" viewBox="0 0 12.397 14" style="enable-background:new 0 0 12.397 14;" xml:space="preserve">
<path id="Asterisk_1" d="M9.066,7.498c-0.479-0.275-0.479-0.723,0-1l2.827-1.633c0.479-0.277,0.643-0.889,0.366-1.367
	s-0.888-0.643-1.366-0.365L8.065,4.767C7.587,5.043,7.199,4.819,7.199,4.268V1c0-0.553-0.447-1-1-1s-1,0.447-1,1v3.27
	c0,0.552-0.388,0.775-0.866,0.5L1.499,3.137C1.021,2.86,0.409,3.025,0.134,3.504s-0.111,1.09,0.367,1.365l2.831,1.633
	c0.479,0.275,0.479,0.723,0,1L0.503,9.137c-0.479,0.275-0.643,0.888-0.366,1.365c0.277,0.479,0.889,0.643,1.367,0.365l2.829-1.635
	c0.479-0.275,0.866-0.053,0.866,0.5V13c0,0.553,0.447,1,1,1s1-0.447,1-1V9.73c0-0.553,0.388-0.776,0.866-0.5l2.832,1.631
	c0.479,0.276,1.09,0.112,1.366-0.366c0.275-0.479,0.111-1.09-0.367-1.366L9.066,7.498z"/>
<g>
</g>
<g>
</g>
<g>
</g>
<g>
</g>
<g>
</g>
<g>
</g>
<g>
</g>
<g>
</g>
<g>
</g>
<g>
</g>
<g>
</g>
<g>
</g>
<g>
</g>
<g>
</g>
<g>
</g>
</svg>
