<?xml version="1.0" encoding="iso-8859-1"?>
<!-- Generator: Adobe Illustrator 16.0.0, SVG Export Plug-In . SVG Version: 6.00 Build 0)  -->
<!DOCTYPE svg PUBLIC "-//W3C//DTD SVG 1.1//EN" "http://www.w3.org/Graphics/SVG/1.1/DTD/svg11.dtd">
<svg version="1.1" id="Layer_1" xmlns="http://www.w3.org/2000/svg" xmlns:xlink="http://www.w3.org/1999/xlink" x="0px" y="0px"
	 width="16px" height="15px" viewBox="0 0 16 15" style="enable-background:new 0 0 16 15;" xml:space="preserve">
<path id="Basket_2" d="M15.788,5.385C15.599,5.142,15.309,5,15,5h-1.382l-1.641-3.28C11.988,1.647,12,1.575,12,1.5
	C12,0.672,11.328,0,10.5,0S9,0.672,9,1.5c0,0.785,0.606,1.423,1.376,1.487L11.382,5H11H5H4.618l1.006-2.013
	C6.394,2.923,7,2.285,7,1.5C7,0.672,6.328,0,5.5,0S4,0.672,4,1.5c0,0.075,0.012,0.147,0.022,0.22L2.382,5H1
	C0.691,5,0.401,5.142,0.212,5.385C0.022,5.627-0.045,5.943,0.029,6.242l2,8C2.141,14.688,2.541,15,3,15h10
	c0.459,0,0.859-0.312,0.971-0.758l2-8C16.045,5.943,15.978,5.627,15.788,5.385z M5,13H3.781l-0.5-2H5V13z M5,9H2.781l-0.5-2H5V9z
	 M9,13H7v-2h2V13z M9,9H7V7h2V9z M12.219,13H11v-2h1.719L12.219,13z M13.219,9H11V7h2.719L13.219,9z"/>
<g>
</g>
<g>
</g>
<g>
</g>
<g>
</g>
<g>
</g>
<g>
</g>
<g>
</g>
<g>
</g>
<g>
</g>
<g>
</g>
<g>
</g>
<g>
</g>
<g>
</g>
<g>
</g>
<g>
</g>
</svg>
