<?xml version="1.0" encoding="iso-8859-1"?>
<!-- Generator: Adobe Illustrator 16.0.0, SVG Export Plug-In . SVG Version: 6.00 Build 0)  -->
<!DOCTYPE svg PUBLIC "-//W3C//DTD SVG 1.1//EN" "http://www.w3.org/Graphics/SVG/1.1/DTD/svg11.dtd">
<svg version="1.1" id="Layer_1" xmlns="http://www.w3.org/2000/svg" xmlns:xlink="http://www.w3.org/1999/xlink" x="0px" y="0px"
	 width="16px" height="16px" viewBox="0 0 16 16" style="enable-background:new 0 0 16 16;" xml:space="preserve">
<path id="Bell_1_x2C__Notification_1" style="fill-rule:evenodd;clip-rule:evenodd;" d="M15,9.305c0-3.322-2.125-6.118-5.03-7.006
	C9.984,2.2,10,2.102,10,2c0-1.105-0.896-2-2-2S6,0.895,6,2c0,0.102,0.016,0.2,0.03,0.299C3.125,3.187,1,5.982,1,9.305V12H0.5
	C0.224,12,0,12.224,0,12.5v1C0,13.776,0.224,14,0.5,14H6c0,1.105,0.896,2,2,2s2-0.895,2-2h5.5c0.276,0,0.5-0.224,0.5-0.5v-1
	c0-0.276-0.224-0.5-0.5-0.5H15V9.305z M3,12V9.305C3,6.379,5.243,4,8,4s5,2.379,5,5.305V12H3z"/>
<g>
</g>
<g>
</g>
<g>
</g>
<g>
</g>
<g>
</g>
<g>
</g>
<g>
</g>
<g>
</g>
<g>
</g>
<g>
</g>
<g>
</g>
<g>
</g>
<g>
</g>
<g>
</g>
<g>
</g>
</svg>
