<?xml version="1.0" encoding="iso-8859-1"?>
<!-- Generator: Adobe Illustrator 16.0.0, SVG Export Plug-In . SVG Version: 6.00 Build 0)  -->
<!DOCTYPE svg PUBLIC "-//W3C//DTD SVG 1.1//EN" "http://www.w3.org/Graphics/SVG/1.1/DTD/svg11.dtd">
<svg version="1.1" id="Layer_1" xmlns="http://www.w3.org/2000/svg" xmlns:xlink="http://www.w3.org/1999/xlink" x="0px" y="0px"
	 width="16px" height="16px" viewBox="0 0 16 16" style="enable-background:new 0 0 16 16;" xml:space="preserve">
<path id="Bell_2_x2C__Notification_2" style="fill-rule:evenodd;clip-rule:evenodd;" d="M15,9.305c0-3.311-2.11-6.1-5-6.998V2
	c0-1.105-0.896-2-2-2S6,0.895,6,2v0.307C3.11,3.205,1,5.994,1,9.305V11H0.5C0.224,11,0,11.224,0,11.5v1C0,12.776,0.224,13,0.5,13H5
	c0,1.656,1.343,3,3,3s3-1.344,3-3h4.5c0.276,0,0.5-0.224,0.5-0.5v-1c0-0.276-0.224-0.5-0.5-0.5H15V9.305z M8.5,14h-1
	C7.224,14,7,13.776,7,13.5V13h2v0.5C9,13.776,8.776,14,8.5,14z M3,11V9.305C3,6.379,5.243,4,8,4s5,2.379,5,5.305V11H3z"/>
<g>
</g>
<g>
</g>
<g>
</g>
<g>
</g>
<g>
</g>
<g>
</g>
<g>
</g>
<g>
</g>
<g>
</g>
<g>
</g>
<g>
</g>
<g>
</g>
<g>
</g>
<g>
</g>
<g>
</g>
</svg>
