<?xml version="1.0" encoding="iso-8859-1"?>
<!-- Generator: Adobe Illustrator 16.0.0, SVG Export Plug-In . SVG Version: 6.00 Build 0)  -->
<!DOCTYPE svg PUBLIC "-//W3C//DTD SVG 1.1//EN" "http://www.w3.org/Graphics/SVG/1.1/DTD/svg11.dtd">
<svg version="1.1" id="Layer_1" xmlns="http://www.w3.org/2000/svg" xmlns:xlink="http://www.w3.org/1999/xlink" x="0px" y="0px"
	 width="16px" height="16px" viewBox="0 0 16 16" style="enable-background:new 0 0 16 16;" xml:space="preserve">
<path id="Bell_3_x2C__Service_1" style="fill-rule:evenodd;clip-rule:evenodd;" d="M9,3.069V2h0.5C9.776,2,10,1.776,10,1.5V1
	c0-0.553-0.447-1-1-1H7C6.447,0,6,0.447,6,1v0.5C6,1.776,6.224,2,6.5,2H7v1.069C3.055,3.562,0,5.921,0,10v1c0,0.553,0.447,1,1,1h6v2
	H1c-0.553,0-1,0.447-1,1v0.5C0,15.776,0.224,16,0.5,16h15c0.276,0,0.5-0.224,0.5-0.5V15c0-0.553-0.447-1-1-1H9v-2h6
	c0.553,0,1-0.447,1-1v-1C16,5.921,12.945,3.562,9,3.069z M8,5c3.309,0,6,1.691,6,5H2C2,6.691,4.691,5,8,5z"/>
<g>
</g>
<g>
</g>
<g>
</g>
<g>
</g>
<g>
</g>
<g>
</g>
<g>
</g>
<g>
</g>
<g>
</g>
<g>
</g>
<g>
</g>
<g>
</g>
<g>
</g>
<g>
</g>
<g>
</g>
</svg>
