<?xml version="1.0" encoding="iso-8859-1"?>
<!-- Generator: Adobe Illustrator 16.0.0, SVG Export Plug-In . SVG Version: 6.00 Build 0)  -->
<!DOCTYPE svg PUBLIC "-//W3C//DTD SVG 1.1//EN" "http://www.w3.org/Graphics/SVG/1.1/DTD/svg11.dtd">
<svg version="1.1" id="Layer_1" xmlns="http://www.w3.org/2000/svg" xmlns:xlink="http://www.w3.org/1999/xlink" x="0px" y="0px"
	 width="12px" height="16px" viewBox="0 0 12 16" style="enable-background:new 0 0 12 16;" xml:space="preserve">
<g id="Bookmark_3">
	<path d="M10.537,0H1.575C0.619,0,0,0.674,0,1.233v14.192c0,0.561,0.43,0.741,0.96,0.406L6,12.639l5.04,3.193
		c0.53,0.335,0.96,0.154,0.96-0.406V1.233C12,0.491,11.513,0,10.537,0z M6.43,10.256c-0.237-0.142-0.622-0.142-0.859,0L2,12.385V2h8
		v10.385L6.43,10.256z"/>
	<path d="M4.639,6.73L4.076,8.448c-0.042,0.13-0.008,0.205,0.078,0.205c0.033,0,0.073-0.011,0.119-0.034L6,7.751L7.747,8.62
		c0.046,0.024,0.087,0.034,0.119,0.034c0.086,0,0.12-0.076,0.076-0.205L7.361,6.73l1.488-1.425c0.117-0.146,0.061-0.267-0.127-0.267
		L7.021,5.03L6.175,3.621C6.127,3.541,6.063,3.5,6,3.5S5.873,3.541,5.825,3.621L4.979,5.03L3.279,5.039
		c-0.188,0-0.245,0.12-0.127,0.267L4.639,6.73z"/>
</g>
<g>
</g>
<g>
</g>
<g>
</g>
<g>
</g>
<g>
</g>
<g>
</g>
<g>
</g>
<g>
</g>
<g>
</g>
<g>
</g>
<g>
</g>
<g>
</g>
<g>
</g>
<g>
</g>
<g>
</g>
</svg>
