<?xml version="1.0" encoding="iso-8859-1"?>
<!-- Generator: Adobe Illustrator 16.0.0, SVG Export Plug-In . SVG Version: 6.00 Build 0)  -->
<!DOCTYPE svg PUBLIC "-//W3C//DTD SVG 1.1//EN" "http://www.w3.org/Graphics/SVG/1.1/DTD/svg11.dtd">
<svg version="1.1" id="Layer_1" xmlns="http://www.w3.org/2000/svg" xmlns:xlink="http://www.w3.org/1999/xlink" x="0px" y="0px"
	 width="6px" height="16px" viewBox="0 0 6 16" style="enable-background:new 0 0 6 16;" xml:space="preserve">
<path id="Call_2_x2C__Phone_2" d="M6,13c0-0.553-0.447-1-1-1H4c-0.552,0-1-0.448-1-1V5c0-0.552,0.447-1,1-1h1c0.552,0,1-0.448,1-1V1
	c0-0.552-0.447-1-1-1H2.499c-0.276,0-0.613,0.193-0.74,0.439C0.638,2.598,0,5.447,0,8c0,2.552,0.638,5.402,1.76,7.561
	C1.887,15.806,2.224,16,2.5,16H5c0.553,0,1-0.447,1-1V13z"/>
<g>
</g>
<g>
</g>
<g>
</g>
<g>
</g>
<g>
</g>
<g>
</g>
<g>
</g>
<g>
</g>
<g>
</g>
<g>
</g>
<g>
</g>
<g>
</g>
<g>
</g>
<g>
</g>
<g>
</g>
</svg>
