<?xml version="1.0" encoding="iso-8859-1"?>
<!-- Generator: Adobe Illustrator 16.0.0, SVG Export Plug-In . SVG Version: 6.00 Build 0)  -->
<!DOCTYPE svg PUBLIC "-//W3C//DTD SVG 1.1//EN" "http://www.w3.org/Graphics/SVG/1.1/DTD/svg11.dtd">
<svg version="1.1" id="Layer_1" xmlns="http://www.w3.org/2000/svg" xmlns:xlink="http://www.w3.org/1999/xlink" x="0px" y="0px"
	 width="16px" height="15px" viewBox="0 0 16 15" style="enable-background:new 0 0 16 15;" xml:space="preserve">
<g id="Call_4_x2C__Phone_4">
	<path d="M14,7c0,0,0,0-1,0s-1-1-1-1V4c0-0.553-0.447-1-1-1H5C4.447,3,4,3.448,4,4c0,0.648,0,1.467,0,2c0,1-1,1-1,1H2c0,0-1,0-1,1v6
		c0,0.553,0.447,1,1,1h12c0.553,0,1-0.447,1-1c0-1.279,0-5.4,0-6C15,7.125,14,7,14,7z M13,13H3V9c1.454,0,3-1.051,3-3V5h4v1
		c0,1.454,1.052,3,3,3V13z"/>
	<circle cx="8" cy="10" r="2"/>
	<path d="M0.865,1.964C0.378,2.225,0,2.912,0,3.465V5c0,0.553,0.447,1,1,1h1c0.553,0,1-0.447,1-1V3c0-0.553,0.448-1,1-1h8
		c0.552,0,1,0.447,1,1v2c0,0.553,0.447,1,1,1h1c0.553,0,1-0.447,1-1V3.465c0-0.553-0.378-1.24-0.865-1.501
		C13.786,1.243,11.021,0,8,0S2.214,1.243,0.865,1.964z"/>
</g>
<g>
</g>
<g>
</g>
<g>
</g>
<g>
</g>
<g>
</g>
<g>
</g>
<g>
</g>
<g>
</g>
<g>
</g>
<g>
</g>
<g>
</g>
<g>
</g>
<g>
</g>
<g>
</g>
<g>
</g>
</svg>
