<?xml version="1.0" encoding="iso-8859-1"?>
<!-- Generator: Adobe Illustrator 16.0.0, SVG Export Plug-In . SVG Version: 6.00 Build 0)  -->
<!DOCTYPE svg PUBLIC "-//W3C//DTD SVG 1.1//EN" "http://www.w3.org/Graphics/SVG/1.1/DTD/svg11.dtd">
<svg version="1.1" id="Layer_1" xmlns="http://www.w3.org/2000/svg" xmlns:xlink="http://www.w3.org/1999/xlink" x="0px" y="0px"
	 width="16px" height="17px" viewBox="0 0 16 17" style="enable-background:new 0 0 16 17;" xml:space="preserve">
<g id="Camera_2">
	<path d="M15.166,3H12V1c0-0.553-0.281-1-0.834-1h-6C4.613,0,4,0.447,4,1v2H1.166C0.613,3,0,3.447,0,4v12c0,0.553,0.613,1,1.166,1
		h14C15.719,17,16,16.553,16,16V4C16,3.447,15.719,3,15.166,3z M6,2h4v1H6V2z M14,15H2V5h12V15z M8,14c2.209,0,4-1.791,4-4
		s-1.791-4-4-4s-4,1.791-4,4S5.791,14,8,14z M8,8c1.103,0,2,0.896,2,2s-0.897,2-2,2s-2-0.896-2-2S6.897,8,8,8z"/>
</g>
<g>
</g>
<g>
</g>
<g>
</g>
<g>
</g>
<g>
</g>
<g>
</g>
<g>
</g>
<g>
</g>
<g>
</g>
<g>
</g>
<g>
</g>
<g>
</g>
<g>
</g>
<g>
</g>
<g>
</g>
</svg>
