<?xml version="1.0" encoding="iso-8859-1"?>
<!-- Generator: Adobe Illustrator 16.0.0, SVG Export Plug-In . SVG Version: 6.00 Build 0)  -->
<!DOCTYPE svg PUBLIC "-//W3C//DTD SVG 1.1//EN" "http://www.w3.org/Graphics/SVG/1.1/DTD/svg11.dtd">
<svg version="1.1" id="Layer_1" xmlns="http://www.w3.org/2000/svg" xmlns:xlink="http://www.w3.org/1999/xlink" x="0px" y="0px"
	 width="16px" height="15px" viewBox="0 0 16 15" style="enable-background:new 0 0 16 15;" xml:space="preserve">
<g id="Camera_1">
	<path d="M15,2h-2V1c0-0.553-0.447-1-1-1H4C3.447,0,3,0.447,3,1v1H1C0.447,2,0,2.447,0,3v11c0,0.553,0.447,1,1,1h14
		c0.553,0,1-0.447,1-1V3C16,2.447,15.553,2,15,2z M14,13H2V4h2c0.553,0,1-0.447,1-1V2h6v1c0,0.553,0.447,1,1,1h2V13z"/>
	<path d="M8,4C6.141,4,4.57,5.27,4.13,7C4.04,7.32,4,7.65,4,8s0.04,0.68,0.13,1c0.44,1.73,2.011,3,3.87,3s3.43-1.27,3.87-3
		C11.96,8.68,12,8.35,12,8s-0.04-0.68-0.13-1C11.43,5.27,9.859,4,8,4z M9.73,9C9.38,9.6,8.74,10,8,10S6.62,9.6,6.27,9
		C6.1,8.71,6,8.359,6,8s0.1-0.71,0.27-1C6.62,6.4,7.26,6,8,6s1.38,0.4,1.73,1C9.9,7.29,10,7.641,10,8S9.9,8.71,9.73,9z"/>
</g>
<g>
</g>
<g>
</g>
<g>
</g>
<g>
</g>
<g>
</g>
<g>
</g>
<g>
</g>
<g>
</g>
<g>
</g>
<g>
</g>
<g>
</g>
<g>
</g>
<g>
</g>
<g>
</g>
<g>
</g>
</svg>
