<?xml version="1.0" encoding="iso-8859-1"?>
<!-- Generator: Adobe Illustrator 16.0.0, SVG Export Plug-In . SVG Version: 6.00 Build 0)  -->
<!DOCTYPE svg PUBLIC "-//W3C//DTD SVG 1.1//EN" "http://www.w3.org/Graphics/SVG/1.1/DTD/svg11.dtd">
<svg version="1.1" id="Layer_1" xmlns="http://www.w3.org/2000/svg" xmlns:xlink="http://www.w3.org/1999/xlink" x="0px" y="0px"
	 width="16px" height="16px" viewBox="0 0 16 16" style="enable-background:new 0 0 16 16;" xml:space="preserve">
<g id="Cart_2_x2C__Shopping_Cart_2">
	<path style="fill-rule:evenodd;clip-rule:evenodd;" d="M15,9c0.553,0,1-0.447,1-1V1c0-0.55-0.45-1-1-1H4H3H1C0.448,0,0,0.447,0,1
		s0.448,1,1,1h1v5v2v3c0,0.55,0.45,1,1,1h1.5h9H15c0.55,0,1-0.45,1-1c0-0.583-0.447-1-1-1H4V9H15z M4,2h10v5H4V2z"/>
	<circle style="fill-rule:evenodd;clip-rule:evenodd;" cx="4.5" cy="14.5" r="1.5"/>
	<circle style="fill-rule:evenodd;clip-rule:evenodd;" cx="13.5" cy="14.5" r="1.5"/>
</g>
<g>
</g>
<g>
</g>
<g>
</g>
<g>
</g>
<g>
</g>
<g>
</g>
<g>
</g>
<g>
</g>
<g>
</g>
<g>
</g>
<g>
</g>
<g>
</g>
<g>
</g>
<g>
</g>
<g>
</g>
</svg>
