<?xml version="1.0" encoding="iso-8859-1"?>
<!-- Generator: Adobe Illustrator 16.0.0, SVG Export Plug-In . SVG Version: 6.00 Build 0)  -->
<!DOCTYPE svg PUBLIC "-//W3C//DTD SVG 1.1//EN" "http://www.w3.org/Graphics/SVG/1.1/DTD/svg11.dtd">
<svg version="1.1" id="Layer_1" xmlns="http://www.w3.org/2000/svg" xmlns:xlink="http://www.w3.org/1999/xlink" x="0px" y="0px"
	 width="16px" height="16px" viewBox="0 0 16 16" style="enable-background:new 0 0 16 16;" xml:space="preserve">
<g id="Chat_3">
	<path d="M1,4C0.447,4,0,4.447,0,5v8c0,0.553,0.447,1,1,1h3l2.623,1.725C6.854,15.877,7.265,16,7.541,16H9.5
		c0.276,0,0.5-0.224,0.5-0.5V14h1c0.553,0,1-0.447,1-1V5c0-0.553-0.447-1-1-1H1z M10,12H8v2l-3-2H2V6h8V12z"/>
	<path d="M5,0C4.447,0,4,0.447,4,1v2h2V2h7.5C13.776,2,14,2.224,14,2.5V8h-1v2h1h1c0.553,0,1-0.447,1-1V1c0-0.553-0.447-1-1-1H5z"/>
</g>
<g>
</g>
<g>
</g>
<g>
</g>
<g>
</g>
<g>
</g>
<g>
</g>
<g>
</g>
<g>
</g>
<g>
</g>
<g>
</g>
<g>
</g>
<g>
</g>
<g>
</g>
<g>
</g>
<g>
</g>
</svg>
