<?xml version="1.0" encoding="iso-8859-1"?>
<!-- Generator: Adobe Illustrator 16.0.0, SVG Export Plug-In . SVG Version: 6.00 Build 0)  -->
<!DOCTYPE svg PUBLIC "-//W3C//DTD SVG 1.1//EN" "http://www.w3.org/Graphics/SVG/1.1/DTD/svg11.dtd">
<svg version="1.1" id="Layer_1" xmlns="http://www.w3.org/2000/svg" xmlns:xlink="http://www.w3.org/1999/xlink" x="0px" y="0px"
	 width="14px" height="16px" viewBox="0 0 14 16" style="enable-background:new 0 0 14 16;" xml:space="preserve">
<g id="Clipboard_2a">
	<path style="fill-rule:evenodd;clip-rule:evenodd;" d="M3,6.5C3,6.776,3.224,7,3.5,7h7C10.776,7,11,6.776,11,6.5S10.776,6,10.5,6
		h-7C3.224,6,3,6.224,3,6.5z"/>
	<path style="fill-rule:evenodd;clip-rule:evenodd;" d="M3.5,9h5C8.776,9,9,8.776,9,8.5S8.776,8,8.5,8h-5C3.224,8,3,8.224,3,8.5
		S3.224,9,3.5,9z"/>
	<path style="fill-rule:evenodd;clip-rule:evenodd;" d="M10.5,10h-7C3.224,10,3,10.224,3,10.5S3.224,11,3.5,11h7
		c0.276,0,0.5-0.224,0.5-0.5S10.776,10,10.5,10z"/>
	<path style="fill-rule:evenodd;clip-rule:evenodd;" d="M8.5,12h-5C3.224,12,3,12.224,3,12.5S3.224,13,3.5,13h5
		C8.776,13,9,12.776,9,12.5S8.776,12,8.5,12z"/>
	<path style="fill-rule:evenodd;clip-rule:evenodd;" d="M13,1h-3c0-0.276-0.447-1-1-1H5C4.447,0,4,0.724,4,1H1C0.447,1,0,1.447,0,2
		v13c0,0.553,0.447,1,1,1h12c0.553,0,1-0.447,1-1V2C14,1.447,13.553,1,13,1z M6,2h2v1H6V2z M12,14H2V3h2v1c0,0.553,0.447,1,1,1h4
		c0.553,0,1-0.447,1-1V3h2V14z"/>
</g>
<g>
</g>
<g>
</g>
<g>
</g>
<g>
</g>
<g>
</g>
<g>
</g>
<g>
</g>
<g>
</g>
<g>
</g>
<g>
</g>
<g>
</g>
<g>
</g>
<g>
</g>
<g>
</g>
<g>
</g>
</svg>
