<?xml version="1.0" encoding="iso-8859-1"?>
<!-- Generator: Adobe Illustrator 16.0.0, SVG Export Plug-In . SVG Version: 6.00 Build 0)  -->
<!DOCTYPE svg PUBLIC "-//W3C//DTD SVG 1.1//EN" "http://www.w3.org/Graphics/SVG/1.1/DTD/svg11.dtd">
<svg version="1.1" id="Layer_1" xmlns="http://www.w3.org/2000/svg" xmlns:xlink="http://www.w3.org/1999/xlink" x="0px" y="0px"
	 width="14px" height="16px" viewBox="0 0 14 16" style="enable-background:new 0 0 14 16;" xml:space="preserve">
<path id="Clipboard_1_x2C__Copy_1" style="fill-rule:evenodd;clip-rule:evenodd;" d="M13,1h-3c0-0.276-0.447-1-1-1H5
	C4.447,0,4,0.724,4,1H1C0.447,1,0,1.447,0,2v13c0,0.553,0.447,1,1,1h12c0.553,0,1-0.447,1-1V2C14,1.447,13.553,1,13,1z M12,14H2V3h2
	c0,0.553,0.447,1,1,1h4c0.553,0,1-0.447,1-1h2V14z"/>
<g>
</g>
<g>
</g>
<g>
</g>
<g>
</g>
<g>
</g>
<g>
</g>
<g>
</g>
<g>
</g>
<g>
</g>
<g>
</g>
<g>
</g>
<g>
</g>
<g>
</g>
<g>
</g>
<g>
</g>
</svg>
