<?xml version="1.0" encoding="iso-8859-1"?>
<!-- Generator: Adobe Illustrator 16.0.0, SVG Export Plug-In . SVG Version: 6.00 Build 0)  -->
<!DOCTYPE svg PUBLIC "-//W3C//DTD SVG 1.1//EN" "http://www.w3.org/Graphics/SVG/1.1/DTD/svg11.dtd">
<svg version="1.1" id="Layer_1" xmlns="http://www.w3.org/2000/svg" xmlns:xlink="http://www.w3.org/1999/xlink" x="0px" y="0px"
	 width="14px" height="16px" viewBox="0 0 14 16" style="enable-background:new 0 0 14 16;" xml:space="preserve">
<g id="Clipboard_1a_x2C__Copy_2">
	<path d="M13,1h-3c0-0.276-0.447-1-1-1H5C4.447,0,4,0.724,4,1H1C0.447,1,0,1.447,0,2v13c0,0.553,0.447,1,1,1h12c0.553,0,1-0.447,1-1
		V2C14,1.447,13.553,1,13,1z M12,14H2V3h2c0,0.553,0.447,1,1,1h4c0.553,0,1-0.447,1-1h2V14z"/>
	<path d="M9.5,6h-5C4.224,6,4,6.224,4,6.5v1C4,7.776,4.224,8,4.5,8h5C9.776,8,10,7.776,10,7.5v-1C10,6.224,9.776,6,9.5,6z"/>
	<path d="M9.5,9h-5C4.224,9,4,9.224,4,9.5v1C4,10.776,4.224,11,4.5,11h5c0.276,0,0.5-0.224,0.5-0.5v-1C10,9.224,9.776,9,9.5,9z"/>
</g>
<g>
</g>
<g>
</g>
<g>
</g>
<g>
</g>
<g>
</g>
<g>
</g>
<g>
</g>
<g>
</g>
<g>
</g>
<g>
</g>
<g>
</g>
<g>
</g>
<g>
</g>
<g>
</g>
<g>
</g>
</svg>
