<?xml version="1.0" encoding="iso-8859-1"?>
<!-- Generator: Adobe Illustrator 16.0.0, SVG Export Plug-In . SVG Version: 6.00 Build 0)  -->
<!DOCTYPE svg PUBLIC "-//W3C//DTD SVG 1.1//EN" "http://www.w3.org/Graphics/SVG/1.1/DTD/svg11.dtd">
<svg version="1.1" id="Layer_1" xmlns="http://www.w3.org/2000/svg" xmlns:xlink="http://www.w3.org/1999/xlink" x="0px" y="0px"
	 width="16px" height="16px" viewBox="0 0 16 16" style="enable-background:new 0 0 16 16;" xml:space="preserve">
<g id="Close_Browser_2">
	<path style="fill-rule:evenodd;clip-rule:evenodd;" d="M15,0H1C0.45,0,0,0.45,0,1v14c0,0.55,0.45,1,1,1h14c0.55,0,1-0.45,1-1V1
		C16,0.45,15.55,0,15,0z M2,1.5C2,1.224,2.224,1,2.5,1h1C3.776,1,4,1.224,4,1.5v1C4,2.776,3.776,3,3.5,3h-1C2.224,3,2,2.776,2,2.5
		V1.5z M14,14H2V4h12V14z"/>
	<path style="fill-rule:evenodd;clip-rule:evenodd;" d="M5.149,11.141l0.707,0.707c0.195,0.195,0.512,0.195,0.707,0l1.434-1.434
		l1.439,1.439c0.195,0.195,0.512,0.195,0.707,0l0.707-0.707c0.195-0.195,0.195-0.512,0-0.707L9.411,9l1.439-1.439
		c0.195-0.195,0.195-0.512,0-0.707l-0.707-0.707c-0.195-0.195-0.512-0.195-0.707,0L7.997,7.586L6.563,6.152
		c-0.195-0.195-0.512-0.195-0.707,0L5.149,6.859c-0.195,0.195-0.195,0.512,0,0.707L6.583,9l-1.434,1.434
		C4.954,10.629,4.954,10.945,5.149,11.141z"/>
</g>
<g>
</g>
<g>
</g>
<g>
</g>
<g>
</g>
<g>
</g>
<g>
</g>
<g>
</g>
<g>
</g>
<g>
</g>
<g>
</g>
<g>
</g>
<g>
</g>
<g>
</g>
<g>
</g>
<g>
</g>
</svg>
