<?xml version="1.0" encoding="iso-8859-1"?>
<!-- Generator: Adobe Illustrator 16.0.0, SVG Export Plug-In . SVG Version: 6.00 Build 0)  -->
<!DOCTYPE svg PUBLIC "-//W3C//DTD SVG 1.1//EN" "http://www.w3.org/Graphics/SVG/1.1/DTD/svg11.dtd">
<svg version="1.1" id="Layer_1" xmlns="http://www.w3.org/2000/svg" xmlns:xlink="http://www.w3.org/1999/xlink" x="0px" y="0px"
	 width="17.98px" height="12.98px" viewBox="0 0 17.98 12.98" style="enable-background:new 0 0 17.98 12.98;" xml:space="preserve"
	>
<g id="Cloud_Upload_1">
	<path style="fill-rule:evenodd;clip-rule:evenodd;" d="M15,4.98C15,1.98,12.53,0,9.49,0C6.64,0,4,2,4,4.98
		c-1.1,0-2.1,0.45-2.82,1.18C0.45,6.881,0,7.881,0,8.99c0,2.2,1.79,3.99,4,3.99h2.5c0.276,0,0.5-0.224,0.5-0.5v-1
		c0-0.276-0.224-0.5-0.5-0.5H4c-1,0-2-0.891-2-1.99c0-1.109,0.9-2.01,2-2.01h1.5c0.276,0,0.5-0.224,0.5-0.5v-1.52
		c0-0.74,0.26-1.381,0.78-1.91C7.44,2.391,8.45,2,9.49,2C11.18,2,13,2.931,13,4.98v1.5c0,0.276,0.224,0.5,0.5,0.5H14c1,0,2,1,2,2
		s-0.91,2-2.01,2H11.5c-0.276,0-0.5,0.224-0.5,0.5v1c0,0.276,0.224,0.5,0.5,0.5H14c2.21-0.01,3.98-1.79,3.98-3.99
		C17.98,7.131,16.72,5.42,15,4.98z"/>
	<path style="fill-rule:evenodd;clip-rule:evenodd;" d="M11.91,8.48L9.323,5.158C9.145,4.924,8.855,4.92,8.677,5.154L6.09,8.48
		c-0.179,0.236-0.082,0.5,0.215,0.5H8v2.5c0,0.275,0.224,0.5,0.5,0.5h1c0.276,0,0.5-0.225,0.5-0.5v-2.5h1.695
		C11.992,8.98,12.089,8.716,11.91,8.48z"/>
</g>
<g>
</g>
<g>
</g>
<g>
</g>
<g>
</g>
<g>
</g>
<g>
</g>
<g>
</g>
<g>
</g>
<g>
</g>
<g>
</g>
<g>
</g>
<g>
</g>
<g>
</g>
<g>
</g>
<g>
</g>
</svg>
