<?xml version="1.0" encoding="iso-8859-1"?>
<!-- Generator: Adobe Illustrator 16.0.0, SVG Export Plug-In . SVG Version: 6.00 Build 0)  -->
<!DOCTYPE svg PUBLIC "-//W3C//DTD SVG 1.1//EN" "http://www.w3.org/Graphics/SVG/1.1/DTD/svg11.dtd">
<svg version="1.1" id="Layer_1" xmlns="http://www.w3.org/2000/svg" xmlns:xlink="http://www.w3.org/1999/xlink" x="0px" y="0px"
	 width="16px" height="12px" viewBox="0 0 16 12" style="enable-background:new 0 0 16 12;" xml:space="preserve">
<g id="Cloud_2">
	<path d="M10,12H4c-2.205,0-4-1.794-4-4s1.795-4,4-4c0.114,0,0.228,0.005,0.34,0.015C5.162,1.636,7.398,0,10,0c3.309,0,6,2.691,6,6
		S13.309,12,10,12z M2,8c0,1.103,0.896,2,2,2h6c2.205,0,4-1.794,4-4s-1.795-4-4-4C8.026,2,6.368,3.412,6.057,5.358L5.939,6.094
		C5.896,6.365,5.652,6.505,5.396,6.404L4.703,6.131C4.483,6.044,4.246,6,4,6C2.896,6,2,6.897,2,8z"/>
</g>
<g>
</g>
<g>
</g>
<g>
</g>
<g>
</g>
<g>
</g>
<g>
</g>
<g>
</g>
<g>
</g>
<g>
</g>
<g>
</g>
<g>
</g>
<g>
</g>
<g>
</g>
<g>
</g>
<g>
</g>
</svg>
