<?xml version="1.0" encoding="iso-8859-1"?>
<!-- Generator: Adobe Illustrator 16.0.0, SVG Export Plug-In . SVG Version: 6.00 Build 0)  -->
<!DOCTYPE svg PUBLIC "-//W3C//DTD SVG 1.1//EN" "http://www.w3.org/Graphics/SVG/1.1/DTD/svg11.dtd">
<svg version="1.1" id="Layer_1" xmlns="http://www.w3.org/2000/svg" xmlns:xlink="http://www.w3.org/1999/xlink" x="0px" y="0px"
	 width="17.98px" height="12.98px" viewBox="0 0 17.98 12.98" style="enable-background:new 0 0 17.98 12.98;" xml:space="preserve"
	>
<g id="Cloud_Add_1">
	<path d="M11.99,9.48v-1c0-0.276-0.224-0.5-0.5-0.5h-1.5v-1.5c0-0.276-0.224-0.5-0.5-0.5h-1c-0.276,0-0.5,0.224-0.5,0.5v1.5h-1.5
		c-0.276,0-0.5,0.224-0.5,0.5v1c0,0.276,0.224,0.5,0.5,0.5h1.5v1.5c0,0.276,0.224,0.5,0.5,0.5h1c0.276,0,0.5-0.224,0.5-0.5v-1.5h1.5
		C11.767,9.98,11.99,9.757,11.99,9.48z"/>
	<path d="M9.49,0C6.641,0,4,2,4,4.98c-1.1,0-2.1,0.45-2.819,1.18C0.45,6.881,0,7.881,0,8.99c0,2.2,1.79,3.99,4,3.99h2.49
		c0.276,0,0.5-0.224,0.5-0.5v-1c0-0.276-0.224-0.5-0.5-0.5H4c-1,0-2-0.891-2-1.99c0-0.33,0.08-0.65,0.23-0.93
		c0.33-0.641,1-1.08,1.77-1.08h1.49c0.276,0,0.5-0.224,0.5-0.5v-1.52c0-0.351,0.055-0.681,0.175-0.98
		c0.13-0.34,0.337-0.65,0.608-0.93C7.434,2.391,8.446,2,9.486,2c1.68,0,3.504,0.931,3.504,2.98v1.5c0,0.276,0.224,0.5,0.5,0.5H14
		c0.681,0,1.37,0.471,1.73,1.08C15.9,8.351,16,8.66,16,8.98c0,1-0.909,2-2.01,2h-2.5c-0.276,0-0.5,0.224-0.5,0.5v1
		c0,0.276,0.224,0.5,0.5,0.5H14c2.211-0.01,3.98-1.79,3.98-3.99c0-1.859-1.26-3.57-2.98-4.01C15,1.98,12.53,0,9.49,0z"/>
</g>
<g>
</g>
<g>
</g>
<g>
</g>
<g>
</g>
<g>
</g>
<g>
</g>
<g>
</g>
<g>
</g>
<g>
</g>
<g>
</g>
<g>
</g>
<g>
</g>
<g>
</g>
<g>
</g>
<g>
</g>
</svg>
