<?xml version="1.0" encoding="iso-8859-1"?>
<!-- Generator: Adobe Illustrator 16.0.0, SVG Export Plug-In . SVG Version: 6.00 Build 0)  -->
<!DOCTYPE svg PUBLIC "-//W3C//DTD SVG 1.1//EN" "http://www.w3.org/Graphics/SVG/1.1/DTD/svg11.dtd">
<svg version="1.1" id="Layer_1" xmlns="http://www.w3.org/2000/svg" xmlns:xlink="http://www.w3.org/1999/xlink" x="0px" y="0px"
	 width="16px" height="16px" viewBox="0 0 16 16" style="enable-background:new 0 0 16 16;" xml:space="preserve">
<g id="Collection_1">
	<path style="fill-rule:evenodd;clip-rule:evenodd;" d="M15,0H4C3.448,0,3,0.447,3,1v2H1C0.448,3,0,3.447,0,4v11
		c0,0.553,0.448,1,1,1h11c0.552,0,1-0.447,1-1v-2h2c0.552,0,1-0.447,1-1V1C16,0.447,15.552,0,15,0z M11,14H2V5h9V14z M14,11h-1V4
		c0-0.553-0.448-1-1-1H5V2h9V11z"/>
	<path style="fill-rule:evenodd;clip-rule:evenodd;" d="M7.5,12h1C8.776,12,9,11.776,9,11.5v-1C9,10.224,8.776,10,8.5,10h-1
		C7.224,10,7,10.224,7,10.5v1C7,11.776,7.224,12,7.5,12z"/>
	<path style="fill-rule:evenodd;clip-rule:evenodd;" d="M4.5,12h1C5.776,12,6,11.776,6,11.5v-1C6,10.224,5.776,10,5.5,10h-1
		C4.224,10,4,10.224,4,10.5v1C4,11.776,4.224,12,4.5,12z"/>
	<path style="fill-rule:evenodd;clip-rule:evenodd;" d="M7.5,9h1C8.776,9,9,8.776,9,8.5v-1C9,7.224,8.776,7,8.5,7h-1
		C7.224,7,7,7.224,7,7.5v1C7,8.776,7.224,9,7.5,9z"/>
	<path style="fill-rule:evenodd;clip-rule:evenodd;" d="M4.5,9h1C5.776,9,6,8.776,6,8.5v-1C6,7.224,5.776,7,5.5,7h-1
		C4.224,7,4,7.224,4,7.5v1C4,8.776,4.224,9,4.5,9z"/>
</g>
<g>
</g>
<g>
</g>
<g>
</g>
<g>
</g>
<g>
</g>
<g>
</g>
<g>
</g>
<g>
</g>
<g>
</g>
<g>
</g>
<g>
</g>
<g>
</g>
<g>
</g>
<g>
</g>
<g>
</g>
</svg>
