<?xml version="1.0" encoding="iso-8859-1"?>
<!-- Generator: Adobe Illustrator 16.0.0, SVG Export Plug-In . SVG Version: 6.00 Build 0)  -->
<!DOCTYPE svg PUBLIC "-//W3C//DTD SVG 1.1//EN" "http://www.w3.org/Graphics/SVG/1.1/DTD/svg11.dtd">
<svg version="1.1" id="Layer_1" xmlns="http://www.w3.org/2000/svg" xmlns:xlink="http://www.w3.org/1999/xlink" x="0px" y="0px"
	 width="16px" height="16px" viewBox="0 0 16 16" style="enable-background:new 0 0 16 16;" xml:space="preserve">
<g id="Comment_2">
	<path d="M4,16H3c-0.553,0-1-0.447-1-1v-2H1c-0.553,0-1-0.447-1-1V1c0-0.553,0.447-1,1-1h14c0.553,0,1,0.447,1,1v11
		c0,0.553-0.447,1-1,1H9.277l-4.763,2.857C4.359,15.951,4.182,16,4,16z M2,11h1c0.553,0,1,0.447,1,1v1.834l4.485-2.691
		C8.641,11.049,8.818,11,9,11h5V2H2V11z"/>
</g>
<g>
</g>
<g>
</g>
<g>
</g>
<g>
</g>
<g>
</g>
<g>
</g>
<g>
</g>
<g>
</g>
<g>
</g>
<g>
</g>
<g>
</g>
<g>
</g>
<g>
</g>
<g>
</g>
<g>
</g>
</svg>
