<?xml version="1.0" encoding="iso-8859-1"?>
<!-- Generator: Adobe Illustrator 16.0.0, SVG Export Plug-In . SVG Version: 6.00 Build 0)  -->
<!DOCTYPE svg PUBLIC "-//W3C//DTD SVG 1.1//EN" "http://www.w3.org/Graphics/SVG/1.1/DTD/svg11.dtd">
<svg version="1.1" id="Layer_1" xmlns="http://www.w3.org/2000/svg" xmlns:xlink="http://www.w3.org/1999/xlink" x="0px" y="0px"
	 width="16px" height="16px" viewBox="0 0 16 16" style="enable-background:new 0 0 16 16;" xml:space="preserve">
<g id="Comment_1">
	<path d="M8,16c-0.256,0-0.512-0.098-0.707-0.293L4.586,13H1c-0.553,0-1-0.447-1-1V1c0-0.553,0.447-1,1-1h14c0.553,0,1,0.447,1,1v11
		c0,0.553-0.447,1-1,1h-3.586l-2.707,2.707C8.512,15.902,8.256,16,8,16z M2,11h3c0.266,0,0.52,0.105,0.707,0.293L8,13.586
		l2.293-2.293C10.48,11.105,10.734,11,11,11h3V2H2V11z"/>
</g>
<g>
</g>
<g>
</g>
<g>
</g>
<g>
</g>
<g>
</g>
<g>
</g>
<g>
</g>
<g>
</g>
<g>
</g>
<g>
</g>
<g>
</g>
<g>
</g>
<g>
</g>
<g>
</g>
<g>
</g>
</svg>
