<?xml version="1.0" encoding="iso-8859-1"?>
<!-- Generator: Adobe Illustrator 16.0.0, SVG Export Plug-In . SVG Version: 6.00 Build 0)  -->
<!DOCTYPE svg PUBLIC "-//W3C//DTD SVG 1.1//EN" "http://www.w3.org/Graphics/SVG/1.1/DTD/svg11.dtd">
<svg version="1.1" id="Layer_1" xmlns="http://www.w3.org/2000/svg" xmlns:xlink="http://www.w3.org/1999/xlink" x="0px" y="0px"
	 width="16px" height="16px" viewBox="0 0 16 16" style="enable-background:new 0 0 16 16;" xml:space="preserve">
<g id="Compose_2_x2C__Message_2">
	<polygon style="fill-rule:evenodd;clip-rule:evenodd;" points="4,10 4,12 6,12 13,5 11,3 	"/>
	<path style="fill-rule:evenodd;clip-rule:evenodd;" d="M15.707,2.293c0.391-0.391,0.391-1.023,0-1.414l-0.586-0.586
		c-0.391-0.391-1.023-0.391-1.414,0L12,2l2,2L15.707,2.293z"/>
	<path style="fill-rule:evenodd;clip-rule:evenodd;" d="M15.646,4.354l-1.293,1.293C14.158,5.842,14,6.224,14,6.5V14H2V2h7.5
		c0.276,0,0.658-0.158,0.854-0.354l1.293-1.293C11.842,0.158,11.776,0,11.5,0H1C0.447,0,0,0.447,0,1v14c0,0.553,0.447,1,1,1h14
		c0.553,0,1-0.447,1-1V4.5C16,4.224,15.842,4.158,15.646,4.354z"/>
</g>
<g>
</g>
<g>
</g>
<g>
</g>
<g>
</g>
<g>
</g>
<g>
</g>
<g>
</g>
<g>
</g>
<g>
</g>
<g>
</g>
<g>
</g>
<g>
</g>
<g>
</g>
<g>
</g>
<g>
</g>
</svg>
