<?xml version="1.0" encoding="iso-8859-1"?>
<!-- Generator: Adobe Illustrator 16.0.0, SVG Export Plug-In . SVG Version: 6.00 Build 0)  -->
<!DOCTYPE svg PUBLIC "-//W3C//DTD SVG 1.1//EN" "http://www.w3.org/Graphics/SVG/1.1/DTD/svg11.dtd">
<svg version="1.1" id="Layer_1" xmlns="http://www.w3.org/2000/svg" xmlns:xlink="http://www.w3.org/1999/xlink" x="0px" y="0px"
	 width="16px" height="16px" viewBox="0 0 16 16" style="enable-background:new 0 0 16 16;" xml:space="preserve">
<g id="Compass_1">
	<path d="M8,0C3.589,0,0,3.589,0,8s3.589,8,8,8s8-3.589,8-8S12.411,0,8,0z M9,12.5C9,12.224,8.776,12,8.5,12h-1
		C7.224,12,7,12.224,7,12.5v1.41C4.493,13.486,2.514,11.508,2.09,9H3.5C3.776,9,4,8.776,4,8.5v-1C4,7.224,3.776,7,3.5,7H2.09
		C2.514,4.492,4.493,2.514,7,2.09V3.5C7,3.776,7.224,4,7.5,4h1C8.776,4,9,3.776,9,3.5V2.09c2.507,0.424,4.486,2.402,4.91,4.91H12.5
		C12.224,7,12,7.224,12,7.5v1C12,8.776,12.224,9,12.5,9h1.41c-0.424,2.508-2.403,4.486-4.91,4.91V12.5z"/>
	<path d="M5,10.968c0,0-0.002-0.189,0.039-0.476c0.037-0.289,0.12-0.674,0.259-1.097c0.28-0.842,0.841-1.776,1.589-2.524
		c0.744-0.752,1.678-1.315,2.526-1.588c0.425-0.137,0.813-0.215,1.106-0.25C10.808,4.995,11,5,11,5s0.004,0.191-0.033,0.48
		c-0.035,0.292-0.114,0.682-0.25,1.106c-0.273,0.849-0.837,1.78-1.588,2.525C8.38,9.86,7.445,10.421,6.604,10.701
		c-0.422,0.139-0.808,0.221-1.097,0.26C5.221,11.002,5.031,11,5.031,11L5,10.968z"/>
</g>
<g>
</g>
<g>
</g>
<g>
</g>
<g>
</g>
<g>
</g>
<g>
</g>
<g>
</g>
<g>
</g>
<g>
</g>
<g>
</g>
<g>
</g>
<g>
</g>
<g>
</g>
<g>
</g>
<g>
</g>
</svg>
