<?xml version="1.0" encoding="iso-8859-1"?>
<!-- Generator: Adobe Illustrator 16.0.0, SVG Export Plug-In . SVG Version: 6.00 Build 0)  -->
<!DOCTYPE svg PUBLIC "-//W3C//DTD SVG 1.1//EN" "http://www.w3.org/Graphics/SVG/1.1/DTD/svg11.dtd">
<svg version="1.1" id="Layer_1" xmlns="http://www.w3.org/2000/svg" xmlns:xlink="http://www.w3.org/1999/xlink" x="0px" y="0px"
	 width="16px" height="16px" viewBox="0 0 16 16" style="enable-background:new 0 0 16 16;" xml:space="preserve">
<g id="Compose_4_x2C__Message_4">
	<path style="fill-rule:evenodd;clip-rule:evenodd;" d="M4.879,7.178C4.879,7.464,4.925,7.738,5,8l8.168-5.445
		c0.459-0.307,0.5-0.254,0.091,0.117L6.04,9.21L4,11v1h1l2-2c0.485,0.339,0.863,0.5,1.5,0.5c1.656,0,7.5-8.094,7.5-9.75
		C16,0,15.25,0,15.25,0C13.594,0,4.879,5.521,4.879,7.178z"/>
	<path style="fill-rule:evenodd;clip-rule:evenodd;" d="M15.723,5.416l-1.445,2.168C14.124,7.814,14,8.224,14,8.5V14H2V2h5.5
		c0.276,0,0.686-0.124,0.916-0.277l2.168-1.445C10.814,0.124,10.776,0,10.5,0H1C0.447,0,0,0.447,0,1v14c0,0.553,0.447,1,1,1h14
		c0.553,0,1-0.447,1-1V5.5C16,5.224,15.876,5.186,15.723,5.416z"/>
</g>
<g>
</g>
<g>
</g>
<g>
</g>
<g>
</g>
<g>
</g>
<g>
</g>
<g>
</g>
<g>
</g>
<g>
</g>
<g>
</g>
<g>
</g>
<g>
</g>
<g>
</g>
<g>
</g>
<g>
</g>
</svg>
