<?xml version="1.0" encoding="iso-8859-1"?>
<!-- Generator: Adobe Illustrator 16.0.0, SVG Export Plug-In . SVG Version: 6.00 Build 0)  -->
<!DOCTYPE svg PUBLIC "-//W3C//DTD SVG 1.1//EN" "http://www.w3.org/Graphics/SVG/1.1/DTD/svg11.dtd">
<svg version="1.1" id="Layer_1" xmlns="http://www.w3.org/2000/svg" xmlns:xlink="http://www.w3.org/1999/xlink" x="0px" y="0px"
	 width="16px" height="16px" viewBox="0 0 16 16" style="enable-background:new 0 0 16 16;" xml:space="preserve">
<g id="Copyright_1">
	<g>
		<path d="M8,16c-4.412,0-8-3.589-8-8s3.588-8,8-8s8,3.589,8,8S12.412,16,8,16z M8,1.989C4.687,1.989,1.99,4.687,1.99,8
			S4.687,14.011,8,14.011S14.01,11.313,14.01,8S11.313,1.989,8,1.989z"/>
	</g>
	<g>
		<path d="M8,12c-2.206,0-4-1.795-4-4s1.794-4,4-4c1.153,0,2.241,0.49,2.984,1.344c0.363,0.416,0.319,1.048-0.098,1.41
			c-0.414,0.361-1.048,0.32-1.41-0.098C9.113,6.239,8.575,6,8,6C6.897,6,6,6.896,6,8s0.897,2,2,2c0.575,0,1.113-0.239,1.477-0.656
			s0.995-0.459,1.41-0.098c0.417,0.362,0.461,0.994,0.098,1.41C10.241,11.51,9.153,12,8,12z"/>
	</g>
</g>
<g>
</g>
<g>
</g>
<g>
</g>
<g>
</g>
<g>
</g>
<g>
</g>
<g>
</g>
<g>
</g>
<g>
</g>
<g>
</g>
<g>
</g>
<g>
</g>
<g>
</g>
<g>
</g>
<g>
</g>
</svg>
