<?xml version="1.0" encoding="iso-8859-1"?>
<!-- Generator: Adobe Illustrator 16.0.0, SVG Export Plug-In . SVG Version: 6.00 Build 0)  -->
<!DOCTYPE svg PUBLIC "-//W3C//DTD SVG 1.1//EN" "http://www.w3.org/Graphics/SVG/1.1/DTD/svg11.dtd">
<svg version="1.1" id="Layer_1" xmlns="http://www.w3.org/2000/svg" xmlns:xlink="http://www.w3.org/1999/xlink" x="0px" y="0px"
	 width="16px" height="14px" viewBox="0 0 16 14" style="enable-background:new 0 0 16 14;" xml:space="preserve">
<g id="Download_2">
	<path style="fill-rule:evenodd;clip-rule:evenodd;" d="M7.677,9.822c0.179,0.234,0.468,0.238,0.646,0.004L10.91,6.5
		C11.089,6.264,10.992,6,10.695,6H9V0.5C9,0.225,8.776,0,8.5,0h-1C7.224,0,7,0.225,7,0.5V6H5.305C5.008,6,4.911,6.265,5.09,6.5
		L7.677,9.822z"/>
	<path style="fill-rule:evenodd;clip-rule:evenodd;" d="M15.5,12h-15C0.224,12,0,12.224,0,12.5v1C0,13.776,0.224,14,0.5,14h15
		c0.276,0,0.5-0.224,0.5-0.5v-1C16,12.224,15.776,12,15.5,12z"/>
</g>
<g>
</g>
<g>
</g>
<g>
</g>
<g>
</g>
<g>
</g>
<g>
</g>
<g>
</g>
<g>
</g>
<g>
</g>
<g>
</g>
<g>
</g>
<g>
</g>
<g>
</g>
<g>
</g>
<g>
</g>
</svg>
