<?xml version="1.0" encoding="iso-8859-1"?>
<!-- Generator: Adobe Illustrator 16.0.0, SVG Export Plug-In . SVG Version: 6.00 Build 0)  -->
<!DOCTYPE svg PUBLIC "-//W3C//DTD SVG 1.1//EN" "http://www.w3.org/Graphics/SVG/1.1/DTD/svg11.dtd">
<svg version="1.1" id="Layer_1" xmlns="http://www.w3.org/2000/svg" xmlns:xlink="http://www.w3.org/1999/xlink" x="0px" y="0px"
	 width="10.001px" height="11.998px" viewBox="0 0 10.001 11.998" style="enable-background:new 0 0 10.001 11.998;"
	 xml:space="preserve">
<path id="Down_4" d="M4,0.498v7.984L1.58,6.141c-0.197-0.189-0.518-0.189-0.715,0L0.148,6.824c-0.197,0.188-0.197,0.494,0,0.684
	l4.506,4.35c0.199,0.188,0.52,0.188,0.717,0l4.48-4.322c0.199-0.189,0.199-0.496,0-0.684L9.135,6.168
	c-0.197-0.189-0.519-0.189-0.716,0L6,8.509V0.498C6,0.221,5.777,0,5.5,0h-1C4.225,0,4,0.221,4,0.498z"/>
<g>
</g>
<g>
</g>
<g>
</g>
<g>
</g>
<g>
</g>
<g>
</g>
<g>
</g>
<g>
</g>
<g>
</g>
<g>
</g>
<g>
</g>
<g>
</g>
<g>
</g>
<g>
</g>
<g>
</g>
</svg>
