<?xml version="1.0" encoding="iso-8859-1"?>
<!-- Generator: Adobe Illustrator 16.0.0, SVG Export Plug-In . SVG Version: 6.00 Build 0)  -->
<!DOCTYPE svg PUBLIC "-//W3C//DTD SVG 1.1//EN" "http://www.w3.org/Graphics/SVG/1.1/DTD/svg11.dtd">
<svg version="1.1" id="Layer_1" xmlns="http://www.w3.org/2000/svg" xmlns:xlink="http://www.w3.org/1999/xlink" x="0px" y="0px"
	 width="16px" height="16px" viewBox="0 0 16 16" style="enable-background:new 0 0 16 16;" xml:space="preserve">
<g id="Down_Square_3_x2C__Download_4">
	<path style="fill-rule:evenodd;clip-rule:evenodd;" d="M16,1c0-0.553-0.447-1-1-1H1C0.447,0,0,0.447,0,1v14c0,0.553,0.447,1,1,1h14
		c0.553,0,1-0.447,1-1V1z M14,2v12H2V2H14z"/>
	<path style="fill-rule:evenodd;clip-rule:evenodd;" d="M10.849,8.59C11.14,8.189,10.998,8,10.532,8H9V4.498C9,4.222,8.776,4,8.5,4
		h-1C7.224,4,7,4.222,7,4.498V8H5.468C5.002,8,4.859,8.206,5.15,8.607l2.322,3.072c0.291,0.4,0.764,0.437,1.054,0.036L10.849,8.59z"
		/>
</g>
<g>
</g>
<g>
</g>
<g>
</g>
<g>
</g>
<g>
</g>
<g>
</g>
<g>
</g>
<g>
</g>
<g>
</g>
<g>
</g>
<g>
</g>
<g>
</g>
<g>
</g>
<g>
</g>
<g>
</g>
</svg>
