<?xml version="1.0" encoding="iso-8859-1"?>
<!-- Generator: Adobe Illustrator 16.0.0, SVG Export Plug-In . SVG Version: 6.00 Build 0)  -->
<!DOCTYPE svg PUBLIC "-//W3C//DTD SVG 1.1//EN" "http://www.w3.org/Graphics/SVG/1.1/DTD/svg11.dtd">
<svg version="1.1" id="Layer_1" xmlns="http://www.w3.org/2000/svg" xmlns:xlink="http://www.w3.org/1999/xlink" x="0px" y="0px"
	 width="12px" height="11px" viewBox="0 0 12 11" style="enable-background:new 0 0 12 11;" xml:space="preserve">
<g id="Eject_1">
	<path d="M0,9.5v1C0,10.776,0.224,11,0.5,11h11c0.276,0,0.5-0.224,0.5-0.5v-1C12,9.224,11.776,9,11.5,9h-11C0.224,9,0,9.224,0,9.5z"
		/>
	<path d="M1,7h10c0.404,0,0.77-0.243,0.924-0.617c0.155-0.374,0.069-0.804-0.217-1.09l-5-5c-0.391-0.391-1.023-0.391-1.414,0l-5,5
		c-0.286,0.286-0.372,0.716-0.217,1.09C0.23,6.757,0.596,7,1,7z M6,2.414L8.586,5H3.414L6,2.414z"/>
</g>
<g>
</g>
<g>
</g>
<g>
</g>
<g>
</g>
<g>
</g>
<g>
</g>
<g>
</g>
<g>
</g>
<g>
</g>
<g>
</g>
<g>
</g>
<g>
</g>
<g>
</g>
<g>
</g>
<g>
</g>
</svg>
