<?xml version="1.0" encoding="iso-8859-1"?>
<!-- Generator: Adobe Illustrator 16.0.0, SVG Export Plug-In . SVG Version: 6.00 Build 0)  -->
<!DOCTYPE svg PUBLIC "-//W3C//DTD SVG 1.1//EN" "http://www.w3.org/Graphics/SVG/1.1/DTD/svg11.dtd">
<svg version="1.1" id="Layer_1" xmlns="http://www.w3.org/2000/svg" xmlns:xlink="http://www.w3.org/1999/xlink" x="0px" y="0px"
	 width="16px" height="16px" viewBox="0 0 16 16" style="enable-background:new 0 0 16 16;" xml:space="preserve">
<g id="Exclamation_Point_1_x2C__Warning_1_x2C__Caution_1_1_">
	<path style="fill-rule:evenodd;clip-rule:evenodd;" d="M8,0C3.582,0,0,3.582,0,8s3.582,8,8,8s8-3.582,8-8S12.418,0,8,0z M8,14
		c-3.309,0-6-2.692-6-6s2.691-6,6-6c3.307,0,6,2.692,6,6S11.307,14,8,14z"/>
	<path style="fill-rule:evenodd;clip-rule:evenodd;" d="M8.5,3h-1C7.224,3,7,3.224,7,3.5v6C7,9.776,7.224,10,7.5,10h1
		C8.776,10,9,9.776,9,9.5v-6C9,3.224,8.776,3,8.5,3z"/>
	<path style="fill-rule:evenodd;clip-rule:evenodd;" d="M8.5,11h-1C7.224,11,7,11.224,7,11.5v1C7,12.776,7.224,13,7.5,13h1
		C8.776,13,9,12.776,9,12.5v-1C9,11.224,8.776,11,8.5,11z"/>
</g>
<g>
</g>
<g>
</g>
<g>
</g>
<g>
</g>
<g>
</g>
<g>
</g>
<g>
</g>
<g>
</g>
<g>
</g>
<g>
</g>
<g>
</g>
<g>
</g>
<g>
</g>
<g>
</g>
<g>
</g>
</svg>
