<?xml version="1.0" encoding="iso-8859-1"?>
<!-- Generator: Adobe Illustrator 16.0.0, SVG Export Plug-In . SVG Version: 6.00 Build 0)  -->
<!DOCTYPE svg PUBLIC "-//W3C//DTD SVG 1.1//EN" "http://www.w3.org/Graphics/SVG/1.1/DTD/svg11.dtd">
<svg version="1.1" id="Layer_1" xmlns="http://www.w3.org/2000/svg" xmlns:xlink="http://www.w3.org/1999/xlink" x="0px" y="0px"
	 width="18px" height="14px" viewBox="0 0 18 14" style="enable-background:new 0 0 18 14;" xml:space="preserve">
<g id="Eye_3_x2C__View_3">
	<path d="M17.75,6.62C15.55,2.41,12.35,0,8.99,0C5.47,0,2.1,2.52,0.21,6.57L0,7.02l0.22,0.44C2.24,11.43,5.68,14,8.99,14
		c3.3,0,6.569-2.4,8.75-6.42L18,7.1L17.75,6.62z M8.99,12C6.52,12,3.9,10.05,2.21,6.98C3.8,3.9,6.36,2,8.99,2
		c2.45,0,4.95,1.891,6.76,5.08C13.93,10.17,11.44,12,8.99,12z"/>
	<path d="M8.99,4C7.36,4,6.03,5.35,6.03,7s1.33,3,2.96,3s2.96-1.35,2.96-3S10.62,4,8.99,4z M10,7c0,0.553-0.447,1-1,1S8,7.553,8,7
		s0.447-1,1-1S10,6.447,10,7z"/>
</g>
<g>
</g>
<g>
</g>
<g>
</g>
<g>
</g>
<g>
</g>
<g>
</g>
<g>
</g>
<g>
</g>
<g>
</g>
<g>
</g>
<g>
</g>
<g>
</g>
<g>
</g>
<g>
</g>
<g>
</g>
</svg>
