<?xml version="1.0" encoding="iso-8859-1"?>
<!-- Generator: Adobe Illustrator 16.0.0, SVG Export Plug-In . SVG Version: 6.00 Build 0)  -->
<!DOCTYPE svg PUBLIC "-//W3C//DTD SVG 1.1//EN" "http://www.w3.org/Graphics/SVG/1.1/DTD/svg11.dtd">
<svg version="1.1" id="Layer_1" xmlns="http://www.w3.org/2000/svg" xmlns:xlink="http://www.w3.org/1999/xlink" x="0px" y="0px"
	 width="16px" height="16px" viewBox="0 0 16 16" style="enable-background:new 0 0 16 16;" xml:space="preserve">
<path id="Feather_2" style="fill-rule:evenodd;clip-rule:evenodd;" d="M13,0C4.965,0,0.915,11.957,0.139,14.52
	C0.059,14.784,0,15.112,0,15.25v0.25C0,15.776,0.225,16,0.5,16C0.776,16,1,15.776,1,15.5V15c0.598-1.791,2.348-4.772,4.269-6.016
	C5.613,9.588,6.255,10,7,10c0.356,0,0.687-0.102,0.977-0.265l0,0l0,0c0.299-0.169,0.549-0.407,0.727-0.699
	c0.011-0.019,0.02-0.037,0.03-0.056c0.067-0.119,0.121-0.244,0.163-0.376C8.909,8.566,8.922,8.529,8.932,8.49
	C8.973,8.333,9,8.17,9,8c0-0.101-0.016-0.197-0.029-0.293C9.272,7.889,9.622,8,10,8c1.104,0,2-0.895,2-2
	c0-0.064-0.013-0.126-0.02-0.189C12.301,5.926,12.641,6,13,6c1.657,0,3-1.343,3-3S14.657,0,13,0z"/>
<g>
</g>
<g>
</g>
<g>
</g>
<g>
</g>
<g>
</g>
<g>
</g>
<g>
</g>
<g>
</g>
<g>
</g>
<g>
</g>
<g>
</g>
<g>
</g>
<g>
</g>
<g>
</g>
<g>
</g>
</svg>
