<?xml version="1.0" encoding="iso-8859-1"?>
<!-- Generator: Adobe Illustrator 16.0.0, SVG Export Plug-In . SVG Version: 6.00 Build 0)  -->
<!DOCTYPE svg PUBLIC "-//W3C//DTD SVG 1.1//EN" "http://www.w3.org/Graphics/SVG/1.1/DTD/svg11.dtd">
<svg version="1.1" id="Layer_1" xmlns="http://www.w3.org/2000/svg" xmlns:xlink="http://www.w3.org/1999/xlink" x="0px" y="0px"
	 width="16px" height="16px" viewBox="0 0 16 16" style="enable-background:new 0 0 16 16;" xml:space="preserve">
<g id="Food_1_x2C__Restaurant_1">
	<path style="fill-rule:evenodd;clip-rule:evenodd;" d="M7,0C6.447,0,6,0.447,6,1v4H5V1c0-0.553-0.447-1-1-1S3,0.447,3,1v4H2V1
		c0-0.553-0.447-1-1-1S0,0.447,0,1v5c0,0.553,0.447,1,1,1h2v8.5C3,15.776,3.224,16,3.5,16h1C4.776,16,5,15.776,5,15.5V7h2
		c0.553,0,1-0.447,1-1V1C8,0.447,7.553,0,7,0z"/>
	<path style="fill-rule:evenodd;clip-rule:evenodd;" d="M15.502,0.031C13.527,0.276,12,1.96,12,4v2c0,1.477,0.81,2.752,2,3.445V15.5
		c0,0.276,0.224,0.5,0.5,0.5h1c0.276,0,0.5-0.224,0.5-0.5v-15C16,0.224,15.775-0.004,15.502,0.031z"/>
</g>
<g>
</g>
<g>
</g>
<g>
</g>
<g>
</g>
<g>
</g>
<g>
</g>
<g>
</g>
<g>
</g>
<g>
</g>
<g>
</g>
<g>
</g>
<g>
</g>
<g>
</g>
<g>
</g>
<g>
</g>
</svg>
