<?xml version="1.0" encoding="iso-8859-1"?>
<!-- Generator: Adobe Illustrator 16.0.0, SVG Export Plug-In . SVG Version: 6.00 Build 0)  -->
<!DOCTYPE svg PUBLIC "-//W3C//DTD SVG 1.1//EN" "http://www.w3.org/Graphics/SVG/1.1/DTD/svg11.dtd">
<svg version="1.1" id="Layer_1" xmlns="http://www.w3.org/2000/svg" xmlns:xlink="http://www.w3.org/1999/xlink" x="0px" y="0px"
	 width="18.006px" height="16px" viewBox="0 0 18.006 16" style="enable-background:new 0 0 18.006 16;" xml:space="preserve">
<path id="Gas_1_x2C__Travel_1" d="M15.066,2C14.523,2,14,2.148,14,2.701v3c0,1.302-1,2.401-2,2.815V0.701
	C12,0.148,11.686,0,11.144,0H3.303C2.762,0,2,0.148,2,0.701V14H0.853C0.581,14,0,13.925,0,14.201v1C0,15.478,0.581,16,0.853,16h2.45
	h7.841h2.451C13.865,16,14,15.478,14,15.201v-1C14,13.925,13.865,14,13.595,14H12v-3.4c2-0.464,4-2.484,4-4.898V4h1.025
	c0.542,0,0.98-0.447,0.98-1s-0.438-1-0.98-1H15.066z M10,2v3H4V2H10z M4,14V7h6v7H4z"/>
<g>
</g>
<g>
</g>
<g>
</g>
<g>
</g>
<g>
</g>
<g>
</g>
<g>
</g>
<g>
</g>
<g>
</g>
<g>
</g>
<g>
</g>
<g>
</g>
<g>
</g>
<g>
</g>
<g>
</g>
</svg>
