<?xml version="1.0" encoding="iso-8859-1"?>
<!-- Generator: Adobe Illustrator 16.0.0, SVG Export Plug-In . SVG Version: 6.00 Build 0)  -->
<!DOCTYPE svg PUBLIC "-//W3C//DTD SVG 1.1//EN" "http://www.w3.org/Graphics/SVG/1.1/DTD/svg11.dtd">
<svg version="1.1" id="Layer_1" xmlns="http://www.w3.org/2000/svg" xmlns:xlink="http://www.w3.org/1999/xlink" x="0px" y="0px"
	 width="16px" height="17px" viewBox="0 0 16 17" style="enable-background:new 0 0 16 17;" xml:space="preserve">
<path id="Gift_1_x2C__Present_1" d="M15,5h-2.78C12.699,4.468,13,3.771,13,3c0-1.654-1.346-3-3-3C9.229,0,8.532,0.301,8,0.78
	C7.468,0.301,6.771,0,6,0C4.346,0,3,1.346,3,3c0,0.771,0.301,1.468,0.78,2H1C0.447,5,0,5.447,0,6v4v2v4c0,0.553,0.447,1,1,1h3h2h4h2
	h3c0.553,0,1-0.447,1-1v-4v-2V6C16,5.447,15.553,5,15,5z M4,15H2v-3h2V15z M4,10H2V7h2V10z M5,3.5v-1C5,2.224,5.224,2,5.5,2h1
	C6.776,2,7,2.224,7,2.5V3v1H6H5.5C5.224,4,5,3.776,5,3.5z M10,15H6v-3h4V15z M10,10H6V7h4V10z M10.5,4H10H9V3V2.5
	C9,2.224,9.224,2,9.5,2h1C10.776,2,11,2.224,11,2.5v1C11,3.776,10.776,4,10.5,4z M14,15h-2v-3h2V15z M14,10h-2V7h2V10z"/>
<g>
</g>
<g>
</g>
<g>
</g>
<g>
</g>
<g>
</g>
<g>
</g>
<g>
</g>
<g>
</g>
<g>
</g>
<g>
</g>
<g>
</g>
<g>
</g>
<g>
</g>
<g>
</g>
<g>
</g>
</svg>
