<?xml version="1.0" encoding="iso-8859-1"?>
<!-- Generator: Adobe Illustrator 16.0.0, SVG Export Plug-In . SVG Version: 6.00 Build 0)  -->
<!DOCTYPE svg PUBLIC "-//W3C//DTD SVG 1.1//EN" "http://www.w3.org/Graphics/SVG/1.1/DTD/svg11.dtd">
<svg version="1.1" id="Layer_1" xmlns="http://www.w3.org/2000/svg" xmlns:xlink="http://www.w3.org/1999/xlink" x="0px" y="0px"
	 width="16px" height="16px" viewBox="0 0 16 16" style="enable-background:new 0 0 16 16;" xml:space="preserve">
<g id="Graph_2_x2C__Stats_1">
	<path d="M10.5,12h1c0.276,0,0.5-0.224,0.5-0.5v-5C12,6.224,11.776,6,11.5,6h-1C10.224,6,10,6.224,10,6.5v5
		C10,11.776,10.224,12,10.5,12z"/>
	<path d="M4.5,12h1C5.776,12,6,11.776,6,11.5v-3C6,8.224,5.776,8,5.5,8h-1C4.224,8,4,8.224,4,8.5v3C4,11.776,4.224,12,4.5,12z"/>
	<path d="M7.5,12h1C8.776,12,9,11.776,9,11.5v-7C9,4.224,8.776,4,8.5,4h-1C7.224,4,7,4.224,7,4.5v7C7,11.776,7.224,12,7.5,12z"/>
	<path d="M15,0H1C0.447,0,0,0.447,0,1v14c0,0.553,0.447,1,1,1h14c0.553,0,1-0.447,1-1V1C16,0.447,15.553,0,15,0z M14,14H2V2h12V14z"
		/>
</g>
<g>
</g>
<g>
</g>
<g>
</g>
<g>
</g>
<g>
</g>
<g>
</g>
<g>
</g>
<g>
</g>
<g>
</g>
<g>
</g>
<g>
</g>
<g>
</g>
<g>
</g>
<g>
</g>
<g>
</g>
</svg>
