<?xml version="1.0" encoding="iso-8859-1"?>
<!-- Generator: Adobe Illustrator 16.0.0, SVG Export Plug-In . SVG Version: 6.00 Build 0)  -->
<!DOCTYPE svg PUBLIC "-//W3C//DTD SVG 1.1//EN" "http://www.w3.org/Graphics/SVG/1.1/DTD/svg11.dtd">
<svg version="1.1" id="Layer_1" xmlns="http://www.w3.org/2000/svg" xmlns:xlink="http://www.w3.org/1999/xlink" x="0px" y="0px"
	 width="16px" height="16px" viewBox="0 0 16 16" style="enable-background:new 0 0 16 16;" xml:space="preserve">
<g id="Graph_1">
	<path d="M9.5,13h1c0.276,0,0.5-0.224,0.5-0.5v-6C11,6.224,10.776,6,10.5,6h-1C9.224,6,9,6.224,9,6.5v6C9,12.776,9.224,13,9.5,13z"
		/>
	<path d="M3.5,13h1C4.776,13,5,12.776,5,12.5v-4C5,8.224,4.776,8,4.5,8h-1C3.224,8,3,8.224,3,8.5v4C3,12.776,3.224,13,3.5,13z"/>
	<path d="M6.5,13h1C7.776,13,8,12.776,8,12.5v-8C8,4.224,7.776,4,7.5,4h-1C6.224,4,6,4.224,6,4.5v8C6,12.776,6.224,13,6.5,13z"/>
	<path d="M12.5,13h1c0.276,0,0.5-0.224,0.5-0.5v-10C14,2.224,13.776,2,13.5,2h-1C12.224,2,12,2.224,12,2.5v10
		C12,12.776,12.224,13,12.5,13z"/>
	<path d="M15.5,14H2V0.5C2,0.224,1.776,0,1.5,0h-1C0.224,0,0,0.224,0,0.5V15c0,0.553,0.447,1,1,1h14.5c0.276,0,0.5-0.224,0.5-0.5v-1
		C16,14.224,15.776,14,15.5,14z"/>
</g>
<g>
</g>
<g>
</g>
<g>
</g>
<g>
</g>
<g>
</g>
<g>
</g>
<g>
</g>
<g>
</g>
<g>
</g>
<g>
</g>
<g>
</g>
<g>
</g>
<g>
</g>
<g>
</g>
<g>
</g>
</svg>
