<?xml version="1.0" encoding="iso-8859-1"?>
<!-- Generator: Adobe Illustrator 16.0.0, SVG Export Plug-In . SVG Version: 6.00 Build 0)  -->
<!DOCTYPE svg PUBLIC "-//W3C//DTD SVG 1.1//EN" "http://www.w3.org/Graphics/SVG/1.1/DTD/svg11.dtd">
<svg version="1.1" id="Layer_1" xmlns="http://www.w3.org/2000/svg" xmlns:xlink="http://www.w3.org/1999/xlink" x="0px" y="0px"
	 width="16px" height="16px" viewBox="0 0 16 16" style="enable-background:new 0 0 16 16;" xml:space="preserve">
<g id="Grid_3">
	<path style="fill-rule:evenodd;clip-rule:evenodd;" d="M15,0H1C0.448,0,0,0.447,0,1v14c0,0.553,0.448,1,1,1h14c0.552,0,1-0.447,1-1
		V1C16,0.447,15.552,0,15,0z M14,14H2V2h12V14z"/>
	<rect x="10" y="4" style="fill-rule:evenodd;clip-rule:evenodd;" width="2" height="2"/>
	<rect x="7" y="4" style="fill-rule:evenodd;clip-rule:evenodd;" width="2" height="2"/>
	<rect x="4" y="4" style="fill-rule:evenodd;clip-rule:evenodd;" width="2" height="2"/>
	<rect x="4" y="7" style="fill-rule:evenodd;clip-rule:evenodd;" width="2" height="2"/>
	<rect x="7" y="7" style="fill-rule:evenodd;clip-rule:evenodd;" width="2" height="2"/>
	<rect x="10" y="7" style="fill-rule:evenodd;clip-rule:evenodd;" width="2" height="2"/>
	<rect x="10" y="10" style="fill-rule:evenodd;clip-rule:evenodd;" width="2" height="2"/>
	<rect x="7" y="10" style="fill-rule:evenodd;clip-rule:evenodd;" width="2" height="2"/>
	<rect x="4" y="10" style="fill-rule:evenodd;clip-rule:evenodd;" width="2" height="2"/>
</g>
<g>
</g>
<g>
</g>
<g>
</g>
<g>
</g>
<g>
</g>
<g>
</g>
<g>
</g>
<g>
</g>
<g>
</g>
<g>
</g>
<g>
</g>
<g>
</g>
<g>
</g>
<g>
</g>
<g>
</g>
</svg>
