<?xml version="1.0" encoding="iso-8859-1"?>
<!-- Generator: Adobe Illustrator 16.0.0, SVG Export Plug-In . SVG Version: 6.00 Build 0)  -->
<!DOCTYPE svg PUBLIC "-//W3C//DTD SVG 1.1//EN" "http://www.w3.org/Graphics/SVG/1.1/DTD/svg11.dtd">
<svg version="1.1" id="Layer_1" xmlns="http://www.w3.org/2000/svg" xmlns:xlink="http://www.w3.org/1999/xlink" x="0px" y="0px"
	 width="16px" height="16px" viewBox="0 0 16 16" style="enable-background:new 0 0 16 16;" xml:space="preserve">
<path id="Group_1_x2C__Follow_1" d="M14.094,5.832C14.651,5.212,15,4.4,15,3.5C15,1.566,13.434,0,11.5,0S8,1.566,8,3.5
	c0,0.9,0.349,1.712,0.906,2.332c-0.375,0.266-0.7,0.592-0.979,0.958C7.6,5.197,6.19,4,4.5,4C2.566,4,1,5.566,1,7.5
	c0,0.9,0.349,1.712,0.906,2.332C0.756,10.646,0,11.982,0,13.5V15c0,0.553,0.447,1,1,1h7c0.553,0,1-0.447,1-1v-1.5
	c0-0.93-0.172-1.219-0.275-1.5H15c0.553,0,1-0.447,1-1V9.5C16,7.982,15.244,6.646,14.094,5.832z M7,14H2v-0.5
	C2,12.121,3.121,11,4.5,11S7,12.121,7,13.5V14z M14,10H9V9.5C9,8.121,10.121,7,11.5,7S14,8.121,14,9.5V10z M6,7.5
	C6,8.328,5.329,9,4.5,9S3,8.328,3,7.5S3.671,6,4.5,6S6,6.672,6,7.5z M13,3.5C13,4.328,12.329,5,11.5,5S10,4.328,10,3.5
	S10.671,2,11.5,2S13,2.672,13,3.5z"/>
<g>
</g>
<g>
</g>
<g>
</g>
<g>
</g>
<g>
</g>
<g>
</g>
<g>
</g>
<g>
</g>
<g>
</g>
<g>
</g>
<g>
</g>
<g>
</g>
<g>
</g>
<g>
</g>
<g>
</g>
</svg>
