<?xml version="1.0" encoding="iso-8859-1"?>
<!-- Generator: Adobe Illustrator 16.0.0, SVG Export Plug-In . SVG Version: 6.00 Build 0)  -->
<!DOCTYPE svg PUBLIC "-//W3C//DTD SVG 1.1//EN" "http://www.w3.org/Graphics/SVG/1.1/DTD/svg11.dtd">
<svg version="1.1" id="Layer_1" xmlns="http://www.w3.org/2000/svg" xmlns:xlink="http://www.w3.org/1999/xlink" x="0px" y="0px"
	 width="17.997px" height="15.793px" viewBox="0 0 17.997 15.793" style="enable-background:new 0 0 17.997 15.793;"
	 xml:space="preserve">
<path id="Home_3_x2C__House_3" style="fill-rule:evenodd;clip-rule:evenodd;" d="M14.011,4.793v-3.5c0-0.276-0.218-0.5-0.494-0.5
	h-1.002c-0.276,0-0.504,0.224-0.504,0.5v1.5L9.362,0.146c-0.195-0.195-0.511-0.195-0.706,0L0.112,8.439
	c-0.195,0.195-0.13,0.354,0.146,0.354h1.752v3v3.5c0,0.276,0.215,0.5,0.492,0.5h13.016c0.277,0,0.492-0.224,0.492-0.5v-6.5h1.729
	c0.276,0,0.339-0.158,0.144-0.354L14.011,4.793z M11.011,13.793v-3.5c0-0.276-0.222-0.5-0.498-0.5H7.509
	c-0.276,0-0.498,0.224-0.498,0.5v3.5h-3v-2V7.621l5.003-5l3.003,3l0.168,0.172l1.826,1.828v4.172v2H11.011z"/>
<g>
</g>
<g>
</g>
<g>
</g>
<g>
</g>
<g>
</g>
<g>
</g>
<g>
</g>
<g>
</g>
<g>
</g>
<g>
</g>
<g>
</g>
<g>
</g>
<g>
</g>
<g>
</g>
<g>
</g>
</svg>
