<?xml version="1.0" encoding="iso-8859-1"?>
<!-- Generator: Adobe Illustrator 16.0.0, SVG Export Plug-In . SVG Version: 6.00 Build 0)  -->
<!DOCTYPE svg PUBLIC "-//W3C//DTD SVG 1.1//EN" "http://www.w3.org/Graphics/SVG/1.1/DTD/svg11.dtd">
<svg version="1.1" id="Layer_1" xmlns="http://www.w3.org/2000/svg" xmlns:xlink="http://www.w3.org/1999/xlink" x="0px" y="0px"
	 width="16px" height="14px" viewBox="0 0 16 14" style="enable-background:new 0 0 16 14;" xml:space="preserve">
<g id="Id_1">
	<path style="fill-rule:evenodd;clip-rule:evenodd;" d="M7.5,3h-4C3.224,3,3,3.224,3,3.5v7C3,10.776,3.224,11,3.5,11h4
		C7.776,11,8,10.776,8,10.5v-7C8,3.224,7.776,3,7.5,3z"/>
	<path style="fill-rule:evenodd;clip-rule:evenodd;" d="M12.5,3h-3C9.224,3,9,3.224,9,3.5v1C9,4.776,9.224,5,9.5,5h3
		C12.776,5,13,4.776,13,4.5v-1C13,3.224,12.776,3,12.5,3z"/>
	<path style="fill-rule:evenodd;clip-rule:evenodd;" d="M12.5,6h-3C9.224,6,9,6.224,9,6.5v1C9,7.776,9.224,8,9.5,8h3
		C12.776,8,13,7.776,13,7.5v-1C13,6.224,12.776,6,12.5,6z"/>
	<path style="fill-rule:evenodd;clip-rule:evenodd;" d="M12.5,9h-3C9.224,9,9,9.224,9,9.5v1C9,10.776,9.224,11,9.5,11h3
		c0.276,0,0.5-0.224,0.5-0.5v-1C13,9.224,12.776,9,12.5,9z"/>
	<path style="fill-rule:evenodd;clip-rule:evenodd;" d="M15,0H1C0.447,0,0,0.447,0,1v12c0,0.553,0.447,1,1,1h14c0.553,0,1-0.447,1-1
		V1C16,0.447,15.553,0,15,0z M14,12H2V2h12V12z"/>
</g>
<g>
</g>
<g>
</g>
<g>
</g>
<g>
</g>
<g>
</g>
<g>
</g>
<g>
</g>
<g>
</g>
<g>
</g>
<g>
</g>
<g>
</g>
<g>
</g>
<g>
</g>
<g>
</g>
<g>
</g>
</svg>
