<?xml version="1.0" encoding="iso-8859-1"?>
<!-- Generator: Adobe Illustrator 16.0.0, SVG Export Plug-In . SVG Version: 6.00 Build 0)  -->
<!DOCTYPE svg PUBLIC "-//W3C//DTD SVG 1.1//EN" "http://www.w3.org/Graphics/SVG/1.1/DTD/svg11.dtd">
<svg version="1.1" id="Layer_1" xmlns="http://www.w3.org/2000/svg" xmlns:xlink="http://www.w3.org/1999/xlink" x="0px" y="0px"
	 width="16px" height="14px" viewBox="0 0 16 14" style="enable-background:new 0 0 16 14;" xml:space="preserve">
<g id="Id_2">
	<path style="fill-rule:evenodd;clip-rule:evenodd;" d="M15,0H1C0.447,0,0,0.447,0,1v12c0,0.553,0.447,1,1,1h14c0.553,0,1-0.447,1-1
		V1C16,0.447,15.553,0,15,0z M14,12H2V2h12V12z"/>
	<path style="fill-rule:evenodd;clip-rule:evenodd;" d="M12.5,6h-3C9.224,6,9,6.224,9,6.5v1C9,7.776,9.224,8,9.5,8h3
		C12.776,8,13,7.776,13,7.5v-1C13,6.224,12.776,6,12.5,6z"/>
	<path style="fill-rule:evenodd;clip-rule:evenodd;" d="M12.5,3h-3C9.224,3,9,3.224,9,3.5v1C9,4.776,9.224,5,9.5,5h3
		C12.776,5,13,4.776,13,4.5v-1C13,3.224,12.776,3,12.5,3z"/>
	<path style="fill-rule:evenodd;clip-rule:evenodd;" d="M7,7.184V6.723C7.596,6.376,8,5.738,8,5c0-1.104-0.896-2-2-2S4,3.896,4,5
		c0,0.738,0.404,1.376,1,1.723v0.461C3.838,7.598,3,8.695,3,10v0.5C3,10.776,3.224,11,3.5,11h5C8.776,11,9,10.776,9,10.5V10
		C9,8.695,8.162,7.598,7,7.184z"/>
</g>
<g>
</g>
<g>
</g>
<g>
</g>
<g>
</g>
<g>
</g>
<g>
</g>
<g>
</g>
<g>
</g>
<g>
</g>
<g>
</g>
<g>
</g>
<g>
</g>
<g>
</g>
<g>
</g>
<g>
</g>
</svg>
