<?xml version="1.0" encoding="iso-8859-1"?>
<!-- Generator: Adobe Illustrator 16.0.0, SVG Export Plug-In . SVG Version: 6.00 Build 0)  -->
<!DOCTYPE svg PUBLIC "-//W3C//DTD SVG 1.1//EN" "http://www.w3.org/Graphics/SVG/1.1/DTD/svg11.dtd">
<svg version="1.1" id="Layer_1" xmlns="http://www.w3.org/2000/svg" xmlns:xlink="http://www.w3.org/1999/xlink" x="0px" y="0px"
	 width="14px" height="16px" viewBox="0 0 14 16" style="enable-background:new 0 0 14 16;" xml:space="preserve">
<g id="Import_Document_1">
	<path style="fill-rule:evenodd;clip-rule:evenodd;" d="M13.646,3.646l-3.293-3.293C10.158,0.158,9.776,0,9.5,0H1
		C0.447,0,0,0.447,0,1v4.5C0,5.776,0.224,6,0.5,6h1C1.776,6,2,5.776,2,5.5V2h6v3.5C8,5.776,8.224,6,8.5,6H12v8H2v-1.5
		C2,12.224,1.776,12,1.5,12h-1C0.224,12,0,12.224,0,12.5V15c0,0.553,0.447,1,1,1h12c0.553,0,1-0.447,1-1V4.5
		C14,4.224,13.842,3.842,13.646,3.646z"/>
	<path style="fill-rule:evenodd;clip-rule:evenodd;" d="M0.501,10H4v1.695c0,0.297,0.265,0.394,0.5,0.215l3.322-2.587
		c0.235-0.179,0.238-0.468,0.004-0.646L4.5,6.09C4.264,5.911,4,6.008,4,6.305V8H0.501C0.225,8,0,8.224,0,8.5v1
		C0,9.776,0.225,10,0.501,10z"/>
</g>
<g>
</g>
<g>
</g>
<g>
</g>
<g>
</g>
<g>
</g>
<g>
</g>
<g>
</g>
<g>
</g>
<g>
</g>
<g>
</g>
<g>
</g>
<g>
</g>
<g>
</g>
<g>
</g>
<g>
</g>
</svg>
