<?xml version="1.0" encoding="iso-8859-1"?>
<!-- Generator: Adobe Illustrator 16.0.0, SVG Export Plug-In . SVG Version: 6.00 Build 0)  -->
<!DOCTYPE svg PUBLIC "-//W3C//DTD SVG 1.1//EN" "http://www.w3.org/Graphics/SVG/1.1/DTD/svg11.dtd">
<svg version="1.1" id="Layer_1" xmlns="http://www.w3.org/2000/svg" xmlns:xlink="http://www.w3.org/1999/xlink" x="0px" y="0px"
	 width="16px" height="16px" viewBox="0 0 16 16" style="enable-background:new 0 0 16 16;" xml:space="preserve">
<g id="Inbox_4">
	<path d="M15,0H1C0.447,0,0,0.447,0,1v13v1c0,0.553,0.447,1,1,1h14c0.553,0,1-0.447,1-1V1C16,0.447,15.553,0,15,0z M12,11
		c-0.553,0-1,0.447-1,1v1.5c0,0.276-0.224,0.5-0.5,0.5h-5C5.224,14,5,13.776,5,13.5V12c0-0.553-0.447-1-1-1H2V2h12v9H12z"/>
	<path style="fill-rule:evenodd;clip-rule:evenodd;" d="M5.5,8H7v1.5C7,9.776,7.224,10,7.5,10h1C8.776,10,9,9.776,9,9.5V8h1.5
		C10.776,8,11,7.776,11,7.5v-1C11,6.224,10.776,6,10.5,6H9V4.5C9,4.224,8.776,4,8.5,4h-1C7.224,4,7,4.224,7,4.5V6H5.5
		C5.224,6,5,6.224,5,6.5v1C5,7.776,5.224,8,5.5,8z"/>
</g>
<g>
</g>
<g>
</g>
<g>
</g>
<g>
</g>
<g>
</g>
<g>
</g>
<g>
</g>
<g>
</g>
<g>
</g>
<g>
</g>
<g>
</g>
<g>
</g>
<g>
</g>
<g>
</g>
<g>
</g>
</svg>
