<?xml version="1.0" encoding="iso-8859-1"?>
<!-- Generator: Adobe Illustrator 16.0.0, SVG Export Plug-In . SVG Version: 6.00 Build 0)  -->
<!DOCTYPE svg PUBLIC "-//W3C//DTD SVG 1.1//EN" "http://www.w3.org/Graphics/SVG/1.1/DTD/svg11.dtd">
<svg version="1.1" id="Layer_1" xmlns="http://www.w3.org/2000/svg" xmlns:xlink="http://www.w3.org/1999/xlink" x="0px" y="0px"
	 width="16px" height="9px" viewBox="0 0 16 9" style="enable-background:new 0 0 16 9;" xml:space="preserve">
<path id="Infinity_1_x2C__Loop_1" d="M10.022,0.248C9.762,0.34,9.66,0.643,9.781,0.891l0.438,0.898
	c0.121,0.248,0.421,0.346,0.689,0.28C11.098,2.023,11.296,2,11.5,2C12.879,2,14,3.121,14,4.5S12.879,7,11.5,7S9,5.879,9,4.5
	C9,2.019,6.981,0,4.5,0S0,2.019,0,4.5S2.019,9,4.5,9c0.515,0,1.01-0.083,1.478-0.248C6.238,8.66,6.34,8.357,6.219,8.109L5.781,7.211
	C5.66,6.963,5.36,6.865,5.092,6.931C4.902,6.977,4.704,7,4.5,7C3.121,7,2,5.879,2,4.5S3.121,2,4.5,2C5.866,2,6.98,3.102,7,4.463
	l0.021,0.465C7.236,7.209,9.163,9,11.5,9C13.981,9,16,6.981,16,4.5S13.981,0,11.5,0C10.985,0,10.49,0.083,10.022,0.248z"/>
<g>
</g>
<g>
</g>
<g>
</g>
<g>
</g>
<g>
</g>
<g>
</g>
<g>
</g>
<g>
</g>
<g>
</g>
<g>
</g>
<g>
</g>
<g>
</g>
<g>
</g>
<g>
</g>
<g>
</g>
</svg>
