<?xml version="1.0" encoding="iso-8859-1"?>
<!-- Generator: Adobe Illustrator 16.0.0, SVG Export Plug-In . SVG Version: 6.00 Build 0)  -->
<!DOCTYPE svg PUBLIC "-//W3C//DTD SVG 1.1//EN" "http://www.w3.org/Graphics/SVG/1.1/DTD/svg11.dtd">
<svg version="1.1" id="Layer_1" xmlns="http://www.w3.org/2000/svg" xmlns:xlink="http://www.w3.org/1999/xlink" x="0px" y="0px"
	 width="17.207px" height="10px" viewBox="0 0 17.207 10" style="enable-background:new 0 0 17.207 10;" xml:space="preserve">
<g id="Key_2_x2C__Password_2">
	<path d="M17.061,4.646l-2.293-2.293C14.572,2.158,14.19,2,13.914,2H8V1c0-0.553-0.447-1-1-1H1C0.447,0,0,0.447,0,1v8.125
		C0,9.678,0.447,10,1,10h6c0.553,0,1-0.447,1-1V8h0.586l1.061,1.061c0.195,0.195,0.512,0.195,0.707,0L11.414,8h0.172l1.061,1.061
		c0.195,0.195,0.512,0.195,0.707,0l3.707-3.707C17.256,5.158,17.256,4.842,17.061,4.646z M13,6.586L12.414,6h-1.828L10,6.586
		L9.414,6H6v2H2V2h4v2h7.586l1,1L13,6.586z"/>
	<path d="M4.5,3h-1C3.224,3,3,3.224,3,3.5v3C3,6.776,3.224,7,3.5,7h1C4.776,7,5,6.776,5,6.5v-3C5,3.224,4.776,3,4.5,3z"/>
</g>
<g>
</g>
<g>
</g>
<g>
</g>
<g>
</g>
<g>
</g>
<g>
</g>
<g>
</g>
<g>
</g>
<g>
</g>
<g>
</g>
<g>
</g>
<g>
</g>
<g>
</g>
<g>
</g>
<g>
</g>
</svg>
