<?xml version="1.0" encoding="iso-8859-1"?>
<!-- Generator: Adobe Illustrator 16.0.0, SVG Export Plug-In . SVG Version: 6.00 Build 0)  -->
<!DOCTYPE svg PUBLIC "-//W3C//DTD SVG 1.1//EN" "http://www.w3.org/Graphics/SVG/1.1/DTD/svg11.dtd">
<svg version="1.1" id="Layer_1" xmlns="http://www.w3.org/2000/svg" xmlns:xlink="http://www.w3.org/1999/xlink" x="0px" y="0px"
	 width="16px" height="16px" viewBox="0 0 16 16" style="enable-background:new 0 0 16 16;" xml:space="preserve">
<g id="Layout_3">
	<path d="M11.5,4h-2C9.224,4,9,4.224,9,4.5v7C9,11.776,9.224,12,9.5,12h2c0.276,0,0.5-0.224,0.5-0.5v-7C12,4.224,11.776,4,11.5,4z"
		/>
	<path d="M6.5,7h-2C4.224,7,4,7.224,4,7.5v1C4,8.776,4.224,9,4.5,9h2C6.776,9,7,8.776,7,8.5v-1C7,7.224,6.776,7,6.5,7z"/>
	<path d="M6.5,4h-2C4.224,4,4,4.224,4,4.5v1C4,5.776,4.224,6,4.5,6h2C6.776,6,7,5.776,7,5.5v-1C7,4.224,6.776,4,6.5,4z"/>
	<path d="M6.5,10h-2C4.224,10,4,10.224,4,10.5v1C4,11.776,4.224,12,4.5,12h2C6.776,12,7,11.776,7,11.5v-1C7,10.224,6.776,10,6.5,10z
		"/>
	<path d="M15,0H1C0.447,0,0,0.447,0,1v14c0,0.553,0.447,1,1,1h14c0.553,0,1-0.447,1-1V1C16,0.447,15.553,0,15,0z M14,14H2V2h12V14z"
		/>
</g>
<g>
</g>
<g>
</g>
<g>
</g>
<g>
</g>
<g>
</g>
<g>
</g>
<g>
</g>
<g>
</g>
<g>
</g>
<g>
</g>
<g>
</g>
<g>
</g>
<g>
</g>
<g>
</g>
<g>
</g>
</svg>
