<?xml version="1.0" encoding="iso-8859-1"?>
<!-- Generator: Adobe Illustrator 16.0.0, SVG Export Plug-In . SVG Version: 6.00 Build 0)  -->
<!DOCTYPE svg PUBLIC "-//W3C//DTD SVG 1.1//EN" "http://www.w3.org/Graphics/SVG/1.1/DTD/svg11.dtd">
<svg version="1.1" id="Layer_1" xmlns="http://www.w3.org/2000/svg" xmlns:xlink="http://www.w3.org/1999/xlink" x="0px" y="0px"
	 width="16px" height="16px" viewBox="0 0 16 16" style="enable-background:new 0 0 16 16;" xml:space="preserve">
<g id="Left_Angle_Quote_2">
	<path d="M15,0H1C0.447,0,0,0.447,0,1v14c0,0.553,0.447,1,1,1h14c0.553,0,1-0.447,1-1V1C16,0.447,15.553,0,15,0z M14,14H2V2h12V14z"
		/>
	<path d="M6.502,11.853c0.188,0.196,0.491,0.196,0.679,0l0.679-0.709c0.188-0.196,0.188-0.514,0-0.71L5.517,7.984l2.312-2.418
		c0.188-0.195,0.188-0.514,0-0.709L7.15,4.146c-0.188-0.195-0.491-0.195-0.679,0L3.141,7.629c-0.188,0.197-0.188,0.514,0,0.711
		L6.502,11.853z"/>
	<path d="M11.502,11.853c0.188,0.196,0.491,0.196,0.679,0l0.679-0.709c0.188-0.196,0.188-0.514,0-0.71l-2.343-2.449l2.312-2.418
		c0.188-0.195,0.188-0.514,0-0.709L12.15,4.146c-0.188-0.195-0.491-0.195-0.679,0L8.141,7.629c-0.188,0.197-0.188,0.514,0,0.711
		L11.502,11.853z"/>
</g>
<g>
</g>
<g>
</g>
<g>
</g>
<g>
</g>
<g>
</g>
<g>
</g>
<g>
</g>
<g>
</g>
<g>
</g>
<g>
</g>
<g>
</g>
<g>
</g>
<g>
</g>
<g>
</g>
<g>
</g>
</svg>
