<?xml version="1.0" encoding="iso-8859-1"?>
<!-- Generator: Adobe Illustrator 16.0.0, SVG Export Plug-In . SVG Version: 6.00 Build 0)  -->
<!DOCTYPE svg PUBLIC "-//W3C//DTD SVG 1.1//EN" "http://www.w3.org/Graphics/SVG/1.1/DTD/svg11.dtd">
<svg version="1.1" id="Layer_1" xmlns="http://www.w3.org/2000/svg" xmlns:xlink="http://www.w3.org/1999/xlink" x="0px" y="0px"
	 width="10px" height="16.001px" viewBox="0 0 10 16.001" style="enable-background:new 0 0 10 16.001;" xml:space="preserve">
<g id="Lightbulb_2">
	<path d="M3,15.001c0.376,0,0.706,0.211,0.876,0.521c0.133,0.241,0.347,0.479,0.624,0.479h1c0.276,0,0.49-0.238,0.624-0.479
		c0.17-0.31,0.5-0.521,0.876-0.521c0.55,0,1-0.45,1-1v-1.5c0-0.276-0.224-0.5-0.5-0.5h-5c-0.276,0-0.5,0.224-0.5,0.5v1.5
		C2,14.551,2.45,15.001,3,15.001z"/>
	<path d="M8.876,4.009l-8,1C0.328,5.077-0.061,5.577,0.008,6.125c0.063,0.506,0.494,0.876,0.991,0.876
		c0.042,0,0.083-0.002,0.125-0.008l8-1c0.548-0.068,0.937-0.568,0.868-1.116S9.416,3.938,8.876,4.009z"/>
	<path d="M0.999,3.001c0.042,0,0.083-0.002,0.125-0.008l8-1c0.548-0.068,0.937-0.568,0.868-1.116S9.416-0.062,8.876,0.009l-8,1
		C0.328,1.077-0.061,1.577,0.008,2.125C0.071,2.631,0.502,3.001,0.999,3.001z"/>
	<path d="M8.876,8.009l-8,1c-0.548,0.068-0.937,0.568-0.868,1.116c0.063,0.506,0.494,0.876,0.991,0.876
		c0.042,0,0.083-0.002,0.125-0.008l8-1c0.548-0.068,0.937-0.568,0.868-1.116S9.416,7.938,8.876,8.009z"/>
</g>
<g>
</g>
<g>
</g>
<g>
</g>
<g>
</g>
<g>
</g>
<g>
</g>
<g>
</g>
<g>
</g>
<g>
</g>
<g>
</g>
<g>
</g>
<g>
</g>
<g>
</g>
<g>
</g>
<g>
</g>
</svg>
