<?xml version="1.0" encoding="iso-8859-1"?>
<!-- Generator: Adobe Illustrator 16.0.0, SVG Export Plug-In . SVG Version: 6.00 Build 0)  -->
<!DOCTYPE svg PUBLIC "-//W3C//DTD SVG 1.1//EN" "http://www.w3.org/Graphics/SVG/1.1/DTD/svg11.dtd">
<svg version="1.1" id="Layer_1" xmlns="http://www.w3.org/2000/svg" xmlns:xlink="http://www.w3.org/1999/xlink" x="0px" y="0px"
	 width="12px" height="17px" viewBox="0 0 12 17" style="enable-background:new 0 0 12 17;" xml:space="preserve">
<g id="Lightbulb_3">
	<path d="M4,16c0,0.553,0.447,1,1,1h2c0.553,0,1-0.447,1-1h0.5C8.776,16,9,15.776,9,15.5v-1C9,14.224,8.776,14,8.5,14h-5
		C3.224,14,3,14.224,3,14.5v1C3,15.776,3.224,16,3.5,16H4z"/>
	<path d="M0,6c0,1.539,0.584,2.938,1.537,4c0.827,0.827,1.203,1.897,1.361,2.51C2.967,12.777,3.224,13,3.5,13h5
		c0.276,0,0.533-0.223,0.602-0.49c0.158-0.612,0.534-1.683,1.361-2.51C11.416,8.938,12,7.539,12,6c0-3.313-2.687-6-6-6S0,2.687,0,6z
		 M9.003,8.632C8.264,9.387,7.792,10.256,7.495,11h-2.99c-0.297-0.744-0.769-1.613-1.508-2.368C2.354,7.898,2,6.966,2,6
		c0-2.205,1.795-4,4-4s4,1.795,4,4C10,6.966,9.646,7.898,9.003,8.632z"/>
</g>
<g>
</g>
<g>
</g>
<g>
</g>
<g>
</g>
<g>
</g>
<g>
</g>
<g>
</g>
<g>
</g>
<g>
</g>
<g>
</g>
<g>
</g>
<g>
</g>
<g>
</g>
<g>
</g>
<g>
</g>
</svg>
