<?xml version="1.0" encoding="iso-8859-1"?>
<!-- Generator: Adobe Illustrator 16.0.0, SVG Export Plug-In . SVG Version: 6.00 Build 0)  -->
<!DOCTYPE svg PUBLIC "-//W3C//DTD SVG 1.1//EN" "http://www.w3.org/Graphics/SVG/1.1/DTD/svg11.dtd">
<svg version="1.1" id="Layer_1" xmlns="http://www.w3.org/2000/svg" xmlns:xlink="http://www.w3.org/1999/xlink" x="0px" y="0px"
	 width="16px" height="8px" viewBox="0 0 16 8" style="enable-background:new 0 0 16 8;" xml:space="preserve">
<path id="Link_1" d="M16,2v4c0,1.1-0.9,2-2,2h-4C9.45,8,9,7.55,9,7s0.45-1,1-1h3c0.55,0,1-0.45,1-1V3c0-0.55-0.45-1-1-1h-2.46
	L9.87,3H11c0.55,0,1,0.45,1,1s-0.45,1-1,1H8.54L6.83,7.55L6.82,7.54C6.64,7.81,6.35,8,6,8H2C0.89,8,0,7.1,0,6V2c0-1.1,0.9-2,2-2h4
	c0.55,0,1,0.45,1,1S6.55,2,6,2H3C2.45,2,2,2.45,2,3v2c0,0.55,0.45,1,1,1h2.46l0.67-1H5C4.45,5,4,4.55,4,4s0.45-1,1-1h2.46l1.71-2.55
	l0.01,0.01C9.36,0.19,9.65,0,10,0h4C15.1,0,16,0.89,16,2z"/>
<g>
</g>
<g>
</g>
<g>
</g>
<g>
</g>
<g>
</g>
<g>
</g>
<g>
</g>
<g>
</g>
<g>
</g>
<g>
</g>
<g>
</g>
<g>
</g>
<g>
</g>
<g>
</g>
<g>
</g>
</svg>
