<?xml version="1.0" encoding="iso-8859-1"?>
<!-- Generator: Adobe Illustrator 16.0.0, SVG Export Plug-In . SVG Version: 6.00 Build 0)  -->
<!DOCTYPE svg PUBLIC "-//W3C//DTD SVG 1.1//EN" "http://www.w3.org/Graphics/SVG/1.1/DTD/svg11.dtd">
<svg version="1.1" id="Layer_1" xmlns="http://www.w3.org/2000/svg" xmlns:xlink="http://www.w3.org/1999/xlink" x="0px" y="0px"
	 width="16.001px" height="16px" viewBox="0 0 16.001 16" style="enable-background:new 0 0 16.001 16;" xml:space="preserve">
<g id="Loading_1">
	<path style="fill-rule:evenodd;clip-rule:evenodd;" d="M8.001,0c-0.553,0-1,0.447-1,1v3c0,0.553,0.447,1,1,1s1-0.447,1-1V1
		C9.001,0.447,8.554,0,8.001,0z"/>
	<path style="fill-rule:evenodd;clip-rule:evenodd;" d="M11.536,5.879l2.121-2.121c0.391-0.391,0.391-1.023,0-1.414
		c-0.391-0.392-1.023-0.391-1.414,0l-2.121,2.121c-0.391,0.391-0.391,1.023,0,1.414S11.146,6.27,11.536,5.879z"/>
	<path style="fill-rule:evenodd;clip-rule:evenodd;" d="M15.001,7h-3c-0.553,0-1,0.447-1,1s0.447,1,1,1h3c0.553,0,1-0.447,1-1
		S15.554,7,15.001,7z"/>
	<path style="fill-rule:evenodd;clip-rule:evenodd;" d="M11.536,10.121c-0.391-0.391-1.023-0.391-1.414,0s-0.391,1.024,0,1.414
		l2.121,2.122c0.391,0.391,1.023,0.391,1.414-0.001c0.391-0.391,0.391-1.023,0-1.414L11.536,10.121z"/>
	<path style="fill-rule:evenodd;clip-rule:evenodd;" d="M8.001,11c-0.553,0-1,0.447-1,1v3c0,0.553,0.447,1,1,1s1-0.447,1-1v-3
		C9.001,11.447,8.554,11,8.001,11z"/>
	<path style="fill-rule:evenodd;clip-rule:evenodd;" d="M4.466,10.121l-2.121,2.121c-0.392,0.392-0.392,1.024-0.001,1.415
		c0.39,0.39,1.023,0.391,1.415-0.001l2.121-2.121c0.391-0.391,0.39-1.023,0-1.414C5.489,9.73,4.856,9.73,4.466,10.121z"/>
	<path style="fill-rule:evenodd;clip-rule:evenodd;" d="M5.001,8c0-0.553-0.447-1-1-1h-3C0.447,7,0,7.447,0,8
		c0.001,0.551,0.447,1,1.001,1h3C4.554,9,5,8.552,5.001,8z"/>
	<path style="fill-rule:evenodd;clip-rule:evenodd;" d="M3.759,2.344C3.366,1.951,2.733,1.951,2.343,2.342
		C1.954,2.732,1.952,3.366,2.344,3.758l2.12,2.121c0.392,0.391,1.025,0.389,1.416,0c0.391-0.391,0.391-1.023,0-1.414L3.759,2.344z"
		/>
</g>
<g>
</g>
<g>
</g>
<g>
</g>
<g>
</g>
<g>
</g>
<g>
</g>
<g>
</g>
<g>
</g>
<g>
</g>
<g>
</g>
<g>
</g>
<g>
</g>
<g>
</g>
<g>
</g>
<g>
</g>
</svg>
