<?xml version="1.0" encoding="iso-8859-1"?>
<!-- Generator: Adobe Illustrator 16.0.0, SVG Export Plug-In . SVG Version: 6.00 Build 0)  -->
<!DOCTYPE svg PUBLIC "-//W3C//DTD SVG 1.1//EN" "http://www.w3.org/Graphics/SVG/1.1/DTD/svg11.dtd">
<svg version="1.1" id="Layer_1" xmlns="http://www.w3.org/2000/svg" xmlns:xlink="http://www.w3.org/1999/xlink" x="0px" y="0px"
	 width="16px" height="16px" viewBox="0 0 16 16" style="enable-background:new 0 0 16 16;" xml:space="preserve">
<g id="Location_Pin_6">
	<path d="M15,7h-1.311c-0.276,0-0.608,0.195-0.765,0.423c-0.337,0.488-0.746,0.92-1.209,1.284C11.498,8.878,11.534,9,11.811,9H14v5
		H2V9h2.189c0.276,0,0.312-0.122,0.095-0.293C3.821,8.343,3.412,7.911,3.075,7.423C2.919,7.195,2.587,7,2.311,7H1C0.45,7,0,7.45,0,8
		v7c0,0.55,0.45,1,1,1h14c0.55,0,1-0.45,1-1V8C16,7.45,15.55,7,15,7z"/>
	<path d="M6.525,7.703C6.782,7.805,7,8.082,7,8.358V11.5C7,11.776,7.224,12,7.5,12h1C8.776,12,9,11.776,9,11.5V8.358
		c0-0.276,0.218-0.554,0.475-0.655C10.951,7.117,12,5.686,12,4c0-2.209-1.792-4-4-4S4,1.791,4,4C4,5.686,5.049,7.117,6.525,7.703z
		 M8,2c1.104,0,2,0.896,2,2S9.104,6,8,6S6,5.104,6,4S6.896,2,8,2z"/>
</g>
<g>
</g>
<g>
</g>
<g>
</g>
<g>
</g>
<g>
</g>
<g>
</g>
<g>
</g>
<g>
</g>
<g>
</g>
<g>
</g>
<g>
</g>
<g>
</g>
<g>
</g>
<g>
</g>
<g>
</g>
</svg>
