<?xml version="1.0" encoding="iso-8859-1"?>
<!-- Generator: Adobe Illustrator 16.0.0, SVG Export Plug-In . SVG Version: 6.00 Build 0)  -->
<!DOCTYPE svg PUBLIC "-//W3C//DTD SVG 1.1//EN" "http://www.w3.org/Graphics/SVG/1.1/DTD/svg11.dtd">
<svg version="1.1" id="Layer_1" xmlns="http://www.w3.org/2000/svg" xmlns:xlink="http://www.w3.org/1999/xlink" x="0px" y="0px"
	 width="12px" height="16px" viewBox="0 0 12 16" style="enable-background:new 0 0 12 16;" xml:space="preserve">
<g id="Lock_2">
	<path d="M11,6V5c0-2.762-2.238-5-5-5S1,2.238,1,5v1C0.447,6,0,6.447,0,7v8c0,0.553,0.447,1,1,1h10c0.553,0,1-0.447,1-1V7
		C12,6.447,11.553,6,11,6z M3,5c0-1.654,1.346-3,3-3s3,1.346,3,3v1H8H4H3V5z M10,14H2V8h8V14z"/>
	<path d="M5.5,13h1C6.776,13,7,12.776,7,12.5V10c0-0.553-0.447-1-1-1s-1,0.447-1,1v2.5C5,12.776,5.224,13,5.5,13z"/>
</g>
<g>
</g>
<g>
</g>
<g>
</g>
<g>
</g>
<g>
</g>
<g>
</g>
<g>
</g>
<g>
</g>
<g>
</g>
<g>
</g>
<g>
</g>
<g>
</g>
<g>
</g>
<g>
</g>
<g>
</g>
</svg>
