<?xml version="1.0" encoding="iso-8859-1"?>
<!-- Generator: Adobe Illustrator 16.0.0, SVG Export Plug-In . SVG Version: 6.00 Build 0)  -->
<!DOCTYPE svg PUBLIC "-//W3C//DTD SVG 1.1//EN" "http://www.w3.org/Graphics/SVG/1.1/DTD/svg11.dtd">
<svg version="1.1" id="Layer_1" xmlns="http://www.w3.org/2000/svg" xmlns:xlink="http://www.w3.org/1999/xlink" x="0px" y="0px"
	 width="14px" height="16px" viewBox="0 0 14 16" style="enable-background:new 0 0 14 16;" xml:space="preserve">
<g id="Logout_1_x2C__Shut_Down_1">
	<path style="fill-rule:evenodd;clip-rule:evenodd;" d="M10,3.182v1.49c0,0.276,0.182,0.485,0.385,0.672C11.374,6.255,12,7.552,12,9
		c0,2.757-2.243,5-5,5s-5-2.243-5-5c0-1.448,0.626-2.745,1.615-3.656C3.818,5.157,4,4.964,4,4.688V3.182
		c0-0.276-0.204-0.405-0.444-0.269C1.434,4.114,0,6.388,0,9c0,3.866,3.135,7,7,7s7-3.134,7-7c0-2.612-1.434-4.886-3.556-6.087
		C10.204,2.776,10,2.905,10,3.182z"/>
	<path style="fill-rule:evenodd;clip-rule:evenodd;" d="M7,7c0.553,0,1-0.447,1-1V1c0-0.553-0.447-1-1-1S6,0.447,6,1v5
		C6,6.553,6.447,7,7,7z"/>
</g>
<g>
</g>
<g>
</g>
<g>
</g>
<g>
</g>
<g>
</g>
<g>
</g>
<g>
</g>
<g>
</g>
<g>
</g>
<g>
</g>
<g>
</g>
<g>
</g>
<g>
</g>
<g>
</g>
<g>
</g>
</svg>
