<?xml version="1.0" encoding="iso-8859-1"?>
<!-- Generator: Adobe Illustrator 16.0.0, SVG Export Plug-In . SVG Version: 6.00 Build 0)  -->
<!DOCTYPE svg PUBLIC "-//W3C//DTD SVG 1.1//EN" "http://www.w3.org/Graphics/SVG/1.1/DTD/svg11.dtd">
<svg version="1.1" id="Layer_1" xmlns="http://www.w3.org/2000/svg" xmlns:xlink="http://www.w3.org/1999/xlink" x="0px" y="0px"
	 width="16px" height="16px" viewBox="0 0 16 16" style="enable-background:new 0 0 16 16;" xml:space="preserve">
<g id="Logout_2">
	<path style="fill-rule:evenodd;clip-rule:evenodd;" d="M15,0H1C0.447,0,0,0.447,0,1v14c0,0.553,0.447,1,1,1h14c0.553,0,1-0.447,1-1
		v-3.5c0-0.276-0.224-0.5-0.5-0.5h-1c-0.276,0-0.5,0.224-0.5,0.5V14H2V2h12v2.5C14,4.776,14.224,5,14.5,5h1
		C15.776,5,16,4.776,16,4.5V1C16,0.447,15.553,0,15,0z"/>
	<path style="fill-rule:evenodd;clip-rule:evenodd;" d="M15.5,7H10V5.305c0-0.297-0.265-0.394-0.5-0.215L6.178,7.677
		C5.943,7.855,5.939,8.145,6.174,8.323L9.5,10.91c0.236,0.179,0.5,0.082,0.5-0.215V9h5.5C15.775,9,16,8.776,16,8.5v-1
		C16,7.224,15.775,7,15.5,7z"/>
</g>
<g>
</g>
<g>
</g>
<g>
</g>
<g>
</g>
<g>
</g>
<g>
</g>
<g>
</g>
<g>
</g>
<g>
</g>
<g>
</g>
<g>
</g>
<g>
</g>
<g>
</g>
<g>
</g>
<g>
</g>
</svg>
