<?xml version="1.0" encoding="iso-8859-1"?>
<!-- Generator: Adobe Illustrator 16.0.0, SVG Export Plug-In . SVG Version: 6.00 Build 0)  -->
<!DOCTYPE svg PUBLIC "-//W3C//DTD SVG 1.1//EN" "http://www.w3.org/Graphics/SVG/1.1/DTD/svg11.dtd">
<svg version="1.1" id="Layer_1" xmlns="http://www.w3.org/2000/svg" xmlns:xlink="http://www.w3.org/1999/xlink" x="0px" y="0px"
	 width="16px" height="14px" viewBox="0 0 16 14" style="enable-background:new 0 0 16 14;" xml:space="preserve">
<g id="Mail_3_x2C__Envelope_3">
	<path style="fill-rule:evenodd;clip-rule:evenodd;" d="M15,0H1C0.447,0,0,0.447,0,1v12c0,0.553,0.447,1,1,1h14c0.553,0,1-0.447,1-1
		V1C16,0.447,15.553,0,15,0z M14,12H2V2h12V12z"/>
	<path style="fill-rule:evenodd;clip-rule:evenodd;" d="M10.5,6h2C12.776,6,13,5.776,13,5.5v-2C13,3.224,12.776,3,12.5,3h-2
		C10.224,3,10,3.224,10,3.5v2C10,5.776,10.224,6,10.5,6z"/>
	<path style="fill-rule:evenodd;clip-rule:evenodd;" d="M3.5,8h5C8.776,8,9,7.776,9,7.5v-1C9,6.224,8.776,6,8.5,6h-5
		C3.224,6,3,6.224,3,6.5v1C3,7.776,3.224,8,3.5,8z"/>
	<path style="fill-rule:evenodd;clip-rule:evenodd;" d="M3.5,11h5C8.776,11,9,10.776,9,10.5v-1C9,9.224,8.776,9,8.5,9h-5
		C3.224,9,3,9.224,3,9.5v1C3,10.776,3.224,11,3.5,11z"/>
</g>
<g>
</g>
<g>
</g>
<g>
</g>
<g>
</g>
<g>
</g>
<g>
</g>
<g>
</g>
<g>
</g>
<g>
</g>
<g>
</g>
<g>
</g>
<g>
</g>
<g>
</g>
<g>
</g>
<g>
</g>
</svg>
