<?xml version="1.0" encoding="iso-8859-1"?>
<!-- Generator: Adobe Illustrator 16.0.0, SVG Export Plug-In . SVG Version: 6.00 Build 0)  -->
<!DOCTYPE svg PUBLIC "-//W3C//DTD SVG 1.1//EN" "http://www.w3.org/Graphics/SVG/1.1/DTD/svg11.dtd">
<svg version="1.1" id="Layer_1" xmlns="http://www.w3.org/2000/svg" xmlns:xlink="http://www.w3.org/1999/xlink" x="0px" y="0px"
	 width="16px" height="16px" viewBox="0 0 16 16" style="enable-background:new 0 0 16 16;" xml:space="preserve">
<g id="Maximize_1_x2C__Expand_1">
	<path d="M3.707,2.293l1.586-1.586C5.684,0.316,5.552,0,5,0H0.5C0.224,0,0,0.224,0,0.5V5c0,0.553,0.316,0.684,0.707,0.293
		l1.586-1.586l3.146,3.146c0.195,0.195,0.512,0.195,0.707,0l0.707-0.707c0.195-0.195,0.195-0.512,0-0.707L3.707,2.293z"/>
	<path d="M15.5,0H11c-0.553,0-0.684,0.316-0.293,0.707l1.586,1.586L9.146,5.439c-0.195,0.195-0.195,0.512,0,0.707l0.707,0.707
		c0.195,0.195,0.512,0.195,0.707,0l3.146-3.146l1.586,1.586C15.684,5.684,16,5.553,16,5V0.5C16,0.224,15.776,0,15.5,0z"/>
	<path d="M15.293,10.707l-1.586,1.586l-3.146-3.146c-0.195-0.195-0.512-0.195-0.707,0L9.146,9.854c-0.195,0.195-0.195,0.512,0,0.707
		l3.146,3.146l-1.586,1.586C10.316,15.684,10.448,16,11,16h4.5c0.276,0,0.5-0.224,0.5-0.5V11C16,10.447,15.684,10.316,15.293,10.707
		z"/>
	<path d="M6.146,9.146c-0.195-0.195-0.512-0.195-0.707,0l-3.146,3.146l-1.586-1.586C0.316,10.316,0,10.447,0,11v4.5
		C0,15.776,0.224,16,0.5,16H5c0.553,0,0.684-0.316,0.293-0.707l-1.586-1.586l3.146-3.146c0.195-0.195,0.195-0.512,0-0.707
		L6.146,9.146z"/>
</g>
<g>
</g>
<g>
</g>
<g>
</g>
<g>
</g>
<g>
</g>
<g>
</g>
<g>
</g>
<g>
</g>
<g>
</g>
<g>
</g>
<g>
</g>
<g>
</g>
<g>
</g>
<g>
</g>
<g>
</g>
</svg>
