<?xml version="1.0" encoding="iso-8859-1"?>
<!-- Generator: Adobe Illustrator 16.0.0, SVG Export Plug-In . SVG Version: 6.00 Build 0)  -->
<!DOCTYPE svg PUBLIC "-//W3C//DTD SVG 1.1//EN" "http://www.w3.org/Graphics/SVG/1.1/DTD/svg11.dtd">
<svg version="1.1" id="Layer_1" xmlns="http://www.w3.org/2000/svg" xmlns:xlink="http://www.w3.org/1999/xlink" x="0px" y="0px"
	 width="16px" height="16px" viewBox="0 0 16 16" style="enable-background:new 0 0 16 16;" xml:space="preserve">
<g id="Media_Gallery_1_x2C__Image_Gallery_1">
	<path style="fill-rule:evenodd;clip-rule:evenodd;" d="M15,0H4C3.447,0,3,0.447,3,1v2H1C0.447,3,0,3.447,0,4v11
		c0,0.553,0.447,1,1,1h11c0.553,0,1-0.447,1-1v-2h2c0.553,0,1-0.447,1-1V1C16,0.447,15.553,0,15,0z M11,14H2V5h9V14z M14,11h-1V4
		c0-0.553-0.447-1-1-1H5V2h9V11z"/>
	<path style="fill-rule:evenodd;clip-rule:evenodd;" d="M5.766,11.881l3.17-1.963c0.363-0.23,0.433-0.604,0.069-0.834L5.766,7.119
		C5.419,6.848,5,7.055,5,7.584v3.832C5,11.945,5.419,12.152,5.766,11.881z"/>
</g>
<g>
</g>
<g>
</g>
<g>
</g>
<g>
</g>
<g>
</g>
<g>
</g>
<g>
</g>
<g>
</g>
<g>
</g>
<g>
</g>
<g>
</g>
<g>
</g>
<g>
</g>
<g>
</g>
<g>
</g>
</svg>
