<?xml version="1.0" encoding="iso-8859-1"?>
<!-- Generator: Adobe Illustrator 16.0.0, SVG Export Plug-In . SVG Version: 6.00 Build 0)  -->
<!DOCTYPE svg PUBLIC "-//W3C//DTD SVG 1.1//EN" "http://www.w3.org/Graphics/SVG/1.1/DTD/svg11.dtd">
<svg version="1.1" id="Layer_1" xmlns="http://www.w3.org/2000/svg" xmlns:xlink="http://www.w3.org/1999/xlink" x="0px" y="0px"
	 width="16px" height="16px" viewBox="0 0 16 16" style="enable-background:new 0 0 16 16;" xml:space="preserve">
<path id="Megaphone_1_x2C__Announcement_1" d="M15,0c-0.553,0-1,0.447-1,1v0.191L0.79,4.022C0.329,4.121,0,4.528,0,5v4
	c0,0.472,0.329,0.879,0.79,0.978L3,10.451V13c0,0.409,0.249,0.776,0.629,0.929l5,2C8.748,15.977,8.874,16,9,16
	c0.197,0,0.393-0.059,0.561-0.172C9.835,15.642,10,15.332,10,15v-3.049l4,0.857V13c0,0.553,0.447,1,1,1s1-0.447,1-1v-1V2V1
	C16,0.447,15.553,0,15,0z M8,13.523l-3-1.2V10.88l3,0.643V13.523z M2,8.191V5.809l12-2.571v7.525L2,8.191z"/>
<g>
</g>
<g>
</g>
<g>
</g>
<g>
</g>
<g>
</g>
<g>
</g>
<g>
</g>
<g>
</g>
<g>
</g>
<g>
</g>
<g>
</g>
<g>
</g>
<g>
</g>
<g>
</g>
<g>
</g>
</svg>
