<?xml version="1.0" encoding="iso-8859-1"?>
<!-- Generator: Adobe Illustrator 16.0.0, SVG Export Plug-In . SVG Version: 6.00 Build 0)  -->
<!DOCTYPE svg PUBLIC "-//W3C//DTD SVG 1.1//EN" "http://www.w3.org/Graphics/SVG/1.1/DTD/svg11.dtd">
<svg version="1.1" id="Layer_1" xmlns="http://www.w3.org/2000/svg" xmlns:xlink="http://www.w3.org/1999/xlink" x="0px" y="0px"
	 width="14px" height="10px" viewBox="0 0 14 10" style="enable-background:new 0 0 14 10;" xml:space="preserve">
<g id="Menu_2">
	<path style="fill-rule:evenodd;clip-rule:evenodd;" d="M1,2h12c0.552,0,1-0.447,1-1s-0.448-1-1-1H1C0.448,0,0,0.447,0,1
		S0.448,2,1,2z"/>
	<path style="fill-rule:evenodd;clip-rule:evenodd;" d="M13,4H1C0.448,4,0,4.447,0,5s0.448,1,1,1h12c0.552,0,1-0.447,1-1
		S13.552,4,13,4z"/>
	<path style="fill-rule:evenodd;clip-rule:evenodd;" d="M13,8H1C0.448,8,0,8.447,0,9s0.448,1,1,1h12c0.552,0,1-0.447,1-1
		S13.552,8,13,8z"/>
</g>
<g>
</g>
<g>
</g>
<g>
</g>
<g>
</g>
<g>
</g>
<g>
</g>
<g>
</g>
<g>
</g>
<g>
</g>
<g>
</g>
<g>
</g>
<g>
</g>
<g>
</g>
<g>
</g>
<g>
</g>
</svg>
