<?xml version="1.0" encoding="iso-8859-1"?>
<!-- Generator: Adobe Illustrator 16.0.0, SVG Export Plug-In . SVG Version: 6.00 Build 0)  -->
<!DOCTYPE svg PUBLIC "-//W3C//DTD SVG 1.1//EN" "http://www.w3.org/Graphics/SVG/1.1/DTD/svg11.dtd">
<svg version="1.1" id="Layer_1" xmlns="http://www.w3.org/2000/svg" xmlns:xlink="http://www.w3.org/1999/xlink" x="0px" y="0px"
	 width="16px" height="10px" viewBox="0 0 16 10" style="enable-background:new 0 0 16 10;" xml:space="preserve">
<g id="Menu_List_2">
	<path style="fill-rule:evenodd;clip-rule:evenodd;" d="M1.5,0h-1C0.224,0,0,0.224,0,0.5v1C0,1.776,0.224,2,0.5,2h1
		C1.776,2,2,1.776,2,1.5v-1C2,0.224,1.776,0,1.5,0z"/>
	<path style="fill-rule:evenodd;clip-rule:evenodd;" d="M15.5,0h-12C3.224,0,3,0.224,3,0.5v1C3,1.776,3.224,2,3.5,2h12
		C15.776,2,16,1.776,16,1.5v-1C16,0.224,15.776,0,15.5,0z"/>
	<path style="fill-rule:evenodd;clip-rule:evenodd;" d="M1.5,4h-1C0.224,4,0,4.224,0,4.5v1C0,5.776,0.224,6,0.5,6h1
		C1.776,6,2,5.776,2,5.5v-1C2,4.224,1.776,4,1.5,4z"/>
	<path style="fill-rule:evenodd;clip-rule:evenodd;" d="M3.5,6h8C11.776,6,12,5.776,12,5.5v-1C12,4.224,11.776,4,11.5,4h-8
		C3.224,4,3,4.224,3,4.5v1C3,5.776,3.224,6,3.5,6z"/>
	<path style="fill-rule:evenodd;clip-rule:evenodd;" d="M1.5,8h-1C0.224,8,0,8.224,0,8.5v1C0,9.776,0.224,10,0.5,10h1
		C1.776,10,2,9.776,2,9.5v-1C2,8.224,1.776,8,1.5,8z"/>
	<path style="fill-rule:evenodd;clip-rule:evenodd;" d="M13.5,8h-10C3.224,8,3,8.224,3,8.5v1C3,9.776,3.224,10,3.5,10h10
		c0.276,0,0.5-0.224,0.5-0.5v-1C14,8.224,13.776,8,13.5,8z"/>
</g>
<g>
</g>
<g>
</g>
<g>
</g>
<g>
</g>
<g>
</g>
<g>
</g>
<g>
</g>
<g>
</g>
<g>
</g>
<g>
</g>
<g>
</g>
<g>
</g>
<g>
</g>
<g>
</g>
<g>
</g>
</svg>
