<?xml version="1.0" encoding="iso-8859-1"?>
<!-- Generator: Adobe Illustrator 16.0.0, SVG Export Plug-In . SVG Version: 6.00 Build 0)  -->
<!DOCTYPE svg PUBLIC "-//W3C//DTD SVG 1.1//EN" "http://www.w3.org/Graphics/SVG/1.1/DTD/svg11.dtd">
<svg version="1.1" id="Layer_1" xmlns="http://www.w3.org/2000/svg" xmlns:xlink="http://www.w3.org/1999/xlink" x="0px" y="0px"
	 width="12px" height="16px" viewBox="0 0 12 16" style="enable-background:new 0 0 12 16;" xml:space="preserve">
<g id="Microphone_1">
	<path style="fill-rule:evenodd;clip-rule:evenodd;" d="M10,6v1c0,2.209-1.79,4-4,4S2,9.209,2,7V6c0-0.553-0.447-1-1-1l0,0
		C0.447,5,0,5.447,0,6v1c0,2.973,2.163,5.434,5,5.91V14H3c-0.553,0-1,0.447-1,1s0.447,1,1,1h6c0.553,0,1-0.447,1-1s-0.447-1-1-1H7
		v-1.09c2.837-0.477,5-2.938,5-5.91V6c0-0.553-0.447-1-1-1l0,0C10.447,5,10,5.447,10,6z"/>
	<g>
		<path d="M6,9C4.896,9,4,8.104,4,7V2c0-1.104,0.896-2,2-2s2,0.896,2,2v5C8,8.104,7.104,9,6,9z"/>
	</g>
</g>
<g>
</g>
<g>
</g>
<g>
</g>
<g>
</g>
<g>
</g>
<g>
</g>
<g>
</g>
<g>
</g>
<g>
</g>
<g>
</g>
<g>
</g>
<g>
</g>
<g>
</g>
<g>
</g>
<g>
</g>
</svg>
