<?xml version="1.0" encoding="iso-8859-1"?>
<!-- Generator: Adobe Illustrator 16.0.0, SVG Export Plug-In . SVG Version: 6.00 Build 0)  -->
<!DOCTYPE svg PUBLIC "-//W3C//DTD SVG 1.1//EN" "http://www.w3.org/Graphics/SVG/1.1/DTD/svg11.dtd">
<svg version="1.1" id="Layer_1" xmlns="http://www.w3.org/2000/svg" xmlns:xlink="http://www.w3.org/1999/xlink" x="0px" y="0px"
	 width="16px" height="16px" viewBox="0 0 16 16" style="enable-background:new 0 0 16 16;" xml:space="preserve">
<g id="Minimize_1_x2C__Contract_1">
	<path d="M3.293,4.707L1.707,6.293C1.316,6.684,1.448,7,2,7h4.5C6.776,7,7,6.776,7,6.5V2c0-0.553-0.316-0.684-0.707-0.293
		L4.707,3.293L1.561,0.146c-0.195-0.195-0.512-0.195-0.707,0L0.146,0.854c-0.195,0.195-0.195,0.512,0,0.707L3.293,4.707z"/>
	<path d="M9.5,7H14c0.553,0,0.684-0.316,0.293-0.707l-1.586-1.586l3.146-3.146c0.195-0.195,0.195-0.512,0-0.707l-0.707-0.707
		c-0.195-0.195-0.512-0.195-0.707,0l-3.146,3.146L9.707,1.707C9.316,1.316,9,1.447,9,2v4.5C9,6.776,9.224,7,9.5,7z"/>
	<path d="M9.707,14.293l1.586-1.586l3.146,3.146c0.195,0.195,0.512,0.195,0.707,0l0.707-0.707c0.195-0.195,0.195-0.512,0-0.707
		l-3.146-3.146l1.586-1.586C14.684,9.316,14.552,9,14,9H9.5C9.224,9,9,9.224,9,9.5V14C9,14.553,9.316,14.684,9.707,14.293z"/>
	<path d="M0.854,15.854c0.195,0.195,0.512,0.195,0.707,0l3.146-3.146l1.586,1.586C6.684,14.684,7,14.553,7,14V9.5
		C7,9.224,6.776,9,6.5,9H2C1.447,9,1.316,9.316,1.707,9.707l1.586,1.586l-3.146,3.146c-0.195,0.195-0.195,0.512,0,0.707
		L0.854,15.854z"/>
</g>
<g>
</g>
<g>
</g>
<g>
</g>
<g>
</g>
<g>
</g>
<g>
</g>
<g>
</g>
<g>
</g>
<g>
</g>
<g>
</g>
<g>
</g>
<g>
</g>
<g>
</g>
<g>
</g>
<g>
</g>
</svg>
