<?xml version="1.0" encoding="iso-8859-1"?>
<!-- Generator: Adobe Illustrator 16.0.0, SVG Export Plug-In . SVG Version: 6.00 Build 0)  -->
<!DOCTYPE svg PUBLIC "-//W3C//DTD SVG 1.1//EN" "http://www.w3.org/Graphics/SVG/1.1/DTD/svg11.dtd">
<svg version="1.1" id="Layer_1" xmlns="http://www.w3.org/2000/svg" xmlns:xlink="http://www.w3.org/1999/xlink" x="0px" y="0px"
	 width="16px" height="16px" viewBox="0 0 16 16" style="enable-background:new 0 0 16 16;" xml:space="preserve">
<g id="Move_Down_1">
	<path style="fill-rule:evenodd;clip-rule:evenodd;" d="M15,0h-3.5C11.224,0,11,0.224,11,0.5v1C11,1.776,11.224,2,11.5,2H14v12H2V2
		h2.5C4.776,2,5,1.776,5,1.5v-1C5,0.224,4.776,0,4.5,0H1C0.447,0,0,0.447,0,1v14c0,0.553,0.447,1,1,1h14c0.553,0,1-0.447,1-1V1
		C16,0.447,15.553,0,15,0z"/>
	<path style="fill-rule:evenodd;clip-rule:evenodd;" d="M7.677,9.822c0.179,0.234,0.468,0.238,0.646,0.004L10.91,6.5
		C11.089,6.264,10.992,6,10.695,6H9V0.5C9,0.225,8.776,0,8.5,0h-1C7.224,0,7,0.225,7,0.5V6H5.305C5.008,6,4.911,6.265,5.09,6.5
		L7.677,9.822z"/>
</g>
<g>
</g>
<g>
</g>
<g>
</g>
<g>
</g>
<g>
</g>
<g>
</g>
<g>
</g>
<g>
</g>
<g>
</g>
<g>
</g>
<g>
</g>
<g>
</g>
<g>
</g>
<g>
</g>
<g>
</g>
</svg>
