<?xml version="1.0" encoding="iso-8859-1"?>
<!-- Generator: Adobe Illustrator 16.0.0, SVG Export Plug-In . SVG Version: 6.00 Build 0)  -->
<!DOCTYPE svg PUBLIC "-//W3C//DTD SVG 1.1//EN" "http://www.w3.org/Graphics/SVG/1.1/DTD/svg11.dtd">
<svg version="1.1" id="Layer_1" xmlns="http://www.w3.org/2000/svg" xmlns:xlink="http://www.w3.org/1999/xlink" x="0px" y="0px"
	 width="14px" height="16px" viewBox="0 0 14 16" style="enable-background:new 0 0 14 16;" xml:space="preserve">
<path id="Multiple_Documents_1" d="M9.5,0H5C4.447,0,4,0.447,4,1v2H1C0.45,3,0,3.45,0,4v11c0,0.55,0.45,1,1,1h9c0.55,0,1-0.45,1-1
	v-2h2c0.553,0,1-0.447,1-1V4.5c0-0.276-0.158-0.658-0.354-0.854l-3.293-3.293C10.158,0.158,9.776,0,9.5,0z M9,14H2V5h2v7
	c0,0.553,0.447,1,1,1h4V14z M6,11V2h3v2.5C9,4.776,9.224,5,9.5,5H12v6H6z"/>
<g>
</g>
<g>
</g>
<g>
</g>
<g>
</g>
<g>
</g>
<g>
</g>
<g>
</g>
<g>
</g>
<g>
</g>
<g>
</g>
<g>
</g>
<g>
</g>
<g>
</g>
<g>
</g>
<g>
</g>
</svg>
