<?xml version="1.0" encoding="iso-8859-1"?>
<!-- Generator: Adobe Illustrator 16.0.0, SVG Export Plug-In . SVG Version: 6.00 Build 0)  -->
<!DOCTYPE svg PUBLIC "-//W3C//DTD SVG 1.1//EN" "http://www.w3.org/Graphics/SVG/1.1/DTD/svg11.dtd">
<svg version="1.1" id="Layer_1" xmlns="http://www.w3.org/2000/svg" xmlns:xlink="http://www.w3.org/1999/xlink" x="0px" y="0px"
	 width="16px" height="16px" viewBox="0 0 16 16" style="enable-background:new 0 0 16 16;" xml:space="preserve">
<path id="Network_1" d="M15,12V9c0-0.553-0.447-1-1-1H9V6h1c0.553,0,1-0.447,1-1V1c0-0.553-0.447-1-1-1H6C5.447,0,5,0.447,5,1v4
	c0,0.553,0.447,1,1,1h1v2H2C1.447,8,1,8.447,1,9v3c-0.553,0-1,0.447-1,1v2c0,0.553,0.447,1,1,1h2c0.553,0,1-0.447,1-1v-2
	c0-0.553-0.447-1-1-1v-2h4v2c-0.553,0-1,0.447-1,1v2c0,0.553,0.447,1,1,1h2c0.553,0,1-0.447,1-1v-2c0-0.553-0.447-1-1-1v-2h4v2
	c-0.553,0-1,0.447-1,1v2c0,0.553,0.447,1,1,1h2c0.553,0,1-0.447,1-1v-2C16,12.447,15.553,12,15,12z M7.5,2h1C8.776,2,9,2.224,9,2.5
	v1C9,3.776,8.776,4,8.5,4h-1C7.224,4,7,3.776,7,3.5v-1C7,2.224,7.224,2,7.5,2z"/>
<g>
</g>
<g>
</g>
<g>
</g>
<g>
</g>
<g>
</g>
<g>
</g>
<g>
</g>
<g>
</g>
<g>
</g>
<g>
</g>
<g>
</g>
<g>
</g>
<g>
</g>
<g>
</g>
<g>
</g>
</svg>
