<?xml version="1.0" encoding="iso-8859-1"?>
<!-- Generator: Adobe Illustrator 16.0.0, SVG Export Plug-In . SVG Version: 6.00 Build 0)  -->
<!DOCTYPE svg PUBLIC "-//W3C//DTD SVG 1.1//EN" "http://www.w3.org/Graphics/SVG/1.1/DTD/svg11.dtd">
<svg version="1.1" id="Layer_1" xmlns="http://www.w3.org/2000/svg" xmlns:xlink="http://www.w3.org/1999/xlink" x="0px" y="0px"
	 width="16px" height="16px" viewBox="0 0 16 16" style="enable-background:new 0 0 16 16;" xml:space="preserve">
<g id="New_Browser_1">
	<path style="fill-rule:evenodd;clip-rule:evenodd;" d="M15,0H1C0.45,0,0,0.45,0,1v14c0,0.55,0.45,1,1,1h14c0.55,0,1-0.45,1-1V1
		C16,0.45,15.55,0,15,0z M2,2h2v2H2V2z M14,14H2V6h12V14z M14,4H6V2h8V4z"/>
	<path style="fill-rule:evenodd;clip-rule:evenodd;" d="M5.5,11H7v1.5C7,12.776,7.224,13,7.5,13h1C8.776,13,9,12.776,9,12.5V11h1.5
		c0.276,0,0.5-0.224,0.5-0.5v-1C11,9.224,10.776,9,10.5,9H9V7.5C9,7.224,8.776,7,8.5,7h-1C7.224,7,7,7.224,7,7.5V9H5.5
		C5.224,9,5,9.224,5,9.5v1C5,10.776,5.224,11,5.5,11z"/>
</g>
<g>
</g>
<g>
</g>
<g>
</g>
<g>
</g>
<g>
</g>
<g>
</g>
<g>
</g>
<g>
</g>
<g>
</g>
<g>
</g>
<g>
</g>
<g>
</g>
<g>
</g>
<g>
</g>
<g>
</g>
</svg>
