<?xml version="1.0" encoding="iso-8859-1"?>
<!-- Generator: Adobe Illustrator 16.0.0, SVG Export Plug-In . SVG Version: 6.00 Build 0)  -->
<!DOCTYPE svg PUBLIC "-//W3C//DTD SVG 1.1//EN" "http://www.w3.org/Graphics/SVG/1.1/DTD/svg11.dtd">
<svg version="1.1" id="Layer_1" xmlns="http://www.w3.org/2000/svg" xmlns:xlink="http://www.w3.org/1999/xlink" x="0px" y="0px"
	 width="16px" height="16px" viewBox="0 0 16 16" style="enable-background:new 0 0 16 16;" xml:space="preserve">
<g id="New_Browser_2">
	<path style="fill-rule:evenodd;clip-rule:evenodd;" d="M15,0H1C0.45,0,0,0.45,0,1v14c0,0.55,0.45,1,1,1h14c0.55,0,1-0.45,1-1V1
		C16,0.45,15.55,0,15,0z M2,1.5C2,1.224,2.224,1,2.5,1h1C3.776,1,4,1.224,4,1.5v1C4,2.776,3.776,3,3.5,3h-1C2.224,3,2,2.776,2,2.5
		V1.5z M14,14H2V4h12V14z"/>
	<path style="fill-rule:evenodd;clip-rule:evenodd;" d="M5.5,10H7v1.5C7,11.776,7.224,12,7.5,12h1C8.776,12,9,11.776,9,11.5V10h1.5
		c0.276,0,0.5-0.224,0.5-0.5v-1C11,8.224,10.776,8,10.5,8H9V6.5C9,6.224,8.776,6,8.5,6h-1C7.224,6,7,6.224,7,6.5V8H5.5
		C5.224,8,5,8.224,5,8.5v1C5,9.776,5.224,10,5.5,10z"/>
</g>
<g>
</g>
<g>
</g>
<g>
</g>
<g>
</g>
<g>
</g>
<g>
</g>
<g>
</g>
<g>
</g>
<g>
</g>
<g>
</g>
<g>
</g>
<g>
</g>
<g>
</g>
<g>
</g>
<g>
</g>
</svg>
