<?xml version="1.0" encoding="iso-8859-1"?>
<!-- Generator: Adobe Illustrator 16.0.0, SVG Export Plug-In . SVG Version: 6.00 Build 0)  -->
<!DOCTYPE svg PUBLIC "-//W3C//DTD SVG 1.1//EN" "http://www.w3.org/Graphics/SVG/1.1/DTD/svg11.dtd">
<svg version="1.1" id="Layer_1" xmlns="http://www.w3.org/2000/svg" xmlns:xlink="http://www.w3.org/1999/xlink" x="0px" y="0px"
	 width="16px" height="16px" viewBox="0 0 16 16" style="enable-background:new 0 0 16 16;" xml:space="preserve">
<g id="Newspaper_3">
	<path d="M15,0H5C4.447,0,4,0.447,4,1v1H1C0.447,2,0,2.447,0,3v10c0,1.66,1.34,3,3,3h10c1.66,0,3-1.34,3-3V1C16,0.447,15.553,0,15,0
		z M2,4h2v9c0,0.55-0.45,1-1,1s-1-0.45-1-1V4z M14,13c0,0.55-0.45,1-1,1H5.816C5.928,13.686,6,13.353,6,13V2h8V13z"/>
	<path d="M7.5,5h5C12.776,5,13,4.776,13,4.5v-1C13,3.224,12.776,3,12.5,3h-5C7.224,3,7,3.224,7,3.5v1C7,4.776,7.224,5,7.5,5z"/>
	<path d="M7.5,8h5C12.776,8,13,7.776,13,7.5v-1C13,6.224,12.776,6,12.5,6h-5C7.224,6,7,6.224,7,6.5v1C7,7.776,7.224,8,7.5,8z"/>
	<path d="M7.5,11h5c0.276,0,0.5-0.224,0.5-0.5v-1C13,9.224,12.776,9,12.5,9h-5C7.224,9,7,9.224,7,9.5v1C7,10.776,7.224,11,7.5,11z"
		/>
</g>
<g>
</g>
<g>
</g>
<g>
</g>
<g>
</g>
<g>
</g>
<g>
</g>
<g>
</g>
<g>
</g>
<g>
</g>
<g>
</g>
<g>
</g>
<g>
</g>
<g>
</g>
<g>
</g>
<g>
</g>
</svg>
