<?xml version="1.0" encoding="iso-8859-1"?>
<!-- Generator: Adobe Illustrator 16.0.0, SVG Export Plug-In . SVG Version: 6.00 Build 0)  -->
<!DOCTYPE svg PUBLIC "-//W3C//DTD SVG 1.1//EN" "http://www.w3.org/Graphics/SVG/1.1/DTD/svg11.dtd">
<svg version="1.1" id="Layer_1" xmlns="http://www.w3.org/2000/svg" xmlns:xlink="http://www.w3.org/1999/xlink" x="0px" y="0px"
	 width="16px" height="14px" viewBox="0 0 16 14" style="enable-background:new 0 0 16 14;" xml:space="preserve">
<g id="Newspaper_2">
	<path d="M15,2h-3V1c0-0.553-0.447-1-1-1H1C0.447,0,0,0.447,0,1v10c0,1.66,1.34,3,3,3h10c1.66,0,3-1.34,3-3V3
		C16,2.447,15.553,2,15,2z M12,4h2v7c0,0.55-0.45,1-1,1s-1-0.45-1-1V4z M2,11V2h8v9c0,0.353,0.072,0.686,0.184,1H3
		C2.45,12,2,11.55,2,11z"/>
	<path d="M8.5,6h-5C3.224,6,3,6.224,3,6.5S3.224,7,3.5,7h5C8.776,7,9,6.776,9,6.5S8.776,6,8.5,6z"/>
	<path d="M8.5,3h-5C3.224,3,3,3.224,3,3.5v1C3,4.776,3.224,5,3.5,5h5C8.776,5,9,4.776,9,4.5v-1C9,3.224,8.776,3,8.5,3z"/>
	<path d="M8.5,8h-5C3.224,8,3,8.224,3,8.5S3.224,9,3.5,9h5C8.776,9,9,8.776,9,8.5S8.776,8,8.5,8z"/>
	<path d="M8.5,10h-5C3.224,10,3,10.224,3,10.5S3.224,11,3.5,11h5C8.776,11,9,10.776,9,10.5S8.776,10,8.5,10z"/>
</g>
<g>
</g>
<g>
</g>
<g>
</g>
<g>
</g>
<g>
</g>
<g>
</g>
<g>
</g>
<g>
</g>
<g>
</g>
<g>
</g>
<g>
</g>
<g>
</g>
<g>
</g>
<g>
</g>
<g>
</g>
</svg>
