<?xml version="1.0" encoding="iso-8859-1"?>
<!-- Generator: Adobe Illustrator 16.0.0, SVG Export Plug-In . SVG Version: 6.00 Build 0)  -->
<!DOCTYPE svg PUBLIC "-//W3C//DTD SVG 1.1//EN" "http://www.w3.org/Graphics/SVG/1.1/DTD/svg11.dtd">
<svg version="1.1" id="Layer_1" xmlns="http://www.w3.org/2000/svg" xmlns:xlink="http://www.w3.org/1999/xlink" x="0px" y="0px"
	 width="16px" height="10px" viewBox="0 0 16 10" style="enable-background:new 0 0 16 10;" xml:space="preserve">
<path id="Next_2" d="M14,0.5v2.38L8.45,0.11C8.311,0.04,8.15,0,8,0C7.82,0,7.63,0.05,7.471,0.15C7.18,0.33,7,0.65,7,1v1.88
	L1.45,0.11C1.31,0.04,1.15,0,1,0C0.82,0,0.63,0.05,0.47,0.15C0.18,0.33,0,0.65,0,1v8c0,0.35,0.18,0.67,0.47,0.85
	c0.3,0.18,0.67,0.2,0.98,0.04L7,7.109V9c0,0.35,0.18,0.67,0.471,0.85c0.299,0.18,0.67,0.2,0.979,0.04L14,7.109V9.5
	c0,0.276,0.224,0.5,0.5,0.5h1c0.276,0,0.5-0.224,0.5-0.5v-9C16,0.224,15.776,0,15.5,0h-1C14.224,0,14,0.224,14,0.5z M2,7.38V2.62
	L7,5L2,7.38z M9,7.38V2.62L14,5L9,7.38z"/>
<g>
</g>
<g>
</g>
<g>
</g>
<g>
</g>
<g>
</g>
<g>
</g>
<g>
</g>
<g>
</g>
<g>
</g>
<g>
</g>
<g>
</g>
<g>
</g>
<g>
</g>
<g>
</g>
<g>
</g>
</svg>
