<?xml version="1.0" encoding="iso-8859-1"?>
<!-- Generator: Adobe Illustrator 16.0.0, SVG Export Plug-In . SVG Version: 6.00 Build 0)  -->
<!DOCTYPE svg PUBLIC "-//W3C//DTD SVG 1.1//EN" "http://www.w3.org/Graphics/SVG/1.1/DTD/svg11.dtd">
<svg version="1.1" id="Layer_1" xmlns="http://www.w3.org/2000/svg" xmlns:xlink="http://www.w3.org/1999/xlink" x="0px" y="0px"
	 width="16px" height="16px" viewBox="0 0 16 16" style="enable-background:new 0 0 16 16;" xml:space="preserve">
<g id="Next_4">
	<path style="fill-rule:evenodd;clip-rule:evenodd;" d="M8,16c4.418,0,8-3.582,8-8s-3.582-8-8-8S0,3.582,0,8S3.582,16,8,16z M8,2
		c3.309,0,6,2.691,6,6s-2.691,6-6,6s-6-2.691-6-6S4.691,2,8,2z"/>
	<path style="fill-rule:evenodd;clip-rule:evenodd;" d="M4.885,10.809l2.749-2.075C7.879,8.55,7.996,8.31,8,8.068v2.279
		c0,0.637,0.377,0.842,0.885,0.461l2.749-2.075c0.509-0.381,0.491-1-0.019-1.382l-2.73-2.076C8.377,4.895,8,5.101,8,5.738v2.282
		C7.988,7.777,7.862,7.536,7.615,7.352l-2.73-2.076C4.377,4.895,4,5.101,4,5.738v4.609C4,10.984,4.377,11.189,4.885,10.809z"/>
</g>
<g>
</g>
<g>
</g>
<g>
</g>
<g>
</g>
<g>
</g>
<g>
</g>
<g>
</g>
<g>
</g>
<g>
</g>
<g>
</g>
<g>
</g>
<g>
</g>
<g>
</g>
<g>
</g>
<g>
</g>
</svg>
