<?xml version="1.0" encoding="iso-8859-1"?>
<!-- Generator: Adobe Illustrator 16.0.0, SVG Export Plug-In . SVG Version: 6.00 Build 0)  -->
<!DOCTYPE svg PUBLIC "-//W3C//DTD SVG 1.1//EN" "http://www.w3.org/Graphics/SVG/1.1/DTD/svg11.dtd">
<svg version="1.1" id="Layer_1" xmlns="http://www.w3.org/2000/svg" xmlns:xlink="http://www.w3.org/1999/xlink" x="0px" y="0px"
	 width="16px" height="16px" viewBox="0 0 16 16" style="enable-background:new 0 0 16 16;" xml:space="preserve">
<g id="Notebook_2">
	<path style="fill-rule:evenodd;clip-rule:evenodd;" d="M11.5,4h-5C6.224,4,6,4.224,6,4.5v1C6,5.776,6.224,6,6.5,6h5
		C11.776,6,12,5.776,12,5.5v-1C12,4.224,11.776,4,11.5,4z"/>
	<path style="fill-rule:evenodd;clip-rule:evenodd;" d="M11.5,7h-5C6.224,7,6,7.224,6,7.5v1C6,8.776,6.224,9,6.5,9h5
		C11.776,9,12,8.776,12,8.5v-1C12,7.224,11.776,7,11.5,7z"/>
	<path style="fill-rule:evenodd;clip-rule:evenodd;" d="M11.5,10h-5C6.224,10,6,10.224,6,10.5v1C6,11.776,6.224,12,6.5,12h5
		c0.276,0,0.5-0.224,0.5-0.5v-1C12,10.224,11.776,10,11.5,10z"/>
	<path style="fill-rule:evenodd;clip-rule:evenodd;" d="M15,0H3C2.447,0,2,0.447,2,1H1C0.447,1,0,1.447,0,2s0.447,1,1,1h1v1H1
		C0.447,4,0,4.447,0,5s0.447,1,1,1h1v1H1C0.447,7,0,7.447,0,8s0.447,1,1,1h1v1H1c-0.553,0-1,0.447-1,1s0.447,1,1,1h1v1H1
		c-0.553,0-1,0.447-1,1s0.447,1,1,1h1c0,0.553,0.447,1,1,1h12c0.553,0,1-0.447,1-1V1C16,0.447,15.553,0,15,0z M14,14H4V2h10V14z"/>
</g>
<g>
</g>
<g>
</g>
<g>
</g>
<g>
</g>
<g>
</g>
<g>
</g>
<g>
</g>
<g>
</g>
<g>
</g>
<g>
</g>
<g>
</g>
<g>
</g>
<g>
</g>
<g>
</g>
<g>
</g>
</svg>
