<?xml version="1.0" encoding="iso-8859-1"?>
<!-- Generator: Adobe Illustrator 16.0.0, SVG Export Plug-In . SVG Version: 6.00 Build 0)  -->
<!DOCTYPE svg PUBLIC "-//W3C//DTD SVG 1.1//EN" "http://www.w3.org/Graphics/SVG/1.1/DTD/svg11.dtd">
<svg version="1.1" id="Layer_1" xmlns="http://www.w3.org/2000/svg" xmlns:xlink="http://www.w3.org/1999/xlink" x="0px" y="0px"
	 width="16px" height="16px" viewBox="0 0 16 16" style="enable-background:new 0 0 16 16;" xml:space="preserve">
<g id="Notebook_1">
	<path style="fill-rule:evenodd;clip-rule:evenodd;" d="M13,3.5C13,3.224,12.776,3,12.5,3h-7C5.224,3,5,3.224,5,3.5V5v1.5
		C5,6.776,5.224,7,5.5,7h7C12.776,7,13,6.776,13,6.5V5V3.5z"/>
	<path style="fill-rule:evenodd;clip-rule:evenodd;" d="M12.5,8h-7C5.224,8,5,8.224,5,8.5v1C5,9.776,5.224,10,5.5,10h7
		c0.276,0,0.5-0.224,0.5-0.5v-1C13,8.224,12.776,8,12.5,8z"/>
	<path style="fill-rule:evenodd;clip-rule:evenodd;" d="M12.5,11h-7C5.224,11,5,11.224,5,11.5v1C5,12.776,5.224,13,5.5,13h7
		c0.276,0,0.5-0.224,0.5-0.5v-1C13,11.224,12.776,11,12.5,11z"/>
	<path style="fill-rule:evenodd;clip-rule:evenodd;" d="M15,0H3C2.447,0,2,0.447,2,1H1C0.447,1,0,1.447,0,2s0.447,1,1,1h1v1H1
		C0.447,4,0,4.447,0,5s0.447,1,1,1h1v1H1C0.447,7,0,7.447,0,8s0.447,1,1,1h1v1H1c-0.553,0-1,0.447-1,1s0.447,1,1,1h1v1H1
		c-0.553,0-1,0.447-1,1s0.447,1,1,1h1c0,0.553,0.447,1,1,1h12c0.553,0,1-0.447,1-1V1C16,0.447,15.553,0,15,0z M14,14H4V2h10V14z"/>
</g>
<g>
</g>
<g>
</g>
<g>
</g>
<g>
</g>
<g>
</g>
<g>
</g>
<g>
</g>
<g>
</g>
<g>
</g>
<g>
</g>
<g>
</g>
<g>
</g>
<g>
</g>
<g>
</g>
<g>
</g>
</svg>
