<?xml version="1.0" encoding="iso-8859-1"?>
<!-- Generator: Adobe Illustrator 16.0.0, SVG Export Plug-In . SVG Version: 6.00 Build 0)  -->
<!DOCTYPE svg PUBLIC "-//W3C//DTD SVG 1.1//EN" "http://www.w3.org/Graphics/SVG/1.1/DTD/svg11.dtd">
<svg version="1.1" id="Layer_1" xmlns="http://www.w3.org/2000/svg" xmlns:xlink="http://www.w3.org/1999/xlink" x="0px" y="0px"
	 width="16px" height="16px" viewBox="0 0 16 16" style="enable-background:new 0 0 16 16;" xml:space="preserve">
<g id="Notebook_3">
	<path style="fill-rule:evenodd;clip-rule:evenodd;" d="M8.5,6h4C12.776,6,13,5.776,13,5.5v-1C13,4.224,12.776,4,12.5,4h-4
		C8.224,4,8,4.224,8,4.5v1C8,5.776,8.224,6,8.5,6z"/>
	<path style="fill-rule:evenodd;clip-rule:evenodd;" d="M5.5,6h1C6.776,6,7,5.776,7,5.5v-1C7,4.224,6.776,4,6.5,4h-1
		C5.224,4,5,4.224,5,4.5v1C5,5.776,5.224,6,5.5,6z"/>
	<path style="fill-rule:evenodd;clip-rule:evenodd;" d="M8.5,9h4C12.776,9,13,8.776,13,8.5v-1C13,7.224,12.776,7,12.5,7h-4
		C8.224,7,8,7.224,8,7.5v1C8,8.776,8.224,9,8.5,9z"/>
	<path style="fill-rule:evenodd;clip-rule:evenodd;" d="M5.5,9h1C6.776,9,7,8.776,7,8.5v-1C7,7.224,6.776,7,6.5,7h-1
		C5.224,7,5,7.224,5,7.5v1C5,8.776,5.224,9,5.5,9z"/>
	<path style="fill-rule:evenodd;clip-rule:evenodd;" d="M8.5,12h4c0.276,0,0.5-0.224,0.5-0.5v-1c0-0.276-0.224-0.5-0.5-0.5h-4
		C8.224,10,8,10.224,8,10.5v1C8,11.776,8.224,12,8.5,12z"/>
	<path style="fill-rule:evenodd;clip-rule:evenodd;" d="M5.5,12h1C6.776,12,7,11.776,7,11.5v-1C7,10.224,6.776,10,6.5,10h-1
		C5.224,10,5,10.224,5,10.5v1C5,11.776,5.224,12,5.5,12z"/>
	<path style="fill-rule:evenodd;clip-rule:evenodd;" d="M15,0H3C2.447,0,2,0.447,2,1H1C0.447,1,0,1.447,0,2s0.447,1,1,1h1v1H1
		C0.447,4,0,4.447,0,5s0.447,1,1,1h1v1H1C0.447,7,0,7.447,0,8s0.447,1,1,1h1v1H1c-0.553,0-1,0.447-1,1s0.447,1,1,1h1v1H1
		c-0.553,0-1,0.447-1,1s0.447,1,1,1h1c0,0.553,0.447,1,1,1h12c0.553,0,1-0.447,1-1V1C16,0.447,15.553,0,15,0z M14,14H4V2h10V14z"/>
</g>
<g>
</g>
<g>
</g>
<g>
</g>
<g>
</g>
<g>
</g>
<g>
</g>
<g>
</g>
<g>
</g>
<g>
</g>
<g>
</g>
<g>
</g>
<g>
</g>
<g>
</g>
<g>
</g>
<g>
</g>
</svg>
