<?xml version="1.0" encoding="iso-8859-1"?>
<!-- Generator: Adobe Illustrator 16.0.0, SVG Export Plug-In . SVG Version: 6.00 Build 0)  -->
<!DOCTYPE svg PUBLIC "-//W3C//DTD SVG 1.1//EN" "http://www.w3.org/Graphics/SVG/1.1/DTD/svg11.dtd">
<svg version="1.1" id="Layer_1" xmlns="http://www.w3.org/2000/svg" xmlns:xlink="http://www.w3.org/1999/xlink" x="0px" y="0px"
	 width="16px" height="16px" viewBox="0 0 16 16" style="enable-background:new 0 0 16 16;" xml:space="preserve">
<g id="Notepad_1">
	<path d="M15,0h-1h-4H6H2H1C0.447,0,0,0.447,0,1v14c0,0.553,0.447,1,1,1h14c0.553,0,1-0.447,1-1V1C16,0.447,15.553,0,15,0z M14,14H2
		V4h12V14z"/>
	<path d="M4.5,8h7C11.776,8,12,7.776,12,7.5v-1C12,6.224,11.776,6,11.5,6h-7C4.224,6,4,6.224,4,6.5v1C4,7.776,4.224,8,4.5,8z"/>
	<path d="M4.5,11h7c0.276,0,0.5-0.224,0.5-0.5v-1C12,9.224,11.776,9,11.5,9h-7C4.224,9,4,9.224,4,9.5v1C4,10.776,4.224,11,4.5,11z"
		/>
</g>
<g>
</g>
<g>
</g>
<g>
</g>
<g>
</g>
<g>
</g>
<g>
</g>
<g>
</g>
<g>
</g>
<g>
</g>
<g>
</g>
<g>
</g>
<g>
</g>
<g>
</g>
<g>
</g>
<g>
</g>
</svg>
