<?xml version="1.0" encoding="iso-8859-1"?>
<!-- Generator: Adobe Illustrator 16.0.0, SVG Export Plug-In . SVG Version: 6.00 Build 0)  -->
<!DOCTYPE svg PUBLIC "-//W3C//DTD SVG 1.1//EN" "http://www.w3.org/Graphics/SVG/1.1/DTD/svg11.dtd">
<svg version="1.1" id="Layer_1" xmlns="http://www.w3.org/2000/svg" xmlns:xlink="http://www.w3.org/1999/xlink" x="0px" y="0px"
	 width="16px" height="16px" viewBox="0 0 16 16" style="enable-background:new 0 0 16 16;" xml:space="preserve">
<g id="Notepad_2">
	<path style="fill-rule:evenodd;clip-rule:evenodd;" d="M15,0h-1h-4H6H2H1C0.447,0,0,0.447,0,1v14c0,0.553,0.447,1,1,1h14
		c0.553,0,1-0.447,1-1V1C16,0.447,15.553,0,15,0z M14,14H2V4h12V14z"/>
	<path style="fill-rule:evenodd;clip-rule:evenodd;" d="M4.5,5h-1C3.224,5,3,5.224,3,5.5v1C3,6.776,3.224,7,3.5,7h1
		C4.776,7,5,6.776,5,6.5v-1C5,5.224,4.776,5,4.5,5z"/>
	<path style="fill-rule:evenodd;clip-rule:evenodd;" d="M12.5,5h-6C6.224,5,6,5.224,6,5.5v1C6,6.776,6.224,7,6.5,7h6
		C12.776,7,13,6.776,13,6.5v-1C13,5.224,12.776,5,12.5,5z"/>
	<path style="fill-rule:evenodd;clip-rule:evenodd;" d="M4.5,8h-1C3.224,8,3,8.224,3,8.5v1C3,9.776,3.224,10,3.5,10h1
		C4.776,10,5,9.776,5,9.5v-1C5,8.224,4.776,8,4.5,8z"/>
	<path style="fill-rule:evenodd;clip-rule:evenodd;" d="M10.5,8h-4C6.224,8,6,8.224,6,8.5v1C6,9.776,6.224,10,6.5,10h4
		c0.276,0,0.5-0.224,0.5-0.5v-1C11,8.224,10.776,8,10.5,8z"/>
	<path style="fill-rule:evenodd;clip-rule:evenodd;" d="M4.5,11h-1C3.224,11,3,11.224,3,11.5v1C3,12.776,3.224,13,3.5,13h1
		C4.776,13,5,12.776,5,12.5v-1C5,11.224,4.776,11,4.5,11z"/>
	<path style="fill-rule:evenodd;clip-rule:evenodd;" d="M12.5,11h-6C6.224,11,6,11.224,6,11.5v1C6,12.776,6.224,13,6.5,13h6
		c0.276,0,0.5-0.224,0.5-0.5v-1C13,11.224,12.776,11,12.5,11z"/>
</g>
<g>
</g>
<g>
</g>
<g>
</g>
<g>
</g>
<g>
</g>
<g>
</g>
<g>
</g>
<g>
</g>
<g>
</g>
<g>
</g>
<g>
</g>
<g>
</g>
<g>
</g>
<g>
</g>
<g>
</g>
</svg>
