<?xml version="1.0" encoding="iso-8859-1"?>
<!-- Generator: Adobe Illustrator 16.0.0, SVG Export Plug-In . SVG Version: 6.00 Build 0)  -->
<!DOCTYPE svg PUBLIC "-//W3C//DTD SVG 1.1//EN" "http://www.w3.org/Graphics/SVG/1.1/DTD/svg11.dtd">
<svg version="1.1" id="Layer_1" xmlns="http://www.w3.org/2000/svg" xmlns:xlink="http://www.w3.org/1999/xlink" x="0px" y="0px"
	 width="16px" height="16.213px" viewBox="0 0 16 16.213" style="enable-background:new 0 0 16 16.213;" xml:space="preserve">
<g id="Open_Book_3">
	<path d="M8,1.721C5.57,0.05,1.906,0,1,0l0,0C0.422,0,0,0.447,0,1v12c0,0.553,0.203,1,1,1l0,0c1.2,0,4.439,0.27,6,1.45
		c0.1,0.08,0.2,0.17,0.29,0.26c0,0,0.159,0.159,0.354,0.354c0.197,0.197,0.514,0.197,0.711,0L8.71,15.71
		C8.8,15.62,8.9,15.53,9,15.45c1.561-1.181,4.967-1.466,6.167-1.466c0,0-0.443,0.016-0.167,0.016c0.547,0,1-0.447,1-1V1
		c0-0.553-0.406-1-1-1l0,0C14.5,0,10.43,0.05,8,1.721z M7,13.15c-1.7-0.78-3.77-1.03-5-1.11v-10C3.5,2.16,5.77,2.52,7,3.45V13.15z
		 M14,12.04c-1.23,0.08-3.3,0.33-5,1.11v-9.7c0.529-0.4,1.24-0.69,2-0.9c0.66-0.19,1.359-0.319,2-0.399
		c0.359-0.051,0.689-0.09,1-0.11V12.04z"/>
	<path d="M3,5.5v0.54c0,0.276,0.222,0.528,0.495,0.573c0.679,0.109,1.391,0.269,2.039,0.49C5.794,7.193,6,7.057,6,6.78V6.14
		C6,5.863,5.789,5.566,5.524,5.49C4.831,5.288,4.131,5.153,3.496,5.062C3.223,5.024,3,5.224,3,5.5z"/>
	<path d="M3,8.5v0.54c0,0.276,0.222,0.528,0.495,0.573c0.679,0.109,1.391,0.269,2.039,0.49C5.794,10.193,6,10.057,6,9.78V9.14
		C6,8.863,5.789,8.566,5.524,8.49C4.831,8.288,4.131,8.153,3.496,8.062C3.223,8.024,3,8.224,3,8.5z"/>
	<path d="M10,6.14V6.78c0,0.276,0.207,0.413,0.468,0.323c0.647-0.223,1.358-0.381,2.036-0.49C12.777,6.568,13,6.316,13,6.04V5.5
		c0-0.276-0.222-0.476-0.496-0.438c-0.635,0.09-1.334,0.226-2.028,0.428C10.211,5.566,10,5.863,10,6.14z"/>
	<path d="M10,9.14V9.78c0,0.276,0.207,0.413,0.468,0.323c0.647-0.223,1.358-0.381,2.036-0.49C12.777,9.568,13,9.316,13,9.04V8.5
		c0-0.276-0.222-0.476-0.496-0.438c-0.635,0.09-1.334,0.226-2.028,0.428C10.211,8.566,10,8.863,10,9.14z"/>
</g>
<g>
</g>
<g>
</g>
<g>
</g>
<g>
</g>
<g>
</g>
<g>
</g>
<g>
</g>
<g>
</g>
<g>
</g>
<g>
</g>
<g>
</g>
<g>
</g>
<g>
</g>
<g>
</g>
<g>
</g>
</svg>
