<?xml version="1.0" encoding="iso-8859-1"?>
<!-- Generator: Adobe Illustrator 16.0.0, SVG Export Plug-In . SVG Version: 6.00 Build 0)  -->
<!DOCTYPE svg PUBLIC "-//W3C//DTD SVG 1.1//EN" "http://www.w3.org/Graphics/SVG/1.1/DTD/svg11.dtd">
<svg version="1.1" id="Layer_1" xmlns="http://www.w3.org/2000/svg" xmlns:xlink="http://www.w3.org/1999/xlink" x="0px" y="0px"
	 width="16px" height="16.205px" viewBox="0 0 16 16.205" style="enable-background:new 0 0 16 16.205;" xml:space="preserve">
<path id="Open_Book_2" d="M2,0.028C1.781,0.014,1.384,0.006,1,0C0.447-0.008,0,0.439,0,0.992v12c0,0.553,0.447,0.991,1,0.987
	c0.406-0.002,0.821-0.001,1,0.013c1.495,0.112,3.77,0.52,5,1.45c0.1,0.08,0.2,0.17,0.29,0.26l0.356,0.356
	c0.195,0.195,0.512,0.195,0.707,0l0.356-0.356c0.09-0.09,0.19-0.18,0.29-0.26c1.23-0.931,3.505-1.338,5-1.45
	c0.179-0.014,0.594-0.015,1-0.013c0.553,0.004,1-0.435,1-0.987v-12c0-0.553-0.447-1-1-0.992c-0.385,0.006-0.782,0.014-1,0.028
	C12.521,0.124,9.808,0.47,8,1.713C6.192,0.471,3.479,0.124,2,0.028z M7,13.143c-1.7-0.78-3.77-1.03-5-1.11v-10
	c1.5,0.12,3.77,0.479,5,1.41V13.143z M9,13.143v-9.7c0.529-0.4,1.24-0.69,2-0.9v3.95c0,0.276,0.158,0.342,0.354,0.146L12,5.992
	l0.646,0.646C12.842,6.834,13,6.769,13,6.492v-4.35c0.359-0.051,0.689-0.09,1-0.11v10C12.77,12.112,10.7,12.362,9,13.143z"/>
<g>
</g>
<g>
</g>
<g>
</g>
<g>
</g>
<g>
</g>
<g>
</g>
<g>
</g>
<g>
</g>
<g>
</g>
<g>
</g>
<g>
</g>
<g>
</g>
<g>
</g>
<g>
</g>
<g>
</g>
</svg>
