<?xml version="1.0" encoding="iso-8859-1"?>
<!-- Generator: Adobe Illustrator 16.0.0, SVG Export Plug-In . SVG Version: 6.00 Build 0)  -->
<!DOCTYPE svg PUBLIC "-//W3C//DTD SVG 1.1//EN" "http://www.w3.org/Graphics/SVG/1.1/DTD/svg11.dtd">
<svg version="1.1" id="Layer_1" xmlns="http://www.w3.org/2000/svg" xmlns:xlink="http://www.w3.org/1999/xlink" x="0px" y="0px"
	 width="16px" height="16.176px" viewBox="0 0 16 16.176" style="enable-background:new 0 0 16 16.176;" xml:space="preserve">
<path id="Open_Book_1" d="M0,0.963v12c0,0.553,0.446,1.023,0.997,1.07c1.646,0.141,4.862,0.516,6.003,1.38
	c0.1,0.08,0.2,0.17,0.29,0.26l0.356,0.356c0.195,0.195,0.512,0.195,0.707,0l0.356-0.356c0.09-0.09,0.19-0.18,0.29-0.26
	c1.141-0.864,4.358-1.239,6.003-1.38c0.55-0.047,0.997-0.518,0.997-1.07v-12c0-0.553-0.447-0.993-0.999-0.961
	C13.286,0.102,9.791,0.453,8,1.684c-1.791-1.23-5.286-1.582-7.001-1.682C0.447-0.03,0,0.41,0,0.963z M7,13.113
	c-1.7-0.78-3.77-1.03-5-1.11v-10c1.5,0.12,3.77,0.479,5,1.41V13.113z M14,12.003c-1.23,0.08-3.3,0.33-5,1.11v-9.7
	c0.53-0.4,1.24-0.69,2-0.9c0.66-0.19,1.36-0.319,2-0.399c0.36-0.051,0.69-0.09,1-0.11V12.003z"/>
<g>
</g>
<g>
</g>
<g>
</g>
<g>
</g>
<g>
</g>
<g>
</g>
<g>
</g>
<g>
</g>
<g>
</g>
<g>
</g>
<g>
</g>
<g>
</g>
<g>
</g>
<g>
</g>
<g>
</g>
</svg>
