<?xml version="1.0" encoding="iso-8859-1"?>
<!-- Generator: Adobe Illustrator 16.0.0, SVG Export Plug-In . SVG Version: 6.00 Build 0)  -->
<!DOCTYPE svg PUBLIC "-//W3C//DTD SVG 1.1//EN" "http://www.w3.org/Graphics/SVG/1.1/DTD/svg11.dtd">
<svg version="1.1" id="Layer_1" xmlns="http://www.w3.org/2000/svg" xmlns:xlink="http://www.w3.org/1999/xlink" x="0px" y="0px"
	 width="16px" height="12px" viewBox="0 0 16 12" style="enable-background:new 0 0 16 12;" xml:space="preserve">
<g id="Option_1">
	<path style="fill-rule:evenodd;clip-rule:evenodd;" d="M15,10h-4.323L7.048,0.929C6.843,0.416,6.229,0,5.677,0H1
		C0.447,0,0,0.447,0,1s0.447,1,1,1h4.323l3.629,9.071C9.157,11.584,9.771,12,10.323,12H15c0.553,0,1-0.447,1-1S15.553,10,15,10z"/>
	<path style="fill-rule:evenodd;clip-rule:evenodd;" d="M10,2h5c0.553,0,1-0.447,1-1s-0.447-1-1-1h-5C9.447,0,9,0.447,9,1
		S9.447,2,10,2z"/>
</g>
<g>
</g>
<g>
</g>
<g>
</g>
<g>
</g>
<g>
</g>
<g>
</g>
<g>
</g>
<g>
</g>
<g>
</g>
<g>
</g>
<g>
</g>
<g>
</g>
<g>
</g>
<g>
</g>
<g>
</g>
</svg>
