<?xml version="1.0" encoding="iso-8859-1"?>
<!-- Generator: Adobe Illustrator 16.0.0, SVG Export Plug-In . SVG Version: 6.00 Build 0)  -->
<!DOCTYPE svg PUBLIC "-//W3C//DTD SVG 1.1//EN" "http://www.w3.org/Graphics/SVG/1.1/DTD/svg11.dtd">
<svg version="1.1" id="Layer_1" xmlns="http://www.w3.org/2000/svg" xmlns:xlink="http://www.w3.org/1999/xlink" x="0px" y="0px"
	 width="16px" height="16px" viewBox="0 0 16 16" style="enable-background:new 0 0 16 16;" xml:space="preserve">
<g id="Paragraph_Text_1">
	<path style="fill-rule:evenodd;clip-rule:evenodd;" d="M5.5,4h-1C4.224,4,4,4.224,4,4.5v1C4,5.776,4.224,6,4.5,6h1
		C5.776,6,6,5.776,6,5.5v-1C6,4.224,5.776,4,5.5,4z"/>
	<path style="fill-rule:evenodd;clip-rule:evenodd;" d="M11.5,4h-4C7.224,4,7,4.224,7,4.5v1C7,5.776,7.224,6,7.5,6h4
		C11.776,6,12,5.776,12,5.5v-1C12,4.224,11.776,4,11.5,4z"/>
	<path style="fill-rule:evenodd;clip-rule:evenodd;" d="M11.5,10h-7C4.224,10,4,10.224,4,10.5v1C4,11.776,4.224,12,4.5,12h7
		c0.276,0,0.5-0.224,0.5-0.5v-1C12,10.224,11.776,10,11.5,10z"/>
	<path style="fill-rule:evenodd;clip-rule:evenodd;" d="M11.5,7h-7C4.224,7,4,7.224,4,7.5v1C4,8.776,4.224,9,4.5,9h7
		C11.776,9,12,8.776,12,8.5v-1C12,7.224,11.776,7,11.5,7z"/>
	<path style="fill-rule:evenodd;clip-rule:evenodd;" d="M15,0H1C0.447,0,0,0.447,0,1v14c0,0.553,0.447,1,1,1h14c0.553,0,1-0.447,1-1
		V1C16,0.447,15.553,0,15,0z M14,14H2V2h12V14z"/>
</g>
<g>
</g>
<g>
</g>
<g>
</g>
<g>
</g>
<g>
</g>
<g>
</g>
<g>
</g>
<g>
</g>
<g>
</g>
<g>
</g>
<g>
</g>
<g>
</g>
<g>
</g>
<g>
</g>
<g>
</g>
</svg>
