<?xml version="1.0" encoding="iso-8859-1"?>
<!-- Generator: Adobe Illustrator 16.0.0, SVG Export Plug-In . SVG Version: 6.00 Build 0)  -->
<!DOCTYPE svg PUBLIC "-//W3C//DTD SVG 1.1//EN" "http://www.w3.org/Graphics/SVG/1.1/DTD/svg11.dtd">
<svg version="1.1" id="Layer_1" xmlns="http://www.w3.org/2000/svg" xmlns:xlink="http://www.w3.org/1999/xlink" x="0px" y="0px"
	 width="16px" height="14px" viewBox="0 0 16 14" style="enable-background:new 0 0 16 14;" xml:space="preserve">
<g id="Paragraph_Left_1">
	<path style="fill-rule:evenodd;clip-rule:evenodd;" d="M15.5,0h-15C0.224,0,0,0.224,0,0.5v1C0,1.776,0.224,2,0.5,2h15
		C15.776,2,16,1.776,16,1.5v-1C16,0.224,15.776,0,15.5,0z"/>
	<path style="fill-rule:evenodd;clip-rule:evenodd;" d="M13.5,8h-13C0.224,8,0,8.224,0,8.5v1C0,9.776,0.224,10,0.5,10h13
		c0.276,0,0.5-0.224,0.5-0.5v-1C14,8.224,13.776,8,13.5,8z"/>
	<path style="fill-rule:evenodd;clip-rule:evenodd;" d="M0.5,6h9C9.776,6,10,5.776,10,5.5v-1C10,4.224,9.776,4,9.5,4h-9
		C0.224,4,0,4.224,0,4.5v1C0,5.776,0.224,6,0.5,6z"/>
	<path style="fill-rule:evenodd;clip-rule:evenodd;" d="M11.5,12h-11C0.224,12,0,12.224,0,12.5v1C0,13.776,0.224,14,0.5,14h11
		c0.276,0,0.5-0.224,0.5-0.5v-1C12,12.224,11.776,12,11.5,12z"/>
</g>
<g>
</g>
<g>
</g>
<g>
</g>
<g>
</g>
<g>
</g>
<g>
</g>
<g>
</g>
<g>
</g>
<g>
</g>
<g>
</g>
<g>
</g>
<g>
</g>
<g>
</g>
<g>
</g>
<g>
</g>
</svg>
