<?xml version="1.0" encoding="iso-8859-1"?>
<!-- Generator: Adobe Illustrator 16.0.0, SVG Export Plug-In . SVG Version: 6.00 Build 0)  -->
<!DOCTYPE svg PUBLIC "-//W3C//DTD SVG 1.1//EN" "http://www.w3.org/Graphics/SVG/1.1/DTD/svg11.dtd">
<svg version="1.1" id="Layer_1" xmlns="http://www.w3.org/2000/svg" xmlns:xlink="http://www.w3.org/1999/xlink" x="0px" y="0px"
	 width="16px" height="16px" viewBox="0 0 16 16" style="enable-background:new 0 0 16 16;" xml:space="preserve">
<g id="Photo_1_x2C__Image_1">
	<path style="fill-rule:evenodd;clip-rule:evenodd;" d="M9,10L5.354,6.354c-0.195-0.195-0.512-0.195-0.707,0L3.354,7.646
		C3.158,7.842,3,8.224,3,8.5v4C3,12.776,3.224,13,3.5,13h9c0.276,0,0.5-0.224,0.5-0.5v-2c0-0.276-0.158-0.658-0.354-0.854
		l-1.293-1.293c-0.195-0.195-0.512-0.195-0.707,0L9,10z"/>
	<circle style="fill-rule:evenodd;clip-rule:evenodd;" cx="10.5" cy="5.5" r="1.5"/>
	<path style="fill-rule:evenodd;clip-rule:evenodd;" d="M15,0H1C0.447,0,0,0.447,0,1v14c0,0.553,0.447,1,1,1h14c0.553,0,1-0.447,1-1
		V1C16,0.447,15.553,0,15,0z M14,14H2V2h12V14z"/>
</g>
<g>
</g>
<g>
</g>
<g>
</g>
<g>
</g>
<g>
</g>
<g>
</g>
<g>
</g>
<g>
</g>
<g>
</g>
<g>
</g>
<g>
</g>
<g>
</g>
<g>
</g>
<g>
</g>
<g>
</g>
</svg>
