<?xml version="1.0" encoding="iso-8859-1"?>
<!-- Generator: Adobe Illustrator 16.0.0, SVG Export Plug-In . SVG Version: 6.00 Build 0)  -->
<!DOCTYPE svg PUBLIC "-//W3C//DTD SVG 1.1//EN" "http://www.w3.org/Graphics/SVG/1.1/DTD/svg11.dtd">
<svg version="1.1" id="Layer_1" xmlns="http://www.w3.org/2000/svg" xmlns:xlink="http://www.w3.org/1999/xlink" x="0px" y="0px"
	 width="15.743px" height="15.791px" viewBox="0 0 15.743 15.791" style="enable-background:new 0 0 15.743 15.791;"
	 xml:space="preserve">
<path id="Pin_1" d="M15.456,7.291L8.483,0.25C8.31,0.078,8.178,0,8.08,0C7.896,0,7.831,0.276,7.831,0.732v2.312l-3,2.916
	L1.578,6.268C0.887,6.405,0.668,6.917,1.167,7.41l2.614,2.601l-0.951,0.95l-2.78,4.55c-0.12,0.25-0.02,0.351,0.23,0.229l4.55-2.779
	l0.956-0.956l2.573,2.56c0.197,0.195,0.395,0.289,0.57,0.289c0.268,0,0.484-0.22,0.568-0.635l0.333-3.258l2.916-3h2.336
	C15.788,7.961,15.955,7.785,15.456,7.291z M11.312,6.567l-2.916,3l-0.485,0.498l-0.071,0.692l-0.043,0.427L4.589,7.992l0.429-0.04
	L5.72,7.886l0.505-0.49l3-2.916l0.322-0.313l2.069,2.089L11.312,6.567z"/>
<g>
</g>
<g>
</g>
<g>
</g>
<g>
</g>
<g>
</g>
<g>
</g>
<g>
</g>
<g>
</g>
<g>
</g>
<g>
</g>
<g>
</g>
<g>
</g>
<g>
</g>
<g>
</g>
<g>
</g>
</svg>
