<?xml version="1.0" encoding="iso-8859-1"?>
<!-- Generator: Adobe Illustrator 16.0.0, SVG Export Plug-In . SVG Version: 6.00 Build 0)  -->
<!DOCTYPE svg PUBLIC "-//W3C//DTD SVG 1.1//EN" "http://www.w3.org/Graphics/SVG/1.1/DTD/svg11.dtd">
<svg version="1.1" id="Layer_1" xmlns="http://www.w3.org/2000/svg" xmlns:xlink="http://www.w3.org/1999/xlink" x="0px" y="0px"
	 width="16px" height="16px" viewBox="0 0 16 16" style="enable-background:new 0 0 16 16;" xml:space="preserve">
<g id="Plus_2">
	<path d="M8,0C3.582,0,0,3.582,0,8s3.582,8,8,8s8-3.582,8-8S12.418,0,8,0z M8,14c-3.309,0-6-2.691-6-6s2.691-6,6-6s6,2.691,6,6
		S11.309,14,8,14z"/>
	<path style="fill-rule:evenodd;clip-rule:evenodd;" d="M10.886,7H9V5.116c0-0.53-0.469-0.96-1-0.961C7.469,4.156,7,4.586,7,5.116V7
		H5.118c-0.53,0-0.96,0.469-0.961,1c0.001,0.531,0.431,1,0.961,1H7v1.884c0,0.53,0.47,0.961,1,0.961c0.531-0.001,1-0.431,1-0.961V9
		h1.886c0.53,0,0.96-0.469,0.961-1C11.847,7.47,11.416,7,10.886,7z"/>
</g>
<g>
</g>
<g>
</g>
<g>
</g>
<g>
</g>
<g>
</g>
<g>
</g>
<g>
</g>
<g>
</g>
<g>
</g>
<g>
</g>
<g>
</g>
<g>
</g>
<g>
</g>
<g>
</g>
<g>
</g>
</svg>
