<?xml version="1.0" encoding="iso-8859-1"?>
<!-- Generator: Adobe Illustrator 16.0.0, SVG Export Plug-In . SVG Version: 6.00 Build 0)  -->
<!DOCTYPE svg PUBLIC "-//W3C//DTD SVG 1.1//EN" "http://www.w3.org/Graphics/SVG/1.1/DTD/svg11.dtd">
<svg version="1.1" id="Layer_1" xmlns="http://www.w3.org/2000/svg" xmlns:xlink="http://www.w3.org/1999/xlink" x="0px" y="0px"
	 width="16px" height="16px" viewBox="0 0 16 16" style="enable-background:new 0 0 16 16;" xml:space="preserve">
<g id="Plus_3">
	<path style="fill-rule:evenodd;clip-rule:evenodd;" d="M15,0H1C0.447,0,0,0.447,0,1v14c0,0.553,0.447,1,1,1h14c0.553,0,1-0.447,1-1
		V1C16,0.447,15.553,0,15,0z M14,14H2V2h12V14z"/>
	<path style="fill-rule:evenodd;clip-rule:evenodd;" d="M4.5,9H7v2.5C7,11.776,7.224,12,7.5,12h1C8.776,12,9,11.776,9,11.5V9h2.5
		C11.776,9,12,8.776,12,8.5v-1C12,7.224,11.776,7,11.5,7H9V4.5C9,4.224,8.776,4,8.5,4h-1C7.224,4,7,4.224,7,4.5V7H4.5
		C4.224,7,4,7.224,4,7.5v1C4,8.776,4.224,9,4.5,9z"/>
</g>
<g>
</g>
<g>
</g>
<g>
</g>
<g>
</g>
<g>
</g>
<g>
</g>
<g>
</g>
<g>
</g>
<g>
</g>
<g>
</g>
<g>
</g>
<g>
</g>
<g>
</g>
<g>
</g>
<g>
</g>
</svg>
