<?xml version="1.0" encoding="iso-8859-1"?>
<!-- Generator: Adobe Illustrator 16.0.0, SVG Export Plug-In . SVG Version: 6.00 Build 0)  -->
<!DOCTYPE svg PUBLIC "-//W3C//DTD SVG 1.1//EN" "http://www.w3.org/Graphics/SVG/1.1/DTD/svg11.dtd">
<svg version="1.1" id="Layer_1" xmlns="http://www.w3.org/2000/svg" xmlns:xlink="http://www.w3.org/1999/xlink" x="0px" y="0px"
	 width="16px" height="16px" viewBox="0 0 16 16" style="enable-background:new 0 0 16 16;" xml:space="preserve">
<g id="Post_Comment_2">
	<path d="M4.5,6h7C11.776,6,12,5.776,12,5.5v-1C12,4.224,11.776,4,11.5,4h-7C4.224,4,4,4.224,4,4.5v1C4,5.776,4.224,6,4.5,6z"/>
	<path d="M4.5,9h7C11.776,9,12,8.776,12,8.5v-1C12,7.224,11.776,7,11.5,7h-7C4.224,7,4,7.224,4,7.5v1C4,8.776,4.224,9,4.5,9z"/>
	<path d="M15,0H1C0.447,0,0,0.447,0,1v11c0,0.553,0.447,1,1,1h1v2c0,0.553,0.447,1,1,1h1c0.182,0,0.359-0.049,0.515-0.143L9.277,13
		H15c0.553,0,1-0.447,1-1V1C16,0.447,15.553,0,15,0z M14,11H9c-0.182,0-0.359,0.049-0.515,0.143L4,13.834V12c0-0.553-0.447-1-1-1H2
		V2h12V11z"/>
</g>
<g>
</g>
<g>
</g>
<g>
</g>
<g>
</g>
<g>
</g>
<g>
</g>
<g>
</g>
<g>
</g>
<g>
</g>
<g>
</g>
<g>
</g>
<g>
</g>
<g>
</g>
<g>
</g>
<g>
</g>
</svg>
