<?xml version="1.0" encoding="iso-8859-1"?>
<!-- Generator: Adobe Illustrator 16.0.0, SVG Export Plug-In . SVG Version: 6.00 Build 0)  -->
<!DOCTYPE svg PUBLIC "-//W3C//DTD SVG 1.1//EN" "http://www.w3.org/Graphics/SVG/1.1/DTD/svg11.dtd">
<svg version="1.1" id="Layer_1" xmlns="http://www.w3.org/2000/svg" xmlns:xlink="http://www.w3.org/1999/xlink" x="0px" y="0px"
	 width="14px" height="14px" viewBox="0 0 14 14" style="enable-background:new 0 0 14 14;" xml:space="preserve">
<path id="Pound_1_x2C__Hashtag_1" d="M13,9h-2V5h2c0.553,0,1-0.447,1-1s-0.447-1-1-1h-2V1c0-0.553-0.447-1-1-1S9,0.447,9,1v2H5V1
	c0-0.553-0.447-1-1-1S3,0.447,3,1v2H1C0.447,3,0,3.447,0,4s0.447,1,1,1h2v4H1c-0.553,0-1,0.447-1,1s0.447,1,1,1h2v2
	c0,0.553,0.447,1,1,1s1-0.447,1-1v-2h4v2c0,0.553,0.447,1,1,1s1-0.447,1-1v-2h2c0.553,0,1-0.447,1-1S13.553,9,13,9z M5,9V5h4v4H5z"
	/>
<g>
</g>
<g>
</g>
<g>
</g>
<g>
</g>
<g>
</g>
<g>
</g>
<g>
</g>
<g>
</g>
<g>
</g>
<g>
</g>
<g>
</g>
<g>
</g>
<g>
</g>
<g>
</g>
<g>
</g>
</svg>
