<?xml version="1.0" encoding="iso-8859-1"?>
<!-- Generator: Adobe Illustrator 16.0.0, SVG Export Plug-In . SVG Version: 6.00 Build 0)  -->
<!DOCTYPE svg PUBLIC "-//W3C//DTD SVG 1.1//EN" "http://www.w3.org/Graphics/SVG/1.1/DTD/svg11.dtd">
<svg version="1.1" id="Layer_1" xmlns="http://www.w3.org/2000/svg" xmlns:xlink="http://www.w3.org/1999/xlink" x="0px" y="0px"
	 width="16px" height="16px" viewBox="0 0 16 16" style="enable-background:new 0 0 16 16;" xml:space="preserve">
<g id="Rewind_1">
	<path d="M15,0H1C0.447,0,0,0.447,0,1v14c0,0.553,0.447,1,1,1h14c0.553,0,1-0.447,1-1V1C16,0.447,15.553,0,15,0z M14,14H2V2h12V14z"
		/>
	<path d="M6.464,11.852c0.188,0.199,0.495,0.199,0.684,0l0.684-0.717c0.189-0.197,0.189-0.518,0-0.715L5.535,8.015l2.323-2.434
		c0.189-0.198,0.189-0.519,0-0.716L7.175,4.148c-0.188-0.197-0.495-0.197-0.684,0l-3.35,3.508c-0.188,0.198-0.188,0.519,0,0.717
		L6.464,11.852z"/>
	<path d="M8.142,8.373l3.322,3.479c0.188,0.199,0.495,0.199,0.684,0l0.684-0.717c0.189-0.197,0.189-0.518,0-0.715l-2.296-2.405
		l2.323-2.434c0.189-0.198,0.189-0.519,0-0.716l-0.684-0.717c-0.188-0.197-0.495-0.197-0.684,0l-3.35,3.508
		C7.953,7.854,7.953,8.175,8.142,8.373z"/>
</g>
<g>
</g>
<g>
</g>
<g>
</g>
<g>
</g>
<g>
</g>
<g>
</g>
<g>
</g>
<g>
</g>
<g>
</g>
<g>
</g>
<g>
</g>
<g>
</g>
<g>
</g>
<g>
</g>
<g>
</g>
</svg>
