<?xml version="1.0" encoding="iso-8859-1"?>
<!-- Generator: Adobe Illustrator 16.0.0, SVG Export Plug-In . SVG Version: 6.00 Build 0)  -->
<!DOCTYPE svg PUBLIC "-//W3C//DTD SVG 1.1//EN" "http://www.w3.org/Graphics/SVG/1.1/DTD/svg11.dtd">
<svg version="1.1" id="Layer_1" xmlns="http://www.w3.org/2000/svg" xmlns:xlink="http://www.w3.org/1999/xlink" x="0px" y="0px"
	 width="12px" height="16px" viewBox="0 0 12 16" style="enable-background:new 0 0 12 16;" xml:space="preserve">
<g id="Ring_1">
	<path d="M6,4c-3.306,0-6,2.695-6,6s2.694,6,6,6s6-2.695,6-6S9.306,4,6,4z M6,14c-2.205,0-4-1.795-4-4s1.795-4,4-4s4,1.795,4,4
		S8.205,14,6,14z"/>
	<path d="M6.6,4h-1.2C4.943,4,4.535,3.79,4.331,3.45l-1.201-2C2.938,1.141,2.962,0.77,3.179,0.471C3.395,0.18,3.778,0,4.198,0h3.603
		C8.22,0,8.604,0.18,8.82,0.471c0.217,0.299,0.24,0.67,0.048,0.979l-1.2,2C7.464,3.79,7.056,4,6.6,4z"/>
</g>
<g>
</g>
<g>
</g>
<g>
</g>
<g>
</g>
<g>
</g>
<g>
</g>
<g>
</g>
<g>
</g>
<g>
</g>
<g>
</g>
<g>
</g>
<g>
</g>
<g>
</g>
<g>
</g>
<g>
</g>
</svg>
