<?xml version="1.0" encoding="iso-8859-1"?>
<!-- Generator: Adobe Illustrator 16.0.0, SVG Export Plug-In . SVG Version: 6.00 Build 0)  -->
<!DOCTYPE svg PUBLIC "-//W3C//DTD SVG 1.1//EN" "http://www.w3.org/Graphics/SVG/1.1/DTD/svg11.dtd">
<svg version="1.1" id="Layer_1" xmlns="http://www.w3.org/2000/svg" xmlns:xlink="http://www.w3.org/1999/xlink" x="0px" y="0px"
	 width="16px" height="16px" viewBox="0 0 16 16" style="enable-background:new 0 0 16 16;" xml:space="preserve">
<path id="Running_1" d="M8,0C3.589,0,0,3.589,0,8s3.589,8,8,8s8-3.589,8-8S12.411,0,8,0z M8,2c3.038,0,5.55,2.271,5.941,5.205
	c-0.002-0.002-0.004-0.003-0.007-0.005c-0.712-0.535-1.6-1.2-3.266-1.2C9.002,6,8.115,6.665,7.402,7.2C6.783,7.664,6.335,8,5.334,8
	c-1,0-1.447-0.336-2.066-0.8C2.961,6.971,2.613,6.723,2.195,6.51C2.86,3.921,5.207,2,8,2z M8,14c-3.039,0-5.551-2.272-5.941-5.206
	C2.062,8.796,2.064,8.798,2.066,8.8C2.78,9.335,3.668,10,5.334,10c1.668,0,2.555-0.665,3.268-1.2C9.221,8.336,9.669,8,10.669,8
	c0.999,0,1.446,0.336,2.065,0.8c0.305,0.229,0.652,0.477,1.07,0.69C13.141,12.079,10.793,14,8,14z"/>
<g>
</g>
<g>
</g>
<g>
</g>
<g>
</g>
<g>
</g>
<g>
</g>
<g>
</g>
<g>
</g>
<g>
</g>
<g>
</g>
<g>
</g>
<g>
</g>
<g>
</g>
<g>
</g>
<g>
</g>
</svg>
