<?xml version="1.0" encoding="iso-8859-1"?>
<!-- Generator: Adobe Illustrator 16.0.0, SVG Export Plug-In . SVG Version: 6.00 Build 0)  -->
<!DOCTYPE svg PUBLIC "-//W3C//DTD SVG 1.1//EN" "http://www.w3.org/Graphics/SVG/1.1/DTD/svg11.dtd">
<svg version="1.1" id="Layer_1" xmlns="http://www.w3.org/2000/svg" xmlns:xlink="http://www.w3.org/1999/xlink" x="0px" y="0px"
	 width="16px" height="16px" viewBox="0 0 16 16" style="enable-background:new 0 0 16 16;" xml:space="preserve">
<g id="Save_1">
	<path style="fill-rule:evenodd;clip-rule:evenodd;" d="M15,0H1C0.447,0,0,0.447,0,1v3.5C0,4.776,0.224,5,0.5,5h1
		C1.776,5,2,4.776,2,4.5V2h5v4H5.305C5.008,6,4.911,6.265,5.09,6.5l2.587,3.322c0.179,0.234,0.468,0.238,0.646,0.004L10.91,6.5
		C11.089,6.264,10.992,6,10.695,6H9V2h5v2.5C14,4.776,14.224,5,14.5,5h1C15.776,5,16,4.776,16,4.5V1C16,0.447,15.553,0,15,0z"/>
	<path style="fill-rule:evenodd;clip-rule:evenodd;" d="M15.5,11h-1c-0.276,0-0.5,0.224-0.5,0.5V14H2v-2.5C2,11.224,1.776,11,1.5,11
		h-1C0.224,11,0,11.224,0,11.5V15c0,0.553,0.447,1,1,1h14c0.553,0,1-0.447,1-1v-3.5C16,11.224,15.776,11,15.5,11z"/>
</g>
<g>
</g>
<g>
</g>
<g>
</g>
<g>
</g>
<g>
</g>
<g>
</g>
<g>
</g>
<g>
</g>
<g>
</g>
<g>
</g>
<g>
</g>
<g>
</g>
<g>
</g>
<g>
</g>
<g>
</g>
</svg>
