<?xml version="1.0" encoding="iso-8859-1"?>
<!-- Generator: Adobe Illustrator 16.0.0, SVG Export Plug-In . SVG Version: 6.00 Build 0)  -->
<!DOCTYPE svg PUBLIC "-//W3C//DTD SVG 1.1//EN" "http://www.w3.org/Graphics/SVG/1.1/DTD/svg11.dtd">
<svg version="1.1" id="Layer_1" xmlns="http://www.w3.org/2000/svg" xmlns:xlink="http://www.w3.org/1999/xlink" x="0px" y="0px"
	 width="15.898px" height="16px" viewBox="0 0 15.898 16" style="enable-background:new 0 0 15.898 16;" xml:space="preserve">
<path id="Scissors_1_x2C__Cut_1" d="M14.859,10.358c-0.687-0.789-1.564-1.193-2.394-1.193c-0.299,0-0.59,0.062-0.866,0.168
	L9.795,7.261L13,3.579c0.715-0.818,0.903-1.929,0.422-2.481C12.941,0.546,12.409,0,12.409,0L8,5L3.49,0c0,0-0.532,0.546-1.013,1.098
	C1.996,1.65,2.184,2.761,2.899,3.579l3.205,3.682L4.299,9.333C4.023,9.228,3.732,9.165,3.433,9.165c-0.83,0-1.708,0.404-2.394,1.193
	c-1.249,1.433-1.391,3.591-0.323,4.818C1.198,15.729,1.843,16,2.521,16c0.829,0,1.707-0.405,2.394-1.193
	c0.827-0.948,1.157-2.209,0.984-3.312L8,9l2,2.494c-0.172,1.104,0.158,2.364,0.984,3.312C11.671,15.595,12.549,16,13.378,16
	c0.677,0,1.323-0.271,1.805-0.823C16.25,13.949,16.108,11.791,14.859,10.358z M4.398,12.184c-0.032,0.479-0.244,0.975-0.581,1.362
	c-0.373,0.427-0.845,0.672-1.297,0.672c-0.203,0-0.49-0.052-0.706-0.301c-0.259-0.297-0.272-0.714-0.259-0.937
	c0.032-0.479,0.246-0.977,0.583-1.361c0.371-0.428,0.844-0.672,1.295-0.672c0.203,0,0.49,0.052,0.706,0.301
	C4.398,11.545,4.413,11.962,4.398,12.184z M14.084,13.917c-0.216,0.249-0.503,0.301-0.706,0.301c-0.452,0-0.924-0.245-1.297-0.672
	c-0.336-0.388-0.548-0.884-0.581-1.362c-0.015-0.222,0-0.639,0.259-0.936c0.216-0.249,0.503-0.301,0.706-0.301
	c0.451,0,0.924,0.244,1.295,0.672c0.337,0.385,0.55,0.882,0.583,1.361C14.356,13.203,14.343,13.62,14.084,13.917z"/>
<g>
</g>
<g>
</g>
<g>
</g>
<g>
</g>
<g>
</g>
<g>
</g>
<g>
</g>
<g>
</g>
<g>
</g>
<g>
</g>
<g>
</g>
<g>
</g>
<g>
</g>
<g>
</g>
<g>
</g>
</svg>
