<?xml version="1.0" encoding="iso-8859-1"?>
<!-- Generator: Adobe Illustrator 16.0.0, SVG Export Plug-In . SVG Version: 6.00 Build 0)  -->
<!DOCTYPE svg PUBLIC "-//W3C//DTD SVG 1.1//EN" "http://www.w3.org/Graphics/SVG/1.1/DTD/svg11.dtd">
<svg version="1.1" id="Layer_1" xmlns="http://www.w3.org/2000/svg" xmlns:xlink="http://www.w3.org/1999/xlink" x="0px" y="0px"
	 width="14px" height="16px" viewBox="0 0 14 16" style="enable-background:new 0 0 14 16;" xml:space="preserve">
<g id="Shop_2_x2C__Market_2_x2C__Store_2">
	<path style="fill-rule:evenodd;clip-rule:evenodd;" d="M13,0h-1h-1H9H8H6H5H3H2H1C0.45,0,0,0.45,0,1v14c0,0.55,0.45,1,1,1h12
		c0.55,0,1-0.45,1-1V1C14,0.45,13.55,0,13,0z M8,2h1v5H8V2z M5,2h1v5H5V2z M2,2h1v5H2V2z M12,14H5v-4H3v4H2V9h10V14z M12,7h-1V2h1V7
		z"/>
	<rect x="6" y="10" style="fill-rule:evenodd;clip-rule:evenodd;" width="5" height="2"/>
</g>
<g>
</g>
<g>
</g>
<g>
</g>
<g>
</g>
<g>
</g>
<g>
</g>
<g>
</g>
<g>
</g>
<g>
</g>
<g>
</g>
<g>
</g>
<g>
</g>
<g>
</g>
<g>
</g>
<g>
</g>
</svg>
