<?xml version="1.0" encoding="iso-8859-1"?>
<!-- Generator: Adobe Illustrator 16.0.0, SVG Export Plug-In . SVG Version: 6.00 Build 0)  -->
<!DOCTYPE svg PUBLIC "-//W3C//DTD SVG 1.1//EN" "http://www.w3.org/Graphics/SVG/1.1/DTD/svg11.dtd">
<svg version="1.1" id="Layer_1" xmlns="http://www.w3.org/2000/svg" xmlns:xlink="http://www.w3.org/1999/xlink" x="0px" y="0px"
	 width="16px" height="16px" viewBox="0 0 16 16" style="enable-background:new 0 0 16 16;" xml:space="preserve">
<g id="Slider_1">
	<path style="fill-rule:evenodd;clip-rule:evenodd;" d="M15,0H1C0.447,0,0,0.447,0,1v14c0,0.553,0.447,1,1,1h14c0.553,0,1-0.447,1-1
		V1C16,0.447,15.553,0,15,0z M14,14H2V2h12V14z"/>
	<path style="fill-rule:evenodd;clip-rule:evenodd;" d="M3.5,7H4v5.5C4,12.776,4.224,13,4.5,13h1C5.776,13,6,12.776,6,12.5V7h0.5
		C6.776,7,7,6.776,7,6.5v-1C7,5.224,6.776,5,6.5,5H6V3.5C6,3.224,5.776,3,5.5,3h-1C4.224,3,4,3.224,4,3.5V5H3.5
		C3.224,5,3,5.224,3,5.5v1C3,6.776,3.224,7,3.5,7z"/>
	<path style="fill-rule:evenodd;clip-rule:evenodd;" d="M9.5,11H10v1.5c0,0.276,0.224,0.5,0.5,0.5h1c0.276,0,0.5-0.224,0.5-0.5V11
		h0.5c0.276,0,0.5-0.224,0.5-0.5v-1C13,9.224,12.776,9,12.5,9H12V3.5C12,3.224,11.776,3,11.5,3h-1C10.224,3,10,3.224,10,3.5V9H9.5
		C9.224,9,9,9.224,9,9.5v1C9,10.776,9.224,11,9.5,11z"/>
</g>
<g>
</g>
<g>
</g>
<g>
</g>
<g>
</g>
<g>
</g>
<g>
</g>
<g>
</g>
<g>
</g>
<g>
</g>
<g>
</g>
<g>
</g>
<g>
</g>
<g>
</g>
<g>
</g>
<g>
</g>
</svg>
