<?xml version="1.0" encoding="iso-8859-1"?>
<!-- Generator: Adobe Illustrator 16.0.0, SVG Export Plug-In . SVG Version: 6.00 Build 0)  -->
<!DOCTYPE svg PUBLIC "-//W3C//DTD SVG 1.1//EN" "http://www.w3.org/Graphics/SVG/1.1/DTD/svg11.dtd">
<svg version="1.1" id="Layer_1" xmlns="http://www.w3.org/2000/svg" xmlns:xlink="http://www.w3.org/1999/xlink" x="0px" y="0px"
	 width="12px" height="16px" viewBox="0 0 12 16" style="enable-background:new 0 0 12 16;" xml:space="preserve">
<g id="Smart_Phone_2">
	<g>
		<path style="fill-rule:evenodd;clip-rule:evenodd;" d="M11,0H1C0.447,0,0,0.447,0,1v14c0,0.553,0.447,1,1,1h10
			c0.553,0,1-0.447,1-1V1C12,0.447,11.553,0,11,0z M10,14H2V2h8V14z"/>
	</g>
	<g>
		<rect x="3" y="3" width="6" height="7"/>
		<path d="M6.5,11h-1C5.224,11,5,11.224,5,11.5v1C5,12.776,5.224,13,5.5,13h1C6.776,13,7,12.776,7,12.5v-1C7,11.224,6.776,11,6.5,11
			z"/>
	</g>
</g>
<g>
</g>
<g>
</g>
<g>
</g>
<g>
</g>
<g>
</g>
<g>
</g>
<g>
</g>
<g>
</g>
<g>
</g>
<g>
</g>
<g>
</g>
<g>
</g>
<g>
</g>
<g>
</g>
<g>
</g>
</svg>
