<?xml version="1.0" encoding="iso-8859-1"?>
<!-- Generator: Adobe Illustrator 16.0.0, SVG Export Plug-In . SVG Version: 6.00 Build 0)  -->
<!DOCTYPE svg PUBLIC "-//W3C//DTD SVG 1.1//EN" "http://www.w3.org/Graphics/SVG/1.1/DTD/svg11.dtd">
<svg version="1.1" id="Layer_1" xmlns="http://www.w3.org/2000/svg" xmlns:xlink="http://www.w3.org/1999/xlink" x="0px" y="0px"
	 width="12px" height="16px" viewBox="0 0 12 16" style="enable-background:new 0 0 12 16;" xml:space="preserve">
<g id="Smart_Phone_1">
	<path style="fill-rule:evenodd;clip-rule:evenodd;" d="M11,0H1C0.447,0,0,0.447,0,1v14c0,0.553,0.447,1,1,1h10c0.553,0,1-0.447,1-1
		V1C12,0.447,11.553,0,11,0z M7,14.5C7,14.776,6.776,15,6.5,15h-1C5.224,15,5,14.776,5,14.5v-1C5,13.224,5.224,13,5.5,13h1
		C6.776,13,7,13.224,7,13.5V14.5z M10,12H2V2h8V12z"/>
	<path style="fill-rule:evenodd;clip-rule:evenodd;" d="M3.5,6h5C8.776,6,9,5.776,9,5.5v-1C9,4.224,8.776,4,8.5,4h-5
		C3.224,4,3,4.224,3,4.5v1C3,5.776,3.224,6,3.5,6z"/>
	<path style="fill-rule:evenodd;clip-rule:evenodd;" d="M3.5,9h5C8.776,9,9,8.776,9,8.5v-1C9,7.224,8.776,7,8.5,7h-5
		C3.224,7,3,7.224,3,7.5v1C3,8.776,3.224,9,3.5,9z"/>
</g>
<g>
</g>
<g>
</g>
<g>
</g>
<g>
</g>
<g>
</g>
<g>
</g>
<g>
</g>
<g>
</g>
<g>
</g>
<g>
</g>
<g>
</g>
<g>
</g>
<g>
</g>
<g>
</g>
<g>
</g>
</svg>
