<?xml version="1.0" encoding="iso-8859-1"?>
<!-- Generator: Adobe Illustrator 16.0.0, SVG Export Plug-In . SVG Version: 6.00 Build 0)  -->
<!DOCTYPE svg PUBLIC "-//W3C//DTD SVG 1.1//EN" "http://www.w3.org/Graphics/SVG/1.1/DTD/svg11.dtd">
<svg version="1.1" id="Layer_1" xmlns="http://www.w3.org/2000/svg" xmlns:xlink="http://www.w3.org/1999/xlink" x="0px" y="0px"
	 width="18px" height="16px" viewBox="0 0 18 16" style="enable-background:new 0 0 18 16;" xml:space="preserve">
<g id="Speaker_1_x2C__Volume_1">
	<path style="fill-rule:evenodd;clip-rule:evenodd;" d="M8.042,0.141L4,4.018H1c-0.553,0-1,0.464-1,1.006v5.948
		c0,0.542,0.447,1.046,1,1.046h3l4.063,3.889c0,0,0.937,0.549,0.937-1.076c0-0.8,0-8.457,0-13.729C9-0.542,8.042,0.141,8.042,0.141z
		 M7,11.952l-2-1.935H2v-4h3l2-1.976V11.952z"/>
	<path style="fill-rule:evenodd;clip-rule:evenodd;" d="M10.499,4.049C10.225,4.016,10,4.242,10,4.519v1
		c0,0.276,0.228,0.494,0.495,0.562C11.357,6.303,12,7.089,12,8.018s-0.643,1.715-1.505,1.937C10.228,10.022,10,10.24,10,10.517v1
		c0,0.276,0.225,0.503,0.499,0.47C12.473,11.74,14,10.058,14,8.018S12.473,4.295,10.499,4.049z"/>
	<path style="fill-rule:evenodd;clip-rule:evenodd;" d="M10,0.52v1c0,0.276,0.224,0.498,0.499,0.521C13.576,2.294,16,4.876,16,8.018
		s-2.424,5.724-5.501,5.978C10.224,14.018,10,14.239,10,14.516v0.999c0,0.276,0.224,0.502,0.5,0.484c4.187-0.258,7.5-3.73,7.5-7.981
		s-3.313-7.724-7.5-7.981C10.224,0.019,10,0.244,10,0.52z"/>
</g>
<g>
</g>
<g>
</g>
<g>
</g>
<g>
</g>
<g>
</g>
<g>
</g>
<g>
</g>
<g>
</g>
<g>
</g>
<g>
</g>
<g>
</g>
<g>
</g>
<g>
</g>
<g>
</g>
<g>
</g>
</svg>
