<?xml version="1.0" encoding="iso-8859-1"?>
<!-- Generator: Adobe Illustrator 16.0.0, SVG Export Plug-In . SVG Version: 6.00 Build 0)  -->
<!DOCTYPE svg PUBLIC "-//W3C//DTD SVG 1.1//EN" "http://www.w3.org/Graphics/SVG/1.1/DTD/svg11.dtd">
<svg version="1.1" id="Layer_1" xmlns="http://www.w3.org/2000/svg" xmlns:xlink="http://www.w3.org/1999/xlink" x="0px" y="0px"
	 width="14px" height="16.007px" viewBox="0 0 14 16.007" style="enable-background:new 0 0 14 16.007;" xml:space="preserve">
<g id="Speaker_2_x2C__Volume_2">
	<path style="fill-rule:evenodd;clip-rule:evenodd;" d="M10,4.505v1c0,0.276,0.228,0.494,0.495,0.562
		C11.357,6.289,12,7.076,12,8.005s-0.643,1.716-1.505,1.938C10.228,10.011,10,10.229,10,10.505v1c0,0.276,0.225,0.503,0.499,0.47
		C12.473,11.729,14,10.046,14,8.005s-1.527-3.724-3.501-3.97C10.225,4.002,10,4.229,10,4.505z"/>
	<path style="fill-rule:evenodd;clip-rule:evenodd;" d="M8.042,0.135L4,4.005H1c-0.553,0-1,0.488-1,1.03v5.952
		c0,0.542,0.447,1.018,1,1.018h3l4.063,3.907c0,0,0.937,0.562,0.937-1.064c0-0.8,0-8.463,0-13.737C9-0.535,8.042,0.135,8.042,0.135z
		 M7,11.968l-2-1.963H2v-4h3l2-1.951V11.968z"/>
</g>
<g>
</g>
<g>
</g>
<g>
</g>
<g>
</g>
<g>
</g>
<g>
</g>
<g>
</g>
<g>
</g>
<g>
</g>
<g>
</g>
<g>
</g>
<g>
</g>
<g>
</g>
<g>
</g>
<g>
</g>
</svg>
