<?xml version="1.0" encoding="iso-8859-1"?>
<!-- Generator: Adobe Illustrator 16.0.0, SVG Export Plug-In . SVG Version: 6.00 Build 0)  -->
<!DOCTYPE svg PUBLIC "-//W3C//DTD SVG 1.1//EN" "http://www.w3.org/Graphics/SVG/1.1/DTD/svg11.dtd">
<svg version="1.1" id="Layer_1" xmlns="http://www.w3.org/2000/svg" xmlns:xlink="http://www.w3.org/1999/xlink" x="0px" y="0px"
	 width="16px" height="16px" viewBox="0 0 16 16" style="enable-background:new 0 0 16 16;" xml:space="preserve">
<g id="Star_1">
	<path d="M6.058,9.135L5.25,11.723c-0.061,0.199-0.011,0.283,0.112,0.283c0.047,0,0.105-0.034,0.171-0.07l2.475-1.352l2.504,1.341
		c0.066,0.036,0.125,0.05,0.171,0.05c0.124,0,0.172-0.117,0.109-0.317L9.959,8.998l1.676-1.545C11.846,7.266,12.219,7,11.795,7
		H9.573l-1.28-2.578C8.224,4.297,8.099,4,8.008,4S7.81,4.281,7.741,4.406L6.444,7H4.141C3.912,7,3.977,7.156,4.106,7.266
		L6.058,9.135z"/>
	<path d="M15,0H1C0.448,0,0,0.447,0,1v14c0,0.553,0.448,1,1,1h14c0.552,0,1-0.447,1-1V1C16,0.447,15.552,0,15,0z M14,14H2V2h12V14z"
		/>
</g>
<g>
</g>
<g>
</g>
<g>
</g>
<g>
</g>
<g>
</g>
<g>
</g>
<g>
</g>
<g>
</g>
<g>
</g>
<g>
</g>
<g>
</g>
<g>
</g>
<g>
</g>
<g>
</g>
<g>
</g>
</svg>
