<?xml version="1.0" encoding="iso-8859-1"?>
<!-- Generator: Adobe Illustrator 16.0.0, SVG Export Plug-In . SVG Version: 6.00 Build 0)  -->
<!DOCTYPE svg PUBLIC "-//W3C//DTD SVG 1.1//EN" "http://www.w3.org/Graphics/SVG/1.1/DTD/svg11.dtd">
<svg version="1.1" id="Layer_1" xmlns="http://www.w3.org/2000/svg" xmlns:xlink="http://www.w3.org/1999/xlink" x="0px" y="0px"
	 width="16px" height="16px" viewBox="0 0 16 16" style="enable-background:new 0 0 16 16;" xml:space="preserve">
<g id="Sun_2_x2C__Brightness_2">
	<path d="M8,3c0.553,0,1-0.447,1-1V1c0-0.553-0.447-1-1-1S7,0.447,7,1v1C7,2.553,7.447,3,8,3z"/>
	<path d="M11.535,4.465c0.392,0.391,1.023,0.392,1.415,0l0.707-0.707c0.391-0.391,0.391-1.023-0.001-1.414
		c-0.391-0.391-1.023-0.391-1.414,0l-0.707,0.707C11.145,3.441,11.145,4.074,11.535,4.465z"/>
	<path d="M13,8c0,0.553,0.446,1,1,1h1c0.553,0,1-0.447,1-1s-0.448-1-1-1h-1C13.447,7,13,7.447,13,8z"/>
	<path d="M11.536,11.535c-0.392,0.392-0.392,1.023-0.001,1.415l0.707,0.707c0.392,0.392,1.023,0.392,1.416,0
		c0.391-0.391,0.389-1.023-0.002-1.414l-0.707-0.707C12.559,11.146,11.927,11.145,11.536,11.535z"/>
	<path d="M8,13.001c-0.553,0-1,0.446-1,0.999v1c0,0.553,0.446,1,1,1c0.553,0,0.999-0.449,1-1v-1C9,13.447,8.553,13.001,8,13.001z"/>
	<path d="M4.464,11.537c-0.391-0.391-1.022-0.392-1.414,0l-0.708,0.707c-0.391,0.391-0.391,1.023,0,1.414
		c0.391,0.392,1.023,0.39,1.415,0l0.708-0.707C4.855,12.561,4.855,11.928,4.464,11.537z"/>
	<path d="M2.999,8.001C2.998,7.448,2.553,7.002,2,7.002L0.999,7C0.447,7.001,0,7.447,0,7.999C0,8.553,0.449,9,1,9h1.001
		C2.552,9,3,8.554,2.999,8.001z"/>
	<path d="M4.463,4.465c0.391-0.391,0.392-1.021,0-1.414L3.756,2.343C3.365,1.952,2.732,1.951,2.342,2.342
		C1.951,2.733,1.953,3.367,2.343,3.758l0.708,0.707C3.441,4.855,4.073,4.857,4.463,4.465z"/>
	<path d="M7.999,4c-2.21,0-4,1.79-4,4s1.79,4,4,4s4-1.79,4-4S10.209,4,7.999,4z M7.999,10c-1.104,0-2-0.896-2-2s0.896-2,2-2
		s2,0.896,2,2S9.103,10,7.999,10z"/>
</g>
<g>
</g>
<g>
</g>
<g>
</g>
<g>
</g>
<g>
</g>
<g>
</g>
<g>
</g>
<g>
</g>
<g>
</g>
<g>
</g>
<g>
</g>
<g>
</g>
<g>
</g>
<g>
</g>
<g>
</g>
</svg>
