<?xml version="1.0" encoding="iso-8859-1"?>
<!-- Generator: Adobe Illustrator 16.0.0, SVG Export Plug-In . SVG Version: 6.00 Build 0)  -->
<!DOCTYPE svg PUBLIC "-//W3C//DTD SVG 1.1//EN" "http://www.w3.org/Graphics/SVG/1.1/DTD/svg11.dtd">
<svg version="1.1" id="Layer_1" xmlns="http://www.w3.org/2000/svg" xmlns:xlink="http://www.w3.org/1999/xlink" x="0px" y="0px"
	 width="16px" height="16px" viewBox="0 0 16 16" style="enable-background:new 0 0 16 16;" xml:space="preserve">
<path id="Switch_Window_1" style="fill-rule:evenodd;clip-rule:evenodd;" d="M15,0H5C4.448,0,4,0.447,4,1v3H1C0.448,4,0,4.447,0,5
	v10c0,0.553,0.448,1,1,1h10c0.552,0,1-0.447,1-1v-3h3c0.552,0,1-0.447,1-1V1C16,0.447,15.552,0,15,0z M10,14H2V6h2v5
	c0,0.553,0.448,1,1,1h5V14z M14,10H6V2h8V10z"/>
<g>
</g>
<g>
</g>
<g>
</g>
<g>
</g>
<g>
</g>
<g>
</g>
<g>
</g>
<g>
</g>
<g>
</g>
<g>
</g>
<g>
</g>
<g>
</g>
<g>
</g>
<g>
</g>
<g>
</g>
</svg>
