<?xml version="1.0" encoding="iso-8859-1"?>
<!-- Generator: Adobe Illustrator 16.0.0, SVG Export Plug-In . SVG Version: 6.00 Build 0)  -->
<!DOCTYPE svg PUBLIC "-//W3C//DTD SVG 1.1//EN" "http://www.w3.org/Graphics/SVG/1.1/DTD/svg11.dtd">
<svg version="1.1" id="Layer_1" xmlns="http://www.w3.org/2000/svg" xmlns:xlink="http://www.w3.org/1999/xlink" x="0px" y="0px"
	 width="16.037px" height="12px" viewBox="0 0 16.037 12" style="enable-background:new 0 0 16.037 12;" xml:space="preserve">
<g id="Tag_2">
	<path style="fill-rule:evenodd;clip-rule:evenodd;" d="M15.77,5.252l-4.341-4.89C11.25,0.162,10.898,0,10.64,0H1.48
		C0.963,0,0,0.497,0,1.05v9.9C0,11.503,0.963,12,1.48,12h9.16c0.258,0,0.61-0.162,0.788-0.362l4.341-4.902
		C16.126,6.336,16.126,5.652,15.77,5.252z M9.88,10H2V2h7.88l3.734,4L9.88,10z"/>
	<path style="fill-rule:evenodd;clip-rule:evenodd;" d="M9,5.5v1C9,6.776,9.224,7,9.5,7h1C10.776,7,11,6.776,11,6.5v-1
		C11,5.224,10.776,5,10.5,5h-1C9.224,5,9,5.224,9,5.5z"/>
</g>
<g>
</g>
<g>
</g>
<g>
</g>
<g>
</g>
<g>
</g>
<g>
</g>
<g>
</g>
<g>
</g>
<g>
</g>
<g>
</g>
<g>
</g>
<g>
</g>
<g>
</g>
<g>
</g>
<g>
</g>
</svg>
