<?xml version="1.0" encoding="iso-8859-1"?>
<!-- Generator: Adobe Illustrator 16.0.0, SVG Export Plug-In . SVG Version: 6.00 Build 0)  -->
<!DOCTYPE svg PUBLIC "-//W3C//DTD SVG 1.1//EN" "http://www.w3.org/Graphics/SVG/1.1/DTD/svg11.dtd">
<svg version="1.1" id="Layer_1" xmlns="http://www.w3.org/2000/svg" xmlns:xlink="http://www.w3.org/1999/xlink" x="0px" y="0px"
	 width="16px" height="16px" viewBox="0 0 16 16" style="enable-background:new 0 0 16 16;" xml:space="preserve">
<g id="Tag_1">
	<path style="fill-rule:evenodd;clip-rule:evenodd;" d="M8.086,0C7.81,0,7.428,0.158,7.232,0.354L0.293,7.293
		c-0.391,0.391-0.391,1.023,0,1.414l7,7c0.391,0.391,1.023,0.391,1.414,0l6.939-6.939C15.842,8.572,16,8.19,16,7.914V1
		c0-0.553-0.447-1-1-1H8.086z M14,7.586l-6,6L2.414,8l6-6H14V7.586z"/>
	<path style="fill-rule:evenodd;clip-rule:evenodd;" d="M10,7h1c0.553,0,1-0.447,1-1V5c0-0.553-0.447-1-1-1h-1C9.447,4,9,4.447,9,5
		v1C9,6.553,9.447,7,10,7z"/>
</g>
<g>
</g>
<g>
</g>
<g>
</g>
<g>
</g>
<g>
</g>
<g>
</g>
<g>
</g>
<g>
</g>
<g>
</g>
<g>
</g>
<g>
</g>
<g>
</g>
<g>
</g>
<g>
</g>
<g>
</g>
</svg>
