<?xml version="1.0" encoding="iso-8859-1"?>
<!-- Generator: Adobe Illustrator 16.0.0, SVG Export Plug-In . SVG Version: 6.00 Build 0)  -->
<!DOCTYPE svg PUBLIC "-//W3C//DTD SVG 1.1//EN" "http://www.w3.org/Graphics/SVG/1.1/DTD/svg11.dtd">
<svg version="1.1" id="Layer_1" xmlns="http://www.w3.org/2000/svg" xmlns:xlink="http://www.w3.org/1999/xlink" x="0px" y="0px"
	 width="14px" height="16px" viewBox="0 0 14 16" style="enable-background:new 0 0 14 16;" xml:space="preserve">
<g id="Taskpad_1">
	<path style="fill-rule:evenodd;clip-rule:evenodd;" d="M12.5,0C12.224,0,12,0.224,12,0.5V2h-1V0.5C11,0.224,10.776,0,10.5,0h-1
		C9.224,0,9,0.224,9,0.5V2H8V0.5C8,0.224,7.776,0,7.5,0h-1C6.224,0,6,0.224,6,0.5V2H5V0.5C5,0.224,4.776,0,4.5,0h-1
		C3.224,0,3,0.224,3,0.5V2H2V0.5C2,0.224,1.776,0,1.5,0H1C0.45,0,0,0.45,0,1v14c0,0.55,0.45,1,1,1h12c0.55,0,1-0.45,1-1V1
		c0-0.55-0.45-1-1-1H12.5z M12,14H2V4h10V14z"/>
	<path style="fill-rule:evenodd;clip-rule:evenodd;" d="M4.5,5h-1C3.224,5,3,5.224,3,5.5v1C3,6.776,3.224,7,3.5,7h1
		C4.776,7,5,6.776,5,6.5v-1C5,5.224,4.776,5,4.5,5z"/>
	<path style="fill-rule:evenodd;clip-rule:evenodd;" d="M10.5,5h-4C6.224,5,6,5.224,6,5.5v1C6,6.776,6.224,7,6.5,7h4
		C10.776,7,11,6.776,11,6.5v-1C11,5.224,10.776,5,10.5,5z"/>
	<path style="fill-rule:evenodd;clip-rule:evenodd;" d="M4.5,8h-1C3.224,8,3,8.224,3,8.5v1C3,9.776,3.224,10,3.5,10h1
		C4.776,10,5,9.776,5,9.5v-1C5,8.224,4.776,8,4.5,8z"/>
	<path style="fill-rule:evenodd;clip-rule:evenodd;" d="M10.5,8h-4C6.224,8,6,8.224,6,8.5v1C6,9.776,6.224,10,6.5,10h4
		c0.276,0,0.5-0.224,0.5-0.5v-1C11,8.224,10.776,8,10.5,8z"/>
	<path style="fill-rule:evenodd;clip-rule:evenodd;" d="M4.5,11h-1C3.224,11,3,11.224,3,11.5v1C3,12.776,3.224,13,3.5,13h1
		C4.776,13,5,12.776,5,12.5v-1C5,11.224,4.776,11,4.5,11z"/>
	<path style="fill-rule:evenodd;clip-rule:evenodd;" d="M10.5,11h-4C6.224,11,6,11.224,6,11.5v1C6,12.776,6.224,13,6.5,13h4
		c0.276,0,0.5-0.224,0.5-0.5v-1C11,11.224,10.776,11,10.5,11z"/>
</g>
<g>
</g>
<g>
</g>
<g>
</g>
<g>
</g>
<g>
</g>
<g>
</g>
<g>
</g>
<g>
</g>
<g>
</g>
<g>
</g>
<g>
</g>
<g>
</g>
<g>
</g>
<g>
</g>
<g>
</g>
</svg>
