<?xml version="1.0" encoding="iso-8859-1"?>
<!-- Generator: Adobe Illustrator 16.0.0, SVG Export Plug-In . SVG Version: 6.00 Build 0)  -->
<!DOCTYPE svg PUBLIC "-//W3C//DTD SVG 1.1//EN" "http://www.w3.org/Graphics/SVG/1.1/DTD/svg11.dtd">
<svg version="1.1" id="Layer_1" xmlns="http://www.w3.org/2000/svg" xmlns:xlink="http://www.w3.org/1999/xlink" x="0px" y="0px"
	 width="16px" height="16px" viewBox="0 0 16 16" style="enable-background:new 0 0 16 16;" xml:space="preserve">
<g id="Thinking_Comment_2">
	<path d="M10.5,7h1C11.776,7,12,6.776,12,6.5v-1C12,5.224,11.776,5,11.5,5h-1C10.224,5,10,5.224,10,5.5v1C10,6.776,10.224,7,10.5,7z
		"/>
	<path d="M7.5,7h1C8.776,7,9,6.776,9,6.5v-1C9,5.224,8.776,5,8.5,5h-1C7.224,5,7,5.224,7,5.5v1C7,6.776,7.224,7,7.5,7z"/>
	<path d="M4.5,7h1C5.776,7,6,6.776,6,6.5v-1C6,5.224,5.776,5,5.5,5h-1C4.224,5,4,5.224,4,5.5v1C4,6.776,4.224,7,4.5,7z"/>
	<path d="M15,0H1C0.447,0,0,0.447,0,1v11c0,0.553,0.447,1,1,1h1v2c0,0.553,0.447,1,1,1h1c0.182,0,0.359-0.049,0.515-0.143L9.277,13
		H15c0.553,0,1-0.447,1-1V1C16,0.447,15.553,0,15,0z M14,11H9c-0.182,0-0.359,0.049-0.515,0.143L4,13.834V12c0-0.553-0.447-1-1-1H2
		V2h12V11z"/>
</g>
<g>
</g>
<g>
</g>
<g>
</g>
<g>
</g>
<g>
</g>
<g>
</g>
<g>
</g>
<g>
</g>
<g>
</g>
<g>
</g>
<g>
</g>
<g>
</g>
<g>
</g>
<g>
</g>
<g>
</g>
</svg>
