<?xml version="1.0" encoding="iso-8859-1"?>
<!-- Generator: Adobe Illustrator 16.0.0, SVG Export Plug-In . SVG Version: 6.00 Build 0)  -->
<!DOCTYPE svg PUBLIC "-//W3C//DTD SVG 1.1//EN" "http://www.w3.org/Graphics/SVG/1.1/DTD/svg11.dtd">
<svg version="1.1" id="Layer_1" xmlns="http://www.w3.org/2000/svg" xmlns:xlink="http://www.w3.org/1999/xlink" x="0px" y="0px"
	 width="16px" height="16px" viewBox="0 0 16 16" style="enable-background:new 0 0 16 16;" xml:space="preserve">
<path id="Toolbox_1" d="M12,1c0-0.553-0.447-1-1-1H5C4.447,0,4,0.447,4,1v2H1C0.447,3,0,3.447,0,4v11c0,0.553,0.447,1,1,1h14
	c0.553,0,1-0.447,1-1V4c0-0.553-0.447-1-1-1h-3V1z M6,2h4v1H6V2z M2,14v-3h4v0.5C6,11.776,6.224,12,6.5,12h3
	c0.276,0,0.5-0.224,0.5-0.5V11h4v3H2z M10,8.5C10,8.224,9.776,8,9.5,8h-3C6.224,8,6,8.224,6,8.5V9H2V5h12v4h-4V8.5z"/>
<g>
</g>
<g>
</g>
<g>
</g>
<g>
</g>
<g>
</g>
<g>
</g>
<g>
</g>
<g>
</g>
<g>
</g>
<g>
</g>
<g>
</g>
<g>
</g>
<g>
</g>
<g>
</g>
<g>
</g>
</svg>
