<?xml version="1.0" encoding="iso-8859-1"?>
<!-- Generator: Adobe Illustrator 16.0.0, SVG Export Plug-In . SVG Version: 6.00 Build 0)  -->
<!DOCTYPE svg PUBLIC "-//W3C//DTD SVG 1.1//EN" "http://www.w3.org/Graphics/SVG/1.1/DTD/svg11.dtd">
<svg version="1.1" id="Layer_1" xmlns="http://www.w3.org/2000/svg" xmlns:xlink="http://www.w3.org/1999/xlink" x="0px" y="0px"
	 width="14px" height="16px" viewBox="0 0 14 16" style="enable-background:new 0 0 14 16;" xml:space="preserve">
<g id="Trash_2_x2C__Delete_2">
	<path d="M5.5,6h-1C4.224,6,4,6.224,4,6.5v6C4,12.776,4.224,13,4.5,13h1C5.776,13,6,12.776,6,12.5v-6C6,6.224,5.776,6,5.5,6z"/>
	<path d="M9.5,6h-1C8.224,6,8,6.224,8,6.5v6C8,12.776,8.224,13,8.5,13h1c0.276,0,0.5-0.224,0.5-0.5v-6C10,6.224,9.776,6,9.5,6z"/>
	<path d="M11,1c0-0.553-0.447-1-1-1H4C3.447,0,3,0.447,3,1v2H1C0.447,3,0,3.447,0,4l0,0c0,0.553,0.447,1,1,1l0,0v9v1
		c0,0.553,0.447,1,1,1h10c0.553,0,1-0.447,1-1V5l0,0c0.553,0,1-0.447,1-1l0,0c0-0.553-0.447-1-1-1h-2V1z M5,2h4v1H5V2z M11,14H3V5h8
		V14z"/>
</g>
<g>
</g>
<g>
</g>
<g>
</g>
<g>
</g>
<g>
</g>
<g>
</g>
<g>
</g>
<g>
</g>
<g>
</g>
<g>
</g>
<g>
</g>
<g>
</g>
<g>
</g>
<g>
</g>
<g>
</g>
</svg>
