<?xml version="1.0" encoding="iso-8859-1"?>
<!-- Generator: Adobe Illustrator 16.0.0, SVG Export Plug-In . SVG Version: 6.00 Build 0)  -->
<!DOCTYPE svg PUBLIC "-//W3C//DTD SVG 1.1//EN" "http://www.w3.org/Graphics/SVG/1.1/DTD/svg11.dtd">
<svg version="1.1" id="Layer_1" xmlns="http://www.w3.org/2000/svg" xmlns:xlink="http://www.w3.org/1999/xlink" x="0px" y="0px"
	 width="16px" height="16px" viewBox="0 0 16 16" style="enable-background:new 0 0 16 16;" xml:space="preserve">
<g id="Trash_3_x2C__Delete_3">
	<path d="M6.5,7h-1C5.224,7,5,7.224,5,7.5v4C5,11.776,5.224,12,5.5,12h1C6.776,12,7,11.776,7,11.5v-4C7,7.224,6.776,7,6.5,7z"/>
	<path d="M10.5,7h-1C9.224,7,9,7.224,9,7.5v4C9,11.776,9.224,12,9.5,12h1c0.276,0,0.5-0.224,0.5-0.5v-4C11,7.224,10.776,7,10.5,7z"
		/>
	<path d="M12,1c0-0.553-0.447-1-1-1H5C4.447,0,4,0.447,4,1v2H1C0.447,3,0,3.447,0,4l0,0c0,0.553,0.447,1,1,1l0,0v9v1
		c0,0.553,0.447,1,1,1h12c0.553,0,1-0.447,1-1V5l0,0c0.553,0,1-0.447,1-1l0,0c0-0.553-0.447-1-1-1h-3V1z M6,2h4v1H6V2z M13,14H3V5
		h10V14z"/>
</g>
<g>
</g>
<g>
</g>
<g>
</g>
<g>
</g>
<g>
</g>
<g>
</g>
<g>
</g>
<g>
</g>
<g>
</g>
<g>
</g>
<g>
</g>
<g>
</g>
<g>
</g>
<g>
</g>
<g>
</g>
</svg>
