<?xml version="1.0" encoding="iso-8859-1"?>
<!-- Generator: Adobe Illustrator 16.0.0, SVG Export Plug-In . SVG Version: 6.00 Build 0)  -->
<!DOCTYPE svg PUBLIC "-//W3C//DTD SVG 1.1//EN" "http://www.w3.org/Graphics/SVG/1.1/DTD/svg11.dtd">
<svg version="1.1" id="Layer_1" xmlns="http://www.w3.org/2000/svg" xmlns:xlink="http://www.w3.org/1999/xlink" x="0px" y="0px"
	 width="10px" height="12px" viewBox="0 0 10 12" style="enable-background:new 0 0 10 12;" xml:space="preserve">
<path id="Up_4" d="M6,11.5V3.516l2.42,2.342c0.198,0.189,0.519,0.189,0.716,0l0.717-0.684c0.197-0.188,0.197-0.494,0-0.684
	l-4.507-4.35c-0.199-0.188-0.52-0.188-0.717,0L0.149,4.463c-0.199,0.189-0.199,0.496,0,0.684L0.866,5.83
	c0.197,0.189,0.518,0.189,0.715,0L4,3.489V11.5C4,11.776,4.224,12,4.5,12h1C5.776,12,6,11.776,6,11.5z"/>
<g>
</g>
<g>
</g>
<g>
</g>
<g>
</g>
<g>
</g>
<g>
</g>
<g>
</g>
<g>
</g>
<g>
</g>
<g>
</g>
<g>
</g>
<g>
</g>
<g>
</g>
<g>
</g>
<g>
</g>
</svg>
