<?xml version="1.0" encoding="iso-8859-1"?>
<!-- Generator: Adobe Illustrator 16.0.0, SVG Export Plug-In . SVG Version: 6.00 Build 0)  -->
<!DOCTYPE svg PUBLIC "-//W3C//DTD SVG 1.1//EN" "http://www.w3.org/Graphics/SVG/1.1/DTD/svg11.dtd">
<svg version="1.1" id="Layer_1" xmlns="http://www.w3.org/2000/svg" xmlns:xlink="http://www.w3.org/1999/xlink" x="0px" y="0px"
	 width="16px" height="16px" viewBox="0 0 16 16" style="enable-background:new 0 0 16 16;" xml:space="preserve">
<g id="Up_Circle_2">
	<path d="M4.149,8.463c-0.199,0.189-0.199,0.496,0,0.684L4.866,9.83c0.197,0.189,0.518,0.189,0.715,0l2.405-2.295l2.434,2.322
		c0.198,0.189,0.519,0.189,0.716,0l0.717-0.684c0.197-0.188,0.197-0.494,0-0.684l-3.508-3.35c-0.198-0.188-0.519-0.188-0.717,0
		L4.149,8.463z"/>
	<path style="fill-rule:evenodd;clip-rule:evenodd;" d="M8,0C3.582,0,0,3.582,0,8s3.582,8,8,8s8-3.582,8-8S12.418,0,8,0z M8,14
		c-3.309,0-6-2.691-6-6s2.691-6,6-6s6,2.691,6,6S11.309,14,8,14z"/>
</g>
<g>
</g>
<g>
</g>
<g>
</g>
<g>
</g>
<g>
</g>
<g>
</g>
<g>
</g>
<g>
</g>
<g>
</g>
<g>
</g>
<g>
</g>
<g>
</g>
<g>
</g>
<g>
</g>
<g>
</g>
</svg>
