<?xml version="1.0" encoding="iso-8859-1"?>
<!-- Generator: Adobe Illustrator 16.0.0, SVG Export Plug-In . SVG Version: 6.00 Build 0)  -->
<!DOCTYPE svg PUBLIC "-//W3C//DTD SVG 1.1//EN" "http://www.w3.org/Graphics/SVG/1.1/DTD/svg11.dtd">
<svg version="1.1" id="Layer_1" xmlns="http://www.w3.org/2000/svg" xmlns:xlink="http://www.w3.org/1999/xlink" x="0px" y="0px"
	 width="16px" height="16px" viewBox="0 0 16 16" style="enable-background:new 0 0 16 16;" xml:space="preserve">
<g id="Up_Square_3">
	<path style="fill-rule:evenodd;clip-rule:evenodd;" d="M16,15V1c0-0.553-0.447-1-1-1H1C0.447,0,0,0.447,0,1v14c0,0.553,0.447,1,1,1
		h14C15.553,16,16,15.553,16,15z M2,14V2h12v12H2z"/>
	<path style="fill-rule:evenodd;clip-rule:evenodd;" d="M5.151,7.409C4.86,7.81,5.002,8,5.468,8H7v3.5C7,11.776,7.224,12,7.5,12h1
		C8.776,12,9,11.776,9,11.5V8h1.532c0.466,0,0.608-0.207,0.317-0.608L8.527,4.318c-0.291-0.4-0.764-0.436-1.054-0.035L5.151,7.409z"
		/>
</g>
<g>
</g>
<g>
</g>
<g>
</g>
<g>
</g>
<g>
</g>
<g>
</g>
<g>
</g>
<g>
</g>
<g>
</g>
<g>
</g>
<g>
</g>
<g>
</g>
<g>
</g>
<g>
</g>
<g>
</g>
</svg>
