<?xml version="1.0" encoding="iso-8859-1"?>
<!-- Generator: Adobe Illustrator 16.0.0, SVG Export Plug-In . SVG Version: 6.00 Build 0)  -->
<!DOCTYPE svg PUBLIC "-//W3C//DTD SVG 1.1//EN" "http://www.w3.org/Graphics/SVG/1.1/DTD/svg11.dtd">
<svg version="1.1" id="Layer_1" xmlns="http://www.w3.org/2000/svg" xmlns:xlink="http://www.w3.org/1999/xlink" x="0px" y="0px"
	 width="14px" height="16px" viewBox="0 0 14 16" style="enable-background:new 0 0 14 16;" xml:space="preserve">
<g id="Upload_Document_1">
	<path style="fill-rule:evenodd;clip-rule:evenodd;" d="M13.646,3.646l-3.293-3.293C10.158,0.158,9.776,0,9.5,0H1
		C0.447,0,0,0.447,0,1v14c0,0.553,0.447,1,1,1h12c0.553,0,1-0.447,1-1V4.5C14,4.224,13.842,3.842,13.646,3.646z M12,14H2V2h6v3.5
		C8,5.776,8.224,6,8.5,6H12V14z"/>
	<path style="fill-rule:evenodd;clip-rule:evenodd;" d="M5.677,6.174L3.09,9.5C2.911,9.736,3.008,10,3.305,10H5v2.5
		C5,12.776,5.224,13,5.5,13h1C6.776,13,7,12.776,7,12.5V10h1.695c0.297,0,0.394-0.265,0.215-0.5L6.323,6.178
		C6.145,5.943,5.855,5.939,5.677,6.174z"/>
</g>
<g>
</g>
<g>
</g>
<g>
</g>
<g>
</g>
<g>
</g>
<g>
</g>
<g>
</g>
<g>
</g>
<g>
</g>
<g>
</g>
<g>
</g>
<g>
</g>
<g>
</g>
<g>
</g>
<g>
</g>
</svg>
