<?xml version="1.0" encoding="iso-8859-1"?>
<!-- Generator: Adobe Illustrator 16.0.0, SVG Export Plug-In . SVG Version: 6.00 Build 0)  -->
<!DOCTYPE svg PUBLIC "-//W3C//DTD SVG 1.1//EN" "http://www.w3.org/Graphics/SVG/1.1/DTD/svg11.dtd">
<svg version="1.1" id="Layer_1" xmlns="http://www.w3.org/2000/svg" xmlns:xlink="http://www.w3.org/1999/xlink" x="0px" y="0px"
	 width="14px" height="16px" viewBox="0 0 14 16" style="enable-background:new 0 0 14 16;" xml:space="preserve">
<g id="User_1_x2C__Profile_2">
	<path d="M13,16H1c-0.552,0-1-0.447-1-1v-1c0-2.365,1.213-4.553,3.133-5.83C2.408,7.289,2,6.178,2,5c0-2.757,2.243-5,5-5
		s5,2.243,5,5c0,1.178-0.408,2.289-1.133,3.17C12.787,9.447,14,11.635,14,14v1C14,15.553,13.552,16,13,16z M2,14h10
		c0-2.068-1.299-3.946-3.232-4.674C8.413,9.193,8.164,8.869,8.125,8.491C8.087,8.113,8.266,7.746,8.587,7.544
		C9.472,6.987,10,6.037,10,5c0-1.654-1.346-3-3-3S4,3.346,4,5c0,1.037,0.528,1.987,1.413,2.544c0.321,0.202,0.5,0.569,0.462,0.947
		C5.836,8.869,5.587,9.193,5.232,9.326C3.299,10.054,2,11.932,2,14z"/>
</g>
<g>
</g>
<g>
</g>
<g>
</g>
<g>
</g>
<g>
</g>
<g>
</g>
<g>
</g>
<g>
</g>
<g>
</g>
<g>
</g>
<g>
</g>
<g>
</g>
<g>
</g>
<g>
</g>
<g>
</g>
</svg>
