<?xml version="1.0" encoding="iso-8859-1"?>
<!-- Generator: Adobe Illustrator 16.0.0, SVG Export Plug-In . SVG Version: 6.00 Build 0)  -->
<!DOCTYPE svg PUBLIC "-//W3C//DTD SVG 1.1//EN" "http://www.w3.org/Graphics/SVG/1.1/DTD/svg11.dtd">
<svg version="1.1" id="Layer_1" xmlns="http://www.w3.org/2000/svg" xmlns:xlink="http://www.w3.org/1999/xlink" x="0px" y="0px"
	 width="15.977px" height="16px" viewBox="0 0 15.977 16" style="enable-background:new 0 0 15.977 16;" xml:space="preserve">
<path id="User_4_x2C__Profile_5" style="fill-rule:evenodd;clip-rule:evenodd;" d="M15.948,14c-0.25-3.045-1.693-4.924-4.275-5.646
	c0.81-0.888,1.315-2.058,1.315-3.354c0-2.762-2.238-5-5-5s-5,2.238-5,5c0,1.297,0.506,2.467,1.315,3.354
	C1.722,9.076,0.277,10.955,0.027,14C0.016,14.146,0.006,14.577,0,15.001C-0.009,15.553,0.436,16,0.988,16h14
	c0.553,0,0.997-0.447,0.988-0.999C15.97,14.577,15.96,14.146,15.948,14z M7.988,2c1.654,0,3,1.346,3,3s-1.346,3-3,3s-3-1.346-3-3
	S6.334,2,7.988,2z M2.032,14c0.266-2.826,1.759-4,4.956-4h2c3.197,0,4.69,1.174,4.956,4H2.032z"/>
<g>
</g>
<g>
</g>
<g>
</g>
<g>
</g>
<g>
</g>
<g>
</g>
<g>
</g>
<g>
</g>
<g>
</g>
<g>
</g>
<g>
</g>
<g>
</g>
<g>
</g>
<g>
</g>
<g>
</g>
</svg>
