<?xml version="1.0" encoding="iso-8859-1"?>
<!-- Generator: Adobe Illustrator 16.0.0, SVG Export Plug-In . SVG Version: 6.00 Build 0)  -->
<!DOCTYPE svg PUBLIC "-//W3C//DTD SVG 1.1//EN" "http://www.w3.org/Graphics/SVG/1.1/DTD/svg11.dtd">
<svg version="1.1" id="Layer_1" xmlns="http://www.w3.org/2000/svg" xmlns:xlink="http://www.w3.org/1999/xlink" x="0px" y="0px"
	 width="16px" height="12px" viewBox="0 0 16 12" style="enable-background:new 0 0 16 12;" xml:space="preserve">
<path id="Video_Camera_1_x2C__Video_1" d="M15.105,1.447L12,3V1c0-0.553-0.447-1-1-1H1C0.447,0,0,0.447,0,1v10c0,0.553,0.447,1,1,1
	h10c0.553,0,1-0.447,1-1V9l3.105,1.553C15.6,10.8,16,10.553,16,10V2C16,1.447,15.6,1.2,15.105,1.447z M12.895,7.211
	C12.612,7.07,12.306,7,12,7h-1.5C10.224,7,10,7.224,10,7.5V10H2V2h8v2.5C10,4.776,10.224,5,10.5,5H12
	c0.306,0,0.612-0.07,0.895-0.211L14,4.236v3.527L12.895,7.211z"/>
<g>
</g>
<g>
</g>
<g>
</g>
<g>
</g>
<g>
</g>
<g>
</g>
<g>
</g>
<g>
</g>
<g>
</g>
<g>
</g>
<g>
</g>
<g>
</g>
<g>
</g>
<g>
</g>
<g>
</g>
</svg>
