<?xml version="1.0" encoding="iso-8859-1"?>
<!-- Generator: Adobe Illustrator 16.0.0, SVG Export Plug-In . SVG Version: 6.00 Build 0)  -->
<!DOCTYPE svg PUBLIC "-//W3C//DTD SVG 1.1//EN" "http://www.w3.org/Graphics/SVG/1.1/DTD/svg11.dtd">
<svg version="1.1" id="Layer_1" xmlns="http://www.w3.org/2000/svg" xmlns:xlink="http://www.w3.org/1999/xlink" x="0px" y="0px"
	 width="11.953px" height="15.737px" viewBox="0 0 11.953 15.737" style="enable-background:new 0 0 11.953 15.737;"
	 xml:space="preserve">
<g id="Water_1">
	<path d="M6.25,0.154c-0.184-0.206-0.488-0.207-0.671,0C3.393,2.628,0,7.372,0,9.76c0,3.297,2.681,5.978,5.977,5.978
		s5.977-2.681,5.977-5.978C11.953,7.375,8.447,2.63,6.25,0.154z M5.977,13.737C3.784,13.737,2,11.953,2,9.76
		c0-1.455,1.784-4.211,3.92-6.902C8.141,5.611,9.953,8.284,9.953,9.76C9.953,11.953,8.169,13.737,5.977,13.737z"/>
	<path d="M5.079,12.172c0.412,0.378,0.966,0.611,1.57,0.611c1.284,0,2.327-1.043,2.327-2.327c0-0.604-0.233-1.158-0.611-1.57
		C8.191,8.696,7.996,8.783,7.934,9.032c-0.331,1.333-1.375,2.376-2.707,2.708C4.978,11.803,4.89,11.998,5.079,12.172z"/>
</g>
<g>
</g>
<g>
</g>
<g>
</g>
<g>
</g>
<g>
</g>
<g>
</g>
<g>
</g>
<g>
</g>
<g>
</g>
<g>
</g>
<g>
</g>
<g>
</g>
<g>
</g>
<g>
</g>
<g>
</g>
</svg>
