<?xml version="1.0" encoding="iso-8859-1"?>
<!-- Generator: Adobe Illustrator 16.0.0, SVG Export Plug-In . SVG Version: 6.00 Build 0)  -->
<!DOCTYPE svg PUBLIC "-//W3C//DTD SVG 1.1//EN" "http://www.w3.org/Graphics/SVG/1.1/DTD/svg11.dtd">
<svg version="1.1" id="Layer_1" xmlns="http://www.w3.org/2000/svg" xmlns:xlink="http://www.w3.org/1999/xlink" x="0px" y="0px"
	 width="16px" height="16px" viewBox="0 0 16 16" style="enable-background:new 0 0 16 16;" xml:space="preserve">
<g id="Writing_Comment_1">
	<path d="M10.5,4h-7C3.224,4,3,4.224,3,4.5v1C3,5.776,3.224,6,3.5,6h7C10.776,6,11,5.776,11,5.5v-1C11,4.224,10.776,4,10.5,4z"/>
	<path d="M7.5,7h-4C3.224,7,3,7.224,3,7.5v1C3,8.776,3.224,9,3.5,9h4C7.776,9,8,8.776,8,8.5v-1C8,7.224,7.776,7,7.5,7z"/>
	<path d="M15,0H1C0.447,0,0,0.447,0,1v11c0,0.553,0.447,1,1,1h3.586l2.707,2.707C7.488,15.902,7.744,16,8,16
		s0.512-0.098,0.707-0.293L11.414,13H15c0.553,0,1-0.447,1-1V1C16,0.447,15.553,0,15,0z M14,11h-3c-0.266,0-0.52,0.105-0.707,0.293
		L8,13.586l-2.293-2.293C5.52,11.105,5.266,11,5,11H2V2h12V11z"/>
</g>
<g>
</g>
<g>
</g>
<g>
</g>
<g>
</g>
<g>
</g>
<g>
</g>
<g>
</g>
<g>
</g>
<g>
</g>
<g>
</g>
<g>
</g>
<g>
</g>
<g>
</g>
<g>
</g>
<g>
</g>
</svg>
