<?xml version="1.0" encoding="iso-8859-1"?>
<!-- Generator: Adobe Illustrator 16.0.0, SVG Export Plug-In . SVG Version: 6.00 Build 0)  -->
<!DOCTYPE svg PUBLIC "-//W3C//DTD SVG 1.1//EN" "http://www.w3.org/Graphics/SVG/1.1/DTD/svg11.dtd">
<svg version="1.1" id="Layer_1" xmlns="http://www.w3.org/2000/svg" xmlns:xlink="http://www.w3.org/1999/xlink" x="0px" y="0px"
	 width="16px" height="16px" viewBox="0 0 16 16" style="enable-background:new 0 0 16 16;" xml:space="preserve">
<g id="Zoom_2_x2C__Magnifying_Glass_2">
	<path style="fill-rule:evenodd;clip-rule:evenodd;" d="M15.707,14.293l-3.112-3.092c-0.002-0.002-0.004-0.002-0.006-0.004
		C13.471,10.025,14,8.575,14,7c0-3.859-3.141-7-7-7S0,3.141,0,7s3.141,7,7,7c1.575,0,3.025-0.529,4.196-1.41
		c0.002,0.002,0.002,0.004,0.004,0.006l3.093,3.111C14.488,15.902,14.744,16,15,16s0.512-0.098,0.707-0.293
		C16.098,15.316,16.098,14.684,15.707,14.293z M7,12c-2.757,0-5-2.243-5-5s2.243-5,5-5s5,2.243,5,5S9.757,12,7,12z"/>
</g>
<g>
</g>
<g>
</g>
<g>
</g>
<g>
</g>
<g>
</g>
<g>
</g>
<g>
</g>
<g>
</g>
<g>
</g>
<g>
</g>
<g>
</g>
<g>
</g>
<g>
</g>
<g>
</g>
<g>
</g>
</svg>
