<svg width="354" height="168" viewBox="0 0 354 168" xmlns="http://www.w3.org/2000/svg"><g fill="none"><path d="M156.956 72.399c12.077.205 23.299 4.326 32.795 11.31 9.65-16.546 26.055-27.314 44.494-27.001 6.361.108 12.436 1.526 18.037 4.03 5.909-7.691 14.557-12.479 24.116-12.316 17.397.296 31.222 16.877 30.879 37.036-.155 9.135-3.193 17.437-8.088 23.757 5.323 9.731 8.322 21.339 8.111 33.76-.048 2.85-.264 5.651-.636 8.392 5.667 3.7 9.752 8.013 12.523 14.855l-317.455.21c13.519-36.962 49.597-62.818 91.163-62.111 3.486.059 6.924.305 10.306.729 11.681-20.011 31.493-33.028 53.755-32.649z" fill="#F5F4F6"/><path d="M265.572 70.753c-.841-.84-2.204-.839-3.044.002l-5.805 5.813c-.84.841-.839 2.204.002 3.044.84.839 2.203.838 3.043-.003l5.805-5.813c.84-.841.839-2.204-.001-3.043M276.815 93.737c-.84-.839-2.203-.838-3.042.002l-6.729 6.739c-.839.84-.838 2.203.002 3.042.841.84 2.204.839 3.043-.001l6.729-6.739c.839-.84.838-2.203-.003-3.043M300.427 75.593l-1.503-4.997c-.243-.805-.962-1.374-1.804-1.422-.84-.048-1.62.436-1.951 1.209l-4.506 10.497-2.589-5.757c-.233-.523-.683-.919-1.23-1.09-.547-.17-1.141-.098-1.63.199l-11.053 6.684 6.565-11.468c.286-.502.343-1.104.152-1.651-.189-.545-.606-.984-1.142-1.2l-5.516-2.22 9.855-5.744c.68-.397 1.066-1.157.981-1.941-.083-.786-.621-1.449-1.372-1.689l-3.711-1.207 8.158-4.723c.154-.091.287-.203.408-.324.625-.626.785-1.61.321-2.413-.555-.956-1.78-1.282-2.735-.729l-12.04 6.972c-.683.397-1.07 1.158-.986 1.942.083.787.621 1.451 1.371 1.693l3.729 1.212-9.526 5.552c-.66.385-1.043 1.112-.988 1.873.055.765.542 1.427 1.249 1.712l7.178 2.889-9.262 16.179c-.449.785-.316 1.773.323 2.411l.016.016c.653.636 1.654.752 2.434.28l15.729-9.514 3.53 7.849c.327.722 1.047 1.186 1.842 1.181.794-.006 1.509-.483 1.821-1.212l4.132-9.626 1.225 4.072c.229.759.885 1.312 1.671 1.41.786.098 1.556-.278 1.963-.959l7.675-12.836c.567-.949.258-2.177-.69-2.744-.803-.481-1.805-.328-2.439.307-.113.115-.218.239-.305.383l-5.349 8.944" fill="#00C051"/><path d="M329.981 49.803c-6.627 5.523-12.284 7.868-17.198 7.697l-.084-.084-.406 18.623c-.02.919.495 1.139 1.145.489l15.132-15.153c4.378-4.385 3.154-8.767 1.411-11.571M304.651 24.436c-2.799-1.794-7.28-3.156-11.749 1.32l-15.132 15.153c-.65.651-.429 1.165.49 1.144l18.623-.431-.018-.018c-.151-4.897 2.234-10.531 7.786-17.168" fill="#064831"/><path d="M352.076 2.207l.006.007-.006-.007" fill="#FF619A"/><path d="M329.981 49.803c1.628-1.357 3.311-2.897 5.059-4.647 7.896-7.908 13.546-18.33 16.385-27.024l-15.34-15.318c-8.626 2.913-18.925 8.694-26.822 16.602-1.733 1.735-3.263 3.407-4.613 5.02-5.552 6.637-7.937 12.271-7.786 17.168l6.465 6.456 10.018-10.032c1.167-1.168 2.911-1.335 3.876-.371.966.964.802 2.71-.364 3.878l-10.018 10.032 5.942 5.933c4.914.171 10.571-2.174 17.198-7.697zm-6.152-19.175c-3.163-3.158-3.168-8.288-.008-11.453 3.162-3.166 8.292-3.168 11.455-.01 3.165 3.161 3.169 8.29.007 11.457-3.16 3.165-8.289 3.168-11.454.007z" fill="#FF619A"/><path d="M317.224 37.656c-.965-.964-2.71-.797-3.876.371l-18.265 18.291c-1.167 1.169-1.331 2.913-.366 3.877.966.964 2.71.799 3.878-.37l18.265-18.291c1.167-1.168 1.33-2.914.364-3.878M351.43 18.137c.164-.505.318-1.001.464-1.492l.052-.183c.151-.517.29-1.023.418-1.522l.106-.413c.137-.551.265-1.094.375-1.622l.028-.129c.067-.33.127-.652.183-.972l.056-.307.129-.847.054-.377.086-.763.039-.399.048-.697.02-.405.013-.635-.003-.398-.021-.581-.028-.376-.055-.531-.055-.349-.087-.481-.08-.316-.121-.432-.106-.274-.156-.386-.118-.209c-.145-.265-.306-.501-.489-.704l-.085-.103-.017-.02-.006-.007-.001-.001c-.149-.148-.316-.286-.497-.411l-.21-.124-.382-.22-.293-.126-.387-.155-.358-.106-.406-.109-.417-.082-.425-.07-.475-.053-.442-.036-.531-.022-.454-.006-.59.01-.453.021-.657.046-.438.043-.732.083-.403.06-.82.127-.33.062c-.313.058-.629.116-.952.185l-.108.024c-.52.111-1.055.241-1.597.38l-.461.122c-.453.121-.915.252-1.381.392l-.318.094c-.487.148-.98.306-1.478.474l15.349 15.328" fill="#064831"/></g></svg>