<svg width="99" height="106" viewBox="0 0 99 106" xmlns="http://www.w3.org/2000/svg"><g fill="none"><path d="M75.545 76.941c0 1.929-1.578 3.508-3.506 3.508h-28.095c3.282 7.029 9.519 12.473 17.382 14.578l5.756 9.974c.256.441.727.713 1.234.713.512 0 .983-.27 1.239-.713l5.755-9.974c11.76-3.149 19.922-13.751 19.92-25.987 0-3.683-.745-7.194-2.088-10.393h-17.597v18.294" fill="#FF619A"/><path d="M75.545 76.941v-18.294h-4.128v16.769l-25.557-21.186-.217-.181 17.052-13.703v-4.769l-24.871 19.988-29.431-23.876h54.302v-4.128h-58.228c-1.928 0-3.504 1.576-3.504 3.506v45.874c0 1.929 1.576 3.508 3.504 3.508h67.572c1.928 0 3.506-1.579 3.506-3.508zm-38.899-17.546c.331.268.747.417 1.172.417.42 0 .834-.145 1.164-.41l3.704-2.977 24.002 19.896h-58.837l25.389-19.689 3.406 2.763zm-6.369-5.167l-25.186 19.533v-39.967l25.186 20.434z" fill="#00C051"/><path d="M94.568.521h-28.33c-1.948 0-3.543 1.594-3.543 3.544v51.039c0 1.948 1.595 3.543 3.543 3.543h28.33c1.949 0 3.543-1.595 3.543-3.543v-51.039c0-1.95-1.594-3.544-3.543-3.544zm-15.994 3.173h3.656c.676 0 1.223.545 1.223 1.221 0 .674-.547 1.221-1.223 1.221h-3.656c-.674 0-1.219-.547-1.219-1.221 0-.676.545-1.221 1.219-1.221zm-5.094 42.452h-5.785v-36.875h25.416v36.875h-19.631zm6.922 9.31c-1.609 0-2.916-1.307-2.916-2.916 0-1.611 1.307-2.918 2.916-2.918 1.614 0 2.92 1.307 2.92 2.918 0 1.609-1.306 2.916-2.92 2.916z" fill="#064831"/><path d="M80.402 49.622c-1.609 0-2.916 1.307-2.916 2.918 0 1.609 1.307 2.916 2.916 2.916 1.614 0 2.92-1.307 2.92-2.916 0-1.611-1.306-2.918-2.92-2.918M78.574 6.136h3.656c.676 0 1.223-.547 1.223-1.221 0-.676-.547-1.221-1.223-1.221h-3.656c-.674 0-1.219.545-1.219 1.221 0 .674.545 1.221 1.219 1.221M74.973 20.122h10.652c1.041 0 1.887-.846 1.887-1.889 0-1.043-.846-1.89-1.887-1.89h-10.652c-1.043 0-1.889.847-1.889 1.89s.846 1.889 1.889 1.889M74.973 29.504h10.652c1.041 0 1.887-.846 1.887-1.889 0-1.043-.846-1.89-1.887-1.89h-10.652c-1.043 0-1.889.847-1.889 1.89l.013.127c.066.983.877 1.762 1.876 1.762M85.625 35.107h-10.652c-.611 0-1.147.295-1.493.745-.245.319-.396.713-.396 1.146 0 .433.151.827.396 1.146.346.449.882.743 1.493.743h10.652c1.041 0 1.887-.846 1.887-1.889 0-1.043-.846-1.891-1.887-1.891" fill="#00C051"/></g></svg>