<svg width="127" height="102" viewBox="0 0 127 102" xmlns="http://www.w3.org/2000/svg"><g fill="none"><path d="M48.548 10.571c.22 0 .439-.041.647-.121 1.112-.424 2.248-.802 3.378-1.12.961-.272 1.523-1.276 1.252-2.24-.221-.777-.937-1.32-1.746-1.32-.165 0-.333.023-.494.069-1.239.351-2.479.762-3.686 1.224-.933.356-1.402 1.407-1.045 2.341.267.699.947 1.167 1.694 1.167M105.385 51.076l-.199-.011c-.927 0-1.698.691-1.793 1.602l-.027.273c-.038.474-.075.885-.118 1.293-.072.687-.163 1.365-.27 2.04-.158.986.519 1.918 1.505 2.076l.097.012.193.011c.894 0 1.647-.644 1.788-1.529.116-.736.216-1.478.294-2.225.045-.422.084-.844.119-1.267l.014-.114.018-.3c.022-.946-.691-1.763-1.621-1.861M61.243 7.896l.092-.004c.666-.033 1.337-.05 2.011-.05.502 0 1.006.01 1.51.028l.137.003c.932-.014 1.712-.755 1.78-1.684.034-.485-.123-.952-.439-1.319-.317-.365-.759-.584-1.24-.62l-.217-.008c-.512-.019-1.022-.028-1.531-.028-.735 0-1.467.018-2.194.055-.482.025-.928.236-1.254.593-.324.361-.491.825-.465 1.309.046.967.843 1.725 1.81 1.725M73.671 9.2c1.141.307 2.282.671 3.388 1.078.204.074.415.113.628.113.755 0 1.44-.479 1.701-1.189.169-.455.149-.947-.054-1.388-.203-.44-.565-.774-1.021-.942-1.207-.443-2.453-.84-3.699-1.176-.154-.041-.314-.063-.47-.063-.822 0-1.539.552-1.755 1.344-.126.467-.062.956.181 1.377.243.419.632.719 1.101.846M32.605 75.47c-.346-.412-.852-.651-1.392-.651-.424 0-.836.152-1.163.424-.372.311-.601.748-.643 1.233-.044.48.105.953.415 1.323.826.985 1.706 1.949 2.619 2.862.343.344.798.533 1.285.533l.192-.011c.416-.045.792-.224 1.09-.518.706-.711.706-1.862 0-2.568-.843-.844-1.654-1.729-2.403-2.627M26.227 64.829c-.279-.689-.939-1.136-1.688-1.136-.23 0-.457.044-.672.131-.928.373-1.381 1.433-1.007 2.359.484 1.203 1.026 2.392 1.61 3.537.314.609.934.987 1.619.987l.188-.009c.223-.024.436-.089.634-.191.892-.455 1.246-1.55.79-2.442-.529-1.033-1.025-2.121-1.474-3.236M95.625 74.819c-.537 0-1.045.239-1.391.651-.75.898-1.559 1.783-2.404 2.627-.706.706-.706 1.857 0 2.566.298.296.674.475 1.09.52l.194.011c.482 0 .94-.189 1.283-.533.915-.913 1.795-1.877 2.619-2.862.311-.37.459-.843.415-1.323-.042-.485-.271-.922-.643-1.233-.324-.272-.739-.424-1.163-.424M102.973 63.824c-.217-.087-.444-.131-.674-.131-.747 0-1.409.447-1.688 1.138-.449 1.113-.945 2.201-1.474 3.234-.453.892-.101 1.987.79 2.443.198.101.411.166.634.19l.189.009c.687 0 1.304-.378 1.617-.987.585-1.145 1.128-2.334 1.613-3.535.372-.928-.081-1.988-1.007-2.361M23.861 56.273c-.108-.675-.199-1.353-.271-2.04-.041-.408-.08-.819-.118-1.291l-.024-.271c-.098-.915-.869-1.606-1.796-1.606l-.201.011c-.928.098-1.641.915-1.619 1.853l.019.3.015.122c.032.423.073.845.116 1.266.079.748.179 1.49.296 2.226.14.885.892 1.529 1.787 1.529l.198-.011.092-.012c.987-.158 1.663-1.09 1.506-2.076M104.195 13.03c-3.251 0-5.88 2.633-5.88 5.877 0 3.241 2.629 5.87 5.88 5.87 3.246 0 5.877-2.629 5.877-5.87 0-3.244-2.631-5.877-5.877-5.877" fill="#00C051"/><path d="M104.223.484c-11.937 0-21.691 9.304-22.418 21.058-5.238-3.442-11.49-5.453-18.19-5.453-6.928 0-13.381 2.153-18.727 5.82l.01.381.01.437.003.123.003.102c0 .809-.045 1.607-.128 2.393l-.061.486-.064.498c2.849-2.345 6.112-4.166 9.601-5.321-2.203 2.516-4.107 5.949-5.519 9.961-1.89-.623-3.457-1.284-4.687-1.869l-.095.334-.101.33c-.21.662-.448 1.313-.716 1.947l-.141.312-.141.31c1.334.624 2.951 1.291 4.866 1.916-1.111 4.119-1.741 8.598-1.872 13.315h-12.05c.118-1.984.451-3.926.95-5.818l-.42.27-.414.254c-.714.424-1.454.808-2.215 1.153l-.136.06-.381.173-.37.146c-.294 1.724-.46 3.493-.476 5.296l-.004.168.341-.014-.342.11.006.092c.069 9.749 4.38 18.523 11.162 24.574l.071-.363.094-.406.026-.118c.167-.712.367-1.411.599-2.097l.12-.357.126-.348-.173-.166.3-.154.187-.477.214-.485c.456-1.027.985-2.013 1.579-2.953l.319-.498.347-.498c-2.32.884-4.091 1.773-5.259 2.43-3.734-4.788-5.892-10.496-6.251-16.525h11.512c.119 4.251.666 8.3 1.586 12.091l.279-.311.28-.294c.579-.608 1.189-1.185 1.831-1.727l.295-.249.303-.238c-.603-2.975-.97-6.123-1.068-9.272h12.866v4.446l.341-.033.341-.027c.603-.046 1.21-.078 1.825-.078l.224.006.341.009.341.008v-4.331h12.764c-.087 2.807-.391 5.536-.87 8.176l.309.209.307.219c.672.48 1.318.992 1.933 1.539l.289.259.285.273c.72-3.373 1.148-6.945 1.251-10.675h12.051c-.364 6.083-2.555 11.83-6.344 16.64-.848-.495-2.013-1.108-3.462-1.75l.334.522.3.518c.567.988 1.064 2.021 1.482 3.094l.061.153c.257.673.481 1.36.676 2.06l.031.109.107.4.083.354c6.205-5.998 10.11-14.371 10.193-23.633l.005-.166-.341.013.342-.113-.007-.091c-.013-1.728-.159-3.426-.428-5.083 2.421.892 5.037 1.38 7.769 1.38 12.41 0 22.467-10.056 22.467-22.468s-10.057-22.468-22.467-22.468zm-20.278 32.153c1.341-.59 2.427-1.149 3.227-1.599 2.595 3.332 4.409 7.114 5.407 11.134.437 1.759.733 3.558.843 5.392h-11.513c-.132-4.745-.77-9.256-1.899-13.414 1.497-.498 2.805-1.016 3.935-1.513zm-18.411.608v-13.528c3.942.974 7.587 5.391 10.032 12.161-3.175.782-6.55 1.242-10.032 1.367zm0 3.41c3.84-.125 7.561-.632 11.064-1.507 1.047 3.836 1.67 8.123 1.805 12.416h-12.869v-10.909zm8.179-15.394c2.955 1.066 5.74 2.623 8.232 4.565 1.023.797 2 1.654 2.912 2.577-.566.298-1.291.655-2.147 1.035-1.043.462-2.286.96-3.724 1.44-1.363-3.836-3.181-7.149-5.273-9.617zm-22.571 13.969c3.456.847 7.148 1.33 10.982 1.435v10.899h-12.765c.135-4.319.735-8.467 1.783-12.334zm1.029-3.28c2.421-6.746 6.038-11.181 9.953-12.208v13.511c-3.45-.105-6.798-.542-9.953-1.303zm58.286 9.611c-1.959.663-4.049 1.039-6.234 1.039-2.105 0-4.125-.344-6.024-.96v-3.688c0-3.387 2.745-6.13 6.128-6.13 3.387 0 6.13 2.743 6.13 6.13v3.609zm-6.262-11.598c-2.176 0-4.198-.637-5.908-1.722-2-1.268-3.558-3.156-4.414-5.397-.467-1.225-.734-2.549-.734-3.937 0-6.106 4.945-11.058 11.056-11.058 6.11 0 11.062 4.952 11.062 11.058 0 6.102-4.952 11.056-11.062 11.056z" fill="#00C051"/><path d="M28.296 18.907c0-3.244-2.631-5.877-5.877-5.877-3.251 0-5.88 2.633-5.88 5.877 0 3.241 2.629 5.87 5.88 5.87 3.246 0 5.877-2.629 5.877-5.87" fill="#064831"/><path d="M31.571 43.483l.136-.06c.761-.345 1.501-.729 2.215-1.153l.414-.254.42-.27c3.512-2.304 6.336-5.564 8.106-9.413l.141-.31.141-.312c.268-.634.506-1.285.716-1.947l.101-.33.095-.334c.256-.903.463-1.826.605-2.771l.064-.498.061-.486c.083-.786.128-1.584.128-2.393l-.003-.102-.003-.123-.01-.437-.01-.381c-.545-11.927-10.38-21.425-22.442-21.425-12.41 0-22.466 10.056-22.466 22.468s10.056 22.468 22.466 22.468c2.961 0 5.786-.578 8.374-1.618l.37-.146.381-.173zm-20.208-24.576c0-6.106 4.946-11.058 11.056-11.058 6.109 0 11.062 4.952 11.062 11.058 0 1.312-.242 2.565-.662 3.733-.886 2.466-2.621 4.524-4.858 5.824-1.631.947-3.52 1.499-5.542 1.499-6.11 0-11.056-4.954-11.056-11.056zm17.319 22.654c-1.959.663-4.05 1.039-6.236 1.039-2.104 0-4.125-.344-6.02-.96v-3.688c0-3.387 2.742-6.13 6.127-6.13 3.386 0 6.129 2.743 6.129 6.13v3.609z" fill="#064831"/><path d="M86.5 72.359l-.031-.109c-.195-.7-.419-1.387-.676-2.06l-.061-.153c-.418-1.073-.915-2.106-1.482-3.094l-.3-.518-.334-.522c-.997-1.542-2.171-2.956-3.496-4.215l-.285-.273-.289-.259c-.615-.547-1.261-1.059-1.933-1.539l-.307-.219-.309-.209c-3.43-2.286-7.505-3.675-11.894-3.845l-.341-.008-.341-.009-.224-.006c-.615 0-1.222.032-1.825.078l-.341.027-.341.033c-4.429.478-8.48 2.208-11.798 4.826l-.303.238-.295.249c-.642.542-1.252 1.119-1.831 1.727l-.28.294-.279.311c-.565.637-1.094 1.306-1.588 2.004l-.347.498-.319.498c-.594.94-1.123 1.926-1.579 2.953l-.214.485-.187.477-.127.32-.126.348-.12.357c-.232.686-.432 1.385-.599 2.097l-.026.118-.094.406-.071.363c-.276 1.429-.425 2.902-.425 4.411 0 12.769 10.348 23.115 23.115 23.115 12.769 0 23.116-10.346 23.116-23.115 0-1.834-.22-3.616-.623-5.326l-.083-.354-.107-.4zm-15.889 25.223c-2.014.683-4.165 1.069-6.414 1.069-2.166 0-4.245-.353-6.197-.987v-3.794c0-3.485 2.823-6.306 6.305-6.306 3.483 0 6.306 2.821 6.306 6.306v3.712zm-6.445-11.931c-3.566 0-6.745-1.644-8.83-4.212l-.33-.442-.326-.453-.089-.146c-.477-.744-.865-1.546-1.16-2.394l-.146-.42-.102-.398-.108-.419c-.054-.241-.095-.486-.133-.732-.036-.234-.074-.468-.096-.707-.032-.346-.053-.696-.053-1.051 0-.907.117-1.786.318-2.631l.127-.496.142-.465c.64-1.922 1.777-3.612 3.261-4.925l.463-.394c.175-.138.354-.273.538-.401 1.847-1.299 4.093-2.067 6.524-2.067 2.549 0 4.894.847 6.79 2.261.189.141.377.281.557.433l.458.416c.875.826 1.626 1.78 2.204 2.845l.195.405.192.397c.435.978.733 2.028.878 3.127l.063.581.031.618.015.296c0 .824-.092 1.624-.259 2.398l-.106.413-.107.415c-.258.869-.618 1.692-1.064 2.462l-.091.149-.284.466-.332.455c-2.074 2.795-5.389 4.616-9.14 4.616zM62.031 68.623l-.341.14c-2.104.946-3.571 3.056-3.571 5.514 0 1.311.423 2.52 1.133 3.51.188.262.394.512.62.74.29.292.611.555.956.784.957.633 2.104 1.004 3.338 1.004 2.35 0 4.382-1.34 5.383-3.295.133-.258.246-.527.341-.805.077-.227.144-.457.194-.695.084-.402.13-.817.13-1.243 0-3.021-2.217-5.517-5.111-5.968l-.341-.05-.341-.018-.255-.012c-.625 0-1.228.094-1.794.27l-.341.124" fill="#FF619A"/></g></svg>