<svg width="96" height="88" viewBox="0 0 96 88" xmlns="http://www.w3.org/2000/svg"><g fill="none"><path d="M28.417 69.964v-8.816h-.003v16.02c0 .224.031.439.046.66v-7.174c-.026-.226-.043-.456-.043-.69M35.764 86.947c-.855-.252-1.663-.613-2.41-1.067.749.454 1.554.817 2.41 1.067M41.478 68.682h4.529c5.98 0 10.87 4.888 10.87 10.87v.934c.243 2.154.14 4.377.14 6.784l-.14.029v.062h4.052c5.609 0 10.193-4.585 10.193-10.193v-16.02h-29.644v7.534" fill="#064831"/><path d="M93.581 16.168c-1.751 0-1.857 1.799-1.857 1.799v39.196h-50.246v3.985h51.972c1.243 0 2.26-1.016 2.26-2.259v-40.922s-.108-1.799-2.129-1.799M28.417 58.967v-1.804h-10.462s-2.017-.061-2.017 1.937c0 1.948 2.017 2.048 2.017 2.048h10.462v-2.181M29.853 49.418h-19.796s-1.941-.018-1.941 1.857c0 1.921 1.941 2.129 1.941 2.129h18.36v-.04c0-1.497.541-2.874 1.436-3.946M41.478 53.404h44.02c1.241 0 2.26-1.016 2.26-2.261v-41.059s-.257-1.66-2.009-1.66c-1.755 0-1.977 1.66-1.977 1.66v39.334h-43.729c.894 1.072 1.435 2.449 1.435 3.946v.04" fill="#00C051"/><path d="M79.851 43.125v-40.594c0-1.243-1.018-2.259-2.261-2.259h-75.252c-1.242 0-2.259 1.016-2.259 2.259v40.594c0 1.242 1.017 2.259 2.259 2.259h75.252c1.243 0 2.261-1.017 2.261-2.259zm-3.987-8.873l-.067-.002c-4.007 0-7.262 3.176-7.406 7.148h-56.381c-.008-.203-.017-.406-.038-.605-.287-2.6-1.821-4.816-3.988-6.052-1.157-.66-2.492-1.043-3.919-1.047v-21.837l.042.002c1.415 0 2.737-.386 3.877-1.051 1.063-.619 1.961-1.482 2.623-2.515.748-1.169 1.196-2.549 1.217-4.034h56.072c.172 4.214 3.634 7.579 7.89 7.579l.078-.004v22.418zM47.216 27.605c-.716 0-1.246.314-1.62.75-1.089 1.245-2.086 1.898-3.643 1.898-1.993 0-3.427-1.026-4.206-2.865h4.394c.868 0 1.587-.685 1.587-1.557 0-.872-.719-1.588-1.587-1.588h-5.077c-.034-.311-.034-.653-.034-1.029 0-.372 0-.747.034-1.091h5.077c.868 0 1.587-.685 1.587-1.558 0-.869-.719-1.586-1.587-1.586h-4.332c.781-1.711 2.119-2.743 3.957-2.743 1.527 0 2.586.625 3.583 1.746.307.343.84.715 1.647.715 1.249 0 2.306-.993 2.306-2.242 0-.715-.342-1.308-.655-1.618-1.618-1.713-3.549-2.865-6.789-2.865-4.61 0-7.785 2.895-9.063 7.007h-1.526c-.871 0-1.587.717-1.587 1.586 0 .873.716 1.558 1.587 1.558h.935c-.029.376-.029.777-.029 1.155 0 .342 0 .654.029.965h-.935c-.871 0-1.587.716-1.587 1.588 0 .872.716 1.557 1.587 1.557h1.432c1.248 4.268 4.486 7.131 9.252 7.131 3.145 0 5.231-1.305 6.945-3.394.218-.281.467-.811.467-1.371 0-1.182-.967-2.149-2.149-2.149" fill="#00C051"/><path d="M57.017 87.27c0-2.407.103-4.63-.14-6.784v-.934c0-5.982-4.89-10.87-10.87-10.87h-4.529v-15.318c0-1.497-.541-2.874-1.435-3.946-1.136-1.361-2.843-2.233-4.744-2.233h-.701c-1.901 0-3.609.872-4.745 2.233-.895 1.072-1.436 2.449-1.436 3.946v16.6c0 .234.017.464.043.69v7.404l.03.208c.025.218.058.433.096.648.036.208.08.412.129.615l.158.594c.067.219.149.432.23.645l.196.501c.164.369.345.728.548 1.073l.009.018v.002l.025.036.054.079c.168.275.35.542.542.796l.145.192.118.141.077.095.086.103.223.251.267.281.361.344.092.086.083.077.018.014c.177.153.363.3.551.443l.021.016.035.026.113.081c.179.132.36.253.546.37l.029.019.078.05.034.018c.747.454 1.555.815 2.41 1.067l.181.047c.344.095.697.169 1.054.227l.319.048c.424.055.853.092 1.29.092h18.269v-.062l.14-.029" fill="#FF619A"/></g></svg>