<svg width="45" height="48" viewBox="0 0 45 48" xmlns="http://www.w3.org/2000/svg"><g fill="none"><path d="M34.026 34.599c0 .853-.699 1.551-1.553 1.551h-12.447c1.454 3.107 4.217 5.513 7.701 6.443l2.55 4.408c.113.195.322.315.547.315.227 0 .435-.119.549-.315l2.55-4.408c5.21-1.392 8.826-6.078 8.825-11.486 0-1.628-.331-3.18-.925-4.594h-7.796v8.086" fill="#FF619A"/><path d="M34.026 34.599v-8.086h-1.829v7.412l-11.323-9.365-.096-.08 7.555-6.057v-2.107l-11.019 8.835-13.039-10.554h24.057v-1.825h-25.797c-.854 0-1.552.697-1.552 1.55v20.276c0 .853.698 1.551 1.552 1.551h29.936c.854 0 1.553-.698 1.553-1.551zm-17.233-7.756c.146.119.331.184.519.184.186 0 .369-.064.516-.181l1.641-1.316 10.634 8.794h-26.067l11.248-8.703 1.509 1.221zm-2.822-2.284l-11.158 8.634v-17.665l11.158 9.031z" fill="#fff"/><path d="M42.453.821h-12.551c-.863 0-1.57.705-1.57 1.566v22.559c0 .861.707 1.566 1.57 1.566h12.551c.863 0 1.57-.705 1.57-1.566v-22.559c0-.861-.706-1.566-1.57-1.566zm-7.086 1.403h1.62c.299 0 .541.241.541.54 0 .298-.242.539-.541.539h-1.62c-.299 0-.54-.241-.54-.539 0-.299.241-.54.54-.54zm-2.256 18.763h-2.563v-16.299h11.26v16.299h-8.697zm3.066 4.115c-.713 0-1.292-.578-1.292-1.289 0-.713.579-1.29 1.292-1.29.715 0 1.294.577 1.294 1.29 0 .711-.579 1.289-1.294 1.289z" fill="#064831"/><path d="M36.177 22.524c-.713 0-1.292.577-1.292 1.29 0 .711.579 1.289 1.292 1.289.715 0 1.294-.578 1.294-1.289 0-.713-.579-1.29-1.294-1.29M35.368 3.303h1.62c.299 0 .541-.241.541-.539 0-.299-.242-.54-.541-.54h-1.62c-.299 0-.54.241-.54.54 0 .298.241.539.54.539M33.772 9.485h4.719c.461 0 .836-.374.836-.835 0-.461-.375-.835-.836-.835h-4.719c-.462 0-.837.374-.837.835 0 .461.375.835.837.835M33.772 13.632h4.719c.461 0 .836-.374.836-.835 0-.461-.375-.836-.836-.836h-4.719c-.462 0-.837.375-.837.836l.006.056c.029.434.389.779.831.779M38.491 16.109h-4.719c-.271 0-.508.13-.661.329-.109.141-.176.316-.176.507s.067.366.176.506c.153.198.39.328.661.328h4.719c.461 0 .836-.373.836-.834 0-.461-.375-.836-.836-.836" fill="#fff"/></g></svg>