<svg width="126" height="107" viewBox="0 0 126 107" xmlns="http://www.w3.org/2000/svg"><g fill="none"><path d="M101.364 36.554c-1.835 0-3.62.212-5.339.599 2.994 5.374 4.706 11.555 4.706 18.131 0 10.351-4.206 19.851-11.178 26.692 1.71.95 3.554 1.706 5.512 2.229l5.187 8.985c.231.397.654.642 1.112.642.46 0 .884-.245 1.114-.642l5.186-8.985c10.593-2.835 17.943-12.384 17.943-23.407 0-13.368-10.874-24.244-24.243-24.244" fill="#FF619A"/><path d="M30.565 37.327c-1.945-.505-3.983-.773-6.083-.773-13.365 0-24.24 10.876-24.24 24.244 0 11.025 7.35 20.572 17.943 23.407l5.184 8.985c.231.397.656.642 1.113.642.461 0 .885-.245 1.114-.642l5.186-8.985c2.161-.578 4.178-1.449 6.033-2.541-6.781-6.816-10.857-16.186-10.857-26.38 0-6.505 1.673-12.624 4.607-17.957" fill="#064831"/><path d="M96.025 37.153c-6.39-11.473-18.642-19.255-32.681-19.255-14.111 0-26.417 7.86-32.779 19.429-2.934 5.333-4.607 11.452-4.607 17.957 0 10.194 4.076 19.564 10.857 26.38 4.502 4.524 10.194 7.925 16.683 9.687l7.863 13.62c.41.708 1.165 1.144 1.983 1.144.817 0 1.573-.436 1.982-1.144l7.863-13.62c6.338-1.722 11.913-5.008 16.364-9.375 6.972-6.841 11.178-16.341 11.178-26.692 0-6.576-1.712-12.757-4.706-18.131zm-10.309 42.158c-3.998 3.719-8.961 6.471-14.571 7.839-.608.148-1.128.539-1.441 1.08l-6.36 11.018-6.362-11.018c-.312-.541-.833-.932-1.44-1.08-5.8-1.413-10.906-4.308-14.971-8.219-6.253-6.019-10.035-14.45-10.035-23.647 0-5.956 1.604-11.542 4.39-16.362 5.676-9.819 16.284-16.446 28.418-16.446 12.009 0 22.527 6.49 28.246 16.143 2.894 4.889 4.563 10.584 4.563 16.665 0 9.392-3.943 17.987-10.437 24.027zM78.293 45.461c0-7.242-5.738-11.7-13.93-11.7-6.409 0-11.034 2.45-14.434 5.849l5.573 7.356c2.62-2.342 5.519-3.678 8.136-3.678 2.676 0 4.179 1.173 4.179 3.066v.055c0 2.394-2.284 3.901-8.749 4.459l-.446.5 1.394 11.111h6.743l.671-5.371c6.184-1.505 10.863-4.513 10.863-11.537v-.11M63.492 66.064c-3.034 0-5.495 2.459-5.495 5.497 0 3.034 2.461 5.493 5.495 5.493 3.036 0 5.496-2.459 5.496-5.493 0-3.038-2.46-5.497-5.496-5.497M63.595 10.63c1.085 0 1.965-.88 1.965-1.965v-5.881c0-1.083-.88-1.962-1.965-1.962-1.084 0-1.965.879-1.965 1.962v5.881c0 1.085.881 1.965 1.965 1.965M40.42 14.727c.543.938 1.744 1.26 2.683.719.939-.543 1.262-1.747.719-2.685l-2.602-4.506c-.542-.94-1.743-1.262-2.683-.72-.939.544-1.262 1.745-.718 2.684l2.601 4.508M19.561 27.211l4.507 2.603c.939.542 2.141.219 2.682-.719.544-.942.222-2.142-.719-2.684l-4.506-2.601c-.937-.543-2.138-.222-2.681.719-.543.94-.221 2.14.717 2.682M102.853 29.812l4.507-2.601c.94-.544 1.263-1.742.72-2.684-.543-.939-1.744-1.262-2.683-.717l-4.507 2.6c-.94.542-1.261 1.743-.718 2.683.541.94 1.744 1.263 2.681.719M84.089 15.444c.938.541 2.14.22 2.681-.72l2.604-4.506c.541-.938.219-2.141-.719-2.685-.939-.542-2.14-.219-2.682.722l-2.604 4.506c-.543.937-.219 2.138.72 2.683" fill="#00C051"/></g></svg>