<svg width="90" height="107" viewBox="0 0 90 107" xmlns="http://www.w3.org/2000/svg"><g fill="none"><path d="M35.014 86.598l-.016.164v10.207c0 1.942 1.59 3.531 3.531 3.531h13.565c1.944 0 3.532-1.589 3.532-3.531v-10.207l-.019-.18-.146.016h-20.447" fill="#064831"/><path d="M45.449 10.117c1.095 0 1.985-.889 1.985-1.984v-5.937c0-1.093-.89-1.98-1.985-1.98-1.095 0-1.984.887-1.984 1.98v5.937c0 1.095.889 1.984 1.984 1.984M87.996 38.06h-5.936c-1.096 0-1.985.889-1.985 1.985s.889 1.984 1.985 1.984h5.936c1.093 0 1.981-.888 1.981-1.984s-.888-1.985-1.981-1.985M8.093 38.06h-5.937c-1.095 0-1.984.889-1.984 1.985s.889 1.984 1.984 1.984h5.937c1.092 0 1.98-.888 1.98-1.984s-.888-1.985-1.98-1.985M26.044 13.243c.548.945 1.761 1.272 2.708.727.948-.548 1.274-1.764.727-2.712l-2.627-4.548c-.547-.949-1.76-1.275-2.709-.728-.948.549-1.274 1.762-.724 2.71l2.625 4.551M15.402 25.063c.549-.951.224-2.163-.726-2.71l-4.549-2.626c-.946-.547-2.157-.223-2.707.727-.547.948-.223 2.16.726 2.707l4.549 2.627c.948.549 2.161.223 2.707-.725M83.256 20.452c-.549-.948-1.761-1.274-2.709-.725l-4.55 2.625c-.948.547-1.273 1.76-.726 2.71.546.949 1.761 1.275 2.707.724l4.55-2.625c.95-.548 1.276-1.759.728-2.709M62.147 13.968c.948.546 2.162.222 2.706-.729l2.629-4.548c.546-.946.221-2.161-.725-2.711-.948-.546-2.162-.22-2.708.73l-2.628 4.549c-.549.946-.222 2.158.726 2.709" fill="#00C051"/><path d="M45.352 18.976c-16.698 0-30.282 13.584-30.282 30.28 0 9.876 4.801 19.097 12.87 24.775.244.428.418.806.533 1.147.838 2.509 1.707 6.362 1.792 7.058.05 2.294 2.146 4.362 4.445 4.362h20.751l.146-.016c2.241-.087 4.249-2.103 4.299-4.347.085-.697.952-4.553 1.789-7.056.064-.19.151-.397.268-.635 8.572-5.633 13.671-15.039 13.671-25.288 0-16.696-13.584-30.28-30.282-30.28zm12.843 52.848c-.393.712-.667 1.314-.862 1.896-.767 2.294-1.927 6.932-2.02 8.278h-20.456c-.09-1.352-1.235-5.926-2.022-8.28-.267-.796-.653-1.591-1.218-2.503-.17-.275-.396-.512-.665-.694-7.064-4.793-11.282-12.743-11.282-21.265 0-14.16 11.52-25.681 25.682-25.681 14.161 0 25.682 11.521 25.682 25.681 0 8.867-4.505 16.992-12.05 21.734-.329.207-.6.494-.789.834z" fill="#00C051"/><path d="M55.129 57.024c.299-.47.395-1.027.273-1.569-.141-.637-.585-1.133-1.156-1.398-.133-.067-.271-.122-.421-.161l-.047-.015-.036-.008-.118-.034-.046-.003-8.174-1.828 8.419-1.885c.544-.122 1.007-.446 1.306-.917.298-.472.395-1.03.273-1.573-.191-.859-.907-1.506-1.778-1.614l-.255-.016c-.152 0-.306.016-.456.052l-17.307 3.874-.035.002-.089.025-.152.034-.215.07-.181.061c-.888.396-1.406 1.375-1.186 2.36.191.857.908 1.505 1.781 1.612l.232.013 8.059 1.803-8 1.791-.249.015c-.48.059-.901.295-1.224.628-.12.115-.233.24-.325.384-.298.471-.396 1.03-.274 1.574.194.859.909 1.509 1.776 1.612l.265.018.093-.011 8.015 1.792-8.568 1.918c-1.122.252-1.832 1.37-1.581 2.493.194.857.909 1.505 1.732 1.603 1.514.439 5.863 1.653 5.866 1.653 1.405.512 2.327.931 2.327 2.044l-.028 8.541h4.326l.028-10.882c.009-.976-.456-1.808-1.241-2.224-.48-.253-1.586-.592-2.723-.904l9.788-2.189c.543-.121 1.007-.447 1.306-.917.298-.472.395-1.032.273-1.573-.105-.475-.381-.873-.747-1.164-.247-.209-.54-.37-.877-.446l-8.295-1.855 8.34-1.868c.544-.121 1.008-.446 1.306-.918" fill="#FF619A"/><path d="M45.312 106.44c2.518 0 4.62-1.679 5.31-3.971h-10.62c.691 2.292 2.793 3.971 5.31 3.971" fill="#064831"/></g></svg>