<svg width="100" height="85" viewBox="0 0 100 85" xmlns="http://www.w3.org/2000/svg"><g fill="none"><path d="M31.354 77.817c0 2.553-3.238 2.924-6.283 2.924-2.698 0-3.779 1.253-3.779 3.755h30.748c0-2.502-1.081-3.755-3.78-3.755-3.044 0-6.281-.371-6.281-2.924v-2.147h-10.625v2.147" fill="#064831"/><path d="M65.737 62.254h-57.857v-34.301h9.834v-7.051h-13.191c-2.046 0-3.719 1.674-3.719 3.719v47.33c0 2.045 1.673 3.719 3.719 3.719h64.286c2.045 0 3.719-1.674 3.719-3.719v-18.66h-6.791v8.963zm-29.182 3.917c1.517 0 2.748 1.229 2.748 2.748 0 1.518-1.231 2.748-2.748 2.748-1.519 0-2.747-1.23-2.747-2.748 0-1.519 1.228-2.748 2.747-2.748z" fill="#FF619A"/><path d="M96.092 60.813h-7.872c-1.035 0-1.875.84-1.875 1.875 0 1.036.84 1.875 1.875 1.875h7.872c1.035 0 1.875-.839 1.875-1.875 0-1.035-.84-1.875-1.875-1.875M85.415 69.546h7.872c1.035 0 1.875-.84 1.875-1.875 0-1.035-.84-1.875-1.875-1.875h-7.872c-1.035 0-1.875.84-1.875 1.875 0 1.035.84 1.875 1.875 1.875M93.287 75.763h-7.872c-1.035 0-1.875.839-1.875 1.875 0 1.035.84 1.875 1.875 1.875h7.872c1.035 0 1.875-.84 1.875-1.875 0-1.036-.84-1.875-1.875-1.875M93.287 80.746h-7.872c-1.035 0-1.875.84-1.875 1.875 0 1.035.84 1.875 1.875 1.875h7.872c1.035 0 1.875-.84 1.875-1.875 0-1.035-.84-1.875-1.875-1.875M96.092 70.779h-7.872c-1.035 0-1.875.84-1.875 1.875 0 1.036.84 1.875 1.875 1.875h7.872c1.035 0 1.875-.839 1.875-1.875 0-1.035-.84-1.875-1.875-1.875M65.737 49.356h-44.087v-32.868c-.018-.31-.138-.759-.427-1.131-.287-.367-.739-.656-1.426-.656-1.563 0-2.046 1.169-2.083 1.804v34.593c0 1.21.983 2.193 2.193 2.193h63.833c.684-.034 1.975-.499 1.975-2.016 0-1.515-1.239-1.919-1.987-1.919h-17.991M65.737 42.695h-37.082l-.001-14.742v-7.051l-.001-5.545v-5.667c-.076-.571-.583-1.649-1.952-1.649-1.364 0-1.89 1.075-1.981 1.686v34.71c0 1.21.983 2.194 2.193 2.194h63.788l.016-.001c.655-.07 1.893-.596 1.893-2.081 0-.952-.519-1.408-.955-1.623-.456-.225-.918-.231-.968-.231h-24.95" fill="#00C051"/><path d="M97.666.753h-63.614c-1.21 0-2.195.983-2.195 2.192v34.316c0 1.21.985 2.193 2.195 2.193h63.614c1.209 0 2.192-.983 2.192-2.193v-34.316c0-1.209-.983-2.192-2.192-2.192zm-55.856 34.766c-.255-3.15-2.83-5.634-6.016-5.748v-18.969c3.401-.11 6.156-2.756 6.436-6.112h47.433c.067 1.147.428 2.213 1.013 3.126.558.873 1.319 1.603 2.217 2.126.896.523 1.926.835 3.029.876v18.485c-1.1.049-2.129.357-3.029.871-1.833 1.045-3.131 2.921-3.371 5.12l-.014.225h-47.698zM68.284 29.985c1.748 0 3.105-.484 4.244-1.313.593-.431 1.131-.95 1.627-1.555.184-.238.395-.685.395-1.159 0-.999-.818-1.816-1.818-1.816l-.25.028c-.477.062-.849.291-1.119.605-.921 1.052-1.763 1.605-3.079 1.605-1.685 0-2.897-.867-3.555-2.422h3.713c.734 0 1.342-.579 1.342-1.316 0-.738-.608-1.342-1.342-1.342h-4.292l-.012-.398-.016-.472c0-.315 0-.632.028-.923h4.292c.734 0 1.342-.579 1.342-1.317 0-.734-.608-1.34-1.342-1.34h-3.662c.279-.61.645-1.11 1.086-1.493.608-.526 1.36-.826 2.259-.826.955 0 1.692.293 2.353.826.233.188.457.403.676.65.26.29.71.604 1.393.604.829 0 1.551-.52 1.825-1.254.075-.201.124-.414.124-.641 0-.605-.289-1.106-.554-1.368-1.367-1.448-3-2.422-5.738-2.422-3.31 0-5.741 1.769-7.061 4.431-.235.472-.438.969-.601 1.493h-1.29c-.736 0-1.342.606-1.342 1.34 0 .738.606 1.317 1.342 1.317h.79c-.024.318-.024.657-.024.976l.012.419.012.398h-.79c-.736 0-1.342.604-1.342 1.342 0 .737.606 1.316 1.342 1.316h1.211c.472 1.612 1.296 2.968 2.404 3.995.805.746 1.761 1.316 2.87 1.653.782.239 1.626.379 2.547.379" fill="#00C051"/></g></svg>