<svg width="52" height="132" viewBox="0 0 52 132" xmlns="http://www.w3.org/2000/svg"><g fill="none"><path d="M13.172 109.615c-1.188 0-2.151.963-2.151 2.151v8.211c0 1.188.963 2.151 2.151 2.151 1.187 0 2.15-.963 2.15-2.151v-8.211c0-1.188-.963-2.151-2.15-2.151M37.355 117.93c-1.187 0-2.15.963-2.15 2.15v9.518c0 1.187.963 2.15 2.15 2.15 1.188 0 2.151-.963 2.151-2.15v-9.518c0-1.187-.963-2.15-2.151-2.15M41.24 88.423l-4.592-2.473c-.74-.398-1.651-.292-2.28.268-.628.559-.838 1.452-.526 2.233l4.226 10.606-5.897-2.243c-.534-.205-1.132-.167-1.64.098-.507.266-.876.736-1.012 1.292l-3.096 12.533-3.456-12.746c-.152-.557-.537-1.023-1.058-1.275-.519-.252-1.123-.268-1.655-.042l-5.469 2.325 2.913-11.022c.201-.761-.063-1.571-.677-2.066-.614-.497-1.462-.586-2.163-.226l-3.477 1.767 2.434-9.101c.045-.173.06-.346.06-.517 0-.884-.582-1.693-1.477-1.933-1.068-.284-2.164.35-2.449 1.416l-3.591 13.434c-.203.763.061 1.574.674 2.07.614.498 1.464.588 2.165.229l3.493-1.776-2.816 10.654c-.195.738.047 1.523.624 2.022.579.502 1.391.627 2.092.329l7.117-3.026 4.876 17.983c.237.872 1.028 1.477 1.931 1.477h.022c.911-.011 1.701-.636 1.919-1.521l4.405-17.837 8.04 3.058c.741.28 1.578.1 2.137-.466.557-.565.726-1.407.432-2.143l-3.876-9.726 3.742 2.015c.698.375 1.552.303 2.177-.183s.904-1.296.711-2.064l-3.637-14.498c-.269-1.072-1.355-1.722-2.426-1.453-.908.227-1.508 1.043-1.508 1.939.001.161.014.323.055.486l2.533 10.103" fill="#00C051"/><path d="M43.928 49.312c-.786 8.586-3.131 14.239-6.727 17.589h-.119l12.865 13.457c.635.664 1.155.456 1.155-.463v-21.403c0-6.193-3.961-8.427-7.174-9.18M8.1 49.261c-3.246.708-7.377 2.909-7.377 9.231v21.403c0 .919.519 1.127 1.155.463l12.866-13.457h-.026c-3.565-3.357-5.857-9.025-6.618-17.64" fill="#064831"/><path d="M25.94.048l.009.001-.009-.001" fill="#FF619A"/><path d="M43.928 49.312c.193-2.109.296-4.387.296-6.859 0-11.169-3.365-22.53-7.497-30.683h-21.666c-4.043 8.152-7.244 19.514-7.244 30.683 0 2.451.098 4.714.283 6.808.761 8.615 3.053 14.283 6.618 17.64h9.131v-14.17c0-1.65 1.116-3 2.479-3 1.364 0 2.481 1.35 2.481 3v14.17h8.392c3.596-3.35 5.941-9.003 6.727-17.589zm-17.892-9.216c-4.467 0-8.094-3.624-8.094-8.094 0-4.472 3.627-8.097 8.094-8.097 4.471 0 8.096 3.625 8.096 8.097 0 4.47-3.625 8.094-8.096 8.094z" fill="#FF619A"/><path d="M26.328 49.731c-1.363 0-2.479 1.35-2.479 3v25.835c0 1.651 1.116 3 2.479 3 1.364 0 2.481-1.349 2.481-3v-25.835c0-1.65-1.117-3-2.481-3M36.734 11.77c-.24-.473-.482-.932-.726-1.383l-.093-.166c-.258-.472-.517-.928-.779-1.372l-.217-.367c-.292-.486-.585-.961-.88-1.412l-.071-.111c-.186-.281-.371-.551-.557-.816l-.177-.257-.507-.69-.228-.305-.478-.601-.254-.31-.458-.527-.272-.3-.439-.458-.283-.279-.425-.396-.285-.246-.414-.337-.285-.208-.401-.279-.28-.167-.391-.22-.269-.119-.383-.163-.231-.064c-.289-.085-.57-.138-.843-.153l-.133-.013-.026-.002-.009-.001h-.001c-.21 0-.425.021-.642.06l-.236.06-.426.114-.296.118-.383.164-.328.178-.364.21-.353.237-.35.251-.373.298-.338.287-.391.359-.325.316-.41.424-.306.335-.432.496-.279.34-.459.576-.243.327-.49.669-.189.277c-.181.262-.363.526-.543.803l-.059.093c-.289.446-.576.916-.861 1.396l-.24.412c-.235.406-.469.824-.7 1.252l-.159.291c-.24.449-.477.908-.71 1.379h21.68" fill="#064831"/></g></svg>