<svg width="81" height="81" viewBox="0 0 81 81" xmlns="http://www.w3.org/2000/svg" xmlns:sketch="http://www.bohemiancoding.com/sketch/ns"><title>illustration-password-reset</title><path d="M61.572 16.456c2.519-1.3 2.787-.916.617.86l-44.194 36.211c-1.927 1.391-3.101 4.093-3.101 6.359v18.414c0 2.732 1.432 3.46 3.566 1.639l17.969-15.561 12.996 12.202c1.022.951 2.216.683 2.717-.597l28.648-74.38c.501-1.28-.197-1.927-1.533-1.442l-78.053 28.183c-1.346.481-1.604 1.649-.577 2.605l9.789 9.192c1.017.956 2.868 1.209 4.123.556l47.032-24.242" sketch:type="MSShapeGroup" fill="#D8D8D8"/></svg>