<svg width="106" height="103" viewBox="0 0 106 103" xmlns="http://www.w3.org/2000/svg"><g fill="none"><path d="M49.812 10.179c1.085 0 1.966-.879 1.966-1.965v-5.881c0-1.082-.881-1.961-1.966-1.961-1.084 0-1.964.879-1.964 1.961v5.881c0 1.086.88 1.965 1.964 1.965M26.638 14.276c.543.938 1.744 1.26 2.682.719.94-.543 1.263-1.746.72-2.685l-2.603-4.506c-.541-.94-1.743-1.262-2.682-.719-.94.543-1.262 1.744-.718 2.684l2.601 4.507M70.307 14.993c.938.541 2.14.221 2.68-.721l2.605-4.505c.541-.938.218-2.141-.719-2.684-.939-.543-2.141-.221-2.683.721l-2.603 4.506c-.543.937-.219 2.138.72 2.683" fill="#00C051"/><path d="M82.513 81.081c1.328.356 2.009.611 2.721.865l1.72.625-2.701-.982c.249-.363.462-.762.62-1.195l14.554-39.989c1.021-2.803-.318-5.902-3.121-6.922-2.803-1.021-5.688.479-6.708 3.282l-10.182 28-3.028-1.073 11.598-31.525c1.02-2.801-.157-5.902-2.962-6.922-2.801-1.019-6.008.533-7.029 3.336l-11.598 31.523-3.029-1.074 9.222-24.965c1.02-2.802-.21-5.851-3.014-6.871-2.803-1.019-5.848.426-6.869 3.229l-9.057 24.619 4.261 11.695c1.299 3.567 3.131 10.663.816 18.113-1.046 3.371-2.848 6.358-5.325 8.915 1.129 1.129 2.45 2.189 3.962 3.173 5.826-14.89 17.226-17.982 25.149-15.857" fill="#064831"/><path d="M102.038 60.163l-.626-.232c-3.045-1.119-6.382.482-7.5 3.523l-6.958 19.117-1.72-.625c-.712-.254-1.393-.509-2.721-.865-7.923-2.125-19.323.967-25.149 15.857l.009.006c.455.295.929.582 1.419.864l.091.051c.452.257.925.505 1.409.748l.227.117c.447.218.914.429 1.388.637l.342.153c.581.247 1.182.484 1.806.712 17.269 6.285 30.682-2.985 34.903-14.581l6.527-17.935c1.12-3.043-.403-6.43-3.447-7.547" fill="#FF619A"/><path d="M57.911 66.737l-12.971-35.606c-1.041-3.09-4.311-5.332-7.776-5.332-.893 0-1.764.152-2.587.452-1.846.672-3.203 1.679-4.142 2.855l-.307-.841c-1.209-3.32-4.13-5.381-7.624-5.381-1.079 0-2.177.2-3.263.595-2.353.856-4.2 2.441-5.2 4.462-.682 1.377-.947 2.88-.79 4.369-1.508-.396-3.272-.327-4.961.289-4.883 1.777-6.105 6.67-4.774 10.63l6.387 17.552c-1.266-.221-2.62-.106-3.863.351l-.605.222c-1.897.697-3.403 2.096-4.242 3.941-.832 1.831-.906 3.884-.212 5.772l5.268 14.473c3.845 10.564 13.524 17.39 24.659 17.391h.002c3.59 0 7.314-.693 11.068-2.059 4.686-1.705 8.521-4.109 11.424-7.107 2.477-2.557 4.279-5.544 5.325-8.915 2.315-7.45.483-14.546-.816-18.113zm-17.23 30.573c-3.337 1.213-6.624 1.83-9.771 1.83h-.002c-11.57-.001-18.596-8.026-21.097-14.897l-5.269-14.478c-.351-.954-.314-1.984.103-2.902.415-.913 1.16-1.605 2.098-1.95l.607-.223c.413-.152.841-.229 1.273-.229 1.562 0 2.98 1.007 3.529 2.499l5.247 14.418c.345.947 1.372 1.453 2.336 1.16.964-.295 1.528-1.299 1.283-2.277l-.058-.188-13.866-38.096c-.508-1.512-.642-4.675 2.493-5.816.571-.208 1.137-.313 1.68-.313 1.984 0 3.462 1.418 4.016 2.743l9.258 25.417c.384.962 1.471 1.433 2.437 1.066.966-.369 1.458-1.446 1.104-2.419l-9.071-24.921-.165-.44-1.583-4.348c-.402-1.102-.339-2.283.175-3.323.575-1.16 1.646-2.053 3.099-2.581 2.656-.965 5.148.102 6.028 2.52l10.817 29.706c.359.983 1.442 1.47 2.423 1.112.984-.359 1.484-1.466 1.126-2.449l-8.238-22.621c-.53-1.821-.013-4.333 3.181-5.497.406-.147.841-.222 1.29-.222 1.796 0 3.672 1.233 4.197 2.793l12.988 35.65c1.931 5.306 2.208 11.026.758 15.691-.836 2.693-2.22 5.074-4.134 7.135-2.517 2.712-5.954 4.871-10.292 6.45zM10.38 37.894c-1.274.449-1.94 1.843-1.491 3.117l.755 2.142 4.609-1.627-.757-2.142c-.448-1.274-1.844-1.94-3.116-1.49M21.149 28.962c-1.272.449-1.94 1.846-1.491 3.119l.755 2.141 4.609-1.625-.755-2.145c-.45-1.271-1.845-1.937-3.118-1.49M36.375 31.722c-1.273.449-1.94 1.843-1.491 3.117l.756 2.142 4.608-1.627-.756-2.142c-.449-1.274-1.844-1.939-3.117-1.49" fill="#00C051"/></g></svg>