<?xml version="1.0" encoding="iso-8859-1"?>
<!-- Generator: Adobe Illustrator 17.0.0, SVG Export Plug-In . SVG Version: 6.00 Build 0)  -->
<!DOCTYPE svg PUBLIC "-//W3C//DTD SVG 1.1//EN" "http://www.w3.org/Graphics/SVG/1.1/DTD/svg11.dtd">
<svg version="1.1" xmlns="http://www.w3.org/2000/svg" xmlns:xlink="http://www.w3.org/1999/xlink" width="600px"
	 height="600px" viewBox="0 0 600 600" xml:space="preserve">
<g id="Layer_10">
	<g>
		<path style="fill:#FD9CBD;" d="M256.954,167.468v42.769c6.652,5.723,13.822,9.669,16.527,6.057
			c4.442-5.918,4.65-10.153,11.1-7.395c3.732,1.592,9.489,2.619,14.883,3.034v-31.422c-1.541,0.536-3.086,1.391-4.523,2.486
			c-4.413,3.381-4.852-1.281-12.582-9.616c-7.724-8.336-30.338-19.989-48.1-4.448c-0.923,0.813-1.869,1.615-2.827,2.423
			c2.301,0.254,4.771,0.444,7.724,0.444C253.302,171.801,256.954,167.468,256.954,167.468z"/>
		<path style="fill:#FD9CBD;" d="M299.464,451.569c-12.155,5.538-26.334,8.791-28.942-2.146
			c-3.698-15.541-6.398-14.238-9.617-20.721c-3.225-6.473-13.481-24.829-9.622-35.513c3.854-10.695,10.055-13.037,1.483-28.867
			c-8.584-15.818-16.279-28.117-14.064-34.042c2.221-5.924,1.482-13.712-11.105-17.035c-12.582-3.323-49.577,7.402-60.682-8.878
			c-11.099-16.285-14.059-71.042,8.145-87.333c0.784-0.571,1.639-1.125,2.475-1.684v-47.477c0-0.998,0.813-1.812,1.811-1.812h1.489
			c0.998,0,1.817,0.813,1.817,1.812v4.222c3.04-1.783,10.81-5.642,21.321-5.642c3.929,0,7.044,0.462,9.934,1.096
			c4.523-0.162,8.33-1.119,9.247-5.273c1.483-6.657-2.221-8.134,3.704-12.576c5.924-4.442,26.611-16.124,40.704-15.547
			c14.093,0.582,17.757,5.924,20.715-0.738c2.96-6.657,0.738-12.576,5.181-15.535c4.442-2.96-1.154-16.868-10.644-10.026
			c-9.489,6.842-29.789,10.165-32.011,1.281c-2.054-8.226,31.359-16.164,48.659-15.633V72.053c0.179,0,0.352-0.023,0.53-0.023
			c-125.892,0-227.952,102.061-227.952,227.964c0,125.915,102.061,227.975,227.952,227.975c-0.178,0-0.351-0.023-0.53-0.023V451.569
			z"/>
		<path style="fill:#FD609D;" d="M309.743,211.853c3.208-0.461,6.963-0.127,9.697,1.667c4.021,2.648,4.361-2.648,6.582-4.378
			c2.221-1.731,4.511-0.064,4.511-0.064c3,0.485,5.953,0.035,8.809-3.882c5.918-8.134,1.482-19.977-11.837-17.018
			c-13.32,2.959-15.726-0.381-19.239-5.181c-2.371-3.236-5.601-3.6-8.803-2.486v31.422
			C303.392,212.246,307.136,212.24,309.743,211.853z"/>
		<path style="fill:#FD609D;" d="M299.464,93.501c1.379,0.035,2.688,0.116,3.836,0.271c15.547,2.083,21.241,12.265,16.804,18.183
			c-4.194,5.59,35.737,2.602,53.321-8.947c7.701,2.873,15.12,6.299,22.371,10.014V93.144C366.658,79.628,334.22,72.03,299.994,72.03
			c-0.178,0-0.351,0.023-0.53,0.023V93.501z"/>
		<path style="fill:#FD609D;" d="M465.702,143.54c-2.186,0.312-4.673,0.531-7.453,0.531c-7.136,0-13.516-2.083-21.246-3.387
			c42.4,36.488,70.108,89.56,72.935,149.203c-2.037-6.582-13.401-41.489-24.811-38.806c-12.576,2.965-8.14,43.658-17.756,44.396
			c-9.622,0.738-14.82-57.133-29.599-59.938c-14.791-2.804-24.425-5.18-34.786-11.837c-10.361-6.669-24.419-12.587-16.274,2.965
			c8.134,15.535,42.17,8.872,24.413,29.599c-17.756,20.716-35.535,18.535-44.402,5.175c-8.861-13.36-25.158-45.146-32.807-41.685
			c0,0-16.522-1.777-17.803,11.03c-0.958,9.587,23.052,56.095,30.731,60.18c7.678,4.084,36.637-2.596,34.682,7.476
			c-1.108,5.699-5.982,15.841-12.109,25.861c0.294,0.006,0.525,0.035,0.825,0.035c14.139,0,17.791-4.344,17.791-4.344v54.469
			c0,0-6.617,2.942-16.966,2.942c-7.574,0-14.278-2.354-22.671-3.612c1.696,10.857-2.031,23.848-9.789,28.267
			c-8.076,4.603-11.342,4.627-11.099,13.326c0.236,8.688-3.41,21.218-14.803,28.855c-3.375,2.273-8.128,4.996-13.239,7.327v76.378
			c0.179,0,0.352,0.023,0.53,0.023c125.897,0,227.964-102.061,227.964-227.975C527.958,239.393,504.266,184.365,465.702,143.54z
			 M374.671,426.094c-4.471,12.264-13.406,35.154-20.658,32.374c-7.258-2.792-4.465-13.395,0.553-17.306
			c5.025-3.911-5.019-16.187,6.143-16.752c0,0,10.049-5.019,11.728-13.949C372.438,410.46,379.136,413.806,374.671,426.094z"/>
		<path style="fill:#FFFFFF;" d="M400.919,144.405v48.527c0,0.992-0.819,1.811-1.817,1.811h-1.495c-0.998,0-1.811-0.819-1.811-1.811
			v-79.909c-7.251-3.715-14.67-7.142-22.371-10.014c-17.583,11.549-57.514,14.537-53.321,8.947
			c4.436-5.918-1.258-16.1-16.804-18.183c-1.148-0.155-2.457-0.236-3.836-0.271c-17.3-0.53-50.713,7.407-48.659,15.633
			c2.221,8.884,22.521,5.561,32.011-1.281c9.49-6.842,15.085,7.067,10.644,10.026c-4.442,2.959-2.221,8.878-5.181,15.535
			c-2.959,6.663-6.623,1.321-20.715,0.738c-14.093-0.577-34.78,11.104-40.704,15.547c-5.925,4.442-2.221,5.918-3.704,12.576
			c-0.917,4.153-4.725,5.111-9.247,5.273c5.463,1.188,10.176,2.988,17.526,3.807c0.958-0.808,1.903-1.61,2.827-2.423
			c17.762-15.541,40.376-3.889,48.1,4.448c7.73,8.336,8.168,12.997,12.582,9.616c1.436-1.096,2.982-1.95,4.523-2.486
			c3.202-1.114,6.432-0.75,8.803,2.486c3.513,4.8,5.919,8.14,19.239,5.181c13.32-2.96,17.756,8.884,11.837,17.018
			c-2.856,3.917-5.809,4.367-8.809,3.882c0,0-2.29-1.667-4.511,0.064c-2.221,1.731-2.561,7.026-6.582,4.378
			c-2.734-1.794-6.49-2.128-9.697-1.667c-2.607,0.386-6.351,0.392-10.28,0.08c-5.394-0.415-11.151-1.442-14.883-3.034
			c-6.45-2.757-6.657,1.477-11.1,7.395c-2.706,3.612-9.876-0.334-16.527-6.057v11.688c0,0-6.617,2.942-16.966,2.942
			c-10.349,0-19.048-4.419-32.703-4.419c-11.416,0-21.576,3.576-24.633,4.753v48.527c0,0.992-0.819,1.811-1.817,1.811h-1.489
			c-0.998,0-1.811-0.819-1.811-1.811v-58.38c-0.836,0.559-1.691,1.113-2.475,1.684c-22.204,16.291-19.245,71.048-8.145,87.333
			c11.105,16.28,48.1,5.555,60.682,8.878c12.587,3.323,13.325,11.111,11.105,17.035c-2.215,5.925,5.48,18.224,14.064,34.042
			c8.573,15.83,2.371,18.172-1.483,28.867c-3.859,10.684,6.398,29.04,9.622,35.513c3.219,6.484,5.919,5.18,9.617,20.721
			c2.607,10.937,16.787,7.684,28.942,2.146c5.111-2.331,9.864-5.054,13.239-7.327c11.393-7.637,15.039-20.167,14.803-28.855
			c-0.243-8.7,3.023-8.723,11.099-13.326c7.759-4.419,11.485-17.41,9.789-28.267c-3.081-0.473-6.369-0.808-10.032-0.808
			c-11.41,0-21.575,3.577-24.632,4.765v48.515c0,1.004-0.813,1.822-1.811,1.822h-1.494c-0.998,0-1.812-0.819-1.812-1.822V320.404
			c0-0.998,0.814-1.818,1.812-1.818h1.494c0.998,0,1.811,0.819,1.811,1.818v4.228c3.04-1.789,10.811-5.654,21.327-5.654
			c13.418,0,17.716,5.146,34.359,5.325c6.126-10.02,11.001-20.162,12.109-25.861c1.955-10.072-27.004-3.392-34.682-7.476
			c-7.678-4.085-31.688-50.592-30.731-60.18c1.281-12.807,17.803-11.03,17.803-11.03c7.649-3.462,23.946,28.324,32.807,41.685
			c8.867,13.36,26.646,15.541,44.402-5.175c17.756-20.727-16.279-14.064-24.413-29.599c-8.146-15.553,5.913-9.634,16.274-2.965
			c10.361,6.657,19.995,9.034,34.786,11.837c14.779,2.804,19.977,60.676,29.599,59.938c9.616-0.738,5.181-41.431,17.756-44.396
			c11.41-2.682,22.775,32.224,24.811,38.806c-2.827-59.643-30.534-112.715-72.935-149.203c-3.479-0.588-7.211-1.033-11.451-1.033
			C414.135,139.651,403.976,143.222,400.919,144.405z"/>
		<path style="fill:#FFFFFF;" d="M372.438,410.46c-1.679,8.93-11.728,13.949-11.728,13.949c-11.162,0.565-1.119,12.841-6.143,16.752
			c-5.019,3.911-7.811,14.515-0.553,17.306c7.251,2.781,16.187-20.11,20.658-32.374C379.136,413.806,372.438,410.46,372.438,410.46z
			"/>
		<path style="fill:#B4237D;" d="M395.796,192.932c0,0.992,0.813,1.811,1.811,1.811h1.495c0.998,0,1.817-0.819,1.817-1.811v-48.527
			c3.058-1.183,13.216-4.754,24.632-4.754c4.24,0,7.972,0.444,11.451,1.033c7.73,1.304,14.111,3.387,21.246,3.387
			c2.781,0,5.267-0.219,7.453-0.531c5.947-0.848,9.518-2.411,9.518-2.411V86.665c0,0-3.657,4.332-17.803,4.332
			c-17.381,0-21.517-5.342-35.177-5.342c-10.511,0-18.276,3.853-21.321,5.642v-4.223c0-1.004-0.819-1.811-1.817-1.811h-1.495
			c-0.998,0-1.811,0.808-1.811,1.811v6.069v19.879V192.932z"/>
		<path style="fill:#B4237D;" d="M313.73,324.633v-4.228c0-0.998-0.813-1.818-1.811-1.818h-1.494c-0.998,0-1.812,0.819-1.812,1.818
			v105.863c0,1.004,0.814,1.822,1.812,1.822h1.494c0.998,0,1.811-0.819,1.811-1.822v-48.515c3.058-1.189,13.222-4.765,24.632-4.765
			c3.664,0,6.952,0.335,10.032,0.808c8.394,1.258,15.097,3.612,22.671,3.612c10.349,0,16.966-2.942,16.966-2.942v-54.469
			c0,0-3.651,4.344-17.791,4.344c-0.3,0-0.53-0.029-0.825-0.035c-16.643-0.179-20.94-5.325-34.359-5.325
			C324.54,318.979,316.77,322.844,313.73,324.633z"/>
		<path style="fill:#B4237D;" d="M179.346,275.54h1.489c0.998,0,1.817-0.819,1.817-1.811v-48.527
			c3.057-1.177,13.216-4.753,24.633-4.753c13.654,0,22.354,4.419,32.703,4.419c10.349,0,16.966-2.942,16.966-2.942v-11.688v-42.769
			c0,0-3.652,4.332-17.797,4.332c-2.954,0-5.423-0.19-7.724-0.444c-7.35-0.819-12.063-2.619-17.526-3.807
			c-2.89-0.634-6.005-1.096-9.934-1.096c-10.511,0-18.281,3.859-21.321,5.642v-4.222c0-0.998-0.819-1.812-1.817-1.812h-1.489
			c-0.998,0-1.811,0.813-1.811,1.812v47.477v58.38C177.535,274.722,178.349,275.54,179.346,275.54z"/>
	</g>
</g>
<g id="Layer_1">
</g>
</svg>
