<?xml version="1.0" encoding="utf-8"?>
<!-- Generator: Adobe Illustrator 17.0.0, SVG Export Plug-In . SVG Version: 6.00 Build 0)  -->
<!DOCTYPE svg PUBLIC "-//W3C//DTD SVG 1.1//EN" "http://www.w3.org/Graphics/SVG/1.1/DTD/svg11.dtd" [
	<!ENTITY st0 "fill:#95D9A0;">
	<!ENTITY st1 "fill:#01C051;">
	<!ENTITY st2 "fill:#FFFFFF;">
	<!ENTITY st3 "fill:#227E38;">
]>
<svg version="1.1" xmlns="http://www.w3.org/2000/svg" xmlns:xlink="http://www.w3.org/1999/xlink" x="0px" y="0px" viewBox="0 0 100 100" xml:space="preserve">
<g id="illustration">
	<g>
		<path style="&st0;" d="M42.075,30.283v7.24c1.126,0.969,2.34,1.637,2.798,1.026c0.752-1.002,0.787-1.719,1.879-1.252
			c0.632,0.269,1.606,0.443,2.52,0.514v-5.32c-0.261,0.091-0.523,0.235-0.766,0.421c-0.747,0.572-0.821-0.217-2.13-1.628
			c-1.308-1.411-5.136-3.383-8.143-0.753c-0.156,0.137-0.316,0.274-0.478,0.409c0.39,0.043,0.808,0.076,1.308,0.076
			C41.457,31.017,42.075,30.283,42.075,30.283z"/>
		<path style="&st0;" d="M49.272,78.377c-2.058,0.938-4.458,1.489-4.899-0.362c-0.626-2.631-1.083-2.41-1.628-3.509
			c-0.546-1.096-2.282-4.203-1.629-6.012c0.652-1.811,1.702-2.207,0.251-4.886c-1.453-2.679-2.756-4.76-2.381-5.763
			c0.376-1.003,0.251-2.322-1.88-2.884c-2.13-0.563-8.393,1.253-10.273-1.503c-1.879-2.756-2.38-12.027,1.379-14.784
			c0.133-0.097,0.277-0.191,0.419-0.286v-8.037c0-0.169,0.138-0.307,0.307-0.307h0.252c0.169,0,0.308,0.138,0.308,0.307v0.715
			c0.515-0.302,1.83-0.955,3.609-0.955c0.665,0,1.192,0.079,1.682,0.185c0.766-0.026,1.41-0.19,1.565-0.893
			c0.251-1.127-0.376-1.377,0.627-2.129c1.003-0.751,4.505-2.729,6.891-2.631c2.386,0.098,3.006,1.003,3.507-0.125
			c0.501-1.127,0.125-2.129,0.877-2.63c0.752-0.501-0.195-2.856-1.802-1.697c-1.606,1.158-5.043,1.72-5.419,0.217
			c-0.348-1.393,5.309-2.737,8.237-2.648V14.13c0.03,0,0.06-0.003,0.09-0.003c-21.312,0-38.589,17.276-38.589,38.59
			c0,21.315,17.277,38.592,38.589,38.592c-0.03,0-0.06-0.004-0.09-0.004V78.377z"/>
		<path style="&st1;" d="M51.012,37.797c0.543-0.078,1.179-0.022,1.642,0.282c0.681,0.448,0.738-0.448,1.114-0.741
			c0.376-0.293,0.764-0.011,0.764-0.011c0.508,0.082,1.008,0.006,1.491-0.657c1.002-1.377,0.251-3.382-2.004-2.881
			c-2.255,0.501-2.662-0.065-3.257-0.877c-0.401-0.548-0.948-0.61-1.49-0.421v5.32C49.937,37.863,50.57,37.862,51.012,37.797z"/>
		<path style="&st1;" d="M49.272,17.761c0.233,0.007,0.455,0.021,0.649,0.046c2.632,0.353,3.596,2.076,2.845,3.078
			c-0.71,0.946,6.05,0.44,9.026-1.515c1.304,0.486,2.56,1.066,3.787,1.696v-3.366c-4.933-2.288-10.424-3.573-16.218-3.573
			c-0.03,0-0.06,0.003-0.09,0.003V17.761z"/>
		<path style="&st1;" d="M77.413,26.232c-0.37,0.053-0.791,0.09-1.262,0.09c-1.208,0-2.288-0.352-3.597-0.573
			c7.178,6.177,11.868,15.162,12.347,25.258c-0.345-1.114-2.269-7.023-4.2-6.569c-2.129,0.502-1.378,7.391-3.006,7.516
			c-1.629,0.125-2.509-9.672-5.011-10.147c-2.504-0.475-4.135-0.878-5.889-2.005c-1.754-1.128-4.134-2.13-2.755,0.502
			c1.377,2.63,7.139,1.503,4.133,5.011c-3.006,3.507-6.016,3.138-7.517,0.876c-1.5-2.262-4.259-7.642-5.554-7.057
			c0,0-2.797-0.3-3.014,1.867c-0.162,1.623,3.902,9.496,5.202,10.188c1.3,0.691,6.202-0.44,5.871,1.265
			c-0.188,0.965-1.013,2.682-2.05,4.378c0.05,0.001,0.089,0.006,0.14,0.006c2.394,0,3.012-0.735,3.012-0.735v9.221
			c0,0-1.12,0.498-2.872,0.498c-1.282,0-2.417-0.398-3.838-0.612c0.287,1.838-0.344,4.037-1.657,4.786
			c-1.367,0.779-1.92,0.782-1.879,2.255c0.04,1.472-0.577,3.592-2.506,4.886c-0.571,0.384-1.376,0.845-2.241,1.239v12.93
			c0.03,0,0.06,0.004,0.09,0.004c21.312,0,38.591-17.277,38.591-38.592C87.952,42.459,83.941,33.144,77.413,26.232z M62.003,74.064
			c-0.757,2.077-2.27,5.952-3.497,5.48c-1.229-0.473-0.756-2.268,0.094-2.93c0.851-0.661-0.85-2.74,1.04-2.835
			c0,0,1.701-0.851,1.985-2.362C61.625,71.418,62.759,71.985,62.003,74.064z"/>
		<path style="&st2;" d="M66.446,26.379v8.214c0,0.169-0.139,0.307-0.308,0.307h-0.253c-0.169,0-0.307-0.138-0.307-0.307V21.067
			c-1.228-0.63-2.483-1.21-3.787-1.696c-2.977,1.955-9.736,2.461-9.026,1.515c0.751-1.002-0.213-2.725-2.845-3.078
			c-0.194-0.026-0.416-0.039-0.649-0.046c-2.929-0.09-8.585,1.254-8.237,2.648c0.376,1.503,3.812,0.941,5.419-0.217
			c1.607-1.159,2.554,1.196,1.802,1.697c-0.752,0.501-0.376,1.503-0.877,2.63c-0.501,1.128-1.121,0.223-3.507,0.125
			c-2.386-0.098-5.888,1.88-6.891,2.631c-1.003,0.752-0.376,1.002-0.627,2.129c-0.155,0.703-0.8,0.866-1.565,0.893
			c0.925,0.201,1.723,0.506,2.967,0.645c0.162-0.136,0.322-0.272,0.478-0.409c3.007-2.631,6.835-0.659,8.143,0.753
			c1.309,1.411,1.383,2.2,2.13,1.628c0.243-0.186,0.505-0.33,0.766-0.421c0.542-0.189,1.089-0.127,1.49,0.421
			c0.595,0.812,1.002,1.378,3.257,0.877c2.255-0.501,3.006,1.504,2.004,2.881c-0.483,0.663-0.983,0.739-1.491,0.657
			c0,0-0.388-0.282-0.764,0.011c-0.376,0.293-0.434,1.189-1.114,0.741c-0.463-0.304-1.099-0.36-1.642-0.282
			c-0.441,0.065-1.075,0.065-1.74,0.014c-0.913-0.071-1.888-0.244-2.52-0.514c-1.092-0.467-1.127,0.25-1.879,1.252
			c-0.458,0.611-1.672-0.058-2.798-1.026v1.979c0,0-1.12,0.498-2.872,0.498c-1.752,0-3.225-0.748-5.536-0.748
			c-1.933,0-3.652,0.605-4.17,0.805v8.214c0,0.169-0.139,0.307-0.308,0.307h-0.252c-0.169,0-0.307-0.138-0.307-0.307v-9.883
			c-0.142,0.095-0.286,0.189-0.419,0.286c-3.759,2.757-3.258,12.027-1.379,14.784c1.88,2.756,8.143,0.94,10.273,1.503
			c2.131,0.562,2.256,1.881,1.88,2.884c-0.375,1.003,0.928,3.084,2.381,5.763c1.451,2.679,0.401,3.075-0.251,4.886
			c-0.653,1.809,1.083,4.916,1.629,6.012c0.545,1.099,1.002,0.878,1.628,3.509c0.441,1.852,2.842,1.301,4.899,0.362
			c0.865-0.395,1.67-0.855,2.241-1.239c1.929-1.294,2.546-3.414,2.506-4.886c-0.041-1.473,0.512-1.476,1.879-2.255
			c1.313-0.749,1.944-2.948,1.657-4.786c-0.521-0.08-1.078-0.136-1.698-0.136c-1.932,0-3.652,0.605-4.17,0.806v8.214
			c0,0.169-0.138,0.308-0.307,0.308h-0.253c-0.169,0-0.307-0.139-0.307-0.308V56.173c0-0.17,0.138-0.308,0.307-0.308h0.253
			c0.169,0,0.307,0.138,0.307,0.308v0.716c0.515-0.303,1.83-0.957,3.61-0.957c2.271,0,2.999,0.871,5.816,0.901
			c1.037-1.697,1.862-3.413,2.05-4.378c0.331-1.705-4.571-0.574-5.871-1.265c-1.3-0.692-5.364-8.565-5.202-10.188
			c0.217-2.167,3.014-1.867,3.014-1.867c1.295-0.585,4.054,4.795,5.554,7.057c1.501,2.262,4.511,2.631,7.517-0.876
			c3.006-3.508-2.756-2.381-4.133-5.011c-1.379-2.632,1.001-1.63,2.755-0.502c1.754,1.127,3.385,1.53,5.889,2.005
			c2.502,0.474,3.382,10.272,5.011,10.147c1.628-0.125,0.877-7.014,3.006-7.516c1.932-0.454,3.855,5.455,4.2,6.569
			c-0.479-10.096-5.169-19.081-12.347-25.258c-0.589-0.1-1.221-0.175-1.939-0.175C68.684,25.574,66.964,26.179,66.446,26.379z"/>
		<path style="&st2;" d="M61.625,71.418c-0.284,1.512-1.985,2.362-1.985,2.362c-1.89,0.095-0.189,2.174-1.04,2.835
			c-0.85,0.662-1.322,2.457-0.094,2.93c1.227,0.472,2.74-3.403,3.497-5.48C62.759,71.985,61.625,71.418,61.625,71.418z"/>
		<path style="&st3;" d="M65.579,34.593c0,0.169,0.138,0.307,0.307,0.307h0.253c0.169,0,0.308-0.138,0.308-0.307v-8.214
			c0.518-0.201,2.237-0.806,4.17-0.806c0.718,0,1.35,0.076,1.939,0.175c1.309,0.221,2.389,0.573,3.597,0.573
			c0.471,0,0.892-0.037,1.262-0.09c1.007-0.143,1.611-0.408,1.611-0.408v-9.219c0,0-0.619,0.734-3.014,0.734
			c-2.942,0-3.643-0.905-5.955-0.905c-1.779,0-3.094,0.652-3.609,0.955v-0.715c0-0.169-0.139-0.307-0.308-0.307h-0.253
			c-0.169,0-0.307,0.138-0.307,0.307v1.027v3.366V34.593z"/>
		<path style="&st3;" d="M51.687,56.889v-0.716c0-0.17-0.138-0.308-0.307-0.308h-0.253c-0.169,0-0.307,0.138-0.307,0.308v17.921
			c0,0.169,0.138,0.308,0.307,0.308h0.253c0.169,0,0.307-0.139,0.307-0.308V65.88c0.518-0.2,2.238-0.806,4.17-0.806
			c0.62,0,1.177,0.056,1.698,0.136c1.421,0.214,2.556,0.612,3.838,0.612c1.752,0,2.872-0.498,2.872-0.498v-9.221
			c0,0-0.618,0.735-3.012,0.735c-0.051,0-0.09-0.005-0.14-0.006c-2.817-0.03-3.545-0.901-5.816-0.901
			C53.517,55.932,52.201,56.586,51.687,56.889z"/>
		<path style="&st3;" d="M28.938,48.578h0.252c0.169,0,0.308-0.138,0.308-0.307v-8.214c0.518-0.2,2.237-0.805,4.17-0.805
			c2.312,0,3.784,0.748,5.536,0.748c1.752,0,2.872-0.498,2.872-0.498v-1.979v-7.24c0,0-0.618,0.734-3.013,0.734
			c-0.5,0-0.918-0.033-1.308-0.076c-1.244-0.139-2.042-0.443-2.967-0.645c-0.489-0.107-1.017-0.185-1.682-0.185
			c-1.779,0-3.095,0.653-3.609,0.955v-0.715c0-0.169-0.139-0.307-0.308-0.307h-0.252c-0.169,0-0.307,0.138-0.307,0.307v8.037v9.883
			C28.631,48.44,28.769,48.578,28.938,48.578z"/>
	</g>
</g>
</svg>
