<?xml version="1.0" encoding="iso-8859-1"?>
<!-- Generator: Adobe Illustrator 17.0.0, SVG Export Plug-In . SVG Version: 6.00 Build 0)  -->
<!DOCTYPE svg PUBLIC "-//W3C//DTD SVG 1.1//EN" "http://www.w3.org/Graphics/SVG/1.1/DTD/svg11.dtd">
<svg version="1.1" xmlns="http://www.w3.org/2000/svg" xmlns:xlink="http://www.w3.org/1999/xlink" x="0px" y="0px" viewBox="0 0 600 600" xml:space="preserve">
<g id="Layer_9">
	<g>
		<path style="fill:#95D9A0;" d="M256.953,167.466v42.769c6.652,5.723,13.822,9.672,16.528,6.063
			c4.442-5.918,4.65-10.156,11.099-7.395c3.732,1.592,9.489,2.616,14.883,3.034v-31.425c-1.54,0.536-3.087,1.391-4.523,2.486
			c-4.413,3.378-4.852-1.284-12.582-9.616c-7.724-8.336-30.338-19.986-48.1-4.445c-0.923,0.81-1.869,1.616-2.827,2.417
			c2.302,0.254,4.771,0.447,7.724,0.447C253.301,171.801,256.953,167.466,256.953,167.466z"/>
		<path style="fill:#95D9A0;" d="M299.463,451.566c-12.155,5.543-26.334,8.797-28.942-2.14c-3.698-15.541-6.397-14.238-9.616-20.727
			c-3.225-6.473-13.482-24.829-9.622-35.512c3.853-10.696,10.055-13.038,1.482-28.861c-8.584-15.824-16.279-28.117-14.064-34.044
			c2.221-5.924,1.482-13.715-11.105-17.035c-12.582-3.326-49.577,7.402-60.682-8.878c-11.099-16.282-14.059-71.045,8.145-87.33
			c0.784-0.574,1.639-1.128,2.475-1.69v-47.474c0-0.998,0.813-1.815,1.811-1.815h1.489c0.998,0,1.817,0.816,1.817,1.815v4.222
			c3.04-1.783,10.811-5.642,21.322-5.642c3.928,0,7.043,0.464,9.933,1.093c4.523-0.156,8.33-1.119,9.247-5.273
			c1.483-6.657-2.221-8.134,3.704-12.576c5.924-4.436,26.611-16.121,40.704-15.544c14.093,0.579,17.756,5.927,20.715-0.738
			c2.96-6.657,0.738-12.576,5.181-15.535c4.442-2.96-1.154-16.871-10.644-10.026c-9.489,6.842-29.789,10.162-32.011,1.284
			c-2.054-8.229,31.359-16.17,48.66-15.639V72.05c0.179,0,0.352-0.018,0.53-0.018c-125.892,0-227.952,102.055-227.952,227.962
			c0,125.912,102.061,227.973,227.952,227.973c-0.178,0-0.351-0.023-0.53-0.023V451.566z"/>
		<path style="fill:#01C051;" d="M309.743,211.856c3.208-0.462,6.963-0.13,9.697,1.664c4.021,2.648,4.361-2.645,6.582-4.375
			c2.221-1.731,4.511-0.067,4.511-0.067c3,0.485,5.953,0.035,8.809-3.879c5.918-8.137,1.483-19.98-11.838-17.02
			c-13.32,2.959-15.725-0.384-19.239-5.181c-2.371-3.236-5.601-3.603-8.803-2.486v31.425
			C303.392,212.243,307.136,212.24,309.743,211.856z"/>
		<path style="fill:#01C051;" d="M299.463,93.498c1.379,0.041,2.688,0.121,3.836,0.274c15.547,2.085,21.241,12.265,16.804,18.183
			c-4.194,5.587,35.737,2.599,53.321-8.95c7.701,2.873,15.12,6.299,22.371,10.02V93.141c-29.138-13.513-61.576-21.108-95.802-21.108
			c-0.178,0-0.351,0.018-0.53,0.018V93.498z"/>
		<path style="fill:#01C051;" d="M465.702,143.537c-2.186,0.312-4.673,0.531-7.453,0.531c-7.136,0-13.516-2.08-21.246-3.384
			c42.4,36.491,70.108,89.563,72.935,149.203c-2.036-6.582-13.401-41.489-24.811-38.806c-12.576,2.965-8.14,43.661-17.757,44.399
			c-9.622,0.738-14.82-57.136-29.599-59.938c-14.791-2.804-24.425-5.186-34.786-11.843c-10.361-6.663-24.419-12.581-16.274,2.965
			c8.134,15.538,42.17,8.878,24.413,29.602c-17.756,20.719-35.535,18.538-44.402,5.175c-8.861-13.363-25.157-45.143-32.807-41.688
			c0,0-16.521-1.771-17.802,11.03c-0.958,9.587,23.052,56.095,30.73,60.185c7.678,4.082,36.638-2.602,34.682,7.471
			c-1.108,5.702-5.982,15.841-12.109,25.864c0.294,0.006,0.525,0.035,0.825,0.035c14.14,0,17.791-4.344,17.791-4.344v54.472
			c0,0-6.617,2.942-16.966,2.942c-7.574,0-14.278-2.354-22.671-3.618c1.696,10.857-2.03,23.849-9.789,28.273
			c-8.076,4.603-11.341,4.621-11.099,13.32c0.236,8.693-3.41,21.218-14.803,28.861c-3.375,2.267-8.128,4.99-13.239,7.321v76.378
			c0.179,0,0.352,0.023,0.53,0.023c125.897,0,227.965-102.061,227.965-227.973C527.958,239.396,504.266,184.365,465.702,143.537z
			 M374.67,426.091c-4.471,12.27-13.406,35.16-20.658,32.374c-7.257-2.792-4.465-13.395,0.554-17.306
			c5.025-3.905-5.019-16.187,6.144-16.746c0,0,10.049-5.025,11.728-13.955C372.438,410.457,379.136,413.809,374.67,426.091z"/>
		<path style="fill:#FFFFFF;" d="M400.918,144.408v48.521c0,0.998-0.819,1.811-1.817,1.811h-1.494c-0.998,0-1.812-0.813-1.812-1.811
			v-79.903c-7.251-3.721-14.67-7.148-22.371-10.02c-17.583,11.549-57.514,14.537-53.321,8.95
			c4.436-5.918-1.257-16.098-16.804-18.183c-1.148-0.153-2.457-0.233-3.836-0.274c-17.301-0.53-50.713,7.41-48.66,15.639
			c2.221,8.878,22.521,5.558,32.011-1.284c9.49-6.845,15.086,7.067,10.644,10.026c-4.442,2.959-2.221,8.878-5.181,15.535
			c-2.959,6.666-6.622,1.318-20.715,0.738c-14.093-0.577-34.78,11.107-40.704,15.544c-5.924,4.442-2.221,5.919-3.704,12.576
			c-0.917,4.153-4.725,5.117-9.247,5.273c5.463,1.189,10.176,2.988,17.526,3.807c0.958-0.802,1.904-1.607,2.827-2.417
			c17.762-15.541,40.376-3.891,48.1,4.445c7.73,8.333,8.168,12.994,12.582,9.616c1.436-1.096,2.983-1.95,4.523-2.486
			c3.202-1.116,6.432-0.75,8.803,2.486c3.514,4.797,5.919,8.14,19.239,5.181c13.32-2.96,17.756,8.884,11.838,17.02
			c-2.856,3.914-5.809,4.364-8.809,3.879c0,0-2.29-1.664-4.511,0.067c-2.221,1.73-2.561,7.023-6.582,4.375
			c-2.734-1.794-6.49-2.126-9.697-1.664c-2.607,0.383-6.351,0.386-10.28,0.08c-5.394-0.418-11.151-1.442-14.883-3.034
			c-6.449-2.76-6.657,1.477-11.099,7.395c-2.706,3.609-9.876-0.34-16.528-6.063v11.691c0,0-6.617,2.942-16.966,2.942
			c-10.349,0-19.048-4.419-32.703-4.419c-11.416,0-21.575,3.573-24.632,4.756v48.521c0,0.998-0.819,1.814-1.817,1.814h-1.489
			c-0.998,0-1.811-0.816-1.811-1.814v-58.38c-0.836,0.562-1.691,1.116-2.475,1.69c-22.204,16.286-19.245,71.048-8.145,87.33
			c11.105,16.28,48.1,5.552,60.682,8.878c12.587,3.32,13.325,11.111,11.105,17.035c-2.215,5.927,5.48,18.221,14.064,34.044
			c8.573,15.824,2.371,18.166-1.482,28.861c-3.86,10.683,6.398,29.04,9.622,35.512c3.219,6.49,5.918,5.186,9.616,20.727
			c2.608,10.937,16.787,7.684,28.942,2.14c5.111-2.331,9.864-5.054,13.239-7.321c11.393-7.643,15.039-20.168,14.803-28.861
			c-0.242-8.7,3.023-8.717,11.099-13.32c7.759-4.424,11.485-17.416,9.789-28.273c-3.081-0.473-6.369-0.802-10.032-0.802
			c-11.411,0-21.576,3.577-24.633,4.759v48.521c0,0.998-0.814,1.818-1.811,1.818h-1.494c-0.998,0-1.812-0.819-1.812-1.818V320.404
			c0-1.001,0.813-1.818,1.812-1.818h1.494c0.998,0,1.811,0.816,1.811,1.818v4.231c3.04-1.789,10.811-5.654,21.327-5.654
			c13.418,0,17.716,5.143,34.359,5.322c6.126-10.023,11.001-20.162,12.109-25.864c1.956-10.072-27.004-3.389-34.682-7.471
			c-7.678-4.09-31.687-50.598-30.73-60.185c1.281-12.801,17.802-11.03,17.802-11.03c7.65-3.456,23.946,28.324,32.807,41.688
			c8.867,13.363,26.646,15.544,44.402-5.175c17.756-20.724-16.279-14.064-24.413-29.602c-8.145-15.547,5.913-9.628,16.274-2.965
			c10.361,6.657,19.995,9.04,34.786,11.843c14.779,2.801,19.977,60.676,29.599,59.938c9.617-0.738,5.181-41.434,17.757-44.399
			c11.41-2.682,22.775,32.224,24.811,38.806c-2.827-59.64-30.534-112.713-72.935-149.203c-3.479-0.588-7.211-1.036-11.451-1.036
			C414.135,139.648,403.976,143.222,400.918,144.408z"/>
		<path style="fill:#FFFFFF;" d="M372.438,410.457c-1.679,8.93-11.728,13.955-11.728,13.955
			c-11.163,0.559-1.119,12.841-6.144,16.746c-5.019,3.912-7.811,14.515-0.554,17.306c7.251,2.786,16.187-20.104,20.658-32.374
			C379.136,413.809,372.438,410.457,372.438,410.457z"/>
		<path style="fill:#227E38;" d="M395.796,192.929c0,0.998,0.813,1.811,1.812,1.811h1.494c0.998,0,1.817-0.813,1.817-1.811v-48.521
			c3.058-1.186,13.216-4.759,24.632-4.759c4.24,0,7.972,0.447,11.451,1.036c7.73,1.304,14.111,3.384,21.246,3.384
			c2.781,0,5.267-0.219,7.453-0.531c5.947-0.845,9.518-2.411,9.518-2.411v-54.46c0,0-3.657,4.335-17.802,4.335
			c-17.381,0-21.518-5.345-35.178-5.345c-10.511,0-18.276,3.85-21.321,5.639v-4.223c0-0.998-0.819-1.811-1.817-1.811h-1.494
			c-0.998,0-1.812,0.813-1.812,1.811v6.069v19.885V192.929z"/>
		<path style="fill:#227E38;" d="M313.729,324.636v-4.231c0-1.001-0.814-1.818-1.811-1.818h-1.494c-0.998,0-1.812,0.816-1.812,1.818
			v105.865c0,0.998,0.813,1.818,1.812,1.818h1.494c0.998,0,1.811-0.819,1.811-1.818v-48.521c3.057-1.183,13.222-4.759,24.633-4.759
			c3.663,0,6.951,0.329,10.032,0.802c8.394,1.264,15.097,3.618,22.671,3.618c10.349,0,16.966-2.942,16.966-2.942v-54.472
			c0,0-3.652,4.344-17.791,4.344c-0.299,0-0.53-0.029-0.825-0.035c-16.643-0.179-20.94-5.322-34.359-5.322
			C324.54,318.982,316.77,322.847,313.729,324.636z"/>
		<path style="fill:#227E38;" d="M179.346,275.54h1.489c0.998,0,1.817-0.816,1.817-1.814v-48.521
			c3.058-1.183,13.216-4.756,24.632-4.756c13.655,0,22.354,4.419,32.703,4.419c10.349,0,16.966-2.942,16.966-2.942v-11.691v-42.769
			c0,0-3.652,4.335-17.797,4.335c-2.954,0-5.423-0.193-7.724-0.447c-7.349-0.819-12.063-2.619-17.526-3.807
			c-2.89-0.629-6.005-1.093-9.933-1.093c-10.511,0-18.282,3.859-21.322,5.642v-4.222c0-0.998-0.819-1.815-1.817-1.815h-1.489
			c-0.998,0-1.811,0.816-1.811,1.815v47.474v58.38C177.535,274.724,178.348,275.54,179.346,275.54z"/>
	</g>
</g>
<g id="Layer_1">
</g>
</svg>
