<?xml version="1.0" encoding="iso-8859-1"?>
<!-- Generator: Adobe Illustrator 17.0.0, SVG Export Plug-In . SVG Version: 6.00 Build 0)  -->
<!DOCTYPE svg PUBLIC "-//W3C//DTD SVG 1.1//EN" "http://www.w3.org/Graphics/SVG/1.1/DTD/svg11.dtd">
<svg version="1.1" xmlns="http://www.w3.org/2000/svg" xmlns:xlink="http://www.w3.org/1999/xlink" x="0px" y="0px" viewBox="0 0 600 600" xml:space="preserve">
<g id="Layer_17">
	<g>
		<path style="fill:#FD9CBD;" d="M299.115,497.895v-60.619c-81.513-0.669-147.392-66.941-147.392-148.626
			c0-81.662,65.879-147.934,147.392-148.615V71.854c-119.056,0.767-215.51,96.534-217.448,215.307
			c0.035-0.351,0.052-0.721,0.087-1.073C85.509,403.241,181.236,497.145,299.115,497.895z"/>
		<path style="fill:#FD9CBD;" d="M518.304,313.952c0.07-0.669,0.093-1.356,0.156-2.031c-0.04,0.369-0.092,0.733-0.127,1.102
			C518.322,313.329,518.31,313.646,518.304,313.952z"/>
		<path style="fill:#FD609D;" d="M300.551,71.819c-0.478,0-0.958,0.035-1.436,0.035v68.181c0.427-0.006,0.842-0.035,1.269-0.035
			c82.101,0,148.655,66.56,148.655,148.65c0,82.101-66.554,148.661-148.655,148.661c-0.427,0-0.842-0.023-1.269-0.035v60.619
			c0.478,0,0.958,0.034,1.436,0.034c112.952,0,205.899-85.516,217.69-195.341c0.069,2.203,0.19,4.39,0.19,6.611
			c0,1.281-0.081,2.55-0.098,3.825c0.035-0.369,0.087-0.733,0.127-1.102c0.046-0.369,0.098-0.738,0.127-1.119
			c0.288-3.242,0.53-6.484,0.692-9.749c0.155-3.404,0.259-6.819,0.259-10.257C519.539,169.86,421.493,71.819,300.551,71.819z"/>
		<path style="fill:#FFFFFF;" d="M151.723,288.65c0,81.686,65.879,147.957,147.392,148.626c0.427,0.012,0.842,0.035,1.269,0.035
			c82.101,0,148.655-66.56,148.655-148.661c0-82.09-66.554-148.65-148.655-148.65c-0.427,0-0.842,0.029-1.269,0.035
			C217.602,140.716,151.723,206.988,151.723,288.65z M299.115,179.978c4.234-0.415,8.544-0.704,13.02-0.704
			c42.665,0,66.404,15.945,84.645,37.785l-39.914,25.971c-13.077-15.05-25.803-23.312-45.763-23.312
			c-4.263,0-8.215,0.519-11.988,1.344c-14.186,3.121-24.91,11.791-31.717,24.632h31.717h31.601v29.801h-31.601h-39.967
			c-0.346,3.242-0.346,6.79-0.346,10.326c0,3.253,0,6.79,0.346,9.743h39.967h31.601v29.813h-31.601h-32.404
			c6.883,13.39,17.861,22.193,32.404,25.562c4.378,1.015,9.039,1.592,14.053,1.592c19.948,0,31.318-8.261,46.45-24.205
			l37.855,23.905c-20.306,24.494-44.737,40.728-84.305,40.728c-4.846,0-9.496-0.3-14.053-0.75
			c-44.933-4.43-75.611-30.124-87.795-66.831h-31.653v-29.813h25.797c-0.34-2.954-0.34-5.901-0.34-9.15c0-3.547,0-7.378,0.34-10.92
			h-25.797v-29.801h32.34C224.876,210.149,255.243,184.264,299.115,179.978z"/>
		<path style="fill:#FD609D;" d="M179.667,275.497h25.797c-0.34,3.542-0.34,7.373-0.34,10.92c0,3.248,0,6.196,0.34,9.15h-25.797
			v29.813h31.653c12.184,36.707,42.862,62.401,87.795,66.831c4.557,0.45,9.207,0.75,14.053,0.75
			c39.568,0,63.999-16.234,84.305-40.728l-37.855-23.905c-15.132,15.945-26.502,24.205-46.45,24.205
			c-5.013,0-9.674-0.577-14.053-1.592c-14.543-3.369-25.521-12.172-32.404-25.562h32.404h31.601v-29.813h-31.601h-39.967
			c-0.346-2.954-0.346-6.49-0.346-9.743c0-3.537,0-7.085,0.346-10.326h39.967h31.601v-29.801h-31.601h-31.717
			c6.807-12.841,17.531-21.512,31.717-24.632c3.772-0.825,7.724-1.344,11.988-1.344c19.96,0,32.686,8.261,45.763,23.312
			l39.914-25.971c-18.241-21.84-41.98-37.785-84.645-37.785c-4.476,0-8.786,0.288-13.02,0.704
			c-43.872,4.286-74.238,30.171-87.108,65.718h-32.34V275.497z"/>
		<path style="fill:#B4237D;" d="M518.431,309.198c0-2.221-0.121-4.407-0.19-6.611c-11.791,109.825-104.738,195.341-217.69,195.341
			c-0.478,0-0.958-0.034-1.436-0.034c-117.879-0.75-213.606-94.654-217.361-211.806c-0.035,0.352-0.052,0.721-0.087,1.073
			c-0.744,7.257-1.206,14.589-1.206,22.037c0,120.936,98.046,218.982,218.982,218.982c119.339,0,216.323-95.485,218.861-214.229
			c0.006-0.306,0.018-0.623,0.029-0.929C518.35,311.748,518.431,310.479,518.431,309.198z"/>
	</g>
</g>
<g id="Layer_1">
</g>
</svg>
