<?xml version="1.0" encoding="iso-8859-1"?>
<!-- Generator: Adobe Illustrator 17.0.0, SVG Export Plug-In . SVG Version: 6.00 Build 0)  -->
<!DOCTYPE svg PUBLIC "-//W3C//DTD SVG 1.1//EN" "http://www.w3.org/Graphics/SVG/1.1/DTD/svg11.dtd">
<svg version="1.1" xmlns="http://www.w3.org/2000/svg" xmlns:xlink="http://www.w3.org/1999/xlink" x="0px" y="0px" viewBox="0 0 600 600" xml:space="preserve">
<g id="Layer_2">
	<g>
		<path style="fill:#95D9A0;" d="M299.115,497.899v-60.618c-81.513-0.675-147.392-66.941-147.392-148.626
			c0-81.668,65.879-147.937,147.392-148.618V71.856c-119.056,0.77-215.51,96.534-217.448,215.31
			c0.035-0.354,0.052-0.724,0.087-1.079C85.509,403.245,181.236,497.143,299.115,497.899z"/>
		<path style="fill:#95D9A0;" d="M518.304,313.956c0.069-0.669,0.093-1.359,0.156-2.031c-0.04,0.363-0.092,0.73-0.127,1.099
			C518.322,313.333,518.31,313.647,518.304,313.956z"/>
		<path style="fill:#01C051;" d="M300.551,71.821c-0.478,0-0.958,0.035-1.436,0.035v68.181c0.426-0.006,0.842-0.035,1.269-0.035
			c82.101,0,148.655,66.557,148.655,148.653c0,82.101-66.554,148.661-148.655,148.661c-0.427,0-0.842-0.023-1.269-0.035v60.618
			c0.478,0,0.958,0.035,1.436,0.035c112.952,0,205.899-85.516,217.69-195.342c0.069,2.201,0.19,4.387,0.19,6.605
			c0,1.284-0.081,2.55-0.098,3.828c0.035-0.369,0.087-0.736,0.127-1.099c0.046-0.372,0.098-0.738,0.127-1.119
			c0.288-3.242,0.531-6.487,0.693-9.755c0.155-3.401,0.259-6.813,0.259-10.257C519.539,169.861,421.493,71.821,300.551,71.821z"/>
		<path style="fill:#FFFFFF;" d="M151.723,288.655c0,81.686,65.879,147.951,147.392,148.626c0.426,0.012,0.842,0.035,1.269,0.035
			c82.101,0,148.655-66.56,148.655-148.661c0-82.095-66.554-148.653-148.655-148.653c-0.427,0-0.842,0.029-1.269,0.035
			C217.602,140.717,151.723,206.986,151.723,288.655z M299.115,179.977c4.234-0.412,8.544-0.698,13.02-0.698
			c42.665,0,66.404,15.939,84.645,37.783l-39.914,25.974c-13.077-15.053-25.803-23.315-45.763-23.315
			c-4.263,0-8.215,0.519-11.987,1.347c-14.186,3.118-24.91,11.791-31.717,24.627h31.717h31.601v29.804h-31.601h-39.966
			c-0.346,3.242-0.346,6.79-0.346,10.326c0,3.256,0,6.79,0.346,9.743h39.966h31.601v29.812h-31.601h-32.403
			c6.882,13.392,17.86,22.19,32.403,25.565c4.378,1.015,9.039,1.586,14.053,1.586c19.948,0,31.318-8.261,46.45-24.199l37.855,23.905
			c-20.306,24.494-44.737,40.728-84.305,40.728c-4.846,0-9.496-0.306-14.053-0.75c-44.933-4.43-75.611-30.13-87.795-66.834h-31.653
			v-29.812h25.797c-0.34-2.954-0.34-5.904-0.34-9.15c0-3.547,0-7.375,0.34-10.92h-25.797v-29.804h32.34
			C224.877,210.147,255.243,184.266,299.115,179.977z"/>
		<path style="fill:#01C051;" d="M179.667,275.499h25.797c-0.34,3.545-0.34,7.373-0.34,10.92c0,3.245,0,6.196,0.34,9.15h-25.797
			v29.812h31.653c12.184,36.704,42.862,62.404,87.795,66.834c4.557,0.444,9.207,0.75,14.053,0.75
			c39.568,0,63.999-16.234,84.305-40.728l-37.855-23.905c-15.131,15.939-26.501,24.199-46.45,24.199
			c-5.013,0-9.674-0.571-14.053-1.586c-14.544-3.375-25.522-12.172-32.403-25.565h32.403h31.601v-29.812h-31.601h-39.966
			c-0.346-2.954-0.346-6.487-0.346-9.743c0-3.537,0-7.085,0.346-10.326h39.966h31.601v-29.804h-31.601h-31.717
			c6.807-12.835,17.531-21.509,31.717-24.627c3.772-0.828,7.724-1.347,11.987-1.347c19.96,0,32.686,8.261,45.763,23.315
			l39.914-25.974c-18.241-21.843-41.98-37.783-84.645-37.783c-4.476,0-8.786,0.286-13.02,0.698
			c-43.872,4.289-74.238,30.17-87.108,65.718h-32.34V275.499z"/>
		<path style="fill:#227E38;" d="M518.431,309.197c0-2.218-0.121-4.404-0.19-6.605c-11.791,109.826-104.738,195.342-217.69,195.342
			c-0.478,0-0.958-0.035-1.436-0.035c-117.879-0.756-213.606-94.654-217.361-211.811c-0.035,0.355-0.052,0.724-0.087,1.079
			c-0.744,7.251-1.206,14.586-1.206,22.031c0,120.942,98.046,218.982,218.982,218.982c119.339,0,216.323-95.484,218.861-214.223
			c0.006-0.309,0.018-0.623,0.029-0.932C518.35,311.746,518.431,310.481,518.431,309.197z"/>
	</g>
</g>
<g id="Layer_1">
</g>
</svg>
