<?xml version="1.0" encoding="iso-8859-1"?>
<!-- Generator: Adobe Illustrator 17.0.0, SVG Export Plug-In . SVG Version: 6.00 Build 0)  -->
<!DOCTYPE svg PUBLIC "-//W3C//DTD SVG 1.1//EN" "http://www.w3.org/Graphics/SVG/1.1/DTD/svg11.dtd">
<svg version="1.1" xmlns="http://www.w3.org/2000/svg" xmlns:xlink="http://www.w3.org/1999/xlink" x="0px" y="0px" viewBox="0 0 600 600" xml:space="preserve">
<g id="Layer_4">
	<g>
		<path style="fill:#FD9CBD;" d="M286.68,510.886v-52.83h11.047V324.364c-7.822-0.813-14.698-4.552-19.591-10.176l-173.518-4.609
			c-7.28,0-13.187-5.815-13.389-13.055H71.673c-0.023,1.183-0.098,2.348-0.098,3.531c0,125.257,101.022,227.029,226.152,228.264
			v-17.433H286.68z M124.128,414.986l-9.524-16.384l42.274-24.598l9.524,16.383L124.128,414.986z M204.827,487.938l-16.712-9.599
			l23.41-40.693l16.694,9.61L204.827,487.938z"/>
		<path style="fill:#FD609D;" d="M300.006,71.635c-0.387,0-0.79,0.023-1.194,0.023v44.276c0.502-0.064,0.998-0.15,1.512-0.15
			c6.444,0,11.664,5.215,11.664,11.641v0.554l4.061,140.544c8.936,5.25,15.004,14.849,15.004,25.965
			c0,16.672-13.522,30.194-30.194,30.194c-1.073,0-2.088-0.207-3.133-0.317v133.691h14.105v52.83h-14.105v17.433l0,0
			c0.756,0,1.512,0.046,2.279,0.046c126.203,0,228.419-102.292,228.419-228.31C528.425,173.903,426.209,71.635,300.006,71.635z
			 M477.845,186.739l9.028,15.512l-39.181,22.786l-9.017-15.501L477.845,186.739z M397.475,113.672l15.553,8.942l-20.704,36.009
			l-15.547-8.947L397.475,113.672z M399.338,486.599l-23.6-40.577l15.42-8.977l23.6,40.578L399.338,486.599z M479.16,412.355
			l-41.679-23.974l8.451-14.722l41.697,23.986L479.16,412.355z M458.295,312.741v-25.164h52.848v25.164H458.295z"/>
		<rect x="458.295" y="287.577" style="fill:#FFFFFF;" width="52.848" height="25.164"/>
		<polygon style="fill:#FFFFFF;" points="286.68,510.886 297.727,510.886 311.832,510.886 311.832,458.056 297.727,458.056 
			286.68,458.056 		"/>
		<polygon style="fill:#FFFFFF;" points="413.027,122.614 397.475,113.672 376.777,149.675 392.323,158.622 		"/>
		<polygon style="fill:#FFFFFF;" points="437.481,388.381 479.16,412.355 487.629,397.645 445.932,373.659 		"/>
		<polygon style="fill:#FFFFFF;" points="188.115,478.339 204.827,487.938 228.219,447.256 211.525,437.646 		"/>
		<polygon style="fill:#FFFFFF;" points="486.873,202.252 477.845,186.739 438.675,209.538 447.692,225.038 		"/>
		<polygon style="fill:#FFFFFF;" points="375.738,446.022 399.338,486.599 414.758,477.623 391.158,437.046 		"/>
		<polygon style="fill:#FFFFFF;" points="114.603,398.603 124.128,414.986 166.401,390.388 156.877,374.005 		"/>
		<polygon style="fill:#B4237D;" points="170.393,205.534 124.601,179.188 112.06,200.999 157.852,227.345 		"/>
		<polygon style="fill:#B4237D;" points="232.119,152.334 205.56,106.663 183.817,119.314 210.376,164.991 		"/>
		<path style="fill:#B4237D;" d="M104.618,309.579l173.518,4.609c4.892,5.624,11.768,9.362,19.591,10.176
			c1.044,0.11,2.06,0.317,3.133,0.317c16.672,0,30.194-13.522,30.194-30.194c0-11.116-6.068-20.715-15.004-25.965l-4.061-140.544
			v-0.554c0-6.426-5.221-11.641-11.664-11.641c-0.513,0-1.01,0.086-1.512,0.15c-5.711,0.75-10.141,5.584-10.141,11.491
			l-3.761,141.513c-3.669,2.29-6.83,5.285-9.218,8.89l-170.438,4.904h-0.634c-7.407,0-13.424,6.022-13.424,13.429
			c0,0.127,0.035,0.242,0.035,0.363C91.431,303.764,97.338,309.579,104.618,309.579z"/>
	</g>
</g>
<g id="Layer_1">
</g>
</svg>
