<?xml version="1.0" encoding="iso-8859-1"?>
<!-- Generator: Adobe Illustrator 17.0.0, SVG Export Plug-In . SVG Version: 6.00 Build 0)  -->
<!DOCTYPE svg PUBLIC "-//W3C//DTD SVG 1.1//EN" "http://www.w3.org/Graphics/SVG/1.1/DTD/svg11.dtd">
<svg version="1.1" xmlns="http://www.w3.org/2000/svg" xmlns:xlink="http://www.w3.org/1999/xlink" x="0px" y="0px" viewBox="0 0 600 600" xml:space="preserve">
<g id="Layer_3">
	<g>
		<path style="fill:#95D9A0;" d="M286.679,510.887v-52.836h11.047V324.363c-7.822-0.816-14.698-4.554-19.591-10.176l-173.518-4.609
			c-7.28,0-13.187-5.815-13.389-13.055H71.672c-0.023,1.18-0.098,2.348-0.098,3.531c0,125.26,101.022,227.032,226.152,228.261
			v-17.427H286.679z M124.127,414.982l-9.524-16.378l42.274-24.604l9.524,16.383L124.127,414.982z M204.827,487.939l-16.712-9.599
			l23.41-40.693l16.694,9.61L204.827,487.939z"/>
		<path style="fill:#01C051;" d="M300.006,71.633c-0.386,0-0.791,0.023-1.195,0.023v44.273c0.502-0.061,0.998-0.144,1.512-0.144
			c6.444,0,11.664,5.212,11.664,11.641v0.548l4.061,140.547c8.936,5.25,15.004,14.849,15.004,25.965
			c0,16.675-13.522,30.194-30.194,30.194c-1.073,0-2.088-0.207-3.133-0.317v133.688h14.105v52.836h-14.105v17.427v0.006
			c0.756,0,1.512,0.046,2.279,0.046c126.203,0,228.42-102.292,228.42-228.313C528.426,173.902,426.208,71.633,300.006,71.633z
			 M477.845,186.738l9.028,15.512l-39.181,22.786l-9.017-15.503L477.845,186.738z M397.475,113.668l15.552,8.947l-20.704,36.003
			l-15.547-8.944L397.475,113.668z M399.338,486.595l-23.6-40.577l15.42-8.977l23.6,40.584L399.338,486.595z M479.16,412.357
			l-41.68-23.975l8.451-14.721l41.697,23.98L479.16,412.357z M458.295,312.739v-25.164h52.848v25.164H458.295z"/>
		<rect x="458.295" y="287.576" style="fill:#FFFFFF;" width="52.848" height="25.164"/>
		<polygon style="fill:#FFFFFF;" points="286.679,510.887 297.727,510.887 311.831,510.887 311.831,458.051 297.727,458.051 
			286.679,458.051 		"/>
		<polygon style="fill:#FFFFFF;" points="413.027,122.615 397.475,113.668 376.776,149.674 392.323,158.618 		"/>
		<polygon style="fill:#FFFFFF;" points="437.481,388.382 479.16,412.357 487.629,397.641 445.932,373.66 		"/>
		<polygon style="fill:#FFFFFF;" points="188.115,478.34 204.827,487.939 228.219,447.258 211.524,437.647 		"/>
		<polygon style="fill:#FFFFFF;" points="486.873,202.25 477.845,186.738 438.675,209.533 447.692,225.037 		"/>
		<polygon style="fill:#FFFFFF;" points="375.738,446.018 399.338,486.595 414.758,477.625 391.157,437.041 		"/>
		<polygon style="fill:#FFFFFF;" points="114.603,398.604 124.127,414.982 166.401,390.384 156.877,374.001 		"/>
		<polygon style="fill:#227E38;" points="170.393,205.532 124.6,179.187 112.059,200.998 157.851,227.344 		"/>
		<polygon style="fill:#227E38;" points="232.119,152.333 205.559,106.661 183.817,119.315 210.376,164.987 		"/>
		<path style="fill:#227E38;" d="M104.617,309.578l173.518,4.609c4.892,5.621,11.768,9.36,19.591,10.176
			c1.045,0.11,2.06,0.317,3.133,0.317c16.672,0,30.194-13.519,30.194-30.194c0-11.116-6.068-20.715-15.004-25.965l-4.061-140.547
			v-0.548c0-6.429-5.221-11.641-11.664-11.641c-0.513,0-1.01,0.083-1.512,0.144c-5.711,0.756-10.141,5.59-10.141,11.497
			l-3.761,141.51c-3.669,2.287-6.83,5.285-9.218,8.89l-170.438,4.907h-0.634c-7.407,0-13.424,6.016-13.424,13.424
			c0,0.127,0.034,0.242,0.034,0.366C91.43,303.763,97.337,309.578,104.617,309.578z"/>
	</g>
</g>
<g id="Layer_1">
</g>
</svg>
