<?xml version="1.0" encoding="iso-8859-1"?>
<!-- Generator: Adobe Illustrator 17.0.0, SVG Export Plug-In . SVG Version: 6.00 Build 0)  -->
<!DOCTYPE svg PUBLIC "-//W3C//DTD SVG 1.1//EN" "http://www.w3.org/Graphics/SVG/1.1/DTD/svg11.dtd">
<svg version="1.1" xmlns="http://www.w3.org/2000/svg" xmlns:xlink="http://www.w3.org/1999/xlink" x="0px" y="0px" viewBox="0 0 600 600" xml:space="preserve">
<g id="Layer_5">
	<g>
		<path style="fill:#95D9A0;" d="M300.274,379.373v-10.638l-20.964,4.696C285.287,374.942,294.17,377.29,300.274,379.373z"/>
		<polygon style="fill:#95D9A0;" points="300.274,323.582 300.274,317.776 287.3,320.681 		"/>
		<path style="fill:#95D9A0;" d="M288.898,409.243c0-9.259-8.18-12.38-16.672-15.472c0,0-28.48-7.966-38.363-10.834
			c-0.011,0-0.028,0-0.046,0c-4.73-0.577-8.607-4.084-9.645-8.74c-1.361-6.086,2.48-12.143,8.561-13.504l64.951-14.532
			l-63.289-14.165c-0.196-0.015-0.381,0.003-0.577-0.021c-3.08-0.375-5.699-2.053-7.482-4.439c-0.513-0.663-0.952-1.385-1.315-2.146
			c-0.214-0.447-0.387-0.903-0.542-1.373c-0.087-0.271-0.248-0.502-0.306-0.782c-0.04-0.173-0.034-0.344-0.063-0.516
			c-0.041-0.191-0.041-0.39-0.069-0.583c-0.064-0.481-0.121-0.963-0.121-1.439c0-0.522,0.057-1.05,0.132-1.578
			c0.023-0.153,0.029-0.306,0.052-0.456c0.035-0.178,0.023-0.354,0.069-0.533c0.058-0.291,0.231-0.53,0.317-0.813
			c0.144-0.45,0.317-0.883,0.513-1.307c1.604-3.545,4.857-6.146,8.815-6.631c0.127-0.018,0.266,0.031,0.392,0.02l63.468-14.2
			l-63.456-14.203c-0.138-0.012-0.265,0.037-0.404,0.02c-3.08-0.375-5.699-2.054-7.482-4.439c-0.513-0.666-0.952-1.387-1.315-2.149
			c-0.214-0.447-0.387-0.903-0.542-1.373c-0.087-0.271-0.248-0.502-0.306-0.782c-0.04-0.173-0.034-0.343-0.063-0.516
			c-0.041-0.19-0.041-0.389-0.069-0.582c-0.064-0.482-0.121-0.963-0.121-1.44c0-0.522,0.057-1.05,0.132-1.578
			c0.023-0.153,0.029-0.305,0.052-0.455c0.035-0.179,0.023-0.355,0.069-0.534c0.058-0.291,0.231-0.53,0.317-0.813
			c0.144-0.45,0.317-0.883,0.513-1.306c1.604-3.545,4.857-6.147,8.815-6.631c0.127-0.017,0.266,0.032,0.392,0.02l66.064-14.782
			V116.508c-0.057,0-0.103-0.006-0.161-0.006c-85.02,0-153.946,68.925-153.946,153.934c0,53.026,26.813,99.776,67.622,127.46
			c2.261,3.652,4.188,7.344,5.469,11.14c4.95,14.825,10.499,39.112,10.499,42.365c0,6.127,6.103,11.814,11.803,11.814
			c4.13,0,32.351,0,47.488,0c-0.207-0.9-0.34-1.817-0.334-2.763L288.898,409.243z"/>
		<polygon style="fill:#95D9A0;" points="300.274,272.622 300.274,266.815 287.294,269.72 		"/>
		<path style="fill:#01C051;" d="M453.856,262.515c-0.012-0.153-0.023-0.303-0.035-0.456c-0.138-2.469-0.311-4.924-0.565-7.358
			c-0.058-0.579-0.15-1.151-0.219-1.728c-0.219-1.999-0.45-3.997-0.75-5.97c-0.15-0.917-0.334-1.814-0.496-2.726
			c-0.277-1.624-0.531-3.251-0.865-4.855c-0.116-0.591-0.277-1.168-0.404-1.757c-0.415-1.906-0.831-3.816-1.315-5.696
			c-0.024-0.104-0.058-0.205-0.081-0.306c-0.611-2.353-1.269-4.69-1.996-6.998c-0.058-0.204-0.138-0.401-0.196-0.605
			c-0.692-2.201-1.431-4.387-2.215-6.545c-0.139-0.369-0.3-0.73-0.438-1.099c-0.738-1.978-1.5-3.951-2.319-5.889
			c-0.127-0.294-0.265-0.577-0.392-0.868c-0.865-2.005-1.742-3.995-2.688-5.953c-0.138-0.271-0.277-0.531-0.415-0.802
			c-0.958-1.964-1.938-3.914-2.988-5.829c-0.23-0.432-0.496-0.845-0.727-1.275c-0.969-1.739-1.95-3.476-2.977-5.175
			c-0.196-0.32-0.415-0.629-0.611-0.949c-1.096-1.786-2.215-3.559-3.393-5.299c-0.138-0.204-0.299-0.403-0.438-0.608
			c-1.246-1.837-2.527-3.652-3.853-5.429c-0.081-0.1-0.162-0.198-0.242-0.299c-1.402-1.869-2.844-3.713-4.332-5.515
			c-0.116-0.147-0.254-0.286-0.369-0.436c-1.454-1.745-2.942-3.467-4.465-5.146c-0.254-0.282-0.531-0.548-0.785-0.828
			c-1.408-1.529-2.838-3.043-4.303-4.514c-0.381-0.375-0.773-0.727-1.154-1.096c-1.373-1.353-2.757-2.7-4.188-3.998
			c-0.473-0.427-0.969-0.825-1.443-1.246c-1.361-1.212-2.734-2.426-4.142-3.591c-0.542-0.45-1.119-0.868-1.673-1.313
			c-1.362-1.099-2.734-2.203-4.142-3.256c-0.634-0.476-1.304-0.917-1.938-1.385c-1.362-0.978-2.7-1.967-4.084-2.902
			c-0.808-0.545-1.65-1.05-2.458-1.581c-1.257-0.813-2.503-1.644-3.784-2.423c-0.842-0.513-1.719-0.986-2.578-1.485
			c-1.287-0.747-2.561-1.512-3.871-2.224c-0.906-0.493-1.84-0.94-2.757-1.416c-1.281-0.663-2.561-1.35-3.865-1.979
			c-1.05-0.507-2.134-0.966-3.202-1.451c-1.206-0.548-2.394-1.119-3.617-1.636c-1.09-0.461-2.203-0.871-3.311-1.306
			c-1.223-0.485-2.434-0.995-3.669-1.448c-1.223-0.45-2.475-0.842-3.715-1.26c-1.142-0.387-2.273-0.802-3.433-1.163
			c-1.309-0.407-2.648-0.756-3.974-1.131c-1.108-0.315-2.204-0.655-3.323-0.943c-1.293-0.334-2.607-0.608-3.911-0.909
			c-1.183-0.271-2.354-0.571-3.542-0.816c-1.246-0.256-2.515-0.452-3.773-0.678c-1.27-0.228-2.527-0.482-3.807-0.678
			c-1.293-0.202-2.607-0.337-3.917-0.502c-1.264-0.162-2.509-0.352-3.779-0.482c-1.327-0.135-2.665-0.205-3.997-0.308
			c-1.275-0.095-2.538-0.225-3.819-0.289c-1.287-0.066-2.584-0.069-3.882-0.103c-1.316-0.035-2.631-0.104-3.958-0.104v0.006v127.149
			l47.039-10.523c1.281-0.285,2.573-0.351,3.842-0.196c4.742,0.58,8.619,4.096,9.657,8.752c1.362,6.08-2.48,12.132-8.561,13.493
			l-51.977,11.633v5.806l50.5,11.298c0.126,0.011,0.253-0.038,0.38-0.02c3.969,0.484,7.223,3.086,8.821,6.631
			c0.196,0.424,0.363,0.857,0.513,1.307c0.086,0.283,0.254,0.522,0.323,0.813c0.034,0.179,0.034,0.355,0.057,0.534
			c0.035,0.149,0.035,0.302,0.058,0.455c0.069,0.528,0.139,1.056,0.127,1.578c0.006,0.476-0.058,0.958-0.115,1.439
			c-0.023,0.194-0.035,0.392-0.07,0.583c-0.028,0.173-0.023,0.343-0.057,0.516c-0.069,0.279-0.231,0.51-0.312,0.782
			c-0.149,0.47-0.334,0.926-0.542,1.373c-0.358,0.761-0.802,1.483-1.316,2.149c-1.783,2.385-4.407,4.064-7.488,4.439
			c-0.127,0.017-0.265-0.032-0.392-0.021l-50.488,11.298v5.806l50.332,11.258c0.185,0.015,0.369-0.003,0.548,0.02
			c3.969,0.482,7.223,3.087,8.821,6.631c0.202,0.424,0.363,0.857,0.513,1.307c0.086,0.282,0.254,0.525,0.323,0.813
			c0.034,0.178,0.034,0.357,0.057,0.536c0.035,0.144,0.035,0.3,0.058,0.45c0.069,0.53,0.139,1.056,0.127,1.58
			c0.006,0.473-0.058,0.958-0.115,1.443c-0.023,0.19-0.035,0.386-0.07,0.577c-0.028,0.173-0.023,0.346-0.057,0.519
			c-0.069,0.277-0.231,0.508-0.312,0.779c-0.149,0.473-0.334,0.935-0.542,1.379c-0.364,0.761-0.808,1.482-1.316,2.146
			c-1.783,2.388-4.407,4.067-7.488,4.442c-0.196,0.023-0.392,0.006-0.588,0.023l-50.292,11.249v10.638
			c2.273,0.773,4.165,1.506,5.377,2.146c4.338,2.307,6.9,6.963,6.853,12.443l-0.173,66.75c-0.012,0.859-0.127,1.696-0.323,2.503
			c15.645,0,39.897,0,43.716,0c5.699,0,11.814-5.687,11.814-11.814c0-3.253,5.526-27.54,10.487-42.365
			c0.946-2.809,2.296-5.579,3.819-8.319c43.329-27.229,72.208-75.323,72.208-130.282
			C454.052,267.779,453.982,265.139,453.856,262.515z"/>
		<polygon style="fill:#01C051;" points="299.997,36.373 272.411,83.683 327.572,83.683 		"/>
		<polygon style="fill:#227E38;" points="180.295,67.53 180.064,122.294 227.83,94.713 		"/>
		<polygon style="fill:#01C051;" points="148.671,153.693 93.902,153.929 121.085,201.464 		"/>
		<polygon style="fill:#01C051;" points="451.329,393.552 506.086,393.315 478.898,345.775 		"/>
		<polygon style="fill:#227E38;" points="110.055,246.045 62.751,273.625 110.055,301.206 		"/>
		<polygon style="fill:#227E38;" points="489.945,301.2 537.249,273.614 489.922,246.039 		"/>
		<polygon style="fill:#01C051;" points="93.902,393.333 148.671,393.552 121.085,345.786 		"/>
		<polygon style="fill:#01C051;" points="506.086,153.906 451.306,153.693 478.91,201.458 		"/>
		<polygon style="fill:#227E38;" points="419.699,67.519 372.142,94.719 419.918,122.288 		"/>
		<path style="fill:#FFFFFF;" d="M312.504,393.962c0.047-5.48-2.515-10.136-6.853-12.443c-1.212-0.64-3.104-1.373-5.377-2.146
			c-6.103-2.083-14.987-4.43-20.964-5.942l20.964-4.696l50.292-11.249l1.685-0.38c2.654-0.594,4.846-2.089,6.392-4.085
			c0.507-0.663,0.952-1.384,1.316-2.146c0.207-0.444,0.392-0.906,0.542-1.379c0.139-0.427,0.289-0.854,0.369-1.298
			c0.035-0.19,0.047-0.386,0.07-0.577c0.057-0.484,0.121-0.969,0.115-1.443c0.012-0.525-0.058-1.05-0.127-1.58
			c-0.023-0.15-0.023-0.306-0.058-0.45c-0.023-0.179-0.023-0.358-0.057-0.536c-0.069-0.289-0.237-0.531-0.323-0.813
			c-0.15-0.45-0.311-0.883-0.513-1.307c-1.598-3.545-4.852-6.149-8.821-6.631c-0.179-0.023-0.363-0.005-0.548-0.02
			c-1.096-0.078-2.197-0.032-3.294,0.216l-47.039,10.523l-2.59,0.582l-64.951,14.532c-6.08,1.361-9.922,7.418-8.561,13.504
			c1.038,4.655,4.915,8.163,9.645,8.74c0.018,0,0.035,0,0.046,0c9.882,2.867,38.363,10.834,38.363,10.834
			c8.492,3.092,16.672,6.213,16.672,15.472l-0.185,51.21c-0.006,0.946,0.127,1.863,0.334,2.763c0.485,2.094,1.5,4.038,3.046,5.613
			c2.203,2.256,5.157,3.514,8.284,3.548h0.15c5.573,0,10.269-3.94,11.48-9.161c0.196-0.808,0.311-1.644,0.323-2.503L312.504,393.962
			z"/>
		<path style="fill:#227E38;" d="M232.733,258.768l1.477-0.329c-0.126,0.012-0.265-0.037-0.392-0.02
			c-3.957,0.484-7.211,3.087-8.815,6.631C226.44,261.984,229.186,259.564,232.733,258.768z"/>
		<path style="fill:#227E38;" d="M237.672,280.825c-1.142,0.256-2.296,0.271-3.45,0.173l63.456,14.203l2.596-0.583l47.039-10.522
			c1.154-0.257,2.308-0.277,3.462-0.176l-50.5-11.298l-12.979-2.902L237.672,280.825z"/>
		<path style="fill:#227E38;" d="M224.172,267.17c-0.046,0.179-0.034,0.355-0.069,0.534c0.092-0.461,0.242-0.903,0.386-1.347
			C224.403,266.639,224.23,266.879,224.172,267.17z"/>
		<path style="fill:#227E38;" d="M360.811,297.756c0.034-0.173,0.029-0.343,0.057-0.516c-0.08,0.444-0.23,0.868-0.369,1.298
			C360.581,298.267,360.742,298.036,360.811,297.756z"/>
		<path style="fill:#227E38;" d="M352.251,306.144l-1.489,0.334c0.127-0.011,0.265,0.038,0.392,0.021
			c3.081-0.375,5.705-2.054,7.488-4.439C357.096,304.056,354.904,305.55,352.251,306.144z"/>
		<path style="fill:#FFFFFF;" d="M232.733,258.768c-3.547,0.796-6.294,3.216-7.73,6.282c-0.196,0.424-0.369,0.857-0.513,1.306
			c-0.144,0.444-0.294,0.886-0.386,1.347c-0.023,0.15-0.029,0.302-0.052,0.455c-0.075,0.528-0.132,1.056-0.132,1.578
			c0,0.476,0.057,0.958,0.121,1.44c0.028,0.193,0.028,0.392,0.069,0.582c0.029,0.173,0.023,0.343,0.063,0.516
			c0.058,0.28,0.219,0.51,0.306,0.782c0.155,0.47,0.328,0.926,0.542,1.373c0.363,0.762,0.802,1.483,1.315,2.149
			c1.783,2.385,4.402,4.064,7.482,4.439c0.139,0.017,0.266-0.032,0.404-0.02c1.154,0.098,2.307,0.083,3.45-0.173l49.623-11.105
			l12.979-2.905l51.977-11.633c6.08-1.361,9.922-7.412,8.561-13.493c-1.038-4.655-4.915-8.171-9.657-8.752
			c-1.269-0.155-2.561-0.089-3.842,0.196l-47.039,10.523l-66.064,14.782L232.733,258.768z"/>
		<path style="fill:#227E38;" d="M224.172,318.131c-0.046,0.179-0.034,0.355-0.069,0.533c0.092-0.461,0.242-0.903,0.386-1.347
			C224.403,317.601,224.23,317.84,224.172,318.131z"/>
		<path style="fill:#227E38;" d="M232.733,309.729l1.477-0.328c-0.126,0.011-0.265-0.038-0.392-0.02
			c-3.957,0.484-7.211,3.086-8.815,6.631C226.44,312.945,229.186,310.525,232.733,309.729z"/>
		<path style="fill:#227E38;" d="M237.672,331.786c-1.085,0.242-2.181,0.291-3.277,0.211l63.289,14.165l2.59-0.582l47.039-10.523
			c1.096-0.248,2.198-0.294,3.294-0.216l-50.332-11.258l-12.974-2.902L237.672,331.786z"/>
		<path style="fill:#227E38;" d="M352.251,357.105l-1.685,0.38c0.196-0.017,0.392,0,0.588-0.023
			c3.081-0.375,5.705-2.054,7.488-4.442C357.096,355.017,354.904,356.511,352.251,357.105z"/>
		<path style="fill:#227E38;" d="M360.811,348.717c0.034-0.173,0.029-0.346,0.057-0.519c-0.08,0.444-0.23,0.871-0.369,1.298
			C360.581,349.225,360.742,348.994,360.811,348.717z"/>
		<path style="fill:#FFFFFF;" d="M347.312,284.096l-47.039,10.522l-2.596,0.583l-63.468,14.2l-1.477,0.328
			c-3.547,0.796-6.294,3.216-7.73,6.282c-0.196,0.424-0.369,0.857-0.513,1.307c-0.144,0.444-0.294,0.885-0.386,1.347
			c-0.023,0.15-0.029,0.303-0.052,0.456c-0.075,0.528-0.132,1.056-0.132,1.578c0,0.476,0.057,0.958,0.121,1.439
			c0.028,0.193,0.028,0.392,0.069,0.583c0.029,0.172,0.023,0.343,0.063,0.516c0.058,0.279,0.219,0.51,0.306,0.782
			c0.155,0.47,0.328,0.926,0.542,1.373c0.363,0.761,0.802,1.483,1.315,2.146c1.783,2.385,4.402,4.064,7.482,4.439
			c0.196,0.024,0.381,0.006,0.577,0.021c1.096,0.08,2.192,0.031,3.277-0.211l49.628-11.105l12.974-2.905l50.488-11.298l1.489-0.334
			c2.654-0.594,4.846-2.088,6.392-4.084c0.513-0.666,0.958-1.388,1.316-2.149c0.207-0.447,0.392-0.903,0.542-1.373
			c0.139-0.43,0.289-0.854,0.369-1.298c0.035-0.191,0.047-0.389,0.07-0.583c0.057-0.481,0.121-0.963,0.115-1.439
			c0.012-0.522-0.058-1.05-0.127-1.578c-0.023-0.153-0.023-0.306-0.058-0.455c-0.023-0.179-0.023-0.355-0.057-0.534
			c-0.069-0.291-0.237-0.53-0.323-0.813c-0.15-0.45-0.317-0.883-0.513-1.307c-1.598-3.545-4.852-6.146-8.821-6.631
			c-0.127-0.018-0.254,0.031-0.38,0.02C349.62,283.819,348.466,283.839,347.312,284.096z"/>
		<path style="fill:#227E38;" d="M356.923,475.786H246.336c-5.78,0-10.511,4.73-10.511,10.516v4.321
			c0,5.786,4.731,10.517,10.511,10.517h110.587c5.791,0,10.522-4.73,10.522-10.517v-4.321
			C367.445,480.516,362.715,475.786,356.923,475.786z"/>
		<path style="fill:#227E38;" d="M356.923,512.204H246.336c-5.78,0-10.511,4.73-10.511,10.517v4.315
			c0,5.786,4.731,10.516,10.511,10.516h110.587c5.791,0,10.522-4.73,10.522-10.516v-4.315
			C367.445,516.934,362.715,512.204,356.923,512.204z"/>
		<path style="fill:#227E38;" d="M331.875,550.081h-59.118c-3.092,0-5.618,2.527-5.618,5.619v2.307c0,3.092,2.526,5.619,5.618,5.619
			h59.118c3.092,0,5.619-2.526,5.619-5.619V555.7C337.494,552.609,334.967,550.081,331.875,550.081z"/>
	</g>
</g>
<g id="Layer_1">
</g>
</svg>
