<?xml version="1.0" encoding="iso-8859-1"?>
<!-- Generator: Adobe Illustrator 17.0.0, SVG Export Plug-In . SVG Version: 6.00 Build 0)  -->
<!DOCTYPE svg PUBLIC "-//W3C//DTD SVG 1.1//EN" "http://www.w3.org/Graphics/SVG/1.1/DTD/svg11.dtd">
<svg version="1.1" xmlns="http://www.w3.org/2000/svg" xmlns:xlink="http://www.w3.org/1999/xlink" x="0px" y="0px" viewBox="0 0 600 600" xml:space="preserve">
<g id="Layer_6">
	<g>
		<path style="fill:#FD9CBD;" d="M300.274,379.373v-10.638l-20.964,4.696C285.287,374.942,294.17,377.284,300.274,379.373z"/>
		<polygon style="fill:#FD9CBD;" points="300.274,323.577 300.274,317.773 287.3,320.681 		"/>
		<path style="fill:#FD9CBD;" d="M288.898,409.243c0-9.264-8.18-12.38-16.672-15.472c0,0-28.48-7.972-38.363-10.834
			c-0.011,0-0.028,0-0.046,0c-4.73-0.577-8.607-4.084-9.645-8.746c-1.361-6.08,2.48-12.138,8.561-13.499l64.951-14.538
			l-63.289-14.162c-0.196-0.018-0.381,0.005-0.577-0.018c-3.08-0.38-5.699-2.053-7.482-4.442c-0.513-0.663-0.952-1.385-1.315-2.146
			c-0.214-0.45-0.387-0.9-0.542-1.373c-0.087-0.271-0.248-0.502-0.306-0.784c-0.04-0.173-0.034-0.341-0.063-0.513
			c-0.041-0.191-0.041-0.387-0.069-0.583c-0.064-0.484-0.121-0.963-0.121-1.442c0-0.519,0.057-1.05,0.132-1.575
			c0.023-0.156,0.029-0.306,0.052-0.456c0.035-0.178,0.023-0.357,0.069-0.53c0.058-0.294,0.231-0.531,0.317-0.819
			c0.144-0.45,0.317-0.877,0.513-1.304c1.604-3.542,4.857-6.149,8.815-6.634c0.127-0.012,0.266,0.034,0.392,0.023l63.468-14.203
			l-63.456-14.203c-0.138-0.012-0.265,0.04-0.404,0.023c-3.08-0.375-5.699-2.054-7.482-4.442c-0.513-0.663-0.952-1.384-1.315-2.146
			c-0.214-0.45-0.387-0.9-0.542-1.373c-0.087-0.271-0.248-0.502-0.306-0.784c-0.04-0.173-0.034-0.34-0.063-0.513
			c-0.041-0.19-0.041-0.386-0.069-0.582c-0.064-0.485-0.121-0.963-0.121-1.443c0-0.519,0.057-1.05,0.132-1.575
			c0.023-0.155,0.029-0.305,0.052-0.455c0.035-0.179,0.023-0.358,0.069-0.531c0.058-0.294,0.231-0.53,0.317-0.819
			c0.144-0.45,0.317-0.877,0.513-1.304c1.604-3.543,4.857-6.15,8.815-6.634c0.127-0.011,0.266,0.035,0.392,0.023l66.064-14.779
			V116.502c-0.057,0-0.103,0-0.161,0c-85.02,0-153.946,68.925-153.946,153.934c0,53.026,26.813,99.776,67.622,127.455
			c2.261,3.658,4.188,7.35,5.469,11.146c4.95,14.825,10.499,39.112,10.499,42.365c0,6.126,6.103,11.814,11.803,11.814
			c4.13,0,32.351,0,47.488,0c-0.207-0.9-0.34-1.823-0.334-2.769L288.898,409.243z"/>
		<polygon style="fill:#FD9CBD;" points="300.274,272.616 300.274,266.812 287.294,269.72 		"/>
		<path style="fill:#FD609D;" d="M453.856,262.509c-0.012-0.15-0.023-0.3-0.035-0.45c-0.138-2.469-0.311-4.927-0.565-7.361
			c-0.058-0.577-0.15-1.154-0.219-1.731c-0.219-1.996-0.45-3.992-0.75-5.965c-0.15-0.923-0.334-1.817-0.496-2.729
			c-0.277-1.622-0.531-3.248-0.865-4.852c-0.116-0.594-0.277-1.171-0.404-1.76c-0.415-1.909-0.831-3.813-1.315-5.694
			c-0.024-0.103-0.058-0.207-0.081-0.311c-0.611-2.353-1.269-4.684-1.996-6.992c-0.058-0.207-0.138-0.403-0.196-0.611
			c-0.692-2.198-1.431-4.384-2.215-6.542c-0.139-0.369-0.3-0.727-0.438-1.096c-0.738-1.984-1.5-3.957-2.319-5.895
			c-0.127-0.288-0.265-0.577-0.392-0.865c-0.865-2.007-1.742-3.992-2.688-5.953c-0.138-0.271-0.277-0.531-0.415-0.802
			c-0.958-1.967-1.938-3.916-2.988-5.832c-0.23-0.426-0.496-0.842-0.727-1.269c-0.969-1.742-1.95-3.479-2.977-5.181
			c-0.196-0.317-0.415-0.623-0.611-0.946c-1.096-1.788-2.215-3.559-3.393-5.296c-0.138-0.207-0.299-0.404-0.438-0.611
			c-1.246-1.835-2.527-3.652-3.853-5.429c-0.081-0.098-0.162-0.201-0.242-0.299c-1.402-1.869-2.844-3.71-4.332-5.515
			c-0.116-0.144-0.254-0.283-0.369-0.433c-1.454-1.748-2.942-3.473-4.465-5.146c-0.254-0.288-0.531-0.553-0.785-0.831
			c-1.408-1.529-2.838-3.046-4.303-4.511c-0.381-0.38-0.773-0.727-1.154-1.096c-1.373-1.356-2.757-2.7-4.188-4.003
			c-0.473-0.427-0.969-0.819-1.443-1.246c-1.361-1.212-2.734-2.423-4.142-3.588c-0.542-0.45-1.119-0.865-1.673-1.316
			c-1.362-1.096-2.734-2.203-4.142-3.253c-0.634-0.473-1.304-0.917-1.938-1.385c-1.362-0.981-2.7-1.967-4.084-2.902
			c-0.808-0.548-1.65-1.05-2.458-1.581c-1.257-0.813-2.503-1.644-3.784-2.423c-0.842-0.513-1.719-0.986-2.578-1.482
			c-1.287-0.75-2.561-1.512-3.871-2.227c-0.906-0.496-1.84-0.94-2.757-1.419c-1.281-0.658-2.561-1.35-3.865-1.973
			c-1.05-0.507-2.134-0.969-3.202-1.454c-1.206-0.548-2.394-1.119-3.617-1.638c-1.09-0.462-2.203-0.865-3.311-1.304
			c-1.223-0.485-2.434-0.992-3.669-1.448c-1.223-0.45-2.475-0.842-3.715-1.263c-1.142-0.381-2.273-0.796-3.433-1.16
			c-1.309-0.41-2.648-0.756-3.974-1.131c-1.108-0.317-2.204-0.652-3.323-0.94c-1.293-0.334-2.607-0.611-3.911-0.911
			c-1.183-0.271-2.354-0.571-3.542-0.819c-1.246-0.253-2.515-0.45-3.773-0.675c-1.27-0.225-2.527-0.479-3.807-0.675
			c-1.293-0.207-2.607-0.34-3.917-0.507c-1.264-0.162-2.509-0.346-3.779-0.479c-1.327-0.132-2.665-0.202-3.997-0.305
			c-1.275-0.098-2.538-0.231-3.819-0.289c-1.287-0.069-2.584-0.069-3.882-0.103c-1.316-0.035-2.631-0.104-3.958-0.104l0,0v127.155
			l47.039-10.523c1.281-0.288,2.573-0.357,3.842-0.196c4.742,0.577,8.619,4.096,9.657,8.746c1.362,6.08-2.48,12.138-8.561,13.499
			l-51.977,11.63v5.803l50.5,11.301c0.126,0.011,0.253-0.04,0.38-0.017c3.969,0.484,7.223,3.08,8.821,6.628
			c0.196,0.421,0.363,0.859,0.513,1.31c0.086,0.277,0.254,0.519,0.323,0.807c0.034,0.185,0.034,0.358,0.057,0.537
			c0.035,0.149,0.035,0.305,0.058,0.455c0.069,0.53,0.139,1.056,0.127,1.581c0.006,0.473-0.058,0.958-0.115,1.436
			c-0.023,0.191-0.035,0.392-0.07,0.583c-0.028,0.173-0.023,0.346-0.057,0.519c-0.069,0.276-0.231,0.507-0.312,0.779
			c-0.149,0.467-0.334,0.929-0.542,1.373c-0.358,0.761-0.802,1.483-1.316,2.152c-1.783,2.382-4.407,4.061-7.488,4.436
			c-0.127,0.017-0.265-0.029-0.392-0.018l-50.488,11.295v5.804l50.332,11.26c0.185,0.012,0.369,0,0.548,0.023
			c3.969,0.479,7.223,3.081,8.821,6.628c0.202,0.421,0.363,0.859,0.513,1.31c0.086,0.276,0.254,0.519,0.323,0.807
			c0.034,0.184,0.034,0.357,0.057,0.542c0.035,0.138,0.035,0.3,0.058,0.45c0.069,0.53,0.139,1.05,0.127,1.58
			c0.006,0.473-0.058,0.958-0.115,1.443c-0.023,0.184-0.035,0.38-0.07,0.577c-0.028,0.173-0.023,0.346-0.057,0.519
			c-0.069,0.277-0.231,0.508-0.312,0.773c-0.149,0.473-0.334,0.935-0.542,1.385c-0.364,0.761-0.808,1.477-1.316,2.146
			c-1.783,2.388-4.407,4.061-7.488,4.442c-0.196,0.023-0.392,0-0.588,0.023l-50.292,11.249v10.638
			c2.273,0.773,4.165,1.5,5.377,2.146c4.338,2.307,6.9,6.957,6.853,12.437l-0.173,66.756c-0.012,0.854-0.127,1.696-0.323,2.503
			c15.645,0,39.897,0,43.716,0c5.699,0,11.814-5.688,11.814-11.814c0-3.253,5.526-27.54,10.487-42.365
			c0.946-2.815,2.296-5.585,3.819-8.319c43.329-27.229,72.208-75.329,72.208-130.282
			C454.052,267.776,453.982,265.139,453.856,262.509z"/>
		<polygon style="fill:#FD609D;" points="299.997,36.373 272.411,83.677 327.572,83.677 		"/>
		<polygon style="fill:#B4237D;" points="180.295,67.525 180.064,122.293 227.83,94.707 		"/>
		<polygon style="fill:#FD609D;" points="148.671,153.687 93.902,153.929 121.085,201.464 		"/>
		<polygon style="fill:#FD609D;" points="451.329,393.552 506.086,393.309 478.898,345.775 		"/>
		<polygon style="fill:#B4237D;" points="110.055,246.045 62.751,273.619 110.055,301.206 		"/>
		<polygon style="fill:#B4237D;" points="489.945,301.194 537.249,273.608 489.922,246.033 		"/>
		<polygon style="fill:#FD609D;" points="93.902,393.333 148.671,393.552 121.085,345.786 		"/>
		<polygon style="fill:#FD609D;" points="506.086,153.906 451.306,153.687 478.91,201.452 		"/>
		<polygon style="fill:#B4237D;" points="419.699,67.513 372.142,94.719 419.918,122.282 		"/>
		<path style="fill:#FFFFFF;" d="M312.504,393.956c0.047-5.48-2.515-10.13-6.853-12.437c-1.212-0.646-3.104-1.373-5.377-2.146
			c-6.103-2.088-14.987-4.43-20.964-5.942l20.964-4.696l50.292-11.249l1.685-0.381c2.654-0.6,4.846-2.088,6.392-4.084
			c0.507-0.669,0.952-1.384,1.316-2.146c0.207-0.45,0.392-0.911,0.542-1.385c0.139-0.427,0.289-0.854,0.369-1.293
			c0.035-0.196,0.047-0.392,0.07-0.577c0.057-0.485,0.121-0.969,0.115-1.443c0.012-0.53-0.058-1.05-0.127-1.58
			c-0.023-0.15-0.023-0.312-0.058-0.45c-0.023-0.185-0.023-0.358-0.057-0.542c-0.069-0.288-0.237-0.531-0.323-0.807
			c-0.15-0.45-0.311-0.888-0.513-1.31c-1.598-3.548-4.852-6.149-8.821-6.628c-0.179-0.023-0.363-0.011-0.548-0.023
			c-1.096-0.081-2.197-0.034-3.294,0.219l-47.039,10.523l-2.59,0.577l-64.951,14.538c-6.08,1.361-9.922,7.418-8.561,13.499
			c1.038,4.661,4.915,8.168,9.645,8.746c0.018,0,0.035,0,0.046,0c9.882,2.861,38.363,10.834,38.363,10.834
			c8.492,3.092,16.672,6.207,16.672,15.472l-0.185,51.204c-0.006,0.946,0.127,1.869,0.334,2.769c0.485,2.088,1.5,4.038,3.046,5.608
			c2.203,2.261,5.157,3.519,8.284,3.553h0.15c5.573,0,10.269-3.946,11.48-9.161c0.196-0.808,0.311-1.65,0.323-2.503L312.504,393.956
			z"/>
		<path style="fill:#B4237D;" d="M232.733,258.765l1.477-0.329c-0.126,0.012-0.265-0.034-0.392-0.023
			c-3.957,0.484-7.211,3.092-8.815,6.634C226.44,261.978,229.186,259.561,232.733,258.765z"/>
		<path style="fill:#B4237D;" d="M237.672,280.819c-1.142,0.259-2.296,0.277-3.45,0.173l63.456,14.203l2.596-0.577l47.039-10.522
			c1.154-0.26,2.308-0.277,3.462-0.179l-50.5-11.301l-12.979-2.896L237.672,280.819z"/>
		<path style="fill:#B4237D;" d="M224.172,267.17c-0.046,0.173-0.034,0.352-0.069,0.531c0.092-0.461,0.242-0.9,0.386-1.35
			C224.403,266.639,224.23,266.876,224.172,267.17z"/>
		<path style="fill:#B4237D;" d="M360.811,297.756c0.034-0.173,0.029-0.346,0.057-0.519c-0.08,0.444-0.23,0.865-0.369,1.298
			C360.581,298.264,360.742,298.033,360.811,297.756z"/>
		<path style="fill:#B4237D;" d="M352.251,306.144l-1.489,0.334c0.127-0.011,0.265,0.035,0.392,0.018
			c3.081-0.375,5.705-2.054,7.488-4.436C357.096,304.056,354.904,305.544,352.251,306.144z"/>
		<path style="fill:#FFFFFF;" d="M232.733,258.765c-3.547,0.796-6.294,3.213-7.73,6.282c-0.196,0.426-0.369,0.854-0.513,1.304
			c-0.144,0.45-0.294,0.888-0.386,1.35c-0.023,0.15-0.029,0.3-0.052,0.455c-0.075,0.525-0.132,1.056-0.132,1.575
			c0,0.479,0.057,0.958,0.121,1.443c0.028,0.196,0.028,0.392,0.069,0.582c0.029,0.173,0.023,0.34,0.063,0.513
			c0.058,0.283,0.219,0.513,0.306,0.784c0.155,0.473,0.328,0.923,0.542,1.373c0.363,0.762,0.802,1.483,1.315,2.146
			c1.783,2.388,4.402,4.067,7.482,4.442c0.139,0.017,0.266-0.035,0.404-0.023c1.154,0.104,2.307,0.086,3.45-0.173l49.623-11.099
			l12.979-2.908l51.977-11.63c6.08-1.361,9.922-7.418,8.561-13.499c-1.038-4.65-4.915-8.168-9.657-8.746
			c-1.269-0.161-2.561-0.092-3.842,0.196l-47.039,10.523l-66.064,14.779L232.733,258.765z"/>
		<path style="fill:#B4237D;" d="M224.172,318.131c-0.046,0.173-0.034,0.352-0.069,0.53c0.092-0.461,0.242-0.9,0.386-1.35
			C224.403,317.6,224.23,317.837,224.172,318.131z"/>
		<path style="fill:#B4237D;" d="M232.733,309.726l1.477-0.328c-0.126,0.011-0.265-0.035-0.392-0.023
			c-3.957,0.484-7.211,3.092-8.815,6.634C226.44,312.939,229.186,310.522,232.733,309.726z"/>
		<path style="fill:#B4237D;" d="M237.672,331.78c-1.085,0.242-2.181,0.294-3.277,0.214l63.289,14.162l2.59-0.577l47.039-10.523
			c1.096-0.253,2.198-0.3,3.294-0.219l-50.332-11.26l-12.974-2.896L237.672,331.78z"/>
		<path style="fill:#B4237D;" d="M352.251,357.105l-1.685,0.381c0.196-0.023,0.392,0,0.588-0.023
			c3.081-0.381,5.705-2.054,7.488-4.442C357.096,355.017,354.904,356.505,352.251,357.105z"/>
		<path style="fill:#B4237D;" d="M360.811,348.717c0.034-0.173,0.029-0.346,0.057-0.519c-0.08,0.438-0.23,0.865-0.369,1.293
			C360.581,349.225,360.742,348.994,360.811,348.717z"/>
		<path style="fill:#FFFFFF;" d="M347.312,284.096l-47.039,10.522l-2.596,0.577l-63.468,14.203l-1.477,0.328
			c-3.547,0.796-6.294,3.214-7.73,6.282c-0.196,0.427-0.369,0.854-0.513,1.304c-0.144,0.45-0.294,0.888-0.386,1.35
			c-0.023,0.15-0.029,0.3-0.052,0.456c-0.075,0.525-0.132,1.056-0.132,1.575c0,0.478,0.057,0.958,0.121,1.442
			c0.028,0.196,0.028,0.392,0.069,0.583c0.029,0.172,0.023,0.34,0.063,0.513c0.058,0.282,0.219,0.513,0.306,0.784
			c0.155,0.473,0.328,0.923,0.542,1.373c0.363,0.761,0.802,1.483,1.315,2.146c1.783,2.388,4.402,4.061,7.482,4.442
			c0.196,0.023,0.381,0,0.577,0.018c1.096,0.08,2.192,0.028,3.277-0.214l49.628-11.099l12.974-2.908l50.488-11.295l1.489-0.334
			c2.654-0.6,4.846-2.088,6.392-4.084c0.513-0.669,0.958-1.391,1.316-2.152c0.207-0.444,0.392-0.906,0.542-1.373
			c0.139-0.432,0.289-0.854,0.369-1.298c0.035-0.191,0.047-0.392,0.07-0.583c0.057-0.478,0.121-0.963,0.115-1.436
			c0.012-0.525-0.058-1.05-0.127-1.581c-0.023-0.15-0.023-0.306-0.058-0.455c-0.023-0.179-0.023-0.352-0.057-0.537
			c-0.069-0.288-0.237-0.53-0.323-0.807c-0.15-0.45-0.317-0.888-0.513-1.31c-1.598-3.548-4.852-6.143-8.821-6.628
			c-0.127-0.023-0.254,0.028-0.38,0.017C349.62,283.819,348.466,283.836,347.312,284.096z"/>
		<path style="fill:#B4237D;" d="M356.923,475.78H246.336c-5.78,0-10.511,4.73-10.511,10.522v4.315
			c0,5.792,4.731,10.523,10.511,10.523h110.587c5.791,0,10.522-4.73,10.522-10.523v-4.315
			C367.445,480.51,362.715,475.78,356.923,475.78z"/>
		<path style="fill:#B4237D;" d="M356.923,512.204H246.336c-5.78,0-10.511,4.73-10.511,10.511v4.315
			c0,5.791,4.731,10.522,10.511,10.522h110.587c5.791,0,10.522-4.73,10.522-10.522v-4.315
			C367.445,516.934,362.715,512.204,356.923,512.204z"/>
		<path style="fill:#B4237D;" d="M331.875,550.081h-59.118c-3.092,0-5.618,2.527-5.618,5.619v2.307c0,3.092,2.526,5.619,5.618,5.619
			h59.118c3.092,0,5.619-2.527,5.619-5.619V555.7C337.494,552.608,334.967,550.081,331.875,550.081z"/>
	</g>
</g>
<g id="Layer_1">
</g>
</svg>
