<svg xmlns="http://www.w3.org/2000/svg" viewBox="0 0 593.7 563.1" enable-background="new 0 0 593.7 563.1"><path fill="#AAEEAB" d="M525.4 314.3c0-.2-.1-.5-.1-.8l-.2-1.8c-12.5-112.1-107.5-199.1-222.8-199.1-123.8.1-224.2 100.4-224.2 224.3 0 8.3.5 16.5 1.4 24.6 0 .2 0 .4.1.6.1.7.1 1.3.2 1.9 12.5 112 107.6 199 222.7 199 123.9 0 224.3-100.3 224.3-224.2 0-8.3-.5-16.4-1.4-24.5z"/><path fill="#74DDA0" d="M416 143.6c-9.1-5.4-18.6-10.1-28.4-14.2l-1.2-.5-3.9-1.5-2.4-.9-2.1-.8c-19.4-7-40.1-11.3-61.6-12.6v58.5h99.6v-28z"/><circle fill="#F3F3F3" cx="359.9" cy="99.5" r="20.2"/><path fill="#00C051" d="M354.3 122.2c-8.4-.4-13.7-8.6-13.9-16.5v-.3c-6.9.9-12.2 6.8-12.2 14 0 7.8 6.3 14.1 14.1 14.1 6.9 0 12.6-5 13.8-11.5-.6.2-1.2.3-1.8.2zM362.9 137.3c0 7.8-6.3 14.1-14.1 14.1s-14.1-6.3-14.1-14.1 6.3-14.1 14.1-14.1c7.7.1 14.1 6.4 14.1 14.1zM388 135.8c0 7.8-6.3 14.1-14.1 14.1s-14.1-6.3-14.1-14.1 6.3-14.1 14.1-14.1 14.1 6.3 14.1 14.1zM381.6 102.6c.1 1.8-.6 3.7-1.8 5.2.7-.8-.6.9-.6.8-.3.4-.5.7-.7 1.1l-1.8 2.7c-1.4 1.9-2.8 3.9-4.7 5.4-2.1 1.8-4.8 2.3-7.2 1.3 1.3 6.4 7 11.3 13.8 11.3 7.8 0 14.1-6.3 14.1-14.1 0-6.7-4.8-12.4-11.1-13.7zM359.4 69.9c-17.1 0-30.9 13.8-30.9 30.9 0 17.1 13.8 30.9 30.9 30.9 17.1 0 30.9-13.8 30.9-30.9 0-17.1-13.8-30.9-30.9-30.9m0 46.7c-8.8 0-15.8-7.1-15.8-15.8 0-8.7 7.1-15.8 15.8-15.8 8.7 0 15.8 7.1 15.8 15.8 0 8.7-7.1 15.8-15.8 15.8"/><path fill="#F3F3F3" d="M359.4 134.3c-7.1 0-12.9 5.8-12.9 12.9v24.3h25.8v-24.3c0-7.1-5.8-12.9-12.9-12.9"/><path fill="#AAEEAB" d="M352 136.7l7.8 10.7 6.6-11c-2-1.3-4.4-2-6.9-2-2.9-.1-5.4.8-7.5 2.3z"/><path fill="#00C051" d="M366.3 80.7s2.7 18.8-11.1 18.8c-10.1 0-18.3-.2-18.3-.2l5.7-17 9-3.2 14.7 1.6zM329.4 133.5c.8 4.1-1.9 8.1-6 8.9-4.1.8-8.1-1.9-8.9-6-.8-4.1 1.9-8.1 6-8.9 4.1-.7 8.1 1.9 8.9 6z"/><path fill="#F3F3F3" d="M337.5 157.9c-.7 0-1.5 0-2.2-.1-9.7-1-14-9.8-15-14.7l6.4-1.3c.1.4 1.8 8.7 9.3 9.5 9.6 1 11.8-7.7 11.9-8.1l6.3 1.5c-1.2 4.8-6.1 13.2-16.7 13.2z"/><circle fill="#FFAAC9" cx="359.8" cy="160.5" r="1.3"/><circle fill="#FFAAC9" cx="359.8" cy="153.7" r="1.3"/><path fill="#00C051" d="M351 146h1.8v5.8h-1.8z"/><path fill="#009544" d="M354.2 147h1.2v4.7h-1.2z"/><path fill="#AAEEAB" d="M349.6 151.7h6.9v1.4h-6.9z"/><path fill="#009544" d="M359.8 147.4l6.4-4.3.1-6.8zM359.8 147.4l-6.5-4.3-1.3-6.4z"/><circle fill="#F3F3F3" cx="391.7" cy="128.1" r="12.7"/><circle fill="#009544" cx="391.7" cy="108.9" r="5.7"/><path fill="#009544" d="M388.8 112.2c0 3.1-2.5 5.7-5.7 5.7-3.1 0-5.7-2.5-5.7-5.7 0-3.1 2.5-5.7 5.7-5.7 3.2.1 5.7 2.6 5.7 5.7z"/><circle fill="#009544" cx="376.9" cy="119" r="5.7"/><path fill="#009544" d="M381.4 126.8c0 3.1-2.5 5.7-5.7 5.7-3.1 0-5.7-2.5-5.7-5.7 0-3.1 2.5-5.7 5.7-5.7 3.1 0 5.7 2.5 5.7 5.7zM394.2 112.2c0 3.1 2.5 5.7 5.7 5.7 3.1 0 5.7-2.5 5.7-5.7 0-3.1-2.5-5.7-5.7-5.7-3.2.1-5.7 2.6-5.7 5.7z"/><circle fill="#009544" cx="406.1" cy="119" r="5.7"/><circle fill="#009544" cx="407.3" cy="126.8" r="5.7"/><path fill="#009544" d="M391.5 109.5c-10.7 0-19.4 8.7-19.4 19.3s8.7 19.4 19.4 19.4 19.3-8.7 19.3-19.4-8.7-19.3-19.3-19.3m0 29.3c-5.5 0-9.9-4.4-9.9-9.9s4.4-9.9 9.9-9.9 9.9 4.4 9.9 9.9c0 5.4-4.5 9.9-9.9 9.9"/><path fill="#064831" d="M391.5 149.9c-4.1 0-7.5 3.4-7.5 7.5v18.3h15v-18.3c0-4.2-3.4-7.5-7.5-7.5"/><path fill="#00C051" d="M408.4 152.6c.8 4.1-1.9 8.1-6 8.9-4.1.8-8.1-1.9-8.9-6-.8-4.1 1.9-8.1 6-8.9 4.1-.8 8.1 1.9 8.9 6z"/><path fill="#74DDA0" d="M243.9 147.4h-24.1v24.1h24.1v-24.1zm-48.1 24v24.1h24.1v-24.1h-24.1zm-13.3-24c-3.6 2.3-7.2 4.7-10.7 7.2v16.9h24.1v-24.1h-13.4zm85.6 48.1v24.1h20.7c1.1-.1 2.2-.2 3.4-.3v-23.7h-24.1zm-96.3 24h24.1v-24.1h-24.1v24.1zm48.1-91.2c-8.3 3.3-16.3 7-24.1 11.2v7.8h24.1v-19zm24.1 19.1h24v-24.1h-24v24.1zm-.1 48.1h24.1v-24.1h-24.1v24.1zm48.4-48.1h-24.1v24.1h24.1v-24.1zm-.2 48.1h24.1v-24.1h-24.1v24.1zm-48.2-75.1c-3.4.9-6.7 1.9-10 2.9h10v-2.9zm-24 99.1h24.1v-24.1h-24.1v24.1z"/><path fill="#F3F3F3" d="M351.4 230.8c0 1.2 1 2.2 2.2 2.2 1.2 0 2.2-1 2.2-2.2 0-1.2-1-2.2-2.2-2.2-1.2-.1-2.2.9-2.2 2.2zm-15.4-31.8c-.1.2-.1.5-.1.7 0 1.2 1 2.2 2.2 2.2 1.2 0 2.2-1 2.2-2.2 0-1.1-.9-2-2-2.2-.7.5-1.5 1-2.3 1.5zm-7.9 24c0 1.2 1 2.2 2.2 2.2 1.2 0 2.2-1 2.2-2.2 0-1.2-1-2.2-2.2-2.2-1.2 0-2.2 1-2.2 2.2zm124.2 15.5c0 1.2 1 2.2 2.2 2.2 1.2 0 2.2-1 2.2-2.2 0-1.2-1-2.2-2.2-2.2-1.2 0-2.2 1-2.2 2.2zm-124.2 0c0 1.2 1 2.2 2.2 2.2 1.2 0 2.2-1 2.2-2.2 0-1.2-1-2.2-2.2-2.2-1.2 0-2.2 1-2.2 2.2zm0-31c0 1.2 1 2.2 2.2 2.2 1.2 0 2.2-1 2.2-2.2 0-1.2-1-2.2-2.2-2.2-1.2 0-2.2 1-2.2 2.2zm7.8 23.3c0 1.2 1 2.2 2.2 2.2 1.2 0 2.2-1 2.2-2.2 0-1.2-1-2.2-2.2-2.2-1.2-.1-2.2.9-2.2 2.2zm7.8-23.3c0 1.2 1 2.2 2.2 2.2 1.2 0 2.2-1 2.2-2.2 0-1.2-1-2.2-2.2-2.2-1.2 0-2.2 1-2.2 2.2zm7.7 7.8c0 1.2 1 2.2 2.2 2.2 1.2 0 2.2-1 2.2-2.2 0-1.2-1-2.2-2.2-2.2-1.2-.1-2.2.9-2.2 2.2zm-5.5-21.1c.6 0 1.1-.2 1.5-.6l-1.7.6h.2zm-2.2 28.8c0 1.2 1 2.2 2.2 2.2 1.2 0 2.2-1 2.2-2.2 0-1.2-1-2.2-2.2-2.2-1.2 0-2.2 1-2.2 2.2zm0 15.5c0 1.2 1 2.2 2.2 2.2 1.2 0 2.2-1 2.2-2.2 0-1.2-1-2.2-2.2-2.2-1.2 0-2.2 1-2.2 2.2zm-7.8-23.2c0 1.2 1 2.2 2.2 2.2 1.2 0 2.2-1 2.2-2.2 0-1.2-1-2.2-2.2-2.2-1.2-.1-2.2.9-2.2 2.2zm77.6 15.5c0 1.2 1 2.2 2.2 2.2 1.2 0 2.2-1 2.2-2.2 0-1.2-1-2.2-2.2-2.2-1.2-.1-2.2.9-2.2 2.2zm31 0c0 1.2 1 2.2 2.2 2.2 1.2 0 2.2-1 2.2-2.2 0-1.2-1-2.2-2.2-2.2-1.2-.1-2.2.9-2.2 2.2zm-38.8-7.8c0 1.2 1 2.2 2.2 2.2 1.2 0 2.2-1 2.2-2.2 0-1.2-1-2.2-2.2-2.2-1.2 0-2.2 1-2.2 2.2zm15.5 0c0 1.2 1 2.2 2.2 2.2 1.2 0 2.2-1 2.2-2.2 0-1.2-1-2.2-2.2-2.2-1.2 0-2.2 1-2.2 2.2zm-15.5 15.5c0 1.2 1 2.2 2.2 2.2 1.2 0 2.2-1 2.2-2.2 0-1.2-1-2.2-2.2-2.2-1.2 0-2.2 1-2.2 2.2zm12.2-23.2l-.1-.6c-1.5.2-2.9.5-4.3.9.1 1.1 1 1.9 2.2 1.9 1.2 0 2.2-1 2.2-2.2zm18.9 23.2c0 1.2 1 2.2 2.2 2.2 1.2 0 2.2-1 2.2-2.2 0-1.2-1-2.2-2.2-2.2-1.3 0-2.2 1-2.2 2.2zm0-15.5c0 1.2 1 2.2 2.2 2.2 1.2 0 2.2-1 2.2-2.2 0-1.2-1-2.2-2.2-2.2-1.3 0-2.2 1-2.2 2.2zm-15.6 15.5c0 1.2 1 2.2 2.2 2.2 1.2 0 2.2-1 2.2-2.2 0-1.2-1-2.2-2.2-2.2-1.2 0-2.2 1-2.2 2.2zm7.8-7.7c0 1.2 1 2.2 2.2 2.2 1.2 0 2.2-1 2.2-2.2 0-1.2-1-2.2-2.2-2.2-1.2-.1-2.2.9-2.2 2.2zm.1-16.3c-.1.2-.2.5-.2.8 0 1.2 1 2.2 2.2 2.2 1.2 0 2.2-1 2.2-2.2-1.3-.4-2.7-.6-4.2-.8zm-38.9-7c0 1.2 1 2.2 2.2 2.2 1.2 0 2.2-1 2.2-2.2 0-1.2-1-2.2-2.2-2.2-1.2 0-2.2 1-2.2 2.2zm7.8 7.8c0 1.2 1 2.2 2.2 2.2.5 0 1-.2 1.4-.5-.5-1.4-1.1-2.6-1.7-3.9-1.1.1-1.9 1-1.9 2.2zm-7.8 7.7c0 1.2 1 2.2 2.2 2.2 1.2 0 2.2-1 2.2-2.2 0-1.2-1-2.2-2.2-2.2-1.2 0-2.2 1-2.2 2.2zm-7.8-23.2c0 1.2 1 2.2 2.2 2.2 1.2 0 2.2-1 2.2-2.2 0-.6-.2-1.1-.6-1.5l-1.1-.6c-.2-.1-.4-.1-.6-.1-1-.1-2.1.9-2.1 2.2zm0 15.5c0 1.2 1 2.2 2.2 2.2 1.2 0 2.2-1 2.2-2.2 0-1.2-1-2.2-2.2-2.2-1.1-.1-2.2.9-2.2 2.2zm0 15.5c0 1.2 1 2.2 2.2 2.2 1.2 0 2.2-1 2.2-2.2 0-1.2-1-2.2-2.2-2.2-1.1-.1-2.2.9-2.2 2.2zm7.8 7.7c0 1.2 1 2.2 2.2 2.2 1.2 0 2.2-1 2.2-2.2 0-1.2-1-2.2-2.2-2.2-1.2 0-2.2 1-2.2 2.2zm-73.1-15.5c0-.6-.2-1.1-.6-1.5l-1.8 3.7h.2c1.2.1 2.2-.9 2.2-2.2zm-4.5 15.5c0 1.2 1 2.2 2.2 2.2 1.2 0 2.2-1 2.2-2.2 0-1.2-1-2.2-2.2-2.2-1.2 0-2.2 1-2.2 2.2zm7.9-23.8c0 .2-.1.4-.1.5 0 1.2 1 2.2 2.2 2.2 1.2 0 2.2-1 2.2-2.2 0-1.2-1-2.2-2.2-2.2-.5 0-.9.2-1.3.5-.2.4-.5.8-.8 1.2zm77.5 16.1c0 1.2 1 2.2 2.2 2.2 1.2 0 2.2-1 2.2-2.2 0-1.2-1-2.2-2.2-2.2-1.2-.1-2.2.9-2.2 2.2zm-77.6 0c0 1.2 1 2.2 2.2 2.2 1.2 0 2.2-1 2.2-2.2 0-1.2-1-2.2-2.2-2.2-1.2-.1-2.2.9-2.2 2.2zm31-31c0 1.2 1 2.2 2.2 2.2 1.2 0 2.2-1 2.2-2.2 0-1.2-1-2.2-2.2-2.2-1.2-.1-2.2.9-2.2 2.2zm7.8 38.7c0 1.2 1 2.2 2.2 2.2 1.2 0 2.2-1 2.2-2.2 0-1.2-1-2.2-2.2-2.2-1.2 0-2.2 1-2.2 2.2zm7.7-23.2c0 1.2 1 2.2 2.2 2.2 1.2 0 2.2-1 2.2-2.2 0-1.2-1-2.2-2.2-2.2-1.2-.1-2.2.9-2.2 2.2zm-7.7-7.8c0 1.2 1 2.2 2.2 2.2 1.2 0 2.2-1 2.2-2.2 0-1.2-1-2.2-2.2-2.2-1.2 0-2.2 1-2.2 2.2zm0 15.5c0 1.2 1 2.2 2.2 2.2 1.2 0 2.2-1 2.2-2.2 0-1.2-1-2.2-2.2-2.2-1.2 0-2.2 1-2.2 2.2zm0-31.4c0 .1-.1.2-.1.4 0 1.2 1 2.2 2.2 2.2 1.2 0 2.2-1 2.2-2.2 0-.1 0-.2-.1-.3l-2.7-.1h-1.5zm15.5 31.4c0 1.2 1 2.2 2.2 2.2 1.2 0 2.2-1 2.2-2.2 0-1.2-1-2.2-2.2-2.2-1.2 0-2.2 1-2.2 2.2zm0-15.5c0 1.2 1 2.2 2.2 2.2 1.2 0 2.2-1 2.2-2.2 0-1.2-1-2.2-2.2-2.2-1.2 0-2.2 1-2.2 2.2zm-7.8 23.3c0 1.2 1 2.2 2.2 2.2 1.2 0 2.2-1 2.2-2.2 0-1.2-1-2.2-2.2-2.2-1.2-.1-2.2.9-2.2 2.2zm7.8 7.7c0 1.2 1 2.2 2.2 2.2 1.2 0 2.2-1 2.2-2.2 0-1.2-1-2.2-2.2-2.2-1.2 0-2.2 1-2.2 2.2zm2.2-44.3l.5-.1-2.1-.7c.4.5 1 .8 1.6.8zm-10 5.6c0 1.2 1 2.2 2.2 2.2 1.2 0 2.2-1 2.2-2.2 0-1.2-1-2.2-2.2-2.2-1.2-.1-2.2.9-2.2 2.2z"/><path fill="#009544" d="M306.9 267v-63.8c-2.1 2.9-5.1 4.7-8.2 4.7-3.3 0-6.4-2-8.5-5.1-2.2 3.2-5.2 5.1-8.5 5.1s-6.4-2-8.5-5.1c-2.2 3.2-5.2 5.1-8.5 5.1s-6.3-2-8.5-5.1c-2.2 3.2-5.2 5.1-8.5 5.1s-6.4-2-8.5-5.1c-2.2 3.2-5.2 5.1-8.5 5.1s-6.4-2-8.5-5.1c-2.2 3.2-5.2 5.1-8.5 5.1s-6.4-2-8.5-5.1c-2.2 3.2-5.2 5.1-8.5 5.1s-6.4-2-8.5-5.1c-1.6 2.4-3.8 4.1-6.1 4.8v59.4h124.8z"/><path fill="#74DDA0" d="M457 174.5c-6.5 3-12.7 6.8-18.4 11.1l-2.5 1.9c2.7 4.1 2.5 9.6 1 14.2-1.5 4.8-3.9 8.5-8.6 10.6-6.7 3-16.3 3.4-23.2-.4-13 13.8-23.4 21.4-47 21.4-37 0-45.3-22.3-68.7-22.3-34.8 0-38.9 24.9-63.1 28.8-13 2.1-26.1 2.3-38.6 4.2-14.4 2.1-27.5 3.9-42.7 4.1-7 .1-13.8.6-20.6 1.3.2 1.5.3 3.1.3 4.7.1 1.9.1 3.7 0 5.6v.9h-.1c-.7 8.4-3.1 16.9-1.8 25.4 1 6.9 2.6 13.6 4.1 20.4 1.2 5.3 1.9 10.7 3.1 16.1.8 1.8 1.3 3.6 1.7 5.5.8 1.7 2 3.2 3.6 4.3 1.6 1.1 3.4 2 5.1 2.9 3.6 2 5.6 5.2 7 9 2.2 5.9 3.6 12.1 4.2 18.4l.3 4.5c15.9 7 34.4 10.8 50.6 14.8 26.1 6.3 54.7 12.9 81.5 14.9 32.6 2.4 65.6-2.1 97.6-8.1 32.8-6.2 64.1-17.2 95.6-27.8 16.8-5.7 33.4-10.1 49.2-17 .1-2.3.1-4.6.1-6.9-.1-64-26.9-121.7-69.7-162.5z"/><path fill="#22C968" d="M195.4 282.3c-10.3 0-18.8 9-18.8 20v38.1c0 10.6 7.8 19.3 17.5 20v23.4c0 .9.7 1.6 1.6 1.6.9 0 1.6-.7 1.6-1.6v-23.4c9.4-1 16.9-9.6 16.9-19.9v-38.1c-.1-11.1-8.5-20.1-18.8-20.1zM159.9 312.7c-10.3 0-18.8 9-18.8 20v38.1c0 10.6 7.8 19.3 17.5 20v23.4c0 .9.7 1.6 1.6 1.6.9 0 1.6-.7 1.6-1.6v-23.4c9.4-1 16.9-9.6 16.9-19.9v-38.1c0-11.1-8.5-20.1-18.8-20.1z"/><path fill="#00C051" d="M514.5 329.6c2.5-3.4 5.7-6 9.7-7.4.5-.2 1.2-.4 1.8-.7-.9-13.7-3.1-27-6.3-39.8h-60.5v68.9h46.8c-.1-7.5 4.3-15.5 8.5-21z"/><path fill="#F3F3F3" d="M489.8 281.7c0 1.2 1 2.2 2.2 2.2 1.2 0 2.2-1 2.2-2.2h-4.4zm10 5.5c-1.2 0-2.2 1-2.2 2.2 0 1.2 1 2.2 2.2 2.2 1.2 0 2.2-1 2.2-2.2 0-1.2-1-2.2-2.2-2.2zm0 31c-1.2 0-2.2 1-2.2 2.2 0 1.2 1 2.2 2.2 2.2 1.2 0 2.2-1 2.2-2.2 0-1.2-1-2.2-2.2-2.2zm-7.7-7.7c-1.2 0-2.2 1-2.2 2.2 0 1.2 1 2.2 2.2 2.2 1.2 0 2.2-1 2.2-2.2 0-1.2-1-2.2-2.2-2.2zm7.7-7.8c-1.2 0-2.2 1-2.2 2.2 0 1.2 1 2.2 2.2 2.2 1.2 0 2.2-1 2.2-2.2 0-1.2-1-2.2-2.2-2.2zm-7.7 23.3c-1.2 0-2.2 1-2.2 2.2 0 1.2 1 2.2 2.2 2.2 1.2 0 2.2-1 2.2-2.2 0-1.2-1-2.2-2.2-2.2zm0-31c-1.2 0-2.2 1-2.2 2.2 0 1.2 1 2.2 2.2 2.2 1.2 0 2.2-1 2.2-2.2 0-1.2-1-2.2-2.2-2.2zm-7.8 7.7c-1.2 0-2.2 1-2.2 2.2 0 1.2 1 2.2 2.2 2.2 1.2 0 2.2-1 2.2-2.2 0-1.2-1-2.2-2.2-2.2zm31 15.5c-1.2 0-2.2 1-2.2 2.2 0 1.2 1 2.2 2.2 2.2 1.2 0 2.2-1 2.2-2.2.1-1.2-.9-2.2-2.2-2.2zm0-15.5c-1.2 0-2.2 1-2.2 2.2 0 1.2 1 2.2 2.2 2.2 1.2 0 2.2-1 2.2-2.2.1-1.2-.9-2.2-2.2-2.2zm-7.7-18.8l.5-.1-2.1-.7c.3.5.9.8 1.6.8zm0 11.1c-1.2 0-2.2 1-2.2 2.2 0 1.2 1 2.2 2.2 2.2 1.2 0 2.2-1 2.2-2.2 0-1.2-1-2.2-2.2-2.2zm0 15.5c-1.2 0-2.2 1-2.2 2.2 0 1.2 1 2.2 2.2 2.2 1.2 0 2.2-1 2.2-2.2 0-1.2-1-2.2-2.2-2.2zm0 15.5c-1.2 0-2.2 1-2.2 2.2 0 1.2 1 2.2 2.2 2.2 1.2 0 2.2-1 2.2-2.2 0-1.2-1-2.2-2.2-2.2zm8.3-38.7c-.2-.1-.4-.1-.6-.1-1.2 0-2.2 1-2.2 2.2 0 1.2 1 2.2 2.2 2.2 1.2 0 2.2-1 2.2-2.2 0-.6-.2-1.1-.6-1.5-.3-.1-.6-.4-1-.6zm-54.9 23.2c-.7 0-1.4.4-1.8.9v2.6c.4.6 1.1.9 1.8.9 1.2 0 2.2-1 2.2-2.2.1-1.2-.9-2.2-2.2-2.2zm0-15.5c-.7 0-1.4.4-1.8.9v2.6c.4.6 1.1.9 1.8.9 1.2 0 2.2-1 2.2-2.2.1-1.2-.9-2.2-2.2-2.2zm8-7.7c-.8.5-1.6.9-2.4 1.5-.1.2-.1.5-.1.7 0 1.2 1 2.2 2.2 2.2 1.2 0 2.2-1 2.2-2.2.1-1.2-.8-2.1-1.9-2.2zm-8 38.7c-.7 0-1.4.4-1.8.9v2.6c.4.6 1.1.9 1.8.9 1.2 0 2.2-1 2.2-2.2.1-1.2-.9-2.2-2.2-2.2zm62.1-11c1.1 0 2-.8 2.2-1.8l-.1-1.3c-.3-.8-1.1-1.4-2.1-1.4-1.2 0-2.2 1-2.2 2.2-.1 1.3.9 2.3 2.2 2.3zm0-15.6h.3c-.2-1.5-.5-2.9-.8-4.4-1 .2-1.8 1.1-1.8 2.2 0 1.2 1 2.2 2.3 2.2zm0 26.6c-1.2 0-2.2 1-2.2 2.2 0 1.2 1 2.2 2.2 2.2 1.2 0 2.2-1 2.2-2.2 0-1.2-1-2.2-2.2-2.2zm-46.6 0c-1.2 0-2.2 1-2.2 2.2 0 1.2 1 2.2 2.2 2.2 1.2 0 2.2-1 2.2-2.2.1-1.2-.9-2.2-2.2-2.2zm7.8-7.8c-1.2 0-2.2 1-2.2 2.2 0 1.2 1 2.2 2.2 2.2 1.2 0 2.2-1 2.2-2.2 0-1.2-1-2.2-2.2-2.2zm-7.8-7.7c-1.2 0-2.2 1-2.2 2.2 0 1.2 1 2.2 2.2 2.2 1.2 0 2.2-1 2.2-2.2.1-1.2-.9-2.2-2.2-2.2zm7.8-23.3c-1.2 0-2.2 1-2.2 2.2 0 1.2 1 2.2 2.2 2.2 1.2 0 2.2-1 2.2-2.2 0-1.2-1-2.2-2.2-2.2zm-7.8 7.8c-1.2 0-2.2 1-2.2 2.2 0 1.2 1 2.2 2.2 2.2 1.2 0 2.2-1 2.2-2.2.1-1.2-.9-2.2-2.2-2.2zm-7.7 7.7c-1.2 0-2.2 1-2.2 2.2 0 1.2 1 2.2 2.2 2.2 1.2 0 2.2-1 2.2-2.2 0-1.2-1-2.2-2.2-2.2zm9.2-19.4l-1.7.6h.2c.6 0 1.1-.2 1.5-.6zm-9.2 34.9c-1.2 0-2.2 1-2.2 2.2 0 1.2 1 2.2 2.2 2.2 1.2 0 2.2-1 2.2-2.2 0-1.2-1-2.2-2.2-2.2z"/><path fill="#74DDA0" d="M474.6 138.9l-23.3-14.5-22.8 14.5h7.1v33.4h31.5v-33.4z"/><path fill="#009544" d="M464.1 173.6l-23.7-14.8-23.2 14.8h7.5v47.3h31.5v-47.3z"/><path fill="#F3F3F3" d="M316 349.1c48.4-39.8 49.7-145.4 94.5-145.4 43.1 0 48 85 88.6 145.4h-183.1z"/><path fill="#AAEEAB" d="M412.6 245.5c6.3 0 11.8-3.4 14.7-8.5 2.6 2.2 5.9 3.6 9.6 3.6 4.4 0 8.3-1.9 11-5-9.8-19.2-20.8-32-37.4-32-15.4 0-25.7 12.5-34.7 30.5 2.6 4 7.1 6.6 12.2 6.6 3.8 0 7.2-1.4 9.8-3.8 2.9 5.2 8.4 8.6 14.8 8.6z"/><path fill="#74DDA0" d="M425.8 223.3c2.3 2 5.3 3.3 8.7 3.3 2.6 0 5-.8 7-2.1-8.3-12.9-17.9-20.9-31-20.9-12.2 0-21.1 7.8-28.8 19.8 2.3 2 5.3 3.1 8.5 3.1 3.4 0 6.5-1.3 8.9-3.4 2.6 4.7 7.6 7.8 13.4 7.8 5.7.1 10.6-3 13.3-7.6z"/><path fill="#AAEEAB" d="M526.4 343.4v-1.3c0-1.7.1-3.4.1-5.2 0-9.1-.6-18.2-1.6-27h-22.5c-1.4 0-2.6 1.2-2.6 2.6v19.3h-22.9v-12c0-1.5-1.2-2.8-2.8-2.8h-22.3c-1.5 0-2.8 1.2-2.8 2.8v18.2h-28.7c-.2 15.3-8 39.9-13.5 53.3 34.7 7 73.9 6.7 107.1 19.5 7.4-21.1 11.7-43.6 12.4-67 .1 0 .1-.2.1-.4z"/><path fill="#F3F3F3" d="M456.6 231.3h3.6v38.9h-3.6z"/><path fill="#FFAAC9" d="M471.6 194.7c1.8-2.6 2.9-5.8 2.9-9.3 0-9.1-7.4-16.4-16.4-16.4-9.1 0-16.4 7.4-16.4 16.4 0 3.4 1.1 6.6 2.9 9.3-6 4.3-10 11.3-10 19.3 0 13 10.6 23.6 23.6 23.6 13 0 23.6-10.6 23.6-23.6-.2-8-4.1-15-10.2-19.3z"/><path fill="#FF619A" d="M499.9 202.5c0 11-8.4 20-18.8 20-10.3 0-18.8-9-18.8-20v-38.1c0-11 8.4-20 18.8-20 10.3 0 18.8 9 18.8 20v38.1z"/><path fill="#F3F3F3" d="M481.5 247.4c-.9 0-1.6-.7-1.6-1.6v-40.4l-6.5-4.9c-.7-.5-.8-1.5-.3-2.2.3-.4.7-.6 1.2-.6.3 0 .7.1 1 .3l4.6 3.5v-10l-6.4-4.7c-.7-.5-.8-1.5-.3-2.2.3-.4.8-.6 1.3-.6.3 0 .7.1.9.3l4.6 3.3v-8.7l-6-4.7c-.3-.3-.4-.7-.4-1.1 0-.4.2-.8.5-1.1.3-.3.7-.4 1-.4.4 0 .9.2 1.1.5l3.7 2.2v-4.5c0-.9.7-1.6 1.6-1.6.9 0 1.6.7 1.6 1.6v4.9l2.9-2.5c.3-.3.7-.5 1.2-.5.4 0 .7.1 1 .4.7.6.7 1.5.2 2.2l-5.2 5.2v7.9l3.6-3.3c.3-.3.7-.4 1.1-.4.4 0 .9.2 1.1.5.3.3.4.7.4 1.1 0 .4-.2.8-.5 1.1l-5.8 5.3v9.4l3-3.1c.3-.3.7-.5 1.1-.5.4 0 .8.2 1.1.4.6.6.6 1.6 0 2.2l-5.2 5.4v40.5c-.1.7-.7 1.4-1.6 1.4zM114.6 342.4c0 1.2 1 2.2 2.2 2.2 1.2 0 2.2-1 2.2-2.2 0-1.2-1-2.2-2.2-2.2-1.2 0-2.2 1-2.2 2.2zm-15.4-31.7c-.1.2-.1.5-.1.7 0 1.2 1 2.2 2.2 2.2 1.2 0 2.2-1 2.2-2.2 0-1.1-.9-2-2-2.2-.7.5-1.5 1-2.3 1.5zm-7.9 24c0 1.2 1 2.2 2.2 2.2 1.2 0 2.2-1 2.2-2.2 0-1.2-1-2.2-2.2-2.2-1.2 0-2.2 1-2.2 2.2zm124.1 15.5c0 1.2 1 2.2 2.2 2.2 1.2 0 2.2-1 2.2-2.2 0-1.2-1-2.2-2.2-2.2-1.2 0-2.2 1-2.2 2.2zm-124.1 0c0 1.2 1 2.2 2.2 2.2 1.2 0 2.2-1 2.2-2.2 0-1.2-1-2.2-2.2-2.2-1.2 0-2.2 1-2.2 2.2zm0-31c0 1.2 1 2.2 2.2 2.2 1.2 0 2.2-1 2.2-2.2 0-1.2-1-2.2-2.2-2.2-1.2-.1-2.2.9-2.2 2.2zm7.8 23.2c0 1.2 1 2.2 2.2 2.2 1.2 0 2.2-1 2.2-2.2 0-1.2-1-2.2-2.2-2.2-1.2 0-2.2 1-2.2 2.2zm7.7-23.2c0 1.2 1 2.2 2.2 2.2 1.2 0 2.2-1 2.2-2.2 0-1.2-1-2.2-2.2-2.2-1.2-.1-2.2.9-2.2 2.2zm7.8 7.7c0 1.2 1 2.2 2.2 2.2 1.2 0 2.2-1 2.2-2.2 0-1.2-1-2.2-2.2-2.2-1.2 0-2.2 1-2.2 2.2zm-5.6-21c.6 0 1.1-.2 1.5-.6l-1.7.6h.2zm-2.2 28.8c0 1.2 1 2.2 2.2 2.2 1.2 0 2.2-1 2.2-2.2 0-1.2-1-2.2-2.2-2.2-1.2 0-2.2 1-2.2 2.2zm0 15.5c0 1.2 1 2.2 2.2 2.2 1.2 0 2.2-1 2.2-2.2 0-1.2-1-2.2-2.2-2.2-1.2 0-2.2 1-2.2 2.2zm-7.7-23.3c0 1.2 1 2.2 2.2 2.2 1.2 0 2.2-1 2.2-2.2 0-1.2-1-2.2-2.2-2.2-1.2 0-2.2 1-2.2 2.2zm77.5 15.5c0 1.2 1 2.2 2.2 2.2 1.2 0 2.2-1 2.2-2.2 0-1.2-1-2.2-2.2-2.2-1.2 0-2.2 1-2.2 2.2zm31.1 0c0 1.2 1 2.2 2.2 2.2 1.2 0 2.2-1 2.2-2.2 0-1.2-1-2.2-2.2-2.2-1.2 0-2.2 1-2.2 2.2zm-38.8-7.7c0 1.2 1 2.2 2.2 2.2 1.2 0 2.2-1 2.2-2.2 0-1.2-1-2.2-2.2-2.2-1.2 0-2.2 1-2.2 2.2zm15.5 0c0 1.2 1 2.2 2.2 2.2 1.2 0 2.2-1 2.2-2.2 0-1.2-1-2.2-2.2-2.2-1.2 0-2.2 1-2.2 2.2zm-15.5 15.5c0 1.2 1 2.2 2.2 2.2 1.2 0 2.2-1 2.2-2.2 0-1.2-1-2.2-2.2-2.2-1.2 0-2.2 1-2.2 2.2zm12.2-23.3l-.1-.6c-1.5.2-2.9.5-4.3.9.1 1.1 1 1.9 2.2 1.9 1.2.1 2.2-.9 2.2-2.2zm18.8 23.3c0 1.2 1 2.2 2.2 2.2 1.2 0 2.2-1 2.2-2.2 0-1.2-1-2.2-2.2-2.2-1.2 0-2.2 1-2.2 2.2zm0-15.5c0 1.2 1 2.2 2.2 2.2 1.2 0 2.2-1 2.2-2.2 0-1.2-1-2.2-2.2-2.2-1.2 0-2.2 1-2.2 2.2zm-15.5 15.5c0 1.2 1 2.2 2.2 2.2 1.2 0 2.2-1 2.2-2.2 0-1.2-1-2.2-2.2-2.2-1.2 0-2.2 1-2.2 2.2zm7.7-7.8c0 1.2 1 2.2 2.2 2.2 1.2 0 2.2-1 2.2-2.2 0-1.2-1-2.2-2.2-2.2-1.2 0-2.2 1-2.2 2.2zm.2-16.2c-.1.2-.2.5-.2.8 0 1.2 1 2.2 2.2 2.2 1.2 0 2.2-1 2.2-2.2-1.3-.4-2.7-.6-4.2-.8zm-38.9-7c0 1.2 1 2.2 2.2 2.2 1.2 0 2.2-1 2.2-2.2 0-1.2-1-2.2-2.2-2.2-1.2-.1-2.2.9-2.2 2.2zm7.7 7.7c0 1.2 1 2.2 2.2 2.2.5 0 1-.2 1.4-.5-.5-1.4-1.1-2.7-1.7-3.9-1 .2-1.9 1.1-1.9 2.2zm-7.7 7.8c0 1.2 1 2.2 2.2 2.2 1.2 0 2.2-1 2.2-2.2 0-1.2-1-2.2-2.2-2.2-1.2 0-2.2 1-2.2 2.2zm-7.8-23.3c0 1.2 1 2.2 2.2 2.2 1.2 0 2.2-1 2.2-2.2 0-.6-.2-1.1-.6-1.5l-1.1-.6c-.2-.1-.4-.1-.6-.1-1.1 0-2.1 1-2.1 2.2zm0 15.5c0 1.2 1 2.2 2.2 2.2 1.2 0 2.2-1 2.2-2.2 0-1.2-1-2.2-2.2-2.2-1.2 0-2.2 1-2.2 2.2zm0 15.5c0 1.2 1 2.2 2.2 2.2 1.2 0 2.2-1 2.2-2.2 0-1.2-1-2.2-2.2-2.2-1.2 0-2.2 1-2.2 2.2zm7.8 7.8c0 1.2 1 2.2 2.2 2.2 1.2 0 2.2-1 2.2-2.2 0-1.2-1-2.2-2.2-2.2-1.2 0-2.2 1-2.2 2.2zm-73.1-15.5c0-.6-.2-1.1-.6-1.5l-1.5 3.1h.2c1.1 0 1.9-.4 1.9-1.6zm3.3-8.3c0 .2-.1.4-.1.5 0 1.2 1 2.2 2.2 2.2 1.2 0 2.2-1 2.2-2.2 0-1.2-1-2.2-2.2-2.2-.5 0-.9.2-1.3.5-.2.4-.5.8-.8 1.2zm77.5 16c0 1.2 1 2.2 2.2 2.2 1.2 0 2.2-1 2.2-2.2 0-1.2-1-2.2-2.2-2.2-1.2 0-2.2 1-2.2 2.2zm-77.6 0c0 1.2 1 2.2 2.2 2.2 1.2 0 2.2-1 2.2-2.2 0-1.2-1-2.2-2.2-2.2-1.2 0-2.2 1-2.2 2.2zm31.1-31c0 1.2 1 2.2 2.2 2.2 1.2 0 2.2-1 2.2-2.2 0-1.2-1-2.2-2.2-2.2-1.2 0-2.2 1-2.2 2.2zm7.7 38.8c0 1.2 1 2.2 2.2 2.2 1.2 0 2.2-1 2.2-2.2 0-1.2-1-2.2-2.2-2.2-1.2 0-2.2 1-2.2 2.2zm7.8-23.3c0 1.2 1 2.2 2.2 2.2 1.2 0 2.2-1 2.2-2.2 0-1.2-1-2.2-2.2-2.2-1.2 0-2.2 1-2.2 2.2zm-7.8-7.7c0 1.2 1 2.2 2.2 2.2 1.2 0 2.2-1 2.2-2.2 0-1.2-1-2.2-2.2-2.2-1.2-.1-2.2.9-2.2 2.2zm0 15.5c0 1.2 1 2.2 2.2 2.2 1.2 0 2.2-1 2.2-2.2 0-1.2-1-2.2-2.2-2.2-1.2 0-2.2 1-2.2 2.2zm.1-31.4c0 .1-.1.2-.1.4 0 1.2 1 2.2 2.2 2.2 1.2 0 2.2-1 2.2-2.2 0-.1 0-.2-.1-.3l-2.7-.1c-.4-.1-.9 0-1.5 0zm15.4 31.4c0 1.2 1 2.2 2.2 2.2 1.2 0 2.2-1 2.2-2.2 0-1.2-1-2.2-2.2-2.2-1.2 0-2.2 1-2.2 2.2zm0-15.5c0 1.2 1 2.2 2.2 2.2 1.2 0 2.2-1 2.2-2.2 0-1.2-1-2.2-2.2-2.2-1.2-.1-2.2.9-2.2 2.2zm-7.7 23.2c0 1.2 1 2.2 2.2 2.2 1.2 0 2.2-1 2.2-2.2 0-1.2-1-2.2-2.2-2.2-1.2 0-2.2 1-2.2 2.2zm7.7 7.8c0 1.2 1 2.2 2.2 2.2 1.2 0 2.2-1 2.2-2.2 0-1.2-1-2.2-2.2-2.2-1.2 0-2.2 1-2.2 2.2zm2.3-44.3l.5-.1-2.1-.7c.3.5.9.8 1.6.8zm-10 5.5c0 1.2 1 2.2 2.2 2.2 1.2 0 2.2-1 2.2-2.2 0-1.2-1-2.2-2.2-2.2-1.2 0-2.2 1-2.2 2.2z"/><path fill="#064831" d="M222.4 229.7c0 .8-.7 1.5-1.5 1.5h-28.4c-.8 0-1.5-.7-1.5-1.5v-52.3c0-.8.7-1.5 1.5-1.5h28.4c.8 0 1.5.7 1.5 1.5v52.3z"/><path fill="#F3F3F3" d="M215.3 187.8c0-4.7-3.8-8.6-8.6-8.6-4.7 0-8.6 3.8-8.6 8.6 0 4.7 3.8 8.6 8.6 8.6s8.6-3.9 8.6-8.6z"/><path fill="#FFAAC9" d="M206.9 180.4l-.2 6.6-6.8 3.8c1.2 2.6 3.7 4.4 6.8 4.4 4.1 0 7.4-3.3 7.4-7.4 0-4-3.2-7.3-7.2-7.4z"/><circle fill="#F3F3F3" cx="206.7" cy="187.8" r="3.3"/><path fill="#FF619A" d="M208.9 187.8c0-1.2-1-2.1-2.1-2.1-1.2 0-2.1 1-2.1 2.1 0 1.2 1 2.1 2.1 2.1s2.1-.9 2.1-2.1z"/><path fill="#00C051" d="M188.1 191.7c-3.4-3.6-4.1-10-1.4-14.2 0 0 1.3-2.1 1.3-8.3 0-13-10.6-23.6-23.6-23.6-13 0-23.6 10.6-23.6 23.6 0 6.1 1.4 8.3 1.4 8.3 2.7 4.2 2 10.6-1.4 14.2 0 0-8.9 9.4-8.9 20.9 0 18 14.6 32.6 32.6 32.6s32.5-14.6 32.5-32.6c0-11.5-8.9-20.9-8.9-20.9zM167.4 90.2s0-2.3-2.1-2.3h-15.6c-2.7 0-2.5 2.4-2.5 2.4v19.6s3.3 4 4.2 5.1v60.4h11.2v-60.5c1.1-1.1 4.9-5 4.9-5v-19.7z"/><path fill="#009544" d="M164.9 90.2s0-2.3-2.1-2.3h-15.6c-2.7 0-2.5 2.4-2.5 2.4v19.6s3.3 4 4.2 5.1v60.4h11.1v-60.5c1.1-1.1 4.9-5 4.9-5v-19.7zM177.2 191.7c-3.4-3.6-4.1-10-1.4-14.2 0 0 1.3-2.1 1.3-8.3 0-13-10.6-23.6-23.6-23.6-13 0-23.6 10.6-23.6 23.6 0 6.1 1.4 8.3 1.4 8.3 2.7 4.2 2 10.6-1.4 14.2 0 0-8.9 9.4-8.9 20.9 0 18 14.6 32.6 32.6 32.6s32.5-14.6 32.5-32.6c0-11.5-8.9-20.9-8.9-20.9z"/><circle fill="#064831" cx="154" cy="206.7" r="13.1"/><path fill="#74DDA0" d="M145.9 206.7c0-6.4 4.6-11.7 10.6-12.9-.8-.2-1.6-.2-2.5-.2-7.2 0-13.1 5.9-13.1 13.1 0 7.2 5.9 13.1 13.1 13.1.9 0 1.7-.1 2.5-.2-6.1-1.2-10.6-6.5-10.6-12.9z"/><path fill="#064831" d="M150.8 87.7h1.2v157.9h-1.2zM153.9 87.7h1.2v157.9h-1.2zM157 87.7h1.2v157.9h-1.2z"/><path fill="#F3F3F3" d="M218 210.6c0-6.2-5.1-11.3-11.3-11.3-6.2 0-11.3 5.1-11.3 11.3 0 6.2 5.1 11.3 11.3 11.3 6.3 0 11.3-5.1 11.3-11.3z"/><path fill="#FFAAC9" d="M207 200.8l-.2 8.7-8.9 5c1.5 3.4 4.9 5.8 8.9 5.8 5.4 0 9.8-4.4 9.8-9.8-.1-5.2-4.3-9.6-9.6-9.7z"/><circle fill="#F3F3F3" cx="206.7" cy="210.6" r="4.4"/><path fill="#FF619A" d="M209.5 210.6c0-1.6-1.3-2.8-2.8-2.8-1.5 0-2.8 1.3-2.8 2.8 0 1.6 1.3 2.8 2.8 2.8 1.6 0 2.8-1.3 2.8-2.8z"/><path fill="#F3F3F3" d="M262.1 267.7c-.2-29.4-24-53.1-53.4-53.1-21.5 0-40 12.7-48.5 31-6.6-4.4-14.5-7-23.1-7-18.6 0-34.4 12.3-39.6 29.2h164.6z"/><path fill="#009544" d="M113.9 322.8h-52.5c-9.5 0-17.1-7.7-17.1-17.1 0-9.5 7.7-17.1 17.1-17.1h52.5c9.5 0 17.1 7.7 17.1 17.1 0 9.4-7.6 17.1-17.1 17.1"/><path fill="#FF619A" d="M45 214.9c.6 0 1.1.5 1.1 1.1v6.4h1.9v-6.4c0-.6.5-1.1 1.1-1.1.6 0 1.1.5 1.1 1.1v6.4h1.9v-6.4c0-.6.5-1.1 1.1-1.1.6 0 1.1.5 1.1 1.1v11.2c0 2.2-1.4 4-3.2 4.8v17.8c0 1.1-.9 2-2 2h-.1c-1.1 0-2-.9-2-2v-17.8c-1.9-.8-3.2-2.6-3.2-4.8v-11.2c0-.6.6-1.1 1.2-1.1"/><path fill="#FFAAC9" d="M111.8 213.5c-1.2 0-2.2 1-2.2 2.2 0 0-2 13.2-2 14.9 0 1.4 1 2.7 2.3 3v15.2c0 1.1.9 2 2 2h.1c1.1 0 2-.9 2-2v-33.2c0-1.2-1-2.1-2.2-2.1z"/><path fill="#74DDA0" d="M80.3 221.6c-6.6 0-11.9 5.3-11.9 11.9v18.6h23.8v-18.6c0-6.6-5.3-11.9-11.9-11.9"/><g fill="#00C051"><path d="M80.3 158.3c-15.7 0-28.5 12.8-28.5 28.5s12.8 28.5 28.5 28.5 28.5-12.8 28.5-28.5-12.8-28.5-28.5-28.5m0 43.2c-8.1 0-14.6-6.5-14.6-14.6s6.5-14.6 14.6-14.6 14.6 6.5 14.6 14.6c0 8-6.5 14.6-14.6 14.6M61.2 198.1c0 3.4-2.8 6.2-6.2 6.2-3.4 0-6.2-2.8-6.2-6.2 0-3.4 2.8-6.2 6.2-6.2 3.4 0 6.2 2.8 6.2 6.2M69.2 207c0 4.1-3.4 7.5-7.5 7.5s-7.5-3.4-7.5-7.5 3.3-7.5 7.5-7.5c4.1.1 7.5 3.4 7.5 7.5M99.4 198.1c0 3.4 2.8 6.2 6.2 6.2 3.4 0 6.2-2.8 6.2-6.2 0-3.4-2.8-6.2-6.2-6.2-3.4 0-6.2 2.8-6.2 6.2M91.7 207c0 4.1 3.4 7.5 7.5 7.5s7.5-3.4 7.5-7.5-3.4-7.5-7.5-7.5c-4.1.1-7.5 3.4-7.5 7.5M82.6 211.5c0 4.7-3.8 8.4-8.4 8.4-4.7 0-8.4-3.8-8.4-8.4 0-4.7 3.8-8.4 8.4-8.4 4.6 0 8.4 3.8 8.4 8.4M95.8 211.5c0 4.7-3.8 8.4-8.4 8.4-4.7 0-8.4-3.8-8.4-8.4 0-4.7 3.8-8.4 8.4-8.4 4.7 0 8.4 3.8 8.4 8.4"/></g><path fill="#00C051" d="M118.7 248.3c0 3.8-3.1 6.9-6.9 6.9-3.8 0-6.9-3.1-6.9-6.9 0-3.8 3.1-6.9 6.9-6.9 3.8-.1 6.9 3.1 6.9 6.9M55.5 248.3c0 3.8-3.1 6.9-6.9 6.9-3.8 0-6.9-3.1-6.9-6.9 0-3.8 3.1-6.9 6.9-6.9 3.8-.1 6.9 3.1 6.9 6.9"/><path fill="#009544" d="M130.8 289.8h-91.5c-10.9 0-19.8-8.8-19.8-19.8 0-10.9 8.8-19.8 19.8-19.8h91.5c10.9 0 19.8 8.8 19.8 19.8 0 10.9-14.9 19.8-25.8 19.8"/><path fill="#064831" d="M86.8 344.4c-1.3 0-2.3-1-2.3-2.3v-20.8c0-1.3 1-2.3 2.3-2.3 1.3 0 2.3 1 2.3 2.3v20.8c.1 1.3-1 2.3-2.3 2.3z"/><path fill="#00C051" d="M69.7 322.8c-2.9 0-4.7-2.3-3.9-5.1l19.8-72c.4-1.4.9-1.6 1.4-1.6.5 0 1 .2 1.4 1.6l19.8 72c.8 2.8-1 5.1-3.9 5.1h-34.6z"/><path fill="#007944" d="M88.3 245.7c-.2-.7-.4-1.1-.6-1.3 2.1 15.1 9.3 67.4 10 72.5.5 4-1.6 5.5-5.3 6h11.8c2.9 0 4.7-2.3 3.9-5.1l-19.8-72.1z"/><path fill="#74DDA0" d="M85.4 245.7c.2-.7.4-1.1.6-1.3-2.1 15.1-9.3 67.4-10 72.5-.5 4 1.6 5.5 5.3 6h-11.7c-2.9 0-4.7-2.3-3.9-5.1l19.7-72.1z"/><path fill="#F3F3F3" d="M237.9 312.7c-39.8 0-76.3 48.7-99.9 48.7-24.8 0-23.9-20.8-52.8-20.8-3.7.1-7.1 1.2-7.1 1.7 0 20.8 2.9 40.9 8.2 60l112-4.4c-5.7-10.6 41.8-73.1 39.6-85.2zM342.6 382.4c38.5 0-60.3 69.7-98.8 69.7s-69.7-31.2-69.7-69.7 31.2-69.7 69.7-69.7 75 69.7 98.8 69.7z"/><circle fill="#009544" cx="312.7" cy="371.7" r="69.7"/><path fill="#AAEEAB" d="M342.6 382.4c-19.1 0-46.4-44.9-76.4-62.6-14.2 12.7-23.2 31.3-23.2 51.9 0 30.2 19.2 55.8 46 65.5 39.9-20.4 80.7-54.8 53.6-54.8z"/><path fill="#00C051" d="M335.5 496.7c-25.4-68-90.9-116.4-167.8-116.4-76.8 0-142.3 48.5-167.7 116.4h335.5z"/><path fill="#064831" d="M129.7 333.7h5.3v58.6h-5.3z"/><path fill="#00C051" d="M150.3 285c2.4-3.6 3.9-7.9 3.9-12.5 0-12.3-9.9-22.2-22.2-22.2-12.3 0-22.2 9.9-22.2 22.2 0 4.7 1.4 9 3.9 12.5-8.2 5.8-13.5 15.3-13.5 26 0 17.6 14.3 31.9 31.9 31.9 17.6 0 31.9-14.3 31.9-31.9-.2-10.8-5.6-20.3-13.7-26z"/><path fill="#009544" d="M150.3 285c2.4-3.6 3.9-7.9 3.9-12.5 0-8.7-5-16.2-12.2-19.8 2.4 2.4 4.9 7 4.9 15.4 0 13.8-7.4 17.2-7.4 17.2s11.9 8 11.9 26.1c0 16.8-5.4 26.9-10.6 30.3 13.3-3.8 23-16.1 23-30.6 0-10.9-5.4-20.4-13.5-26.1zM143.3 496.7h192.2c-5.4-14.4-12.6-28-21.3-40.4-3.9.4-7.8.6-11.7.6-49.9 0-92.6-31.1-109.8-74.9-8.1-1.1-16.4-1.7-24.9-1.7-29.2 0-56.7 7-81.1 19.4 10.4 37.2 30.2 70.4 56.6 97z"/><path fill="#74DDA0" d="M195.2 435.8h-52.3c-9.4 0-17.1-7.6-17.1-17.1 0-9.4 7.6-17.1 17.1-17.1h52.3c9.4 0 17.1 7.6 17.1 17.1 0 9.5-7.7 17.1-17.1 17.1zM220.3 467.2h-52.3c-9.4 0-17.1-7.6-17.1-17.1 0-9.4 7.6-17.1 17.1-17.1h52.3c9.4 0 17.1 7.6 17.1 17.1 0 9.5-7.6 17.1-17.1 17.1z"/><path fill="#F3F3F3" d="M208.8 322.8c-.5 0-1-.4-1-1v-54.5c0-.5.4-1 1-1 .5 0 1 .4 1 1v54.5c-.1.6-.5 1-1 1zM210.9 277.1s-1-2.5 2.4-4.8c3.3-2.3 6.3-1.2 6.3-1.2s0 3.1-3.4 5.5-5.3.5-5.3.5zM210.9 286s-1-2.5 2.4-4.8c3.3-2.3 6.3-1.2 6.3-1.2s0 3.1-3.4 5.5-5.3.5-5.3.5zM210.9 294.8s-1-2.5 2.4-4.8c3.3-2.3 6.3-1.2 6.3-1.2s0 3.1-3.4 5.5-5.3.5-5.3.5zM206 277.1s1-2.5-2.4-4.8c-3.3-2.3-6.3-1.2-6.3-1.2s0 3.1 3.4 5.5c3.5 2.4 5.3.5 5.3.5zM206 286s1-2.5-2.4-4.8c-3.3-2.3-6.3-1.2-6.3-1.2s0 3.1 3.4 5.5c3.5 2.4 5.3.5 5.3.5zM206 294.8s1-2.5-2.4-4.8c-3.3-2.3-6.3-1.2-6.3-1.2s0 3.1 3.4 5.5c3.5 2.4 5.3.5 5.3.5z"/><path fill="#FFAAC9" d="M213.5 261.7c0 3-2.1 5.5-4.7 5.5s-4.7-2.5-4.7-5.5v-14.8c0-3 2.1-5.5 4.7-5.5s4.7 2.5 4.7 5.5v14.8z"/><path fill="#064831" d="M208.8 264c0-6.4-3.5-10.7-5.9-10.7v8.9c0 2.2 1.2 5 5.9 5s5.9-2.8 5.9-5v-8.9c-2.4.1-5.9 4.3-5.9 10.7z"/><path fill="#F3F3F3" d="M238.5 315c-.5 0-1-.4-1-1v-46.6c0-.5.4-1 1-1 .5 0 1 .4 1 1v46.6c-.1.5-.5 1-1 1zM240.6 277.1s-1-2.5 2.4-4.8c3.3-2.3 6.3-1.2 6.3-1.2s0 3.1-3.4 5.5-5.3.5-5.3.5zM240.6 286s-1-2.5 2.4-4.8c3.3-2.3 6.3-1.2 6.3-1.2s0 3.1-3.4 5.5-5.3.5-5.3.5zM240.6 294.8s-1-2.5 2.4-4.8c3.3-2.3 6.3-1.2 6.3-1.2s0 3.1-3.4 5.5-5.3.5-5.3.5zM235.7 277.1s1-2.5-2.4-4.8c-3.3-2.3-6.3-1.2-6.3-1.2s0 3.1 3.4 5.5c3.5 2.4 5.3.5 5.3.5zM235.7 286s1-2.5-2.4-4.8c-3.3-2.3-6.3-1.2-6.3-1.2s0 3.1 3.4 5.5c3.5 2.4 5.3.5 5.3.5zM235.7 294.8s1-2.5-2.4-4.8c-3.3-2.3-6.3-1.2-6.3-1.2s0 3.1 3.4 5.5c3.5 2.4 5.3.5 5.3.5z"/><path fill="#FFAAC9" d="M243.2 261.7c0 3-2.1 5.5-4.7 5.5s-4.7-2.5-4.7-5.5v-14.8c0-3 2.1-5.5 4.7-5.5s4.7 2.5 4.7 5.5v14.8z"/><path fill="#064831" d="M238.5 264c0-6.4-3.5-10.7-5.9-10.7v8.9c0 2.2 1.2 5 5.9 5s5.9-2.8 5.9-5v-8.9c-2.4.1-5.9 4.3-5.9 10.7zM303.5 275.6l-9 .1c-2.6 0-6.1 1.4-8.1 3.2l-3.9 3.6c-1.9 1.8-3.6 5.2-3.8 7.8l-1 13c-.1 1.8-1.8 3.6-3.6 3.9l-3.1.6c-1.8.3-4-.8-4.8-2.4l-2.5-5.1-1.9 1.2 2.4 4.9c1.1 2.2 3.6 3.8 6.1 3.8.4 0 .7 0 1.1-.1l3.1-.6c2.8-.5 5.2-3.1 5.4-6l1-13c.2-2 1.6-4.9 3.1-6.3l3.9-3.6c1.5-1.4 4.5-2.6 6.6-2.6l9-.1c.6 0 1.1-.5 1.1-1.1 0-.7-.5-1.2-1.1-1.2z"/><circle fill="#009544" cx="305.4" cy="276.6" r="4.8"/><circle fill="#F3F3F3" cx="319" cy="219.3" r="17.7"/><path fill="#064831" d="M320 314.5h-11.6c-1.4 0-2.6-1.2-2.6-2.6s1.2-2.6 2.6-2.6h6.1l-1.7-25.5c-.1-1.4 1-2.7 2.4-2.8 1.5-.1 2.7 1 2.8 2.4l2 31.1zM334.2 310.1h-.5c-1.4-.3-2.3-1.6-2.1-3.1l.9-4.7-10.3-2.6-1.2-15.9c-.1-1.4 1-2.7 2.4-2.8 1.4-.1 2.7 1 2.8 2.4l.9 12.1 11.5 2.9-1.9 9.5c-.2 1.3-1.3 2.2-2.5 2.2z"/><path fill="#00C051" d="M319.5 191.4c-16 0-29 13-29 29s13 29 29 29 29-13 29-29-13-29-29-29zm0 43.9c-8.2 0-14.9-6.7-14.9-14.9s6.7-14.9 14.9-14.9 14.9 6.7 14.9 14.9-6.7 14.9-14.9 14.9z"/><path fill="#009544" d="M319.5 253.2c-6.7 0-12.1 5.4-12.1 12.1v20.1h24.2v-20.1c0-6.7-5.4-12.1-12.1-12.1z"/><path fill="#064831" d="M264.7 304.7c0 5.2-4.2 9.3-9.3 9.3-5.2 0-9.3-4.2-9.3-9.3 0-5.2 4.2-9.3 9.3-9.3 5.1 0 9.3 4.1 9.3 9.3z"/><path fill="#F3F3F3" d="M259 304.7c0 2-1.6 3.6-3.6 3.6s-3.6-1.6-3.6-3.6 1.6-3.6 3.6-3.6c1.9 0 3.6 1.6 3.6 3.6z"/><path fill="#FF619A" d="M285.2 310.1c-2.5 0-5-1.5-6.1-3.8l-3.1-6.5c-.7-1.6-2.6-2.2-4.2-1.5l-26.1 11.7c-.6.3-1.2 0-1.5-.6-.3-.6 0-1.2.6-1.5l26.1-11.7c2.7-1.2 5.9 0 7.1 2.6l3.1 6.5c.8 1.6 3 2.8 4.8 2.4l3.1-.6c1.8-.3 3.4-2.1 3.6-3.9l1-13c.2-2.6 1.9-6 3.8-7.8l3.9-3.6c1.9-1.8 5.4-3.2 8.1-3.2l9-.1c.6 0 1.1.5 1.1 1.1 0 .6-.5 1.1-1.1 1.1l-9 .1c-2 0-5 1.2-6.6 2.6l-3.9 3.6c-1.5 1.4-2.9 4.3-3.1 6.3l-1 13c-.2 2.8-2.6 5.5-5.4 6l-3.1.6c-.3.2-.7.2-1.1.2z"/><circle fill="#FFAAC9" cx="259.2" cy="276.2" r="9.9"/><path fill="#FFAAC9" d="M293.4 276.2c0 5.4-4.4 9.9-9.9 9.9-5.4 0-9.9-4.4-9.9-9.9 0-5.4 4.4-9.8 9.9-9.8s9.9 4.4 9.9 9.8z"/><circle fill="#FFAAC9" cx="271" cy="267.6" r="9.9"/><path fill="#009544" d="M294.1 278.5h-48.7s11.4 19.6 27.7 19.6c12.4 0 21-8.3 21-8.3v-11.3z"/><path fill="#064831" d="M312.5 275h10.8v3.6h-10.8z"/><path fill="#009544" d="M294.2 279.2h-49c-1 0-1.9-.8-1.9-1.9 0-1 .8-1.9 1.9-1.9h49c1 0 1.9.8 1.9 1.9-.1 1.1-.9 1.9-1.9 1.9z"/><circle fill="#F3F3F3" cx="323.5" cy="276.6" r="4.8"/><path fill="#00C051" d="M320.2 191.4h-22.5l5.9 4.6h-15l9.1 7.4z"/><path fill="#AAEEAB" d="M564.8 314.2l-98.6 105 99.9-86.9z"/><path fill="#74DDA0" d="M575.7 347.4l-109.3 71.8 80.9-92.5 21.4 13.2z"/><path fill="#F3F3F3" d="M554.4 347.2l-87.8 71.8 91.2-84.2z"/><path fill="#009544" d="M565.3 314.7c-.3-.9-.8-.9-1 0l-3.3 10.3c-.3.9-1.3 1.6-2.2 1.6h-10.7c-.9 0-1.1.4-.3 1l8.7 6.3c.7.5 1.1 1.7.8 2.6l-3.3 10.2c-.3.9.1 1.2.8.6l8.7-6.3c.7-.5 2-.5 2.7 0l8.7 6.3c.7.5 1.1.3.8-.6l-3.3-10.2c-.3-.9.1-2 .8-2.6l8.7-6.3c.7-.5.6-1-.3-1h-10.7c-.9 0-1.9-.7-2.2-1.6l-3.4-10.3z"/><path fill="#00C051" d="M568.9 492.8c0 2.3-1.9 4.1-4.1 4.1h-178.4c-2.2 0-4.1-1.9-4.1-4.1v-100.3c0-2.3 1.9-4.1 4.1-4.1h178.4c2.3 0 4.1 1.9 4.1 4.1v100.3z"/><path fill="#AAEEAB" d="M425 434.3h-50.8c-9.2 0-16.6-7.4-16.6-16.6 0-9.2 7.4-16.6 16.6-16.6h50.8c9.2 0 16.6 7.4 16.6 16.6-.1 9.1-7.5 16.6-16.6 16.6zM449.3 464.7h-50.8c-9.2 0-16.6-7.4-16.6-16.6 0-9.2 7.4-16.6 16.6-16.6h50.8c9.2 0 16.6 7.4 16.6 16.6 0 9.2-7.4 16.6-16.6 16.6z"/><path fill="#F3F3F3" d="M545.1 482.2v-18.4l-.2-.1c-9.8-2.4-16.7-11.1-16.7-21.1 0-10.1 6.9-18.7 16.7-21.1l.2-.1v-18.1h24v5.8h-18.8v67.3h18.7v5.8h-23.9zm-.4-55.8c-7.1 2.3-11.8 8.8-11.8 16.2 0 7.4 4.7 13.9 11.8 16.2l.4.1v-32.7l-.4.2zM478 497.2v-28.6h-.3c-13.5-1.3-23.8-12.5-23.8-26s10.2-24.7 23.8-26h.3v-28.4h5.7v28.5h.3c12.8 1.8 22.5 13 22.5 25.8 0 12.9-9.7 24-22.5 25.8h-.3v28.7h-5.7zm-.3-75.3c-10.6 1.3-18.5 10.2-18.5 20.8 0 10.6 8 19.5 18.5 20.8h.3v-41.7l-.3.1zm6 41.5l.4-.1c10-1.9 17.2-10.5 17.2-20.6 0-10.1-7.2-18.8-17.2-20.6l-.4-.1v41.4z"/><path opacity=".1" d="M516.8 439.9c0 8.1-6.6 14.7-14.7 14.7s-14.7-6.6-14.7-14.7 6.6-14.7 14.7-14.7 14.7 6.5 14.7 14.7z"/><path fill="#F3F3F3" d="M547.8 392.4c0 16.4-13.3 29.7-29.7 29.7s-29.7-13.3-29.7-29.7 13.3-29.7 29.7-29.7 29.7 13.3 29.7 29.7z"/><path fill="#064831" d="M541.8 377.9l.8-2.3c-3.8-5.5-9.3-9.6-15.8-11.6l-1.9 1.4c-.4.3-.6 1-.5 1.5l3.5 11c.2.5.7.9 1.3.9h11.4c.5 0 1-.4 1.2-.9zm6 13.8l-1.7-1.2c-.4-.3-1.1-.3-1.6 0l-9.3 6.7c-.4.3-.7 1-.5 1.5l3.5 11c.2.5.7.9 1.3.9h2c3.9-5 6.3-11.4 6.3-18.2v-.7zm-55.6-1.6c-.4-.3-1.1-.3-1.6 0l-2.1 1.5v.8c0 6.7 2.3 12.9 6 17.9h2.6c.5 0 1.1-.4 1.3-.9l3.6-11c.2-.5-.1-1.2-.5-1.5l-9.3-6.8zm26.7 20.6c-.4-.3-1.1-.3-1.6 0l-9.2 6.8c-.4.3-.6 1-.5 1.5l.4 1.3c3.2 1.1 6.5 1.8 10.1 1.8 3.6 0 6.9-.7 10.1-1.8l.4-1.3c.2-.5-.1-1.2-.5-1.5l-9.2-6.8zm4.9-28.5h-11.4c-.5 0-1.1.4-1.3.9l-3.5 11c-.2.5 0 1.2.5 1.5l9.2 6.8c.4.3 1.1.3 1.6 0l9.2-6.8c.4-.3.6-1 .5-1.5l-3.5-11c-.2-.5-.7-.9-1.3-.9zm-12.4-15.2c.2-.5 0-1.2-.5-1.5l-1.8-1.4c-6.5 2.1-12.1 6.4-15.8 12l.6 1.8c.2.5.7.9 1.3.9h11.4c.5 0 1.1-.4 1.3-.9l3.5-10.9z"/><path fill="#74DDA0" d="M456 388.4h-60.5c-10.9 0-19.7-8.8-19.7-19.8 0-10.9 8.8-19.8 19.7-19.8h60.5c10.9 0 19.7 8.8 19.7 19.8 0 10.9-8.8 19.8-19.7 19.8z"/><path fill="#00C051" d="M229.3 335.1s34.7 26 29.9 73.2l-14.6-.5s8.8-41.7-15.3-72.7"/><path fill="#74DDA0" d="M235.3 344.1l-.5-3.5-3-2.1c1.2 1.8 2.4 3.7 3.5 5.6"/><path fill="#74DDA0" d="M237.9 348.6l.5-4.1-2.8.2c5.6 10.1 8.4 20.7 9.7 30.3l6.9-8.8-8.6-1 3.7-9.2c-.1-.1-.1-.2-.2-.2l-6.3.2 2.2-5.9-5.1-1.5z"/><path fill="#00C051" d="M209.1 364.7c-4.5-3.1-5.8-8.9-.1-17.1 5.7-8.2 20.6-12.6 20.6-12.6l-20.5 29.7zM264.8 326.8c-1.3-5.4-6.3-8.8-16.2-6.5-9.9 2.3-19.6 14.9-19.6 14.9l35.8-8.4zM258.6 356.7c3.2-4.5 2.5-10.5-5.7-16.4-8.2-5.9-24.1-5-24.1-5l29.8 21.4zM236.7 365.4c-4.6 1.1-9.2-1.4-11.2-9.8-2.1-8.5 3.7-20.8 3.7-20.8l7.5 30.6zM205.1 331.5c.6-3.6 3.7-6.1 10.3-5.1 6.6 1 13.6 8.8 13.6 8.8l-23.9-3.7z"/><path fill="#FF619A" d="M270.9 560.8c10.3 1.5 20.8 2.2 31.5 2.2 11.3 0 22.3-.8 33.1-2.4l-6.4-11c-1.2-2-2-5.6-1.8-7.9l.6-9c.2-2.3-1.6-4.2-3.9-4.2h-41.8c-2.3 0-4 1.9-3.7 4.2l1.2 9.6c.3 2.3-.5 5.8-1.8 7.8l-7 10.7z"/><path fill="#CA347E" d="M277.3 551.2l50.9-4c-.6-1.8-.9-3.9-.8-5.4l.2-2.6h-48.1l.4 3.1c.3 2.3-.5 5.8-1.8 7.8l-.8 1.1z"/><path fill="#064831" d="M418 516.3v-132.5c0-4.9-4-9-9-9h-211.8c-4.9 0-9 4-9 9v132.5h229.8z"/><path fill="#F3F3F3" d="M402.1 501.6c0 .3-.3.6-.6.6h-196.8c-.3 0-.6-.3-.6-.6v-111.7c0-.3.3-.6.6-.6h196.9c.3 0 .6.3.6.6v111.7z"/><path fill="#FF619A" d="M188.3 514.6v19.8c0 4.9 4 9 9 9h211.7c4.9 0 9-4 9-9v-19.8h-229.7z"/><path fill="#EDECEC" d="M212.8 539.5l22.7-.5-2.2-15.6-18.8-.4zM238.6 526.3h22.4l-1.4-16.9-21 .6z"/><path fill="#FF619A" d="M237.6 510.2l22 .1.4-3.5-22.4-.6z"/><path fill="#009544" d="M211.6 523.7l21.7-.1v-4.4h-21.9z"/><path fill="#FFAAC9" d="M236.3 524.1h21.9l1.3-14h-21.9z"/><path fill="#00C051" d="M209.6 537.3l23.8-.5-.2-13.3-21.8.2z"/><path fill="#AAEEAB" d="M269.8 444.1c-.7-3.5-3.8-6.2-7.5-6.2-1.2 0-2.3.3-3.3.7-1-6-6.1-10.5-12.3-10.5-5.4 0-10 3.4-11.7 8.2-1.7-1.5-3.9-2.4-6.4-2.4-5.3 0-9.7 4.3-9.7 9.7v.6h50.9z"/><path fill="#FF619A" d="M224.9 417.9c-.8-4.4-4.6-7.6-9.2-7.6-1.4 0-2.8.3-4 .9-1.2-7.3-7.5-13-15.2-13-6.6 0-12.3 4.2-14.4 10.1-2.1-1.9-4.9-3-7.9-3-6.6 0-11.9 5.3-11.9 11.9v.7h62.6z"/><path fill="#AAEEAB" d="M304.9 459.8c-43.9 0-55.6 18.5-100.8 20v21.8c0 .3.3.6.6.6h196.9c.3 0 .6-.3.6-.6v-17.3c-44.9-2.8-54.5-24.5-97.3-24.5z"/><path fill="#00C051" d="M343.1 485.6c-12 0-22.7-6.6-23.3-7l4.7-7.6c.2.1 15.9 9.7 27.2 3.6 3.3-1.8 5.4-5.5 6.2-11.1.7-4.7.1-8.9.1-9l8.9-1.3c.1.9 3.1 21.7-10.9 29.3-4.2 2.2-8.6 3.1-12.9 3.1z"/><path fill="#FFAAC9" d="M337.8 459.2c0 1.7 1.4 3.1 3.1 3.1l23 .1c1.7 0 3.1-1.4 3.1-3.1l.2-45.6c0-1.7-1.4-3.1-3.1-3.1l-23-.1c-1.7 0-3.1 1.4-3.1 3.1l-.2 45.6z"/><path fill="#064831" d="M341.6 459.2c0 1.7 1.4 3.1 3.1 3.1l23 .1c1.7 0 3.1-1.4 3.1-3.1l.2-45.6c0-1.7-1.4-3.1-3.1-3.1l-23-.1c-1.7 0-3.1 1.4-3.1 3.1l-.2 45.6z"/><path fill="#AAEEAB" d="M368.1 451.1l-23.6-.1.2-33.7 23.5.2z"/><path fill="#F3F3F3" d="M368.1 451.1l-23.6-.1 23.7-33.5z"/><path fill="#001F2C" d="M353.1 414.3c0 .5.4.8.8.8h5.3c.5 0 .8-.4.8-.8v-.2c0-.5-.4-.8-.8-.8h-5.3c-.5 0-.8.4-.8.8v.2zM353.3 456.5c0 1.6 1.3 2.9 2.8 2.9 1.6 0 2.9-1.3 2.9-2.8 0-1.6-1.3-2.9-2.8-2.9-1.6 0-2.9 1.3-2.9 2.8z"/><path fill="#FFAAC9" d="M360.4 446.7c0 1.1.9 2 2 2h1.5c1.1 0 2-.9 2-2v-1.5c0-1.1-.9-2-2-2h-1.5c-1.1 0-2 .9-2 2v1.5z"/><path fill="#FF619A" d="M353.4 446.7c0 1.1.9 2 2 2h1.5c1.1 0 2-.9 2-2v-1.5c0-1.1-.9-2-2-2h-1.5c-1.1 0-2 .9-2 2v1.5z"/><path fill="#00C051" d="M346.3 446.7c0 1.1.9 2 2 2h1.5c1.1 0 2-.9 2-2v-1.5c0-1.1-.9-2-2-2h-1.5c-1.1 0-2 .9-2 2v1.5z"/><path fill="#FFAAC9" d="M360.4 438.8c0 1.1.9 2 2 2h1.5c1.1 0 2-.9 2-2v-1.5c0-1.1-.9-2-2-2h-1.5c-1.1 0-2 .9-2 2v1.5z"/><path fill="#AAEEAB" d="M353.3 438.8c0 1.1.9 2 2 2h1.5c1.1 0 2-.9 2-2v-1.5c0-1.1-.9-2-2-2h-1.5c-1.1 0-2 .9-2 2v1.5z"/><path fill="#F3F3F3" d="M346.3 438.7c0 1.1.9 2 2 2h1.5c1.1 0 2-.9 2-2v-1.5c0-1.1-.9-2-2-2h-1.5c-1.1 0-2 .9-2 2v1.5z"/><path fill="#FFAAC9" d="M360.3 430.8c0 1.1.9 2 2 2h1.5c1.1 0 2-.9 2-2v-1.5c0-1.1-.9-2-2-2h-1.5c-1.1 0-2 .9-2 2v1.5z"/><path fill="#00C051" d="M353.3 430.8c0 1.1.9 2 2 2h1.5c1.1 0 2-.9 2-2v-1.5c0-1.1-.9-2-2-2h-1.5c-1.1 0-2 .9-2 2v1.5zM346.2 430.8c0 1.1.9 2 2 2h1.5c1.1 0 2-.9 2-2v-1.5c0-1.1-.9-2-2-2h-1.5c-1.1 0-2 .9-2 2v1.5z"/><path fill="#FF619A" d="M360.2 423.4c0 1.1.9 2 2 2h1.5c1.1 0 2-.9 2-2v-1.5c0-1.1-.9-2-2-2h-1.5c-1.1 0-2 .9-2 2v1.5z"/><path fill="#00C051" d="M353.1 423.4c0 1.1.9 2 2 2h1.5c1.1 0 2-.9 2-2v-1.5c0-1.1-.9-2-2-2h-1.5c-1.1 0-2 .9-2 2v1.5z"/><path fill="#F3F3F3" d="M346.1 423.4c0 1.1.9 2 2 2h1.5c1.1 0 2-.9 2-2v-1.5c0-1.1-.9-2-2-2h-1.5c-1.1 0-2 .9-2 2v1.5z"/><circle fill="#00C051" cx="367.3" cy="439" r="10.9"/><circle fill="#F3F3F3" cx="306.4" cy="390.9" r="32.3"/><path fill="#00C051" d="M304.8 338.8c-27.5 0-49.7 22.3-49.7 49.7 0 27.5 22.3 49.7 49.7 49.7 27.5 0 49.7-22.3 49.7-49.7.1-27.5-22.2-49.7-49.7-49.7m0 75.2c-14.1 0-25.5-11.4-25.5-25.5s11.4-25.5 25.5-25.5 25.5 11.4 25.5 25.5-11.4 25.5-25.5 25.5"/><path fill="#009544" d="M304.8 448.8c-11.5 0-20.8 9.3-20.8 20.8v32.5h41.6v-32.5c0-11.4-9.3-20.8-20.8-20.8"/><path fill="#00C051" d="M304.2 338.6l18.3-3.7-5 5 20 .2-15.8 8.4zM284 491.1h41.6v11h-41.6zM284 469.9h41.6v11h-41.6zM304.8 448.8c-7.8 0-14.6 4.3-18.2 10.7h36.4c-3.5-6.3-10.4-10.7-18.2-10.7z"/><path fill="#AAEEAB" d="M402.1 431.8c-1.8-2.5-4.8-4.1-8.1-4.1-5.6 0-10.1 4.5-10.1 10.1 0 2.1.7 4.1 1.8 5.7-3.7 2.6-6.2 7-6.2 11.9 0 7.7 6 14 13.5 14.5v19.5h2.4v-19.5c2.5-.2 4.8-1.1 6.7-2.4v-35.7z"/><path fill="#064831" d="M491.2 258.3h8.6v73.5h-8.6zM518.3 286.7h-73.4l-.1-4h72.6l24.3-44.6v5.1z"/><path fill="#fff" d="M518.2 281c-.5 1-1.9 1.7-2.9 1.7h-68.6c-1.1 0-1.6-.8-1-1.7l22.6-41c.5-1 1.8-1.7 2.9-1.7h68.6c1.1 0 1.6.8 1 1.7l-22.6 41z"/><path fill="#74DDA0" d="M500.6 240.6h-11.2c-1.3 0-2.8.9-3.4 2l-4.3 7.8c-.6 1.1-.1 2 1.2 2h11.2c1.3 0 2.8-.9 3.4-2l4.3-7.8c.6-1.1.1-2-1.2-2zM510.3 254.8h-10.2c-1.3 0-2.8.9-3.4 2l-3.9 7.2c-.6 1.1-.1 2 1.2 2h10.2c1.3 0 2.8-.9 3.4-2l3.9-7.2c.6-1.1.1-2-1.2-2z"/><path fill="#009544" d="M492.8 254.8h-11.2c-1.3 0-2.8.9-3.4 2l-3.9 7.2c-.6 1.1-.1 2 1.2 2h11.2c1.3 0 2.8-.9 3.4-2l3.9-7.2c.6-1.1.1-2-1.2-2z"/><path fill="#74DDA0" d="M519.6 268.3h-9.5c-1.3 0-2.8.9-3.4 2l-4.4 8c-.6 1.1-.1 2 1.2 2h9.5c1.3 0 2.8-.9 3.4-2l4.4-8c.6-1.1.1-2-1.2-2zM485.4 268.3h-11.2c-1.3 0-2.8.9-3.4 2l-4.4 8c-.6 1.1-.1 2 1.2 2h11.2c1.3 0 2.8-.9 3.4-2l4.4-8c.6-1.1.1-2-1.2-2zM534.9 240.6h-9.5c-1.3 0-2.8.9-3.4 2l-4.3 7.8c-.6 1.1-.1 2 1.2 2h9.5c1.3 0 2.8-.9 3.4-2l4.3-7.8c.6-1.1 0-2-1.2-2zM474.4 254.8h-9.2c-1.3 0-2.8.9-3.4 2l-3.9 7.2c-.6 1.1-.1 2 1.2 2h9.2c1.3 0 2.8-.9 3.4-2l3.9-7.2c.6-1.1 0-2-1.2-2z"/><path fill="#009544" d="M466.9 268.3h-9.2c-1.3 0-2.8.9-3.4 2l-4.4 8c-.6 1.1-.1 2 1.2 2h9.2c1.3 0 2.8-.9 3.4-2l4.4-8c.6-1.1.1-2-1.2-2zM482.2 240.6h-9.2c-1.3 0-2.8.9-3.4 2l-4.3 7.8c-.6 1.1-.1 2 1.2 2h9.2c1.3 0 2.8-.9 3.4-2l4.3-7.8c.6-1.1 0-2-1.2-2zM502.9 268.3h-10.2c-1.3 0-2.8.9-3.4 2l-4.4 8c-.6 1.1-.1 2 1.2 2h10.2c1.3 0 2.8-.9 3.4-2l4.4-8c.5-1.1 0-2-1.2-2zM518.1 240.6h-10.2c-1.3 0-2.8.9-3.4 2l-4.3 7.8c-.6 1.1-.1 2 1.2 2h10.2c1.3 0 2.8-.9 3.4-2l4.3-7.8c.6-1.1.1-2-1.2-2zM527.1 254.8h-9.5c-1.3 0-2.8.9-3.4 2l-3.9 7.2c-.6 1.1-.1 2 1.2 2h9.5c1.3 0 2.8-.9 3.4-2l3.9-7.2c.6-1.1 0-2-1.2-2z"/><path fill="#064831" d="M538.1 303.2c-3.9 0-7-2.9-7-6.4 0-2-1.5-3.6-3.4-3.6-1.8 0-3.4 1.5-3.4 3.4 0 3.5-2.8 6.3-6.1 6.3-3.4 0-6.1-2.8-6.1-6.3 0-1.9-2.4-3.4-5.3-3.4h-8.4v-2.8h8.4c4.5 0 8.1 2.8 8.1 6.3 0 1.9 1.5 3.5 3.3 3.5 1.8 0 3.3-1.5 3.3-3.5 0-3.5 2.8-6.3 6.2-6.3 3.4 0 6.2 2.9 6.2 6.4 0 2 1.9 3.6 4.1 3.6 2.2 0 4.1-2.4 4.1-5.3v-8.1h2.8v8.1c.2 4.4-3 8.1-6.8 8.1z"/><path fill="#00C051" d="M543.5 181c-1.2 0-2.2-1-2.2-2.2v-6.6c0-1.2 1-2.2 2.2-2.2 1.2 0 2.2 1 2.2 2.2v6.6c0 1.3-1 2.2-2.2 2.2M582.7 214.4c0-1.2 1-2.2 2.2-2.2h6.6c1.2 0 2.2 1 2.2 2.2 0 1.2-1 2.2-2.2 2.2h-6.6c-1.2 0-2.2-1-2.2-2.2M585.6 192.6c.6 1.1.2 2.4-.8 3l-5.1 2.9c-1.1.6-2.4.3-3-.8-.6-1.1-.2-2.4.8-3l5.1-2.9c1-.7 2.4-.3 3 .8M567.2 176.4c1.1.6 1.4 2 .8 3l-2.9 5.1c-.6 1.1-2 1.4-3 .8-1.1-.6-1.4-2-.8-3l2.9-5.1c.6-1 2-1.4 3-.8M519.7 176.4c-1.1.6-1.4 2-.8 3l2.9 5.1c.6 1.1 2 1.4 3 .8 1.1-.6 1.4-2 .8-3l-2.9-5.1c-.6-1-1.9-1.4-3-.8"/><path fill="#FFAAC9" d="M532.2 261.9v17.6c0 2.2 1.8 3.9 3.9 3.9h15.1c2.2 0 3.9-1.8 3.9-3.9v-17.6h-22.9z"/><path fill="#AAEEAB" d="M574.9 222.9c0-17.2-14-31.2-31.2-31.2s-31.2 14-31.2 31.2c0 10.7 5.4 20.2 13.7 25.8.5.7.8 1.5 1.1 2.3 1 3 2.1 7.9 2.1 8.6 0 1.2 1.2 2.4 2.4 2.4h23.2c1.2 0 2.4-1.2 2.4-2.4 0-.7 1.1-5.6 2.1-8.6.2-.6.5-1.1.8-1.7 8.7-5.5 14.6-15.3 14.6-26.4"/><path fill="#064831" d="M552.6 241.3c-.2 0-.3 0-.5-.1l-19.5-4.4c-1.2-.3-2-1.5-1.8-2.8.2-1 1-1.7 2-1.8h.3c.2 0 .3 0 .5.1l19.5 4.4c1.2.3 2 1.5 1.8 2.8-.2 1-1 1.7-2 1.8h-.3m0-8.7c-.2 0-.3 0-.5-.1l-19.5-4.4c-.6-.1-1.1-.5-1.4-1-.3-.5-.4-1.1-.3-1.7.2-1 1-1.7 2-1.8h.3c.2 0 .3 0 .5.1l19.5 4.4c1.2.3 2 1.5 1.8 2.8-.2 1-1 1.7-2 1.8-.2-.1-.3-.1-.4-.1"/><path fill="#009544" d="M541.8 259.3v-9.5c0-1.2-1-1.7-2.6-2.3 0 0-4.9-1.4-6.5-1.8-.9-.1-1.7-.8-1.9-1.8-.3-1.2.5-2.5 1.8-2.8l19.6-4.4.5-.1h.3c1 .1 1.8.8 2 1.8.1.6 0 1.2-.3 1.8-.3.5-.9.9-1.5 1l-10.9 2.4c1.3.3 2.5.7 3 1 .9.5 1.4 1.4 1.4 2.5v12.1h-4.9zm-8.8-22.3h-.3c-1-.1-1.8-.8-2-1.8-.1-.6 0-1.2.3-1.8.3-.5.9-.9 1.5-1l19.6-4.4.5-.1h.3c1 .1 1.8.8 2 1.8.1.6 0 1.2-.3 1.7s-.9.9-1.5 1l-19.6 4.4c-.1.2-.3.2-.5.2m0-8.7h-.3c-1-.1-1.8-.8-2-1.8-.3-1.3.5-2.5 1.8-2.8l19.6-4.4.5-.1h.3c1 .1 1.8.8 2 1.8.1.6 0 1.2-.3 1.8-.3.5-.9.9-1.5 1l-19.6 4.4c-.1.1-.3.1-.5.1"/><path fill="#FF619A" d="M537.7 283.4c.8 2.6 3.1 4.4 5.9 4.4 2.8 0 5.1-1.9 5.9-4.4h-11.8zM531.8 272.2c-1.2 0-2.2-.9-2.3-2.1-.2-1.3.8-2.5 2.1-2.6l24.5-3.1c1.3-.2 2.5.8 2.6 2.1.2 1.3-.8 2.5-2.1 2.6l-24.5 3.1h-.3zM531.8 280c-1.2 0-2.2-.9-2.3-2.1-.2-1.3.8-2.5 2.1-2.6l24.5-3.1c1.3-.2 2.5.8 2.6 2.1.2 1.3-.8 2.5-2.1 2.6l-24.5 3.1h-.3z"/><circle opacity=".6" fill="#F3F3F3" cx="553.1" cy="216.1" r="14"/><circle fill="#F3F3F3" cx="423.3" cy="277.8" r="16.6"/><path fill="#009544" d="M438.3 371.8l-12.7-29.4 4.7-2 12.7 29.4z"/><path fill="#F3F3F3" d="M439.3 361.1l-4.8 1.9 3.8 8.8 4.7-2z"/><path fill="#009544" d="M410.2 360.4c-.3 0-.7-.1-1-.2l-11.8-5 2-4.7 9.6 4.1 6.6-12.6 4.6 2.3-7.7 14.7c-.5.9-1.4 1.4-2.3 1.4z"/><path fill="#F3F3F3" d="M397.4 355.2l7.6 3.3 1.8-4.8-7.4-3.2z"/><path fill="#fff" d="M438.2 372.8c5.8-2 7.4.6 10.1-.5 2.3-.9 9.8-3.9 11.1-4.4.3.5.6 1 .8 1.7l-20.1 8-1.9-4.8z"/><path fill="#FF619A" d="M448.3 372.3c2.3-.9 11.1-4.4 11.1-4.4s-1.7-3.3-6.3-1.4c0 0-1.8-2.4-5.9-3.4-3.4-.8-6.3-.1-7 0l1.2 3c.6 1.5-.1 3.1-1.6 3.7l-2.4 1 .8 2c5.8-2 7.4.6 10.1-.5z"/><path fill="#FFAAC9" d="M445.2 372.4c-.3-1.5.4-2.6 1.6-3.1 1.5-.6 6.4-2.5 6.4-2.5s-.2-.3-.7-.8l-6.1 2.4c-1.5.6-2.4 2-2.3 3.8.4.1.8.1 1.1.2z"/><path fill="#064831" d="M437.4 370.8l2.4-1c1.5-.6 2.2-2.2 1.6-3.7l-1.2-3s.7-.2 1.3-.3c.3.8 1 2.4 1.3 3.3.5 1.3.2 3.8-2.6 4.9-1.5.6-1.7.7-2.4.9l-.4-1.1z"/><path fill="#AAEEAB" d="M440.4 376c.1.3.5.5.8.3l2.5-1c.3-.1.5-.5.3-.8v-.1c-.1-.3-.5-.5-.8-.3l-2.5 1c-.3.1-.5.5-.3.8v.1z"/><path fill="#064831" d="M447.2 366.2c.3.6.9.9 1.5.6.6-.3.9-.9.6-1.5-.3-.6-.9-.9-1.5-.6-.5.2-.8.9-.6 1.5z"/><path fill="#fff" d="M448.1 366.4c.4.2.9.1 1.1-.3l1.1-1.7c.2-.4.1-.9-.3-1.1l-.1-.1c-.4-.2-.9-.1-1.1.3l-1.1 1.7c-.2.4-.1.9.3 1.1l.1.1z"/><path fill="#064831" d="M443.9 365.5c.4.5 1.1.7 1.6.3.5-.3.7-1.1.3-1.6-.3-.5-1.1-.7-1.6-.3-.5.3-.7 1-.3 1.6z"/><path fill="#fff" d="M444.8 365.5c.4.1.9-.2.9-.7l.5-2c.1-.4-.2-.9-.7-.9h-.2c-.4-.1-.9.2-.9.7l-.5 2c-.1.4.2.9.7.9h.2zM398.5 350c-2.6 5.6-5.6 5-6.6 7.6-1 2.3-4 9.8-4.5 11.1-.5-.1-1.1-.3-1.8-.6l8.2-20.1 4.7 2z"/><path fill="#FF619A" d="M391.9 357.6c-1 2.3-4.5 11.1-4.5 11.1s3.6 1 5.4-3.6c0 0 3 .4 6.6-1.9 3-1.9 4.5-4.5 4.8-5l-3-1.2c-1.5-.6-2.2-2.3-1.6-3.7l1-2.4-2-.8c-2.7 5.5-5.7 4.9-6.7 7.5z"/><path fill="#FFAAC9" d="M393.9 355.4c1.2.8 1.6 2 1.1 3.3-.6 1.5-2.6 6.4-2.6 6.4s.4.1 1.1 0l2.5-6c.6-1.5.3-3.1-1.2-4.3l-.9.6z"/><path fill="#064831" d="M400.5 350.8l-1 2.4c-.6 1.5.1 3.1 1.6 3.7l3 1.2s-.3.7-.7 1.2c-.8-.3-2.4-1-3.3-1.4-1.3-.5-2.9-2.5-1.7-5.3.6-1.5.7-1.7 1-2.3l1.1.5z"/><path fill="#AAEEAB" d="M394.7 349.4c-.3-.1-.7 0-.8.3l-1 2.5c-.1.3 0 .6.3.8h.1c.3.1.7 0 .8-.3l1-2.5c.1-.3 0-.7-.3-.8h-.1z"/><path fill="#064831" d="M397 361.1c-.6-.2-1.3.1-1.5.7-.2.6.1 1.3.7 1.5.6.2 1.3-.1 1.5-.7.2-.6-.1-1.2-.7-1.5z"/><path fill="#fff" d="M396.3 361.6c-.4.1-.7.6-.5 1l.5 2c.1.4.6.7 1 .5l.2-.1c.4-.1.7-.6.5-1l-.5-2c-.1-.4-.6-.7-1-.5l-.2.1z"/><path fill="#064831" d="M399.9 359.2c-.6-.1-1.2.3-1.3.9-.1.6.3 1.2.9 1.3.6.1 1.2-.3 1.3-.9.1-.6-.3-1.2-.9-1.3z"/><path fill="#fff" d="M399.2 359.8c-.3.3-.4.8-.2 1.1l1.1 1.7c.3.4.8.4 1.1.2l.1-.1c.4-.3.4-.8.2-1.1l-1.1-1.7c-.3-.4-.8-.4-1.1-.2l-.1.1z"/><path fill="#F3F3F3" d="M448.4 321.4l-1.9 1.5-3.4-4.5 2-1.4z"/><path fill="#064831" d="M431.8 334.1c-.2 0-.4 0-.6-.1-1-.2-1.8-.7-2.3-1.5l-8-12.2c-1.1-1.6-.6-3.8 1-4.9 1.6-1.1 3.8-.6 4.9 1l5.9 9 10-7.5 4.2 5.7-13.1 9.7c-.5.5-1.2.8-2 .8z"/><path fill="#00C051" d="M447.7 320c2.3 1.6 5.5 1 7-1.4 1.6-2.3 1-5.5-1.4-7-2.3-1.6-5.5-1-7 1.4-1.5 2.2-.9 5.4 1.4 7zM423.5 249c-15.8 0-28.7 12.8-28.7 28.7 0 15.8 12.8 28.7 28.7 28.7 15.8 0 28.7-12.8 28.7-28.7 0-15.9-12.8-28.7-28.7-28.7zm0 43.4c-8.1 0-14.7-6.6-14.7-14.7s6.6-14.7 14.7-14.7 14.7 6.6 14.7 14.7-6.6 14.7-14.7 14.7z"/><path fill="#009544" d="M422.7 314.5c-6.6 0-12 5.4-12 12v18.8h24v-18.8c0-6.7-5.4-12-12-12z"/><path fill="#AAEEAB" d="M422.7 309.4c-6.6 0-12 5.4-12 12v18.8h24v-18.8c0-6.6-5.4-12-12-12z"/><path fill="#F3F3F3" d="M410.584 333.098l1.155 2.217-4.966 2.588-1.155-2.217z"/><path fill="#064831" d="M405 336.2l-6.3-11.8c-.5-.9-.6-2-.2-3 .4-1 1.2-1.7 2.2-2.1l15.7-5.1c1.9-.6 3.9.4 4.5 2.3.6 1.9-.4 3.9-2.3 4.5l-11.6 3.8 4.3 8.1-6.3 3.3z"/><path fill="#00C051" d="M409.5 336.5c-2.5 1.3-3.4 4.4-2.1 6.9 1.3 2.5 4.4 3.4 6.9 2.1 2.5-1.3 3.4-4.4 2.1-6.9-1.4-2.5-4.5-3.4-6.9-2.1zM380.2 287.2c-.8 4.8 1 9.5.5 12.3-.6 3.8-3.6 6.1-3.6 6.1s12.1 1.6 13.7-8.1c.7-4.3 0-8.4.6-11.6.9-5.3 3.1-6.7 3.1-6.7s-12.9-.2-14.3 8zM384.8 326.9h-12.8c-.9 0-1.5-.7-1.5-1.5 0-.9.7-1.5 1.5-1.5h12.8c.9 0 1.5.7 1.5 1.5.1.8-.6 1.5-1.5 1.5M377.5 335.2h-12.8c-.9 0-1.5-.7-1.5-1.5 0-.9.7-1.5 1.5-1.5h12.8c.9 0 1.5.7 1.5 1.5s-.7 1.5-1.5 1.5"/><path fill="#F3F3F3" d="M438 382.2c-.7-3.5-3.8-6.2-7.5-6.2-1.2 0-2.3.3-3.3.7-1-6-6.1-10.5-12.3-10.5-5.4 0-10 3.4-11.7 8.2-1.7-1.5-3.9-2.4-6.4-2.4-5.3 0-9.7 4.3-9.7 9.7v.6h50.9z"/><path fill="#064831" d="M196.2 94c-2.7-2.6-2.8-6.9-.2-9.6l28.8-30c2.6-2.7 6.9-2.8 9.6-.2 2.7 2.6 2.8 6.9.2 9.7l-28.8 30c-2.6 2.6-6.9 2.7-9.6.1M194.4 58.2c0-3.8 3.1-6.8 6.9-6.8l45 .4c3.8 0 6.8 3.1 6.8 6.9 0 3.8-3.1 6.8-6.9 6.8l-45-.4c-3.8 0-6.8-3.1-6.8-6.9"/><path fill="#00C051" d="M298 51.9l-20.5-19.7c-.9-.8-2.2-.8-3 .1l-17 17.7c-.8.9-2.5 1.5-3.6 1.5h-24.1c-1.2 0-2.8.7-3.6 1.5l-13.9 14.5c-.8.8-1.4 2.5-1.4 3.7l1.5 30.2c0 .4.5 2.7 2.2 4 2.9 2.3 6.9 2.5 9.5-.2 1.3-1.3 1.9-3.1 1.9-4.8l.1-.5-.3-21.8c0-1.2-.1-2 .7-2.9l6.9-7.2c.8-.9 1.7-.7 2.9-.7l22.7 1.7c1.2.1 1.5.8.7 1.7 0 0-7.4 9.1-13 15.9-4.6 5.6-4.8 13.1.2 19 .4.5 1.8.8 2.5.1l48.8-50.7c.7-.9.7-2.3-.2-3.1"/><path fill="#064831" d="M226.1 111.7c1.3 3.7 4.8 6.3 8.9 6.3 4.1 0 7.6-2.6 8.9-6.3h-17.8zM246.2 130.3h-.8l-7.1-16.7c3.7-1.3 6.4-4.9 6.4-9.1 0-5.4-4.3-9.7-9.7-9.7-5.3 0-9.7 4.3-9.7 9.7 0 4.2 2.7 7.7 6.4 9.1l-7.1 16.7h-.8c-.8 0-1.4.6-1.4 1.4v6.3c0 .8.6 1.4 1.4 1.4h22.2c.8 0 1.4-.6 1.4-1.4v-6.3c.2-.8-.5-1.4-1.2-1.4"/><path fill="#27604C" d="M224.8 130.3h-2 22.7l-5.7-13.5h-9.2l-5.8 13.5z"/><path fill="#00C051" d="M286.4 149.8h-3.9l-2-21.3.5-.3 4.6-3.3c.5-.3.8-1 .8-1.6v-11.1c0-.6-.5-1-1-1h-5.7c-.6 0-1 .5-1 1v2.5c0 .6-.5 1-1 1h-4.5c-.6 0-1-.5-1-1v-2.5c0-.6-.5-1-1-1h-5.4c-.6 0-1 .5-1 1v2.5c0 .6-.5 1-1 1h-5.1c-.6 0-1-.5-1-1v-2.5c0-.6-.5-1-1-1h-5.9c-.6 0-1 .5-1 1v11.1c0 .6.4 1.3.8 1.6l4.2 3.3.6.3-2 21.2h-3.1c-.6 0-1.1.5-1.1 1.1v11.3c0 .6.5 1.1 1.1 1.1h36.2c.6 0 1.1-.5 1.1-1.1v-11.3c-.1-.5-.6-1-1.2-1"/><path fill="#009544" d="M286.4 149.8h-3.9l-2-21.3.5-.3 4.6-3.3c.5-.3.8-1 .8-1.6v-11.1c0-.6-.5-1-1-1h-5.7c-.6 0-1 .5-1 1v2.5c0 .6-.5 1-1 1h-4.5c-.6 0-1-.5-1-1v-2.5c0-.6-.5-1-1-1h-2.7v52.1h18c.6 0 1.1-.5 1.1-1.1v-11.3c-.1-.6-.6-1.1-1.2-1.1"/><path fill="#064831" d="M268.3 128.2s-4.4 2.5-4.4 5v7.1h8.9v-7.1c0-2.5-4.5-5-4.5-5"/><g fill="#009544"><path d="M232.8 159.4c0-.1.1-.1.1-.1v-.1s0-.1-.1-.1c-.1-.1-.1-.2-.2-.4 0-.1-.1-.1-.2-.2s-.1-.2-.2-.2l-.6-.5c-.1-.1-.2-.2-.4-.3h-.1c-.1-.1-.3-.2-.4-.2h-.1c-.3-.2-.7-.3-1.1-.5h-.1l-.6-.2h-.1l-.7-.2h-.1c-.9-.2-1.9-.3-3.2-.3-6.9 0-8.5 3.5-8.5 3.5s1.6 3.5 8.5 3.5c1 0 1.8-.1 2.6-.2 4-.9 5.2-3 5.5-3.5zM213.3 162.1l3-2.8-3-2.6z"/></g><g fill="#009544"><path d="M287.9 171.4v-.2s0-.1-.1-.1c-.1-.1-.1-.2-.2-.4 0-.1-.1-.1-.2-.2s-.1-.2-.2-.2l-.6-.5c-.1-.1-.2-.2-.4-.3h-.1l-.4-.3c-.3-.2-.7-.3-1.1-.5h-.1l-.6-.2h-.1l-.7-.2h-.1c-.9-.2-1.9-.3-3.2-.3-6.9 0-8.5 3.5-8.5 3.5s1.6 3.5 8.5 3.5c1 0 1.8-.1 2.6-.2 4.1-.8 5.3-2.9 5.5-3.4zM268.4 174.2l3-2.9-3-2.6z"/></g><g fill="#00C051"><path d="M310.5 164.9v-.30000000000000004c0-.1-.1-.2-.2-.3l-.1-.2c0-.1-.1-.1-.2-.2l-.4-.4-.3-.2-.3-.2c-.2-.1-.5-.2-.8-.4h-.1c-.1-.1-.3-.1-.5-.1h-.1l-.5-.1h-.1c-.7-.1-1.4-.2-2.3-.2-5.1 0-6.2 2.6-6.2 2.6s1.2 2.6 6.2 2.6c.7 0 1.3-.1 1.9-.1 2.9-.6 3.8-2.1 4-2.5zM296.1 166.9l2.2-2.1-2.2-1.9z"/></g><path fill="#00C051" d="M237.3 183.6s3.4 7.6 18.4 7.6c15 0 17.6-7.6 17.6-7.6s-2.6-7.6-17.6-7.6c-15 0-18.4 7.6-18.4 7.6zM237.3 183.6l-6.4-5.7v11.8z"/><path fill="#009544" d="M273.3 183.6h-36s3.4-7.6 18.4-7.6c14.9 0 17.6 7.6 17.6 7.6z"/><path fill="#F3F3F3" d="M273.3 183.6s-2-5.8-12.5-7.3c-.6 2-1 4.2-1 6.5 0 2.9.5 5.6 1.4 8 10.1-1.6 12.1-7.2 12.1-7.2z"/><path fill="#00C051" d="M262.3 183.3c0 1.4 1.2 2.6 2.6 2.6 1.4 0 2.6-1.2 2.6-2.6 0-1.4-1.2-2.6-2.6-2.6-1.5 0-2.6 1.2-2.6 2.6zM496.4 105.4c-1.1 0-2.1-.9-2.1-2.1v-30.3c0-1.1.9-2.1 2.1-2.1 1.1 0 2.1.9 2.1 2.1v30.3c0 1.2-.9 2.1-2.1 2.1zM508.4 124.9c-1.1 0-2.1-.9-2.1-2.1v-29.5c0-1.1.9-2.1 2.1-2.1 1.1 0 2.1.9 2.1 2.1v29.5c0 1.2-1 2.1-2.1 2.1zM518.1 100.6c-1.1 0-2.1-.9-2.1-2.1v-14.2c0-1.1.9-2.1 2.1-2.1 1.1 0 2.1.9 2.1 2.1v14.2c0 1.2-1 2.1-2.1 2.1z"/><path fill="#009544" d="M513.7 51c-.4.7-.2 1.7.3 2.3l14.8 15.5c.5.6 1 .4 1-.4v-18.3c0-7.2-6.3-8.2-8.7-8.2-2.4 0-7.4 9.1-7.4 9.1zM502.7 51c.4.7.2 1.7-.3 2.3l-14.8 15.5c-.5.6-1 .4-1-.4v-18.3c0-7.2 6.3-8.2 8.7-8.2 2.4 0 7.4 9.1 7.4 9.1z"/><path fill="#AAEEAB" d="M498.6 57.2h19.2c3.8-3.6 6-10.2 6-20.9 0-17.8-10-36.3-15.7-36.3-6 0-15.5 18.5-15.5 36.3.1 10.7 2.2 17.3 6 20.9z"/><path fill="#009544" d="M510.6 67.2c0 1.4-1 2.6-2.1 2.6-1.2 0-2.1-1.2-2.1-2.6v-22.1c0-1.4 1-2.6 2.1-2.6 1.2 0 2.1 1.2 2.1 2.6v22.1z"/><path fill="#F3F3F3" d="M515.2 27.3c0 3.8-3.1 6.9-6.9 6.9-3.8 0-6.9-3.1-6.9-6.9 0-3.8 3.1-6.9 6.9-6.9 3.8 0 6.9 3.1 6.9 6.9z"/><path fill="#FF619A" d="M498.9 10h18.6c-3-6-6.6-10-9.2-10-2.9 0-6.4 4-9.4 10z"/><path fill="#064831" d="M27 496.5c-14.7 0-26.7-12-26.7-26.7 0-14.8 12-26.8 26.7-26.8s26.7 12 26.7 26.7c.1 14.8-11.9 26.8-26.7 26.8zm0-48.3c-11.9 0-21.5 9.7-21.5 21.5 0 11.9 9.7 21.5 21.5 21.5 11.9 0 21.5-9.7 21.5-21.5.1-11.8-9.6-21.5-21.5-21.5zM109.6 496.5c-14.7 0-26.6-11.9-26.6-26.6 0-14.7 11.9-26.6 26.6-26.6 14.7 0 26.6 11.9 26.6 26.6 0 14.6-11.9 26.6-26.6 26.6zm0-48.1c-11.8 0-21.4 9.6-21.4 21.4 0 11.8 9.6 21.4 21.4 21.4 11.8 0 21.4-9.6 21.4-21.4 0-11.7-9.6-21.4-21.4-21.4z"/><path fill="#F1F2F1" d="M29.1 471.2c-.3 0-.7-.1-1-.2-1.3-.6-1.9-2.1-1.4-3.4l19.6-45.5c.4-1 1.4-1.6 2.4-1.6h10.7c1.4 0 2.6 1.2 2.6 2.6 0 1.4-1.2 2.6-2.6 2.6h-9l-18.9 43.9c-.4 1-1.3 1.6-2.4 1.6zM110 475.6h-35.9c-.7 0-1.4-.3-1.9-.9l-31.6-34.8c-.7-.8-.9-1.9-.5-2.8.4-.9 1.4-1.6 2.4-1.6h44.7c.9 0 1.7.4 2.2 1.2l22.5 34.6c.4.5.6 1 .6 1.7.1 1.4-1 2.6-2.5 2.6zm-34.7-5.2h29.9l-19.3-29.6h-37.4l26.8 29.6zM74.1 475.6c-.3 0-.6-.1-1-.2-1.3-.5-2-2.1-1.5-3.4l17.9-45.3c.5-1.3 2-2 3.4-1.5 1.3.5 2 2.1 1.5 3.4l-17.9 45.3c-.3 1.1-1.3 1.7-2.4 1.7z"/><path fill="#064831" d="M98.2 434.7c-5.8 0-3.2-1.3-9-3.3-5-1.8-8.7-1.5-9.7-1.5s-.8-1.2-.8-1.2c0-3.6 7.2-3.3 7.2-3.3h17.1c2.3 0 2.5 3.3 2.5 3.3s.9 6-7.3 6z"/><path fill="#FFAAC9" d="M66 434.6h2.6v7.1h-2.6zM84.8 469.5h2.6v7.1h-2.6zM96.6 469.5h2.6v7.1h-2.6zM51.4 453.1l-1.7-1.8 5.9-4.6 1.6 1.8zM60.4 463.5l-1.7-1.8 5.8-4.7 1.7 1.8zM91.9 451.9l-1.6-1.9 6.2-4.3 1.6 1.8zM100.1 464.3l-1.6-1.9 6.2-4.3 1.6 1.9zM29.2 458.3l1.1-2.2 7 3-1 2.1zM35.1 444.5l1.1-2.2 7.1 2.9-1.1 2.2zM41.1 430.7l1.1-2.2 7.1 2.9-1.1 2.2zM80.4 446.6l1.1-2.2 7 3-1.1 2.2zM75.6 459.1l1.1-2.2 7 3-1 2.1zM55.2 434.6h2.6v7.1h-2.6zM76.8 434.6h2.6v7.1h-2.6z"/><path fill="#F3F3F3" d="M81.2 472.3c0 3.8-3 6.8-6.8 6.8s-6.8-3.1-6.8-6.8c0-3.8 3-6.8 6.8-6.8s6.8 3 6.8 6.8z"/><path fill="#064831" d="M76.8 422.9c4.1 4.2 10.6 5.2 15.8 2.1 5.2-3.1 7.4-9.4 5.6-14.9l-21.4 12.8z"/><path fill="#FF619A" d="M67.2 407.2l9.5 16.7 21.9-13.2-8.3-11.6s-9.3-15.8-29.2-2.4l6.1 10.5z"/><path fill="#064831" d="M74 454.4l-5.7-19.6c-.3-.9.1-1.9.8-2.5l16.6-13.1 2.9 3.7-15.3 12.1 5.2 18-4.5 1.4zM78.1 451.9l-10 5.3c-1.4.7-2.1 2.4-1.4 3.7.7 1.3 2.4 1.7 3.8.9l10-5.3-2.4-4.6z"/><path fill="#FF619A" d="M57.7 424.5c-.9-.2-1.8-.7-2.3-1.6-1.1-1.7-.6-3.9 1.1-4.9 0 0 12.5-6.6 7.6-16.1-1.8-3.1 18-.2 18-.2 1.7-1.1 3.9-.6 4.9 1.1 1.1 1.7.6 3.9-1.1 4.9l-16.1 3.3c3.1 4.5-9.5 13-9.5 13-.7.6-1.7.7-2.6.5z"/><path fill="#009544" d="M60.3 422.8c0 2.8-2.3 5.1-5.1 5.1s-5.1-2.3-5.1-5.1 2.3-5.1 5.1-5.1 5.1 2.3 5.1 5.1z"/><path fill="#00C051" d="M59.8 347.1c-14.3 0-25.8 11.6-25.8 25.8 0 14.3 11.6 25.8 25.8 25.8 14.3 0 25.8-11.6 25.8-25.8 0-14.2-11.6-25.8-25.8-25.8zm0 39.1c-7.3 0-13.2-5.9-13.2-13.2 0-7.3 5.9-13.2 13.2-13.2s13.2 5.8 13.2 13.2c0 7.3-5.9 13.2-13.2 13.2z"/><path fill="#009544" d="M59.8 359.7c6.1 0 11.3 4.2 12.8 9.8h12.8c-1.7-12.6-12.5-22.4-25.6-22.4-13.1 0-23.9 9.7-25.6 22.4h12.8c1.5-5.6 6.6-9.8 12.8-9.8zM41.2 369.5h-15.9c-1 0-1.9-.8-1.9-1.9 0-1 .8-1.9 1.9-1.9h15.9c1 0 1.9.8 1.9 1.9 0 1.1-.9 1.9-1.9 1.9z"/></svg>