<?xml version="1.0" encoding="iso-8859-1"?>
<!-- Generator: Adobe Illustrator 17.0.0, SVG Export Plug-In . SVG Version: 6.00 Build 0)  -->
<!DOCTYPE svg PUBLIC "-//W3C//DTD SVG 1.1//EN" "http://www.w3.org/Graphics/SVG/1.1/DTD/svg11.dtd">
<svg version="1.1" xmlns="http://www.w3.org/2000/svg" xmlns:xlink="http://www.w3.org/1999/xlink" x="0px" y="0px" viewBox="0 0 600 600" xml:space="preserve">
<g id="Layer_7">
	<g>
		<path style="fill:#01C051;" d="M301.315,263.426c20.554,0,37.208-16.666,37.208-37.185c0-20.56-16.654-37.208-37.208-37.208
			c-0.444,0-0.871,0.052-1.316,0.069v74.255C300.444,263.374,300.871,263.426,301.315,263.426z"/>
		<path style="fill:#01C051;" d="M300,71.061v85.227c0.444-0.011,0.871-0.069,1.316-0.069c38.685,0,70.021,31.347,70.021,70.021
			c0,38.634-31.336,69.998-70.021,69.998c-0.444,0-0.871-0.057-1.316-0.069v27.252l1.131,0.577l40.883-21.085l-0.005-0.34
			l0.144,0.265l0.317-0.161l0.029,0.779l24.95,44.996l-23.15,5.786l2.434,68.735H300v105.966
			c126.44,0,228.939-102.5,228.939-228.945C528.939,173.56,426.439,71.061,300,71.061z M458.439,422.972h-40.312l-17.121-73.338
			l19.32,0.265l19.689,24.979l19.066-24.979l19.764-0.265L458.439,422.972z M498.486,280.288c0,33.038-26.785,59.851-59.857,59.851
			c-33.084,0-59.874-26.813-59.874-59.851c0-33.043,26.79-59.851,59.874-59.851C471.701,220.437,498.486,247.245,498.486,280.288z"
			/>
		<path style="fill:#01C051;" d="M406.803,280.288c0,17.554,14.249,31.792,31.826,31.792c17.578,0,31.803-14.238,31.803-31.792
			c0-17.566-14.226-31.791-31.803-31.791C421.051,248.497,406.803,262.722,406.803,280.288z"/>
		<path style="fill:#95D9A0;" d="M300,263.357v-74.255c-19.942,0.692-35.887,17.023-35.887,37.139
			C264.112,246.316,280.058,262.659,300,263.357z"/>
		<path style="fill:#95D9A0;" d="M256.002,422.972l1.996-68.579l-23.773-5.941l25.267-45.568l0.006-0.207l0.086,0.046l0.081-0.15
			v0.19L300,323.421v-27.252c-38.068-0.704-68.711-31.739-68.711-69.929c0-38.23,30.644-69.248,68.711-69.952V71.061
			c-126.44,0-228.939,102.499-228.939,228.933c0,126.445,102.499,228.945,228.939,228.945V422.972H256.002z M192.389,422.972
			h-74.348l1.892-48.96l-17.353-4.65l18.944-36.574v0.018l33.886,17.468l34.024-17.422v-0.064l0.029,0.052l0.064-0.034l0.005,0.173
			l18.847,36.384l-17.543,4.696L192.389,422.972z M157.535,324.235c-32.346,0-58.53-26.213-58.53-58.513
			c0-32.328,26.185-58.536,58.53-58.536c32.34,0,58.541,26.208,58.541,58.536C216.076,298.021,189.875,324.235,157.535,324.235z"/>
		<path style="fill:#95D9A0;" d="M157.535,234.611c-17.191,0-31.106,13.932-31.106,31.111c0,17.15,13.914,31.076,31.106,31.076
			c17.179,0,31.105-13.926,31.105-31.076C188.64,248.543,174.714,234.611,157.535,234.611z"/>
		<path style="fill:#FFFFFF;" d="M378.755,280.288c0,33.038,26.79,59.851,59.874,59.851c33.072,0,59.857-26.813,59.857-59.851
			c0-33.043-26.785-59.851-59.857-59.851C405.545,220.437,378.755,247.245,378.755,280.288z M470.432,280.288
			c0,17.554-14.226,31.792-31.803,31.792c-17.577,0-31.826-14.238-31.826-31.792c0-17.566,14.249-31.791,31.826-31.791
			C456.206,248.497,470.432,262.722,470.432,280.288z"/>
		<polygon style="fill:#227E38;" points="440.014,374.878 420.325,349.9 401.005,349.634 418.127,422.972 458.439,422.972 
			478.843,349.634 459.079,349.9 		"/>
		<path style="fill:#FFFFFF;" d="M231.288,226.24c0,38.19,30.644,69.225,68.711,69.929c0.444,0.012,0.871,0.069,1.316,0.069
			c38.685,0,70.021-31.364,70.021-69.998c0-38.674-31.336-70.021-70.021-70.021c-0.444,0-0.871,0.058-1.316,0.069
			C261.932,156.993,231.288,188.011,231.288,226.24z M300,189.101c0.444-0.017,0.871-0.069,1.316-0.069
			c20.554,0,37.208,16.648,37.208,37.208c0,20.519-16.654,37.185-37.208,37.185c-0.444,0-0.871-0.052-1.316-0.069
			c-19.942-0.698-35.887-17.041-35.887-37.116C264.112,206.125,280.058,189.794,300,189.101z"/>
		<polygon style="fill:#FFFFFF;" points="259.665,302.573 259.584,302.723 259.498,302.677 259.492,302.884 234.225,348.452 
			257.998,354.393 256.002,422.972 300,422.972 346.733,422.972 344.298,354.238 367.448,348.452 342.499,303.455 342.47,302.677 
			342.152,302.838 342.008,302.573 342.014,302.913 301.13,323.998 300,323.421 259.665,302.763 		"/>
		<path style="fill:#FFFFFF;" d="M157.535,207.186c-32.346,0-58.53,26.208-58.53,58.536c0,32.299,26.185,58.513,58.53,58.513
			c32.34,0,58.541-26.213,58.541-58.513C216.076,233.394,189.875,207.186,157.535,207.186z M157.535,296.798
			c-17.191,0-31.106-13.926-31.106-31.076c0-17.179,13.914-31.111,31.106-31.111c17.179,0,31.105,13.932,31.105,31.111
			C188.64,282.872,174.714,296.798,157.535,296.798z"/>
		<path style="fill:#227E38;" d="M189.534,332.98l-0.005-0.173l-0.064,0.034l-0.029-0.052v0.064l-34.024,17.422l-33.886-17.468
			v-0.018l-18.944,36.574l17.353,4.65l-1.892,48.96h74.348l-1.552-48.913l17.543-4.696L189.534,332.98z M155.723,396.869
			l-9.553-11.791l9.553-32.871l9.565,32.871L155.723,396.869z"/>
		<polygon style="fill:#FFFFFF;" points="146.17,385.078 155.723,396.869 165.288,385.078 155.723,352.207 		"/>
	</g>
</g>
<g id="Layer_1">
</g>
</svg>
