<?xml version="1.0" encoding="iso-8859-1"?>
<!-- Generator: Adobe Illustrator 17.0.0, SVG Export Plug-In . SVG Version: 6.00 Build 0)  -->
<!DOCTYPE svg PUBLIC "-//W3C//DTD SVG 1.1//EN" "http://www.w3.org/Graphics/SVG/1.1/DTD/svg11.dtd">
<svg version="1.1" xmlns="http://www.w3.org/2000/svg" xmlns:xlink="http://www.w3.org/1999/xlink" x="0px" y="0px" viewBox="0 0 600 600" xml:space="preserve">
<g id="Layer_8">
	<g>
		<path style="fill:#FD609D;" d="M301.315,263.426c20.554,0,37.208-16.66,37.208-37.185c0-20.559-16.654-37.208-37.208-37.208
			c-0.444,0-0.871,0.058-1.316,0.069v74.255C300.444,263.38,300.871,263.426,301.315,263.426z"/>
		<path style="fill:#FD609D;" d="M300,71.061v85.227c0.444-0.011,0.871-0.069,1.316-0.069c38.685,0,70.021,31.348,70.021,70.021
			c0,38.639-31.336,69.998-70.021,69.998c-0.444,0-0.871-0.057-1.316-0.069v27.252l1.131,0.577l40.883-21.079l-0.006-0.346
			l0.144,0.265l0.318-0.161l0.028,0.784l24.95,44.996l-23.15,5.78l2.434,68.74H300v105.961
			c126.44,0,228.939-102.499,228.939-228.939S426.44,71.061,300,71.061z M458.439,422.978h-40.312l-17.122-73.344l19.32,0.265
			l19.689,24.979l19.066-24.979l19.764-0.265L458.439,422.978z M498.486,280.294c0,33.032-26.784,59.845-59.857,59.845
			c-33.084,0-59.874-26.813-59.874-59.845c0-33.043,26.79-59.857,59.874-59.857C471.701,220.437,498.486,247.251,498.486,280.294z"
			/>
		<path style="fill:#FD609D;" d="M406.803,280.294c0,17.549,14.249,31.786,31.826,31.786c17.577,0,31.803-14.238,31.803-31.786
			c0-17.572-14.226-31.797-31.803-31.797C421.052,248.497,406.803,262.722,406.803,280.294z"/>
		<path style="fill:#FD9CBD;" d="M300,263.357v-74.255c-19.943,0.692-35.887,17.029-35.887,37.139
			C264.112,246.316,280.057,262.664,300,263.357z"/>
		<path style="fill:#FD9CBD;" d="M256.002,422.978l1.996-68.579l-23.774-5.941l25.268-45.574l0.006-0.207l0.086,0.046l0.081-0.15
			v0.196L300,323.421v-27.252c-38.068-0.704-68.712-31.739-68.712-69.929c0-38.224,30.644-69.248,68.712-69.952V71.061
			c-126.44,0-228.939,102.5-228.939,228.939S173.56,528.939,300,528.939V422.978H256.002z M192.389,422.978h-74.348l1.892-48.965
			l-17.352-4.65l18.944-36.574v0.023l33.885,17.468l34.024-17.422v-0.07l0.029,0.058l0.063-0.035l0.006,0.173l18.846,36.378
			l-17.543,4.696L192.389,422.978z M157.535,324.241c-32.346,0-58.53-26.213-58.53-58.519c0-32.328,26.184-58.53,58.53-58.53
			c32.34,0,58.542,26.202,58.542,58.53C216.076,298.027,189.874,324.241,157.535,324.241z"/>
		<path style="fill:#FD9CBD;" d="M157.535,234.617c-17.191,0-31.105,13.926-31.105,31.105c0,17.156,13.914,31.082,31.105,31.082
			c17.179,0,31.105-13.926,31.105-31.082C188.64,248.543,174.714,234.617,157.535,234.617z"/>
		<path style="fill:#FFFFFF;" d="M378.755,280.294c0,33.032,26.79,59.845,59.874,59.845c33.072,0,59.857-26.813,59.857-59.845
			c0-33.043-26.784-59.857-59.857-59.857C405.545,220.437,378.755,247.251,378.755,280.294z M470.432,280.294
			c0,17.549-14.226,31.786-31.803,31.786c-17.578,0-31.826-14.238-31.826-31.786c0-17.572,14.249-31.797,31.826-31.797
			C456.207,248.497,470.432,262.722,470.432,280.294z"/>
		<polygon style="fill:#B4237D;" points="440.014,374.878 420.325,349.9 401.005,349.634 418.127,422.978 458.439,422.978 
			478.843,349.634 459.079,349.9 		"/>
		<path style="fill:#FFFFFF;" d="M231.288,226.24c0,38.19,30.644,69.225,68.712,69.929c0.444,0.012,0.871,0.069,1.316,0.069
			c38.685,0,70.021-31.359,70.021-69.998c0-38.673-31.336-70.021-70.021-70.021c-0.444,0-0.871,0.058-1.316,0.069
			C261.932,156.993,231.288,188.017,231.288,226.24z M300,189.101c0.444-0.011,0.871-0.069,1.316-0.069
			c20.554,0,37.208,16.649,37.208,37.208c0,20.525-16.654,37.185-37.208,37.185c-0.444,0-0.871-0.046-1.316-0.069
			c-19.943-0.692-35.887-17.041-35.887-37.116C264.112,206.131,280.057,189.794,300,189.101z"/>
		<polygon style="fill:#FFFFFF;" points="259.665,302.573 259.584,302.723 259.498,302.677 259.492,302.884 234.224,348.458 
			257.998,354.399 256.002,422.978 300,422.978 346.733,422.978 344.298,354.238 367.448,348.458 342.498,303.461 342.47,302.677 
			342.152,302.838 342.008,302.573 342.014,302.919 301.131,323.998 300,323.421 259.665,302.769 		"/>
		<path style="fill:#FFFFFF;" d="M157.535,207.192c-32.346,0-58.53,26.202-58.53,58.53c0,32.305,26.184,58.519,58.53,58.519
			c32.34,0,58.542-26.213,58.542-58.519C216.076,233.394,189.874,207.192,157.535,207.192z M157.535,296.804
			c-17.191,0-31.105-13.926-31.105-31.082c0-17.179,13.914-31.105,31.105-31.105c17.179,0,31.105,13.926,31.105,31.105
			C188.64,282.878,174.714,296.804,157.535,296.804z"/>
		<path style="fill:#B4237D;" d="M189.534,332.986l-0.006-0.173l-0.063,0.035l-0.029-0.058v0.07l-34.024,17.422l-33.885-17.468
			v-0.023l-18.944,36.574l17.352,4.65l-1.892,48.965h74.348l-1.552-48.919l17.543-4.696L189.534,332.986z M155.723,396.869
			l-9.553-11.791l9.553-32.871l9.564,32.871L155.723,396.869z"/>
		<polygon style="fill:#FFFFFF;" points="146.17,385.078 155.723,396.869 165.288,385.078 155.723,352.207 		"/>
	</g>
</g>
<g id="Layer_1">
</g>
</svg>
