<?xml version="1.0" encoding="utf-8"?>
<!-- Generator: Adobe Illustrator 17.1.0, SVG Export Plug-In . SVG Version: 6.00 Build 0)  -->
<!DOCTYPE svg PUBLIC "-//W3C//DTD SVG 1.1//EN" "http://www.w3.org/Graphics/SVG/1.1/DTD/svg11.dtd">
<svg version="1.1" xmlns="http://www.w3.org/2000/svg" xmlns:xlink="http://www.w3.org/1999/xlink" x="0px" y="0px" viewBox="0 0 600 600" xml:space="preserve">
<g id="Layer_1" display="none">
	<g id="Layer_9" display="inline">
		<g>
			<path fill="#95D9A0" d="M360.5,409.3v60c9.3,8,19.4,13.6,23.2,8.5c6.2-8.3,6.5-14.3,15.6-10.4c5.2,2.2,13.3,3.7,20.9,4.3v-44.1
				c-2.2,0.8-4.3,2-6.3,3.5c-6.2,4.7-6.8-1.8-17.7-13.5c-10.8-11.7-42.6-28-67.5-6.2c-1.3,1.1-2.6,2.3-4,3.4
				c3.2,0.4,6.7,0.6,10.8,0.6C355.4,415.4,360.5,409.3,360.5,409.3z"/>
			<path fill="#95D9A0" d="M420.2,807.9c-17.1,7.8-37,12.3-40.6-3c-5.2-21.8-9-20-13.5-29.1c-4.5-9.1-18.9-34.8-13.5-49.8
				c5.4-15,14.1-18.3,2.1-40.5c-12-22.2-22.8-39.5-19.7-47.8c3.1-8.3,2.1-19.2-15.6-23.9c-17.7-4.7-69.6,10.4-85.1-12.5
				c-15.6-22.8-19.7-99.7,11.4-122.5c1.1-0.8,2.3-1.6,3.5-2.4v-66.6c0-1.4,1.1-2.5,2.5-2.5h2.1c1.4,0,2.5,1.1,2.5,2.5v5.9
				c4.3-2.5,15.2-7.9,29.9-7.9c5.5,0,9.9,0.7,13.9,1.5c6.3-0.2,11.7-1.6,13-7.4c2.1-9.3-3.1-11.4,5.2-17.6
				c8.3-6.2,37.3-22.6,57.1-21.8c19.8,0.8,24.9,8.3,29.1-1c4.2-9.3,1-17.6,7.3-21.8c6.2-4.2-1.6-23.7-14.9-14.1
				c-13.3,9.6-41.8,14.3-44.9,1.8c-2.9-11.5,44-22.7,68.3-21.9v-30.1c0.3,0,0.5,0,0.7,0c-176.6,0-319.9,143.2-319.9,319.9
				c0,176.7,143.2,319.9,319.9,319.9c-0.2,0-0.5,0-0.7,0L420.2,807.9L420.2,807.9z"/>
			<path fill="#01C051" d="M434.6,471.6c4.5-0.6,9.8-0.2,13.6,2.3c5.6,3.7,6.1-3.7,9.2-6.1c3.1-2.4,6.3-0.1,6.3-0.1
				c4.2,0.7,8.4,0,12.4-5.4c8.3-11.4,2.1-28-16.6-23.9c-18.7,4.2-22.1-0.5-27-7.3c-3.3-4.5-7.9-5.1-12.4-3.5v44.1
				C425.7,472.1,431,472.1,434.6,471.6z"/>
			<path fill="#01C051" d="M420.2,305.5c1.9,0.1,3.8,0.2,5.4,0.4c21.8,2.9,29.8,17.2,23.6,25.5c-5.9,7.8,50.1,3.6,74.8-12.6
				c10.8,4,21.2,8.8,31.4,14.1V305c-40.9-19-86.4-29.6-134.4-29.6c-0.2,0-0.5,0-0.7,0V305.5z"/>
			<path fill="#01C051" d="M653.4,375.7c-3.1,0.4-6.6,0.7-10.5,0.7c-10,0-19-2.9-29.8-4.7c59.5,51.2,98.4,125.7,102.3,209.4
				c-2.9-9.2-18.8-58.2-34.8-54.5c-17.6,4.2-11.4,61.3-24.9,62.3c-13.5,1-20.8-80.2-41.5-84.1c-20.8-3.9-34.3-7.3-48.8-16.6
				c-14.5-9.3-34.3-17.7-22.8,4.2c11.4,21.8,59.2,12.5,34.3,41.5c-24.9,29.1-49.9,26-62.3,7.3c-12.4-18.8-35.3-63.3-46-58.5
				c0,0-23.2-2.5-25,15.5c-1.3,13.5,32.3,78.7,43.1,84.4c10.8,5.7,51.4-3.7,48.7,10.5c-1.6,8-8.4,22.2-17,36.3c0.4,0,0.7,0,1.2,0
				c19.8,0,25-6.1,25-6.1v76.4c0,0-9.3,4.1-23.8,4.1c-10.6,0-20-3.3-31.8-5.1c2.4,15.2-2.8,33.5-13.7,39.7
				c-11.3,6.5-15.9,6.5-15.6,18.7c0.3,12.2-4.8,29.8-20.8,40.5c-4.7,3.2-11.4,7-18.6,10.3v107.2c0.3,0,0.5,0,0.7,0
				c176.7,0,319.9-143.2,319.9-319.9C740.8,510.2,707.6,433,653.4,375.7z M525.7,772.2c-6.3,17.2-18.8,49.3-29,45.4
				c-10.2-3.9-6.3-18.8,0.8-24.3c7.1-5.5-7-22.7,8.6-23.5c0,0,14.1-7.1,16.5-19.6C522.6,750.3,532,755,525.7,772.2z"/>
			<path fill="#FFFFFF" d="M562.5,377V445c0,1.4-1.1,2.5-2.5,2.5h-2.1c-1.4,0-2.5-1.1-2.5-2.5V332.9c-10.2-5.2-20.6-10-31.4-14.1
				c-24.7,16.2-80.7,20.4-74.8,12.6c6.2-8.3-1.8-22.6-23.6-25.5c-1.6-0.2-3.4-0.3-5.4-0.4c-24.3-0.7-71.2,10.4-68.3,21.9
				c3.1,12.5,31.6,7.8,44.9-1.8c13.3-9.6,21.2,9.9,14.9,14.1c-6.2,4.2-3.1,12.5-7.3,21.8c-4.2,9.4-9.3,1.8-29.1,1
				c-19.8-0.8-48.8,15.6-57.1,21.8c-8.3,6.2-3.1,8.3-5.2,17.6c-1.3,5.8-6.6,7.2-13,7.4c7.7,1.7,14.3,4.2,24.6,5.3
				c1.3-1.1,2.7-2.3,4-3.4c24.9-21.8,56.7-5.5,67.5,6.2c10.8,11.7,11.5,18.2,17.7,13.5c2-1.5,4.2-2.7,6.3-3.5
				c4.5-1.6,9-1.1,12.4,3.5c4.9,6.7,8.3,11.4,27,7.3c18.7-4.2,24.9,12.5,16.6,23.9c-4,5.5-8.2,6.1-12.4,5.4c0,0-3.2-2.3-6.3,0.1
				c-3.1,2.4-3.6,9.9-9.2,6.1c-3.8-2.5-9.1-3-13.6-2.3c-3.7,0.5-8.9,0.5-14.4,0.1c-7.6-0.6-15.6-2-20.9-4.3
				c-9-3.9-9.3,2.1-15.6,10.4c-3.8,5.1-13.9-0.5-23.2-8.5v16.4c0,0-9.3,4.1-23.8,4.1c-14.5,0-26.7-6.2-45.9-6.2
				c-16,0-30.3,5-34.6,6.7v68.1c0,1.4-1.1,2.5-2.5,2.5h-2.1c-1.4,0-2.5-1.1-2.5-2.5v-81.9c-1.2,0.8-2.4,1.6-3.5,2.4
				c-31.2,22.9-27,99.7-11.4,122.5c15.6,22.8,67.5,7.8,85.1,12.5c17.7,4.7,18.7,15.6,15.6,23.9c-3.1,8.3,7.7,25.6,19.7,47.8
				c12,22.2,3.3,25.5-2.1,40.5c-5.4,15,9,40.7,13.5,49.8c4.5,9.1,8.3,7.3,13.5,29.1c3.7,15.3,23.6,10.8,40.6,3
				c7.2-3.3,13.8-7.1,18.6-10.3c16-10.7,21.1-28.3,20.8-40.5c-0.3-12.2,4.2-12.2,15.6-18.7c10.9-6.2,16.1-24.4,13.7-39.7
				c-4.3-0.7-8.9-1.1-14.1-1.1c-16,0-30.3,5-34.6,6.7v68.1c0,1.4-1.1,2.6-2.5,2.6h-2.1c-1.4,0-2.5-1.1-2.5-2.6V623.9
				c0-1.4,1.1-2.6,2.5-2.6h2.1c1.4,0,2.5,1.1,2.5,2.6v5.9c4.3-2.5,15.2-7.9,29.9-7.9c18.8,0,24.9,7.2,48.2,7.5
				c8.6-14.1,15.4-28.3,17-36.3c2.7-14.1-37.9-4.8-48.7-10.5c-10.8-5.7-44.5-71-43.1-84.4c1.8-18,25-15.5,25-15.5
				c10.7-4.8,33.6,39.7,46,58.5c12.4,18.8,37.4,21.8,62.3-7.3c24.9-29.1-22.8-19.7-34.3-41.5c-11.4-21.8,8.3-13.5,22.8-4.2
				c14.5,9.3,28.1,12.7,48.8,16.6c20.7,3.9,28,85.1,41.5,84.1c13.5-1,7.3-58.1,24.9-62.3c16-3.8,32,45.2,34.8,54.5
				c-4-83.7-42.8-158.2-102.3-209.4c-4.9-0.8-10.1-1.5-16.1-1.5C581.1,370.3,566.8,375.3,562.5,377z"/>
			<path fill="#FFFFFF" d="M522.6,750.3c-2.4,12.5-16.5,19.6-16.5,19.6c-15.7,0.8-1.6,18-8.6,23.5c-7,5.5-11,20.4-0.8,24.3
				c10.2,3.9,22.7-28.2,29-45.4C532,755,522.6,750.3,522.6,750.3z"/>
			<path fill="#227E38" d="M555.4,445c0,1.4,1.1,2.5,2.5,2.5h2.1c1.4,0,2.5-1.1,2.5-2.5V377c4.3-1.7,18.5-6.7,34.6-6.7
				c5.9,0,11.2,0.6,16.1,1.5c10.8,1.8,19.8,4.7,29.8,4.7c3.9,0,7.4-0.3,10.5-0.7c8.3-1.2,13.4-3.4,13.4-3.4v-76.4
				c0,0-5.1,6.1-25,6.1c-24.4,0-30.2-7.5-49.4-7.5c-14.7,0-25.6,5.4-29.9,7.9v-5.9c0-1.4-1.1-2.5-2.5-2.5h-2.1
				c-1.4,0-2.5,1.1-2.5,2.5v8.5v27.9L555.4,445L555.4,445z"/>
			<path fill="#227E38" d="M440.2,629.8v-5.9c0-1.4-1.1-2.6-2.5-2.6h-2.1c-1.4,0-2.5,1.1-2.5,2.6v148.5c0,1.4,1.1,2.6,2.5,2.6h2.1
				c1.4,0,2.5-1.1,2.5-2.6v-68.1c4.3-1.7,18.6-6.7,34.6-6.7c5.1,0,9.8,0.5,14.1,1.1c11.8,1.8,21.2,5.1,31.8,5.1
				c14.5,0,23.8-4.1,23.8-4.1v-76.4c0,0-5.1,6.1-25,6.1c-0.4,0-0.7,0-1.2,0c-23.4-0.3-29.4-7.5-48.2-7.5
				C455.4,621.9,444.5,627.3,440.2,629.8z"/>
			<path fill="#227E38" d="M251.6,561h2.1c1.4,0,2.5-1.1,2.5-2.5v-68.1c4.3-1.7,18.5-6.7,34.6-6.7c19.2,0,31.4,6.2,45.9,6.2
				c14.5,0,23.8-4.1,23.8-4.1v-16.4v-60c0,0-5.1,6.1-25,6.1c-4.1,0-7.6-0.3-10.8-0.6c-10.3-1.1-16.9-3.7-24.6-5.3
				c-4.1-0.9-8.4-1.5-13.9-1.5c-14.7,0-25.7,5.4-29.9,7.9v-5.9c0-1.4-1.1-2.5-2.5-2.5h-2.1c-1.4,0-2.5,1.1-2.5,2.5v66.6v81.9
				C249.1,559.8,250.2,561,251.6,561z"/>
		</g>
	</g>
	<g id="Layer_1_1_" display="inline">
	</g>
</g>
<g id="Layer_2" display="none">
	<g display="inline">
		<g>
			<path fill="#32B646" d="M744.1,595.3c0,179.1-145.2,324.3-324.2,324.3V271C599,271,744.1,416.2,744.1,595.3z"/>
			<path fill="#95D9A0" d="M95.6,595.3c0,179.1,145.2,324.3,324.3,324.3V271C240.8,271,95.6,416.2,95.6,595.3z"/>
		</g>
		<polygon fill="#95D9A0" points="154.3,754.7 104.9,878.3 240.9,845.4 		"/>
		<path fill-rule="evenodd" clip-rule="evenodd" fill="#FFFFFF" d="M629.2,429l-69.5,69.5l-48.2-4.9l-4.1-47.4l69.2-69.2
			c-34.8-14.1-76.1-7-104.3,21.2c-31.1,31.1-36.4,78-16.2,114.6L270.3,698.6c-15.9-3.2-33,1.4-45.2,13.7
			c-19.5,19.5-19.5,51.2,0,70.8c19.5,19.5,51.2,19.5,70.7,0c10.3-10.3,15.1-24.1,14.5-37.6l191.1-191.1c35.3,15.6,78.1,9,107-19.9
			C637,505.9,643.9,464,629.2,429z M260.5,766.5c-10.4,0-18.9-8.4-18.9-18.9c0-10.4,8.4-18.9,18.9-18.9c10.4,0,18.9,8.4,18.9,18.9
			C279.3,758.1,270.9,766.5,260.5,766.5z"/>
		<polygon fill="#FFFFFF" points="557.8,701.2 506.4,752.1 250.3,493.4 233.8,426.2 301.7,442.5 		"/>
		<polygon fill="#007219" points="557.8,701.2 506.4,752.1 250.3,493.4 262,481.8 278.6,465.4 292.7,451.4 301.7,442.5 		"/>
		<path fill="#FFFFFF" d="M517.9,762.2l18.9,19.1c6.4,6.4,16.9,6.5,23.3,0.1l27.4-27.1c6.4-6.4,6.5-16.9,0.1-23.3L568.7,712
			L517.9,762.2z"/>
		<polygon fill="#32B646" points="267.3,434.3 233.8,426.2 242.1,459.8 		"/>
	</g>
</g>
<g id="Layer_3">
	<g>
		<g>
			<path fill="#FD609D" d="M744.1,595.3c0,179.1-145.2,324.3-324.2,324.3V271C599,271,744.1,416.2,744.1,595.3z"/>
			<path fill="#FD9CBD" d="M95.6,595.3c0,179.1,145.2,324.3,324.3,324.3V271C240.8,271,95.6,416.2,95.6,595.3z"/>
		</g>
		<polygon fill="#FD9CBD" points="154.3,754.7 104.9,878.3 240.9,845.4 		"/>
		<path fill-rule="evenodd" clip-rule="evenodd" fill="#FFFFFF" d="M629.2,429l-69.5,69.5l-48.2-4.9l-4.1-47.4l69.2-69.2
			c-34.8-14.1-76.1-7-104.3,21.2c-31.1,31.1-36.4,78-16.2,114.6L270.3,698.6c-15.9-3.2-33,1.4-45.2,13.7
			c-19.5,19.5-19.5,51.2,0,70.8c19.5,19.5,51.2,19.5,70.7,0c10.3-10.3,15.1-24.1,14.5-37.6l191.1-191.1c35.3,15.6,78.1,9,107-19.9
			C637,505.9,643.9,464,629.2,429z M260.5,766.5c-10.4,0-18.9-8.4-18.9-18.9c0-10.4,8.4-18.9,18.9-18.9c10.4,0,18.9,8.4,18.9,18.9
			C279.3,758.1,270.9,766.5,260.5,766.5z"/>
		<polygon fill="#FFFFFF" points="557.8,701.2 506.4,752.1 250.3,493.4 233.8,426.2 301.7,442.5 		"/>
		<polygon fill="#B4237D" points="557.8,701.2 506.4,752.1 250.3,493.4 262,481.8 278.6,465.4 292.7,451.4 301.7,442.5 		"/>
		<path fill="#FFFFFF" d="M517.9,762.2l18.9,19.1c6.4,6.4,16.9,6.5,23.3,0.1l27.4-27.1c6.4-6.4,6.5-16.9,0.1-23.3L568.7,712
			L517.9,762.2z"/>
		<polygon fill="#FD609D" points="267.3,434.3 233.8,426.2 242.1,459.8 		"/>
	</g>
</g>
</svg>
