<?xml version="1.0" encoding="utf-8"?>
<!-- Generator: Adobe Illustrator 17.1.0, SVG Export Plug-In . SVG Version: 6.00 Build 0)  -->
<!DOCTYPE svg PUBLIC "-//W3C//DTD SVG 1.1//EN" "http://www.w3.org/Graphics/SVG/1.1/DTD/svg11.dtd" [
	<!ENTITY st0 "display:none;">
	<!ENTITY st1 "display:inline;">
	<!ENTITY st2 "fill:#F0619C;">
	<!ENTITY st3 "fill:#F49BBC;">
	<!ENTITY st4 "fill-rule:evenodd;clip-rule:evenodd;fill:#FFFFFF;">
	<!ENTITY st5 "fill:#FFFFFF;">
	<!ENTITY st6 "fill:#B4257D;">
	<!ENTITY st7 "fill:#39B54A;">
	<!ENTITY st8 "fill:#98D09E;">
	<!ENTITY st9 "fill:#0E733A;">
]>
<svg version="1.1" xmlns="http://www.w3.org/2000/svg" xmlns:xlink="http://www.w3.org/1999/xlink" x="0px" y="0px"
	 viewBox="0 0 600 600" style="enable-background:new 0 0 600 600;" xml:space="preserve">
<g id="Layer_1" style="&st0;">
	<g style="&st1;">
		<g>
			<path style="&st2;" d="M547.5,297.8c0,136.1-110.9,246.4-247.6,246.4V51.4C436.7,51.4,547.5,161.7,547.5,297.8z"/>
			<path style="&st3;" d="M52.3,297.8c0,136.1,110.9,246.4,247.6,246.4V51.4C163.1,51.4,52.3,161.7,52.3,297.8z"/>
		</g>
		<polygon style="&st3;" points="97.1,418.9 59.3,512.9 163.2,487.8 		"/>
		<path style="&st4;" d="M459.7,171.5l-53,52.8l-36.8-3.7l-3.1-36l52.8-52.6c-26.6-10.7-58.1-5.3-79.7,16.1
			c-23.7,23.6-27.8,59.3-12.4,87.1L185.7,376.3c-12.1-2.4-25.2,1-34.6,10.4c-14.9,14.8-14.9,38.9,0,53.8c14.9,14.8,39.1,14.8,54,0
			c7.9-7.9,11.6-18.3,11.1-28.6l146-145.2c27,11.9,59.6,6.9,81.7-15.1C465.7,229.9,471,198.1,459.7,171.5z M178.1,427.9
			c-8,0-14.4-6.4-14.4-14.3c0-7.9,6.4-14.3,14.4-14.3c7.9,0,14.4,6.4,14.4,14.3C192.5,421.5,186.1,427.9,178.1,427.9z"/>
		<polygon style="&st5;" points="405.2,378.3 366,417 170.4,220.4 157.8,169.3 209.6,181.7 		"/>
		<polygon style="&st6;" points="405.2,378.3 366,417 170.4,220.4 179.3,211.6 192,199.1 202.8,188.5 209.6,181.7 		"/>
		<path style="&st5;" d="M374.7,424.6l14.4,14.5c4.9,4.9,12.9,4.9,17.8,0.1l20.9-20.6c4.9-4.8,5-12.8,0.1-17.7l-14.4-14.5
			L374.7,424.6z"/>
		<polygon style="&st2;" points="183.4,175.5 157.8,169.3 164.1,194.9 		"/>
	</g>
</g>
<g id="Layer_2">
	<g>
		<g>
			<path style="&st7;" d="M547.5,297.8c0,136.1-110.9,246.4-247.6,246.4V51.4C436.7,51.4,547.5,161.7,547.5,297.8z"/>
			<path style="&st8;" d="M52.3,297.8c0,136.1,110.9,246.4,247.6,246.4V51.4C163.1,51.4,52.3,161.7,52.3,297.8z"/>
		</g>
		<polygon style="&st8;" points="97.1,418.9 59.3,512.9 163.2,487.8 		"/>
		<path style="&st4;" d="M459.7,171.5l-53,52.8l-36.8-3.7l-3.1-36l52.8-52.6c-26.6-10.7-58.1-5.3-79.7,16.1
			c-23.7,23.6-27.8,59.3-12.4,87.1L185.7,376.3c-12.1-2.4-25.2,1-34.6,10.4c-14.9,14.8-14.9,38.9,0,53.8c14.9,14.8,39.1,14.8,54,0
			c7.9-7.9,11.6-18.3,11.1-28.6l146-145.2c27,11.9,59.6,6.9,81.7-15.1C465.7,229.9,471,198.1,459.7,171.5z M178.1,427.9
			c-8,0-14.4-6.4-14.4-14.3c0-7.9,6.4-14.3,14.4-14.3c7.9,0,14.4,6.4,14.4,14.3C192.5,421.5,186.1,427.9,178.1,427.9z"/>
		<polygon style="&st5;" points="405.2,378.3 366,417 170.4,220.4 157.8,169.3 209.6,181.7 		"/>
		<polygon style="&st9;" points="405.2,378.3 366,417 170.4,220.4 179.3,211.6 192,199.1 202.8,188.5 209.6,181.7 		"/>
		<path style="&st5;" d="M374.7,424.6l14.4,14.5c4.9,4.9,12.9,4.9,17.8,0.1l20.9-20.6c4.9-4.8,5-12.8,0.1-17.7l-14.4-14.5
			L374.7,424.6z"/>
		<polygon style="&st7;" points="183.4,175.5 157.8,169.3 164.1,194.9 		"/>
	</g>
</g>
</svg>
