<?xml version="1.0" encoding="UTF-8" standalone="no"?>
<svg width="147px" height="138px" viewBox="0 0 147 138" version="1.1" xmlns="http://www.w3.org/2000/svg" xmlns:xlink="http://www.w3.org/1999/xlink" xmlns:sketch="http://www.bohemiancoding.com/sketch/ns">
    <!-- Generator: Sketch 3.0.4 (8053) - http://www.bohemiancoding.com/sketch -->
    <title>Cheetah Head 3</title>
    <desc>Created with Sketch.</desc>
    <defs></defs>
    <g id="Cheetah-Landing" stroke="none" stroke-width="1" fill="none" fill-rule="evenodd" sketch:type="MSPage">
        <g id="Desktop-Start-Campaign" sketch:type="MSArtboardGroup" transform="translate(-179.000000, -961.000000)">
            <g id="Who-can-join?" sketch:type="MSLayerGroup" transform="translate(-7.000000, 745.000000)">
                <g id="Result" transform="translate(144.000000, 181.000000)" sketch:type="MSShapeGroup">
                    <g id="Cheetah-Head-3" transform="translate(42.000000, 35.000000)">
                        <path d="M137.666872,68.9937094 C137.666872,107.097632 106.868804,137.987026 68.877536,137.987026 C30.886268,137.987026 0.0882,107.097632 0.0882,68.9937094 C0.0882,30.8897863 30.886268,0.000393162393 68.877536,0.000393162393 C106.868804,0.000393162393 137.666872,30.8897863 137.666872,68.9937094" id="Fill-1" fill="#28245C"></path>
                        <path d="M124.333972,53.5351538 L128.032492,40.0718974 C115.538276,36.8288974 110.609856,33.6338632 106.402324,30.5894103 C95.313428,22.5659487 88.551624,20.6091795 74.006268,20.6429915 C66.197432,20.6610769 59.040296,21.818547 45.156636,29.443735 C28.231448,38.7394701 13.31134,43.6274615 3.635408,47.1834188 C1.369452,54.0254274 0.141512,61.3421795 0.141512,68.9469231 C0.141512,104.653932 27.18716,134.025718 61.853092,137.57912 C63.871892,133.962222 66.247216,130.573359 68.931044,127.458333 C80.090108,114.506188 96.585468,106.308162 114.992416,106.308162 C121.442384,106.308162 127.656172,107.318 133.489524,109.182179 L146.863976,59.8434444 L124.333972,53.5351538" id="Fill-2" fill="#00C051"></path>
                        <path d="M56.756308,35.9847778 C56.756308,46.8384188 47.983936,55.6368034 37.16258,55.6368034 C26.341028,55.6368034 17.56846,46.8384188 17.56846,35.9847778 C17.56846,25.1313333 26.341028,16.3327521 37.16258,16.3327521 C47.983936,16.3327521 56.756308,25.1313333 56.756308,35.9847778" id="Fill-3" fill="#00C051"></path>
                        <path d="M45.14468,29.3957692 C43.248576,27.0877094 40.37698,25.6162991 37.16258,25.6162991 C31.4531,25.6162991 26.82456,30.2583675 26.82456,35.9847778 C26.82456,36.8397094 26.929812,37.6694786 27.124244,38.4642564 C32.786292,36.0653761 38.869348,33.1306154 45.14468,29.3957692" id="Fill-4" fill="#FFFFFF"></path>
                        <path d="M78.913324,37.5794444 C78.913324,37.5794444 85.025584,41.4747009 95.210724,49.1922821 C104.9482,56.5707607 115.017308,58.4508632 117.17076,52.5726923 C119.688184,45.7021795 109.372116,40.1017778 99.782816,38.5063248 C90.19234,36.9098889 78.913324,37.5794444 78.913324,37.5794444" id="Fill-5" fill="#FFFFFF"></path>
                        <path d="M113.982428,43.4186923 C111.96206,41.9527863 111.51126,41.4404957 104.990144,39.6319487 C101.39766,39.4471624 97.932968,40.798265 96.947872,44.2274274 C96.094684,47.1973761 97.170724,50.5526239 98.145628,51.2514701 C98.145628,51.2514701 98.904344,51.8728632 100.772224,52.8406325 C97.72854,51.9520855 73.362016,47.4387778 65.440284,62.8489744 C56.82726,79.6098803 73.546256,96.2123419 73.546256,96.2123419 L94.970624,65.5574701 C99.739696,65.0097949 111.560064,65.9543675 115.377164,60.976735 C120.712676,54.0195299 117.686632,46.4755299 113.982428,43.4186923" id="Fill-6" fill="#28245C"></path>
                        <path d="M77.436072,119.275838 C77.436072,119.275838 57.507772,98.3570427 72.834188,78.1021026 C84.613004,62.5358205 102.99408,63.4855043 112.41286,69.7430769 C125.124832,78.1889915 141.350888,80.3962051 141.350888,80.3962051 L133.549696,109.272607 C133.549696,109.272607 102.405492,99.1305897 77.436072,119.275838" id="Fill-7" fill="#FFFFFF"></path>
                        <path d="M87.472448,31.5516752 C87.508316,31.5866667 79.021124,34.6043846 73.89004,34.9466325 C68.759936,35.2896667 62.02518,33.6258034 63.097104,28.7197265 C64.166676,23.8144359 73.273424,24.6756581 73.345552,24.7430855 C73.416308,24.8111026 80.783752,25.1541368 87.472448,31.5516752" id="Fill-8" fill="#28245C"></path>
                        <path d="M64.95342,46.825641 C66.080224,52.3629402 60.576152,58.1587436 52.658144,59.7695299 C44.739352,61.3812991 37.407776,58.198453 36.280776,52.6609573 C35.153972,47.1234615 40.657652,41.3296239 48.575072,39.717265 C56.492884,38.1052991 63.82544,41.2881453 64.95342,46.825641" id="Fill-9" fill="#28245C"></path>
                        <path d="M53.709684,73.930453 C54.987408,78.1815214 51.53428,82.9773162 45.993556,84.6439316 C40.453616,86.3101538 34.92524,84.2142051 33.645752,79.9637265 C32.366656,75.7120684 35.822332,70.9166667 41.36188,69.2512308 C46.902996,67.5844188 52.430392,69.6799744 53.709684,73.930453" id="Fill-10" fill="#28245C"></path>
                        <path d="M31.270232,64.9777521 C31.887436,69.842547 26.097008,74.585265 18.335016,75.5715128 C10.573808,76.5569744 3.782016,73.413641 3.164224,68.5496325 C2.546824,63.6850342 8.336272,58.9423162 16.098852,57.9564615 C23.860648,56.9698205 30.651852,60.1141368 31.270232,64.9777521" id="Fill-11" fill="#28245C"></path>
                        <path d="M61.01676,98.0533248 C61.833884,102.415855 56.885668,107.005829 49.96432,108.302479 C43.043952,109.598932 36.768816,107.113949 35.9513,102.751026 C35.133,98.3873162 40.081216,93.7983248 47.00276,92.502265 C53.924892,91.2048291 60.19944,93.6909915 61.01676,98.0533248" id="Fill-12" fill="#28245C"></path>
                        <path d="M28.320432,90.7851282 C28.846888,93.8036325 25.084668,96.9807778 19.917716,97.8793504 C14.752136,98.778906 10.137904,97.0621624 9.612428,94.0426752 C9.086756,91.0249573 12.848584,87.847812 18.015732,86.9482564 C23.181312,86.0488974 27.794956,87.7668205 28.320432,90.7851282" id="Fill-13" fill="#28245C"></path>
                        <path d="M136.726856,57.0201453 C136.651592,57.5131709 136.612392,58.018188 136.612392,58.5324444 C136.612392,63.352812 140.040824,67.3685726 144.585476,68.2645897 L146.863976,59.8585812 L136.726856,57.0201453" id="Fill-14" fill="#28245C"></path>
                        <path d="M140.282492,84.3354957 C132.19514,81.468359 120.911224,82.0244872 113.748796,88.1367863 L137.621008,94.2158632 L140.282492,84.3354957" id="Fill-15" fill="#28245C"></path>
                        <path d="M129.325896,81.1563846 L129.651256,85.422 C129.651256,85.422 129.847648,88.6571368 132.196512,86.7101966 C134.320172,84.9492222 136.118864,82.9869487 136.118864,82.9869487 L129.325896,81.1563846" id="Fill-16" fill="#FFFFFF"></path>
                        <path d="M120.256388,89.9317692 L123.195016,86.883188 C123.195016,86.883188 125.38414,84.5350256 125.939016,87.5820342 C126.442344,90.3388889 126.5719,93.0351966 126.5719,93.0351966 L120.256388,89.9317692" id="Fill-17" fill="#FFFFFF"></path>
                        <path d="M121.857316,65.7381282 C122.610348,65.9455214 123.05272,66.7257521 122.846724,67.4806239 C122.639552,68.2360855 121.861824,68.6801624 121.1084,68.4727692 C120.35576,68.2657692 119.913388,67.4853419 120.119776,66.7302735 C120.32636,65.9750085 121.10448,65.5311282 121.857316,65.7381282" id="Fill-18" fill="#28245C"></path>
                        <path d="M128.21928,67.4898632 C128.972312,67.6970598 129.41488,68.4772906 129.208296,69.232359 C129.001516,69.9874274 128.223788,70.4318974 127.47056,70.2243077 C126.717724,70.0171111 126.27496,69.2370769 126.48174,68.481812 C126.688324,67.726547 127.466444,67.2824701 128.21928,67.4898632" id="Fill-19" fill="#28245C"></path>
                        <path d="M123.635428,59.2413162 C124.38846,59.4485128 124.831028,60.2287436 124.624248,60.983812 C124.41786,61.7388803 123.639936,62.1831538 122.8871,61.9759573 C122.134264,61.7685641 121.691304,60.9883333 121.897888,60.233265 C122.104472,59.478 122.882396,59.0339231 123.635428,59.2413162" id="Fill-20" fill="#28245C"></path>
                        <path d="M129.997392,60.9926581 C130.750424,61.2000513 131.192992,61.9802821 130.986408,62.7353504 C130.78002,63.4906154 130.0019,63.9346923 129.249064,63.7274957 C128.496228,63.519906 128.053072,62.7398718 128.259852,61.9846068 C128.466436,61.229735 129.24436,60.7854615 129.997392,60.9926581" id="Fill-21" fill="#28245C"></path>
                        <path d="M134.581244,69.2412051 C135.334276,69.4485983 135.776844,70.2288291 135.57026,70.984094 C135.36348,71.7391624 134.58536,72.1830427 133.832916,71.9758462 C133.079884,71.7686496 132.63712,70.9884188 132.843704,70.2331538 C133.050484,69.4782821 133.828604,69.0340085 134.581244,69.2412051" id="Fill-22" fill="#28245C"></path>
                    </g>
                </g>
            </g>
        </g>
    </g>
</svg>