<?xml version="1.0" encoding="UTF-8" standalone="no"?>
<svg width="22px" height="19px" viewBox="0 0 22 19" version="1.1" xmlns="http://www.w3.org/2000/svg" xmlns:xlink="http://www.w3.org/1999/xlink" xmlns:sketch="http://www.bohemiancoding.com/sketch/ns">
    <!-- Generator: Sketch 3.0.4 (8053) - http://www.bohemiancoding.com/sketch -->
    <title>Phone</title>
    <desc>Created with Sketch.</desc>
    <defs></defs>
    <g id="Cheetah-Landing" stroke="none" stroke-width="1" fill="none" fill-rule="evenodd" sketch:type="MSPage">
        <g id="Desktop-Start-Campaign" sketch:type="MSArtboardGroup" transform="translate(-777.000000, -2948.000000)" fill="#A6A2BA">
            <g id="About-/-Contact" sketch:type="MSLayerGroup" transform="translate(-18.000000, 2433.000000)">
                <g id="Contact" transform="translate(771.000000, 317.000000)" sketch:type="MSShapeGroup">
                    <g id="Phone" transform="translate(24.787812, 198.000000)">
                        <path d="M17.6856641,8.84283203 C17.6856641,8.84283203 17.6856641,8.84283203 16.4224023,8.84283203 C15.1591406,8.84283203 15.1591406,7.57957031 15.1591406,7.57957031 L15.1591406,5.05304688 C15.1591406,4.35446314 14.5944626,3.78978516 13.8958789,3.78978516 L6.31630859,3.78978516 C5.61772486,3.78978516 5.05304687,4.35572641 5.05304687,5.05304688 L5.05304687,7.57957031 C5.05304687,8.84283203 3.78978516,8.84283203 3.78978516,8.84283203 L2.52652344,8.84283203 C2.52652344,8.84283203 1.26326172,8.84283203 1.26326172,10.1060938 L1.26326172,17.6856641 C1.26326172,18.3842478 1.82793971,18.9489258 2.52652344,18.9489258 L17.6856641,18.9489258 C18.3842478,18.9489258 18.9489258,18.3842478 18.9489258,17.6856641 L18.9489258,10.1060938 C18.9489258,9.00073975 17.6856641,8.84283203 17.6856641,8.84283203 L17.6856641,8.84283203 Z M16.4224023,16.4224023 L3.78978516,16.4224023 L3.78978516,11.3693555 C5.6265677,11.3693555 7.57957031,10.0416674 7.57957031,7.57957031 L7.57957031,6.31630859 L12.6326172,6.31630859 L12.6326172,7.57957031 C12.6326172,9.41635285 13.9615685,11.3693555 16.4224023,11.3693555 L16.4224023,16.4224023 L16.4224023,16.4224023 Z" id="Fill-1"></path>
                        <path d="M10.1060937,10.1060938 C8.71018955,10.1060938 7.57957031,11.2379763 7.57957031,12.6326172 C7.57957031,14.0285214 8.71018955,15.1591406 10.1060937,15.1591406 C11.5007347,15.1591406 12.6326172,14.0285214 12.6326172,12.6326172 C12.6326172,11.2379763 11.5007347,10.1060938 10.1060937,10.1060938" id="Fill-2"></path>
                        <path d="M1.09272139,2.48104602 C0.47751293,2.81075732 0,3.67861813 0,4.37720186 L0,6.31630859 C0,7.01489232 0.564677988,7.57957031 1.26326172,7.57957031 L2.52652344,7.57957031 C3.22510717,7.57957031 3.78978516,7.01489232 3.78978516,6.31630859 L3.78978516,3.78978516 C3.78978516,3.09120143 4.35572641,2.52652344 5.05304688,2.52652344 L15.1591406,2.52652344 C15.8564611,2.52652344 16.4224023,3.09120143 16.4224023,3.78978516 L16.4224023,6.31630859 C16.4224023,7.01489232 16.9870803,7.57957031 17.6856641,7.57957031 L18.9489258,7.57957031 C19.6475095,7.57957031 20.2121875,7.01489232 20.2121875,6.31630859 L20.2121875,4.37720186 C20.2121875,3.67861813 19.7346746,2.81075732 19.1194661,2.48104602 C17.4153261,1.57023432 13.9224074,0 10.1060938,0 C6.2897801,0 2.79686145,1.57023432 1.09272139,2.48104602" id="Fill-3"></path>
                    </g>
                </g>
            </g>
        </g>
    </g>
</svg>