<?xml version="1.0" encoding="UTF-8" standalone="no"?>
<svg width="101px" height="95px" viewBox="0 0 101 95" version="1.1" xmlns="http://www.w3.org/2000/svg" xmlns:xlink="http://www.w3.org/1999/xlink" xmlns:sketch="http://www.bohemiancoding.com/sketch/ns">
    <!-- Generator: Sketch 3.0.4 (8053) - http://www.bohemiancoding.com/sketch -->
    <title>Cheetah Head</title>
    <desc>Created with Sketch.</desc>
    <defs></defs>
    <g id="Cheetah-Landing" stroke="none" stroke-width="1" fill="none" fill-rule="evenodd" sketch:type="MSPage">
        <g id="Desktop-Start-Campaign" sketch:type="MSArtboardGroup" transform="translate(-138.000000, -198.000000)">
            <g id="Header" sketch:type="MSLayerGroup" transform="translate(138.000000, 198.000000)">
                <g id="Logo" sketch:type="MSShapeGroup">
                    <g id="Cheetah-Head">
                        <path d="M94.5874427,47.4956695 C94.5874427,73.7266311 73.4268653,94.9910684 47.3240213,94.9910684 C21.2211773,94.9910684 0.0606,73.7266311 0.0606,47.4956695 C0.0606,21.264708 21.2211773,0.00027065527 47.3240213,0.00027065527 C73.4268653,0.00027065527 94.5874427,21.264708 94.5874427,47.4956695" id="Fill-1" fill="#28245C"></path>
                        <path d="M85.4267427,36.8539103 L87.9679027,27.5857265 C79.3834413,25.3532265 75.997248,23.1537464 73.1063587,21.0579274 C65.4874573,15.5345299 60.841592,14.1874786 50.847844,14.210755 C45.4825893,14.2232051 40.5651013,15.0200142 31.025988,20.2692379 C19.3971173,26.6684758 9.14588667,30.0333974 2.49779733,32.481339 C0.940916,37.1914174 0.0972293333,42.228312 0.0972293333,47.4634615 C0.0972293333,72.0443732 18.6796133,92.2640812 42.4977027,94.7102635 C43.8847693,92.2203704 45.5167947,89.8874573 47.3607853,87.7430556 C55.0278973,78.8267236 66.361444,73.1831553 79.0083947,73.1831553 C83.4400053,73.1831553 87.7093427,73.8783333 91.717292,75.1616453 L100.906541,41.1965741 L85.4267427,36.8539103" id="Fill-2" fill="#00C051"></path>
                        <path d="M38.9958307,24.7721296 C38.9958307,32.243839 32.9685547,38.300698 25.5334733,38.300698 C18.0982573,38.300698 12.0708467,32.243839 12.0708467,24.7721296 C12.0708467,17.3005556 18.0982573,11.2435613 25.5334733,11.2435613 C32.9685547,11.2435613 38.9958307,17.3005556 38.9958307,24.7721296" id="Fill-3" fill="#00C051"></path>
                        <path d="M31.0177733,20.2362179 C29.715008,18.6473362 27.7420067,17.6344088 25.5334733,17.6344088 C21.6106333,17.6344088 18.43048,20.8300356 18.43048,24.7721296 C18.43048,25.3606695 18.502796,25.9318875 18.6363853,26.4790171 C22.526636,24.827614 26.7061507,22.8073077 31.0177733,20.2362179" id="Fill-4" fill="#FFFFFF"></path>
                        <path d="M54.2193587,25.8699074 C54.2193587,25.8699074 58.4189387,28.5514245 65.416892,33.8642521 C72.1072667,38.9436396 79.0254973,40.2379131 80.50508,36.1913462 C82.2347387,31.4616453 75.146828,27.6062963 68.5582613,26.5079772 C61.9688867,25.4089815 54.2193587,25.8699074 54.2193587,25.8699074" id="Fill-5" fill="#FFFFFF"></path>
                        <path d="M78.3144573,29.8896795 C76.9263133,28.8805413 76.61658,28.5278775 72.1360853,27.2828632 C69.66778,27.1556553 67.2872773,28.0857621 66.6104427,30.4464174 C66.0242387,32.4909473 66.7635587,34.8007194 67.4333907,35.2818091 C67.4333907,35.2818091 67.9546853,35.7095798 69.2380587,36.3757977 C67.14682,35.7641168 50.4051947,32.6571296 44.962372,43.2655983 C39.04458,54.8039031 50.5317813,66.2331339 50.5317813,66.2331339 L65.2519253,45.1301425 C68.5286347,44.7531197 76.650112,45.4033689 79.2727453,41.9767379 C82.9386413,37.1873575 80.8595227,31.9940242 78.3144573,29.8896795" id="Fill-6" fill="#28245C"></path>
                        <path d="M53.204376,82.1101781 C53.204376,82.1101781 39.5121427,67.7095584 50.0425373,53.7659402 C58.1354653,43.0500214 70.76464,43.7037892 77.2360467,48.0115385 C85.9701227,53.825755 97.1186373,55.3452137 97.1186373,55.3452137 L91.7586347,75.223896 C91.7586347,75.223896 70.360236,68.2420726 53.204376,82.1101781" id="Fill-7" fill="#FFFFFF"></path>
                        <path d="M60.1001173,21.7203561 C60.1247613,21.7444444 54.2934253,23.821859 50.7679867,24.0574644 C47.2432213,24.2936111 42.61594,23.148198 43.352432,19.7708262 C44.087308,16.3939957 50.3443253,16.9868661 50.3938827,17.0332835 C50.4424973,17.0801068 55.5044827,17.3162536 60.1001173,21.7203561" id="Fill-8" fill="#28245C"></path>
                        <path d="M44.62786,32.2350427 C45.4020587,36.0469516 41.6203493,40.0368162 36.1800853,41.1456909 C30.7392827,42.2552422 25.7019413,40.0641524 24.927608,36.2521083 C24.1534093,32.4400641 27.9348493,28.4515527 33.3747093,27.3415954 C38.8148387,26.2319088 43.8528533,28.4229986 44.62786,32.2350427" id="Fill-9" fill="#28245C"></path>
                        <path d="M36.902572,50.8941524 C37.780464,53.8206125 35.4079067,57.1220655 31.6010147,58.2693732 C27.7946613,59.4164103 23.9962533,57.973547 23.1171493,55.0474929 C22.2383147,52.1206268 24.6126227,48.8194444 28.4187067,47.6729487 C32.225868,46.5255057 36.0236027,47.9680983 36.902572,50.8941524" id="Fill-10" fill="#28245C"></path>
                        <path d="M21.4849893,44.7310613 C21.9090547,48.0800142 17.9305973,51.3449288 12.597528,52.0238675 C7.26499733,52.702265 2.598528,50.5383761 2.17405867,47.1899644 C1.74985867,43.8411467 5.72764267,40.5762322 11.061116,39.8975641 C16.3940507,39.2183547 21.060116,41.3829202 21.4849893,44.7310613" id="Fill-11" fill="#28245C"></path>
                        <path d="M41.92308,67.5004772 C42.4845053,70.5036681 39.0847107,73.663433 34.3292267,74.5560541 C29.574416,75.4485399 25.262928,73.7378632 24.7012333,70.7344017 C24.139,67.7303989 27.5387947,64.5713105 32.2944133,63.6790954 C37.050436,62.785933 41.36152,64.4974217 41.92308,67.5004772" id="Fill-12" fill="#28245C"></path>
                        <path d="M19.458256,62.4970085 C19.8199707,64.5749644 17.235044,66.7621296 13.6849613,67.3807123 C10.1358213,67.9999715 6.96549867,66.8181553 6.60445733,64.7395228 C6.24328133,62.6621083 8.82793867,60.474943 12.378156,59.8556838 C15.927296,59.2365598 19.0972147,60.419188 19.458256,62.4970085" id="Fill-13" fill="#28245C"></path>
                        <path d="M93.9415813,39.2529986 C93.8898693,39.5924003 93.862936,39.940057 93.862936,40.2940741 C93.862936,43.612443 96.2185253,46.376916 99.3410413,46.9937393 L100.906541,41.2069943 L93.9415813,39.2529986" id="Fill-14" fill="#28245C"></path>
                        <path d="M96.3845693,58.0570442 C90.8279533,56.0832906 83.0750587,56.4661325 78.1539347,60.6738746 L94.5559307,64.8587464 L96.3845693,58.0570442" id="Fill-15" fill="#28245C"></path>
                        <path d="M88.856568,55.8685256 L89.0801147,58.805 C89.0801147,58.805 89.2150507,61.0320869 90.828896,59.691802 C92.2880093,58.479537 93.5238453,57.1286966 93.5238453,57.1286966 L88.856568,55.8685256" id="Fill-16" fill="#FFFFFF"></path>
                        <path d="M82.6251373,61.9095513 L84.6441947,59.8108903 C84.6441947,59.8108903 86.1482867,58.1944017 86.529528,60.2919801 C86.875352,62.1898148 86.9643667,64.0459687 86.9643667,64.0459687 L82.6251373,61.9095513" id="Fill-17" fill="#FFFFFF"></path>
                        <path d="M83.7250947,45.2545085 C84.242484,45.3972792 84.5464267,45.9343946 84.404892,46.4540527 C84.2625493,46.9741168 83.728192,47.2798219 83.2105333,47.1370513 C82.6934133,46.9945513 82.3894707,46.4573006 82.5312747,45.9375071 C82.6732133,45.4175783 83.20784,45.1120085 83.7250947,45.2545085" id="Fill-18" fill="#28245C"></path>
                        <path d="M88.09624,46.4604131 C88.6136293,46.6030484 88.9177067,47.1401638 88.775768,47.6599573 C88.6336947,48.1797507 88.0993373,48.4857265 87.5818133,48.3428205 C87.0645587,48.2001852 86.7603467,47.6632051 86.90242,47.1432764 C87.0443587,46.6233476 87.5789853,46.3176425 88.09624,46.4604131" id="Fill-19" fill="#28245C"></path>
                        <path d="M84.9467907,40.7820655 C85.46418,40.9247009 85.7682573,41.4618162 85.626184,41.9816097 C85.48438,42.5014031 84.949888,42.8072436 84.4326333,42.6646083 C83.9153787,42.5218376 83.611032,41.9847222 83.7529707,41.4649288 C83.8949093,40.945 84.4294013,40.6392949 84.9467907,40.7820655" id="Fill-20" fill="#28245C"></path>
                        <path d="M89.317936,41.9876994 C89.8353253,42.1304701 90.1394027,42.6675855 89.997464,43.1873789 C89.85566,43.7073077 89.3210333,44.0130128 88.8037787,43.8703775 C88.286524,43.7274715 87.9820427,43.1904915 88.124116,42.6705627 C88.2660547,42.1509046 88.8005467,41.8450641 89.317936,41.9876994" id="Fill-21" fill="#28245C"></path>
                        <path d="M92.4673853,47.666047 C92.9847747,47.8088177 93.288852,48.345933 93.1469133,48.8658618 C93.00484,49.3856553 92.4702133,49.6912251 91.953228,49.5485897 C91.4358387,49.4059544 91.1316267,48.868839 91.2735653,48.3489103 C91.4156387,47.8292521 91.9502653,47.5234117 92.4673853,47.666047" id="Fill-22" fill="#28245C"></path>
                    </g>
                </g>
            </g>
        </g>
    </g>
</svg>