<?xml version="1.0" encoding="UTF-8" standalone="no"?>
<svg width="28px" height="26px" viewBox="0 0 28 26" version="1.1" xmlns="http://www.w3.org/2000/svg" xmlns:xlink="http://www.w3.org/1999/xlink" xmlns:sketch="http://www.bohemiancoding.com/sketch/ns">
    <!-- Generator: Sketch 3.0.4 (8053) - http://www.bohemiancoding.com/sketch -->
    <g id="Cheetah-Landing" stroke="none" stroke-width="1" fill="none" fill-rule="evenodd" sketch:type="MSPage">
        <g id="Desktop-Start-Campaign" sketch:type="MSArtboardGroup" transform="translate(-810.000000, -19.000000)">
            <g id="Header-Cheetah-2" sketch:type="MSLayerGroup" transform="translate(0.000000, 14.000000)">
                <g id="Tab-3" transform="translate(755.000000, 0.000000)" sketch:type="MSShapeGroup">
                    <g id="Cheetah-Head-2" transform="translate(55.000000, 5.000000)">
                        <path d="M26.2222613,12.9988148 C26.2222613,20.1778148 20.3559627,25.9975556 13.1195307,25.9975556 C5.88309867,25.9975556 0.0168,20.1778148 0.0168,12.9988148 C0.0168,5.81981481 5.88309867,7.40740741e-05 13.1195307,7.40740741e-05 C20.3559627,7.40740741e-05 26.2222613,5.81981481 26.2222613,12.9988148" id="Fill-1" fill="#28245C"></path>
                        <path d="M23.6826613,10.0863333 L24.3871413,7.54977778 C22.0072907,6.93877778 21.068544,6.33681481 20.2671093,5.76322222 C18.1549387,4.25155556 16.866976,3.88288889 14.096432,3.88925926 C12.6090347,3.89266667 11.2457707,4.11074074 8.601264,5.54737037 C5.37741867,7.29874074 2.53549333,8.21966667 0.692458667,8.88962963 C0.260848,10.1787037 0.0269546667,11.5572222 0.0269546667,12.99 C0.0269546667,19.7174074 5.17850667,25.2512222 11.7815413,25.9207037 C12.1660747,25.2392593 12.6185173,24.6007778 13.1297227,24.0138889 C15.2552587,21.5736296 18.397232,20.0290741 21.9033173,20.0290741 C23.1318827,20.0290741 24.3154613,20.2193333 25.426576,20.5705556 L27.9740907,11.2748519 L23.6826613,10.0863333" id="Fill-2" fill="#00C051"></path>
                        <path d="M10.8107253,6.77974074 C10.8107253,8.82462963 9.13979733,10.4822963 7.07858667,10.4822963 C5.01733867,10.4822963 3.34637333,8.82462963 3.34637333,6.77974074 C3.34637333,4.73488889 5.01733867,3.07718519 7.07858667,3.07718519 C9.13979733,3.07718519 10.8107253,4.73488889 10.8107253,6.77974074" id="Fill-3" fill="#00C051"></path>
                        <path d="M8.59898667,5.53833333 C8.237824,5.10348148 7.69085333,4.82625926 7.07858667,4.82625926 C5.99106667,4.82625926 5.10944,5.70085185 5.10944,6.77974074 C5.10944,6.94081481 5.129488,7.09714815 5.16652267,7.24688889 C6.245008,6.79492593 7.40368533,6.242 8.59898667,5.53833333" id="Fill-4" fill="#F8F7F8"></path>
                        <path d="M15.0311093,7.08018519 C15.0311093,7.08018519 16.1953493,7.81407407 18.135376,9.26811111 C19.9901333,10.6582593 21.9080587,11.0124815 22.31824,9.905 C22.7977493,8.61055556 20.832784,7.55540741 19.0062507,7.25481481 C17.1794933,6.95403704 15.0311093,7.08018519 15.0311093,7.08018519" id="Fill-5" fill="#F8F7F8"></path>
                        <path d="M21.7109387,8.18033333 C21.3261067,7.90414815 21.24024,7.80762963 19.9981227,7.46688889 C19.31384,7.43207407 18.6538987,7.68662963 18.4662613,8.3327037 C18.3037493,8.89225926 18.5087093,9.52440741 18.6944053,9.65607407 C18.6944053,9.65607407 18.8389227,9.77314815 19.1947093,9.95548148 C18.61496,9.78807407 13.9737173,8.93774074 12.464816,11.8411111 C10.82424,14.998963 14.0088107,18.126963 14.0088107,18.126963 L18.0896427,12.3514074 C18.9980373,12.2482222 21.249536,12.4261852 21.9766027,11.4883704 C22.9928907,10.1775926 22.4165013,8.75625926 21.7109387,8.18033333" id="Fill-6" fill="#28245C"></path>
                        <path d="M14.749728,22.4722593 C14.749728,22.4722593 10.9538613,18.531037 13.8731787,14.7148889 C16.1167627,11.7821111 19.61792,11.961037 21.4119733,13.14 C23.8333013,14.7312593 26.9239787,15.1471111 26.9239787,15.1471111 L25.4380373,20.5875926 C25.4380373,20.5875926 19.505808,18.6767778 14.749728,22.4722593" id="Fill-7" fill="#F8F7F8"></path>
                        <path d="M16.6614187,5.94451852 C16.6682507,5.95111111 15.0516427,6.51966667 14.0742933,6.58414815 C13.0971307,6.64877778 11.81432,6.3352963 12.018496,5.41096296 C12.222224,4.48677778 13.9568427,4.64903704 13.9705813,4.66174074 C13.9840587,4.67455556 15.3873813,4.73918519 16.6614187,5.94451852" id="Fill-8" fill="#28245C"></path>
                        <path d="M12.37208,8.82222222 C12.5867093,9.86548148 11.5383147,10.9574444 10.0301227,11.2609259 C8.52178133,11.5645926 7.12529067,10.9649259 6.910624,9.92162963 C6.69599467,8.87833333 7.74431467,7.78674074 9.25239467,7.48296296 C10.7605493,7.17925926 12.1572267,7.77892593 12.37208,8.82222222" id="Fill-9" fill="#28245C"></path>
                        <path d="M10.230416,13.9289259 C10.473792,14.7298519 9.81605333,15.6334074 8.76067733,15.9474074 C7.70545067,16.2613333 6.65242667,15.8664444 6.40871467,15.0656296 C6.16507733,14.2645926 6.82330133,13.3611111 7.87845333,13.0473333 C8.933904,12.7332963 9.98674133,13.1281111 10.230416,13.9289259" id="Fill-10" fill="#28245C"></path>
                        <path d="M5.95623467,12.2421852 C6.07379733,13.1587407 4.97085867,14.0522963 3.492384,14.2381111 C2.01405867,14.4237778 0.720384,13.8315556 0.602709333,12.9151481 C0.485109333,11.9986296 1.58786133,11.1050741 3.066448,10.9193333 C4.54488533,10.7334444 5.838448,11.3258519 5.95623467,12.2421852" id="Fill-11" fill="#28245C"></path>
                        <path d="M11.62224,18.4738148 C11.7778827,19.2957407 10.8353653,20.1605185 9.51701333,20.4048148 C8.198848,20.6490741 7.003584,20.1808889 6.84786667,19.3588889 C6.692,18.5367407 7.63451733,17.6721481 8.95290667,17.427963 C10.271408,17.1835185 11.46656,17.6519259 11.62224,18.4738148" id="Fill-12" fill="#28245C"></path>
                        <path d="M5.394368,17.1044444 C5.49464533,17.6731481 4.778032,18.2717407 3.79385067,18.441037 C2.80993067,18.6105185 1.93102933,18.2870741 1.83093867,17.7181852 C1.73081067,17.1496296 2.44734933,16.551037 3.431568,16.3815556 C4.415488,16.2121111 5.29427733,16.5357778 5.394368,17.1044444" id="Fill-13" fill="#28245C"></path>
                        <path d="M26.0432107,10.7429259 C26.0288747,10.8358148 26.021408,10.930963 26.021408,11.0278519 C26.021408,11.936037 26.6744427,12.6926296 27.5400907,12.8614444 L27.9740907,11.2777037 L26.0432107,10.7429259" id="Fill-14" fill="#28245C"></path>
                        <path d="M26.7204747,15.8892963 C25.1800267,15.3491111 23.0307093,15.4538889 21.6664373,16.6054815 L26.2135253,17.7508148 L26.7204747,15.8892963" id="Fill-15" fill="#28245C"></path>
                        <path d="M24.633504,15.2903333 L24.6954773,16.094 C24.6954773,16.094 24.7328853,16.7035185 25.180288,16.3367037 C25.5847947,16.0049259 25.9274027,15.6352222 25.9274027,15.6352222 L24.633504,15.2903333" id="Fill-16" fill="#FFFFFF"></path>
                        <path d="M22.9059787,16.9436667 L23.4657173,16.3692963 C23.4657173,16.3692963 23.8826933,15.9268889 23.988384,16.500963 C24.084256,17.0203704 24.1089333,17.5283704 24.1089333,17.5283704 L22.9059787,16.9436667" id="Fill-17" fill="#FFFFFF"></path>
                        <path d="M23.2109173,12.3854444 C23.354352,12.4245185 23.4386133,12.5715185 23.399376,12.7137407 C23.3599147,12.8560741 23.211776,12.9397407 23.0682667,12.9006667 C22.9249067,12.8616667 22.8406453,12.7146296 22.8799573,12.5723704 C22.9193067,12.4300741 23.06752,12.3464444 23.2109173,12.3854444" id="Fill-18" fill="#28245C"></path>
                        <path d="M24.42272,12.7154815 C24.5661547,12.7545185 24.6504533,12.9015185 24.611104,13.0437778 C24.5717173,13.186037 24.4235787,13.2697778 24.2801067,13.2306667 C24.1367093,13.1916296 24.0523733,13.0446667 24.09176,12.9023704 C24.1311093,12.7600741 24.2793227,12.6764074 24.42272,12.7154815" id="Fill-19" fill="#28245C"></path>
                        <path d="M23.5496053,11.1614074 C23.69304,11.2004444 23.7773387,11.3474444 23.737952,11.4897037 C23.69864,11.631963 23.550464,11.7156667 23.4070667,11.6766296 C23.2636693,11.6375556 23.179296,11.4905556 23.2186453,11.3482963 C23.2579947,11.206 23.4061707,11.1223333 23.5496053,11.1614074" id="Fill-20" fill="#28245C"></path>
                        <path d="M24.761408,11.4913704 C24.9048427,11.5304444 24.9891413,11.6774444 24.949792,11.8197037 C24.91048,11.962 24.7622667,12.0456667 24.6188693,12.0066296 C24.475472,11.9675185 24.3910613,11.8205556 24.430448,11.6782593 C24.4697973,11.536037 24.6179733,11.4523333 24.761408,11.4913704" id="Fill-21" fill="#28245C"></path>
                        <path d="M25.6345227,13.0454444 C25.7779573,13.0845185 25.862256,13.2315185 25.8229067,13.3738148 C25.78352,13.5160741 25.6353067,13.5997037 25.491984,13.5606667 C25.3485493,13.5216296 25.2642133,13.3746296 25.3035627,13.2323333 C25.3429493,13.0901111 25.4911627,13.0064074 25.6345227,13.0454444" id="Fill-22" fill="#28245C"></path>
                    </g>
                </g>
            </g>
        </g>
    </g>
</svg>