<?xml version="1.0" encoding="UTF-8" standalone="no"?>
<svg width="19px" height="19px" viewBox="0 0 19 19" version="1.1" xmlns="http://www.w3.org/2000/svg" xmlns:xlink="http://www.w3.org/1999/xlink" xmlns:sketch="http://www.bohemiancoding.com/sketch/ns">
    <!-- Generator: Sketch 3.0.4 (8053) - http://www.bohemiancoding.com/sketch -->
    <title>icon-form-question 4</title>
    <desc>Created with Sketch.</desc>
    <defs></defs>
    <g id="Cheetah-Landing" stroke="none" stroke-width="1" fill="none" fill-rule="evenodd" sketch:type="MSPage">
        <g id="Desktop-Start-Campaign" sketch:type="MSArtboardGroup" transform="translate(-733.000000, -933.000000)" fill="#A6A2BA">
            <g id="Who-can-join?" sketch:type="MSLayerGroup" transform="translate(-7.000000, 745.000000)">
                <g id="2" transform="translate(464.000000, 181.000000)" sketch:type="MSShapeGroup">
                    <path d="M285.5,7 C280.253625,7 276,11.253625 276,16.5 C276,21.746375 280.253625,26 285.5,26 C290.746375,26 295,21.746375 295,16.5 C295,11.253625 290.746375,7 285.5,7 L285.5,7 Z M286.6875,21.84375 C286.6875,22.1715 286.4215,22.4375 286.09375,22.4375 L284.90625,22.4375 C284.5785,22.4375 284.3125,22.1715 284.3125,21.84375 L284.3125,20.65625 C284.3125,20.3285 284.5785,20.0625 284.90625,20.0625 L286.09375,20.0625 C286.4215,20.0625 286.6875,20.3285 286.6875,20.65625 L286.6875,21.84375 L286.6875,21.84375 Z M286.6875,17.48325 L286.6875,18.28125 C286.6875,18.609 286.4215,18.875 286.09375,18.875 L284.90625,18.875 C284.5785,18.875 284.3125,18.609 284.3125,18.28125 L284.3125,16.5 C284.3125,15.8433125 284.460938,15.3125 285.203125,15.3125 L286.09375,15.3125 C286.4215,15.3125 286.6875,15.0465 286.6875,14.71875 L286.6875,13.53125 C286.6875,13.2035 286.4215,12.9375 286.09375,12.9375 L284.90625,12.9375 C284.5785,12.9375 284.3125,13.2035 284.3125,13.53125 C284.3125,13.6963125 284.200875,14.125 283.71875,14.125 L282.53125,14.125 C282.085938,14.125 281.93275,13.8578125 281.986188,13.533625 C282.268813,11.84975 283.73775,10.5625 285.5,10.5625 C287.464125,10.5625 289.0625,12.160875 289.0625,14.125 C289.0625,15.6735 288.06975,16.994 286.6875,17.48325 L286.6875,17.48325 Z" id="icon-form-question-4"></path>
                </g>
            </g>
        </g>
    </g>
</svg>