<svg width="89" height="98" viewBox="0 0 89 98" xmlns="http://www.w3.org/2000/svg"><title>Earmark 3</title><desc>Created with Sketch.</desc><g fill="none"><path d="M0 0v98l44.287-16.897 44.713 16.897v-98h-89z" stroke="#D8D8D8" fill="#fff"/><g><path d="M68.902 39.705c0 13.53-10.906 24.498-24.36 24.498-13.454 0-24.36-10.968-24.36-24.498 0-13.53 10.906-24.498 24.36-24.498 13.454 0 24.36 10.968 24.36 24.498" fill="#28245C"/><path d="M64.181 34.216l1.31-4.78c-4.425-1.151-6.17-2.286-7.66-3.367-3.927-2.849-6.321-3.544-11.472-3.532-2.765.006-5.3.417-10.216 3.125-5.994 3.301-11.277 5.036-14.704 6.299-.802 2.429-1.237 5.027-1.237 7.728 0 12.679 9.578 23.108 21.854 24.369.715-1.284 1.556-2.488 2.506-3.594 3.952-4.599 9.793-7.51 16.312-7.51 2.284 0 4.485.359 6.55 1.02l4.736-17.519-7.978-2.24" fill="#00C051"/><path d="M40.25 27.984c0 3.854-3.107 6.978-6.939 6.978s-6.939-3.124-6.939-6.978c0-3.854 3.107-6.978 6.939-6.978s6.939 3.124 6.939 6.978" fill="#00C051"/><path d="M36.138 25.645c-.671-.82-1.688-1.342-2.827-1.342-2.022 0-3.661 1.648-3.661 3.682 0 .304.037.598.106.88 2.005-.852 4.159-1.894 6.382-3.22" fill="#fff"/><path d="M48.096 28.55s2.165 1.383 5.771 4.123c3.448 2.62 7.014 3.287 7.777 1.2.891-2.44-2.762-4.428-6.158-4.995-3.396-.567-7.39-.329-7.39-.329" fill="#fff"/><path d="M60.515 30.624c-.715-.521-.875-.702-3.184-1.345-1.272-.066-2.499.414-2.848 1.632-.302 1.055.079 2.246.424 2.494 0 0 .269.221.93.564-1.078-.315-9.707-1.918-12.512 3.554-3.05 5.951 2.871 11.846 2.871 11.846l7.587-10.885c1.689-.194 5.875.141 7.226-1.626 1.889-2.47.818-5.149-.494-6.234" fill="#28245C"/><path d="M47.573 57.559s-7.057-7.428-1.63-14.62c4.171-5.527 10.68-5.19 14.016-2.968 4.502 2.999 10.248 3.783 10.248 3.783l-2.763 10.253s-11.029-3.601-19.871 3.552" fill="#fff"/><path d="M51.127 26.41c.013.012-2.993 1.084-4.81 1.205-1.817.122-4.202-.469-3.822-2.211.379-1.742 3.604-1.436 3.629-1.412.025.024 2.634.146 5.003 2.418" fill="#28245C"/><path d="M43.153 31.833c.399 1.966-1.55 4.024-4.354 4.596-2.804.572-5.401-.558-5.8-2.524s1.55-4.023 4.354-4.596c2.804-.572 5.401.558 5.8 2.524" fill="#28245C"/><path d="M39.171 41.458c.452 1.509-.77 3.212-2.732 3.804-1.962.592-3.92-.153-4.373-1.662-.453-1.51.771-3.212 2.732-3.804 1.962-.592 3.92.152 4.373 1.661" fill="#28245C"/><path d="M31.225 38.279c.219 1.727-1.832 3.411-4.581 3.762-2.748.35-5.154-.766-5.372-2.493-.219-1.727 1.832-3.411 4.58-3.761 2.749-.35 5.154.766 5.373 2.493" fill="#28245C"/><path d="M41.759 50.023c.289 1.549-1.463 3.179-3.914 3.639-2.451.46-4.673-.422-4.962-1.971-.29-1.549 1.463-3.179 3.914-3.639 2.451-.461 4.673.422 4.963 1.971" fill="#28245C"/><path d="M30.18 47.442c.186 1.072-1.146 2.2-2.976 2.519-1.829.319-3.463-.29-3.649-1.362-.186-1.072 1.146-2.2 2.976-2.519 1.829-.319 3.463.291 3.649 1.362" fill="#28245C"/><path d="M68.57 35.453c-.027.175-.041.354-.041.537 0 1.712 1.214 3.137 2.823 3.456l.807-2.985-3.59-1.008" fill="#28245C"/><path d="M69.829 45.152c-2.864-1.018-6.86-.821-9.396 1.35l8.454 2.159.943-3.508" fill="#28245C"/><path d="M65.949 44.023l.115 1.515s.07 1.149.901.457c.752-.625 1.389-1.322 1.389-1.322l-2.406-.65" fill="#fff"/><path d="M62.737 47.139l1.041-1.082s.775-.834.972.248c.178.979.224 1.936.224 1.936l-2.236-1.102" fill="#fff"/><path d="M63.304 38.549c.267.074.423.351.35.619-.073.268-.349.426-.616.352-.267-.073-.423-.351-.35-.619.073-.268.349-.426.615-.352" fill="#28245C"/><path d="M65.557 39.171c.267.074.423.351.35.619-.073.268-.349.426-.615.352-.267-.074-.423-.351-.35-.619.073-.268.349-.426.615-.352" fill="#28245C"/><path d="M63.934 36.242c.267.074.423.351.35.619-.073.268-.349.426-.615.352-.267-.074-.423-.351-.35-.619.073-.268.349-.426.615-.352" fill="#28245C"/><path d="M66.187 36.864c.267.074.423.351.35.619-.073.268-.349.426-.615.352-.267-.074-.424-.351-.35-.619.073-.268.349-.426.615-.352" fill="#28245C"/><path d="M67.81 39.793c.267.074.423.351.35.619-.073.268-.349.426-.615.352-.267-.074-.423-.351-.35-.619.073-.268.349-.426.615-.352" fill="#28245C"/></g></g></svg>