<?xml version="1.0" encoding="UTF-8" standalone="no"?>
<svg width="31px" height="30px" viewBox="0 0 31 30" version="1.1" xmlns="http://www.w3.org/2000/svg" xmlns:xlink="http://www.w3.org/1999/xlink" xmlns:sketch="http://www.bohemiancoding.com/sketch/ns">
    <!-- Generator: Sketch 3.0.4 (8053) - http://www.bohemiancoding.com/sketch -->
    <g id="Cheetah-Landing" stroke="none" stroke-width="1" fill="none" fill-rule="evenodd" sketch:type="MSPage">
        <g id="Desktop-Start-Campaign" sketch:type="MSArtboardGroup" transform="translate(-138.000000, -108.000000)">
            <g id="Header-Cheetah-2" sketch:type="MSLayerGroup" transform="translate(0.000000, 14.000000)">
                <g id="icon-top-2" transform="translate(139.266892, 95.233108)" sketch:type="MSShapeGroup">
                    <ellipse id="Oval-1" stroke="#FFFFFF" cx="13.7331081" cy="13.5475256" rx="13.7331081" ry="13.5475256"></ellipse>
                    <path d="M20.7669964,9.76568902 L19.7427815,8.80047125 C19.4595489,8.53235521 19.0017992,8.53235521 18.7199971,8.80047125 L13.8506849,13.4501679 L8.93845877,8.76237055 C8.65379569,8.49425451 8.19461555,8.49425451 7.91281341,8.76237055 L6.88716805,9.72617718 C6.60536591,9.99147095 6.60536591,10.4232789 6.88716805,10.6913949 L13.3357166,16.8284301 C13.6203796,17.0937239 14.0795598,17.0937239 14.3613619,16.8284301 L20.7669964,10.7294956 C21.0530899,10.4627907 21.0530899,10.0295716 20.7669964,9.76568902 Z" id="Fill-95" fill="#FFFFFF" transform="translate(13.828477, 12.794885) rotate(-180.000000) translate(-13.828477, -12.794885) "></path>
                </g>
            </g>
        </g>
    </g>
</svg>