<?xml version="1.0" encoding="UTF-8" standalone="no"?>
<svg width="22px" height="22px" viewBox="0 0 22 22" version="1.1" xmlns="http://www.w3.org/2000/svg" xmlns:xlink="http://www.w3.org/1999/xlink" xmlns:sketch="http://www.bohemiancoding.com/sketch/ns">
    <!-- Generator: Sketch 3.0.4 (8053) - http://www.bohemiancoding.com/sketch -->
    <title>Twitter</title>
    <desc>Created with Sketch.</desc>
    <defs></defs>
    <g id="Cheetah-Landing" stroke="none" stroke-width="1" fill="none" fill-rule="evenodd" sketch:type="MSPage">
        <g id="Desktop-Start-Campaign" sketch:type="MSArtboardGroup" transform="translate(-777.000000, -3030.000000)" fill="#A6A2BA">
            <g id="About-/-Contact" sketch:type="MSLayerGroup" transform="translate(-18.000000, 2433.000000)">
                <g id="Contact" transform="translate(771.000000, 317.000000)" sketch:type="MSShapeGroup">
                    <g id="Twitter" transform="translate(24.787812, 280.113984)">
                        <path d="M18.9489258,0 L1.26326172,0 C0.564677988,0 0,0.564677988 0,1.26326172 L0,18.9489258 C0,19.6475095 0.564677988,20.2121875 1.26326172,20.2121875 L18.9489258,20.2121875 C19.6475095,20.2121875 20.2121875,19.6475095 20.2121875,18.9489258 L20.2121875,1.26326172 C20.2121875,0.564677988 19.6475095,0 18.9489258,0 L18.9489258,0 Z M2.52652344,2.52652344 L17.6856641,2.52652344 L17.6856641,17.6856641 L2.52652344,17.6856641 L2.52652344,2.52652344 Z" id="Fill-1"></path>
                        <path d="M3.78220559,14.0133622 C4.9102983,14.7346847 6.25567203,15.1591406 7.69579039,15.1591406 C12.3900709,15.1591406 14.9570188,11.2720843 14.9570188,7.90043879 C14.9570188,7.78927176 14.9544922,7.67810473 14.9494392,7.56946422 C15.4484276,7.20943463 15.8817263,6.76097672 16.2240703,6.24935572 C15.7655063,6.4514776 15.2753607,6.58917312 14.7599499,6.65233621 C15.2854668,6.33652078 15.6897105,5.83626914 15.8804631,5.24000961 C15.387791,5.53308633 14.8407987,5.7453143 14.2609615,5.86027111 C13.794818,5.362546 13.1316056,5.05304687 12.3989138,5.05304687 C10.9891137,5.05304687 9.8471251,6.19503547 9.8471251,7.60357229 C9.8471251,7.8044309 9.86860055,7.9989732 9.91407797,8.1871992 C7.7943248,8.07982195 5.91459137,7.06415953 4.65511943,5.52045371 C4.43657516,5.8969057 4.31024898,6.33652078 4.31024898,6.80266436 C4.31024898,7.68821082 4.50984434,8.4676433 5.19453219,8.9262073 C4.77639256,8.91357469 5.05304688,8.79861787 3.78978516,8.60533883 L3.78978516,8.64071016 C3.78978516,9.87491686 4.91914113,10.9057384 6.0851317,11.1407051 C5.87164047,11.1988151 5.77057953,11.2316599 5.53940264,11.2316599 C5.37391535,11.2316599 5.27790746,11.2139743 5.12126301,11.183656 C5.44465801,12.1980552 6.41863279,12.9358 7.53535615,12.9560122 C6.66117904,13.6394368 5.57856375,14.0487336 4.3822549,14.0487336 C4.1776065,14.0487336 3.98053768,14.036101 3.78220559,14.0133622" id="Fill-2"></path>
                    </g>
                </g>
            </g>
        </g>
    </g>
</svg>