<?xml version="1.0" encoding="UTF-8" standalone="no"?>
<svg width="1216px" height="512px" viewBox="0 0 1216 512" version="1.1" xmlns="http://www.w3.org/2000/svg" xmlns:xlink="http://www.w3.org/1999/xlink" xmlns:sketch="http://www.bohemiancoding.com/sketch/ns">
    <!-- Generator: Sketch 3.0.2 (7799) - http://www.bohemiancoding.com/sketch -->
    <title>home-carousel-1</title>
    <description>Created with Sketch.</description>
    <defs>
        <rect id="path-1" x="0" y="0" width="1216" height="512"></rect>
    </defs>
    <g id="Homepage" stroke="none" stroke-width="1" fill="none" fill-rule="evenodd" sketch:type="MSPage">
        <g id="Desktop" sketch:type="MSArtboardGroup" transform="translate(0.000000, -96.000000)">
            <g id="Top-A" sketch:type="MSLayerGroup" transform="translate(0.000000, 96.000000)">
                <g id="home-carousel-1">
                    <mask id="mask-2" sketch:name="Rectangle 2" fill="white">
                        <use xlink:href="#path-1"></use>
                    </mask>
                    <use id="Rectangle-2" stroke="#F6F5F7" fill="#F8F7F8" sketch:type="MSShapeGroup" xlink:href="#path-1"></use>
                    <rect id="Rectangle-4" stroke="#EEEEEE" fill="#E4EDE9" sketch:type="MSShapeGroup" mask="url(#mask-2)" x="-3" y="358" width="1223" height="210"></rect>
                    <g mask="url(#mask-2)" sketch:type="MSShapeGroup">
                        <g transform="translate(172.000000, 180.000000)">
                            <path d="M225.035501,10.1571632 C210.371615,10.1571632 198.494521,22.0351842 198.494521,36.6829854 C198.494521,51.3268801 210.371615,63.2068544 225.035501,63.2068544 C239.699388,63.2068544 251.577459,51.3268801 251.577459,36.6829854 C251.577459,22.0351842 239.699388,10.1571632 225.035501,10.1571632 L225.035501,10.1571632 Z M225.035501,50.7750727 C217.24577,50.7750727 210.934445,44.4620051 210.934445,36.6829854 C210.934445,28.8990825 217.24577,22.5889449 225.035501,22.5889449 C232.82621,22.5889449 239.137535,28.8990825 239.137535,36.6829854 C239.137535,44.4620051 232.82621,50.7750727 225.035501,50.7750727 L225.035501,50.7750727 Z" id="Fill-1" fill="#00C051"></path>
                            <path d="M268.093996,174.682697 C268.093996,173.159122 249.347633,171.92659 226.222722,171.92659 C203.098788,171.92659 184.351448,173.159122 184.351448,174.682697 C184.351448,176.208225 203.098788,177.441734 226.222722,177.441734 C249.347633,177.441734 268.093996,176.208225 268.093996,174.682697" id="Fill-2" fill="#D0E0D7"></path>
                            <path d="M222.332742,169.872694 L219.661251,110.273586 L214.097436,109.948361 L217.934651,170.013332 L222.332742,169.872694" id="Fill-3" fill="#00C051"></path>
                            <path d="M217.877977,166.650725 L200.796655,175.259897 L222.791996,175.259897 L222.14904,167.1244 L217.877977,166.650725" id="Fill-4" fill="#00C051"></path>
                            <path d="M229.166834,170.216475 L231.838325,110.971891 L237.401163,110.649596 L233.563948,170.357113 L229.166834,170.216475" id="Fill-5" fill="#00C051"></path>
                            <path d="M233.619645,167.213275 L250.700967,175.259897 L228.709534,175.259897 L229.35249,167.655698 L233.619645,167.213275" id="Fill-6" fill="#00C051"></path>
                            <path d="M204.443328,106.977391 L204.271352,106.971531 C202.900429,106.878749 201.866619,105.695049 201.95847,104.325786 C201.973127,104.092366 202.373753,98.4971365 205.245557,87.3926225 C207.867214,77.2598756 210.753675,71.2661727 210.87484,71.0151736 C211.474802,69.7806876 212.962003,69.2669695 214.198081,69.8646795 C215.434159,70.4633662 215.951064,71.9517812 215.352079,73.1882205 C215.324719,73.2448662 212.549652,79.029566 210.064794,88.6388283 C207.327835,99.221811 206.928186,104.608037 206.924277,104.661753 C206.832426,105.973395 205.739011,106.977391 204.443328,106.977391" id="Fill-7" fill="#064831"></path>
                            <path d="M233.024569,93.3101467 L240.757627,67.6965158 L233.199476,67.8088306 L225.746857,77.239366 L218.376316,67.8068773 L210.322758,67.6965158 L217.478328,93.3277264 C215.248503,95.3581824 209.039778,100.516849 209.039778,122.246342 C209.039778,130.666044 212.199837,135.042414 212.199837,135.042414 L237.687464,135.042414 C237.687464,135.042414 241.953642,129.854448 241.953642,122.207276 C241.953642,100.824494 235.553398,94.666714 233.024569,93.3101467" id="Fill-8" fill="#064831"></path>
                            <path d="M209.336827,15.9809289 C209.336827,18.3346562 207.425548,20.2430309 205.069672,20.2430309 C202.716728,20.2430309 200.806426,18.3346562 200.806426,15.9809289 C200.806426,13.626225 202.716728,11.7178504 205.069672,11.7178504 C207.425548,11.7178504 209.336827,13.626225 209.336827,15.9809289" id="Fill-9" fill="#00C051"></path>
                            <path d="M220.083374,10.1825561 C220.083374,14.1858457 216.837327,17.4293013 212.832044,17.4293013 C208.829693,17.4293013 205.583646,14.1858457 205.583646,10.1825561 C205.583646,6.18024313 208.829693,2.93678747 212.832044,2.93678747 C216.837327,2.93678747 220.083374,6.18024313 220.083374,10.1825561" id="Fill-10" fill="#00C051"></path>
                            <path d="M229.637814,6.77209321 C229.637814,9.83193861 227.15491,12.3145837 224.092565,12.3145837 C221.032173,12.3145837 218.550247,9.83193861 218.550247,6.77209321 C218.550247,3.71224781 221.032173,1.23253268 224.092565,1.23253268 C227.15491,1.23253268 229.637814,3.71224781 229.637814,6.77209321" id="Fill-11" fill="#00C051"></path>
                            <path d="M243.286456,7.79464608 C243.286456,12.1758993 239.732611,15.7250466 235.352108,15.7250466 C230.97356,15.7250466 227.420691,12.1758993 227.420691,7.79464608 C227.420691,3.41729941 230.97356,-0.131847791 235.352108,-0.131847791 C239.732611,-0.131847791 243.286456,3.41729941 243.286456,7.79464608" id="Fill-12" fill="#00C051"></path>
                            <path d="M248.74474,13.9348465 C248.74474,16.8071751 246.415247,19.1345328 243.541489,19.1345328 C240.668707,19.1345328 238.339214,16.8071751 238.339214,13.9348465 C238.339214,11.0634946 240.668707,8.73418367 243.541489,8.73418367 C246.415247,8.73418367 248.74474,11.0634946 248.74474,13.9348465" id="Fill-13" fill="#00C051"></path>
                            <path d="M250.877829,20.5838818 C250.877829,22.5156961 249.312456,24.0793133 247.380658,24.0793133 C245.450813,24.0793133 243.883486,22.5156961 243.883486,20.5838818 C243.883486,18.6540208 245.450813,17.089427 247.380658,17.089427 C249.312456,17.089427 250.877829,18.6540208 250.877829,20.5838818" id="Fill-14" fill="#00C051"></path>
                            <path d="M252.584886,25.3587252 C252.584886,27.2885862 251.018537,28.8531799 249.087715,28.8531799 C247.155916,28.8531799 245.589567,27.2885862 245.589567,25.3587252 C245.589567,23.4288642 247.155916,21.8632937 249.087715,21.8632937 C251.018537,21.8632937 252.584886,23.4288642 252.584886,25.3587252" id="Fill-15" fill="#00C051"></path>
                            <path d="M207.886757,22.6309409 C207.886757,24.5598252 206.31943,26.1253956 204.389585,26.1253956 C202.457787,26.1253956 200.893391,24.5598252 200.893391,22.6309409 C200.893391,20.7001032 202.457787,19.1345328 204.389585,19.1345328 C206.31943,19.1345328 207.886757,20.7001032 207.886757,22.6309409" id="Fill-16" fill="#00C051"></path>
                            <path d="M205.241648,27.7466351 C205.241648,29.6774728 203.674321,31.2410899 201.7435,31.2410899 C199.812678,31.2410899 198.248283,29.6774728 198.248283,27.7466351 C198.248283,25.8167741 199.812678,24.2512037 201.7435,24.2512037 C203.674321,24.2512037 205.241648,25.8167741 205.241648,27.7466351" id="Fill-17" fill="#00C051"></path>
                            <path d="M223.042143,80.8764117 L225.746857,77.239366 L218.376316,67.8068773 L223.042143,80.8764117 L223.042143,80.8764117 Z M225.746857,77.239366 L228.385125,80.8764117 L233.199476,67.8088306 L225.746857,77.239366 L225.746857,77.239366 Z M225.770308,81.77493 C224.882091,81.77493 224.15901,82.4956979 224.15901,83.383473 C224.15901,84.2732015 224.882091,84.9929927 225.770308,84.9929927 C226.661456,84.9929927 227.380629,84.2732015 227.380629,83.383473 C227.380629,82.4956979 226.661456,81.77493 225.770308,81.77493 L225.770308,81.77493 Z M225.770308,87.6279953 C224.882091,87.6279953 224.15901,88.3487632 224.15901,89.2365383 C224.15901,90.1243134 224.882091,90.846058 225.770308,90.846058 C226.661456,90.846058 227.380629,90.1243134 227.380629,89.2365383 C227.380629,88.3487632 226.661456,87.6279953 225.770308,87.6279953 L225.770308,87.6279953 Z" id="Fill-18" fill="#00C051"></path>
                            <path d="M208.248297,113.388124 C208.248297,116.151067 206.005769,118.391503 203.243404,118.391503 C200.480062,118.391503 198.236557,116.151067 198.236557,113.388124 C198.236557,110.62518 200.480062,108.383768 203.243404,108.383768 C206.005769,108.383768 208.248297,110.62518 208.248297,113.388124" id="Fill-19" fill="#00C051"></path>
                            <path d="M246.931175,106.979344 C245.632561,106.979344 244.538168,105.972418 244.450225,104.657847 C244.446317,104.608037 244.046668,99.221811 241.309709,88.6388283 C238.814102,78.9817101 236.050761,73.2458429 236.022424,73.1901738 C235.422462,71.9537345 235.937413,70.4653195 237.17349,69.8646795 C238.409568,69.2650162 239.898724,69.7797109 240.499663,71.0151736 C240.620828,71.2661727 243.508266,77.2598756 246.128946,87.3926225 C248.999773,98.4971365 249.400399,104.092366 249.416033,104.325786 C249.507884,105.696026 248.471142,106.882656 247.10022,106.973484 L246.931175,106.979344" id="Fill-20" fill="#003227"></path>
                            <path d="M243.124251,113.388124 C243.124251,116.151067 245.366779,118.391503 248.131098,118.391503 C250.895418,118.391503 253.137946,116.151067 253.137946,113.388124 C253.137946,110.62518 250.895418,108.382791 248.131098,108.382791 C245.366779,108.382791 243.124251,110.62518 243.124251,113.388124" id="Fill-21" fill="#00C051"></path>
                            <path d="M200.425343,49.9273402 C200.425343,50.816092 199.705193,51.5368599 198.815022,51.5368599 C197.927782,51.5368599 197.205678,50.816092 197.205678,49.9273402 C197.205678,49.0385884 197.927782,48.3197738 198.815022,48.3197738 C199.705193,48.3197738 200.425343,49.0385884 200.425343,49.9273402" id="Fill-22" fill="#00C051"></path>
                            <path d="M252.733411,49.9273402 C252.733411,50.816092 252.009353,51.5368599 251.121136,51.5368599 C250.231942,51.5368599 249.511792,50.816092 249.511792,49.9273402 C249.511792,49.0385884 250.231942,48.3197738 251.121136,48.3197738 C252.009353,48.3197738 252.733411,49.0385884 252.733411,49.9273402" id="Fill-23" fill="#00C051"></path>
                            <path d="M233.024569,93.3101467 L240.757627,67.6965158 L233.199476,67.8088306 L225.790828,77.1817436 L225.790828,135.042414 L237.687464,135.042414 C237.687464,135.042414 241.953642,129.854448 241.953642,122.207276 C241.953642,100.824494 235.553398,94.666714 233.024569,93.3101467" id="Fill-24" fill="#003227"></path>
                            <path d="M225.790828,81.7768833 L225.790828,84.9910394 C226.673182,84.9802963 227.380629,84.2663649 227.380629,83.383473 C227.380629,82.5044878 226.673182,81.7886031 225.790828,81.7768833 L225.790828,81.7768833 Z M225.790828,77.1817436 L225.790828,77.2989416 L228.385125,80.8764117 L233.199476,67.8088306 L225.790828,77.1817436 L225.790828,77.1817436 Z M225.790828,87.6299486 L225.790828,90.8441047 C226.673182,90.8323849 227.380629,90.1174769 227.380629,89.2365383 C227.380629,88.3555997 226.673182,87.6416684 225.790828,87.6299486 L225.790828,87.6299486 Z" id="Fill-25" fill="#009D19"></path>
                            <path d="M554.653917,20.9774719 C538.154968,20.9774719 524.793604,34.3390247 524.793604,50.8180453 C524.793604,67.2902293 538.154968,80.6566654 554.653917,80.6566654 C571.14798,80.6566654 584.513253,67.2902293 584.513253,50.8180453 C584.513253,34.3390247 571.14798,20.9774719 554.653917,20.9774719 L554.653917,20.9774719 Z M554.653917,66.6720097 C545.888026,66.6720097 538.78913,59.5698087 538.78913,50.8180453 C538.78913,42.060422 545.888026,34.9631042 554.653917,34.9631042 C563.416877,34.9631042 570.515773,42.060422 570.515773,50.8180453 C570.515773,59.5698087 563.416877,66.6720097 554.653917,66.6720097 L554.653917,66.6720097 Z" id="Fill-26" fill="#00C051"></path>
                            <path d="M603.093502,206.065401 C603.093502,204.350403 582.003966,202.96356 555.988685,202.96356 C529.972427,202.96356 508.884846,204.350403 508.884846,206.065401 C508.884846,207.780399 529.972427,209.169196 555.988685,209.169196 C582.003966,209.169196 603.093502,207.780399 603.093502,206.065401" id="Fill-27" fill="#D0E0D7"></path>
                            <path d="M550.959364,200.653782 L547.952715,133.603808 L541.695133,133.242448 L546.011145,200.811022 L550.959364,200.653782" id="Fill-28" fill="#00C051"></path>
                            <path d="M545.947631,197.028456 L526.731266,206.714873 L551.474315,206.714873 L550.752211,197.561707 L545.947631,197.028456" id="Fill-29" fill="#00C051"></path>
                            <path d="M559.579662,201.041512 L562.585333,134.390012 L568.843892,134.028651 L564.527881,201.197776 L559.579662,201.041512" id="Fill-30" fill="#00C051"></path>
                            <path d="M564.58944,197.664255 L583.805806,206.714873 L559.064711,206.714873 L559.787792,198.160393 L564.58944,197.664255" id="Fill-31" fill="#00C051"></path>
                            <path d="M544.352944,116.96364 C539.742815,119.321274 533.471553,123.443715 533.471553,159.024062 L578.500932,159.024062 C578.500932,124.668435 569.909948,117.826999 565.427823,116.96364 L544.352944,116.96364" id="Fill-32" fill="#00C051"></path>
                            <path d="M555.456146,116.96364 L555.456146,159.024062 L578.500932,159.024062 C578.500932,124.668435 569.909948,117.826999 565.427823,116.96364 L555.456146,116.96364" id="Fill-33" fill="#009D19"></path>
                            <path d="M560.617381,21.5068164 C556.641412,20.5174696 551.745959,19.2448942 547.527661,19.5916051 C547.713317,20.1775953 548.340638,20.5516524 548.811618,20.8329276 C547.022481,21.3544589 544.986129,21.7050764 543.131524,21.8339942 C542.032245,21.9101729 540.846002,21.7246094 539.87766,22.1504289 C541.5085,23.5226226 543.757868,23.9357457 545.933951,23.6564237 C549.388129,23.2120478 552.855009,22.6768434 556.312117,22.3408757 C556.801663,22.2930198 559.468268,22.303763 559.223007,21.9365425 L560.617381,21.5068164" id="Fill-34" fill="#00C051"></path>
                            <path d="M550.617366,86.0966076 C550.617366,87.0976741 549.806343,87.9063406 548.806732,87.9063406 C547.806145,87.9063406 546.993167,87.0976741 546.993167,86.0966076 C546.993167,85.0974943 547.806145,84.2858979 548.806732,84.2858979 C549.806343,84.2858979 550.617366,85.0974943 550.617366,86.0966076" id="Fill-35" fill="#00C051"></path>
                            <path d="M553.570273,88.4825643 C553.570273,89.4807009 552.759249,90.290344 551.758662,90.290344 C550.759051,90.290344 549.948028,89.4807009 549.948028,88.4825643 C549.948028,87.4814977 550.759051,86.6699013 551.758662,86.6699013 C552.759249,86.6699013 553.570273,87.4814977 553.570273,88.4825643" id="Fill-36" fill="#00C051"></path>
                            <path d="M557.148546,89.6057121 C557.148546,90.6048254 556.336546,91.4164218 555.336935,91.4164218 C554.336348,91.4164218 553.526301,90.6048254 553.526301,89.6057121 C553.526301,88.6065989 554.336348,87.7959791 555.336935,87.7959791 C556.336546,87.7959791 557.148546,88.6065989 557.148546,89.6057121" id="Fill-37" fill="#00C051"></path>
                            <path d="M560.889025,88.7911858 C560.889025,89.7922523 560.076047,90.6018954 559.077414,90.6018954 C558.076826,90.6018954 557.265803,89.7922523 557.265803,88.7911858 C557.265803,87.7920725 558.076826,86.9804761 559.077414,86.9804761 C560.076047,86.9804761 560.889025,87.7920725 560.889025,88.7911858" id="Fill-38" fill="#00C051"></path>
                            <path d="M563.713926,86.1190705 C563.713926,87.1181838 562.904857,87.9288035 561.902315,87.9288035 C560.903682,87.9288035 560.091681,87.1181838 560.091681,86.1190705 C560.091681,85.1199573 560.903682,84.3083609 561.902315,84.3083609 C562.904857,84.3083609 563.713926,85.1199573 563.713926,86.1190705" id="Fill-39" fill="#00C051"></path>
                            <path d="M528.381649,129.087777 C528.242896,129.087777 528.101211,129.078011 527.958549,129.055548 C526.432262,128.824082 525.380863,127.402079 525.61049,125.875574 C525.649576,125.615785 526.614987,119.37792 530.857713,107.191278 C534.730105,96.0730904 538.51944,89.6174319 538.678713,89.3468998 C539.466285,88.0176787 541.183114,87.5781861 542.512997,88.3643896 C543.842879,89.1496164 544.284545,90.8646144 543.498927,92.1938354 C543.462773,92.2553644 539.818054,98.4893233 536.145975,109.032263 C532.101608,120.646589 531.15574,126.652011 531.145968,126.71061 C530.93393,128.094524 529.741823,129.087777 528.381649,129.087777" id="Fill-40" fill="#064831"></path>
                            <path d="M531.828987,136.612868 C531.572977,139.711779 528.852629,142.016674 525.756084,141.760792 C522.65563,141.506863 520.347633,138.788845 520.602666,135.69091 C520.858676,132.593952 523.579024,130.287104 526.6785,130.542986 C529.777,130.798869 532.084019,133.514933 531.828987,136.612868" id="Fill-41" fill="#00C051"></path>
                            <path d="M585.236334,125.875574 C585.197248,125.615785 584.231837,119.37792 579.989111,107.192254 C576.117696,96.0721138 572.326407,89.6174319 572.167134,89.3468998 C572.030334,89.117387 571.859336,88.9249869 571.674657,88.7501665 L572.33911,85.7108307 L565.703376,85.832912 C565.703376,85.832912 561.244702,96.577042 555.631053,96.577042 C550.018382,96.577042 545.295881,85.8290054 545.295881,85.8290054 L538.846781,85.7108307 L544.352944,117.270309 L565.427823,117.270309 L569.850343,97.0780636 C571.199768,99.9386723 572.941026,103.975168 574.700848,109.031287 C578.745216,120.646589 579.691084,126.652011 579.699878,126.706704 C579.908008,128.094524 581.102069,129.089731 582.465175,129.089731 C582.601974,129.089731 582.742681,129.078987 582.884366,129.058478 C584.412607,128.829942 585.465961,127.403056 585.236334,125.875574" id="Fill-42" fill="#064831"></path>
                            <path d="M579.018814,136.612868 C579.27287,139.711779 581.994195,142.016674 585.09074,141.760792 C588.191194,141.506863 590.498213,138.788845 590.243181,135.69091 C589.990102,132.593952 587.268777,130.287104 584.168323,130.542986 C581.070801,130.798869 578.762805,133.514933 579.018814,136.612868" id="Fill-43" fill="#00C051"></path>
                            <path d="M574.530827,127.649171 L536.483088,127.649171 C535.674019,130.378909 534.97732,133.858714 534.457484,138.327866 L577.126101,138.327866 C576.443083,133.954426 575.544117,130.451181 574.530827,127.649171 L574.530827,127.649171 Z M578.178477,148.243796 L533.695317,148.243796 C533.548747,151.444279 533.471553,154.98952 533.471553,158.922491 L578.499955,158.922491 C578.498001,155.01589 578.384653,151.467719 578.178477,148.243796 L578.178477,148.243796 Z" id="Fill-44" fill="#064831"></path>
                            <path d="M559.077414,90.6018954 C560.076047,90.6018954 560.889025,89.7922523 560.889025,88.7911858 C560.889025,87.7920725 560.076047,86.9804761 559.077414,86.9804761 C558.076826,86.9804761 557.265803,87.7920725 557.265803,88.7911858 C557.265803,89.7922523 558.076826,90.6018954 559.077414,90.6018954" id="Fill-45" fill="#009D19"></path>
                            <path d="M561.902315,87.9288035 C562.904857,87.9288035 563.713926,87.1181838 563.713926,86.1190705 C563.713926,85.1199573 562.904857,84.3083609 561.902315,84.3083609 C560.903682,84.3083609 560.091681,85.1199573 560.091681,86.1190705 C560.091681,87.1181838 560.903682,87.9288035 561.902315,87.9288035" id="Fill-46" fill="#009D19"></path>
                            <path d="M555.329118,91.4154451 L555.336935,91.4164218 C556.336546,91.4164218 557.148546,90.6048254 557.148546,89.6057121 C557.148546,88.6065989 556.336546,87.7959791 555.336935,87.7959791 L555.329118,87.7959791 L555.329118,91.4154451" id="Fill-47" fill="#009D19"></path>
                            <path d="M555.456146,127.649171 L555.456146,138.327866 L577.125124,138.327866 L577.119261,138.28587 C577.073336,137.993851 577.023502,137.715506 576.977576,137.433254 C576.920902,137.09924 576.865206,136.766202 576.806577,136.443907 C576.757721,136.174352 576.706909,135.910656 576.657075,135.647937 C576.594539,135.32076 576.529071,135.000418 576.46458,134.683984 C576.414746,134.445681 576.365889,134.205425 576.315078,133.972982 C576.234953,133.605762 576.151896,133.249284 576.068839,132.898667 C576.029754,132.73459 575.992623,132.562699 575.953537,132.401552 C575.834327,131.920063 575.712185,131.457131 575.587111,131.002989 C575.533369,130.807659 575.477672,130.621118 575.423929,130.430671 C575.344781,130.155256 575.264656,129.881794 575.183554,129.617122 C575.121994,129.419838 575.060435,129.223532 574.998875,129.031132 C574.91875,128.782086 574.83667,128.539877 574.754591,128.300597 C574.694008,128.120894 574.632449,127.939237 574.569912,127.764416 L574.527895,127.649171 L555.456146,127.649171" id="Fill-48" fill="#003227"></path>
                            <path d="M578.499955,158.922491 C578.499955,158.651959 578.495069,158.39803 578.493115,158.132381 C578.491161,157.424309 578.487252,156.716238 578.477481,156.032583 C578.469664,155.520818 578.455007,155.030539 578.444258,154.532448 C578.432532,154.084165 578.424715,153.626116 578.410058,153.1876 C578.394424,152.667046 578.370973,152.167977 578.35143,151.662072 C578.334819,151.270436 578.321139,150.872939 578.302573,150.491069 C578.278145,149.973444 578.247854,149.469493 578.21854,148.967494 C578.203882,148.725285 578.190203,148.483076 578.174568,148.243796 L555.456146,148.243796 L555.456146,158.922491 L578.499955,158.922491" id="Fill-49" fill="#003227"></path>
                            <path d="M579.989111,107.192254 C576.117696,96.0721138 572.326407,89.6174319 572.167134,89.3468998 C572.030334,89.117387 571.859336,88.9249869 571.674657,88.7501665 L572.33911,85.7108307 L565.703376,85.832912 C565.703376,85.832912 561.244702,96.577042 555.631053,96.577042 L555.456146,96.5662988 L555.456146,117.270309 L565.427823,117.270309 L569.850343,97.0780636 C571.199768,99.9386723 572.941026,103.975168 574.700848,109.031287 C578.745216,120.646589 579.691084,126.652011 579.699878,126.706704 C579.908008,128.094524 581.102069,129.089731 582.465175,129.089731 C582.601974,129.089731 582.742681,129.078987 582.884366,129.058478 C584.412607,128.829942 585.465961,127.403056 585.236334,125.875574 C585.197248,125.615785 584.231837,119.37792 579.989111,107.192254" id="Fill-50" fill="#003227"></path>
                            <path d="M707.35103,160.152094 C707.35103,158.846312 691.287884,157.792506 671.474488,157.792506 C651.660115,157.792506 635.597946,158.846312 635.597946,160.152094 C635.597946,161.458852 651.660115,162.516564 671.474488,162.516564 C691.287884,162.516564 707.35103,161.458852 707.35103,160.152094" id="Fill-51" fill="#D0E0D7"></path>
                            <path d="M678.491305,102.590278 L674.702947,95.521283 L674.702947,69.8031506 L668.73362,69.8031506 L668.73362,95.1696889 L664.092222,102.590278 L678.491305,102.590278" id="Fill-52" fill="#00C051"></path>
                            <path d="M678.491305,102.590278 L674.702947,95.521283 L674.702947,69.8031506 L671.3201,69.8031506 L671.3201,102.590278 L678.491305,102.590278" id="Fill-53" fill="#009D19"></path>
                            <path d="M687.302144,106.565245 L655.634129,106.565245 L656.024984,102.590278 L686.712931,102.590278 L687.302144,106.565245" id="Fill-54" fill="#00C051"></path>
                            <path d="M646.696262,102.435967 C645.807068,102.435967 644.967708,101.899786 644.623755,101.021778 C644.457642,100.598888 640.61945,88.4376384 644.633527,78.5392875 C648.121904,69.9389049 656.444175,64.1502986 656.795944,63.9686416 C657.887406,63.4070677 659.229014,63.8348405 659.790867,64.9257589 C660.355652,66.0157007 659.927667,67.3576182 658.838159,67.9191921 C658.7082,67.9895109 651.603441,73.1989637 648.757043,80.2093595 C645.402533,88.4845176 648.732614,99.3116628 648.766814,99.3985847 C649.213365,100.543219 648.650535,101.835327 647.507285,102.281656 C647.241504,102.387135 646.965952,102.435967 646.696262,102.435967" id="Fill-55" fill="#064831"></path>
                            <path d="M644.097079,107.876886 C644.097079,110.245263 646.019106,112.164381 648.385731,112.164381 C650.752355,112.164381 652.673406,110.245263 652.673406,107.876886 C652.673406,105.508509 650.752355,103.589391 648.385731,103.589391 C646.019106,103.589391 644.097079,105.508509 644.097079,107.876886" id="Fill-56" fill="#00C051"></path>
                            <path d="M655.66442,102.570745 L669.752774,102.570745 L669.543666,96.3348327 L669.543666,67.4884893 L656.870207,61.4772067 L655.66442,102.570745 L655.66442,102.570745 Z M697.886486,78.5392875 C694.403972,69.9564846 686.113946,64.1766681 685.727977,63.9725482 L685.602904,60.403868 L673.891924,66.8800362 L673.891924,102.570745 L687.077403,102.570745 L685.931222,69.7709211 C688.294915,71.8922056 691.919114,75.6679356 693.76297,80.2093595 C697.118457,88.4845176 693.786422,99.3116628 693.753199,99.3985847 C693.304693,100.543219 693.870455,101.835327 695.012728,102.281656 C695.279486,102.387135 695.553084,102.435967 695.824728,102.435967 C696.713922,102.435967 697.553283,101.899786 697.896258,101.021778 C698.061394,100.598888 701.900563,88.4376384 697.886486,78.5392875 L697.886486,78.5392875 Z" id="Fill-57" fill="#064831"></path>
                            <path d="M698.422934,107.876886 C698.422934,110.245263 696.501884,112.164381 694.134282,112.164381 C691.765703,112.164381 689.84563,110.245263 689.84563,107.876886 C689.84563,105.508509 691.765703,103.589391 694.134282,103.589391 C696.501884,103.589391 698.422934,105.508509 698.422934,107.876886" id="Fill-58" fill="#00C051"></path>
                            <path d="M668.141476,156.023793 L665.853999,106.074966 L661.085573,106.334755 L664.373637,156.151734 L668.141476,156.023793" id="Fill-59" fill="#00C051"></path>
                            <path d="M664.324781,153.269639 L649.690208,160.648232 L668.534284,160.648232 L667.983179,153.675925 L664.324781,153.269639" id="Fill-60" fill="#00C051"></path>
                            <path d="M674.998042,156.023793 L677.287473,106.628727 L682.054921,106.334755 L678.766857,156.151734 L674.998042,156.023793" id="Fill-61" fill="#00C051"></path>
                            <path d="M678.81376,153.269639 L693.450287,160.648232 L674.60621,160.648232 L675.156338,153.675925 L678.81376,153.269639" id="Fill-62" fill="#00C051"></path>
                            <path d="M670.525688,17.4527409 C657.961668,17.4527409 647.785769,27.6284605 647.785769,40.1803702 C647.785769,52.72642 657.961668,62.9060461 670.525688,62.9060461 C683.089709,62.9060461 693.270494,52.72642 693.270494,40.1803702 C693.270494,27.6284605 683.089709,17.4527409 670.525688,17.4527409 L670.525688,17.4527409 Z M670.525688,52.2546979 C663.852824,52.2546979 658.445351,46.8450318 658.445351,40.1803702 C658.445351,33.5118019 663.852824,28.1050658 670.525688,28.1050658 C677.201485,28.1050658 682.609935,33.5118019 682.609935,40.1803702 C682.609935,46.8450318 677.201485,52.2546979 670.525688,52.2546979 L670.525688,52.2546979 Z" id="Fill-63" fill="#00C051"></path>
                            <path d="M681.781323,25.6058177 L681.839951,25.5569852 C681.919099,25.4114643 682.060784,25.3001261 682.263052,25.3001261 L683.366239,25.3001261 L683.468838,25.3206358 C683.558734,25.3147759 683.646677,25.3050094 683.734619,25.3001261 L683.841127,25.3167292 C684.532939,25.0706133 685.198369,24.7795715 685.853051,24.4484871 C685.891159,24.3049195 685.990827,24.1701417 686.178437,24.0920097 C686.298625,24.0402472 686.417836,23.9865315 686.536069,23.9328157 C686.368002,23.9630919 686.21166,24.0021579 686.084632,24.0695468 C690.116297,20.8817602 689.05415,15.1380797 685.39282,12.2393816 C687.735016,15.2357447 682.368582,17.8355879 680.398675,17.9088366 C677.605042,18.0143149 672.560087,17.2232281 669.763522,17.2232281 C663.244068,17.2232281 656.275131,19.5330061 655.198326,22.4678403 C654.631587,21.6210844 654.223144,20.3572989 654.062894,18.9772921 C653.006609,21.007748 652.763302,23.9396523 652.519018,25.9574118 C651.92101,25.5579618 651.333751,24.4973196 650.812938,24.0089944 C650.812938,25.4710399 650.812938,26.6059076 651.543836,28.392201 L653.120934,28.9850277 C653.832289,25.8538869 660.652702,25.2844997 663.076,24.9114193 C667.284527,24.2639002 671.162781,24.6779999 675.379125,24.8684467 C677.376392,24.9582985 679.570063,25.3489586 681.739306,25.6351172 L681.781323,25.6058177" id="Fill-64" fill="#00C051"></path>
                            <path d="M685.727977,63.9725482 L685.602904,60.403868 L673.891924,66.8800362 L673.891924,102.570745 L687.077403,102.570745 L685.931222,69.7709211 C688.294915,71.8922056 691.919114,75.6679356 693.76297,80.2093595 C697.118457,88.4845176 693.786422,99.3116628 693.753199,99.3985847 C693.304693,100.543219 693.870455,101.835327 695.012728,102.281656 C695.279486,102.387135 695.553084,102.435967 695.824728,102.435967 C696.713922,102.435967 697.553283,101.899786 697.896258,101.021778 C698.061394,100.598888 701.900563,88.4376384 697.886486,78.5392875 C694.403972,69.9564846 686.113946,64.1766681 685.727977,63.9725482" id="Fill-65" fill="#003227"></path>
                            <path d="M682.131138,71.7300816 C682.131138,72.8639726 681.210676,73.7839772 680.077197,73.7839772 C678.941765,73.7839772 678.022279,72.8639726 678.022279,71.7300816 C678.022279,70.5971672 678.941765,69.6781393 680.077197,69.6781393 C681.210676,69.6781393 682.131138,70.5971672 682.131138,71.7300816" id="Fill-66" fill="#EEF0EF"></path>
                            <path d="M444.607833,12.0704211 C428.520258,12.0704211 415.489167,25.1028428 415.489167,41.1755768 C415.489167,57.2404977 428.520258,70.2748726 444.607833,70.2748726 C460.69443,70.2748726 473.728453,57.2404977 473.728453,41.1755768 C473.728453,25.1028428 460.69443,12.0704211 444.607833,12.0704211 L444.607833,12.0704211 Z M444.607833,56.6349745 C436.059843,56.6349745 429.136831,49.7095472 429.136831,41.1736235 C429.136831,32.6337933 436.059843,25.7112959 444.607833,25.7112959 C453.153868,25.7112959 460.078834,32.6337933 460.078834,41.1736235 C460.078834,49.7095472 453.153868,56.6349745 444.607833,56.6349745 L444.607833,56.6349745 Z" id="Fill-67" fill="#00C051"></path>
                            <path d="M491.847495,195.670912 C491.847495,193.996933 471.280727,192.646226 445.911333,192.646226 C420.539985,192.646226 399.974194,193.996933 399.974194,195.670912 C399.974194,197.342937 420.539985,198.696574 445.911333,198.696574 C471.280727,198.696574 491.847495,197.342937 491.847495,195.670912" id="Fill-68" fill="#D0E0D7"></path>
                            <path d="M466.177143,124.869625 L425.624026,124.869625 L426.127251,117.470522 L465.423771,117.470522 L466.177143,124.869625" id="Fill-69" fill="#00C051"></path>
                            <path d="M414.182735,119.58204 C413.044371,119.58204 411.968544,118.895455 411.528833,117.772307 C411.317771,117.230266 406.401798,104.387314 411.541535,91.7133235 C416.00998,80.699638 426.663699,75.108315 427.114159,74.8758722 C428.515373,74.1570576 430.233179,74.7059351 430.951374,76.1005917 C431.673478,77.4972016 431.128236,79.2151295 429.729953,79.9349208 C429.561886,80.0247726 420.4667,84.874818 416.821004,93.8541409 C412.525512,104.44689 416.79169,115.583634 416.833706,115.694972 C417.407286,117.159947 416.685182,118.813416 415.221431,119.385733 C414.881388,119.521488 414.528642,119.58204 414.182735,119.58204" id="Fill-70" fill="#064831"></path>
                            <path d="M427.211873,71.6851557 L425.666043,119.75393 L465.888888,119.75393 L464.000083,70.3110087 L445.673889,80.4437556 L427.211873,71.6851557" id="Fill-71" fill="#064831"></path>
                            <path d="M445.568358,80.3939465 L445.568358,119.75393 L465.888888,119.75393 L464.000083,70.3110087 L445.673889,80.4437556 L445.568358,80.3939465" id="Fill-72" fill="#003227"></path>
                            <path d="M410.854609,126.55044 C410.854609,129.580986 413.314061,132.038238 416.345138,132.038238 C419.377193,132.038238 421.838599,129.580986 421.838599,126.55044 C421.838599,123.517941 419.377193,121.059712 416.345138,121.059712 C413.314061,121.059712 410.854609,123.517941 410.854609,126.55044" id="Fill-73" fill="#00C051"></path>
                            <path d="M476.940301,119.58204 C478.078665,119.58204 479.153515,118.895455 479.593226,117.772307 C479.804288,117.230266 484.720261,104.387314 479.581501,91.7133235 C475.112079,80.699638 464.459337,75.108315 464.0079,74.8758722 C462.607663,74.1570576 460.889858,74.7059351 460.171662,76.1005917 C459.448581,77.4972016 459.994801,79.2151295 461.393083,79.9349208 C461.559196,80.0247726 470.656336,84.874818 474.301055,93.8541409 C478.597524,104.44689 474.331347,115.583634 474.28933,115.694972 C473.715751,117.159947 474.436877,118.813416 475.901605,119.385733 C476.241648,119.521488 476.594395,119.58204 476.940301,119.58204" id="Fill-74" fill="#003227"></path>
                            <path d="M480.268428,126.55044 C480.268428,129.580986 477.807998,132.038238 474.777898,132.038238 C471.744866,132.038238 469.284437,129.580986 469.284437,126.55044 C469.284437,123.517941 471.744866,121.059712 474.777898,121.059712 C477.807998,121.059712 480.268428,123.517941 480.268428,126.55044" id="Fill-75" fill="#00C051"></path>
                            <path d="M441.644178,189.107822 L438.711792,124.951663 L432.606643,124.574676 L436.817124,189.271899 L441.644178,189.107822" id="Fill-76" fill="#00C051"></path>
                            <path d="M436.755564,185.583091 L418.015064,195.030229 L442.146426,195.030229 L441.440934,186.103645 L436.755564,185.583091" id="Fill-77" fill="#00C051"></path>
                            <path d="M450.422772,189.107822 L453.352227,124.951663 L459.458353,124.574676 L455.246895,189.271899 L450.422772,189.107822" id="Fill-78" fill="#00C051"></path>
                            <path d="M455.3065,185.583091 L474.048954,195.030229 L449.919547,195.030229 L450.625039,186.103645 L455.3065,185.583091" id="Fill-79" fill="#00C051"></path>
                            <path d="M433.198788,74.3494577 L441.723326,85.5584733 L445.42765,80.3841799 L450.725684,85.6326987 L457.793312,73.6550594 L445.529273,80.2708885 L433.198788,74.3494577" id="Fill-80" fill="#00C051"></path>
                            <path d="M439.266805,12.9884724 C441.275798,12.2823542 443.199779,11.8135621 445.32896,11.3877425 C447.420032,10.9697362 451.016871,10.7871026 452.080972,8.72344052 C452.333074,10.0751245 452.091721,11.3555131 451.770243,12.6652011 C453.754807,11.5098238 456.666674,11.7569164 458.571113,10.2685013 C458.123584,11.9434566 456.959815,12.8927607 456.284613,14.3391798 C457.183579,14.3782458 458.270155,14.4798174 459.106584,14.7982054 C456.076483,16.9751589 452.93499,15.7660659 449.476904,15.2728575 C447.362381,14.9700959 445.394428,14.880244 443.276973,14.7776958 C442.191374,14.7259333 441.099913,14.4798174 440.106165,14.0373948 L439.266805,12.9884724" id="Fill-81" fill="#00C051"></path>
                            <path d="M450.725684,85.6326987 L457.716118,73.7859305 L445.673889,80.4437556 L445.568358,80.3939465 L445.568358,80.5238409 L450.725684,85.6326987" id="Fill-82" fill="#009D19"></path>
                            <path d="M388.932552,215.420734 C388.932552,213.854187 369.688827,212.590402 345.951251,212.590402 C322.213676,212.590402 302.971905,213.854187 302.971905,215.420734 C302.971905,216.984351 322.213676,218.252044 345.951251,218.252044 C369.688827,218.252044 388.932552,216.984351 388.932552,215.420734" id="Fill-83" fill="#D0E0D7"></path>
                            <path d="M342.492188,23.5538754 C325.996171,23.5538754 312.631876,36.9144516 312.631876,53.3934721 C312.631876,69.8666328 325.996171,83.2340455 342.492188,83.2340455 C358.989183,83.2340455 372.34957,69.8666328 372.34957,53.3934721 C372.34957,36.9144516 358.989183,23.5538754 342.492188,23.5538754 L342.492188,23.5538754 Z M342.492188,69.2464599 C333.727274,69.2464599 326.627401,62.1452355 326.627401,53.3934721 C326.627401,44.6368255 333.727274,37.5404844 342.492188,37.5404844 C351.257102,37.5404844 358.355021,44.6368255 358.355021,53.3934721 C358.355021,62.1452355 351.257102,69.2464599 342.492188,69.2464599 L342.492188,69.2464599 Z" id="Fill-84" fill="#00C051"></path>
                            <path d="M364.608695,143.879146 L323.025676,143.879146 L323.541604,136.29155 L363.834803,136.29155 L364.608695,143.879146" id="Fill-85" fill="#00C051"></path>
                            <path d="M375.350356,138.45776 C376.517057,138.45776 377.620244,137.753595 378.071681,136.601148 C378.289582,136.046411 383.329652,120.078178 378.059955,107.083846 C373.478162,95.7898618 362.551822,88.1905458 362.089637,87.9512665 C360.653246,87.2138955 358.893424,87.7764461 358.153731,89.2091921 C357.415993,90.6390081 357.974915,92.3999086 359.407397,93.1402096 C359.578396,93.2300614 368.907118,100.07052 372.643688,109.276426 C377.049596,120.139707 372.675933,134.357782 372.632939,134.473027 C372.043726,135.974139 372.784395,137.66765 374.286254,138.254617 C374.634115,138.395255 374.996632,138.45776 375.350356,138.45776" id="Fill-86" fill="#003227"></path>
                            <path d="M324.653585,84.679488 L323.06867,138.632581 L364.312622,138.632581 L362.375938,83.2711582 L343.584627,93.6607642 L324.653585,84.679488" id="Fill-87" fill="#064831"></path>
                            <path d="M378.763493,145.600981 C378.763493,148.709659 376.240527,151.230393 373.132256,151.230393 C370.023008,151.230393 367.501019,148.709659 367.501019,145.600981 C367.501019,142.492303 370.023008,139.972545 373.132256,139.972545 C376.240527,139.972545 378.763493,142.492303 378.763493,145.600981" id="Fill-88" fill="#00C051"></path>
                            <path d="M293.095009,78.9279943 C293.095009,82.0366723 295.616999,84.55643 298.726247,84.55643 C301.835495,84.55643 304.358461,82.0366723 304.358461,78.9279943 C304.358461,75.8202931 301.835495,73.3015119 298.726247,73.3015119 C295.616999,73.3015119 293.095009,75.8202931 293.095009,78.9279943" id="Fill-89" fill="#00C051"></path>
                            <path d="M339.450362,209.750303 L336.443714,143.963138 L330.185155,143.575408 L334.502144,209.91731 L339.450362,209.750303" id="Fill-90" fill="#00C051"></path>
                            <path d="M334.440584,206.134743 L315.223241,215.820184 L339.967268,215.820184 L339.24321,206.667994 L334.440584,206.134743" id="Fill-91" fill="#00C051"></path>
                            <path d="M348.453698,209.750303 L351.459369,143.963138 L357.717928,143.575408 L353.401917,209.91731 L348.453698,209.750303" id="Fill-92" fill="#00C051"></path>
                            <path d="M353.462499,206.134743 L372.679842,215.820184 L347.93777,215.820184 L348.659874,206.667994 L353.462499,206.134743" id="Fill-93" fill="#00C051"></path>
                            <path d="M347.968061,24.4924363 C345.90728,23.7706918 343.934442,23.2892032 341.750542,22.8526405 C339.607681,22.4248676 335.918991,22.2363741 334.82753,20.1199729 C334.569566,21.5058397 334.817759,22.8194344 335.145099,24.1623285 C333.109724,22.9776517 330.127504,23.2296275 328.174208,21.7050764 C328.630531,23.4210509 329.825568,24.395748 330.519335,25.8753732 C329.595941,25.9173691 328.482006,26.0228474 327.623103,26.3500252 C330.731374,28.5826478 333.952993,27.3403486 337.499021,26.8354204 C339.664355,26.523869 341.684096,26.4330405 343.856271,26.3295156 C344.968252,26.2748231 346.089028,26.0228474 347.108181,25.5706583 L347.968061,24.4924363" id="Fill-94" fill="#00C051"></path>
                            <path d="M340.748977,109.714942 L336.395834,112.274742 L331.018652,109.714942 L331.018652,99.6495839 L340.748977,99.6495839 L340.748977,109.714942" id="Fill-95" fill="#00C051"></path>
                            <path d="M312.801897,106.878749 C312.938696,106.903166 313.072564,106.923675 313.209363,106.942232 C320.306305,107.916929 327.15994,97.0888068 328.462463,94.9089233 C329.198247,93.672484 328.793712,92.0756607 327.558612,91.3382898 C326.324489,90.6018954 324.724916,91.0062287 323.986201,92.239738 C321.452486,96.4725404 316.542376,102.143949 313.919741,101.785518 C307.80873,100.940716 303.234754,91.6390981 301.986951,88.1241336 C301.504246,86.7714729 300.018021,86.0614482 298.661756,86.5400068 C297.307445,87.0214954 296.595112,88.5050272 297.072932,89.8615945 C297.129606,90.0159053 298.451671,93.7222932 300.964866,97.6230345 C304.441518,103.017074 308.425303,106.126729 312.801897,106.878749" id="Fill-96" fill="#064831"></path>
                            <path d="M352.20297,1.56459379 C352.20297,1.56459379 358.644254,4.65080875 358.504523,6.49179457 C358.364793,8.33571035 357.466804,20.1307161 357.466804,20.1307161 L348.073592,16.8228015 L352.20297,1.56459379" id="Fill-97" fill="#064831"></path>
                            <path d="M357.466804,20.1307161 L323.165406,12.7042672 L324.780613,10.9716895 L359.081034,18.4000917 L357.466804,20.1307161" id="Fill-98" fill="#00C051"></path>
                            <path d="M348.073592,16.8228015 L353.053079,0.144544245 L344.118143,0.57817698 L340.469516,14.3899656 L348.073592,16.8228015" id="Fill-99" fill="#00C051"></path>
                            <path d="M343.796665,138.632581 L364.312622,138.632581 L362.375938,83.2711582 L343.796665,93.5435661 L343.796665,138.632581" id="Fill-100" fill="#003227"></path>
                            <path d="M310.762613,319.750426 C310.762613,317.659418 285.066856,315.97079 253.372458,315.97079 C221.675129,315.97079 195.981326,317.659418 195.981326,319.750426 C195.981326,321.839481 221.675129,323.53104 253.372458,323.53104 C285.066856,323.53104 310.762613,321.839481 310.762613,319.750426" id="Fill-101" fill="#D0E0D7"></path>
                            <path d="M248.039248,313.144364 L244.379872,232.99165 L236.754299,232.520904 L242.01227,313.34946 L248.039248,313.144364" id="Fill-102" fill="#00C051"></path>
                            <path d="M241.937031,308.738694 L218.52191,320.541513 L248.667546,320.541513 L247.789101,309.389143 L241.937031,308.738694" id="Fill-103" fill="#00C051"></path>
                            <path d="M259.008581,313.144364 L262.670889,232.99165 L270.295485,232.520904 L265.036536,313.34946 L259.008581,313.144364" id="Fill-104" fill="#00C051"></path>
                            <path d="M265.112753,308.738694 L288.523965,320.541513 L258.380283,320.541513 L259.260683,309.389143 L265.112753,308.738694" id="Fill-105" fill="#00C051"></path>
                            <path d="M278.691041,232.891055 L277.749081,223.645106 L228.657746,223.645106 L228.029447,232.891055 L233.28351,232.891055 L235.948161,262.762881 L250.31793,262.762881 L249.119961,232.891055 L258.100822,232.891055 L256.902852,262.762881 L271.27653,262.762881 L273.938249,232.891055 L278.691041,232.891055" id="Fill-106" fill="#00C051"></path>
                            <path d="M253.411544,223.645106 L253.411544,232.891055 L258.100822,232.891055 L256.902852,262.762881 L271.27653,262.762881 L273.938249,232.891055 L278.691041,232.891055 L277.749081,223.645106 L253.411544,223.645106" id="Fill-107" fill="#009D19"></path>
                            <path d="M230.752727,135.042414 L230.201622,135.042414 C230.352101,135.48972 230.51626,135.930189 230.693121,136.364799 L230.752727,135.042414 M248.131098,118.391503 C245.366779,118.391503 243.124251,116.151067 243.124251,113.388124 C243.124251,110.62518 245.366779,108.382791 248.131098,108.382791 C250.895418,108.382791 253.137946,110.62518 253.137946,113.388124 C253.137946,116.151067 250.895418,118.391503 248.131098,118.391503 M251.391803,105.600314 C250.617911,105.600314 249.85379,105.63938 249.099441,105.716536 C248.700769,106.419724 247.967917,106.915862 247.10022,106.973484 L246.931175,106.979344 C246.341962,106.979344 245.794765,106.772295 245.363848,106.422654 C243.764276,106.868983 242.237011,107.490132 240.804529,108.261686 C241.507091,111.976864 241.953642,116.561261 241.953642,122.207276 C241.953642,129.854448 237.687464,135.042414 237.687464,135.042414 L235.833836,135.042414 L235.295434,143.425004 C239.360322,147.644133 245.06973,150.268392 251.391803,150.268392 C263.733036,150.268392 273.737936,140.269447 273.737936,127.93533 C273.737936,115.59926 263.733036,105.600314 251.391803,105.600314" id="Fill-108" fill="#FFFFFF"></path>
                            <path d="M235.833836,135.042414 L230.752727,135.042414 L230.693121,136.364799 C231.772857,139.009568 233.344093,141.400408 235.295434,143.425004 L235.833836,135.042414" id="Fill-109" fill="#4DD386"></path>
                            <path d="M249.099441,105.716536 C247.819392,105.847407 246.570612,106.085709 245.363848,106.422654 C245.794765,106.772295 246.341962,106.979344 246.931175,106.979344 L247.10022,106.973484 C247.967917,106.915862 248.700769,106.419724 249.099441,105.716536" id="Fill-110" fill="#4D7068"></path>
                            <path d="M248.131098,108.382791 C245.366779,108.382791 243.124251,110.62518 243.124251,113.388124 C243.124251,116.151067 245.366779,118.391503 248.131098,118.391503 C250.895418,118.391503 253.137946,116.151067 253.137946,113.388124 C253.137946,110.62518 250.895418,108.382791 248.131098,108.382791" id="Fill-111" fill="#4DD386"></path>
                            <path d="M240.804529,108.261686 C233.804324,112.03351 229.046647,119.428706 229.046647,127.93533 C229.046647,130.419928 229.453135,132.809792 230.201622,135.042414 L237.687464,135.042414 C237.687464,135.042414 241.953642,129.854448 241.953642,122.207276 C241.953642,116.561261 241.507091,111.976864 240.804529,108.261686" id="Fill-112" fill="#4D7068"></path>
                            <path d="M251.745526,91.9731125 C231.644852,91.9731125 215.364782,108.253873 215.364782,128.329897 C215.364782,148.40006 231.644852,164.684728 251.745526,164.684728 C271.841314,164.684728 288.123339,148.40006 288.123339,128.329897 C288.123339,108.253873 271.841314,91.9731125 251.745526,91.9731125 L251.745526,91.9731125 Z M251.745526,147.646086 C241.065425,147.646086 232.417767,138.993941 232.417767,128.329897 C232.417767,117.660969 241.065425,109.013707 251.745526,109.013707 C262.423673,109.013707 271.074262,117.660969 271.074262,128.329897 C271.074262,138.993941 262.423673,147.646086 251.745526,147.646086 L251.745526,147.646086 Z" id="Fill-113" fill="#00C051"></path>
                            <path d="M230.014989,166.448558 L228.082213,226.497902 L278.331455,226.497902 L275.97167,164.73063 L253.574726,177.389971 L230.014989,166.448558" id="Fill-114" fill="#064831"></path>
                            <path d="M230.014989,166.448558 L228.082213,226.497902 L278.331455,226.497902 L275.97167,164.73063 L253.574726,177.389971 L230.014989,166.448558" id="Fill-115" fill="#064831"></path>
                            <path d="M295.241778,190.064939 C294.492314,188.220047 293.601166,186.498212 292.621098,184.895529 C290.542729,186.05579 288.544485,187.337155 286.660566,188.789434 C287.405144,190.022943 288.077414,191.340444 288.643176,192.738031 C294.011563,205.972619 288.682261,219.885979 288.628519,220.024664 C287.912278,221.85393 288.815152,223.919545 290.644351,224.63543 C291.07136,224.80439 291.50814,224.881546 291.941011,224.881546 C293.363722,224.881546 294.707284,224.02307 295.256435,222.618647 C295.521239,221.942805 301.663519,205.898394 295.241778,190.064939" id="Fill-116" fill="#00C051"></path>
                            <path d="M296.099704,233.585453 C296.099704,237.371927 293.025633,240.441538 289.237275,240.441538 C285.450871,240.441538 282.375822,237.371927 282.375822,233.585453 C282.375822,229.797027 285.450871,226.726438 289.237275,226.726438 C293.025633,226.726438 296.099704,229.797027 296.099704,233.585453" id="Fill-117" fill="#00C051"></path>
                            <path d="M230.854349,99.3038496 C222.501787,103.014144 226.611622,85.176603 233.858066,93.1040735 C233.572743,88.9992123 235.588575,85.0818679 239.709159,83.8005027 C245.039439,82.1431271 248.19559,84.8699348 250.804544,88.8790843 C251.558893,81.417476 267.710959,77.6104931 266.669331,88.4093155 C267.596634,83.0904779 276.47001,81.7563736 281.319538,83.4244923 C290.544683,86.6015358 290.544683,101.225897 276.29608,104.306253 C267.305447,106.24881 263.342182,104.306253 254.247973,104.306253 C250.124457,104.306253 246.338053,104.103109 242.406056,103.517119 C240.905174,103.292489 235.361879,101.344072 234.397446,101.649764 C234.285075,101.883183 234.256738,102.126369 234.319275,102.382251 L230.854349,99.3038496" id="Fill-118" fill="#00C051"></path>
                            <path d="M221.513902,100.352772 C219.336842,103.23389 221.629204,105.819084 224.681778,106.635563 C228.018699,107.528222 233.206316,105.407914 232.487144,101.175112 C231.693709,96.5252795 223.705619,97.4579806 221.513902,100.352772" id="Fill-119" fill="#00C051"></path>
                            <path d="M275.827054,164.826342 C274.620291,168.837445 273.740868,175.210088 272.727577,179.27393 C276.704523,182.513479 281.300972,184.695316 285.08249,190.305195 C288.143859,187.959281 291.379158,185.865343 294.751256,183.978454 C288.782906,175.053824 281.239413,168.678251 275.827054,164.826342" id="Fill-120" fill="#003227"></path>
                            <path d="M210.678436,191.746731 C211.426922,189.899885 212.318071,188.180004 213.298138,186.577321 C215.37553,187.738558 217.375729,189.019923 219.259648,190.471226 C218.51507,191.705712 217.841823,193.023213 217.276061,194.418846 C211.90865,207.655388 217.236975,221.566795 217.290718,221.707432 C218.006959,223.536698 217.107016,225.60036 215.274885,226.316245 C214.850808,226.485206 214.411097,226.563338 213.978225,226.563338 C212.555515,226.563338 211.211952,225.703885 210.661824,224.301415 C210.398975,223.62362 204.258649,207.580186 210.678436,191.746731" id="Fill-121" fill="#00C051"></path>
                            <path d="M209.82051,235.268222 C209.82051,239.054695 212.894581,242.12333 216.680985,242.12333 C220.469343,242.12333 223.542437,239.054695 223.542437,235.268222 C223.542437,231.479795 220.469343,228.409207 216.680985,228.409207 C212.894581,228.409207 209.82051,231.479795 209.82051,235.268222" id="Fill-122" fill="#00C051"></path>
                            <path d="M230.091205,166.508134 C231.299923,170.52119 232.180323,176.892856 233.192636,180.955722 C229.215691,184.195271 224.618264,186.377108 220.836746,191.98601 C217.776355,189.642049 214.540079,187.547135 211.168958,185.660246 C217.139262,176.735616 224.679824,170.361019 230.091205,166.508134" id="Fill-123" fill="#064831"></path>
                            <path d="M286.921461,105.983161 C286.921461,108.678716 284.73463,110.865436 282.034802,110.865436 C279.335951,110.865436 277.150097,108.678716 277.150097,105.983161 C277.150097,103.284676 279.335951,101.098933 282.034802,101.098933 C284.73463,101.098933 286.921461,103.284676 286.921461,105.983161" id="Fill-124" fill="#00C051"></path>
                            <path d="M253.411544,177.313793 L253.411544,226.497902 L278.331455,226.497902 L275.97167,164.73063 L253.574726,177.389971 L253.411544,177.313793" id="Fill-125" fill="#003227"></path>
                            <path d="M108.048817,41.761567 C88.6233445,41.761567 72.8953562,57.4905202 72.8953562,76.8936318 C72.8953562,96.2899068 88.6233445,112.025697 108.048817,112.025697 C127.468427,112.025697 143.203255,96.2899068 143.203255,76.8936318 C143.203255,57.4905202 127.468427,41.761567 108.048817,41.761567 L108.048817,41.761567 Z M108.048817,95.5593724 C97.7263477,95.5593724 89.3698768,87.1972925 89.3698768,76.8936318 C89.3698768,66.5841111 97.7263477,58.2249612 108.048817,58.2249612 C118.366401,58.2249612 126.72678,66.5841111 126.72678,76.8936318 C126.72678,87.1972925 118.366401,95.5593724 108.048817,95.5593724 L108.048817,95.5593724 Z" id="Fill-126" fill="#00C051"></path>
                            <path d="M165.079386,259.679596 C165.079386,257.65793 140.249372,256.025947 109.620053,256.025947 C78.9917106,256.025947 54.1607191,257.65793 54.1607191,259.679596 C54.1607191,261.699309 78.9917106,263.333245 109.620053,263.333245 C140.249372,263.333245 165.079386,261.699309 165.079386,259.679596" id="Fill-127" fill="#D0E0D7"></path>
                            <path d="M103.699583,253.306953 L100.161372,174.364309 L92.7927858,173.937513 L97.8748724,253.493493 L103.699583,253.306953" id="Fill-128" fill="#00C051"></path>
                            <path d="M97.7996329,249.039968 L75.1740384,260.443337 L104.306385,260.443337 L103.455299,249.666001 L97.7996329,249.039968" id="Fill-129" fill="#00C051"></path>
                            <path d="M113.850076,253.763049 L117.388287,175.29115 L124.75785,174.864354 L119.675764,253.948612 L113.850076,253.763049" id="Fill-130" fill="#00C051"></path>
                            <path d="M119.748072,249.785152 L142.371712,260.443337 L113.242297,260.443337 L114.093383,250.370165 L119.748072,249.785152" id="Fill-131" fill="#00C051"></path>
                            <path d="M95.9205995,154.77075 C90.4935837,157.548344 83.1093636,162.400343 83.1093636,204.293757 L136.126833,204.293757 C136.126833,163.844808 126.012494,155.789397 120.73498,154.77075 L95.9205995,154.77075" id="Fill-132" fill="#00C051"></path>
                            <path d="M121.059389,118.118041 C121.059389,118.118041 115.811189,130.769569 109.201838,130.769569 C102.589556,130.769569 97.0316037,118.116088 97.0316037,118.116088 L89.4382763,117.97252 L95.9205995,155.133088 L120.73498,155.133088 L128.873549,117.97252 L121.059389,118.118041" id="Fill-133" fill="#064831"></path>
                            <path d="M115.072474,42.3827166 C110.389059,41.2195261 104.624931,39.7203679 99.6581465,40.1286077 C99.877025,40.8181228 100.617694,41.2595688 101.168799,41.5896766 C99.0640475,42.2039896 96.6671318,42.616136 94.4812775,42.7684935 C93.1875489,42.8583453 91.7931752,42.638599 90.6518798,43.1425505 C92.5699987,44.7579301 95.2209698,45.244302 97.7820445,44.9141942 C101.847909,44.3916863 105.930385,43.7607702 110.000159,43.3632735 C110.576669,43.3085811 113.714254,43.3203009 113.427953,42.8886215 L115.072474,42.3827166" id="Fill-134" fill="#00C051"></path>
                            <path d="M103.295048,118.430569 C103.295048,119.607433 102.343317,120.560644 101.161959,120.560644 C99.98451,120.560644 99.0298477,119.607433 99.0298477,118.430569 C99.0298477,117.253706 99.98451,116.297565 101.161959,116.297565 C102.343317,116.297565 103.295048,117.253706 103.295048,118.430569" id="Fill-135" fill="#00C051"></path>
                            <path d="M106.774631,121.236486 C106.774631,122.413349 105.818992,123.367536 104.640565,123.367536 C103.46507,123.367536 102.507476,122.413349 102.507476,121.236486 C102.507476,120.060599 103.46507,119.106411 104.640565,119.106411 C105.818992,119.106411 106.774631,120.060599 106.774631,121.236486" id="Fill-136" fill="#00C051"></path>
                            <path d="M110.988044,122.5618 C110.988044,123.737687 110.03045,124.692851 108.853978,124.692851 C107.675551,124.692851 106.722843,123.737687 106.722843,122.5618 C106.722843,121.38396 107.675551,120.430749 108.853978,120.430749 C110.03045,120.430749 110.988044,121.38396 110.988044,122.5618" id="Fill-137" fill="#00C051"></path>
                            <path d="M115.390043,121.602729 C115.390043,122.779593 114.433427,123.732804 113.255977,123.732804 C112.076574,123.732804 111.123866,122.779593 111.123866,121.602729 C111.123866,120.425866 112.076574,119.471678 113.255977,119.471678 C114.433427,119.471678 115.390043,120.425866 115.390043,121.602729" id="Fill-138" fill="#00C051"></path>
                            <path d="M118.716216,118.456939 C118.716216,119.633802 117.763508,120.588966 116.585081,120.588966 C115.407632,120.588966 114.452969,119.633802 114.452969,118.456939 C114.452969,117.279098 115.407632,116.324911 116.585081,116.324911 C117.763508,116.324911 118.716216,117.279098 118.716216,118.456939" id="Fill-139" fill="#00C051"></path>
                            <path d="M77.1156086,169.046448 C76.9514496,169.046448 76.7853365,169.034728 76.617269,169.008359 C74.8193379,168.73685 73.5822832,167.061894 73.8519728,165.263881 C73.8978982,164.95819 75.0352851,157.614756 80.0313837,143.266786 C84.5907024,130.175766 89.0532846,122.574496 89.2408948,122.257085 C90.1672201,120.691515 92.1898926,120.17389 93.7562423,121.098778 C95.322592,122.025619 95.8414515,124.045332 94.9151261,125.609926 C94.8408638,125.737867 90.5649147,133.064697 86.2576972,145.432997 C81.4951341,159.108054 80.3811986,166.177049 80.3704501,166.248345 C80.1203032,167.877397 78.7161581,169.046448 77.1156086,169.046448" id="Fill-140" fill="#064831"></path>
                            <path d="M81.1736562,177.906619 C80.8746525,181.555385 77.6706221,184.26852 74.024926,183.968688 C70.3753213,183.668856 67.6569277,180.46935 67.9588629,176.821561 C68.2578667,173.174749 71.4618971,170.459661 75.1105246,170.759493 C78.7581749,171.058348 81.4755914,174.259807 81.1736562,177.906619" id="Fill-141" fill="#00C051"></path>
                            <path d="M140.794614,169.048401 C139.190156,169.048401 137.785034,167.877397 137.539772,166.244438 C137.529024,166.179003 136.413134,159.108054 131.650571,145.432997 C127.308177,132.957266 123.037113,125.685128 122.995096,125.611879 C122.067794,124.046308 122.585676,122.025619 124.153003,121.098778 C125.718376,120.171937 127.741048,120.690538 128.667373,122.257085 C128.854984,122.57352 133.320497,130.175766 137.876884,143.267763 C142.872006,157.614756 144.011347,164.956236 144.057272,165.261928 C144.328916,167.062871 143.089907,168.73978 141.289045,169.011288 C141.122932,169.035705 140.957796,169.048401 140.794614,169.048401" id="Fill-142" fill="#003227"></path>
                            <path d="M136.736566,177.906619 C137.033616,181.555385 140.240577,184.26852 143.884319,183.968688 C147.534901,183.668856 150.25134,180.46935 149.953314,176.821561 C149.652356,173.174749 146.449302,170.459661 142.799698,170.759493 C139.153025,171.058348 136.433654,174.259807 136.736566,177.906619" id="Fill-143" fill="#00C051"></path>
                            <path d="M108.965371,154.77075 L108.965371,204.293757 L136.126833,204.293757 C136.126833,163.844808 126.012494,155.789397 120.73498,154.77075 L108.965371,154.77075" id="Fill-144" fill="#009D19"></path>
                            <path d="M109.201838,130.769569 L108.965371,130.754919 L108.965371,155.133088 L120.73498,155.133088 L128.873549,117.97252 L121.059389,118.118041 C121.059389,118.118041 115.811189,130.769569 109.201838,130.769569" id="Fill-145" fill="#003227"></path>
                            <path d="M108.965371,120.441492 L108.965371,124.681131 C110.088101,124.622532 110.988044,123.699598 110.988044,122.5618 C110.988044,121.423026 110.088101,120.501068 108.965371,120.441492" id="Fill-146" fill="#009D19"></path>
                            <path d="M115.390043,121.602729 C115.390043,120.425866 114.433427,119.471678 113.255977,119.471678 C112.076574,119.471678 111.123866,120.425866 111.123866,121.602729 C111.123866,122.779593 112.076574,123.732804 113.255977,123.732804 C114.433427,123.732804 115.390043,122.779593 115.390043,121.602729" id="Fill-147" fill="#009D19"></path>
                            <path d="M116.585081,116.324911 C115.407632,116.324911 114.452969,117.279098 114.452969,118.456939 C114.452969,119.633802 115.407632,120.588966 116.585081,120.588966 C117.763508,120.588966 118.716216,119.633802 118.716216,118.456939 C118.716216,117.279098 117.763508,116.324911 116.585081,116.324911" id="Fill-148" fill="#009D19"></path>
                            <path d="M108.867657,155.106718 L101.105286,151.484322 L101.105286,158.727161 L108.867657,155.106718" id="Fill-149" fill="#FFFFFF"></path>
                            <path d="M108.867657,155.106718 L116.629052,158.728137 L116.629052,151.484322 L108.867657,155.106718" id="Fill-150" fill="#B3E4BB"></path>
                            <path d="M748.235396,104.009351 C749.156836,103.944892 749.98447,104.256443 750.810151,104.673473 C750.60202,102.125392 751.807807,100.324449 753.032159,98.269577 C753.011639,99.4728101 753.593035,100.10568 753.916467,101.139952 C754.569194,103.202638 754.405036,104.463493 753.99073,106.768388 C753.699543,108.388651 754.036655,114.894118 751.483398,114.516155 C749.239892,114.184094 748.340927,104.001538 748.235396,104.009351" id="Fill-151" fill="#00C051"></path>
                            <path d="M818.830573,101.827514 C818.39477,102.950662 817.754746,103.88727 817.073682,104.8522 C817.372685,102.381275 817.362914,99.0118312 814.96893,97.4970466 C815.150677,98.5156928 815.66172,101.377278 814.923982,102.296306 C814.101233,103.322766 812.980457,102.989728 811.833299,102.65669 C811.164938,102.462337 810.487782,102.267983 809.856552,102.343185 C804.636689,102.969218 810.417428,112.156568 812.634551,113.448676 C818.782693,117.032006 819.96796,105.465536 818.830573,101.827514" id="Fill-152" fill="#00C051"></path>
                            <path d="M783.916511,83.2740882 C765.020646,83.2740882 749.716735,98.5772218 749.716735,117.453919 C749.716735,136.321826 765.020646,151.63082 783.916511,151.63082 C802.811398,151.63082 818.119218,136.321826 818.119218,117.453919 C818.119218,98.5772218 802.811398,83.2740882 783.916511,83.2740882 M783.916511,135.611801 C773.877411,135.611801 765.745681,127.476304 765.745681,117.453919 C765.745681,107.421767 773.877411,99.2921298 783.916511,99.2921298 C793.953656,99.2921298 802.088317,107.421767 802.088317,117.453919 C802.088317,127.476304 793.953656,135.611801 783.916511,135.611801" id="Fill-153" fill="#00C051"></path>
                            <path d="M839.40125,294.337985 C839.40125,292.373942 815.244482,290.786885 785.445729,290.786885 C755.647953,290.786885 731.492163,292.373942 731.492163,294.337985 C731.492163,296.303006 755.647953,297.893969 785.445729,297.893969 C815.244482,297.893969 839.40125,296.303006 839.40125,294.337985" id="Fill-154" fill="#D0E0D7"></path>
                            <path d="M809.251704,218.021554 L761.622165,218.021554 L762.212356,209.33132 L808.363487,209.33132 L809.251704,218.021554" id="Fill-155" fill="#064831"></path>
                            <path d="M748.181654,211.812988 C746.846885,211.812988 745.582471,211.005298 745.065565,209.685844 C744.81835,209.051021 739.044451,196.104545 745.080222,181.218441 C750.328422,168.283684 762.840655,162.784166 763.372217,162.511681 C765.01576,161.665902 767.033547,162.309514 767.879747,163.94931 C768.72497,165.588129 768.084946,167.605889 766.443357,168.452644 C766.247929,168.556169 755.562942,173.187445 751.28113,183.730385 C746.236175,196.17291 751.245953,207.1153 751.295787,207.246171 C751.970012,208.967029 751.121857,210.90861 749.402097,211.581522 C749.001471,211.740716 748.588142,211.812988 748.181654,211.812988" id="Fill-156" fill="#064831"></path>
                            <path d="M763.484587,158.764273 L761.671022,212.013201 L808.909707,212.013201 L806.693561,157.147917 L785.36365,169.050354 L763.484587,158.764273" id="Fill-157" fill="#064831"></path>
                            <path d="M744.272131,219.994388 C744.272131,223.555255 747.163477,226.441256 750.723185,226.441256 C754.284848,226.441256 757.17424,223.555255 757.17424,219.994388 C757.17424,216.434497 754.284848,213.546542 750.723185,213.546542 C747.163477,213.546542 744.272131,216.434497 744.272131,219.994388" id="Fill-158" fill="#00C051"></path>
                            <path d="M822.065872,211.812988 C823.402595,211.812988 824.665055,211.005298 825.18196,209.685844 C825.430153,209.051021 831.205029,196.104545 825.167303,181.218441 C819.919103,168.283684 807.407848,162.784166 806.877263,162.511681 C805.232742,161.665902 803.213978,162.309514 802.369732,163.94931 C801.523532,165.588129 802.163557,167.605889 803.804169,168.452644 C803.999596,168.556169 814.686537,173.187445 818.964441,183.730385 C824.013305,196.17291 819.001572,207.1153 818.952715,207.246171 C818.278491,208.967029 819.124691,210.90861 820.846406,211.581522 C821.246054,211.740716 821.658406,211.812988 822.065872,211.812988" id="Fill-159" fill="#003227"></path>
                            <path d="M825.975395,219.994388 C825.975395,223.555255 823.085025,226.441256 819.526294,226.441256 C815.963655,226.441256 813.074262,223.555255 813.074262,219.994388 C813.074262,216.434497 815.963655,213.546542 819.526294,213.546542 C823.085025,213.546542 825.975395,216.434497 825.975395,219.994388" id="Fill-160" fill="#00C051"></path>
                            <path d="M780.433996,288.129419 L776.992522,217.84185 L769.823272,217.674843 L774.767582,288.32182 L780.433996,288.129419" id="Fill-161" fill="#064831"></path>
                            <path d="M774.69332,283.987446 L752.685275,295.082193 L781.025164,295.082193 L780.198506,284.597852 L774.69332,283.987446" id="Fill-162" fill="#064831"></path>
                            <path d="M790.746694,288.129419 L794.188169,217.84185 L801.356442,217.674843 L796.413109,288.32182 L790.746694,288.129419" id="Fill-163" fill="#064831"></path>
                            <path d="M796.48444,283.987446 L818.495415,295.082193 L790.157481,295.082193 L790.982184,284.597852 L796.48444,283.987446" id="Fill-164" fill="#064831"></path>
                            <path d="M819.704133,106.756668 L819.145211,106.756668 C818.981052,108.684576 818.525706,110.691592 817.705889,112.123362 C817.977533,113.860822 818.119218,115.640279 818.119218,117.453919 C818.119218,121.201326 817.515347,124.807119 816.399458,128.181446 L819.704133,128.181446 L819.704133,106.756668" id="Fill-165" fill="#FFFFFF"></path>
                            <path d="M819.145211,106.756668 L816.411183,106.756668 C816.980854,108.488269 817.416657,110.281399 817.705889,112.123362 C818.525706,110.691592 818.981052,108.684576 819.145211,106.756668" id="Fill-166" fill="#99E6B9"></path>
                            <path d="M798.603849,106.756668 L791.226468,106.756668 L791.226468,128.181446 L798.577466,128.181446 C800.784817,125.175316 802.088317,121.465998 802.088317,117.453919 C802.088317,113.454536 800.794588,109.756938 798.603849,106.756668" id="Fill-167" fill="#FFFFFF"></path>
                            <path d="M816.411183,106.756668 L798.603849,106.756668 C800.794588,109.756938 802.088317,113.454536 802.088317,117.453919 C802.088317,121.465998 800.784817,125.175316 798.577466,128.181446 L816.399458,128.181446 C817.515347,124.807119 818.119218,121.201326 818.119218,117.453919 C818.119218,115.640279 817.977533,113.860822 817.705889,112.123362 C817.416657,110.281399 816.980854,108.488269 816.411183,106.756668" id="Fill-168" fill="#99E6B9"></path>
                            <path d="M748.662405,106.892423 L748.662405,128.181446 L751.435518,128.181446 C750.319628,124.807119 749.716735,121.201326 749.716735,117.453919 C749.716735,115.850259 749.827151,114.270039 750.041144,112.724978 C749.40112,111.125225 748.952614,108.756848 748.662405,106.892423 M777.140069,106.756668 L769.229173,106.756668 C767.038433,109.756938 765.745681,113.454536 765.745681,117.453919 C765.745681,121.465998 767.049181,125.175316 769.255555,128.181446 L777.140069,128.181446 L777.140069,106.756668" id="Fill-169" fill="#FFFFFF"></path>
                            <path d="M751.423792,106.756668 L748.662405,106.756668 L748.662405,106.892423 C748.952614,108.756848 749.40112,111.125225 750.041144,112.724978 C750.325491,110.671083 750.791585,108.677739 751.423792,106.756668" id="Fill-170" fill="#99E6B9"></path>
                            <path d="M769.229173,106.756668 L751.423792,106.756668 C750.791585,108.677739 750.325491,110.671083 750.041144,112.724978 C749.827151,114.270039 749.716735,115.850259 749.716735,117.453919 C749.716735,121.201326 750.319628,124.807119 751.435518,128.181446 L769.255555,128.181446 C767.049181,125.175316 765.745681,121.465998 765.745681,117.453919 C765.745681,113.454536 767.038433,109.756938 769.229173,106.756668" id="Fill-171" fill="#99E6B9"></path>
                            <path d="M794.284905,131.035218 C791.01443,131.035218 788.354664,128.375799 788.354664,125.110857 L788.354664,112.098945 C787.576864,111.334228 785.522923,109.6456 783.938008,109.6456 C782.634508,109.6456 780.915725,110.809767 779.788109,111.84697 L779.788109,125.110857 C779.788109,128.375799 777.128344,131.035218 773.856891,131.035218 L752.640327,131.035218 C749.371806,131.035218 746.711063,128.375799 746.711063,125.110857 L746.711063,111.069556 L744.316102,111.069556 L744.316102,106.708812 L747.664748,106.708812 C748.766958,105.004557 750.614723,103.992748 752.640327,103.992748 L773.856891,103.992748 C775.920603,103.992748 777.823088,105.06218 778.900869,106.805501 C780.646035,105.678446 782.34039,105.106129 783.938008,105.106129 C785.59914,105.106129 787.355054,105.718489 789.169596,106.933442 C790.234675,105.111989 792.159634,103.992748 794.284905,103.992748 L815.499515,103.992748 C817.529027,103.992748 819.373861,105.004557 820.476071,106.708812 L823.774883,106.708812 L823.774883,111.069556 L821.428779,111.069556 L821.428779,125.110857 C821.428779,128.375799 818.770968,131.035218 815.499515,131.035218 L794.284905,131.035218 L794.284905,131.035218 Z M794.284905,108.534172 C793.51883,108.534172 792.896395,109.155321 792.896395,109.919062 L792.896395,125.110857 C792.896395,125.873621 793.51883,126.493794 794.284905,126.493794 L815.499515,126.493794 C816.26559,126.493794 816.889003,125.873621 816.889003,125.110857 L816.889003,109.919062 C816.889003,109.155321 816.26559,108.534172 815.499515,108.534172 L794.284905,108.534172 L794.284905,108.534172 Z M752.640327,108.534172 C751.877184,108.534172 751.254748,109.155321 751.254748,109.919062 L751.254748,125.110857 C751.254748,125.873621 751.877184,126.493794 752.640327,126.493794 L773.856891,126.493794 C774.623943,126.493794 775.244425,125.873621 775.244425,125.110857 L775.244425,109.919062 C775.244425,109.155321 774.623943,108.534172 773.856891,108.534172 L752.640327,108.534172 L752.640327,108.534172 Z" id="Fill-172" fill="#327B46"></path>
                            <path d="M780.06757,185.016634 L775.080266,187.947561 L768.920398,185.016634 L768.920398,173.48923 L780.06757,173.48923 L780.06757,185.016634" id="Fill-173" fill="#00C051"></path>
                            <path d="M771.173674,169.259358 L773.81292,169.259358 L773.81292,178.640084 L771.173674,178.640084 L771.173674,169.259358 Z" id="Fill-174" fill="#EEF0EF"></path>
                            <path d="M785.392964,212.013201 L808.909707,212.013201 L806.693561,157.147917 L785.392964,169.034728 L785.392964,212.013201" id="Fill-175" fill="#003227"></path>
                            <path d="M785.531717,178.435964 C786.610476,178.435964 787.48599,177.563815 787.48599,176.48364 C787.48599,175.404441 786.610476,174.529363 785.531717,174.529363 C784.453936,174.529363 783.578421,175.404441 783.578421,176.48364 C783.578421,177.563815 784.453936,178.435964 785.531717,178.435964 L785.531717,178.435964 Z M785.531717,188.479836 C784.453936,188.479836 783.578421,189.354914 783.578421,190.434113 C783.578421,191.513311 784.453936,192.387414 785.531717,192.387414 C786.610476,192.387414 787.48599,191.513311 787.48599,190.434113 C787.48599,189.354914 786.610476,188.479836 785.531717,188.479836 L785.531717,188.479836 Z M785.531717,201.315951 C784.453936,201.315951 783.578421,202.189076 783.578421,203.269251 C783.578421,204.347473 784.453936,205.222552 785.531717,205.222552 C786.610476,205.222552 787.48599,204.347473 787.48599,203.269251 C787.48599,202.189076 786.610476,201.315951 785.531717,201.315951 L785.531717,201.315951 Z" id="Fill-176" fill="#EEF0EF"></path>
                            <path d="M109.620053,256.025947 C107.708774,256.025947 105.819969,256.032784 103.959501,256.04548 L104.306385,260.443337 L75.1740384,260.443337 L83.0546439,256.4713 C65.8374997,257.090496 54.1607191,258.293729 54.1607191,259.679596 C54.1607191,261.699309 78.9917106,263.333245 109.620053,263.333245 C111.051557,263.333245 112.472314,263.329338 113.876459,263.322502 C114.259496,262.383941 114.600517,261.422917 114.895612,260.443337 L113.242297,260.443337 L113.614586,256.035714 C112.295452,256.029854 110.961661,256.025947 109.620053,256.025947" id="Fill-178" fill="#DEE9E3"></path>
                            <path d="M95.7906404,220.870443 L97.5973657,249.142516 L97.7996329,249.039968 L103.455299,249.666001 L103.642909,252.040237 L102.405854,224.442053 C100.360708,223.009307 98.143585,221.807051 95.7906404,220.870443" id="Fill-179" fill="#4DD386"></path>
                            <path d="M97.7996329,249.039968 L75.1740384,260.443337 L104.306385,260.443337 L103.455299,249.666001 L97.7996329,249.039968" id="Fill-180" fill="#4DD386"></path>
                            <path d="M114.455901,240.32141 L113.89991,252.659434 L114.093383,250.370165 L116.260672,250.145536 C116.16589,246.711633 115.537591,243.409579 114.455901,240.32141" id="Fill-181" fill="#4DD386"></path>
                            <path d="M116.260672,250.145536 L114.093383,250.370165 L113.242297,260.443337 L114.895612,260.443337 C115.791646,257.47139 116.273375,254.321693 116.273375,251.058704 C116.273375,250.753012 116.269466,250.449274 116.260672,250.145536" id="Fill-182" fill="#4DD386"></path>
                            <path d="M82.0618733,196.262762 C52.4184848,196.262762 28.4112194,220.268826 28.4112194,249.879887 C28.4112194,279.476298 52.4184848,303.492129 82.0618733,303.492129 C111.699399,303.492129 135.713504,279.476298 135.713504,249.879887 C135.713504,220.268826 111.699399,196.262762 82.0618733,196.262762 L82.0618733,196.262762 Z M82.0618733,278.362916 C66.3133651,278.362916 53.5578259,265.604934 53.5578259,249.879887 C53.5578259,234.144097 66.3133651,221.390998 82.0618733,221.390998 C97.80745,221.390998 110.564943,234.144097 110.564943,249.879887 C110.564943,265.604934 97.80745,278.362916 82.0618733,278.362916 L82.0618733,278.362916 Z" id="Fill-183" fill="#00C051"></path>
                            <path d="M92.7781287,197.213043 C85.6352613,195.434562 76.8410332,193.148224 69.2584544,193.772304 C69.592635,194.823179 70.7202505,195.496091 71.5654735,196.002973 C68.3516718,196.938604 64.6952272,197.567567 61.3592833,197.801963 C59.3835134,197.937717 57.2543331,197.603703 55.513076,198.36842 C58.4435082,200.835439 62.4868988,201.576716 66.3954446,201.075695 C72.6022153,200.276795 78.8314602,199.314794 85.0431166,198.710248 C85.9235165,198.625279 90.7134394,198.644812 90.2717737,197.98362 L92.7781287,197.213043" id="Fill-191" fill="#00C051"></path>
                            <path d="M74.8105437,313.266445 C74.8105437,315.063482 73.351679,316.518691 71.5557022,316.518691 C69.7587482,316.518691 68.2989064,315.063482 68.2989064,313.266445 C68.2989064,311.471362 69.7587482,310.012246 71.5557022,310.012246 C73.351679,310.012246 74.8105437,311.471362 74.8105437,313.266445" id="Fill-192" fill="#00C051"></path>
                            <path d="M80.1173717,317.552963 C80.1173717,319.346093 78.6594842,320.803255 76.8615531,320.803255 C75.063622,320.803255 73.6076887,319.346093 73.6076887,317.552963 C73.6076887,315.755927 75.063622,314.295834 76.8615531,314.295834 C78.6594842,314.295834 80.1173717,315.755927 80.1173717,317.552963" id="Fill-193" fill="#00C051"></path>
                            <path d="M86.5469296,319.570723 C86.5469296,321.367759 85.0870877,322.824922 83.2911109,322.824922 C81.4912256,322.824922 80.0352923,321.367759 80.0352923,319.570723 C80.0352923,317.774663 81.4912256,316.318477 83.2911109,316.318477 C85.0870877,316.318477 86.5469296,317.774663 86.5469296,319.570723" id="Fill-194" fill="#00C051"></path>
                            <path d="M93.2647427,318.107701 C93.2647427,319.904737 91.8049008,321.361899 90.0108783,321.361899 C88.2129472,321.361899 86.7550596,319.904737 86.7550596,318.107701 C86.7550596,316.311641 88.2129472,314.855455 90.0108783,314.855455 C91.8049008,314.855455 93.2647427,316.311641 93.2647427,318.107701" id="Fill-195" fill="#00C051"></path>
                            <path d="M98.3438979,313.306488 C98.3438979,315.103524 96.8889418,316.558733 95.086125,316.558733 C93.2940568,316.558733 91.835192,315.103524 91.835192,313.306488 C91.835192,311.511404 93.2940568,310.052289 95.086125,310.052289 C96.8889418,310.052289 98.3438979,311.511404 98.3438979,313.306488" id="Fill-196" fill="#00C051"></path>
                            <path d="M34.8583657,390.511671 C34.6082188,390.511671 34.3541633,390.494091 34.1001078,390.454049 C31.3563087,390.037995 29.4665268,387.482102 29.8788783,384.739668 C29.9492322,384.273805 31.6846265,373.066743 39.3072679,351.169267 C46.2654566,331.190908 53.0731662,319.590256 53.3584901,319.106814 C54.7753379,316.717927 57.8591806,315.92684 60.2502335,317.34103 C62.6403092,318.753266 63.4317897,321.832645 62.0198276,324.223485 C61.9543594,324.331893 55.4065681,335.531142 48.8089428,354.474251 C41.541979,375.344292 39.8427387,386.133348 39.8261274,386.240779 C39.4460213,388.727331 37.3012068,390.511671 34.8583657,390.511671" id="Fill-197" fill="#064831"></path>
                            <path d="M137.012119,384.739668 C136.942742,384.273805 135.209302,373.066743 127.584706,351.169267 C120.628472,331.190908 113.815876,319.590256 113.529575,319.106814 C113.285291,318.692714 112.977493,318.347957 112.645267,318.031522 L113.840305,312.572047 L101.916309,312.791793 C101.916309,312.791793 93.904767,332.09724 83.8177875,332.09724 C73.7337393,332.09724 65.2482864,312.785933 65.2482864,312.785933 L53.6623795,312.572047 L63.5539318,369.27734 L101.421878,369.27734 L109.366974,332.999664 C111.790273,338.136845 114.920041,345.388474 118.083031,354.474251 C125.349995,375.344292 127.049235,386.133348 127.063892,386.232966 C127.44009,388.727331 129.584904,390.515577 132.033608,390.515577 C132.279847,390.515577 132.531948,390.496044 132.786003,390.457955 C135.531757,390.047762 137.425447,387.486008 137.012119,384.739668" id="Fill-199" fill="#064831"></path>
                            <path d="M90.0108783,321.361899 C91.8049008,321.361899 93.2647427,319.904737 93.2647427,318.107701 C93.2647427,316.311641 91.8049008,314.855455 90.0108783,314.855455 C88.2129472,314.855455 86.7550596,316.311641 86.7550596,318.107701 C86.7550596,319.904737 88.2129472,321.361899 90.0108783,321.361899" id="Fill-202" fill="#009D19"></path>
                            <path d="M95.086125,316.558733 C96.8889418,316.558733 98.3438979,315.103524 98.3438979,313.306488 C98.3438979,311.511404 96.8889418,310.052289 95.086125,310.052289 C93.2940568,310.052289 91.835192,311.511404 91.835192,313.306488 C91.835192,315.103524 93.2940568,316.558733 95.086125,316.558733" id="Fill-203" fill="#009D19"></path>
                            <path d="M83.2764539,322.821015 L83.2911109,322.824922 C85.0870877,322.824922 86.5469296,321.367759 86.5469296,319.570723 C86.5469296,317.774663 85.0870877,316.318477 83.2911109,316.318477 L83.2764539,316.320431 L83.2764539,322.821015" id="Fill-204" fill="#009D19"></path>
                            <path d="M127.584706,351.169267 C120.628472,331.190908 113.815876,319.590256 113.529575,319.106814 C113.285291,318.692714 112.977493,318.347957 112.645267,318.031522 L113.840305,312.572047 L101.916309,312.791793 C101.916309,312.791793 93.904767,332.09724 83.8177875,332.09724 C83.7132339,332.09724 83.6096574,332.08259 83.5051038,332.078683 L83.5051038,369.27734 L101.421878,369.27734 L109.366974,332.999664 C111.790273,338.136845 114.920041,345.388474 118.083031,354.474251 C125.349995,375.344292 127.049235,386.133348 127.063892,386.232966 C127.44009,388.727331 129.584904,390.515577 132.033608,390.515577 C132.279847,390.515577 132.531948,390.496044 132.786003,390.457955 C135.531757,390.047762 137.425447,387.486008 137.012119,384.739668 C136.942742,384.273805 135.209302,373.066743 127.584706,351.169267" id="Fill-207" fill="#003227"></path>
                            <path d="M653.523514,146.311005 C629.733173,146.311005 610.465997,165.579339 610.465997,189.343195 C610.465997,213.100213 629.733173,232.372454 653.523514,232.372454 C677.311901,232.372454 696.582986,213.100213 696.582986,189.343195 C696.582986,165.579339 677.311901,146.311005 653.523514,146.311005 L653.523514,146.311005 Z M653.523514,212.205601 C640.885231,212.205601 630.647773,201.964446 630.647773,189.343195 C630.647773,176.715106 640.885231,166.478834 653.523514,166.478834 C666.16082,166.478834 676.402187,176.715106 676.402187,189.343195 C676.402187,201.964446 666.16082,212.205601 653.523514,212.205601 L653.523514,212.205601 Z" id="Fill-208" fill="#00C051"></path>
                            <path d="M708.48744,139.439294 C708.48744,148.65106 701.017231,156.117551 691.798926,156.117551 C682.582575,156.117551 675.112367,148.65106 675.112367,139.439294 C675.112367,130.226552 682.582575,122.76006 691.798926,122.76006 C701.017231,122.76006 708.48744,130.226552 708.48744,139.439294" id="Fill-209" fill="#00C051"></path>
                            <path d="M683.779567,158.835569 L674.680473,151.747041 L677.420363,148.229147 L686.520435,155.317675 L683.779567,158.835569" id="Fill-210" fill="#064831"></path>
                            <path d="M649.23584,405.411448 L644.902239,308.724044 L635.87643,308.19763 L642.101766,405.639984 L649.23584,405.411448" id="Fill-212" fill="#00C051"></path>
                            <path d="M660.323407,405.970092 L664.655053,309.858912 L673.681839,309.334451 L667.45748,406.196675 L660.323407,405.970092" id="Fill-214" fill="#00C051"></path>
                            <path d="M641.457833,273.996313 C637.417374,277.698794 623.262576,332.051337 623.262576,332.051337 L685.316603,332.051337 C685.316603,332.051337 671.064091,276.37055 666.465687,273.996313 L641.457833,273.996313" id="Fill-216" fill="#00C051"></path>
                            <path d="M654.927659,273.996313 L654.927659,332.051337 L685.316603,332.051337 C685.316603,332.051337 671.064091,276.37055 666.465687,273.996313 L654.927659,273.996313" id="Fill-217" fill="#009D19"></path>
                            <path d="M643.858658,244.493661 C650.836389,244.493661 654.899322,253.138969 654.899322,253.138969 C654.899322,253.138969 659.567103,244.493661 666.166683,244.493661 L654.650153,274.700478 L643.858658,244.493661" id="Fill-218" fill="#00C051"></path>
                            <path d="M654.927659,273.971897 L666.166683,244.493661 C659.785005,244.493661 655.222755,252.555909 654.927659,253.088183 L654.927659,273.971897" id="Fill-219" fill="#009D19"></path>
                            <path d="M666.868267,239.836015 L655.032213,271.478508 L642.547341,239.831132 L633.117974,239.657288 L641.457833,274.438736 L666.465687,274.438736 L676.434433,239.657288 L666.868267,239.836015" id="Fill-220" fill="#064831"></path>
                            <path d="M655.032213,271.478508 L654.927659,271.210906 L654.927659,274.438736 L666.465687,274.438736 L676.434433,239.657288 L666.868267,239.836015 L655.032213,271.478508" id="Fill-221" fill="#003227"></path>
                            <path d="M674.81434,152.21681 L671.546796,146.377418 C671.546796,146.377418 671.546796,151.524365 671.844823,151.623983 C672.139918,151.722625 674.81434,152.21681 674.81434,152.21681" id="Fill-222" fill="#00C051"></path>
                            <path d="M682.157521,159.102194 L691.339672,158.783806 L686.961124,161.239105 C686.961124,161.239105 694.004323,162.198176 696.141321,160.702924 C696.141321,160.702924 691.978719,165.504137 688.668181,165.718024 L682.157521,159.102194" id="Fill-223" fill="#00C051"></path>
                            <path d="M617.669447,288.414601 C616.384512,288.414601 615.11912,287.802242 614.336434,286.662491 C613.946557,286.095057 604.87189,272.615329 610.714189,259.04868 C616.965908,244.521007 632.933295,241.858658 633.610451,241.751226 C635.812916,241.406469 637.877605,242.911487 638.224489,245.11188 C638.570395,247.309343 637.072445,249.370076 634.876819,249.720693 C634.688232,249.753899 622.582489,251.889833 618.130655,262.23842 C614.026682,271.764667 620.924288,281.995079 620.994642,282.097627 C622.256125,283.935683 621.788077,286.446651 619.949106,287.70653 C619.250453,288.186065 618.456041,288.414601 617.669447,288.414601" id="Fill-224" fill="#064831"></path>
                            <path d="M635.428902,293.462907 C635.611626,297.943778 632.122272,301.720485 627.64601,301.903119 C623.163885,302.083799 619.384321,298.599111 619.201596,294.118239 C619.021803,289.641274 622.510181,285.862614 626.98742,285.680957 C631.466613,285.500277 635.253017,288.985942 635.428902,293.462907" id="Fill-225" fill="#00C051"></path>
                            <path d="M690.649814,288.414601 C689.693197,288.414601 688.734626,288.077657 687.964643,287.392049 C686.300579,285.908517 686.154009,283.358483 687.637302,281.695247 C687.964643,281.319237 695.881402,272.131888 691.544871,262.266743 C687.227882,252.445547 673.475663,249.730459 673.338864,249.70409 C671.152033,249.288037 669.708802,247.182379 670.1192,244.995659 C670.529597,242.807962 672.624578,241.366426 674.816295,241.770759 C675.550124,241.906514 692.885502,245.257401 698.935931,259.020357 C705.379168,273.675972 694.146008,286.524783 693.66428,287.064871 C692.865959,287.959482 691.760818,288.414601 690.649814,288.414601" id="Fill-226" fill="#003227"></path>
                            <path d="M672.88645,293.462907 C672.702748,297.943778 676.194057,301.720485 680.669342,301.903119 C685.15049,302.083799 688.931031,298.599111 689.113755,294.118239 C689.29648,289.641274 685.807125,285.862614 681.325978,285.680957 C676.848738,285.500277 673.064289,288.985942 672.88645,293.462907" id="Fill-227" fill="#00C051"></path>
                            <path d="M441.961747,192.687245 L442.146426,195.030229 L421.114541,195.030229 C418.631638,195.80276 416.222019,196.744251 413.90132,197.841029 C422.173757,198.37135 433.463592,198.696574 445.911333,198.696574 C451.867957,198.696574 457.560754,198.622349 462.784525,198.486595 C460.060269,197.109518 457.209962,195.950234 454.25217,195.030229 L449.919547,195.030229 L450.009443,193.894385 C447.392672,193.302535 444.703592,192.896248 441.961747,192.687245" id="Fill-229" fill="#DEE9E3"></path>
                            <path d="M437.682867,192.526098 C431.913853,192.526098 426.348084,193.40313 421.114541,195.030229 L442.146426,195.030229 L441.961747,192.687245 C440.548808,192.58079 439.123166,192.526098 437.682867,192.526098" id="Fill-230" fill="#4DD386"></path>
                            <path d="M450.009443,193.894385 L449.919547,195.030229 L454.25217,195.030229 C452.860727,194.597573 451.445834,194.217656 450.009443,193.894385" id="Fill-231" fill="#4DD386"></path>
                            <path d="M436.861095,156.982863 C386.102765,156.982863 344.988772,198.099841 344.988772,248.811432 C344.988772,299.497629 386.102765,340.62242 436.861095,340.62242 C487.616494,340.62242 528.738304,299.497629 528.738304,248.811432 C528.738304,198.099841 487.616494,156.982863 436.861095,156.982863 L436.861095,156.982863 Z M436.861095,297.589254 C409.892129,297.589254 388.050198,275.73768 388.050198,248.807525 C388.050198,221.861743 409.892129,200.018959 436.861095,200.018959 C463.825175,200.018959 485.673946,221.861743 485.673946,248.807525 C485.673946,275.73768 463.825175,297.589254 436.861095,297.589254 L436.861095,297.589254 Z" id="Fill-232" fill="#00C051"></path>
                            <path d="M420.011354,159.878631 C426.349061,157.648939 432.42001,156.17029 439.137823,154.829349 C445.733494,153.511848 457.084888,152.933671 460.441352,146.421367 C461.235764,150.690305 460.474575,154.728754 459.45933,158.858032 C465.722774,155.213173 474.907857,155.993517 480.918223,151.294852 C479.505284,156.580483 475.836137,159.5788 473.704025,164.13878 C476.539675,164.262815 479.969424,164.585109 482.606715,165.592036 C473.047389,172.456911 463.136294,168.640161 452.225589,167.085334 C445.553701,166.13017 439.345953,165.847918 432.664294,165.524647 C429.238454,165.359593 425.793071,164.583156 422.659394,163.188499 L420.011354,159.878631" id="Fill-241" fill="#00C051"></path>
                        </g>
                    </g>
                </g>
            </g>
        </g>
    </g>
</svg>