<svg xmlns="http://www.w3.org/2000/svg" width="1216" height="512" viewBox="0 102 1216 512" enable-background="new 0 102 1216 512"><g><path fill="#E5EEE9" d="M0 457.2h1216v214.3h-1216z"/><path fill="#00C051" d="M402.1 290.7c-14.7 0-26.7 11.9-26.7 26.7 0 14.7 11.9 26.7 26.7 26.7 14.7 0 26.7-11.9 26.7-26.7 0-14.7-11.9-26.7-26.7-26.7zm0 40.9c-7.8 0-14.2-6.3-14.2-14.2 0-7.8 6.3-14.2 14.2-14.2 7.8 0 14.2 6.3 14.2 14.2 0 7.8-6.3 14.2-14.2 14.2z"/><ellipse fill="#D0E0D7" cx="403.3" cy="456.1" rx="42.1" ry="2.8"/><path fill="#00C051" d="M399.4 451.2l-2.7-59.9-5.5-.3 3.8 60.4zM395 448l-17.2 8.6h22.1l-.7-8.1z"/><g fill="#00C051"><path d="M406.3 451.6l2.7-59.6 5.6-.3-3.9 60zM410.8 448.6l17.1 8h-22.1l.7-7.6z"/></g><path fill="#064831" d="M381.5 388h-.2c-1.4-.1-2.4-1.3-2.3-2.7 0-.2.4-5.9 3.3-17 2.6-10.2 5.5-16.2 5.7-16.5.6-1.2 2.1-1.8 3.3-1.2 1.2.6 1.8 2.1 1.2 3.3 0 .1-2.8 5.9-5.3 15.5-2.7 10.6-3.2 16-3.2 16.1-.1 1.5-1.2 2.5-2.5 2.5zM410.2 374.3l7.8-25.7-7.6.1-7.5 9.5-7.4-9.5-8.1-.1 7.2 25.8c-2.2 2-8.5 7.2-8.5 29.1 0 8.5 3.2 12.9 3.2 12.9h25.6s4.3-5.2 4.3-12.9c-.1-21.7-6.5-27.8-9-29.2z"/><circle fill="#00C051" cx="382.1" cy="296.6" r="4.3"/><circle fill="#00C051" cx="389.9" cy="290.8" r="7.3"/><circle fill="#00C051" cx="401.2" cy="287.3" r="5.6"/><circle fill="#00C051" cx="412.5" cy="288.4" r="8"/><circle fill="#00C051" cx="420.7" cy="294.5" r="5.2"/><circle fill="#00C051" cx="424.6" cy="301.2" r="3.5"/><circle fill="#00C051" cx="426.3" cy="306" r="3.5"/><circle fill="#00C051" cx="381.4" cy="303.3" r="3.5"/><circle fill="#00C051" cx="378.7" cy="308.4" r="3.5"/><path fill="#00C051" d="M400.1 361.8l2.7-3.7-7.4-9.5 4.7 13.2zm2.8-3.7l2.6 3.7 4.8-13.1-7.4 9.4zm0 4.6c-.9 0-1.6.7-1.6 1.6 0 .9.7 1.6 1.6 1.6.9 0 1.6-.7 1.6-1.6 0-.9-.7-1.6-1.6-1.6zm0 5.9c-.9 0-1.6.7-1.6 1.6s.7 1.6 1.6 1.6c.9 0 1.6-.7 1.6-1.6s-.7-1.6-1.6-1.6z"/><circle fill="#00C051" cx="380.3" cy="394.5" r="5"/><path fill="#003227" d="M424.1 388c-1.3 0-2.4-1-2.5-2.3 0 0-.4-5.5-3.2-16.1-2.5-9.7-5.3-15.5-5.3-15.5-.6-1.2-.1-2.7 1.2-3.3 1.2-.6 2.7-.1 3.3 1.2.1.3 3 6.3 5.7 16.5 2.9 11.2 3.3 16.8 3.3 17 .1 1.4-.9 2.6-2.3 2.7-.1-.2-.1-.2-.2-.2z"/><circle fill="#00C051" cx="425.3" cy="394.5" r="5"/><circle fill="#00C051" cx="375.8" cy="330.7" r="1.6"/><circle fill="#00C051" cx="428.3" cy="330.7" r="1.6"/><path fill="#003227" d="M410.2 374.3l7.8-25.7-7.6.1-7.4 9.4v58.1h11.9s4.3-5.2 4.3-12.9c-.1-21.5-6.5-27.6-9-29z"/><path fill="#009D19" d="M402.9 362.7v3.2c.9 0 1.6-.7 1.6-1.6 0-.9-.7-1.6-1.6-1.6zm0-4.6v.1l2.6 3.6 4.8-13.1-7.4 9.4zm0 10.5v3.2c.9 0 1.6-.7 1.6-1.6 0-.9-.7-1.6-1.6-1.6z"/><path fill="#00C051" d="M733.2 301.6c-16.6 0-30 13.4-30 30s13.4 30 30 30 30-13.4 30-30-13.5-30-30-30zm0 45.9c-8.8 0-15.9-7.1-15.9-15.9s7.1-15.9 15.9-15.9 15.9 7.1 15.9 15.9-7.1 15.9-15.9 15.9z"/><ellipse fill="#D0E0D7" cx="734.5" cy="487.6" rx="47.3" ry="3.1"/><path fill="#00C051" d="M729.5 482.2l-3-67.4-6.3-.4 4.3 67.9zM724.4 478.5l-19.3 9.7h24.9l-.7-9.2z"/><g fill="#00C051"><path d="M738.1 482.5l3-66.9 6.3-.4-4.3 67.5zM743.2 479.1l19.3 9.1h-24.9l.7-8.6z"/></g><path fill="#00C051" d="M722.8 398.1c-4.6 2.4-10.9 6.5-10.9 42.3h45.2c0-34.5-8.6-41.4-13.1-42.3h-21.2z"/><path fill="#009D19" d="M734 398.1v42.3h23.1c0-34.5-8.6-41.4-13.1-42.3h-10z"/><path fill="#00C051" d="M739.2 302.1c-4-1-8.9-2.3-13.1-1.9.2.6.8 1 1.3 1.2-1.8.5-3.8.9-5.7 1-1.1.1-2.3-.1-3.3.3 1.6 1.4 3.9 1.8 6.1 1.5 3.5-.4 7-1 10.4-1.3.5 0 3.2 0 2.9-.4l1.4-.4z"/><circle fill="#00C051" cx="727.3" cy="367" r="1.8"/><circle fill="#00C051" cx="730.3" cy="369.4" r="1.8"/><circle fill="#00C051" cx="733.9" cy="370.6" r="1.8"/><circle fill="#00C051" cx="737.6" cy="369.8" r="1.8"/><circle fill="#00C051" cx="740.5" cy="367.1" r="1.8"/><path fill="#064831" d="M706.8 410.2h-.4c-1.5-.2-2.6-1.7-2.4-3.2 0-.3 1-6.5 5.3-18.8 3.9-11.2 7.7-17.7 7.9-17.9.8-1.3 2.5-1.8 3.9-1 1.3.8 1.8 2.5 1 3.8 0 .1-3.7 6.3-7.4 16.9-4.1 11.7-5 17.7-5 17.8-.3 1.4-1.5 2.4-2.9 2.4z"/><circle fill="#00C051" cx="704.6" cy="417.3" r="5.7"/><path fill="#064831" d="M763.9 407c0-.3-1-6.5-5.3-18.8-3.9-11.2-7.7-17.7-7.9-17.9-.1-.2-.3-.4-.5-.6l.7-3.1-6.7.1s-4.5 10.8-10.1 10.8-10.4-10.8-10.4-10.8l-6.5-.1 5.5 31.7h21.3l4.4-20.3c1.4 2.9 3.1 6.9 4.9 12 4.1 11.7 5 17.7 5 17.8.2 1.4 1.4 2.4 2.8 2.4h.4c1.6-.2 2.6-1.7 2.4-3.2z"/><circle fill="#00C051" cx="763.3" cy="417.3" r="5.7"/><path fill="#064831" d="M753.1 408.8h-38.2c-.8 2.7-1.5 6.2-2 10.7h42.9c-.7-4.4-1.6-7.9-2.7-10.7zm3.7 20.7h-44.7c-.1 3.2-.2 6.8-.2 10.7h45.2c0-3.9-.1-7.5-.3-10.7z"/><circle fill="#009D19" cx="737.6" cy="369.8" r="1.8"/><circle fill="#009D19" cx="740.5" cy="367.1" r="1.8"/><path fill="#009D19" d="M733.9 372.4c1 0 1.8-.8 1.8-1.8s-.8-1.8-1.8-1.8v3.6z"/><g fill="#003227"><path d="M734 408.8v10.7h21.8l-.1-.9-.2-1-.1-.8-.2-1c0-.2-.1-.5-.2-.7-.1-.4-.2-.7-.2-1.1l-.1-.5c-.1-.5-.2-.9-.4-1.4l-.2-.6c-.1-.3-.2-.6-.2-.8l-.2-.6c-.1-.3-.2-.5-.2-.7-.1-.2-.1-.4-.2-.5v-.1h-19.3zM757.1 440.2v-5.800000000000001c0-.5 0-1-.1-1.5v-1.2l-.1-1.5v-.7h-22.9v10.7h23.1z"/></g><path fill="#003227" d="M758.6 388.2c-3.9-11.2-7.7-17.7-7.9-17.9-.1-.2-.3-.4-.5-.6l.7-3.1-6.7.1s-4.5 10.8-10.1 10.8h-.2v20.8h10l4.4-20.3c1.4 2.9 3.1 6.9 4.9 12 4.1 11.7 5 17.7 5 17.8.2 1.4 1.4 2.4 2.8 2.4h.4c1.5-.2 2.6-1.7 2.4-3.2.1-.2-.9-6.5-5.2-18.8z"/><path fill="#D0E0D7" d="M886.5 441.5c0-1.3-16.1-2.4-36-2.4s-36 1.1-36 2.4c0 1.3 16.1 2.4 36 2.4s36-1.1 36-2.4z"/><path fill="#00C051" d="M857.6 383.6l-3.9-7.1v-25.8h-5.9v25.5l-4.7 7.4z"/><path fill="#009D19" d="M857.6 383.6l-3.9-7.1v-25.8h-3.3v32.9z"/><path fill="#00C051" d="M866.4 387.6h-31.8l.4-4h30.8z"/><path fill="#064831" d="M825.6 383.5c-.9 0-1.7-.5-2.1-1.4-.2-.4-4-12.6 0-22.6 3.5-8.6 11.9-14.5 12.2-14.6 1.1-.6 2.4-.1 3 1 .6 1.1.1 2.4-1 3-.1.1-7.3 5.3-10.1 12.3-3.4 8.3 0 19.2 0 19.3.4 1.2-.1 2.4-1.3 2.9-.1 0-.4.1-.7.1z"/><circle fill="#00C051" cx="827.3" cy="388.9" r="4.3"/><path fill="#064831" d="M834.6 383.6h14.1l-.2-6.3v-29l-12.7-6-1.2 41.3zm42.4-24.2c-3.5-8.6-11.8-14.4-12.2-14.6l-.1-3.6-11.8 6.5v35.9h13.2l-1.2-33c2.4 2.1 6 5.9 7.9 10.5 3.4 8.3 0 19.2 0 19.3-.5 1.2.1 2.4 1.3 2.9.3.1.5.2.8.2.9 0 1.7-.5 2.1-1.4.2-.5 4.1-12.7 0-22.7z"/><circle fill="#00C051" cx="873.3" cy="388.9" r="4.3"/><g fill="#00C051"><path d="M847.2 437.3l-2.3-50.2-4.8.3 3.3 50zM843.3 434.5l-14.7 7.5h19l-.6-7.1z"/></g><g fill="#00C051"><path d="M854 437.3l2.3-49.6 4.8-.3-3.3 50zM857.9 434.5l14.7 7.5h-18.9l.5-7.1z"/></g><path fill="#00C051" d="M849.6 298.1c-12.6 0-22.8 10.2-22.8 22.8 0 12.6 10.2 22.8 22.8 22.8 12.6 0 22.8-10.2 22.8-22.8 0-12.6-10.2-22.8-22.8-22.8zm0 34.9c-6.7 0-12.1-5.4-12.1-12.1 0-6.7 5.4-12.1 12.1-12.1 6.7 0 12.1 5.4 12.1 12.1 0 6.7-5.4 12.1-12.1 12.1zM860.9 306.3c.1-.2.3-.3.5-.3h1.6000000000000003c.7-.2 1.4-.5 2-.9 0-.1.1-.3.3-.4.1-.1.2-.1.4-.2l-.5.1c4-3.2 3-9-.7-11.9 2.4 3-3 5.6-5 5.7-2.8.1-7.9-.7-10.7-.7-6.5 0-13.5 2.3-14.6 5.3-.6-.9-1-2.1-1.1-3.5-1.1 2-1.3 5-1.6 7-.6-.4-1.2-1.5-1.7-2 0 1.5 0 2.6.7 4.4l1.6.6c.7-3.1 7.6-3.7 10-4.1 4.2-.7 8.1-.2 12.4 0 1.9.2 4.1.6 6.4.9z"/><path fill="#003227" d="M864.8 344.8l-.1-3.6-11.8 6.5v35.8h13.2l-1.2-33c2.4 2.1 6 5.9 7.9 10.5 3.4 8.3 0 19.2 0 19.3-.5 1.2.1 2.4 1.3 2.9.3.1.5.2.8.2.9 0 1.7-.5 2.1-1.4.2-.4 4-12.6 0-22.6-3.5-8.6-11.8-14.4-12.2-14.6z"/><circle fill="#EEF0EF" cx="859.1" cy="352.6" r="2.1"/><path fill="#00C051" d="M622.7 292.7c-16.2 0-29.2 13.1-29.2 29.2s13.1 29.2 29.2 29.2c16.2 0 29.2-13.1 29.2-29.2s-13.1-29.2-29.2-29.2zm0 44.7c-8.6 0-15.5-7-15.5-15.5 0-8.6 7-15.5 15.5-15.5 8.6 0 15.5 7 15.5 15.5 0 8.6-7 15.5-15.5 15.5z"/><path fill="#D0E0D7" d="M670.1 477.1c0-1.7-20.7-3-46.1-3-25.5 0-46.1 1.4-46.1 3 0 1.7 20.7 3 46.1 3 25.4.1 46.1-1.3 46.1-3"/><path fill="#00C051" d="M644.3 406h-40.7l.5-7.4h39.5z"/><path fill="#064831" d="M592.1 400.7c-1.1 0-2.2-.7-2.7-1.8-.2-.5-5.1-13.4 0-26.2 4.5-11.1 15.2-16.7 15.6-16.9 1.4-.7 3.1-.2 3.9 1.2.7 1.4.2 3.1-1.2 3.9-.2.1-9.3 5-13 14-4.3 10.6 0 21.8 0 21.9.6 1.5-.1 3.1-1.6 3.7-.3.1-.6.2-1 .2"/><path fill="#064831" d="M605.2 352.6l-1.6 48.3h40.4l-1.9-49.7-18.4 10.2z"/><path fill="#003227" d="M623.6 361.3v39.6h20.4l-1.9-49.7-18.4 10.2z"/><path fill="#00C051" d="M588.8 407.7c0 3 2.5 5.5 5.5 5.5s5.5-2.5 5.5-5.5-2.5-5.5-5.5-5.5c-3.1 0-5.5 2.4-5.5 5.5"/><path fill="#003227" d="M655.1 400.7c1.1 0 2.2-.7 2.7-1.8.2-.5 5.1-13.4 0-26.2-4.5-11.1-15.2-16.7-15.6-16.9-1.4-.7-3.1-.2-3.9 1.2-.7 1.4-.2 3.1 1.2 3.9.2.1 9.3 5 13 14 4.3 10.6 0 21.8 0 21.9-.6 1.5.1 3.1 1.6 3.7.3.1.7.2 1 .2"/><path fill="#00C051" d="M658.5 407.7c0 3-2.5 5.5-5.5 5.5s-5.5-2.5-5.5-5.5 2.5-5.5 5.5-5.5 5.5 2.4 5.5 5.5"/><path fill="#00C051" d="M619.7 470.6l-3-64.5-6.1-.4 4.2 65zM614.8 467l-18.8 9.5h24.2l-.7-9zM628.5 470.6l2.9-64.5 6.2-.4-4.3 65zM633.4 467l18.8 9.5h-24.2l.7-9zM611.2 355.2l8.6 11.3 3.7-5.2 5.3 5.3 7.1-12.1-12.3 6.7zM617.3 293.6c2-.7 4-1.2 6.1-1.6 2.1-.4 5.7-.6 6.8-2.7.3 1.4 0 2.6-.3 4 2-1.2 4.9-.9 6.8-2.4-.4 1.7-1.6 2.6-2.3 4.1.9 0 2 .1 2.8.5-3 2.2-6.2 1-9.7.5-2.1-.3-4.1-.4-6.2-.5-1.1-.1-2.2-.3-3.2-.7l-.8-1.2z"/><path fill="#009D19" d="M628.8 366.6l7-11.9-12.1 6.7-.1-.1v.1z"/><path fill="#D0E0D7" d="M566.7 497c0-1.6-19.3-2.8-43.2-2.8s-43.2 1.3-43.2 2.8c0 1.6 19.3 2.8 43.2 2.8s43.2-1.2 43.2-2.8"/><path fill="#00C051" d="M520.1 304.2c-16.6 0-30 13.4-30 30s13.4 30 30 30 30-13.4 30-30-13.4-30-30-30zm0 45.9c-8.8 0-15.9-7.1-15.9-15.9s7.1-15.9 15.9-15.9 15.9 7.1 15.9 15.9-7.1 15.9-15.9 15.9zM542.3 425.1h-41.7l.5-7.6h40.4z"/><path fill="#003227" d="M553.1 419.7c1.2 0 2.3-.7 2.7-1.9.2-.6 5.3-16.6 0-29.7-4.6-11.3-15.6-19-16-19.2-1.4-.7-3.2-.2-4 1.3-.7 1.4-.2 3.2 1.3 4 .2.1 9.5 7 13.3 16.2 4.4 10.9 0 25.2 0 25.3-.6 1.5.2 3.2 1.7 3.8.3.1.6.2 1 .2z"/><path fill="#064831" d="M502.2 365.6l-1.6 54.2h41.4l-1.9-55.6-18.9 10.4z"/><circle fill="#00C051" cx="550.9" cy="426.8" r="5.7"/><circle fill="#00C051" cx="476.1" cy="359.8" r="5.7"/><g fill="#00C051"><path d="M517 491.3l-3-66.1-6.3-.4 4.4 66.7zM512 487.7l-19.3 9.7h24.9l-.8-9.2z"/></g><g fill="#00C051"><path d="M526.1 491.3l3-66.1 6.3-.4-4.3 66.7zM531.1 487.7l19.3 9.7h-24.8l.7-9.2z"/></g><path fill="#00C051" d="M525.6 305.1c-2.1-.7-4.1-1.2-6.2-1.6-2.2-.4-5.9-.6-7-2.7-.3 1.4 0 2.7.3 4.1-2-1.2-5-.9-7-2.5.5 1.7 1.7 2.7 2.4 4.2-.9 0-2 .1-2.9.5 3.1 2.2 6.4 1 9.9.5 2.2-.3 4.2-.4 6.4-.5 1.1-.1 2.2-.3 3.3-.8l.8-1.2zM518.4 390.8l-4.4 2.5-5.4-2.5v-10.1h9.8z"/><path fill="#064831" d="M490.3 387.9c.1 0 .3 0 .4.1 7.1 1 14-9.9 15.3-12.1.7-1.2.3-2.8-.9-3.6-1.2-.7-2.8-.3-3.6.9-2.5 4.3-7.5 10-10.1 9.6-6.1-.8-10.7-10.2-12-13.7-.5-1.4-2-2.1-3.3-1.6-1.4.5-2.1 2-1.6 3.3.1.2 1.4 3.9 3.9 7.8 3.5 5.4 7.5 8.6 11.9 9.3zM529.9 282.1s6.5 3.1 6.3 5c-.1 1.9-1 13.7-1 13.7l-9.4-3.3 4.1-15.4z"/><path fill="#00C051" d="M535.1 300.8l-34.4-7.5 1.6-1.7 34.5 7.4zM525.7 297.4l5-16.7-9 .4-3.6 13.9z"/><path fill="#003227" d="M521.4 419.8h20.6l-1.9-55.6-18.7 10.3z"/><path fill="#D0E0D7" d="M488.2 601.8c0-2.1-25.8-3.8-57.6-3.8s-57.6 1.7-57.6 3.8c0 2.1 25.8 3.8 57.6 3.8s57.6-1.7 57.6-3.8z"/><g fill="#00C051"><path d="M425.2 595.2l-3.6-80.6-7.7-.4 5.3 81.2zM419.1 590.8l-23.5 11.8h30.3l-.9-11.2z"/></g><g fill="#00C051"><path d="M436.3 595.2l3.6-80.6 7.7-.4-5.3 81.2zM442.4 590.8l23.5 11.8h-30.3l.9-11.2z"/></g><path fill="#00C051" d="M456 514.5l-.9-9.2h-49.3l-.7 9.2h5.3l2.7 30.1h14.4l-1.2-30.1h9l-1.2 30.1h14.5l2.7-30.1z"/><path fill="#009D19" d="M430.6 505.3v9.2h4.7l-1.2 30.1h14.5l2.7-30.1h4.7l-.9-9.2z"/><circle opacity=".3" fill="#fff" cx="428.6" cy="409.1" r="22.4"/><path fill="#00C051" d="M429 372.9c-20.2 0-36.5 16.4-36.5 36.5 0 20.2 16.4 36.5 36.5 36.5 20.2 0 36.5-16.4 36.5-36.5s-16.4-36.5-36.5-36.5zm0 56c-10.7 0-19.4-8.7-19.4-19.4s8.7-19.4 19.4-19.4 19.4 8.7 19.4 19.4-8.7 19.4-19.4 19.4z"/><path fill="#064831" d="M407.1 447.8l-1.9 60.3h50.5l-2.4-62-22.5 12.7zM407.1 447.8l-1.9 60.3h50.5l-2.4-62-22.5 12.7z"/><path fill="#00C051" d="M472.7 471.5c-.8-1.9-1.6-3.6-2.6-5.2-2.1 1.2-4.1 2.5-6 3.9.7 1.2 1.4 2.6 2 4 5.4 13.3 0 27.3 0 27.4-.7 1.8.2 3.9 2 4.6.4.2.9.2 1.3.2 1.4 0 2.8-.9 3.3-2.3.2-.6 6.4-16.7 0-32.6zM473.5 515.2c0 3.8-3.1 6.9-6.9 6.9-3.8 0-6.9-3.1-6.9-6.9 0-3.8 3.1-6.9 6.9-6.9 3.8.1 6.9 3.1 6.9 6.9zM408 380.3c-8.4 3.7-4.3-14.2 3-6.2-.3-4.1 1.7-8.1 5.9-9.3 5.4-1.7 8.5 1.1 11.1 5.1.8-7.5 17-11.3 15.9-.5.9-5.3 9.8-6.7 14.7-5 9.3 3.2 9.3 17.9-5 21-9 2-13 0-22.1 0-4.1 0-7.9-.2-11.9-.8-1.5-.2-7.1-2.2-8-1.9-.1.2-.1.5-.1.7l-3.5-3.1zM398.6 381.4c-2.2 2.9.1 5.5 3.2 6.3 3.4.9 8.6-1.2 7.8-5.5-.8-4.7-8.8-3.7-11-.8z"/><path fill="#003227" d="M453.2 446.2c-1.2 4-2.1 10.4-3.1 14.5 4 3.3 8.6 5.4 12.4 11.1 3.1-2.4 6.3-4.5 9.7-6.4-6-9-13.6-15.4-19-19.2z"/><path fill="#00C051" d="M387.7 473.2c.8-1.9 1.6-3.6 2.6-5.2 2.1 1.2 4.1 2.5 6 3.9-.7 1.2-1.4 2.6-2 4-5.4 13.3 0 27.3 0 27.4.7 1.8-.2 3.9-2 4.6-.4.2-.9.2-1.3.2-1.4 0-2.8-.9-3.3-2.3-.3-.6-6.4-16.7 0-32.6zM386.9 516.9c0 3.8 3.1 6.9 6.9 6.9 3.8 0 6.9-3.1 6.9-6.9 0-3.8-3.1-6.9-6.9-6.9-3.9 0-6.9 3.1-6.9 6.9z"/><path fill="#064831" d="M407.2 447.8c1.2 4 2.1 10.4 3.1 14.5-4 3.3-8.6 5.4-12.4 11.1-3.1-2.4-6.3-4.5-9.7-6.4 6-8.9 13.6-15.3 19-19.2z"/><circle fill="#00C051" cx="459.4" cy="387" r="4.9"/><path fill="#003227" d="M430.6 458.7v49.4h25.1l-2.4-62-22.5 12.7z"/><path fill="#00C051" d="M284.6 322.5c-19.5 0-35.3 15.8-35.3 35.3 0 19.5 15.8 35.3 35.3 35.3 19.5 0 35.3-15.8 35.3-35.3.1-19.5-15.7-35.3-35.3-35.3zm0 54.1c-10.4 0-18.8-8.4-18.8-18.8s8.4-18.8 18.8-18.8 18.8 8.4 18.8 18.8c0 10.3-8.4 18.8-18.8 18.8z"/><path fill="#D0E0D7" d="M341.9 541.5c0-2-24.9-3.7-55.7-3.7-30.8 0-55.7 1.6-55.7 3.7 0 2 24.9 3.7 55.7 3.7 30.8-.1 55.7-1.7 55.7-3.7z"/><path fill="#00C051" d="M280.3 535.1l-3.6-79.4-7.4-.4 5.1 79.9zM274.4 530.8l-22.8 11.4h29.3l-.9-10.8z"/><g fill="#00C051"><path d="M290.5 535.5l3.5-78.8 7.4-.5-5.1 79.5zM296.4 531.5l22.7 10.7h-29.2l.8-10.1z"/></g><path fill="#00C051" d="M272.5 436c-5.5 2.8-12.9 7.7-12.9 49.8h53.2c0-40.6-10.2-48.7-15.5-49.8h-24.8z"/><path fill="#064831" d="M297.7 399.2s-5.3 12.7-11.9 12.7c-6.6 0-12.2-12.7-12.2-12.7l-7.6-.1 6.5 37.3h24.9l8.2-37.3-7.9.1z"/><path fill="#00C051" d="M291.7 323.1c-4.7-1.2-10.5-2.7-15.5-2.3.2.7 1 1.1 1.5 1.5-2.1.6-4.5 1-6.7 1.2-1.3.1-2.7-.1-3.8.4 1.9 1.6 4.6 2.1 7.2 1.8 4.1-.5 8.2-1.2 12.3-1.6.6-.1 3.7 0 3.4-.5l1.6-.5zM279.9 399.5c0 1.2-1 2.1-2.1 2.1-1.2 0-2.1-1-2.1-2.1 0-1.2 1-2.1 2.1-2.1s2.1.9 2.1 2.1z"/><circle fill="#00C051" cx="281.2" cy="402.4" r="2.1"/><circle fill="#00C051" cx="285.5" cy="403.7" r="2.1"/><circle fill="#00C051" cx="289.9" cy="402.7" r="2.1"/><circle fill="#00C051" cx="293.2" cy="399.6" r="2.1"/><path fill="#064831" d="M253.6 450.4h-.5c-1.8-.3-3-2-2.8-3.8 0-.3 1.2-7.7 6.2-22.1 4.6-13.2 9.1-20.8 9.2-21.1.9-1.6 3-2.1 4.5-1.2 1.6.9 2.1 3 1.2 4.5-.1.1-4.4 7.5-8.7 19.9-4.8 13.7-5.9 20.8-5.9 20.9-.2 1.7-1.6 2.9-3.2 2.9z"/><circle fill="#00C051" cx="251" cy="458.8" r="6.7"/><path fill="#003227" d="M317.5 450.4c-1.6 0-3-1.2-3.3-2.8 0-.1-1.1-7.2-5.9-20.9-4.4-12.5-8.7-19.8-8.7-19.9-.9-1.6-.4-3.6 1.2-4.5 1.6-.9 3.6-.4 4.5 1.2.2.3 4.7 8 9.2 21.1 5 14.4 6.2 21.8 6.2 22.1.3 1.8-1 3.5-2.8 3.8 0-.1-.2-.1-.4-.1z"/><path fill="#00C051" d="M313.5 459.3c.3 3.7 3.5 6.4 7.2 6.1 3.7-.3 6.4-3.5 6.1-7.2-.3-3.7-3.5-6.4-7.2-6.1-3.7.3-6.4 3.5-6.1 7.2z"/><path fill="#009D19" d="M285.6 436v49.8h27.3c0-40.6-10.2-48.7-15.5-49.8h-11.8z"/><path fill="#003227" d="M285.8 411.9h-.2v24.5h11.8l8.2-37.3-7.8.1c-.1 0-5.4 12.7-12 12.7z"/><path fill="#009D19" d="M285.6 401.6v4.3c1.1-.1 2-1 2-2.1 0-1.3-.9-2.2-2-2.2z"/><circle fill="#009D19" cx="289.9" cy="402.7" r="2.1"/><circle fill="#009D19" cx="293.2" cy="399.6" r="2.1"/><path fill="#fff" d="M285.5 436.4l-7.8-3.7v7.3z"/><path fill="#B3E4BB" d="M285.5 436.4l7.8 3.6v-7.3z"/><path fill="#00C051" d="M927.6 385c.9-.1 1.8.2 2.6.7-.2-2.6 1-4.4 2.2-6.4 0 1.2.6 1.8.9 2.9.7 2.1.5 3.3.1 5.7-.3 1.6 0 8.2-2.5 7.8-2.3-.4-3.2-10.7-3.3-10.7zM998.5 382.8c-.4 1.1-1.1 2.1-1.8 3 .3-2.5.3-5.9-2.1-7.4.2 1 .7 3.9 0 4.8-1.3 1.6-3.4-.2-5.1 0-5.2.6.6 9.9 2.8 11.2 6.2 3.7 7.3-7.9 6.2-11.6zM963.4 364.2c-19 0-34.3 15.4-34.3 34.3 0 19 15.4 34.3 34.3 34.3 19 0 34.4-15.4 34.4-34.3s-15.4-34.3-34.4-34.3zm0 52.6c-10.1 0-18.2-8.2-18.2-18.2 0-10.1 8.2-18.2 18.2-18.2 10.1 0 18.2 8.2 18.2 18.2.1 10-8.1 18.2-18.2 18.2z"/><path fill="#D0E0D7" d="M1019.2 576.3c0-2-24.3-3.6-54.2-3.6-29.9 0-54.2 1.6-54.2 3.6s24.3 3.6 54.2 3.6c29.9 0 54.2-1.6 54.2-3.6z"/><path fill="#064831" d="M988.9 499.6h-47.9l.6-8.7h46.4zM927.5 493.4c-1.3 0-2.6-.8-3.1-2.1-.2-.6-6-13.6 0-28.6 5.3-13 17.8-18.5 18.4-18.8 1.7-.8 3.7-.2 4.5 1.4.8 1.6.2 3.7-1.4 4.5-.2.1-10.9 4.8-15.2 15.4-5.1 12.5 0 23.5 0 23.6.7 1.7-.2 3.7-1.9 4.4-.4.1-.8.2-1.3.2zM942.9 440.1l-1.8 53.5h47.4l-2.2-55.2-21.4 12z"/><circle fill="#00C051" cx="930.1" cy="501.6" r="6.5"/><path fill="#003227" d="M1001.7 493.4c1.3 0 2.6-.8 3.1-2.1.2-.6 6-13.6 0-28.6-5.3-13-17.8-18.5-18.4-18.8-1.7-.8-3.7-.2-4.5 1.4-.9 1.6-.2 3.7 1.4 4.5.2.1 10.9 4.8 15.2 15.4 5.1 12.5 0 23.5 0 23.6-.7 1.7.2 3.7 1.9 4.4.5.1.9.2 1.3.2z"/><path fill="#00C051" d="M1005.7 501.6c0 3.6-2.9 6.5-6.5 6.5s-6.5-2.9-6.5-6.5 2.9-6.5 6.5-6.5 6.5 2.9 6.5 6.5z"/><g fill="#064831"><path d="M959.9 570l-3.4-70.6-7.2-.1 4.9 70.9zM954.2 565.9l-22.1 11.1h28.4l-.8-10.5z"/></g><g fill="#064831"><path d="M970.3 570l3.5-70.6 7.2-.1-5 70.9zM976.1 565.9l22.1 11.1h-28.5l.8-10.5z"/></g><path opacity=".6" fill="#fff" d="M970.8 387.8h28.6v21.5h-28.6zM928 387.8h28.6v21.5h-28.6z"/><path fill="#327B46" d="M973.8 412.2c-3.3 0-6-2.7-6-6v-13.1c-.8-.8-2.8-2.5-4.4-2.5-1.3 0-3 1.2-4.2 2.2v13.3c0 3.3-2.7 6-6 6h-21.2c-3.3 0-6-2.7-6-6v-14.1h-2.4v-4.4h3.4c1.1-1.7 3-2.7 5-2.7h21.3c2.1 0 4 1.1 5.1 2.8 1.8-1.1 3.5-1.7 5.1-1.7 1.7 0 3.4.6 5.3 1.8 1.1-1.8 3-3 5.1-3h21.3c2 0 3.9 1 5 2.7h3.3v4.4h-2.4v14.1c0 3.3-2.7 6-6 6h-21.3zm0-22.6c-.8 0-1.4.6-1.4 1.4v15.3c0 .8.6 1.4 1.4 1.4h21.3c.8 0 1.4-.6 1.4-1.4v-15.3c0-.8-.6-1.4-1.4-1.4h-21.3zm-41.8 0c-.8 0-1.4.6-1.4 1.4v15.3c0 .8.6 1.4 1.4 1.4h21.3c.8 0 1.4-.6 1.4-1.4v-15.3c0-.8-.6-1.4-1.4-1.4h-21.3z"/><path fill="#00C051" d="M959.6 466.4l-5 3-6.2-3v-11.5h11.2z"/><path fill="#EEF0EF" d="M950.6 450.6h2.7v9.4h-2.7z"/><path fill="#003227" d="M964.9 493.6h23.6l-2.2-55.2-21.4 12z"/><path fill="#EEF0EF" d="M965.1 459.8c1.1 0 2-.9 2-2s-.9-2-2-2-2 .9-2 2c0 1.2.9 2 2 2zm0 10.1c-1.1 0-2 .9-2 2s.9 2 2 2 2-.9 2-2c-.1-1.1-1-2-2-2zm0 12.9c-1.1 0-2 .9-2 2s.9 2 2 2 2-.9 2-2c-.1-1.1-1-2-2-2z"/></g><g><path d="M535.5 671.5h13.9l.4-12.3c-4.1 3-9.2 7.1-14.3 12.3zM669.3 671.5h14.5c-5.3-5.1-10.6-9.1-15-12.1l.5 12.1z" fill="none"/><path opacity=".3" fill="#fff" d="M606 579.6c27.1 0 49-22 49-49 0-27.1-21.9-49-49-49s-49 21.9-49 49c-.1 27 21.9 49 49 49z"/><path fill="#00C051" d="M606 622.8c51 0 92.3-41.3 92.3-92.3 0-35.5-20.1-66.3-49.5-81.8 1-.5 2.1-1.1 3.1-1.9-2.6-1-6.1-1.3-8.9-1.5 2.1-4.6 5.8-7.6 7.2-12.9-6 4.7-15.3 3.9-21.6 7.6 1-4.1 1.8-8.2 1-12.5-3.4 6.5-14.8 7.1-21.4 8.4-3.9.8-7.6 1.6-11.2 2.6-46.8 4.5-83.4 43.9-83.4 91.8.1 51.2 41.4 92.5 92.4 92.5zm0-141.3c27.1 0 49 21.9 49 49s-21.9 49-49 49-49-22-49-49c-.1-27 21.9-49 49-49z"/><path fill="#064831" d="M549.8 659.2l-.4 12.3h59.6v-16.2l-.4-.4-11.7 16.4-26.3-34.7-19.6-9.3-.3 10.1c-1.3.6-22.7 12-38.6 34.1h23.6c4.9-5.2 10-9.3 14.1-12.3z"/><path fill="#003227" d="M609 671.5h16.3l-16.3-16.2zM669.3 671.5l-.5-12.1c4.4 3 9.7 7 15 12.1h24c-14.4-19.5-33.5-30.4-39.8-33.6l-.6-14.9-19.9 11-22.1 37.5h43.9z"/><path fill="#00C051" d="M608.6 654.8l.4.5 16.3 16.2-16.3-16.2v-.4l.3.1 38.2-21.1-22.2 37.6 22.2-37.6.2-.4-38.8 21-39.1-18.8.7.9 26.3 34.6z"/><path fill="#009D19" d="M647.5 633.9l-38.2 21.1-.3-.1v.4l16.3 16.2z"/><path fill="none" d="M833.9 614.2h-9l2.5 57.3h12.7l2.6-57.3zM832.5 493.8c12.7 0 23-10.3 23-23s-10.3-23-23-23-23 10.3-23 23 10.3 23 23 23z"/><path fill="#00C051" d="M832.5 514c23.9 0 43.2-19.4 43.2-43.2 0-8.8-2.6-17-7.2-23.9 3.2-.8 6.7-4.9 6.7-4.9-2.1 1.5-9.2.5-9.2.5l4.4-2.5-7.3.3-.3-.3v.1l-8.6-6.7-.7-.4-3.1-5.5s0 2.4.1 3.9c-5.5-2.6-11.7-4-18.2-4-23.9 0-43.2 19.4-43.2 43.2.1 24.1 19.5 43.4 43.4 43.4zm0-66.2c12.7 0 23 10.3 23 23s-10.3 23-23 23-23-10.3-23-23 10.3-23 23-23zM870.9 437.4c9.3 0 16.8-7.5 16.8-16.8s-7.5-16.8-16.8-16.8-16.8 7.5-16.8 16.8c0 3.4 1 6.5 2.7 9.2l8.6 6.7c1.8.6 3.6.9 5.5.9z"/><path fill="#064831" d="M862.9 440.1l2.7-3.5-.1-.1-8.6-6.7-.4-.3-2.8 3.5.6.5 8.6 6.6z"/><path fill="#00C051" d="M824.9 614.2h9v-57.9h-13.5l-.1-.4c-1.4 1.4-3.8 8.3-6.5 16.9-1.2-3.2-4.4-5.4-7.9-5.2-4.5.2-8 4-7.8 8.5.2 4.5 4 8 8.5 7.8 1.6-.1 3.1-.6 4.4-1.5-4.5 15.4-8.8 31.8-8.8 31.8h14.2l3.7 57.3h7.5l-2.7-57.3zM840.1 671.5h7.5l3.7-57.3h-8.6z"/><path fill="#009D19" d="M833.9 556.3v57.9h30.599999999999998s-4.1-16.2-8.7-31.6c-2.4-1.5-3.9-4.2-3.8-7.2 0-1 .3-2 .7-2.9-2.8-8.7-5.4-15.5-7-16.6l-.1.4h-11.7z"/><path fill="#00C051" d="M834.7 533.6s0-.1.1-.1c-.1 0-.1.1-.1.1zM840.4 527.7l.3-.2c-.1.1-.2.2-.3.2zM839.4 528.4c.1-.1.2-.1.2-.2l-.2.2zM834.3 534.1zM834 534.6zM842.5 526.7c.1 0 .2-.1.4-.1-.2 0-.3.1-.4.1zM843.6 526.4l.3-.1s-.2.1-.3.1zM833.9 534.8zM835.6 532.2l.1-.1s0 .1-.1.1zM836.9 530.7l.1-.2c0 .1 0 .1-.1.2zM836.2 531.5l.1-.1-.1.1zM838.5 529.1l.2-.2c0 .1-.1.1-.2.2zM837.7 529.9l.2-.2c-.1.1-.2.1-.2.2zM835.1 532.9l.1-.1c0 .1-.1.1-.1.1zM841.4 527.2l.3-.2c-.1 0-.2.1-.3.2zM833.9 553v-18.2.1s-3.9-8.2-10.5-8.6l10.5 26.7z"/><path fill="#009D19" d="M834 553.3l10.1-27h-.1l-.3.1c-.3.1-.6.1-.8.2-.1 0-.2.1-.4.1l-.8.3c-.1 0-.2.1-.3.2-.2.1-.5.2-.7.4l-.3.2-.7.5c-.1.1-.2.1-.2.2-.2.2-.5.4-.7.5l-.2.2c-.2.2-.4.4-.7.6l-.2.2-.6.6c-.1.1-.1.1-.1.2l-.6.6-.1.1c-.2.2-.4.4-.5.6l-.1.1c-.2.2-.3.4-.4.6l-.1.1c-.1.2-.3.4-.4.5 0 0 0 .1-.1.1l-.3.5s0 .1-.1.1l-.2.3s0 .1-.1.1l-.1.2v18.3l.1.3z"/><path fill="#064831" d="M833.9 556.3v-3.1999999999999997l-10.6-26.8-1.9-4.7-9.5-.2.5 2.1c-.7.1-16.7 2.8-23 17.4-5.9 13.6 3.2 27.2 3.6 27.7.8 1.1 2.1 1.8 3.3 1.8.8 0 1.6-.2 2.3-.7 1.8-1.3 2.3-3.8 1.1-5.6-.1-.1-7-10.4-2.9-20 4.5-10.4 16.6-12.5 16.8-12.6.2 0 .4-.1.6-.2l5.9 24.6.1.4h13.7z"/><path fill="#003227" d="M834 553.3l-.1-.3v3.1999999999999997h11.6l.1-.4 7-24.4c1.7.4 14 3.4 18.1 12.6 4.4 9.9-3.6 19.1-3.9 19.5-1.5 1.7-1.3 4.2.3 5.7.8.7 1.7 1 2.7 1 1.1 0 2.2-.5 3-1.4.5-.5 11.8-13.5 5.3-28.2-5.3-12.2-19.4-16.2-23.3-17.1l.7-2.3-9.6.2-1.8 4.8-10.1 27.1z"/><path fill="#00C051" d="M855.7 582.6c1.2.7 2.5 1.2 4 1.3 4.5.2 8.3-3.3 8.5-7.8.2-4.5-3.3-8.3-7.8-8.5-3.5-.1-6.5 1.9-7.8 4.9-.4.9-.6 1.9-.7 2.9-.1 3 1.4 5.7 3.8 7.2z"/><path d="M225.8 670.3c4-13.5 9.5-16.9 14.1-19.2l-6.2-35.5c-2.4 5.1-5.5 12.3-8.5 21.1-7.3 21-9 31.8-9 31.9-.2 1.1-.7 2.1-1.5 2.8h10.8c0-.3.1-.6.3-1.1-.1.1 0 .1 0 0zM294.7 636.7c-3.2-9.1-6.3-16.4-8.8-21.6l-7.9 35.9c4.5.9 11.2 5.2 16.3 19.3v.1c.1.3.3.7.4 1.1h10.4c-.8-.7-1.3-1.7-1.5-2.8.1-.2-1.6-11-8.9-32z" fill="none"/><path opacity=".3" fill="#fff" d="M258.5 560.2c15.8 0 28.6-12.8 28.6-28.6s-12.8-28.6-28.6-28.6-28.6 12.8-28.6 28.6 12.8 28.6 28.6 28.6z"/><path fill="#00C051" d="M258.5 585.5c29.8 0 53.9-24.1 53.9-53.9 0-26.2-18.6-48-43.4-52.8l.3-.1c-7.2-1.8-16-4.1-23.6-3.5.3 1.1 1.5 1.7 2.3 2.2-3.2.9-6.9 1.6-10.3 1.8-2 .1-4.1-.2-5.9.6 1.4 1.2 3.1 2 5 2.4-19 8.3-32.2 27.3-32.2 49.3.1 29.9 24.2 54 53.9 54zm0-82.5c15.8 0 28.6 12.8 28.6 28.6s-12.8 28.6-28.6 28.6-28.6-12.8-28.6-28.6 12.8-28.6 28.6-28.6zM225.8 670.3h34.2v-18.7h-20l-.1-.5c-4.6 2.3-10.1 5.7-14.1 19.2zM225.4 671.5l.3-1.1-.3 1.1z"/><path fill="#009D19" d="M294.4 670.3c-5.1-14.1-11.8-18.4-16.3-19.3l-.1.5h-18v18.7h34.4zM294.7 671.3c0 .1 0 .1.1.2-.1-.4-.2-.7-.4-1.1l.3.9z"/><path fill="#00C051" d="M248 592c-1.8 0-3.3 1.5-3.3 3.3 0 1.8 1.5 3.3 3.3 3.3 1.8 0 3.3-1.5 3.3-3.3 0-1.8-1.5-3.3-3.3-3.3zM253.3 602.9c1.8 0 3.3-1.5 3.3-3.3 0-1.8-1.5-3.3-3.3-3.3s-3.3 1.5-3.3 3.3c.1 1.8 1.5 3.3 3.3 3.3zM259.8 604.9v-6.5c-1.8 0-3.3 1.5-3.3 3.3 0 1.7 1.5 3.2 3.3 3.2z"/><path fill="#064831" d="M216.1 668.6c0-.1 1.7-10.9 9-31.9 3.1-8.8 6.1-16 8.5-21.1l6.2 35.5.1.5h20v-37.4c-10-.4-18.3-19.4-18.3-19.4l-11.6-.2.9 5.2c-.5.4-.9.8-1.2 1.4-.3.5-7.1 12.1-14.1 32.2-7.7 22-9.4 33.3-9.5 33.7-.2 1.7.4 3.2 1.5 4.3h7c.8-.7 1.4-1.6 1.5-2.8zM225.8 670.3c0 .1-.1.1 0 0-.1.4-.2.8-.3 1.1h34.5v-1.1h-34.2zM294.5 670.5c.1.2.2.5.2.7l-.3-.9v-.1c0 .2.1.3.1.3z"/><path fill="#009D19" d="M266.5 596.9c-1.8 0-3.3 1.5-3.3 3.3 0 1.8 1.5 3.3 3.3 3.3 1.8 0 3.3-1.5 3.3-3.3 0-1.8-1.5-3.3-3.3-3.3zM274.9 595.3c0-1.8-1.5-3.3-3.3-3.3-1.8 0-3.3 1.5-3.3 3.3 0 1.8 1.5 3.3 3.3 3.3 1.8 0 3.3-1.4 3.3-3.3zM259.8 604.9c1.8 0 3.3-1.5 3.3-3.3 0-1.8-1.5-3.3-3.3-3.3v6.6z"/><path fill="#003227" d="M294.5 670.5l-.1-.2h-34.4v1.1h34.8c0-.1 0-.1-.1-.2 0-.2-.1-.4-.2-.7zM260 651.6h18l.1-.5 7.9-35.9c2.4 5.2 5.6 12.4 8.8 21.6 7.3 21 9 31.8 9 31.9.2 1.1.7 2.1 1.5 2.8h7.1c1.1-1.1 1.7-2.7 1.5-4.3-.1-.5-1.8-11.7-9.5-33.7-7-20.1-13.8-31.7-14.1-32.2-.2-.4-.6-.8-.9-1.1l1.2-5.5-12 .2s-8 19.4-18.2 19.4h-.3v37.300000000000004z"/></g></svg>