<?xml version="1.0" encoding="iso-8859-1"?>
<!-- Generator: Adobe Illustrator 16.0.0, SVG Export Plug-In . SVG Version: 6.00 Build 0)  -->
<!DOCTYPE svg PUBLIC "-//W3C//DTD SVG 1.1//EN" "http://www.w3.org/Graphics/SVG/1.1/DTD/svg11.dtd">
<svg version="1.1" id="Layer_1" xmlns="http://www.w3.org/2000/svg" xmlns:xlink="http://www.w3.org/1999/xlink" x="0px" y="0px"
	 width="14px" height="16px" viewBox="0 0 14 16" style="enable-background:new 0 0 14 16;" xml:space="preserve">
<g id="Add_Document_1">
	<path d="M4.508,9H6V7.5C6,7.224,6.231,7,6.508,7h1C7.784,7,8,7.224,8,7.5V9h1.508C9.784,9,10,9.224,10,9.5v1
		c0,0.276-0.216,0.5-0.492,0.5H8v1.5C8,12.776,7.784,13,7.508,13h-1C6.231,13,6,12.776,6,12.5V11H4.508C4.231,11,4,10.776,4,10.5v-1
		C4,9.224,4.231,9,4.508,9z M9.508,5C9.231,5,9,4.776,9,4.5v-4C9,0.224,8.784,0,8.508,0h-7.5C0.455,0,0,0.447,0,1v14
		c0,0.553,0.455,1,1.008,1h12C13.561,16,14,15.553,14,15V7V6V5.5C14,5.224,13.784,5,13.508,5H9.508z"/>
	<path d="M10,0.5v3C10,3.776,10.231,4,10.508,4h3c0.276,0,0.342-0.158,0.146-0.354l-3.297-3.293C10.162,0.158,10,0.224,10,0.5z"/>
</g>
<g>
</g>
<g>
</g>
<g>
</g>
<g>
</g>
<g>
</g>
<g>
</g>
<g>
</g>
<g>
</g>
<g>
</g>
<g>
</g>
<g>
</g>
<g>
</g>
<g>
</g>
<g>
</g>
<g>
</g>
</svg>
