<?xml version="1.0" encoding="iso-8859-1"?>
<!-- Generator: Adobe Illustrator 16.0.0, SVG Export Plug-In . SVG Version: 6.00 Build 0)  -->
<!DOCTYPE svg PUBLIC "-//W3C//DTD SVG 1.1//EN" "http://www.w3.org/Graphics/SVG/1.1/DTD/svg11.dtd">
<svg version="1.1" id="Layer_1" xmlns="http://www.w3.org/2000/svg" xmlns:xlink="http://www.w3.org/1999/xlink" x="0px" y="0px"
	 width="16px" height="16px" viewBox="0 0 16 16" style="enable-background:new 0 0 16 16;" xml:space="preserve">
<g id="Add_Window_1">
	<path d="M11,4H1C0.447,4,0,4.447,0,5v10c0,0.553,0.447,1,1,1h10c0.553,0,1-0.447,1-1V5C12,4.447,11.553,4,11,4z M9,10.5
		C9,10.776,8.776,11,8.5,11H7v1.5C7,12.776,6.776,13,6.5,13h-1C5.224,13,5,12.776,5,12.5V11H3.5C3.224,11,3,10.776,3,10.5v-1
		C3,9.224,3.224,9,3.5,9H5V7.5C5,7.224,5.224,7,5.5,7h1C6.776,7,7,7.224,7,7.5V9h1.5C8.776,9,9,9.224,9,9.5V10.5z"/>
	<path d="M5,0C4.447,0,4,0.447,4,1v1h9c0.553,0,1,0.448,1,1v9h1c0.553,0,1-0.447,1-1V1c0-0.553-0.447-1-1-1H5z"/>
</g>
<g>
</g>
<g>
</g>
<g>
</g>
<g>
</g>
<g>
</g>
<g>
</g>
<g>
</g>
<g>
</g>
<g>
</g>
<g>
</g>
<g>
</g>
<g>
</g>
<g>
</g>
<g>
</g>
<g>
</g>
</svg>
