<?xml version="1.0" encoding="iso-8859-1"?>
<!-- Generator: Adobe Illustrator 16.0.0, SVG Export Plug-In . SVG Version: 6.00 Build 0)  -->
<!DOCTYPE svg PUBLIC "-//W3C//DTD SVG 1.1//EN" "http://www.w3.org/Graphics/SVG/1.1/DTD/svg11.dtd">
<svg version="1.1" id="Layer_1" xmlns="http://www.w3.org/2000/svg" xmlns:xlink="http://www.w3.org/1999/xlink" x="0px" y="0px"
	 width="15px" height="16px" viewBox="0 0 15 16" style="enable-background:new 0 0 15 16;" xml:space="preserve">
<path id="Airplane_1_x2C__Travel_2" d="M14.592,9.681L9,5.625v-3.31c0-0.283-0.135-0.694-0.3-0.92L7.8,0.171
	c-0.165-0.228-0.435-0.228-0.6,0L6.3,1.396C6.135,1.621,6,2.032,6,2.315v3.31L0.408,9.681C0.183,9.843,0,10.204,0,10.486v2.042
	c0,0.282,0.194,0.397,0.435,0.258L6,10.403v3.672l-1,1.021v0.512C5,15.89,5.224,16,5.5,16h4c0.276,0,0.5-0.11,0.5-0.393v-0.512
	l-1-1.021v-3.672l5.565,2.383c0.24,0.14,0.435,0.024,0.435-0.258v-2.042C15,10.204,14.817,9.843,14.592,9.681z"/>
<g>
</g>
<g>
</g>
<g>
</g>
<g>
</g>
<g>
</g>
<g>
</g>
<g>
</g>
<g>
</g>
<g>
</g>
<g>
</g>
<g>
</g>
<g>
</g>
<g>
</g>
<g>
</g>
<g>
</g>
</svg>
