<?xml version="1.0" encoding="iso-8859-1"?>
<!-- Generator: Adobe Illustrator 16.0.0, SVG Export Plug-In . SVG Version: 6.00 Build 0)  -->
<!DOCTYPE svg PUBLIC "-//W3C//DTD SVG 1.1//EN" "http://www.w3.org/Graphics/SVG/1.1/DTD/svg11.dtd">
<svg version="1.1" id="Layer_1" xmlns="http://www.w3.org/2000/svg" xmlns:xlink="http://www.w3.org/1999/xlink" x="0px" y="0px"
	 width="16px" height="16px" viewBox="0 0 16 16" style="enable-background:new 0 0 16 16;" xml:space="preserve">
<path id="Align_Bottom_1" d="M16,1c0-0.553-0.448-1-1-1H1C0.448,0,0,0.447,0,1v14c0,0.553,0.448,1,1,1h14c0.552,0,1-0.447,1-1V1z
	 M7,11.5C7,11.776,6.776,12,6.5,12h-1C5.224,12,5,11.776,5,11.5v-5C5,6.224,5.224,6,5.5,6h1C6.776,6,7,6.224,7,6.5V11.5z M11,11.5
	c0,0.276-0.224,0.5-0.5,0.5h-1C9.224,12,9,11.776,9,11.5v-3C9,8.224,9.224,8,9.5,8h1C10.776,8,11,8.224,11,8.5V11.5z"/>
<g>
</g>
<g>
</g>
<g>
</g>
<g>
</g>
<g>
</g>
<g>
</g>
<g>
</g>
<g>
</g>
<g>
</g>
<g>
</g>
<g>
</g>
<g>
</g>
<g>
</g>
<g>
</g>
<g>
</g>
</svg>
