<?xml version="1.0" encoding="iso-8859-1"?>
<!-- Generator: Adobe Illustrator 16.0.0, SVG Export Plug-In . SVG Version: 6.00 Build 0)  -->
<!DOCTYPE svg PUBLIC "-//W3C//DTD SVG 1.1//EN" "http://www.w3.org/Graphics/SVG/1.1/DTD/svg11.dtd">
<svg version="1.1" id="Layer_1" xmlns="http://www.w3.org/2000/svg" xmlns:xlink="http://www.w3.org/1999/xlink" x="0px" y="0px"
	 width="16px" height="16px" viewBox="0 0 16 16" style="enable-background:new 0 0 16 16;" xml:space="preserve">
<path id="Align_Horizontally_1" d="M16,1c0-0.553-0.448-1-1-1H1C0.448,0,0,0.447,0,1v14c0,0.553,0.448,1,1,1h14c0.552,0,1-0.447,1-1
	V1z M7,10.5C7,10.776,6.776,11,6.5,11h-1C5.224,11,5,10.776,5,10.5v-5C5,5.224,5.224,5,5.5,5h1C6.776,5,7,5.224,7,5.5V10.5z M11,9.5
	c0,0.276-0.224,0.5-0.5,0.5h-1C9.224,10,9,9.776,9,9.5v-3C9,6.224,9.224,6,9.5,6h1C10.776,6,11,6.224,11,6.5V9.5z"/>
<g>
</g>
<g>
</g>
<g>
</g>
<g>
</g>
<g>
</g>
<g>
</g>
<g>
</g>
<g>
</g>
<g>
</g>
<g>
</g>
<g>
</g>
<g>
</g>
<g>
</g>
<g>
</g>
<g>
</g>
</svg>
