<?xml version="1.0" encoding="iso-8859-1"?>
<!-- Generator: Adobe Illustrator 16.0.0, SVG Export Plug-In . SVG Version: 6.00 Build 0)  -->
<!DOCTYPE svg PUBLIC "-//W3C//DTD SVG 1.1//EN" "http://www.w3.org/Graphics/SVG/1.1/DTD/svg11.dtd">
<svg version="1.1" id="Layer_1" xmlns="http://www.w3.org/2000/svg" xmlns:xlink="http://www.w3.org/1999/xlink" x="0px" y="0px"
	 width="14px" height="16px" viewBox="0 0 14 16" style="enable-background:new 0 0 14 16;" xml:space="preserve">
<path id="Article_2" d="M13,0H1C0.447,0,0,0.447,0,1v14c0,0.553,0.447,1,1,1h12c0.553,0,1-0.447,1-1V1C14,0.447,13.553,0,13,0z
	 M10,11.5c0,0.276-0.224,0.5-0.5,0.5h-5C4.224,12,4,11.776,4,11.5v-1C4,10.224,4.224,10,4.5,10h5c0.276,0,0.5,0.224,0.5,0.5V11.5z
	 M10,8.5C10,8.776,9.776,9,9.5,9h-5C4.224,9,4,8.776,4,8.5v-1C4,7.224,4.224,7,4.5,7h5C9.776,7,10,7.224,10,7.5V8.5z M10,5.5
	C10,5.776,9.776,6,9.5,6h-5C4.224,6,4,5.776,4,5.5v-1C4,4.224,4.224,4,4.5,4h5C9.776,4,10,4.224,10,4.5V5.5z"/>
<g>
</g>
<g>
</g>
<g>
</g>
<g>
</g>
<g>
</g>
<g>
</g>
<g>
</g>
<g>
</g>
<g>
</g>
<g>
</g>
<g>
</g>
<g>
</g>
<g>
</g>
<g>
</g>
<g>
</g>
</svg>
