<?xml version="1.0" encoding="iso-8859-1"?>
<!-- Generator: Adobe Illustrator 16.0.0, SVG Export Plug-In . SVG Version: 6.00 Build 0)  -->
<!DOCTYPE svg PUBLIC "-//W3C//DTD SVG 1.1//EN" "http://www.w3.org/Graphics/SVG/1.1/DTD/svg11.dtd">
<svg version="1.1" id="Layer_1" xmlns="http://www.w3.org/2000/svg" xmlns:xlink="http://www.w3.org/1999/xlink" x="0px" y="0px"
	 width="16px" height="12px" viewBox="0 0 16 12" style="enable-background:new 0 0 16 12;" xml:space="preserve">
<path id="Backspace_1" style="fill-rule:evenodd;clip-rule:evenodd;" d="M14.974,0H6.761C6.193,0,5.409,0.234,5.009,0.636
	L0.301,5.255c-0.401,0.4-0.401,1.03,0,1.431l4.708,4.668C5.409,11.756,6.193,12,6.761,12h8.213C15.541,12,16,11.7,16,11.133V0.867
	C16,0.3,15.541,0,14.974,0z M12.868,7.594c0.176,0.177,0.176,0.461,0,0.637l-0.637,0.638c-0.176,0.176-0.461,0.176-0.637,0L10,7.274
	L8.407,8.868c-0.176,0.176-0.461,0.176-0.638,0L7.132,8.23c-0.176-0.176-0.176-0.46,0-0.637L8.727,6L7.132,4.406
	c-0.176-0.176-0.176-0.461,0-0.637L7.77,3.132c0.177-0.176,0.462-0.176,0.638,0L10,4.726l1.595-1.594
	c0.176-0.176,0.461-0.176,0.637,0l0.637,0.638c0.176,0.176,0.176,0.461,0,0.637L11.275,6L12.868,7.594z"/>
<g>
</g>
<g>
</g>
<g>
</g>
<g>
</g>
<g>
</g>
<g>
</g>
<g>
</g>
<g>
</g>
<g>
</g>
<g>
</g>
<g>
</g>
<g>
</g>
<g>
</g>
<g>
</g>
<g>
</g>
</svg>
