<?xml version="1.0" encoding="iso-8859-1"?>
<!-- Generator: Adobe Illustrator 16.0.0, SVG Export Plug-In . SVG Version: 6.00 Build 0)  -->
<!DOCTYPE svg PUBLIC "-//W3C//DTD SVG 1.1//EN" "http://www.w3.org/Graphics/SVG/1.1/DTD/svg11.dtd">
<svg version="1.1" id="Layer_1" xmlns="http://www.w3.org/2000/svg" xmlns:xlink="http://www.w3.org/1999/xlink" x="0px" y="0px"
	 width="17px" height="11px" viewBox="0 0 17 11" style="enable-background:new 0 0 17 11;" xml:space="preserve">
<path id="Battery_Charging_1" style="fill-rule:evenodd;clip-rule:evenodd;" d="M16,3h-1V1c0-0.553-0.447-1-1-1H1
	C0.448,0,0,0.447,0,1v9c0,0.553,0.448,1,1,1h13c0.553,0,1-0.447,1-1V8h1c0.553,0,1-0.447,1-1V4C17,3.447,16.553,3,16,3z M12,5h-2v1
	h2v1h-2v1H9.5H8C7.447,8,7,7.5,7,7.224C7,7.039,7,7.005,7,7H3V4h4c0-0.276,0.447-1,1-1h1.5H10v1h2V5z"/>
<g>
</g>
<g>
</g>
<g>
</g>
<g>
</g>
<g>
</g>
<g>
</g>
<g>
</g>
<g>
</g>
<g>
</g>
<g>
</g>
<g>
</g>
<g>
</g>
<g>
</g>
<g>
</g>
<g>
</g>
</svg>
