<?xml version="1.0" encoding="iso-8859-1"?>
<!-- Generator: Adobe Illustrator 16.0.0, SVG Export Plug-In . SVG Version: 6.00 Build 0)  -->
<!DOCTYPE svg PUBLIC "-//W3C//DTD SVG 1.1//EN" "http://www.w3.org/Graphics/SVG/1.1/DTD/svg11.dtd">
<svg version="1.1" id="Layer_1" xmlns="http://www.w3.org/2000/svg" xmlns:xlink="http://www.w3.org/1999/xlink" x="0px" y="0px"
	 width="13.952px" height="15.826px" viewBox="0 0 13.952 15.826" style="enable-background:new 0 0 13.952 15.826;"
	 xml:space="preserve">
<g id="Bell_2_x2C__Notification_2">
	<path d="M13.813,9.077c-0.265-0.757-0.867-1.319-1.704-1.674c-0.447-0.189-0.966-0.64-1.126-1.1L10.27,4.253
		C9.461,1.93,7.184,0.534,4.839,0.731c-0.241,0.021-0.501-0.131-0.581-0.36L4.232,0.296c-0.08-0.229-0.331-0.351-0.561-0.271
		l-0.831,0.29C2.611,0.394,2.49,0.646,2.569,0.875L2.596,0.95c0.08,0.229-0.029,0.509-0.232,0.643
		c-1.96,1.302-2.878,3.81-2.069,6.133l0.714,2.051c0.16,0.459,0.032,1.135-0.2,1.562c-0.435,0.797-0.559,1.612-0.296,2.369
		c0.743,2.133,4.161,2.745,7.953,1.427C12.256,13.813,14.555,11.21,13.813,9.077z M7.886,13.47
		c-3.091,1.076-5.409,0.526-5.712-0.342c-0.301-0.867,1.175-2.738,4.265-3.814c3.092-1.075,5.41-0.525,5.711,0.342
		C12.452,10.524,10.977,12.395,7.886,13.47z"/>
	<path d="M8.238,9.872c-0.479,0.084-0.972,0.213-1.473,0.389c-1.244,0.43-2.111,0.961-2.68,1.438
		c-0.084,0.071-0.101,0.206-0.031,0.292c0.459,0.57,1.163,0.939,1.951,0.939h0.07c0.38-0.01,0.739-0.109,1.06-0.27
		c0.811-0.41,1.37-1.26,1.37-2.23c0-0.133-0.009-0.265-0.029-0.395C8.459,9.927,8.348,9.854,8.238,9.872z"/>
</g>
<g>
</g>
<g>
</g>
<g>
</g>
<g>
</g>
<g>
</g>
<g>
</g>
<g>
</g>
<g>
</g>
<g>
</g>
<g>
</g>
<g>
</g>
<g>
</g>
<g>
</g>
<g>
</g>
<g>
</g>
</svg>
