<?xml version="1.0" encoding="iso-8859-1"?>
<!-- Generator: Adobe Illustrator 16.0.0, SVG Export Plug-In . SVG Version: 6.00 Build 0)  -->
<!DOCTYPE svg PUBLIC "-//W3C//DTD SVG 1.1//EN" "http://www.w3.org/Graphics/SVG/1.1/DTD/svg11.dtd">
<svg version="1.1" id="Layer_1" xmlns="http://www.w3.org/2000/svg" xmlns:xlink="http://www.w3.org/1999/xlink" x="0px" y="0px"
	 width="16px" height="14.001px" viewBox="0 0 16 14.001" style="enable-background:new 0 0 16 14.001;" xml:space="preserve">
<path id="Binoculars_1_x2C__View_5" d="M15.887,9.459l-1.674-7.526C14.096,1.405,13.553,0.979,13,0.979C13,0.438,12.553,0,12,0h-1
	c-0.553,0-1,0.438-1,0.979c-0.553,0-1,0.437-1,0.977V4H7V1.955c0-0.54-0.447-0.977-1-0.977C6,0.438,5.553,0,5,0H4
	C3.447,0,3,0.438,3,0.979c-0.553,0-1.095,0.427-1.212,0.954L0.133,9.396C0.055,9.681,0,9.974,0,10.281c0,1.891,1.57,3.72,3.5,3.72
	C5.381,14.001,6.909,13,6.985,11H7V8h2v3h0.015c0.076,2,1.604,3,3.485,3c1.93,0,3.5-1.683,3.5-3.573
	C16,10.142,15.954,9.724,15.887,9.459z M3.5,11.997c-0.827,0-1.5-0.673-1.5-1.5s0.673-1.5,1.5-1.5S5,9.67,5,10.497
	S4.327,11.997,3.5,11.997z M12.5,11.997c-0.827,0-1.5-0.673-1.5-1.5s0.673-1.5,1.5-1.5s1.5,0.673,1.5,1.5S13.327,11.997,12.5,11.997
	z"/>
<g>
</g>
<g>
</g>
<g>
</g>
<g>
</g>
<g>
</g>
<g>
</g>
<g>
</g>
<g>
</g>
<g>
</g>
<g>
</g>
<g>
</g>
<g>
</g>
<g>
</g>
<g>
</g>
<g>
</g>
</svg>
