<?xml version="1.0" encoding="iso-8859-1"?>
<!-- Generator: Adobe Illustrator 16.0.0, SVG Export Plug-In . SVG Version: 6.00 Build 0)  -->
<!DOCTYPE svg PUBLIC "-//W3C//DTD SVG 1.1//EN" "http://www.w3.org/Graphics/SVG/1.1/DTD/svg11.dtd">
<svg version="1.1" id="Layer_1" xmlns="http://www.w3.org/2000/svg" xmlns:xlink="http://www.w3.org/1999/xlink" x="0px" y="0px"
	 width="11.004px" height="16px" viewBox="0 0 11.004 16" style="enable-background:new 0 0 11.004 16;" xml:space="preserve">
<path id="Bluetooth_1" d="M10.787,3.811L4.718,0.119C4.267-0.152,3.982,0.055,3.982,0.582v5.507L1.606,4.371
	C1.185,4.054,0.546,4.14,0.229,4.562C-0.087,4.982-0.022,5.582,0.4,5.898l2.791,2.101l-2.808,2.103
	c-0.422,0.315-0.509,0.914-0.193,1.337c0.188,0.25,0.474,0.382,0.764,0.382c0.199,0,0.481-0.062,0.653-0.19l2.375-1.721v5.508
	c0,0.527,0.284,0.735,0.735,0.464l6.112-3.691c0.237-0.143,0.224-0.397,0.009-0.57c-1.156-0.928-4.495-3.6-4.469-3.62
	c-0.026-0.021,3.306-2.694,4.464-3.62C11.049,4.206,11.024,3.952,10.787,3.811z M5.982,3.001l2.151,1.291L5.982,6.013V3.001z
	 M8.133,11.708l-2.151,1.291V9.987L8.133,11.708z"/>
<g>
</g>
<g>
</g>
<g>
</g>
<g>
</g>
<g>
</g>
<g>
</g>
<g>
</g>
<g>
</g>
<g>
</g>
<g>
</g>
<g>
</g>
<g>
</g>
<g>
</g>
<g>
</g>
<g>
</g>
</svg>
