<?xml version="1.0" encoding="iso-8859-1"?>
<!-- Generator: Adobe Illustrator 16.0.0, SVG Export Plug-In . SVG Version: 6.00 Build 0)  -->
<!DOCTYPE svg PUBLIC "-//W3C//DTD SVG 1.1//EN" "http://www.w3.org/Graphics/SVG/1.1/DTD/svg11.dtd">
<svg version="1.1" id="Layer_1" xmlns="http://www.w3.org/2000/svg" xmlns:xlink="http://www.w3.org/1999/xlink" x="0px" y="0px"
	 width="14px" height="16px" viewBox="0 0 14 16" style="enable-background:new 0 0 14 16;" xml:space="preserve">
<path id="Book_6" d="M13.01,0h-10C1.35,0,0,1.34,0,3v10c0,1.66,1.35,3,3.01,3h10c0.553,0,0.99-0.447,0.99-1v-4V1
	C14,0.447,13.562,0,13.01,0z M11,4.5C11,4.776,10.776,5,10.5,5h-6C4.224,5,4,4.776,4,4.5v-1C4,3.224,4.224,3,4.5,3h6
	C10.776,3,11,3.224,11,3.5V4.5z M11,7.5C11,7.776,10.776,8,10.5,8h-6C4.224,8,4,7.776,4,7.5v-1C4,6.224,4.224,6,4.5,6h6
	C10.776,6,11,6.224,11,6.5V7.5z M12,14H3.01c-0.55,0-1-0.45-1-1s0.45-1,1-1h1H12V14z"/>
<g>
</g>
<g>
</g>
<g>
</g>
<g>
</g>
<g>
</g>
<g>
</g>
<g>
</g>
<g>
</g>
<g>
</g>
<g>
</g>
<g>
</g>
<g>
</g>
<g>
</g>
<g>
</g>
<g>
</g>
</svg>
