<?xml version="1.0" encoding="iso-8859-1"?>
<!-- Generator: Adobe Illustrator 16.0.0, SVG Export Plug-In . SVG Version: 6.00 Build 0)  -->
<!DOCTYPE svg PUBLIC "-//W3C//DTD SVG 1.1//EN" "http://www.w3.org/Graphics/SVG/1.1/DTD/svg11.dtd">
<svg version="1.1" id="Layer_1" xmlns="http://www.w3.org/2000/svg" xmlns:xlink="http://www.w3.org/1999/xlink" x="0px" y="0px"
	 width="14px" height="16px" viewBox="0 0 14 16" style="enable-background:new 0 0 14 16;" xml:space="preserve">
<path id="Book_3" d="M13,0h-1.5C11.224,0,11,0.224,11,0.5v6.229c0,0.277-0.174,0.359-0.389,0.186L9.5,5.787L8.389,6.914
	C8.174,7.088,8,7.006,8,6.729V1c0-0.553-0.447-1-1-1H3C1.34,0,0,1.34,0,3v10c0,1.66,1.34,3,3,3h10c0.553,0,1-0.447,1-1v-0.5
	c0-0.276-0.224-0.5-0.5-0.5H3c-0.55,0-1-0.45-1-1s0.45-1,1-1h10c0.553,0,1-0.447,1-1V1C14,0.447,13.553,0,13,0z"/>
<g>
</g>
<g>
</g>
<g>
</g>
<g>
</g>
<g>
</g>
<g>
</g>
<g>
</g>
<g>
</g>
<g>
</g>
<g>
</g>
<g>
</g>
<g>
</g>
<g>
</g>
<g>
</g>
<g>
</g>
</svg>
