<?xml version="1.0" encoding="iso-8859-1"?>
<!-- Generator: Adobe Illustrator 16.0.0, SVG Export Plug-In . SVG Version: 6.00 Build 0)  -->
<!DOCTYPE svg PUBLIC "-//W3C//DTD SVG 1.1//EN" "http://www.w3.org/Graphics/SVG/1.1/DTD/svg11.dtd">
<svg version="1.1" id="Layer_1" xmlns="http://www.w3.org/2000/svg" xmlns:xlink="http://www.w3.org/1999/xlink" x="0px" y="0px"
	 width="14px" height="16px" viewBox="0 0 14 16" style="enable-background:new 0 0 14 16;" xml:space="preserve">
<path id="Book_1" d="M13,0H3C1.34,0,0,1.34,0,3v10c0,1.66,1.34,3,3,3h10c0.553,0,1-0.447,1-1V5c0-0.553-0.447-1-1-1h-1.5
	C11.224,4,11,4.224,11,4.5v5.291c0,0.277-0.174,0.359-0.389,0.186L9.5,8.787L8.389,9.936C8.174,10.109,8,10.026,8,9.75V5
	c0-0.553-0.447-1-1-1H3C2.45,4,2,3.55,2,3s0.45-1,1-1h10.5C13.776,2,14,1.776,14,1.5V1C14,0.447,13.553,0,13,0z"/>
<g>
</g>
<g>
</g>
<g>
</g>
<g>
</g>
<g>
</g>
<g>
</g>
<g>
</g>
<g>
</g>
<g>
</g>
<g>
</g>
<g>
</g>
<g>
</g>
<g>
</g>
<g>
</g>
<g>
</g>
</svg>
