<?xml version="1.0" encoding="iso-8859-1"?>
<!-- Generator: Adobe Illustrator 16.0.0, SVG Export Plug-In . SVG Version: 6.00 Build 0)  -->
<!DOCTYPE svg PUBLIC "-//W3C//DTD SVG 1.1//EN" "http://www.w3.org/Graphics/SVG/1.1/DTD/svg11.dtd">
<svg version="1.1" id="Layer_1" xmlns="http://www.w3.org/2000/svg" xmlns:xlink="http://www.w3.org/1999/xlink" x="0px" y="0px"
	 width="14px" height="16px" viewBox="0 0 14 16" style="enable-background:new 0 0 14 16;" xml:space="preserve">
<path id="Book_5" d="M11,0v5.656c0,0.276-0.187,0.376-0.416,0.223L9.5,4.787L8.416,5.879C8.187,6.032,8,5.933,8,5.656V0H3
	C1.34,0,0,1.34,0,3v10c0,1.66,1.34,3,3,3h10c0.553,0,1-0.447,1-1V1c0-0.553-0.447-1-1-1H11z M3,14c-0.55,0-1-0.45-1-1s0.45-1,1-1h9
	v2H3z"/>
<g>
</g>
<g>
</g>
<g>
</g>
<g>
</g>
<g>
</g>
<g>
</g>
<g>
</g>
<g>
</g>
<g>
</g>
<g>
</g>
<g>
</g>
<g>
</g>
<g>
</g>
<g>
</g>
<g>
</g>
</svg>
