<?xml version="1.0" encoding="iso-8859-1"?>
<!-- Generator: Adobe Illustrator 16.0.0, SVG Export Plug-In . SVG Version: 6.00 Build 0)  -->
<!DOCTYPE svg PUBLIC "-//W3C//DTD SVG 1.1//EN" "http://www.w3.org/Graphics/SVG/1.1/DTD/svg11.dtd">
<svg version="1.1" id="Layer_1" xmlns="http://www.w3.org/2000/svg" xmlns:xlink="http://www.w3.org/1999/xlink" x="0px" y="0px"
	 width="18px" height="16px" viewBox="0 0 18 16" style="enable-background:new 0 0 18 16;" xml:space="preserve">
<path id="bucket_1" d="M10.5,0C6.888,0,3,1.096,3,3.5c0,0.035,0.009,0.066,0.011,0.102C1.162,4.384,0,5.854,0,7.5
	c0,1.846,1.457,3.479,3.689,4.15C4.397,11.883,5.175,12,6,12c2.16,0,4.001-0.824,5.054-2.075C10.445,9.734,10,9.172,10,8.5
	C10,7.672,10.672,7,11.5,7S13,7.672,13,8.5c0,0.547-0.296,1.021-0.733,1.283c-0.591,1.77-3.332,3.479-6.276,3.471
	C5.283,13.252,4.617,13.061,4,12.869V13c-0.004,1.38,2.889,2.988,6.482,3c3.594,0.01,6.514-1.62,6.518-3V5.367
	c0.625-0.501,1-1.121,1-1.867C18,1.096,14.112,0,10.5,0z M2,7.5c0-0.857,0.789-1.687,1.986-2.135l0.008,4.271
	C2.793,9.189,2,8.359,2,7.5z M10.5,5C7.075,5,5.065,3.934,5,3.502C5.065,3.066,7.075,2,10.5,2s5.435,1.066,5.5,1.498
	C15.935,3.934,13.925,5,10.5,5z"/>
<g>
</g>
<g>
</g>
<g>
</g>
<g>
</g>
<g>
</g>
<g>
</g>
<g>
</g>
<g>
</g>
<g>
</g>
<g>
</g>
<g>
</g>
<g>
</g>
<g>
</g>
<g>
</g>
<g>
</g>
</svg>
