<?xml version="1.0" encoding="iso-8859-1"?>
<!-- Generator: Adobe Illustrator 16.0.0, SVG Export Plug-In . SVG Version: 6.00 Build 0)  -->
<!DOCTYPE svg PUBLIC "-//W3C//DTD SVG 1.1//EN" "http://www.w3.org/Graphics/SVG/1.1/DTD/svg11.dtd">
<svg version="1.1" id="Layer_1" xmlns="http://www.w3.org/2000/svg" xmlns:xlink="http://www.w3.org/1999/xlink" x="0px" y="0px"
	 width="16px" height="16px" viewBox="0 0 16 16" style="enable-background:new 0 0 16 16;" xml:space="preserve">
<path id="Bucket_2" d="M16,3.5C16,1.096,11.854,0,8,0S0,1.096,0,3.5c0,0.719,0.377,1.319,1,1.811V12.5C1,14.798,4.521,16,8,16
	s7-1.202,7-3.5V5.311C15.623,4.819,16,4.219,16,3.5z M8,2c3.845,0,5.878,1.1,6.002,1.482C13.878,3.9,11.845,5,8,5
	S2.122,3.9,1.998,3.518C2.122,3.1,4.155,2,8,2z"/>
<g>
</g>
<g>
</g>
<g>
</g>
<g>
</g>
<g>
</g>
<g>
</g>
<g>
</g>
<g>
</g>
<g>
</g>
<g>
</g>
<g>
</g>
<g>
</g>
<g>
</g>
<g>
</g>
<g>
</g>
</svg>
