<?xml version="1.0" encoding="iso-8859-1"?>
<!-- Generator: Adobe Illustrator 16.0.0, SVG Export Plug-In . SVG Version: 6.00 Build 0)  -->
<!DOCTYPE svg PUBLIC "-//W3C//DTD SVG 1.1//EN" "http://www.w3.org/Graphics/SVG/1.1/DTD/svg11.dtd">
<svg version="1.1" id="Layer_1" xmlns="http://www.w3.org/2000/svg" xmlns:xlink="http://www.w3.org/1999/xlink" x="0px" y="0px"
	 width="16px" height="16px" viewBox="0 0 16 16" style="enable-background:new 0 0 16 16;" xml:space="preserve">
<path id="Building_1_x2C__City_1" d="M15,3H9V1c0-0.553-0.447-1-1-1H1C0.447,0,0,0.447,0,1v14c0,0.553,0.447,1,1,1h7h7
	c0.553,0,1-0.447,1-1V4C16,3.447,15.553,3,15,3z M4,10H2V8h2V10z M4,7H2V5h2V7z M4,4H2V2h2V4z M7,10H5V8h2V10z M7,7H5V5h2V7z M7,4H5
	V2h2V4z M11,10H9V8h2V10z M11,7H9V5h2V7z M14,10h-2V8h2V10z M14,7h-2V5h2V7z"/>
<g>
</g>
<g>
</g>
<g>
</g>
<g>
</g>
<g>
</g>
<g>
</g>
<g>
</g>
<g>
</g>
<g>
</g>
<g>
</g>
<g>
</g>
<g>
</g>
<g>
</g>
<g>
</g>
<g>
</g>
</svg>
