<?xml version="1.0" encoding="iso-8859-1"?>
<!-- Generator: Adobe Illustrator 16.0.0, SVG Export Plug-In . SVG Version: 6.00 Build 0)  -->
<!DOCTYPE svg PUBLIC "-//W3C//DTD SVG 1.1//EN" "http://www.w3.org/Graphics/SVG/1.1/DTD/svg11.dtd">
<svg version="1.1" id="Layer_1" xmlns="http://www.w3.org/2000/svg" xmlns:xlink="http://www.w3.org/1999/xlink" x="0px" y="0px"
	 width="16px" height="16px" viewBox="0 0 16 16" style="enable-background:new 0 0 16 16;" xml:space="preserve">
<g id="Calendar_1">
	<path d="M3.5,2h1C4.776,2,5,1.776,5,1.5v-1C5,0.224,4.776,0,4.5,0h-1C3.224,0,3,0.224,3,0.5v1C3,1.776,3.224,2,3.5,2z"/>
	<path d="M11.5,2h1C12.776,2,13,1.776,13,1.5v-1C13,0.224,12.776,0,12.5,0h-1C11.224,0,11,0.224,11,0.5v1C11,1.776,11.224,2,11.5,2z
		"/>
	<path d="M16,5V1c0-0.553-0.448-1-1-1h-0.5C14.224,0,14,0.224,14,0.5v2C14,2.776,13.776,3,13.5,3h-3C10.224,3,10,2.776,10,2.5v-2
		C10,0.224,9.776,0,9.5,0h-3C6.224,0,6,0.224,6,0.5v2C6,2.776,5.776,3,5.5,3h-3C2.224,3,2,2.776,2,2.5v-2C2,0.224,1.776,0,1.5,0H1
		C0.448,0,0,0.447,0,1v4H16z"/>
	<path d="M0,7v8c0,0.553,0.448,1,1,1h14c0.552,0,1-0.447,1-1V7H0z"/>
</g>
<g>
</g>
<g>
</g>
<g>
</g>
<g>
</g>
<g>
</g>
<g>
</g>
<g>
</g>
<g>
</g>
<g>
</g>
<g>
</g>
<g>
</g>
<g>
</g>
<g>
</g>
<g>
</g>
<g>
</g>
</svg>
