<?xml version="1.0" encoding="iso-8859-1"?>
<!-- Generator: Adobe Illustrator 16.0.0, SVG Export Plug-In . SVG Version: 6.00 Build 0)  -->
<!DOCTYPE svg PUBLIC "-//W3C//DTD SVG 1.1//EN" "http://www.w3.org/Graphics/SVG/1.1/DTD/svg11.dtd">
<svg version="1.1" id="Layer_1" xmlns="http://www.w3.org/2000/svg" xmlns:xlink="http://www.w3.org/1999/xlink" x="0px" y="0px"
	 width="16px" height="16px" viewBox="0 0 16 16" style="enable-background:new 0 0 16 16;" xml:space="preserve">
<path id="Calendar_5" d="M14.9,1H13V0.5C13,0.224,12.676,0,12.4,0h-1C11.123,0,11,0.224,11,0.5V1H9V0.5C9,0.224,8.776,0,8.5,0h-1
	C7.224,0,7,0.224,7,0.5V1H5V0.5C5,0.224,4.877,0,4.6,0h-1C3.324,0,3,0.224,3,0.5V1H1.1C0.548,1,0,1.447,0,2v13
	c0,0.553,0.548,1,1.1,1H14.9c0.552,0,1.1-0.447,1.1-1V2C16,1.447,15.452,1,14.9,1z M5,14H3v-2h2V14z M5,10H3V8h2V10z M9,14H7v-2h2
	V14z M9,10H7V8h2V10z M13,14h-2v-2h2V14z M13,10h-2V8h2V10z M14,6H2V3h1v0.5C3,3.776,3.324,4,3.6,4h1C4.877,4,5,3.776,5,3.5V3h2v0.5
	C7,3.776,7.224,4,7.5,4h1C8.776,4,9,3.776,9,3.5V3h2v0.5C11,3.776,11.123,4,11.4,4h1C12.676,4,13,3.776,13,3.5V3h1V6z"/>
<g>
</g>
<g>
</g>
<g>
</g>
<g>
</g>
<g>
</g>
<g>
</g>
<g>
</g>
<g>
</g>
<g>
</g>
<g>
</g>
<g>
</g>
<g>
</g>
<g>
</g>
<g>
</g>
<g>
</g>
</svg>
