<?xml version="1.0" encoding="iso-8859-1"?>
<!-- Generator: Adobe Illustrator 16.0.0, SVG Export Plug-In . SVG Version: 6.00 Build 0)  -->
<!DOCTYPE svg PUBLIC "-//W3C//DTD SVG 1.1//EN" "http://www.w3.org/Graphics/SVG/1.1/DTD/svg11.dtd">
<svg version="1.1" id="Layer_1" xmlns="http://www.w3.org/2000/svg" xmlns:xlink="http://www.w3.org/1999/xlink" x="0px" y="0px"
	 width="16px" height="16px" viewBox="0 0 16 16" style="enable-background:new 0 0 16 16;" xml:space="preserve">
<g id="Calendar_4">
	<path d="M3.5,2h1C4.776,2,5,1.776,5,1.5v-1C5,0.224,4.776,0,4.5,0h-1C3.224,0,3,0.224,3,0.5v1C3,1.776,3.224,2,3.5,2z"/>
	<path d="M11.5,2h1C12.776,2,13,1.776,13,1.5v-1C13,0.224,12.776,0,12.5,0h-1C11.224,0,11,0.224,11,0.5v1C11,1.776,11.224,2,11.5,2z
		"/>
	<path d="M0,15c0,0.553,0.447,1,1,1h14c0.553,0,1-0.447,1-1V5H0V15z M6,8.5C6,8.224,6.224,8,6.5,8h6C12.776,8,13,8.224,13,8.5v1
		c0,0.276-0.224,0.5-0.5,0.5h-6C6.224,10,6,9.776,6,9.5V8.5z M6,11.5C6,11.224,6.224,11,6.5,11h6c0.276,0,0.5,0.224,0.5,0.5v1
		c0,0.276-0.224,0.5-0.5,0.5h-6C6.224,13,6,12.776,6,12.5V11.5z M3,8.5C3,8.224,3.224,8,3.5,8h1C4.776,8,5,8.224,5,8.5v1
		C5,9.776,4.776,10,4.5,10h-1C3.224,10,3,9.776,3,9.5V8.5z M3,11.5C3,11.224,3.224,11,3.5,11h1C4.776,11,5,11.224,5,11.5v1
		C5,12.776,4.776,13,4.5,13h-1C3.224,13,3,12.776,3,12.5V11.5z"/>
	<path d="M15,0h-0.5C14.224,0,14,0.224,14,0.5v2C14,2.776,13.776,3,13.5,3h-3C10.224,3,10,2.776,10,2.5v-2C10,0.224,9.776,0,9.5,0
		h-3C6.224,0,6,0.224,6,0.5v2C6,2.776,5.776,3,5.5,3h-3C2.224,3,2,2.776,2,2.5v-2C2,0.224,1.776,0,1.5,0H1C0.447,0,0,0.447,0,1v3h16
		V1C16,0.447,15.553,0,15,0z"/>
</g>
<g>
</g>
<g>
</g>
<g>
</g>
<g>
</g>
<g>
</g>
<g>
</g>
<g>
</g>
<g>
</g>
<g>
</g>
<g>
</g>
<g>
</g>
<g>
</g>
<g>
</g>
<g>
</g>
<g>
</g>
</svg>
