<?xml version="1.0" encoding="iso-8859-1"?>
<!-- Generator: Adobe Illustrator 16.0.0, SVG Export Plug-In . SVG Version: 6.00 Build 0)  -->
<!DOCTYPE svg PUBLIC "-//W3C//DTD SVG 1.1//EN" "http://www.w3.org/Graphics/SVG/1.1/DTD/svg11.dtd">
<svg version="1.1" id="Layer_1" xmlns="http://www.w3.org/2000/svg" xmlns:xlink="http://www.w3.org/1999/xlink" x="0px" y="0px"
	 width="15px" height="16px" viewBox="0 0 15 16" style="enable-background:new 0 0 15 16;" xml:space="preserve">
<g id="Call_3_x2C__Phone_3">
	<path d="M5,0H2.499c-0.276,0-0.613,0.193-0.74,0.439C0.638,2.598,0,5.447,0,8c0,2.552,0.638,5.402,1.76,7.561
		C1.887,15.806,2.224,16,2.5,16H5c0.553,0,1-0.447,1-1v-2c0-0.553-0.447-1-1-1H4c-0.552,0-1-0.448-1-1V5c0-0.552,0.447-1,1-1h1
		c0.552,0,1-0.448,1-1V1C6,0.448,5.553,0,5,0z"/>
	<path d="M9.672,5.029c-0.206-0.184-0.55-0.15-0.745,0.045L8.174,5.826C7.979,6.021,8.031,6.268,8.246,6.44C8.703,6.806,9,7.369,9,8
		S8.703,9.194,8.246,9.56c-0.215,0.173-0.268,0.419-0.072,0.614l0.753,0.752c0.195,0.195,0.54,0.229,0.745,0.045
		C10.488,10.241,11,9.18,11,8S10.488,5.759,9.672,5.029z"/>
	<path d="M14.13,4.38c-0.414-0.819-0.963-1.56-1.625-2.181c-0.201-0.188-0.534-0.171-0.729,0.024l-0.713,0.713
		c-0.195,0.195-0.176,0.489,0.026,0.678C12.261,4.704,13,6.27,13,8s-0.739,3.296-1.911,4.386c-0.202,0.188-0.221,0.482-0.026,0.678
		l0.713,0.713c0.195,0.195,0.528,0.212,0.73,0.023c0.775-0.728,1.401-1.616,1.833-2.61C14.76,10.21,15,9.13,15,8
		C15,6.7,14.69,5.46,14.13,4.38z"/>
</g>
<g>
</g>
<g>
</g>
<g>
</g>
<g>
</g>
<g>
</g>
<g>
</g>
<g>
</g>
<g>
</g>
<g>
</g>
<g>
</g>
<g>
</g>
<g>
</g>
<g>
</g>
<g>
</g>
<g>
</g>
</svg>
