<?xml version="1.0" encoding="iso-8859-1"?>
<!-- Generator: Adobe Illustrator 16.0.0, SVG Export Plug-In . SVG Version: 6.00 Build 0)  -->
<!DOCTYPE svg PUBLIC "-//W3C//DTD SVG 1.1//EN" "http://www.w3.org/Graphics/SVG/1.1/DTD/svg11.dtd">
<svg version="1.1" id="Layer_1" xmlns="http://www.w3.org/2000/svg" xmlns:xlink="http://www.w3.org/1999/xlink" x="0px" y="0px"
	 width="16px" height="17px" viewBox="0 0 16 17" style="enable-background:new 0 0 16 17;" xml:space="preserve">
<g id="Camera_2">
	<path d="M15,3h-3V1c0-0.553-0.281-1-0.834-1h-6C4.613,0,4,0.447,4,1v2H1C0.447,3,0,3.447,0,4v12c0,0.553,0.447,1,1,1h14
		c0.553,0,1-0.447,1-1V4C16,3.447,15.553,3,15,3z M6,2h4v1H6V2z M8,14c-2.209,0-4-1.791-4-4s1.791-4,4-4s4,1.791,4,4S10.209,14,8,14
		z"/>
	<circle cx="8" cy="10" r="2"/>
</g>
<g>
</g>
<g>
</g>
<g>
</g>
<g>
</g>
<g>
</g>
<g>
</g>
<g>
</g>
<g>
</g>
<g>
</g>
<g>
</g>
<g>
</g>
<g>
</g>
<g>
</g>
<g>
</g>
<g>
</g>
</svg>
