<?xml version="1.0" encoding="iso-8859-1"?>
<!-- Generator: Adobe Illustrator 16.0.0, SVG Export Plug-In . SVG Version: 6.00 Build 0)  -->
<!DOCTYPE svg PUBLIC "-//W3C//DTD SVG 1.1//EN" "http://www.w3.org/Graphics/SVG/1.1/DTD/svg11.dtd">
<svg version="1.1" id="Layer_1" xmlns="http://www.w3.org/2000/svg" xmlns:xlink="http://www.w3.org/1999/xlink" x="0px" y="0px"
	 width="16px" height="15.952px" viewBox="0 0 16 15.952" style="enable-background:new 0 0 16 15.952;" xml:space="preserve">
<g id="Chat_3">
	<g>
		<g>
			<path d="M1,4C0.45,4,0,4.46,0,5.022V11c0,0.562,0.45,1,1,1h1v3.328c0,0.564,0.531,0.829,0.902,0.439L6.28,12H9
				c0.55,0,1-0.438,1-1V5.022C10,4.46,9.55,4,9,4H1z"/>
		</g>
	</g>
	<g>
		<path d="M7,0C6.45,0,6,0.46,6,1.022V3h4c0.553,0,1,0.448,1,1v5.428l2.098,2.339C13.469,12.156,14,11.892,14,11.328V8h1
			c0.55,0,1-0.438,1-1V1.022C16,0.46,15.55,0,15,0H7z"/>
	</g>
</g>
<g>
</g>
<g>
</g>
<g>
</g>
<g>
</g>
<g>
</g>
<g>
</g>
<g>
</g>
<g>
</g>
<g>
</g>
<g>
</g>
<g>
</g>
<g>
</g>
<g>
</g>
<g>
</g>
<g>
</g>
</svg>
