<?xml version="1.0" encoding="iso-8859-1"?>
<!-- Generator: Adobe Illustrator 16.0.0, SVG Export Plug-In . SVG Version: 6.00 Build 0)  -->
<!DOCTYPE svg PUBLIC "-//W3C//DTD SVG 1.1//EN" "http://www.w3.org/Graphics/SVG/1.1/DTD/svg11.dtd">
<svg version="1.1" id="Layer_1" xmlns="http://www.w3.org/2000/svg" xmlns:xlink="http://www.w3.org/1999/xlink" x="0px" y="0px"
	 width="14px" height="17px" viewBox="0 0 14 17" style="enable-background:new 0 0 14 17;" xml:space="preserve">
<g id="Clipboard_2_x2C__Copy_2">
	<path style="fill-rule:evenodd;clip-rule:evenodd;" d="M13,2h-2v2.048v0.5C11,4.825,10.776,5,10.5,5H4H3.5C3.224,5,3,4.825,3,4.548
		V2H1C0.447,2,0,2.496,0,3.048v13C0,16.601,0.447,17,1,17h12c0.553,0,1-0.399,1-0.952v-13C14,2.496,13.553,2,13,2z M11,14.5
		c0,0.276-0.224,0.5-0.5,0.5h-7C3.224,15,3,14.776,3,14.5v-1C3,13.224,3.224,13,3.5,13h7c0.276,0,0.5,0.224,0.5,0.5V14.5z M11,11.5
		c0,0.276-0.224,0.5-0.5,0.5h-7C3.224,12,3,11.776,3,11.5v-1C3,10.224,3.224,10,3.5,10h7c0.276,0,0.5,0.224,0.5,0.5V11.5z M11,8.5
		C11,8.776,10.776,9,10.5,9h-7C3.224,9,3,8.776,3,8.5v-1C3,7.224,3.224,7,3.5,7h7C10.776,7,11,7.224,11,7.5V8.5z"/>
	<path style="fill-rule:evenodd;clip-rule:evenodd;" d="M4.5,4h5C9.776,4,10,3.825,10,3.548v-1.5C10,1.465,9.729,1,9,1H8
		c0-1-0.447-1-1-1S6,0,6,1H5C4.354,1,4,1.465,4,2.048v1.5C4,3.825,4.224,4,4.5,4z"/>
</g>
<g>
</g>
<g>
</g>
<g>
</g>
<g>
</g>
<g>
</g>
<g>
</g>
<g>
</g>
<g>
</g>
<g>
</g>
<g>
</g>
<g>
</g>
<g>
</g>
<g>
</g>
<g>
</g>
<g>
</g>
</svg>
