<?xml version="1.0" encoding="iso-8859-1"?>
<!-- Generator: Adobe Illustrator 16.0.0, SVG Export Plug-In . SVG Version: 6.00 Build 0)  -->
<!DOCTYPE svg PUBLIC "-//W3C//DTD SVG 1.1//EN" "http://www.w3.org/Graphics/SVG/1.1/DTD/svg11.dtd">
<svg version="1.1" id="Layer_1" xmlns="http://www.w3.org/2000/svg" xmlns:xlink="http://www.w3.org/1999/xlink" x="0px" y="0px"
	 width="16px" height="16px" viewBox="0 0 16 16" style="enable-background:new 0 0 16 16;" xml:space="preserve">
<path id="Close_Browser_2" style="fill-rule:evenodd;clip-rule:evenodd;" d="M16,1c0-0.552-0.447-1-1-1H1C0.447,0,0,0.448,0,1v14
	c0,0.552,0.447,1,1,1h14c0.553,0,1-0.448,1-1V1z M4.008,2.5c0,0.276-0.224,0.5-0.5,0.5h-1c-0.276,0-0.5-0.224-0.5-0.5v-1
	c0-0.276,0.224-0.5,0.5-0.5h1c0.276,0,0.5,0.224,0.5,0.5V2.5z M10.858,10.439c0.195,0.195,0.195,0.512,0,0.707l-0.707,0.707
	c-0.195,0.195-0.512,0.195-0.707,0l-1.439-1.439l-1.434,1.434c-0.195,0.195-0.512,0.195-0.707,0l-0.707-0.707
	c-0.195-0.195-0.195-0.512,0-0.707L6.591,9L5.157,7.566c-0.195-0.195-0.195-0.512,0-0.707l0.707-0.707
	c0.195-0.195,0.512-0.195,0.707,0l1.434,1.434l1.439-1.439c0.195-0.195,0.512-0.195,0.707,0l0.707,0.707
	c0.195,0.195,0.195,0.512,0,0.707L9.419,9L10.858,10.439z"/>
<g>
</g>
<g>
</g>
<g>
</g>
<g>
</g>
<g>
</g>
<g>
</g>
<g>
</g>
<g>
</g>
<g>
</g>
<g>
</g>
<g>
</g>
<g>
</g>
<g>
</g>
<g>
</g>
<g>
</g>
</svg>
