<?xml version="1.0" encoding="iso-8859-1"?>
<!-- Generator: Adobe Illustrator 16.0.0, SVG Export Plug-In . SVG Version: 6.00 Build 0)  -->
<!DOCTYPE svg PUBLIC "-//W3C//DTD SVG 1.1//EN" "http://www.w3.org/Graphics/SVG/1.1/DTD/svg11.dtd">
<svg version="1.1" id="Layer_1" xmlns="http://www.w3.org/2000/svg" xmlns:xlink="http://www.w3.org/1999/xlink" x="0px" y="0px"
	 width="17.98px" height="12.991px" viewBox="0 0 17.98 12.991" style="enable-background:new 0 0 17.98 12.991;"
	 xml:space="preserve">
<path id="Cloud_Checkmark_1" d="M15,4.991h-0.093C14.422,1.991,11.965,0,9,0C6.028,0,3.567,1.991,3.09,4.991H3c-1.756,0-3,2.111-3,4
	c0,2.2,1.79,4,4,4h10c2.21,0,3.98-1.79,3.98-3.99C17.98,7.141,16.72,4.991,15,4.991z M12.957,5.903l-4.443,4.473
	c-0.174,0.175-0.455,0.175-0.629,0L5.218,7.692c-0.173-0.175-0.173-0.458,0-0.633l0.629-0.633c0.174-0.174,0.454-0.174,0.628,0
	l1.725,1.735l3.502-3.524c0.174-0.174,0.454-0.174,0.628,0l0.628,0.633C13.131,5.445,13.131,5.727,12.957,5.903z"/>
<g>
</g>
<g>
</g>
<g>
</g>
<g>
</g>
<g>
</g>
<g>
</g>
<g>
</g>
<g>
</g>
<g>
</g>
<g>
</g>
<g>
</g>
<g>
</g>
<g>
</g>
<g>
</g>
<g>
</g>
</svg>
