<?xml version="1.0" encoding="iso-8859-1"?>
<!-- Generator: Adobe Illustrator 16.0.0, SVG Export Plug-In . SVG Version: 6.00 Build 0)  -->
<!DOCTYPE svg PUBLIC "-//W3C//DTD SVG 1.1//EN" "http://www.w3.org/Graphics/SVG/1.1/DTD/svg11.dtd">
<svg version="1.1" id="Layer_1" xmlns="http://www.w3.org/2000/svg" xmlns:xlink="http://www.w3.org/1999/xlink" x="0px" y="0px"
	 width="16px" height="16px" viewBox="0 0 16 16" style="enable-background:new 0 0 16 16;" xml:space="preserve">
<g id="Collection_1">
	<path d="M10,5H1C0.447,5,0,5.447,0,6v9c0,0.553,0.447,1,1,1h9c0.553,0,1-0.447,1-1V6C11,5.447,10.553,5,10,5z M5,12.5
		C5,12.776,4.776,13,4.5,13h-1C3.224,13,3,12.776,3,12.5v-1C3,11.224,3.224,11,3.5,11h1C4.776,11,5,11.224,5,11.5V12.5z M5,9.5
		C5,9.776,4.776,10,4.5,10h-1C3.224,10,3,9.776,3,9.5v-1C3,8.224,3.224,8,3.5,8h1C4.776,8,5,8.224,5,8.5V9.5z M8,12.5
		C8,12.776,7.776,13,7.5,13h-1C6.224,13,6,12.776,6,12.5v-1C6,11.224,6.224,11,6.5,11h1C7.776,11,8,11.224,8,11.5V12.5z M8,9.5
		C8,9.776,7.776,10,7.5,10h-1C6.224,10,6,9.776,6,9.5v-1C6,8.224,6.224,8,6.5,8h1C7.776,8,8,8.224,8,8.5V9.5z"/>
	<path d="M15,0H6C5.447,0,5,0.447,5,1v2h7c0.553,0,1,0.448,1,1v7h2c0.553,0,1-0.447,1-1V1C16,0.447,15.553,0,15,0z"/>
</g>
<g>
</g>
<g>
</g>
<g>
</g>
<g>
</g>
<g>
</g>
<g>
</g>
<g>
</g>
<g>
</g>
<g>
</g>
<g>
</g>
<g>
</g>
<g>
</g>
<g>
</g>
<g>
</g>
<g>
</g>
</svg>
