<?xml version="1.0" encoding="iso-8859-1"?>
<!-- Generator: Adobe Illustrator 16.0.0, SVG Export Plug-In . SVG Version: 6.00 Build 0)  -->
<!DOCTYPE svg PUBLIC "-//W3C//DTD SVG 1.1//EN" "http://www.w3.org/Graphics/SVG/1.1/DTD/svg11.dtd">
<svg version="1.1" id="Layer_1" xmlns="http://www.w3.org/2000/svg" xmlns:xlink="http://www.w3.org/1999/xlink" x="0px" y="0px"
	 width="16px" height="16px" viewBox="0 0 16 16" style="enable-background:new 0 0 16 16;" xml:space="preserve">
<path id="Command_1" style="fill-rule:evenodd;clip-rule:evenodd;" d="M13,10h-1V6h1c1.66,0,3-1.34,3-3s-1.34-3-3-3s-3,1.34-3,3v1H6
	V3c0-1.66-1.34-3-3-3S0,1.34,0,3s1.34,3,3,3h1v4H3c-1.66,0-3,1.34-3,3s1.34,3,3,3s3-1.34,3-3v-1h4v1c0,1.66,1.34,3,3,3s3-1.34,3-3
	c0-0.83-0.34-1.58-0.88-2.12S13.83,10,13,10z M4,13.5C4,13.776,3.776,14,3.5,14h-1C2.224,14,2,13.776,2,13.5v-1
	C2,12.224,2.224,12,2.5,12H4V13.5z M11.999,2.501c0-0.276,0.224-0.5,0.5-0.5h1c0.276,0,0.5,0.224,0.5,0.5v1
	c0,0.276-0.224,0.5-0.5,0.5H12V3h-0.001V2.501z M2.5,4C2.224,4,2,3.776,2,3.5v-1C2,2.224,2.224,2,2.5,2h1C3.776,2,4,2.224,4,2.5V3v1
	H2.5z M10,10H6V6h4V10z M14,13.499c0,0.276-0.224,0.5-0.5,0.5h-1c-0.276,0-0.5-0.224-0.5-0.5v-1.5h1.5c0.276,0,0.5,0.224,0.5,0.5
	V13.499z"/>
<g>
</g>
<g>
</g>
<g>
</g>
<g>
</g>
<g>
</g>
<g>
</g>
<g>
</g>
<g>
</g>
<g>
</g>
<g>
</g>
<g>
</g>
<g>
</g>
<g>
</g>
<g>
</g>
<g>
</g>
</svg>
