<?xml version="1.0" encoding="iso-8859-1"?>
<!-- Generator: Adobe Illustrator 16.0.0, SVG Export Plug-In . SVG Version: 6.00 Build 0)  -->
<!DOCTYPE svg PUBLIC "-//W3C//DTD SVG 1.1//EN" "http://www.w3.org/Graphics/SVG/1.1/DTD/svg11.dtd">
<svg version="1.1" id="Layer_1" xmlns="http://www.w3.org/2000/svg" xmlns:xlink="http://www.w3.org/1999/xlink" x="0px" y="0px"
	 width="16px" height="16px" viewBox="0 0 16 16" style="enable-background:new 0 0 16 16;" xml:space="preserve">
<path id="Compose_1_x2C__Message_1" style="fill-rule:evenodd;clip-rule:evenodd;" d="M15,0H1C0.448,0,0,0.447,0,1v14
	c0,0.553,0.448,1,1,1h14c0.552,0,1-0.447,1-1V1C16,0.447,15.552,0,15,0z M6,12H4v-2l5-5l2,2L6,12z M12.723,5.277L12,6l-2-2
	l0.723-0.723c0.391-0.391,1.023-0.391,1.414,0l0.586,0.586C13.113,4.254,13.113,4.887,12.723,5.277z"/>
<g>
</g>
<g>
</g>
<g>
</g>
<g>
</g>
<g>
</g>
<g>
</g>
<g>
</g>
<g>
</g>
<g>
</g>
<g>
</g>
<g>
</g>
<g>
</g>
<g>
</g>
<g>
</g>
<g>
</g>
</svg>
