<?xml version="1.0" encoding="iso-8859-1"?>
<!-- Generator: Adobe Illustrator 16.0.0, SVG Export Plug-In . SVG Version: 6.00 Build 0)  -->
<!DOCTYPE svg PUBLIC "-//W3C//DTD SVG 1.1//EN" "http://www.w3.org/Graphics/SVG/1.1/DTD/svg11.dtd">
<svg version="1.1" id="Layer_1" xmlns="http://www.w3.org/2000/svg" xmlns:xlink="http://www.w3.org/1999/xlink" x="0px" y="0px"
	 width="16px" height="16px" viewBox="0 0 16 16" style="enable-background:new 0 0 16 16;" xml:space="preserve">
<path id="Compose_4_x2C__Message_4" d="M15,0H1C0.447,0,0,0.447,0,1v12v2c0,0.553,0.447,1,1,1h14c0.553,0,1-0.447,1-1V1
	C16,0.447,15.553,0,15,0z M11.75,6.5c-0.27,0-0.524-0.056-0.765-0.143C10.99,6.405,11,6.451,11,6.5C11,7.329,10.328,8,9.5,8
	C9.217,8,8.955,7.916,8.729,7.78C8.738,7.852,8.751,7.925,8.751,8c0,0.128-0.02,0.25-0.05,0.368
	C8.693,8.397,8.686,8.425,8.676,8.453c-0.031,0.1-0.067,0.193-0.118,0.282C8.55,8.749,8.551,8.764,8.543,8.777
	C8.41,8.996,8.238,9.175,8.014,9.302C7.796,9.424,7.58,9.5,7.312,9.5c-0.559,0-0.978-0.309-1.236-0.762
	C4.636,9.671,3,11.906,3,13.25v0.375C3,13.832,2.707,14,2.5,14S2,13.832,2,13.625v-0.188c0-0.104,0.044-0.35,0.104-0.548
	C2.687,10.968,5.724,2,11.75,2C12.993,2,14,3.007,14,4.25S12.993,6.5,11.75,6.5z"/>
<g>
</g>
<g>
</g>
<g>
</g>
<g>
</g>
<g>
</g>
<g>
</g>
<g>
</g>
<g>
</g>
<g>
</g>
<g>
</g>
<g>
</g>
<g>
</g>
<g>
</g>
<g>
</g>
<g>
</g>
</svg>
