<?xml version="1.0" encoding="iso-8859-1"?>
<!-- Generator: Adobe Illustrator 16.0.0, SVG Export Plug-In . SVG Version: 6.00 Build 0)  -->
<!DOCTYPE svg PUBLIC "-//W3C//DTD SVG 1.1//EN" "http://www.w3.org/Graphics/SVG/1.1/DTD/svg11.dtd">
<svg version="1.1" id="Layer_1" xmlns="http://www.w3.org/2000/svg" xmlns:xlink="http://www.w3.org/1999/xlink" x="0px" y="0px"
	 width="14px" height="16px" viewBox="0 0 14 16" style="enable-background:new 0 0 14 16;" xml:space="preserve">
<g id="Contacts_1">
	<path style="fill-rule:evenodd;clip-rule:evenodd;" d="M13,0H3v16h10c0.553,0,1-0.447,1-1V1C14,0.447,13.553,0,13,0z M11,10.609
		C11,10.862,10.813,11,10.584,11H9.84H7.16H6.416C6.187,11,6,10.862,6,10.609V9.193c0-0.253,0.19-0.698,0.375-0.85
		C6.762,8.024,7,7.895,8,7.774V7.406C7,7.09,6.959,6.301,6.959,5.625C6.959,4.615,7.496,4,8.416,4C9.337,4,10,4.615,10,5.625
		c0,0.676,0,1.465-1,1.781v0.368c1,0.12,1.238,0.25,1.625,0.569C10.81,8.495,11,8.94,11,9.193V10.609z"/>
	<path style="fill-rule:evenodd;clip-rule:evenodd;" d="M2,0H1C0.447,0,0,0.447,0,1v14c0,0.553,0.447,1,1,1h1V0z"/>
</g>
<g>
</g>
<g>
</g>
<g>
</g>
<g>
</g>
<g>
</g>
<g>
</g>
<g>
</g>
<g>
</g>
<g>
</g>
<g>
</g>
<g>
</g>
<g>
</g>
<g>
</g>
<g>
</g>
<g>
</g>
</svg>
