<?xml version="1.0" encoding="iso-8859-1"?>
<!-- Generator: Adobe Illustrator 16.0.0, SVG Export Plug-In . SVG Version: 6.00 Build 0)  -->
<!DOCTYPE svg PUBLIC "-//W3C//DTD SVG 1.1//EN" "http://www.w3.org/Graphics/SVG/1.1/DTD/svg11.dtd">
<svg version="1.1" id="Layer_1" xmlns="http://www.w3.org/2000/svg" xmlns:xlink="http://www.w3.org/1999/xlink" x="0px" y="0px"
	 width="16px" height="16px" viewBox="0 0 16 16" style="enable-background:new 0 0 16 16;" xml:space="preserve">
<path id="Contacts_2" style="fill-rule:evenodd;clip-rule:evenodd;" d="M15,0H3C2.447,0,2,0.447,2,1H1C0.447,1,0,1.447,0,2
	s0.447,1,1,1h1v1H1C0.447,4,0,4.447,0,5s0.447,1,1,1h1v1H1C0.447,7,0,7.447,0,8s0.447,1,1,1h1v1H1c-0.553,0-1,0.447-1,1s0.447,1,1,1
	h1v1H1c-0.553,0-1,0.447-1,1s0.447,1,1,1h1c0,0.553,0.447,1,1,1h12c0.553,0,1-0.447,1-1V1C16,0.447,15.553,0,15,0z M12,11.5
	c0,0.276-0.224,0.5-0.5,0.5h-0.893H7.393H6.5C6.224,12,6,11.776,6,11.5V9.676c0-0.276,0.154-0.664,0.375-0.83
	C6.84,8.496,7.409,8.257,8,8.125V7.723C7.404,7.376,7,6.738,7,6c0-1.104,0.896-2,2-2s2,0.896,2,2c0,0.738-0.404,1.376-1,1.723v0.402
	c0.591,0.132,1.16,0.371,1.625,0.721C11.846,9.012,12,9.399,12,9.676V11.5z"/>
<g>
</g>
<g>
</g>
<g>
</g>
<g>
</g>
<g>
</g>
<g>
</g>
<g>
</g>
<g>
</g>
<g>
</g>
<g>
</g>
<g>
</g>
<g>
</g>
<g>
</g>
<g>
</g>
<g>
</g>
</svg>
