<?xml version="1.0" encoding="iso-8859-1"?>
<!-- Generator: Adobe Illustrator 16.0.0, SVG Export Plug-In . SVG Version: 6.00 Build 0)  -->
<!DOCTYPE svg PUBLIC "-//W3C//DTD SVG 1.1//EN" "http://www.w3.org/Graphics/SVG/1.1/DTD/svg11.dtd">
<svg version="1.1" id="Layer_1" xmlns="http://www.w3.org/2000/svg" xmlns:xlink="http://www.w3.org/1999/xlink" x="0px" y="0px"
	 width="16px" height="16px" viewBox="0 0 16 16" style="enable-background:new 0 0 16 16;" xml:space="preserve">
<path id="Distribute_Horizontal_Centers_1" d="M16,1c0-0.553-0.447-1-1-1H1C0.447,0,0,0.447,0,1v14c0,0.553,0.447,1,1,1h14
	c0.553,0,1-0.447,1-1V1z M7,10.5C7,10.776,6.784,11,6.508,11H6v2H5v-2H4.508C4.231,11,4,10.776,4,10.5v-5C4,5.224,4.231,5,4.508,5H5
	V3h1v2h0.508C6.784,5,7,5.224,7,5.5V10.5z M12,9.5c0,0.276-0.216,0.5-0.492,0.5H11v3h-1v-3H9.508C9.231,10,9,9.776,9,9.5v-3
	C9,6.224,9.231,6,9.508,6H10V3h1v3h0.508C11.784,6,12,6.224,12,6.5V9.5z"/>
<g>
</g>
<g>
</g>
<g>
</g>
<g>
</g>
<g>
</g>
<g>
</g>
<g>
</g>
<g>
</g>
<g>
</g>
<g>
</g>
<g>
</g>
<g>
</g>
<g>
</g>
<g>
</g>
<g>
</g>
</svg>
