<?xml version="1.0" encoding="iso-8859-1"?>
<!-- Generator: Adobe Illustrator 16.0.0, SVG Export Plug-In . SVG Version: 6.00 Build 0)  -->
<!DOCTYPE svg PUBLIC "-//W3C//DTD SVG 1.1//EN" "http://www.w3.org/Graphics/SVG/1.1/DTD/svg11.dtd">
<svg version="1.1" id="Layer_1" xmlns="http://www.w3.org/2000/svg" xmlns:xlink="http://www.w3.org/1999/xlink" x="0px" y="0px"
	 width="16px" height="16px" viewBox="0 0 16 16" style="enable-background:new 0 0 16 16;" xml:space="preserve">
<path id="Down_Circle_4" style="fill-rule:evenodd;clip-rule:evenodd;" d="M8,0C3.582,0,0,3.582,0,8s3.582,8,8,8s8-3.582,8-8
	S12.418,0,8,0z M11.85,8.538L8.37,11.86c-0.197,0.188-0.518,0.188-0.717,0l-3.507-3.35c-0.197-0.189-0.197-0.496,0-0.684
	l0.717-0.684c0.197-0.189,0.518-0.189,0.717,0L7,8.485V4.501C7,4.225,7.223,4,7.499,4h1C8.775,4,9,4.225,9,4.501v4.011l1.418-1.341
	c0.197-0.189,0.518-0.189,0.715,0l0.717,0.684C12.049,8.042,12.049,8.349,11.85,8.538z"/>
<g>
</g>
<g>
</g>
<g>
</g>
<g>
</g>
<g>
</g>
<g>
</g>
<g>
</g>
<g>
</g>
<g>
</g>
<g>
</g>
<g>
</g>
<g>
</g>
<g>
</g>
<g>
</g>
<g>
</g>
</svg>
