<?xml version="1.0" encoding="iso-8859-1"?>
<!-- Generator: Adobe Illustrator 16.0.0, SVG Export Plug-In . SVG Version: 6.00 Build 0)  -->
<!DOCTYPE svg PUBLIC "-//W3C//DTD SVG 1.1//EN" "http://www.w3.org/Graphics/SVG/1.1/DTD/svg11.dtd">
<svg version="1.1" id="Layer_1" xmlns="http://www.w3.org/2000/svg" xmlns:xlink="http://www.w3.org/1999/xlink" x="0px" y="0px"
	 width="16px" height="16px" viewBox="0 0 16 16" style="enable-background:new 0 0 16 16;" xml:space="preserve">
<path id="Earth_1_x2C__World_1" d="M8,0C3.582,0,0,3.582,0,8s3.582,8,8,8s8-3.582,8-8S12.418,0,8,0z M2,8
	c0-1.649,0.669-3.146,1.75-4.231C3.752,5.754,4.003,6.504,5,7.5c1,1,2.5,2.75,2.5,4.75c0,0.879,0.241,1.5,0.512,1.75
	C8.008,14,8.004,14,8,14C4.691,14,2,11.309,2,8z M10.148,13.601c0.791-0.908,1.726-2.353,1.102-3.601c-1-2-4.5-0.5-4.5-2.5
	S10,8,10,4c0-1.438-1.149-1.898-2.346-1.989C7.769,2.004,7.884,2,8,2c3.309,0,6,2.691,6,6C14,10.551,12.398,12.734,10.148,13.601z"
	/>
<g>
</g>
<g>
</g>
<g>
</g>
<g>
</g>
<g>
</g>
<g>
</g>
<g>
</g>
<g>
</g>
<g>
</g>
<g>
</g>
<g>
</g>
<g>
</g>
<g>
</g>
<g>
</g>
<g>
</g>
</svg>
