<?xml version="1.0" encoding="iso-8859-1"?>
<!-- Generator: Adobe Illustrator 16.0.0, SVG Export Plug-In . SVG Version: 6.00 Build 0)  -->
<!DOCTYPE svg PUBLIC "-//W3C//DTD SVG 1.1//EN" "http://www.w3.org/Graphics/SVG/1.1/DTD/svg11.dtd">
<svg version="1.1" id="Layer_1" xmlns="http://www.w3.org/2000/svg" xmlns:xlink="http://www.w3.org/1999/xlink" x="0px" y="0px"
	 width="18px" height="16px" viewBox="0 0 18 16" style="enable-background:new 0 0 18 16;" xml:space="preserve">
<path id="Exclamation_Point_1_x2C__Caution_1_x2C__Warning_1" d="M17.883,14.705l-8-14.24c-0.348-0.62-1.418-0.62-1.766,0l-8,14.24
	C-0.048,15-0.038,15.303,0.143,15.59C0.323,15.875,0.648,16,1,16h16c0.352,0,0.677-0.125,0.857-0.41
	C18.038,15.303,18.048,15,17.883,14.705z M10,13.56c0,0.276-0.224,0.5-0.5,0.5h-1c-0.276,0-0.5-0.224-0.5-0.5v-1
	c0-0.276,0.224-0.5,0.5-0.5h1c0.276,0,0.5,0.224,0.5,0.5V13.56z M10,10.5c0,0.276-0.224,0.5-0.5,0.5h-1C8.224,11,8,10.776,8,10.5v-6
	C8,4.224,8.224,4,8.5,4h1C9.776,4,10,4.224,10,4.5V10.5z"/>
<g>
</g>
<g>
</g>
<g>
</g>
<g>
</g>
<g>
</g>
<g>
</g>
<g>
</g>
<g>
</g>
<g>
</g>
<g>
</g>
<g>
</g>
<g>
</g>
<g>
</g>
<g>
</g>
<g>
</g>
</svg>
