<?xml version="1.0" encoding="iso-8859-1"?>
<!-- Generator: Adobe Illustrator 16.0.0, SVG Export Plug-In . SVG Version: 6.00 Build 0)  -->
<!DOCTYPE svg PUBLIC "-//W3C//DTD SVG 1.1//EN" "http://www.w3.org/Graphics/SVG/1.1/DTD/svg11.dtd">
<svg version="1.1" id="Layer_1" xmlns="http://www.w3.org/2000/svg" xmlns:xlink="http://www.w3.org/1999/xlink" x="0px" y="0px"
	 width="16px" height="16px" viewBox="0 0 16 16" style="enable-background:new 0 0 16 16;" xml:space="preserve">
<path id="Exclamation_Point_2_x2C__Caution_2_x2C__Warning_2" style="fill-rule:evenodd;clip-rule:evenodd;" d="M8,0
	C3.582,0,0,3.582,0,8s3.582,8,8,8s8-3.582,8-8S12.418,0,8,0z M9,12.5C9,12.776,8.776,13,8.5,13h-1C7.224,13,7,12.776,7,12.5v-1
	C7,11.224,7.224,11,7.5,11h1C8.776,11,9,11.224,9,11.5V12.5z M9,9.5C9,9.776,8.776,10,8.5,10h-1C7.224,10,7,9.776,7,9.5v-6
	C7,3.224,7.224,3,7.5,3h1C8.776,3,9,3.224,9,3.5V9.5z"/>
<g>
</g>
<g>
</g>
<g>
</g>
<g>
</g>
<g>
</g>
<g>
</g>
<g>
</g>
<g>
</g>
<g>
</g>
<g>
</g>
<g>
</g>
<g>
</g>
<g>
</g>
<g>
</g>
<g>
</g>
</svg>
