<?xml version="1.0" encoding="iso-8859-1"?>
<!-- Generator: Adobe Illustrator 16.0.0, SVG Export Plug-In . SVG Version: 6.00 Build 0)  -->
<!DOCTYPE svg PUBLIC "-//W3C//DTD SVG 1.1//EN" "http://www.w3.org/Graphics/SVG/1.1/DTD/svg11.dtd">
<svg version="1.1" id="Layer_1" xmlns="http://www.w3.org/2000/svg" xmlns:xlink="http://www.w3.org/1999/xlink" x="0px" y="0px"
	 width="17.812px" height="12px" viewBox="0 0 17.812 12" style="enable-background:new 0 0 17.812 12;" xml:space="preserve">
<g id="Eye_1_x2C__View_1">
	<path d="M8.915,4C7.809,4,6.913,4.895,6.913,6s0.896,2,2.002,2c1.103,0,1.998-0.895,1.998-2S10.018,4,8.915,4z"/>
	<path d="M8.898,0C5.426,0,2.093,2.109,0.2,5.506c0,0-0.064,0.115-0.144,0.258c-0.079,0.142-0.075,0.37,0.009,0.51l0.152,0.252
		C2.229,9.851,5.636,12,8.898,12c3.248,0,6.486-2.008,8.664-5.371c0,0,0.078-0.121,0.175-0.271c0.098-0.149,0.1-0.393,0.006-0.544
		l-0.171-0.273C15.372,2.02,12.211,0,8.898,0z M8.914,10c-2.21,0-4.001-1.791-4.001-4s1.791-4,4.001-4c2.208,0,3.999,1.791,3.999,4
		S11.122,10,8.914,10z"/>
</g>
<g>
</g>
<g>
</g>
<g>
</g>
<g>
</g>
<g>
</g>
<g>
</g>
<g>
</g>
<g>
</g>
<g>
</g>
<g>
</g>
<g>
</g>
<g>
</g>
<g>
</g>
<g>
</g>
<g>
</g>
</svg>
