<?xml version="1.0" encoding="iso-8859-1"?>
<!-- Generator: Adobe Illustrator 16.0.0, SVG Export Plug-In . SVG Version: 6.00 Build 0)  -->
<!DOCTYPE svg PUBLIC "-//W3C//DTD SVG 1.1//EN" "http://www.w3.org/Graphics/SVG/1.1/DTD/svg11.dtd">
<svg version="1.1" id="Layer_1" xmlns="http://www.w3.org/2000/svg" xmlns:xlink="http://www.w3.org/1999/xlink" x="0px" y="0px"
	 width="17.862px" height="14px" viewBox="0 0 17.862 14" style="enable-background:new 0 0 17.862 14;" xml:space="preserve">
<path id="Eye_4_x2C__View_4" d="M8.926,0c-3.522,0-6.888,2.518-8.78,6.572c0,0-0.047,0.1-0.104,0.223s-0.055,0.321,0.007,0.442
	l0.111,0.22C2.173,11.432,5.614,14,8.926,14c3.299,0,6.571-2.401,8.754-6.424c0,0,0.058-0.106,0.128-0.237
	c0.071-0.131,0.073-0.344,0.004-0.476l-0.125-0.238C15.482,2.414,12.289,0,8.926,0z M8.926,10c-1.631,0-2.958-1.346-2.958-3
	s1.327-3,2.958-3c1.632,0,2.959,1.346,2.959,3S10.558,10,8.926,10z"/>
<g>
</g>
<g>
</g>
<g>
</g>
<g>
</g>
<g>
</g>
<g>
</g>
<g>
</g>
<g>
</g>
<g>
</g>
<g>
</g>
<g>
</g>
<g>
</g>
<g>
</g>
<g>
</g>
<g>
</g>
</svg>
