<?xml version="1.0" encoding="iso-8859-1"?>
<!-- Generator: Adobe Illustrator 16.0.0, SVG Export Plug-In . SVG Version: 6.00 Build 0)  -->
<!DOCTYPE svg PUBLIC "-//W3C//DTD SVG 1.1//EN" "http://www.w3.org/Graphics/SVG/1.1/DTD/svg11.dtd">
<svg version="1.1" id="Layer_1" xmlns="http://www.w3.org/2000/svg" xmlns:xlink="http://www.w3.org/1999/xlink" x="0px" y="0px"
	 width="15.998px" height="15.998px" viewBox="0 0 15.998 15.998" style="enable-background:new 0 0 15.998 15.998;"
	 xml:space="preserve">
<path id="Eyedropper_1" d="M7.44,4.318c0,0-0.309-0.309-0.69-0.689C6.369,3.247,5.743,3.255,5.353,3.646L4.647,4.351
	C4.257,4.741,4.229,5.347,4.585,5.703L5.23,6.348l-4.877,4.887C0.158,11.43,0,11.812,0,12.088v3.41c0,0.276,0.224,0.5,0.5,0.5h3.41
	c0.276,0,0.658-0.158,0.854-0.354l4.886-4.877c0,0,0.289,0.289,0.645,0.645c0.356,0.356,0.962,0.329,1.353-0.062l0.705-0.705
	c0.391-0.391,0.398-1.017,0.018-1.397l-0.69-0.69l3.44-3.439c1.17-1.17,1.17-3.07,0-4.24s-3.07-1.17-4.24,0L7.44,4.318z
	 M3.59,13.998H2v-1.59l4.65-4.641l1.58,1.58L3.59,13.998z"/>
<g>
</g>
<g>
</g>
<g>
</g>
<g>
</g>
<g>
</g>
<g>
</g>
<g>
</g>
<g>
</g>
<g>
</g>
<g>
</g>
<g>
</g>
<g>
</g>
<g>
</g>
<g>
</g>
<g>
</g>
</svg>
