<?xml version="1.0" encoding="iso-8859-1"?>
<!-- Generator: Adobe Illustrator 16.0.0, SVG Export Plug-In . SVG Version: 6.00 Build 0)  -->
<!DOCTYPE svg PUBLIC "-//W3C//DTD SVG 1.1//EN" "http://www.w3.org/Graphics/SVG/1.1/DTD/svg11.dtd">
<svg version="1.1" id="Layer_1" xmlns="http://www.w3.org/2000/svg" xmlns:xlink="http://www.w3.org/1999/xlink" x="0px" y="0px"
	 width="10px" height="8px" viewBox="0 0 10 8" style="enable-background:new 0 0 10 8;" xml:space="preserve">
<g id="Fast_Forward_3">
	<path d="M9.859,3.66L6.498,0.147c-0.188-0.196-0.491-0.196-0.679,0L5.141,0.856c-0.188,0.196-0.188,0.514,0,0.71l2.343,2.449
		L5.171,6.433c-0.188,0.196-0.188,0.515,0,0.71l0.679,0.71c0.188,0.196,0.491,0.196,0.679,0l3.331-3.481
		C10.047,4.174,10.047,3.857,9.859,3.66z"/>
	<path d="M1.498,0.147c-0.188-0.196-0.491-0.196-0.679,0L0.141,0.856c-0.188,0.196-0.188,0.514,0,0.71l2.343,2.449L0.171,6.433
		c-0.188,0.196-0.188,0.515,0,0.71l0.679,0.71c0.188,0.196,0.491,0.196,0.679,0l3.331-3.481c0.188-0.197,0.188-0.514,0-0.711
		L1.498,0.147z"/>
</g>
<g>
</g>
<g>
</g>
<g>
</g>
<g>
</g>
<g>
</g>
<g>
</g>
<g>
</g>
<g>
</g>
<g>
</g>
<g>
</g>
<g>
</g>
<g>
</g>
<g>
</g>
<g>
</g>
<g>
</g>
</svg>
