<?xml version="1.0" encoding="iso-8859-1"?>
<!-- Generator: Adobe Illustrator 16.0.0, SVG Export Plug-In . SVG Version: 6.00 Build 0)  -->
<!DOCTYPE svg PUBLIC "-//W3C//DTD SVG 1.1//EN" "http://www.w3.org/Graphics/SVG/1.1/DTD/svg11.dtd">
<svg version="1.1" id="Layer_1" xmlns="http://www.w3.org/2000/svg" xmlns:xlink="http://www.w3.org/1999/xlink" x="0px" y="0px"
	 width="16px" height="16px" viewBox="0 0 16 16" style="enable-background:new 0 0 16 16;" xml:space="preserve">
<g id="Files_1">
	<path d="M14.5,3h-13C1.224,3,1,3.224,1,3.5v1C1,4.776,1.224,5,1.5,5h13C14.776,5,15,4.776,15,4.5v-1C15,3.224,14.776,3,14.5,3z"/>
	<path d="M13.5,0h-11C2.224,0,2,0.224,2,0.5v1C2,1.776,2.224,2,2.5,2h11C13.776,2,14,1.776,14,1.5v-1C14,0.224,13.776,0,13.5,0z"/>
	<path d="M0,6.5v9C0,15.776,0.224,16,0.5,16h15c0.276,0,0.5-0.224,0.5-0.5v-9C16,6.224,15.776,6,15.5,6h-15C0.224,6,0,6.224,0,6.5z
		 M11,12H5c-0.552,0-1-0.447-1-1V8.5C4,8.224,4.224,8,4.5,8h1C5.776,8,6,8.224,6,8.5v1C6,9.776,6.224,10,6.5,10h3
		C9.776,10,10,9.776,10,9.5v-1C10,8.224,10.224,8,10.5,8h1C11.776,8,12,8.224,12,8.5V11C12,11.553,11.552,12,11,12z"/>
</g>
<g>
</g>
<g>
</g>
<g>
</g>
<g>
</g>
<g>
</g>
<g>
</g>
<g>
</g>
<g>
</g>
<g>
</g>
<g>
</g>
<g>
</g>
<g>
</g>
<g>
</g>
<g>
</g>
<g>
</g>
</svg>
