<?xml version="1.0" encoding="iso-8859-1"?>
<!-- Generator: Adobe Illustrator 16.0.0, SVG Export Plug-In . SVG Version: 6.00 Build 0)  -->
<!DOCTYPE svg PUBLIC "-//W3C//DTD SVG 1.1//EN" "http://www.w3.org/Graphics/SVG/1.1/DTD/svg11.dtd">
<svg version="1.1" id="Layer_1" xmlns="http://www.w3.org/2000/svg" xmlns:xlink="http://www.w3.org/1999/xlink" x="0px" y="0px"
	 width="16px" height="16px" viewBox="0 0 16 16" style="enable-background:new 0 0 16 16;" xml:space="preserve">
<g id="Flag_1_x2C__Finish_1">
	<path d="M2,1c0-0.553-0.447-1-1-1S0,0.447,0,1v1v13.5C0,15.776,0.224,16,0.5,16h1C1.776,16,2,15.776,2,15.5V11h13
		c0.553,0,1-0.447,1-1V2c0-0.553-0.447-1-1-1H2z M14,5h-2v2h2v2h-2V7h-2v2H8V7H6v2H4V7H2V5h2V3h2v2h2V3h2v2h2V3h2V5z"/>
	<rect x="4" y="5" width="2" height="2"/>
	<rect x="8" y="5" width="2" height="2"/>
</g>
<g>
</g>
<g>
</g>
<g>
</g>
<g>
</g>
<g>
</g>
<g>
</g>
<g>
</g>
<g>
</g>
<g>
</g>
<g>
</g>
<g>
</g>
<g>
</g>
<g>
</g>
<g>
</g>
<g>
</g>
</svg>
