<?xml version="1.0" encoding="iso-8859-1"?>
<!-- Generator: Adobe Illustrator 16.0.0, SVG Export Plug-In . SVG Version: 6.00 Build 0)  -->
<!DOCTYPE svg PUBLIC "-//W3C//DTD SVG 1.1//EN" "http://www.w3.org/Graphics/SVG/1.1/DTD/svg11.dtd">
<svg version="1.1" id="Layer_1" xmlns="http://www.w3.org/2000/svg" xmlns:xlink="http://www.w3.org/1999/xlink" x="0px" y="0px"
	 width="16px" height="16px" viewBox="0 0 16 16" style="enable-background:new 0 0 16 16;" xml:space="preserve">
<path id="Gauge_2" d="M8,0C3.582,0,0,3.582,0,8s3.582,8,8,8s8-3.582,8-8S12.418,0,8,0z M7,2c0-0.553,0.447-1,1-1s1,0.447,1,1v1
	c0,0.553-0.447,1-1,1S7,3.553,7,3V2z M3,9H2C1.447,9,1,8.553,1,8s0.447-1,1-1h1c0.553,0,1,0.447,1,1S3.553,9,3,9z M5.172,5.171
	C4.977,5.366,4.721,5.464,4.465,5.464S3.953,5.366,3.758,5.171L3.051,4.464C2.66,4.073,2.66,3.44,3.051,3.05s1.023-0.391,1.414,0
	l0.707,0.707C5.562,4.147,5.562,4.78,5.172,5.171z M8,14c-1.104,0-2-0.896-2-2c0-0.738,0.404-1.376,1-1.723V6c0-0.553,0.447-1,1-1
	s1,0.447,1,1v4.277c0.596,0.347,1,0.984,1,1.723C10,13.104,9.104,14,8,14z M10.828,5.171c-0.391-0.391-0.391-1.023,0-1.414
	l0.707-0.707c0.391-0.391,1.023-0.391,1.414,0s0.391,1.023,0,1.414l-0.707,0.707c-0.195,0.195-0.451,0.293-0.707,0.293
	S11.023,5.366,10.828,5.171z M14,9h-1c-0.553,0-1-0.447-1-1s0.447-1,1-1h1c0.553,0,1,0.447,1,1S14.553,9,14,9z"/>
<g>
</g>
<g>
</g>
<g>
</g>
<g>
</g>
<g>
</g>
<g>
</g>
<g>
</g>
<g>
</g>
<g>
</g>
<g>
</g>
<g>
</g>
<g>
</g>
<g>
</g>
<g>
</g>
<g>
</g>
</svg>
