<?xml version="1.0" encoding="iso-8859-1"?>
<!-- Generator: Adobe Illustrator 16.0.0, SVG Export Plug-In . SVG Version: 6.00 Build 0)  -->
<!DOCTYPE svg PUBLIC "-//W3C//DTD SVG 1.1//EN" "http://www.w3.org/Graphics/SVG/1.1/DTD/svg11.dtd">
<svg version="1.1" id="Layer_1" xmlns="http://www.w3.org/2000/svg" xmlns:xlink="http://www.w3.org/1999/xlink" x="0px" y="0px"
	 width="16px" height="16px" viewBox="0 0 16 16" style="enable-background:new 0 0 16 16;" xml:space="preserve">
<g id="Gift_1_x2C__Present_1">
	<path d="M15.008,5h-1h-1.78c0.479-0.532,0.78-1.229,0.78-2c0-1.654-1.346-3-3-3c-0.771,0-1.468,0.301-2,0.78
		C7.476,0.301,6.779,0,6.008,0c-1.654,0-3,1.346-3,3c0,0.771,0.301,1.468,0.78,2h-1.78h-1C0.455,5,0,5.447,0,6v2
		c0,0.553,0.455,1,1.008,1h14C15.561,9,16,8.553,16,8V6C16,5.447,15.561,5,15.008,5z M7.008,3v1h-1h-0.5c-0.276,0-0.5-0.224-0.5-0.5
		v-1c0-0.276,0.224-0.5,0.5-0.5h1c0.276,0,0.5,0.224,0.5,0.5V3z M11.008,3.5c0,0.276-0.224,0.5-0.5,0.5h-0.5h-1V3V2.5
		c0-0.276,0.224-0.5,0.5-0.5h1c0.276,0,0.5,0.224,0.5,0.5V3.5z"/>
	<path d="M1,11v4c0,0.553,0.455,1,1.008,1h5h2h5C14.561,16,15,15.553,15,15v-4H1z"/>
</g>
<g>
</g>
<g>
</g>
<g>
</g>
<g>
</g>
<g>
</g>
<g>
</g>
<g>
</g>
<g>
</g>
<g>
</g>
<g>
</g>
<g>
</g>
<g>
</g>
<g>
</g>
<g>
</g>
<g>
</g>
</svg>
