<?xml version="1.0" encoding="iso-8859-1"?>
<!-- Generator: Adobe Illustrator 16.0.0, SVG Export Plug-In . SVG Version: 6.00 Build 0)  -->
<!DOCTYPE svg PUBLIC "-//W3C//DTD SVG 1.1//EN" "http://www.w3.org/Graphics/SVG/1.1/DTD/svg11.dtd">
<svg version="1.1" id="Layer_1" xmlns="http://www.w3.org/2000/svg" xmlns:xlink="http://www.w3.org/1999/xlink" x="0px" y="0px"
	 width="16px" height="12px" viewBox="0 0 16 12" style="enable-background:new 0 0 16 12;" xml:space="preserve">
<path id="Glasses_1" d="M15.703,4.548l-1.898-3.919C13.652,0.249,13.243,0,12.834,0h-1.5C11.058,0,11,0.224,11,0.5v1
	C11,1.776,11.058,2,11.334,2h0.823l1.258,3H9.834C9.281,5,9,5.447,9,6v1H7V6c0-0.553-0.613-1-1.166-1H2.253l1.258-3h0.823
	C4.61,2,5,1.776,5,1.5v-1C5,0.224,4.61,0,4.334,0h-1.5C2.425,0,2.058,0.249,1.905,0.629L0.131,4.548C0.013,4.798,0,5.224,0,5.5V6
	v0.25v4.65C0,11.453,0.281,12,0.834,12h5C6.387,12,7,11.453,7,10.9V9h2v1.9C9,11.453,9.281,12,9.834,12h5
	C15.387,12,16,11.453,16,10.9V6.25V6V5.5C16,5.224,15.821,4.798,15.703,4.548z"/>
<g>
</g>
<g>
</g>
<g>
</g>
<g>
</g>
<g>
</g>
<g>
</g>
<g>
</g>
<g>
</g>
<g>
</g>
<g>
</g>
<g>
</g>
<g>
</g>
<g>
</g>
<g>
</g>
<g>
</g>
</svg>
