<?xml version="1.0" encoding="iso-8859-1"?>
<!-- Generator: Adobe Illustrator 16.0.0, SVG Export Plug-In . SVG Version: 6.00 Build 0)  -->
<!DOCTYPE svg PUBLIC "-//W3C//DTD SVG 1.1//EN" "http://www.w3.org/Graphics/SVG/1.1/DTD/svg11.dtd">
<svg version="1.1" id="Layer_1" xmlns="http://www.w3.org/2000/svg" xmlns:xlink="http://www.w3.org/1999/xlink" x="0px" y="0px"
	 width="16px" height="16px" viewBox="0 0 16 16" style="enable-background:new 0 0 16 16;" xml:space="preserve">
<path id="Grid_2" style="fill-rule:evenodd;clip-rule:evenodd;" d="M15,0H1C0.448,0,0,0.447,0,1v14c0,0.553,0.448,1,1,1h14
	c0.552,0,1-0.447,1-1V1C16,0.447,15.552,0,15,0z M6,12H4v-2h2V12z M6,9H4V7h2V9z M6,6H4V4h2V6z M9,12H7v-2h2V12z M9,9H7V7h2V9z M9,6
	H7V4h2V6z M12,12h-2v-2h2V12z M12,9h-2V7h2V9z M12,6h-2V4h2V6z"/>
<g>
</g>
<g>
</g>
<g>
</g>
<g>
</g>
<g>
</g>
<g>
</g>
<g>
</g>
<g>
</g>
<g>
</g>
<g>
</g>
<g>
</g>
<g>
</g>
<g>
</g>
<g>
</g>
<g>
</g>
</svg>
