<?xml version="1.0" encoding="iso-8859-1"?>
<!-- Generator: Adobe Illustrator 16.0.0, SVG Export Plug-In . SVG Version: 6.00 Build 0)  -->
<!DOCTYPE svg PUBLIC "-//W3C//DTD SVG 1.1//EN" "http://www.w3.org/Graphics/SVG/1.1/DTD/svg11.dtd">
<svg version="1.1" id="Layer_1" xmlns="http://www.w3.org/2000/svg" xmlns:xlink="http://www.w3.org/1999/xlink" x="0px" y="0px"
	 width="18px" height="12px" viewBox="0 0 18 12" style="enable-background:new 0 0 18 12;" xml:space="preserve">
<path id="Group_2" d="M16,4.163v-0.44C16.596,3.377,17,2.739,17,2c0-1.105-0.896-2-2-2s-2,0.895-2,2c0,0.739,0.404,1.377,1,1.723
	v0.433c-0.996,0.315-1.75,1.083-1.945,2.027C11.533,5.665,10.824,5.286,10,5.111V4.789c0.883-0.386,1.5-1.265,1.5-2.289
	C11.5,1.119,10.381,0,9,0S6.5,1.119,6.5,2.5c0,1.024,0.617,1.903,1.5,2.289v0.322C7.176,5.286,6.467,5.665,5.945,6.183
	C5.75,5.238,4.996,4.471,4,4.155V3.723C4.596,3.377,5,2.739,5,2c0-1.105-0.896-2-2-2S1,0.895,1,2c0,0.739,0.404,1.377,1,1.723v0.44
	C0.838,4.531,0,5.508,0,6.667V9c0,0.553,0.447,1,1,1h4v1c0,0.553,0.447,1,1,1h6c0.553,0,1-0.447,1-1v-1h4c0.553,0,1-0.447,1-1V6.667
	C18,5.508,17.162,4.531,16,4.163z"/>
<g>
</g>
<g>
</g>
<g>
</g>
<g>
</g>
<g>
</g>
<g>
</g>
<g>
</g>
<g>
</g>
<g>
</g>
<g>
</g>
<g>
</g>
<g>
</g>
<g>
</g>
<g>
</g>
<g>
</g>
</svg>
