<?xml version="1.0" encoding="iso-8859-1"?>
<!-- Generator: Adobe Illustrator 16.0.0, SVG Export Plug-In . SVG Version: 6.00 Build 0)  -->
<!DOCTYPE svg PUBLIC "-//W3C//DTD SVG 1.1//EN" "http://www.w3.org/Graphics/SVG/1.1/DTD/svg11.dtd">
<svg version="1.1" id="Layer_1" xmlns="http://www.w3.org/2000/svg" xmlns:xlink="http://www.w3.org/1999/xlink" x="0px" y="0px"
	 width="16px" height="15.917px" viewBox="0 0 16 15.917" style="enable-background:new 0 0 16 15.917;" xml:space="preserve">
<path id="Heart_Comment_2" d="M15,0H1C0.45,0,0,0.508,0,1.07v10.978C0,12.61,0.45,13,1,13h1v2.376c0,0.564,0.404,0.659,0.902,0.415
	L8.28,13H15c0.55,0,1-0.39,1-0.952V1.07C16,0.508,15.55,0,15,0z M11.414,6.595L8.347,9.894c-0.191,0.206-0.502,0.206-0.692,0
	L4.586,6.595c-0.781-0.812-0.781-2.126,0-2.938c0.781-0.811,2.05-0.811,2.832,0L8,4.391l0.582-0.734
	c0.784-0.811,2.051-0.811,2.832,0C12.195,4.468,12.195,5.783,11.414,6.595z"/>
<g>
</g>
<g>
</g>
<g>
</g>
<g>
</g>
<g>
</g>
<g>
</g>
<g>
</g>
<g>
</g>
<g>
</g>
<g>
</g>
<g>
</g>
<g>
</g>
<g>
</g>
<g>
</g>
<g>
</g>
</svg>
