<?xml version="1.0" encoding="iso-8859-1"?>
<!-- Generator: Adobe Illustrator 16.0.0, SVG Export Plug-In . SVG Version: 6.00 Build 0)  -->
<!DOCTYPE svg PUBLIC "-//W3C//DTD SVG 1.1//EN" "http://www.w3.org/Graphics/SVG/1.1/DTD/svg11.dtd">
<svg version="1.1" id="Layer_1" xmlns="http://www.w3.org/2000/svg" xmlns:xlink="http://www.w3.org/1999/xlink" x="0px" y="0px"
	 width="18px" height="14px" viewBox="0 0 18 14" style="enable-background:new 0 0 18 14;" xml:space="preserve">
<path id="ID_2" style="fill-rule:evenodd;clip-rule:evenodd;" d="M18,1.199C18,0.646,17.562,0,17.01,0h-16C0.457,0,0,0.547,0,1.1v12
	C0,13.652,0.457,14,1.01,14h16c0.553,0,0.99-0.248,0.99-0.801V1.199z M9,10.6C9,10.876,8.786,11,8.51,11h-5
	C3.233,11,3,10.876,3,10.6v-0.5c0-1.305,1-2.402,2-2.816V6.822C4,6.476,4.005,5.838,4.005,5.1c0-1.104,0.897-2,2.003-2
	c1.104,0,1.996,0.896,1.996,2C8.004,5.838,8,6.476,7,6.822v0.461C8,7.697,9,8.795,9,10.1V10.6z M15,10.5c0,0.276-0.224,0.5-0.5,0.5
	h-4c-0.276,0-0.5-0.224-0.5-0.5v-1C10,9.224,10.224,9,10.5,9h4C14.776,9,15,9.224,15,9.5V10.5z M15,7.5C15,7.776,14.776,8,14.5,8h-4
	C10.224,8,10,7.776,10,7.5v-1C10,6.224,10.224,6,10.5,6h4C14.776,6,15,6.224,15,6.5V7.5z M15,4.5C15,4.776,14.776,5,14.5,5h-4
	C10.224,5,10,4.776,10,4.5v-1C10,3.224,10.224,3,10.5,3h4C14.776,3,15,3.224,15,3.5V4.5z"/>
<g>
</g>
<g>
</g>
<g>
</g>
<g>
</g>
<g>
</g>
<g>
</g>
<g>
</g>
<g>
</g>
<g>
</g>
<g>
</g>
<g>
</g>
<g>
</g>
<g>
</g>
<g>
</g>
<g>
</g>
</svg>
