<?xml version="1.0" encoding="iso-8859-1"?>
<!-- Generator: Adobe Illustrator 16.0.0, SVG Export Plug-In . SVG Version: 6.00 Build 0)  -->
<!DOCTYPE svg PUBLIC "-//W3C//DTD SVG 1.1//EN" "http://www.w3.org/Graphics/SVG/1.1/DTD/svg11.dtd">
<svg version="1.1" id="Layer_1" xmlns="http://www.w3.org/2000/svg" xmlns:xlink="http://www.w3.org/1999/xlink" x="0px" y="0px"
	 width="16px" height="16px" viewBox="0 0 16 16" style="enable-background:new 0 0 16 16;" xml:space="preserve">
<g id="Image_Gallery_1_x2C__Photo_Gallery_1">
	<path d="M13,4c0-0.553-0.447-1-1-1H1C0.447,3,0,3.447,0,4v11c0,0.553,0.447,1,1,1h11c0.553,0,1-0.447,1-1V4z M8.459,5
		c0.828,0,1.5,0.672,1.5,1.5S9.287,8,8.459,8s-1.5-0.672-1.5-1.5S7.631,5,8.459,5z M2,13.5V9.125c0-0.276,0.325-0.658,0.521-0.854
		l1.376-1.293c0.195-0.195,0.554-0.195,0.749,0l2.668,3.646L8.97,8.979c0.195-0.195,0.518-0.195,0.713,0l1.128,1.293
		C10.979,10.439,11,10.742,11,11v2.5c0,0.276-0.224,0.5-0.5,0.5h-8C2.224,14,2,13.776,2,13.5z"/>
	<path d="M4,0C3.447,0,3,0.447,3,1v1h10c0.553,0,1,0.447,1,1v10h1c0.553,0,1-0.447,1-1V1c0-0.553-0.447-1-1-1H4z"/>
</g>
<g>
</g>
<g>
</g>
<g>
</g>
<g>
</g>
<g>
</g>
<g>
</g>
<g>
</g>
<g>
</g>
<g>
</g>
<g>
</g>
<g>
</g>
<g>
</g>
<g>
</g>
<g>
</g>
<g>
</g>
</svg>
