<?xml version="1.0" encoding="iso-8859-1"?>
<!-- Generator: Adobe Illustrator 16.0.0, SVG Export Plug-In . SVG Version: 6.00 Build 0)  -->
<!DOCTYPE svg PUBLIC "-//W3C//DTD SVG 1.1//EN" "http://www.w3.org/Graphics/SVG/1.1/DTD/svg11.dtd">
<svg version="1.1" id="Layer_1" xmlns="http://www.w3.org/2000/svg" xmlns:xlink="http://www.w3.org/1999/xlink" x="0px" y="0px"
	 width="16px" height="16px" viewBox="0 0 16 16" style="enable-background:new 0 0 16 16;" xml:space="preserve">
<g id="Inbox_3">
	<path style="fill-rule:evenodd;clip-rule:evenodd;" d="M15,0H1C0.447,0,0,0.447,0,1v13v1c0,0.553,0.447,1,1,1h14
		c0.553,0,1-0.447,1-1V1C16,0.447,15.553,0,15,0z M14,10h-2c-0.553,0-1,0.447-1,1v1.5c0,0.276-0.224,0.5-0.5,0.5h-5
		C5.224,13,5,12.776,5,12.5V11c0-0.553-0.447-1-1-1H2V2h12V10z"/>
	<path style="fill-rule:evenodd;clip-rule:evenodd;" d="M5.5,6H7V4.5C7,4.224,7.224,4,7.5,4h1C8.776,4,9,4.224,9,4.5V6h1.5
		C10.776,6,11,6.224,11,6.5v1C11,7.776,10.776,8,10.5,8H9v1.5C9,9.776,8.776,10,8.5,10h-1C7.224,10,7,9.776,7,9.5V8H5.5
		C5.224,8,5,7.776,5,7.5v-1C5,6.224,5.224,6,5.5,6z"/>
</g>
<g>
</g>
<g>
</g>
<g>
</g>
<g>
</g>
<g>
</g>
<g>
</g>
<g>
</g>
<g>
</g>
<g>
</g>
<g>
</g>
<g>
</g>
<g>
</g>
<g>
</g>
<g>
</g>
<g>
</g>
</svg>
