<?xml version="1.0" encoding="iso-8859-1"?>
<!-- Generator: Adobe Illustrator 16.0.0, SVG Export Plug-In . SVG Version: 6.00 Build 0)  -->
<!DOCTYPE svg PUBLIC "-//W3C//DTD SVG 1.1//EN" "http://www.w3.org/Graphics/SVG/1.1/DTD/svg11.dtd">
<svg version="1.1" id="Layer_1" xmlns="http://www.w3.org/2000/svg" xmlns:xlink="http://www.w3.org/1999/xlink" x="0px" y="0px"
	 width="16px" height="16px" viewBox="0 0 16 16" style="enable-background:new 0 0 16 16;" xml:space="preserve">
<path id="Info_1_x2C__About_1" style="fill-rule:evenodd;clip-rule:evenodd;" d="M16,1c0-0.553-0.447-1-1-1H1C0.447,0,0,0.447,0,1
	v14c0,0.553,0.447,1,1,1h14c0.553,0,1-0.447,1-1V1z M7,3.56c0-0.276,0.224-0.5,0.5-0.5h1c0.276,0,0.5,0.224,0.5,0.5v1
	c0,0.276-0.224,0.5-0.5,0.5h-1C7.224,5.06,7,4.836,7,4.56V3.56z M10,12.56C10,12.836,9.776,13,9.5,13H8c-0.553,0-1-0.388-1-0.94V8
	H6.5C6.224,8,6,7.836,6,7.56v-1C6,6.283,6.224,6,6.5,6H8c0.553,0,1,0.507,1,1.06V11h0.5c0.276,0,0.5,0.283,0.5,0.56V12.56z"/>
<g>
</g>
<g>
</g>
<g>
</g>
<g>
</g>
<g>
</g>
<g>
</g>
<g>
</g>
<g>
</g>
<g>
</g>
<g>
</g>
<g>
</g>
<g>
</g>
<g>
</g>
<g>
</g>
<g>
</g>
</svg>
