<?xml version="1.0" encoding="iso-8859-1"?>
<!-- Generator: Adobe Illustrator 16.0.0, SVG Export Plug-In . SVG Version: 6.00 Build 0)  -->
<!DOCTYPE svg PUBLIC "-//W3C//DTD SVG 1.1//EN" "http://www.w3.org/Graphics/SVG/1.1/DTD/svg11.dtd">
<svg version="1.1" id="Layer_1" xmlns="http://www.w3.org/2000/svg" xmlns:xlink="http://www.w3.org/1999/xlink" x="0px" y="0px"
	 width="10px" height="16px" viewBox="0 0 10 16" style="enable-background:new 0 0 10 16;" xml:space="preserve">
<path id="Iphone_1_x2C__Smart_Phone_3" style="fill-rule:evenodd;clip-rule:evenodd;" d="M9,0H1C0.447,0,0,0.447,0,1v14
	c0,0.553,0.447,1,1,1h8c0.553,0,1-0.447,1-1V1C10,0.447,9.553,0,9,0z M6,14.5C6,14.776,5.776,15,5.5,15h-1C4.224,15,4,14.776,4,14.5
	v-1C4,13.224,4.224,13,4.5,13h1C5.776,13,6,13.224,6,13.5V14.5z M8,12H2V3h6V12z M6,2H4V1h2V2z"/>
<g>
</g>
<g>
</g>
<g>
</g>
<g>
</g>
<g>
</g>
<g>
</g>
<g>
</g>
<g>
</g>
<g>
</g>
<g>
</g>
<g>
</g>
<g>
</g>
<g>
</g>
<g>
</g>
<g>
</g>
</svg>
