<?xml version="1.0" encoding="iso-8859-1"?>
<!-- Generator: Adobe Illustrator 16.0.0, SVG Export Plug-In . SVG Version: 6.00 Build 0)  -->
<!DOCTYPE svg PUBLIC "-//W3C//DTD SVG 1.1//EN" "http://www.w3.org/Graphics/SVG/1.1/DTD/svg11.dtd">
<svg version="1.1" id="Layer_1" xmlns="http://www.w3.org/2000/svg" xmlns:xlink="http://www.w3.org/1999/xlink" x="0px" y="0px"
	 width="16px" height="16px" viewBox="0 0 16 16" style="enable-background:new 0 0 16 16;" xml:space="preserve">
<g id="Journal_3">
	<path d="M0,1v14c0,0.553,0.447,1,1,1h1V0H1C0.447,0,0,0.447,0,1z"/>
	<path d="M15,0h-4H8H3v16h12c0.553,0,1-0.447,1-1V1C16,0.447,15.553,0,15,0z M13.906,6.453l-2.302,2.489l0.9,3.002
		c0.067,0.225,0.014,0.357-0.118,0.357c-0.05,0-0.112-0.021-0.186-0.059L9.5,10.724l-2.671,1.516C6.757,12.28,6.694,12.3,6.646,12.3
		c-0.134,0-0.187-0.135-0.123-0.359l0.872-2.998l-2.3-2.489C4.914,6.198,5,5.988,5.291,5.987l2.631-0.015l1.308-2.462
		C9.303,3.371,9.404,3.3,9.5,3.3c0.099,0,0.197,0.071,0.271,0.211l1.309,2.462l2.63,0.015C14,5.988,14.087,6.198,13.906,6.453z"/>
</g>
<g>
</g>
<g>
</g>
<g>
</g>
<g>
</g>
<g>
</g>
<g>
</g>
<g>
</g>
<g>
</g>
<g>
</g>
<g>
</g>
<g>
</g>
<g>
</g>
<g>
</g>
<g>
</g>
<g>
</g>
</svg>
