<?xml version="1.0" encoding="iso-8859-1"?>
<!-- Generator: Adobe Illustrator 16.0.0, SVG Export Plug-In . SVG Version: 6.00 Build 0)  -->
<!DOCTYPE svg PUBLIC "-//W3C//DTD SVG 1.1//EN" "http://www.w3.org/Graphics/SVG/1.1/DTD/svg11.dtd">
<svg version="1.1" id="Layer_1" xmlns="http://www.w3.org/2000/svg" xmlns:xlink="http://www.w3.org/1999/xlink" x="0px" y="0px"
	 width="15.766px" height="16px" viewBox="0 0 15.766 16" style="enable-background:new 0 0 15.766 16;" xml:space="preserve">
<path id="Key_1_x2C__Password_1" d="M8.68,5.79C8.805,5.379,8.953,4.951,8.953,4.5C8.953,2.015,6.97,0,4.484,0S0,2.015,0,4.5
	S2.022,9,4.508,9c0.451,0,0.758-0.087,1.168-0.21L5.766,9v2h2v2h2v2h2.25l1,1h2.75v-3L8.68,5.79z M3.516,5
	c-0.829,0-1.5-0.671-1.5-1.5S2.687,2,3.516,2s1.5,0.671,1.5,1.5S4.345,5,3.516,5z"/>
<g>
</g>
<g>
</g>
<g>
</g>
<g>
</g>
<g>
</g>
<g>
</g>
<g>
</g>
<g>
</g>
<g>
</g>
<g>
</g>
<g>
</g>
<g>
</g>
<g>
</g>
<g>
</g>
<g>
</g>
</svg>
