<?xml version="1.0" encoding="iso-8859-1"?>
<!-- Generator: Adobe Illustrator 16.0.0, SVG Export Plug-In . SVG Version: 6.00 Build 0)  -->
<!DOCTYPE svg PUBLIC "-//W3C//DTD SVG 1.1//EN" "http://www.w3.org/Graphics/SVG/1.1/DTD/svg11.dtd">
<svg version="1.1" id="Layer_1" xmlns="http://www.w3.org/2000/svg" xmlns:xlink="http://www.w3.org/1999/xlink" x="0px" y="0px"
	 width="16.9px" height="8px" viewBox="0 0 16.9 8" style="enable-background:new 0 0 16.9 8;" xml:space="preserve">
<path id="Key_2_x2C__Password_2" d="M14.9,2H6V1c0-0.553-0.547-1-1.1-1h-4C0.347,0,0,0.447,0,1v6.125C0,7.678,0.347,8,0.9,8h4
	C5.453,8,6,7.553,6,7V6h1.9l1,1l1-1h1l1,1l1-1h2l2-2L14.9,2z M4,5.5C4,5.776,3.776,6,3.5,6h-1C2.224,6,2,5.776,2,5.5v-3
	C2,2.224,2.224,2,2.5,2h1C3.776,2,4,2.224,4,2.5V5.5z"/>
<g>
</g>
<g>
</g>
<g>
</g>
<g>
</g>
<g>
</g>
<g>
</g>
<g>
</g>
<g>
</g>
<g>
</g>
<g>
</g>
<g>
</g>
<g>
</g>
<g>
</g>
<g>
</g>
<g>
</g>
</svg>
