<?xml version="1.0" encoding="iso-8859-1"?>
<!-- Generator: Adobe Illustrator 16.0.0, SVG Export Plug-In . SVG Version: 6.00 Build 0)  -->
<!DOCTYPE svg PUBLIC "-//W3C//DTD SVG 1.1//EN" "http://www.w3.org/Graphics/SVG/1.1/DTD/svg11.dtd">
<svg version="1.1" id="Layer_1" xmlns="http://www.w3.org/2000/svg" xmlns:xlink="http://www.w3.org/1999/xlink" x="0px" y="0px"
	 width="16px" height="14px" viewBox="0 0 16 14" style="enable-background:new 0 0 16 14;" xml:space="preserve">
<g id="Laptop_1">
	<path style="fill-rule:evenodd;clip-rule:evenodd;" d="M4.5,5h7C11.776,5,12,4.776,12,4.5v-1C12,3.224,11.776,3,11.5,3h-7
		C4.224,3,4,3.224,4,3.5v1C4,4.776,4.224,5,4.5,5z"/>
	<path style="fill-rule:evenodd;clip-rule:evenodd;" d="M4.5,8h7C11.776,8,12,7.776,12,7.5v-1C12,6.224,11.776,6,11.5,6h-7
		C4.224,6,4,6.224,4,6.5v1C4,7.776,4.224,8,4.5,8z"/>
	<path style="fill-rule:evenodd;clip-rule:evenodd;" d="M15,11v-1V1c0-0.553-0.447-1-1-1H2C1.447,0,1,0.447,1,1v9v1
		c-0.553,0-1,0.447-1,1v1c0,0.553,0.447,1,1,1h14c0.553,0,1-0.447,1-1v-1C16,11.447,15.553,11,15,11z M10,12H6v-1h4V12z M13,9H3V2
		h10V9z"/>
</g>
<g>
</g>
<g>
</g>
<g>
</g>
<g>
</g>
<g>
</g>
<g>
</g>
<g>
</g>
<g>
</g>
<g>
</g>
<g>
</g>
<g>
</g>
<g>
</g>
<g>
</g>
<g>
</g>
<g>
</g>
</svg>
