<?xml version="1.0" encoding="iso-8859-1"?>
<!-- Generator: Adobe Illustrator 16.0.0, SVG Export Plug-In . SVG Version: 6.00 Build 0)  -->
<!DOCTYPE svg PUBLIC "-//W3C//DTD SVG 1.1//EN" "http://www.w3.org/Graphics/SVG/1.1/DTD/svg11.dtd">
<svg version="1.1" id="Layer_1" xmlns="http://www.w3.org/2000/svg" xmlns:xlink="http://www.w3.org/1999/xlink" x="0px" y="0px"
	 width="16px" height="16px" viewBox="0 0 16 16" style="enable-background:new 0 0 16 16;" xml:space="preserve">
<path id="Left_Circle_2" style="fill-rule:evenodd;clip-rule:evenodd;" d="M8,0C3.582,0,0,3.582,0,8s3.582,8,8,8s8-3.582,8-8
	S12.418,0,8,0z M9.83,10.419c0.189,0.197,0.189,0.518,0,0.715l-0.684,0.717c-0.188,0.199-0.494,0.199-0.684,0L5.141,8.371
	c-0.188-0.197-0.188-0.518,0-0.717l3.35-3.507c0.189-0.197,0.496-0.197,0.684,0l0.684,0.717c0.189,0.197,0.189,0.518,0,0.716
	L7.535,8.014L9.83,10.419z"/>
<g>
</g>
<g>
</g>
<g>
</g>
<g>
</g>
<g>
</g>
<g>
</g>
<g>
</g>
<g>
</g>
<g>
</g>
<g>
</g>
<g>
</g>
<g>
</g>
<g>
</g>
<g>
</g>
<g>
</g>
</svg>
