<?xml version="1.0" encoding="iso-8859-1"?>
<!-- Generator: Adobe Illustrator 16.0.0, SVG Export Plug-In . SVG Version: 6.00 Build 0)  -->
<!DOCTYPE svg PUBLIC "-//W3C//DTD SVG 1.1//EN" "http://www.w3.org/Graphics/SVG/1.1/DTD/svg11.dtd">
<svg version="1.1" id="Layer_1" xmlns="http://www.w3.org/2000/svg" xmlns:xlink="http://www.w3.org/1999/xlink" x="0px" y="0px"
	 width="10px" height="8px" viewBox="0 0 10 8" style="enable-background:new 0 0 10 8;" xml:space="preserve">
<g id="Left_Angle_Quote_1">
	<path d="M2.517,3.984l2.312-2.418c0.188-0.195,0.188-0.514,0-0.709L4.15,0.146c-0.188-0.195-0.491-0.195-0.679,0L0.141,3.629
		c-0.188,0.197-0.188,0.514,0,0.711l3.361,3.513c0.188,0.196,0.491,0.196,0.679,0l0.679-0.709c0.188-0.196,0.188-0.514,0-0.71
		L2.517,3.984z"/>
	<path d="M9.859,6.434L7.517,3.984l2.312-2.418c0.188-0.195,0.188-0.514,0-0.709L9.15,0.146c-0.188-0.195-0.491-0.195-0.679,0
		L5.141,3.629c-0.188,0.197-0.188,0.514,0,0.711l3.361,3.513c0.188,0.196,0.491,0.196,0.679,0l0.679-0.709
		C10.047,6.947,10.047,6.63,9.859,6.434z"/>
</g>
<g>
</g>
<g>
</g>
<g>
</g>
<g>
</g>
<g>
</g>
<g>
</g>
<g>
</g>
<g>
</g>
<g>
</g>
<g>
</g>
<g>
</g>
<g>
</g>
<g>
</g>
<g>
</g>
<g>
</g>
</svg>
