<?xml version="1.0" encoding="iso-8859-1"?>
<!-- Generator: Adobe Illustrator 16.0.0, SVG Export Plug-In . SVG Version: 6.00 Build 0)  -->
<!DOCTYPE svg PUBLIC "-//W3C//DTD SVG 1.1//EN" "http://www.w3.org/Graphics/SVG/1.1/DTD/svg11.dtd">
<svg version="1.1" id="Layer_1" xmlns="http://www.w3.org/2000/svg" xmlns:xlink="http://www.w3.org/1999/xlink" x="0px" y="0px"
	 width="10px" height="16px" viewBox="0 0 10 16" style="enable-background:new 0 0 10 16;" xml:space="preserve">
<g id="Lightbulb_1_x2C__Idea_1">
	<path d="M0,5c0,1.125,0.205,1.871,0.998,2.998c0.694,0.986,1.707,2.322,1.948,3.506C3.002,11.774,3.224,12,3.5,12h3
		c0.276,0,0.498-0.226,0.554-0.496c0.241-1.184,1.254-2.52,1.948-3.506C9.795,6.871,10,6.125,10,5c0-2.762-2.238-5-5-5S0,2.238,0,5z
		"/>
	<path d="M4,15v0.5C4,15.776,4.224,16,4.5,16h1C5.776,16,6,15.776,6,15.5V15h0.5C6.776,15,7,14.776,7,14.5v-1
		C7,13.224,6.776,13,6.5,13h-3C3.224,13,3,13.224,3,13.5v1C3,14.776,3.224,15,3.5,15H4z"/>
</g>
<g>
</g>
<g>
</g>
<g>
</g>
<g>
</g>
<g>
</g>
<g>
</g>
<g>
</g>
<g>
</g>
<g>
</g>
<g>
</g>
<g>
</g>
<g>
</g>
<g>
</g>
<g>
</g>
<g>
</g>
</svg>
