<?xml version="1.0" encoding="iso-8859-1"?>
<!-- Generator: Adobe Illustrator 16.0.0, SVG Export Plug-In . SVG Version: 6.00 Build 0)  -->
<!DOCTYPE svg PUBLIC "-//W3C//DTD SVG 1.1//EN" "http://www.w3.org/Graphics/SVG/1.1/DTD/svg11.dtd">
<svg version="1.1" id="Layer_1" xmlns="http://www.w3.org/2000/svg" xmlns:xlink="http://www.w3.org/1999/xlink" x="0px" y="0px"
	 width="16px" height="8px" viewBox="0 0 16 8" style="enable-background:new 0 0 16 8;" xml:space="preserve">
<g id="Link_3">
	<path d="M4.635,6.477C4.499,6.236,4.422,6,4.205,6C4.092,6,4,6,4,6C2.9,6,2,5.1,2,4s0.9-2,2-2h3c1.1,0,2,0.93,2,2.029
		c0,0.551,0.45,1.016,1,1.016s1-0.443,1-0.993c0-0.35-0.04-0.676-0.13-0.996c-0.045-0.178-0.103-0.348-0.171-0.515
		c-0.002-0.006-0.006-0.011-0.008-0.017c-0.193-0.469-0.471-0.891-0.817-1.248C9.862,1.264,9.849,1.254,9.836,1.242
		C9.38,0.782,8.814,0.401,8.18,0.209C7.8,0.089,7.41,0,7,0H4C1.79,0,0,1.79,0,4s1.79,4,4,4h1.5c0.276,0,0.319-0.118,0.116-0.305
		C5.228,7.338,4.896,6.936,4.635,6.477z"/>
	<path d="M12,0h-1.51c-0.276,0-0.318,0.16-0.114,0.346c0.391,0.355,0.726,0.757,0.984,1.22C11.495,1.807,11.594,2,11.79,2
		C11.906,2,12,2,12,2c1.1,0,2,0.9,2,2s-0.9,2-2,2H9C7.9,6,7,5.129,7,4.029C7,3.48,6.55,3.045,6,3.045S5,3.502,5,4.052
		c0,0.69,0.18,1.344,0.48,1.904C5.54,6.065,5.61,6.178,5.67,6.277c0.08,0.12,0.16,0.222,0.24,0.321C6,6.709,6.1,6.819,6.21,6.92
		c0.11,0.109,0.22,0.21,0.34,0.3c0.07,0.06,0.141,0.079,0.22,0.13C7.41,7.779,8.18,8,9,8h3c2.21,0,4-1.79,4-4S14.21,0,12,0z"/>
</g>
<g>
</g>
<g>
</g>
<g>
</g>
<g>
</g>
<g>
</g>
<g>
</g>
<g>
</g>
<g>
</g>
<g>
</g>
<g>
</g>
<g>
</g>
<g>
</g>
<g>
</g>
<g>
</g>
<g>
</g>
</svg>
