<?xml version="1.0" encoding="iso-8859-1"?>
<!-- Generator: Adobe Illustrator 16.0.0, SVG Export Plug-In . SVG Version: 6.00 Build 0)  -->
<!DOCTYPE svg PUBLIC "-//W3C//DTD SVG 1.1//EN" "http://www.w3.org/Graphics/SVG/1.1/DTD/svg11.dtd">
<svg version="1.1" id="Layer_1" xmlns="http://www.w3.org/2000/svg" xmlns:xlink="http://www.w3.org/1999/xlink" x="0px" y="0px"
	 width="14px" height="16.706px" viewBox="0 0 14 16.706" style="enable-background:new 0 0 14 16.706;" xml:space="preserve">
<g id="Location_Pin_3">
	<circle cx="7" cy="7" r="2"/>
	<path d="M7,0C3.14,0,0,3.141,0,7c0,4.047,4.227,7.985,6.09,9.454c0.213,0.168,0.627,0.252,0.91,0.252
		c0.296,0,0.694-0.09,0.912-0.271C9.717,14.942,14,10.979,14,7C14,3.141,10.86,0,7,0z M7,11c-2.209,0-4-1.792-4-4s1.791-4,4-4
		s4,1.792,4,4S9.209,11,7,11z"/>
</g>
<g>
</g>
<g>
</g>
<g>
</g>
<g>
</g>
<g>
</g>
<g>
</g>
<g>
</g>
<g>
</g>
<g>
</g>
<g>
</g>
<g>
</g>
<g>
</g>
<g>
</g>
<g>
</g>
<g>
</g>
</svg>
