<?xml version="1.0" encoding="iso-8859-1"?>
<!-- Generator: Adobe Illustrator 16.0.0, SVG Export Plug-In . SVG Version: 6.00 Build 0)  -->
<!DOCTYPE svg PUBLIC "-//W3C//DTD SVG 1.1//EN" "http://www.w3.org/Graphics/SVG/1.1/DTD/svg11.dtd">
<svg version="1.1" id="Layer_1" xmlns="http://www.w3.org/2000/svg" xmlns:xlink="http://www.w3.org/1999/xlink" x="0px" y="0px"
	 width="12px" height="16px" viewBox="0 0 12 16" style="enable-background:new 0 0 12 16;" xml:space="preserve">
<path id="Lock_2" d="M11,7V5c0-2.762-2.238-5-5-5S1,2.238,1,5v2C0.447,7,0,7.447,0,8v7c0,0.553,0.447,1,1,1h10c0.553,0,1-0.447,1-1
	V8C12,7.447,11.553,7,11,7z M9,7H8H4H3V5c0-1.654,1.346-3,3-3s3,1.346,3,3V7z M6,14L6,14c-0.552,0-1-0.447-1-1v-3
	c0-0.553,0.448-1,1-1l0,0c0.552,0,1,0.447,1,1v3C7,13.553,6.552,14,6,14z"/>
<g>
</g>
<g>
</g>
<g>
</g>
<g>
</g>
<g>
</g>
<g>
</g>
<g>
</g>
<g>
</g>
<g>
</g>
<g>
</g>
<g>
</g>
<g>
</g>
<g>
</g>
<g>
</g>
<g>
</g>
</svg>
