<?xml version="1.0" encoding="iso-8859-1"?>
<!-- Generator: Adobe Illustrator 16.0.0, SVG Export Plug-In . SVG Version: 6.00 Build 0)  -->
<!DOCTYPE svg PUBLIC "-//W3C//DTD SVG 1.1//EN" "http://www.w3.org/Graphics/SVG/1.1/DTD/svg11.dtd">
<svg version="1.1" id="Layer_1" xmlns="http://www.w3.org/2000/svg" xmlns:xlink="http://www.w3.org/1999/xlink" x="0px" y="0px"
	 width="16px" height="12px" viewBox="0 0 16 12" style="enable-background:new 0 0 16 12;" xml:space="preserve">
<path id="Mail_4_x2C__Envelope_4" style="fill-rule:evenodd;clip-rule:evenodd;" d="M10.899,7.281L8.391,9.287
	c-0.216,0.173-0.565,0.173-0.781,0L5.101,7.281C4.885,7.108,4.535,7.108,4.319,7.28L0,10.729V11c0,0.439,0.45,1,1,1h14
	c0.55,0,1-0.561,1-1v-0.271L11.681,7.28C11.465,7.108,11.115,7.108,10.899,7.281z M13.101,6.145l2.509,2.007
	C15.825,8.324,16,8.24,16,7.964V3.7c0-0.276-0.175-0.36-0.391-0.188L13.101,5.52C12.885,5.692,12.885,5.972,13.101,6.145z M1,0
	C0.45,0,0,0.561,0,1l7.568,6.024c0.217,0.172,0.567,0.173,0.784,0.002L16,1c0-0.439-0.45-1-1-1H1z M0,3.7v4.264
	c0,0.276,0.175,0.36,0.391,0.188l2.509-2.007c0.216-0.173,0.216-0.452,0-0.625L0.391,3.513C0.175,3.34,0,3.424,0,3.7z"/>
<g>
</g>
<g>
</g>
<g>
</g>
<g>
</g>
<g>
</g>
<g>
</g>
<g>
</g>
<g>
</g>
<g>
</g>
<g>
</g>
<g>
</g>
<g>
</g>
<g>
</g>
<g>
</g>
<g>
</g>
</svg>
