<?xml version="1.0" encoding="iso-8859-1"?>
<!-- Generator: Adobe Illustrator 16.0.0, SVG Export Plug-In . SVG Version: 6.00 Build 0)  -->
<!DOCTYPE svg PUBLIC "-//W3C//DTD SVG 1.1//EN" "http://www.w3.org/Graphics/SVG/1.1/DTD/svg11.dtd">
<svg version="1.1" id="Layer_1" xmlns="http://www.w3.org/2000/svg" xmlns:xlink="http://www.w3.org/1999/xlink" x="0px" y="0px"
	 width="16px" height="14px" viewBox="0 0 16 14" style="enable-background:new 0 0 16 14;" xml:space="preserve">
<path id="Mail_3_x2C__Envelope_3" style="fill-rule:evenodd;clip-rule:evenodd;" d="M15,0H1C0.447,0,0,0.447,0,1v12
	c0,0.553,0.447,1,1,1h14c0.553,0,1-0.447,1-1V1C16,0.447,15.553,0,15,0z M7.5,11h-5C2.224,11,2,10.776,2,10.5v-1
	C2,9.224,2.224,9,2.5,9h5C7.776,9,8,9.224,8,9.5v1C8,10.776,7.776,11,7.5,11z M7.5,8h-5C2.224,8,2,7.776,2,7.5v-1
	C2,6.224,2.224,6,2.5,6h5C7.776,6,8,6.224,8,6.5v1C8,7.776,7.776,8,7.5,8z M13.5,5h-2C11.224,5,11,4.776,11,4.5v-2
	C11,2.224,11.224,2,11.5,2h2C13.776,2,14,2.224,14,2.5v2C14,4.776,13.776,5,13.5,5z"/>
<g>
</g>
<g>
</g>
<g>
</g>
<g>
</g>
<g>
</g>
<g>
</g>
<g>
</g>
<g>
</g>
<g>
</g>
<g>
</g>
<g>
</g>
<g>
</g>
<g>
</g>
<g>
</g>
<g>
</g>
</svg>
