<?xml version="1.0" encoding="iso-8859-1"?>
<!-- Generator: Adobe Illustrator 16.0.0, SVG Export Plug-In . SVG Version: 6.00 Build 0)  -->
<!DOCTYPE svg PUBLIC "-//W3C//DTD SVG 1.1//EN" "http://www.w3.org/Graphics/SVG/1.1/DTD/svg11.dtd">
<svg version="1.1" id="Layer_1" xmlns="http://www.w3.org/2000/svg" xmlns:xlink="http://www.w3.org/1999/xlink" x="0px" y="0px"
	 width="17px" height="15.658px" viewBox="0 0 17 15.658" style="enable-background:new 0 0 17 15.658;" xml:space="preserve">
<g id="Map_1_x2C__Location_1">
	<path d="M4.558,2.105L0.896,0.276C0.402,0.029,0,0.276,0,0.829v11c0,0.553,0,1,0.899,1.447l3.655,1.829
		C4.803,15.229,5,15.105,5,14.829v-12C5,2.553,4.805,2.229,4.558,2.105z"/>
	<path d="M12.452,0.553C12.205,0.43,12,0.553,12,0.829v12c0,0.276,0.205,0.601,0.452,0.724l3.655,1.829
		c0.494,0.247,0.893,0,0.893-0.553v-11c0-0.553,0-1-0.893-1.447L12.452,0.553z"/>
	<path d="M10.782,0.003c-0.076,0.02-0.144,0.048-0.204,0.084L6.433,2.572C6.195,2.714,6,3.053,6,3.329v11.858
		c0,0.276,0.107,0.498,0.228,0.468c0.076-0.02,0.149-0.048,0.208-0.084l4.14-2.485C10.812,12.944,11,12.605,11,12.329V0.471
		C11,0.194,10.902-0.027,10.782,0.003z"/>
</g>
<g>
</g>
<g>
</g>
<g>
</g>
<g>
</g>
<g>
</g>
<g>
</g>
<g>
</g>
<g>
</g>
<g>
</g>
<g>
</g>
<g>
</g>
<g>
</g>
<g>
</g>
<g>
</g>
<g>
</g>
</svg>
