<?xml version="1.0" encoding="iso-8859-1"?>
<!-- Generator: Adobe Illustrator 16.0.0, SVG Export Plug-In . SVG Version: 6.00 Build 0)  -->
<!DOCTYPE svg PUBLIC "-//W3C//DTD SVG 1.1//EN" "http://www.w3.org/Graphics/SVG/1.1/DTD/svg11.dtd">
<svg version="1.1" id="Layer_1" xmlns="http://www.w3.org/2000/svg" xmlns:xlink="http://www.w3.org/1999/xlink" x="0px" y="0px"
	 width="16px" height="16px" viewBox="0 0 16 16" style="enable-background:new 0 0 16 16;" xml:space="preserve">
<g id="Marquee_2">
	<path d="M1.5,5C1.776,5,2,4.776,2,4.5V2h2.5C4.776,2,5,1.776,5,1.5v-1C5,0.224,4.776,0,4.5,0H1C0.447,0,0,0.447,0,1v3.5
		C0,4.776,0.224,5,0.5,5H1.5z"/>
	<path d="M2,11.5C2,11.224,1.776,11,1.5,11h-1C0.224,11,0,11.224,0,11.5V15c0,0.553,0.447,1,1,1h3.5C4.776,16,5,15.776,5,15.5v-1
		C5,14.224,4.776,14,4.5,14H2V11.5z"/>
	<path d="M14.5,11c-0.276,0-0.5,0.224-0.5,0.5V14h-2.5c-0.276,0-0.5,0.224-0.5,0.5v1c0,0.276,0.224,0.5,0.5,0.5H15
		c0.553,0,1-0.447,1-1v-3.5c0-0.276-0.224-0.5-0.5-0.5H14.5z"/>
	<path d="M11.5,0C11.224,0,11,0.224,11,0.5v1C11,1.776,11.224,2,11.5,2H14v2.5C14,4.776,14.224,5,14.5,5h1C15.776,5,16,4.776,16,4.5
		V1c0-0.553-0.447-1-1-1H11.5z"/>
</g>
<g>
</g>
<g>
</g>
<g>
</g>
<g>
</g>
<g>
</g>
<g>
</g>
<g>
</g>
<g>
</g>
<g>
</g>
<g>
</g>
<g>
</g>
<g>
</g>
<g>
</g>
<g>
</g>
<g>
</g>
</svg>
