<?xml version="1.0" encoding="iso-8859-1"?>
<!-- Generator: Adobe Illustrator 16.0.0, SVG Export Plug-In . SVG Version: 6.00 Build 0)  -->
<!DOCTYPE svg PUBLIC "-//W3C//DTD SVG 1.1//EN" "http://www.w3.org/Graphics/SVG/1.1/DTD/svg11.dtd">
<svg version="1.1" id="Layer_1" xmlns="http://www.w3.org/2000/svg" xmlns:xlink="http://www.w3.org/1999/xlink" x="0px" y="0px"
	 width="16px" height="16px" viewBox="0 0 16 16" style="enable-background:new 0 0 16 16;" xml:space="preserve">
<g id="Media_Gallery_1_x2C__Video_Gallery_1">
	<path d="M12,3H1C0.447,3,0,3.447,0,4v11c0,0.553,0.447,1,1,1h11c0.553,0,1-0.447,1-1V4C13,3.447,12.553,3,12,3z M9.731,10.084
		l-4.513,2.748C4.758,13.213,4,12.924,4,12.182V6.818c0-0.74,0.758-1.032,1.219-0.65l4.322,2.748
		C10.025,9.239,10.215,9.762,9.731,10.084z"/>
	<path d="M15,0H4C3.447,0,3,0.447,3,1v1h10c0.553,0,1,0.447,1,1v10h1c0.553,0,1-0.447,1-1V1C16,0.447,15.553,0,15,0z"/>
</g>
<g>
</g>
<g>
</g>
<g>
</g>
<g>
</g>
<g>
</g>
<g>
</g>
<g>
</g>
<g>
</g>
<g>
</g>
<g>
</g>
<g>
</g>
<g>
</g>
<g>
</g>
<g>
</g>
<g>
</g>
</svg>
