<?xml version="1.0" encoding="iso-8859-1"?>
<!-- Generator: Adobe Illustrator 16.0.0, SVG Export Plug-In . SVG Version: 6.00 Build 0)  -->
<!DOCTYPE svg PUBLIC "-//W3C//DTD SVG 1.1//EN" "http://www.w3.org/Graphics/SVG/1.1/DTD/svg11.dtd">
<svg version="1.1" id="Layer_1" xmlns="http://www.w3.org/2000/svg" xmlns:xlink="http://www.w3.org/1999/xlink" x="0px" y="0px"
	 width="16px" height="14.9px" viewBox="0 0 16 14.9" style="enable-background:new 0 0 16 14.9;" xml:space="preserve">
<path id="Megaphone_1_x2C__Announcement_1" d="M14,1v0.191L0.79,4.022C0.329,4.121,0,4.528,0,5v3c0,0.472,0.329,0.879,0.79,0.978
	L3,9.451V14c0,0.553,0.447,0.9,1,0.9h5c0.553,0,1-0.348,1-0.9v-3.049l4,0.857V12c0,0.553,0.447,1,1,1s1-0.447,1-1v-1V2V1
	c0-0.553-0.447-1-1-1S14,0.447,14,1z M5,12.9V9.88l3,0.643V12.9H5z"/>
<g>
</g>
<g>
</g>
<g>
</g>
<g>
</g>
<g>
</g>
<g>
</g>
<g>
</g>
<g>
</g>
<g>
</g>
<g>
</g>
<g>
</g>
<g>
</g>
<g>
</g>
<g>
</g>
<g>
</g>
</svg>
