<?xml version="1.0" encoding="iso-8859-1"?>
<!-- Generator: Adobe Illustrator 16.0.0, SVG Export Plug-In . SVG Version: 6.00 Build 0)  -->
<!DOCTYPE svg PUBLIC "-//W3C//DTD SVG 1.1//EN" "http://www.w3.org/Graphics/SVG/1.1/DTD/svg11.dtd">
<svg version="1.1" id="Layer_1" xmlns="http://www.w3.org/2000/svg" xmlns:xlink="http://www.w3.org/1999/xlink" x="0px" y="0px"
	 width="13px" height="16px" viewBox="0 0 13 16" style="enable-background:new 0 0 13 16;" xml:space="preserve">
<g id="Microphone_2_x2C__Mute_2">
	<path d="M12,7V6c0-0.553-0.447-1-1-1s-1,0.447-1,1v1c0,0.054-0.014,0.104-0.016,0.156l1.703,1.703C11.88,8.272,12,7.652,12,7z"/>
	<path d="M6.156,8.984L4,6.828V7c0,1.104,0.896,2,2,2C6.054,9,6.104,8.988,6.156,8.984z"/>
	<path d="M8,2c0-1.104-0.896-2-2-2C5.142,0,4.415,0.544,4.132,1.304L8,5.172V2z"/>
	<path d="M9,14H7v-1.09c0.807-0.136,1.549-0.446,2.213-0.869L7.752,10.58C7.221,10.841,6.632,11,6,11c-2.21,0-4-1.791-4-4V6
		c0-0.553-0.447-1-1-1S0,5.447,0,6v1c0,2.973,2.163,5.434,5,5.91V14H3c-0.553,0-1,0.447-1,1s0.447,1,1,1h6c0.553,0,1-0.447,1-1
		S9.553,14,9,14z"/>
	<path d="M12.854,11.439L1.561,0.146c-0.195-0.195-0.512-0.195-0.707,0L0.146,0.854c-0.195,0.195-0.195,0.512,0,0.707l11.293,11.293
		c0.195,0.195,0.512,0.195,0.707,0l0.707-0.707C13.049,11.951,13.049,11.635,12.854,11.439z"/>
</g>
<g>
</g>
<g>
</g>
<g>
</g>
<g>
</g>
<g>
</g>
<g>
</g>
<g>
</g>
<g>
</g>
<g>
</g>
<g>
</g>
<g>
</g>
<g>
</g>
<g>
</g>
<g>
</g>
<g>
</g>
</svg>
