<?xml version="1.0" encoding="iso-8859-1"?>
<!-- Generator: Adobe Illustrator 16.0.0, SVG Export Plug-In . SVG Version: 6.00 Build 0)  -->
<!DOCTYPE svg PUBLIC "-//W3C//DTD SVG 1.1//EN" "http://www.w3.org/Graphics/SVG/1.1/DTD/svg11.dtd">
<svg version="1.1" id="Layer_1" xmlns="http://www.w3.org/2000/svg" xmlns:xlink="http://www.w3.org/1999/xlink" x="0px" y="0px"
	 width="16px" height="16px" viewBox="0 0 16 16" style="enable-background:new 0 0 16 16;" xml:space="preserve">
<g id="Move_Right_1_x2C__Logout_1">
	<path style="fill-rule:evenodd;clip-rule:evenodd;" d="M1,16h14c0.553,0,1-0.447,1-1V1c0-0.553-0.447-1-1-1H1C0.447,0,0,0.447,0,1
		v3.5C0,4.776,0.224,5,0.5,5h1C1.776,5,2,4.776,2,4.5V2h12v12H2v-2.5C2,11.224,1.776,11,1.5,11h-1C0.224,11,0,11.224,0,11.5V15
		C0,15.553,0.447,16,1,16z"/>
	<path style="fill-rule:evenodd;clip-rule:evenodd;" d="M10.5,7H5V5.305C5,5.008,4.735,4.911,4.5,5.09L1.178,7.677
		C0.943,7.855,0.939,8.145,1.174,8.323L4.5,10.91C4.736,11.089,5,10.992,5,10.695V9h5.5C10.775,9,11,8.776,11,8.5v-1
		C11,7.224,10.775,7,10.5,7z"/>
</g>
<g>
</g>
<g>
</g>
<g>
</g>
<g>
</g>
<g>
</g>
<g>
</g>
<g>
</g>
<g>
</g>
<g>
</g>
<g>
</g>
<g>
</g>
<g>
</g>
<g>
</g>
<g>
</g>
<g>
</g>
</svg>
