<?xml version="1.0" encoding="iso-8859-1"?>
<!-- Generator: Adobe Illustrator 16.0.0, SVG Export Plug-In . SVG Version: 6.00 Build 0)  -->
<!DOCTYPE svg PUBLIC "-//W3C//DTD SVG 1.1//EN" "http://www.w3.org/Graphics/SVG/1.1/DTD/svg11.dtd">
<svg version="1.1" id="Layer_1" xmlns="http://www.w3.org/2000/svg" xmlns:xlink="http://www.w3.org/1999/xlink" x="0px" y="0px"
	 width="16px" height="16px" viewBox="0 0 16 16" style="enable-background:new 0 0 16 16;" xml:space="preserve">
<path id="New_Browser_1" style="fill-rule:evenodd;clip-rule:evenodd;" d="M16,1c0-0.552-0.447-1-1-1H1C0.447,0,0,0.448,0,1v14
	c0,0.552,0.447,1,1,1h14c0.553,0,1-0.448,1-1V1z M4.01,4h-2V2h2V4z M11,10.5c0,0.276-0.214,0.5-0.49,0.5H9v1.5
	C9,12.776,8.786,13,8.51,13h-1C7.233,13,7,12.776,7,12.5V11H5.51C5.233,11,5,10.776,5,10.5v-1C5,9.224,5.233,9,5.51,9H7V7.5
	C7,7.224,7.233,7,7.51,7h1C8.786,7,9,7.224,9,7.5V9h1.51C10.786,9,11,9.224,11,9.5V10.5z M14,4H6V2h8V4z"/>
<g>
</g>
<g>
</g>
<g>
</g>
<g>
</g>
<g>
</g>
<g>
</g>
<g>
</g>
<g>
</g>
<g>
</g>
<g>
</g>
<g>
</g>
<g>
</g>
<g>
</g>
<g>
</g>
<g>
</g>
</svg>
