<?xml version="1.0" encoding="iso-8859-1"?>
<!-- Generator: Adobe Illustrator 16.0.0, SVG Export Plug-In . SVG Version: 6.00 Build 0)  -->
<!DOCTYPE svg PUBLIC "-//W3C//DTD SVG 1.1//EN" "http://www.w3.org/Graphics/SVG/1.1/DTD/svg11.dtd">
<svg version="1.1" id="Layer_1" xmlns="http://www.w3.org/2000/svg" xmlns:xlink="http://www.w3.org/1999/xlink" x="0px" y="0px"
	 width="13px" height="8px" viewBox="0 0 13 8" style="enable-background:new 0 0 13 8;" xml:space="preserve">
<g id="Next_3">
	<path d="M11,0.5v7C11,7.776,11.224,8,11.5,8h1C12.776,8,13,7.776,13,7.5v-7C13,0.224,12.776,0,12.5,0h-1C11.224,0,11,0.224,11,0.5z
		"/>
	<path d="M6.498,0.147c-0.188-0.196-0.491-0.196-0.679,0L5.141,0.856c-0.188,0.196-0.188,0.514,0,0.71l2.343,2.449L5.171,6.434
		c-0.188,0.195-0.188,0.514,0,0.709L5.85,7.854c0.188,0.195,0.491,0.195,0.679,0l3.331-3.482c0.188-0.197,0.188-0.514,0-0.711
		L6.498,0.147z"/>
	<path d="M1.498,0.147c-0.188-0.196-0.491-0.196-0.679,0L0.141,0.856c-0.188,0.196-0.188,0.514,0,0.71l2.343,2.449L0.171,6.434
		c-0.188,0.195-0.188,0.514,0,0.709L0.85,7.854c0.188,0.195,0.491,0.195,0.679,0l3.331-3.482c0.188-0.197,0.188-0.514,0-0.711
		L1.498,0.147z"/>
</g>
<g>
</g>
<g>
</g>
<g>
</g>
<g>
</g>
<g>
</g>
<g>
</g>
<g>
</g>
<g>
</g>
<g>
</g>
<g>
</g>
<g>
</g>
<g>
</g>
<g>
</g>
<g>
</g>
<g>
</g>
</svg>
