<?xml version="1.0" encoding="iso-8859-1"?>
<!-- Generator: Adobe Illustrator 16.0.0, SVG Export Plug-In . SVG Version: 6.00 Build 0)  -->
<!DOCTYPE svg PUBLIC "-//W3C//DTD SVG 1.1//EN" "http://www.w3.org/Graphics/SVG/1.1/DTD/svg11.dtd">
<svg version="1.1" id="Layer_1" xmlns="http://www.w3.org/2000/svg" xmlns:xlink="http://www.w3.org/1999/xlink" x="0px" y="0px"
	 width="16px" height="16px" viewBox="0 0 16 16" style="enable-background:new 0 0 16 16;" xml:space="preserve">
<path id="Next_4" style="fill-rule:evenodd;clip-rule:evenodd;" d="M8,0C3.582,0,0,3.582,0,8s3.582,8,8,8s8-3.582,8-8S12.418,0,8,0z
	 M8,7.984C7.996,8.226,7.879,8.466,7.634,8.649l-2.749,2.075C4.377,11.105,4,10.9,4,10.264V5.654c0-0.638,0.377-0.844,0.885-0.463
	l2.73,2.076C7.861,7.452,7.988,7.693,8,7.937V7.984z M13,7.984c-0.004,0.241-0.121,0.481-0.366,0.665l-2.749,2.075
	C9.377,11.105,9,10.9,9,10.264V5.654c0-0.638,0.377-0.844,0.885-0.463l2.73,2.076C12.861,7.452,12.988,7.693,13,7.937V7.984z"/>
<g>
</g>
<g>
</g>
<g>
</g>
<g>
</g>
<g>
</g>
<g>
</g>
<g>
</g>
<g>
</g>
<g>
</g>
<g>
</g>
<g>
</g>
<g>
</g>
<g>
</g>
<g>
</g>
<g>
</g>
</svg>
