<?xml version="1.0" encoding="iso-8859-1"?>
<!-- Generator: Adobe Illustrator 16.0.0, SVG Export Plug-In . SVG Version: 6.00 Build 0)  -->
<!DOCTYPE svg PUBLIC "-//W3C//DTD SVG 1.1//EN" "http://www.w3.org/Graphics/SVG/1.1/DTD/svg11.dtd">
<svg version="1.1" id="Layer_1" xmlns="http://www.w3.org/2000/svg" xmlns:xlink="http://www.w3.org/1999/xlink" x="0px" y="0px"
	 width="16px" height="16px" viewBox="0 0 16 16" style="enable-background:new 0 0 16 16;" xml:space="preserve">
<path id="Notebook_3" style="fill-rule:evenodd;clip-rule:evenodd;" d="M15,0H3C2.447,0,2,0.447,2,1H1C0.447,1,0,1.447,0,2
	s0.447,1,1,1h1v1H1C0.447,4,0,4.447,0,5s0.447,1,1,1h1v1H1C0.447,7,0,7.447,0,8s0.447,1,1,1h1v1H1c-0.553,0-1,0.447-1,1s0.447,1,1,1
	h1v1H1c-0.553,0-1,0.447-1,1s0.447,1,1,1h1c0,0.553,0.447,1,1,1h12c0.553,0,1-0.447,1-1V1C16,0.447,15.553,0,15,0z M6.5,12h-1
	C5.224,12,5,11.776,5,11.5v-1C5,10.224,5.224,10,5.5,10h1C6.776,10,7,10.224,7,10.5v1C7,11.776,6.776,12,6.5,12z M6.5,9h-1
	C5.224,9,5,8.776,5,8.5v-1C5,7.224,5.224,7,5.5,7h1C6.776,7,7,7.224,7,7.5v1C7,8.776,6.776,9,6.5,9z M6.5,6h-1
	C5.224,6,5,5.776,5,5.5v-1C5,4.224,5.224,4,5.5,4h1C6.776,4,7,4.224,7,4.5v1C7,5.776,6.776,6,6.5,6z M12.5,12h-4
	C8.224,12,8,11.776,8,11.5v-1C8,10.224,8.224,10,8.5,10h4c0.276,0,0.5,0.224,0.5,0.5v1C13,11.776,12.776,12,12.5,12z M12.5,9h-4
	C8.224,9,8,8.776,8,8.5v-1C8,7.224,8.224,7,8.5,7h4C12.776,7,13,7.224,13,7.5v1C13,8.776,12.776,9,12.5,9z M12.5,6h-4
	C8.224,6,8,5.776,8,5.5v-1C8,4.224,8.224,4,8.5,4h4C12.776,4,13,4.224,13,4.5v1C13,5.776,12.776,6,12.5,6z"/>
<g>
</g>
<g>
</g>
<g>
</g>
<g>
</g>
<g>
</g>
<g>
</g>
<g>
</g>
<g>
</g>
<g>
</g>
<g>
</g>
<g>
</g>
<g>
</g>
<g>
</g>
<g>
</g>
<g>
</g>
</svg>
