<?xml version="1.0" encoding="iso-8859-1"?>
<!-- Generator: Adobe Illustrator 16.0.0, SVG Export Plug-In . SVG Version: 6.00 Build 0)  -->
<!DOCTYPE svg PUBLIC "-//W3C//DTD SVG 1.1//EN" "http://www.w3.org/Graphics/SVG/1.1/DTD/svg11.dtd">
<svg version="1.1" id="Layer_1" xmlns="http://www.w3.org/2000/svg" xmlns:xlink="http://www.w3.org/1999/xlink" x="0px" y="0px"
	 width="16px" height="16px" viewBox="0 0 16 16" style="enable-background:new 0 0 16 16;" xml:space="preserve">
<g id="Notepad_1">
	<path d="M0,4v11c0,0.553,0.447,1,1,1h14c0.553,0,1-0.447,1-1V4H0z M12,11.5c0,0.276-0.224,0.5-0.5,0.5h-7C4.224,12,4,11.776,4,11.5
		v-1C4,10.224,4.224,10,4.5,10h7c0.276,0,0.5,0.224,0.5,0.5V11.5z M12,8.5C12,8.776,11.776,9,11.5,9h-7C4.224,9,4,8.776,4,8.5v-1
		C4,7.224,4.224,7,4.5,7h7C11.776,7,12,7.224,12,7.5V8.5z"/>
	<path d="M16,1c0-0.553-0.447-1-1-1h-1h-4H6H2H1C0.447,0,0,0.447,0,1v2h16V1z"/>
</g>
<g>
</g>
<g>
</g>
<g>
</g>
<g>
</g>
<g>
</g>
<g>
</g>
<g>
</g>
<g>
</g>
<g>
</g>
<g>
</g>
<g>
</g>
<g>
</g>
<g>
</g>
<g>
</g>
<g>
</g>
</svg>
