<?xml version="1.0" encoding="iso-8859-1"?>
<!-- Generator: Adobe Illustrator 16.0.0, SVG Export Plug-In . SVG Version: 6.00 Build 0)  -->
<!DOCTYPE svg PUBLIC "-//W3C//DTD SVG 1.1//EN" "http://www.w3.org/Graphics/SVG/1.1/DTD/svg11.dtd">
<svg version="1.1" id="Layer_1" xmlns="http://www.w3.org/2000/svg" xmlns:xlink="http://www.w3.org/1999/xlink" x="0px" y="0px"
	 width="16px" height="15.582px" viewBox="0 0 16 15.582" style="enable-background:new 0 0 16 15.582;" xml:space="preserve">
<path id="Open_Book_1" d="M13,1.037V5l-1.5-1.213L10,5V1.787c0-0.276-0.217-0.445-0.485-0.379L8,1.787L0.97,0.029
	C0.435-0.104,0,0.234,0,0.787v11c0,0.553,0.419,1.157,0.937,1.352l6.127,2.297c0.517,0.194,1.356,0.194,1.873,0l6.127-2.297
	C15.581,12.944,16,12.34,16,11.787v-11c0-0.553-0.435-0.892-0.97-0.758l-1.545,0.387C13.217,0.482,13,0.761,13,1.037z"/>
<g>
</g>
<g>
</g>
<g>
</g>
<g>
</g>
<g>
</g>
<g>
</g>
<g>
</g>
<g>
</g>
<g>
</g>
<g>
</g>
<g>
</g>
<g>
</g>
<g>
</g>
<g>
</g>
<g>
</g>
</svg>
