<?xml version="1.0" encoding="iso-8859-1"?>
<!-- Generator: Adobe Illustrator 16.0.0, SVG Export Plug-In . SVG Version: 6.00 Build 0)  -->
<!DOCTYPE svg PUBLIC "-//W3C//DTD SVG 1.1//EN" "http://www.w3.org/Graphics/SVG/1.1/DTD/svg11.dtd">
<svg version="1.1" id="Layer_1" xmlns="http://www.w3.org/2000/svg" xmlns:xlink="http://www.w3.org/1999/xlink" x="0px" y="0px"
	 width="16.806px" height="15.56px" viewBox="0 0 16.806 15.56" style="enable-background:new 0 0 16.806 15.56;"
	 xml:space="preserve">
<g id="Paperclip_1_x2C__Attachment_1">
	<path d="M5.35,15.56c-1.37,0-2.74-0.521-3.783-1.563C0.557,12.984,0,11.642,0,10.212c0-1.429,0.557-2.772,1.566-3.783l5.303-5.303
		c1.502-1.502,3.943-1.501,5.445-0.001c1.501,1.502,1.501,3.944,0,5.445l-5.303,5.303c-0.917,0.919-2.408,0.917-3.324,0
		c-0.916-0.915-0.916-2.406,0-3.322L8.99,3.248c0.333-0.332,0.871-0.332,1.203,0c0.332,0.331,0.332,0.87,0,1.201L4.89,9.752
		c-0.253,0.254-0.253,0.666,0,0.92c0.253,0.251,0.665,0.253,0.919,0l5.304-5.303c0.839-0.839,0.839-2.203,0-3.042
		c-0.837-0.837-2.202-0.839-3.04,0L2.769,7.631C2.079,8.32,1.699,9.237,1.699,10.212c0,0.976,0.38,1.892,1.069,2.582
		c1.422,1.422,3.734,1.422,5.157,0.004l0.004-0.004c0-0.001,0-0.001,0-0.001l7.426-7.424c0.332-0.332,0.869-0.332,1.201,0
		c0.332,0.331,0.332,0.87,0,1.201l-7.777,7.778l-0.018-0.016C7.776,15.15,6.562,15.56,5.35,15.56z"/>
</g>
<g>
</g>
<g>
</g>
<g>
</g>
<g>
</g>
<g>
</g>
<g>
</g>
<g>
</g>
<g>
</g>
<g>
</g>
<g>
</g>
<g>
</g>
<g>
</g>
<g>
</g>
<g>
</g>
<g>
</g>
</svg>
