<?xml version="1.0" encoding="iso-8859-1"?>
<!-- Generator: Adobe Illustrator 16.0.0, SVG Export Plug-In . SVG Version: 6.00 Build 0)  -->
<!DOCTYPE svg PUBLIC "-//W3C//DTD SVG 1.1//EN" "http://www.w3.org/Graphics/SVG/1.1/DTD/svg11.dtd">
<svg version="1.1" id="Layer_1" xmlns="http://www.w3.org/2000/svg" xmlns:xlink="http://www.w3.org/1999/xlink" x="0px" y="0px"
	 width="6px" height="10px" viewBox="0 0 6 10" style="enable-background:new 0 0 6 10;" xml:space="preserve">
<g id="Pause_2">
	<path d="M5.5,0h-1C4.224,0,4,0.224,4,0.5v9C4,9.776,4.224,10,4.5,10h1C5.776,10,6,9.776,6,9.5v-9C6,0.224,5.776,0,5.5,0z"/>
	<path d="M1.5,0h-1C0.224,0,0,0.224,0,0.5v9C0,9.776,0.224,10,0.5,10h1C1.776,10,2,9.776,2,9.5v-9C2,0.224,1.776,0,1.5,0z"/>
</g>
<g>
</g>
<g>
</g>
<g>
</g>
<g>
</g>
<g>
</g>
<g>
</g>
<g>
</g>
<g>
</g>
<g>
</g>
<g>
</g>
<g>
</g>
<g>
</g>
<g>
</g>
<g>
</g>
<g>
</g>
</svg>
