<?xml version="1.0" encoding="iso-8859-1"?>
<!-- Generator: Adobe Illustrator 16.0.0, SVG Export Plug-In . SVG Version: 6.00 Build 0)  -->
<!DOCTYPE svg PUBLIC "-//W3C//DTD SVG 1.1//EN" "http://www.w3.org/Graphics/SVG/1.1/DTD/svg11.dtd">
<svg version="1.1" id="Layer_1" xmlns="http://www.w3.org/2000/svg" xmlns:xlink="http://www.w3.org/1999/xlink" x="0px" y="0px"
	 width="15.999px" height="15.998px" viewBox="0 0 15.999 15.998" style="enable-background:new 0 0 15.999 15.998;"
	 xml:space="preserve">
<path id="Position_1_x2C__Move_1" style="fill-rule:evenodd;clip-rule:evenodd;" d="M15.794,7.473l-2.239-2.324
	C13.193,4.857,13.006,5,13.006,5.467v1.527h-4v-4h1.529c0.465,0,0.608-0.266,0.316-0.627L8.528,0.356
	C8.236-0.003,7.764-0.154,7.472,0.205L5.148,2.444C4.857,2.806,5,2.994,5.467,2.994h1.539v4h-4V5.463
	c0-0.465-0.281-0.607-0.643-0.316L0.359,7.471c-0.36,0.291-0.514,0.764-0.154,1.055l2.237,2.324
	c0.361,0.291,0.564,0.148,0.564-0.318V8.994h4v4H5.463c-0.465,0-0.608,0.281-0.316,0.643L7.47,15.64
	c0.292,0.359,0.764,0.513,1.056,0.153l2.324-2.234c0.292-0.361,0.148-0.564-0.318-0.564H9.006v-4h4v1.541
	c0,0.465,0.265,0.607,0.626,0.316l2.009-2.324C16.001,8.236,16.153,7.764,15.794,7.473z"/>
<g>
</g>
<g>
</g>
<g>
</g>
<g>
</g>
<g>
</g>
<g>
</g>
<g>
</g>
<g>
</g>
<g>
</g>
<g>
</g>
<g>
</g>
<g>
</g>
<g>
</g>
<g>
</g>
<g>
</g>
</svg>
