<?xml version="1.0" encoding="iso-8859-1"?>
<!-- Generator: Adobe Illustrator 16.0.0, SVG Export Plug-In . SVG Version: 6.00 Build 0)  -->
<!DOCTYPE svg PUBLIC "-//W3C//DTD SVG 1.1//EN" "http://www.w3.org/Graphics/SVG/1.1/DTD/svg11.dtd">
<svg version="1.1" id="Layer_1" xmlns="http://www.w3.org/2000/svg" xmlns:xlink="http://www.w3.org/1999/xlink" x="0px" y="0px"
	 width="16px" height="16.036px" viewBox="0 0 16 16.036" style="enable-background:new 0 0 16 16.036;" xml:space="preserve">
<path id="Post_Comment_1" d="M15,0H1C0.447,0,0,0.496,0,1.048v11C0,12.601,0.447,13,1,13h3.586l2.707,2.731
	C7.488,15.927,7.744,16.036,8,16.036s0.512-0.116,0.707-0.311L11.414,13H15c0.553,0,1-0.399,1-0.952v-11C16,0.496,15.553,0,15,0z
	 M12,8.5C12,8.776,11.776,9,11.5,9h-7C4.224,9,4,8.776,4,8.5v-1C4,7.224,4.224,7,4.5,7h7C11.776,7,12,7.224,12,7.5V8.5z M12,5.5
	C12,5.776,11.776,6,11.5,6h-7C4.224,6,4,5.776,4,5.5v-1C4,4.224,4.224,4,4.5,4h7C11.776,4,12,4.224,12,4.5V5.5z"/>
<g>
</g>
<g>
</g>
<g>
</g>
<g>
</g>
<g>
</g>
<g>
</g>
<g>
</g>
<g>
</g>
<g>
</g>
<g>
</g>
<g>
</g>
<g>
</g>
<g>
</g>
<g>
</g>
<g>
</g>
</svg>
