<?xml version="1.0" encoding="iso-8859-1"?>
<!-- Generator: Adobe Illustrator 16.0.0, SVG Export Plug-In . SVG Version: 6.00 Build 0)  -->
<!DOCTYPE svg PUBLIC "-//W3C//DTD SVG 1.1//EN" "http://www.w3.org/Graphics/SVG/1.1/DTD/svg11.dtd">
<svg version="1.1" id="Layer_1" xmlns="http://www.w3.org/2000/svg" xmlns:xlink="http://www.w3.org/1999/xlink" x="0px" y="0px"
	 width="16px" height="16px" viewBox="0 0 16 16" style="enable-background:new 0 0 16 16;" xml:space="preserve">
<path id="Previous_1" d="M15,0H1C0.447,0,0,0.447,0,1v14c0,0.553,0.447,1,1,1h14c0.553,0,1-0.447,1-1V1C16,0.447,15.553,0,15,0z
	 M6,11.5C6,11.776,5.776,12,5.5,12h-1C4.224,12,4,11.776,4,11.5v-7C4,4.224,4.224,4,4.5,4h1C5.776,4,6,4.224,6,4.5V11.5z
	 M11.831,10.42c0.189,0.197,0.189,0.518,0,0.715l-0.684,0.717c-0.188,0.199-0.495,0.199-0.684,0L7.142,8.373
	c-0.188-0.198-0.188-0.519,0-0.717l3.35-3.508c0.188-0.197,0.495-0.197,0.684,0l0.684,0.717c0.189,0.197,0.189,0.518,0,0.716
	L9.535,8.015L11.831,10.42z"/>
<g>
</g>
<g>
</g>
<g>
</g>
<g>
</g>
<g>
</g>
<g>
</g>
<g>
</g>
<g>
</g>
<g>
</g>
<g>
</g>
<g>
</g>
<g>
</g>
<g>
</g>
<g>
</g>
<g>
</g>
</svg>
