<?xml version="1.0" encoding="iso-8859-1"?>
<!-- Generator: Adobe Illustrator 16.0.0, SVG Export Plug-In . SVG Version: 6.00 Build 0)  -->
<!DOCTYPE svg PUBLIC "-//W3C//DTD SVG 1.1//EN" "http://www.w3.org/Graphics/SVG/1.1/DTD/svg11.dtd">
<svg version="1.1" id="Layer_1" xmlns="http://www.w3.org/2000/svg" xmlns:xlink="http://www.w3.org/1999/xlink" x="0px" y="0px"
	 width="16px" height="16px" viewBox="0 0 16 16" style="enable-background:new 0 0 16 16;" xml:space="preserve">
<path id="Previous_4" style="fill-rule:evenodd;clip-rule:evenodd;" d="M8,0C3.582,0,0,3.582,0,8s3.582,8,8,8s8-3.582,8-8
	S12.418,0,8,0z M7,10.262c0,0.638-0.377,0.844-0.885,0.463l-2.73-2.076C3.138,8.464,3.012,8.223,3,7.979V7.932
	C3.004,7.69,3.121,7.45,3.366,7.267l2.749-2.075C6.623,4.811,7,5.016,7,5.652V10.262z M12,10.262c0,0.638-0.377,0.844-0.885,0.463
	l-2.73-2.076C8.138,8.464,8.012,8.223,8,7.979V7.932C8.004,7.69,8.121,7.45,8.366,7.267l2.749-2.075C11.623,4.811,12,5.016,12,5.652
	V10.262z"/>
<g>
</g>
<g>
</g>
<g>
</g>
<g>
</g>
<g>
</g>
<g>
</g>
<g>
</g>
<g>
</g>
<g>
</g>
<g>
</g>
<g>
</g>
<g>
</g>
<g>
</g>
<g>
</g>
<g>
</g>
</svg>
