<?xml version="1.0" encoding="iso-8859-1"?>
<!-- Generator: Adobe Illustrator 16.0.0, SVG Export Plug-In . SVG Version: 6.00 Build 0)  -->
<!DOCTYPE svg PUBLIC "-//W3C//DTD SVG 1.1//EN" "http://www.w3.org/Graphics/SVG/1.1/DTD/svg11.dtd">
<svg version="1.1" id="Layer_1" xmlns="http://www.w3.org/2000/svg" xmlns:xlink="http://www.w3.org/1999/xlink" x="0px" y="0px"
	 width="16px" height="16px" viewBox="0 0 16 16" style="enable-background:new 0 0 16 16;" xml:space="preserve">
<path id="Question_2_x2C__Help_2" d="M8,0C3.582,0,0,3.582,0,8s3.582,8,8,8s8-3.582,8-8S12.418,0,8,0z M9,12.5
	C9,12.776,8.776,13,8.5,13h-1C7.224,13,7,12.776,7,12.5v-1C7,11.224,7.224,11,7.5,11h1C8.776,11,9,11.224,9,11.5V12.5z M9,8.828V9.5
	C9,9.776,8.776,10,8.5,10h-1C7.224,10,7,9.776,7,9.5V8c0-0.553,0.125-1,0.75-1C8.164,7,8.5,7,8.5,7C8.776,7,9,6.776,9,6.5v-1
	C9,5.224,8.776,5,8.5,5h-1C7.224,5,7,5.224,7,5.5C7,5.639,6.906,6,6.5,6h-1C5.125,6,4.996,5.775,5.041,5.502
	C5.279,4.084,6.516,3,8,3c1.654,0,3,1.346,3,3C11,7.304,10.164,8.416,9,8.828z"/>
<g>
</g>
<g>
</g>
<g>
</g>
<g>
</g>
<g>
</g>
<g>
</g>
<g>
</g>
<g>
</g>
<g>
</g>
<g>
</g>
<g>
</g>
<g>
</g>
<g>
</g>
<g>
</g>
<g>
</g>
</svg>
