<?xml version="1.0" encoding="iso-8859-1"?>
<!-- Generator: Adobe Illustrator 16.0.0, SVG Export Plug-In . SVG Version: 6.00 Build 0)  -->
<!DOCTYPE svg PUBLIC "-//W3C//DTD SVG 1.1//EN" "http://www.w3.org/Graphics/SVG/1.1/DTD/svg11.dtd">
<svg version="1.1" id="Layer_1" xmlns="http://www.w3.org/2000/svg" xmlns:xlink="http://www.w3.org/1999/xlink" x="0px" y="0px"
	 width="16px" height="12px" viewBox="0 0 16 12" style="enable-background:new 0 0 16 12;" xml:space="preserve">
<path id="Repeat_2_x2C__Reload_2_x2C__Refresh_2" style="fill-rule:evenodd;clip-rule:evenodd;" d="M10.694,4
	c-0.521,0-0.78,0.238-0.67,0.559l0.12,0.219l0.14,0.239l2.21,2.641c0.04,0.06,0.07,0.109,0.11,0.149
	c0.279,0.301,0.649,0.251,0.89-0.148l2.36-2.879C16.185,4.348,15.935,4,15.294,4H14V1c0-0.553-0.447-1-1-1H1C0.447,0,0,0.447,0,1v10
	c0,0.55,0.45,1,1,1h12c0.553,0,1-0.447,1-1s-0.447-1-1-1H2V2h10v2H10.694z"/>
<g>
</g>
<g>
</g>
<g>
</g>
<g>
</g>
<g>
</g>
<g>
</g>
<g>
</g>
<g>
</g>
<g>
</g>
<g>
</g>
<g>
</g>
<g>
</g>
<g>
</g>
<g>
</g>
<g>
</g>
</svg>
