<?xml version="1.0" encoding="iso-8859-1"?>
<!-- Generator: Adobe Illustrator 16.0.0, SVG Export Plug-In . SVG Version: 6.00 Build 0)  -->
<!DOCTYPE svg PUBLIC "-//W3C//DTD SVG 1.1//EN" "http://www.w3.org/Graphics/SVG/1.1/DTD/svg11.dtd">
<svg version="1.1" id="Layer_1" xmlns="http://www.w3.org/2000/svg" xmlns:xlink="http://www.w3.org/1999/xlink" x="0px" y="0px"
	 width="16px" height="16px" viewBox="0 0 16 16" style="enable-background:new 0 0 16 16;" xml:space="preserve">
<path id="Rewind_1" d="M15,0H1C0.447,0,0,0.447,0,1v14c0,0.553,0.447,1,1,1h14c0.553,0,1-0.447,1-1V1C16,0.447,15.553,0,15,0z
	 M7.831,11.135l-0.684,0.717c-0.188,0.199-0.495,0.199-0.684,0L3.142,8.373c-0.188-0.198-0.188-0.519,0-0.717l3.35-3.508
	c0.188-0.197,0.495-0.197,0.684,0l0.684,0.717c0.189,0.197,0.189,0.518,0,0.716L5.535,8.015l2.296,2.405
	C8.021,10.617,8.021,10.938,7.831,11.135z M12.831,10.42c0.189,0.197,0.189,0.518,0,0.715l-0.684,0.717
	c-0.188,0.199-0.495,0.199-0.684,0L8.142,8.373c-0.188-0.198-0.188-0.519,0-0.717l3.35-3.508c0.188-0.197,0.495-0.197,0.684,0
	l0.684,0.717c0.189,0.197,0.189,0.518,0,0.716l-2.323,2.434L12.831,10.42z"/>
<g>
</g>
<g>
</g>
<g>
</g>
<g>
</g>
<g>
</g>
<g>
</g>
<g>
</g>
<g>
</g>
<g>
</g>
<g>
</g>
<g>
</g>
<g>
</g>
<g>
</g>
<g>
</g>
<g>
</g>
</svg>
