<?xml version="1.0" encoding="iso-8859-1"?>
<!-- Generator: Adobe Illustrator 16.0.0, SVG Export Plug-In . SVG Version: 6.00 Build 0)  -->
<!DOCTYPE svg PUBLIC "-//W3C//DTD SVG 1.1//EN" "http://www.w3.org/Graphics/SVG/1.1/DTD/svg11.dtd">
<svg version="1.1" id="Layer_1" xmlns="http://www.w3.org/2000/svg" xmlns:xlink="http://www.w3.org/1999/xlink" x="0px" y="0px"
	 width="10px" height="8px" viewBox="0 0 10 8" style="enable-background:new 0 0 10 8;" xml:space="preserve">
<g id="Right_Angle_Quote_1">
	<path d="M7.483,4.016L5.171,6.434c-0.188,0.195-0.188,0.514,0,0.709L5.85,7.854c0.188,0.195,0.491,0.195,0.679,0l3.331-3.482
		c0.188-0.197,0.188-0.514,0-0.711L6.498,0.146c-0.188-0.195-0.491-0.195-0.679,0L5.141,0.855c-0.188,0.197-0.188,0.514,0,0.711
		L7.483,4.016z"/>
	<path d="M0.141,1.566l2.343,2.449L0.171,6.434c-0.188,0.195-0.188,0.514,0,0.709L0.85,7.854c0.188,0.195,0.491,0.195,0.679,0
		l3.331-3.482c0.188-0.197,0.188-0.514,0-0.711L1.498,0.146c-0.188-0.195-0.491-0.195-0.679,0L0.141,0.855
		C-0.047,1.053-0.047,1.369,0.141,1.566z"/>
</g>
<g>
</g>
<g>
</g>
<g>
</g>
<g>
</g>
<g>
</g>
<g>
</g>
<g>
</g>
<g>
</g>
<g>
</g>
<g>
</g>
<g>
</g>
<g>
</g>
<g>
</g>
<g>
</g>
<g>
</g>
</svg>
