<?xml version="1.0" encoding="iso-8859-1"?>
<!-- Generator: Adobe Illustrator 16.0.0, SVG Export Plug-In . SVG Version: 6.00 Build 0)  -->
<!DOCTYPE svg PUBLIC "-//W3C//DTD SVG 1.1//EN" "http://www.w3.org/Graphics/SVG/1.1/DTD/svg11.dtd">
<svg version="1.1" id="Layer_1" xmlns="http://www.w3.org/2000/svg" xmlns:xlink="http://www.w3.org/1999/xlink" x="0px" y="0px"
	 width="16px" height="16px" viewBox="0 0 16 16" style="enable-background:new 0 0 16 16;" xml:space="preserve">
<path id="right_Circle_4" style="fill-rule:evenodd;clip-rule:evenodd;" d="M8,0C3.582,0,0,3.582,0,8s3.582,8,8,8s8-3.582,8-8
	S12.418,0,8,0z M11.859,8.346l-3.35,3.507c-0.189,0.197-0.496,0.197-0.684,0l-0.684-0.717c-0.189-0.197-0.189-0.517,0-0.716L8.484,9
	H4.5C4.224,9,4,8.776,4,8.5v-1C4,7.224,4.224,7,4.5,7h4.011L7.17,5.582c-0.189-0.197-0.189-0.519,0-0.716l0.684-0.717
	c0.188-0.199,0.494-0.199,0.684,0l3.322,3.479C12.047,7.826,12.047,8.146,11.859,8.346z"/>
<g>
</g>
<g>
</g>
<g>
</g>
<g>
</g>
<g>
</g>
<g>
</g>
<g>
</g>
<g>
</g>
<g>
</g>
<g>
</g>
<g>
</g>
<g>
</g>
<g>
</g>
<g>
</g>
<g>
</g>
</svg>
