<?xml version="1.0" encoding="iso-8859-1"?>
<!-- Generator: Adobe Illustrator 16.0.0, SVG Export Plug-In . SVG Version: 6.00 Build 0)  -->
<!DOCTYPE svg PUBLIC "-//W3C//DTD SVG 1.1//EN" "http://www.w3.org/Graphics/SVG/1.1/DTD/svg11.dtd">
<svg version="1.1" id="Layer_1" xmlns="http://www.w3.org/2000/svg" xmlns:xlink="http://www.w3.org/1999/xlink" x="0px" y="0px"
	 width="15.991px" height="16px" viewBox="0 0 15.991 16" style="enable-background:new 0 0 15.991 16;" xml:space="preserve">
<g id="Rss_1">
	<path d="M0.502,5.444C0.227,5.432,0,5.656,0,5.933v2.053c0,0.276,0.227,0.499,0.502,0.518c1.807,0.121,3.5,0.886,4.792,2.182
		c1.295,1.291,2.058,2.991,2.179,4.81C7.491,15.77,7.714,16,7.99,16h2.067c0.276,0,0.5-0.23,0.487-0.506
		c-0.13-2.711-1.283-5.158-3.087-6.963C5.658,6.729,3.213,5.571,0.502,5.444z"/>
	<path d="M1.999,11.976c-0.553,0-1.047,0.21-1.412,0.574C0.226,12.91,0,13.38,0,13.93c0,0.549,0.226,0.993,0.587,1.354
		c0.365,0.363,0.859,0.493,1.412,0.493C2.553,15.777,3.05,16,3.412,15h0.002C3.777,15,3.999,14.336,4,13.787
		c-0.001-0.549-0.223-0.955-0.588-1.315C3.047,12.107,2.553,11.976,1.999,11.976z"/>
	<path d="M11.306,4.687C8.518,1.896,4.715,0.133,0.506,0C0.229-0.009,0,0.216,0,0.492v2.054c0,0.276,0.229,0.499,0.506,0.51
		c6.729,0.261,12.162,5.7,12.42,12.438C12.937,15.77,13.159,16,13.436,16H15.5c0.276,0,0.5-0.23,0.491-0.506
		C15.859,11.283,14.093,7.473,11.306,4.687z"/>
</g>
<g>
</g>
<g>
</g>
<g>
</g>
<g>
</g>
<g>
</g>
<g>
</g>
<g>
</g>
<g>
</g>
<g>
</g>
<g>
</g>
<g>
</g>
<g>
</g>
<g>
</g>
<g>
</g>
<g>
</g>
</svg>
