<?xml version="1.0" encoding="iso-8859-1"?>
<!-- Generator: Adobe Illustrator 16.0.0, SVG Export Plug-In . SVG Version: 6.00 Build 0)  -->
<!DOCTYPE svg PUBLIC "-//W3C//DTD SVG 1.1//EN" "http://www.w3.org/Graphics/SVG/1.1/DTD/svg11.dtd">
<svg version="1.1" id="Layer_1" xmlns="http://www.w3.org/2000/svg" xmlns:xlink="http://www.w3.org/1999/xlink" x="0px" y="0px"
	 width="15.897px" height="16px" viewBox="0 0 15.897 16" style="enable-background:new 0 0 15.897 16;" xml:space="preserve">
<path id="Scissors_1_x2C__Cut_1" d="M14.859,10.358c-0.687-0.789-1.564-1.193-2.395-1.193c-0.299,0-0.59,0.062-0.865,0.168
	L9.794,7.261L13,3.579c0.715-0.818,0.902-1.929,0.422-2.481C12.941,0.546,12.408,0,12.408,0L8,5L3.49,0c0,0-0.533,0.546-1.014,1.098
	C1.996,1.65,2.183,2.761,2.898,3.579l3.205,3.682L4.298,9.333C4.023,9.228,3.732,9.165,3.433,9.165c-0.83,0-1.708,0.404-2.395,1.193
	c-1.248,1.433-1.391,3.591-0.323,4.818C1.197,15.729,1.843,16,2.52,16c0.829,0,1.707-0.405,2.394-1.193
	c0.827-0.948,1.157-2.209,0.984-3.312L8,9l2,2.494c-0.173,1.104,0.157,2.364,0.984,3.312C11.67,15.595,12.548,16,13.377,16
	c0.677,0,1.323-0.271,1.805-0.823C16.25,13.949,16.107,11.791,14.859,10.358z M4.398,12.184c-0.033,0.479-0.244,0.975-0.581,1.362
	c-0.373,0.427-0.845,0.672-1.297,0.672c-0.202,0-0.49-0.052-0.706-0.301c-0.259-0.297-0.271-0.714-0.259-0.937
	c0.032-0.479,0.245-0.977,0.583-1.361c0.37-0.428,0.844-0.672,1.295-0.672c0.202,0,0.489,0.052,0.705,0.301
	C4.398,11.545,4.413,11.962,4.398,12.184z M14.083,13.917c-0.216,0.249-0.504,0.301-0.706,0.301c-0.452,0-0.924-0.245-1.297-0.672
	c-0.337-0.388-0.548-0.884-0.581-1.362c-0.015-0.222,0-0.639,0.26-0.936c0.216-0.249,0.503-0.301,0.705-0.301
	c0.451,0,0.925,0.244,1.295,0.672c0.338,0.385,0.551,0.882,0.583,1.361C14.355,13.203,14.342,13.62,14.083,13.917z"/>
<g>
</g>
<g>
</g>
<g>
</g>
<g>
</g>
<g>
</g>
<g>
</g>
<g>
</g>
<g>
</g>
<g>
</g>
<g>
</g>
<g>
</g>
<g>
</g>
<g>
</g>
<g>
</g>
<g>
</g>
</svg>
