<?xml version="1.0" encoding="iso-8859-1"?>
<!-- Generator: Adobe Illustrator 16.0.0, SVG Export Plug-In . SVG Version: 6.00 Build 0)  -->
<!DOCTYPE svg PUBLIC "-//W3C//DTD SVG 1.1//EN" "http://www.w3.org/Graphics/SVG/1.1/DTD/svg11.dtd">
<svg version="1.1" id="Layer_1" xmlns="http://www.w3.org/2000/svg" xmlns:xlink="http://www.w3.org/1999/xlink" x="0px" y="0px"
	 width="16.003px" height="15.999px" viewBox="0 0 16.003 15.999" style="enable-background:new 0 0 16.003 15.999;"
	 xml:space="preserve">
<path id="Send_1" d="M12.171,3.252c0.498-0.257,0.552-0.181,0.122,0.17L3.558,10.58c-0.381,0.275-0.613,0.81-0.613,1.257v3.641
	c0,0.54,0.283,0.684,0.705,0.323l3.552-3.076l2.569,2.412c0.202,0.188,0.438,0.136,0.537-0.117l5.663-14.703
	c0.099-0.253-0.039-0.381-0.304-0.285L0.238,5.603c-0.266,0.095-0.317,0.325-0.114,0.515L2.06,7.935
	c0.201,0.188,0.566,0.238,0.814,0.109L12.171,3.252z"/>
<g>
</g>
<g>
</g>
<g>
</g>
<g>
</g>
<g>
</g>
<g>
</g>
<g>
</g>
<g>
</g>
<g>
</g>
<g>
</g>
<g>
</g>
<g>
</g>
<g>
</g>
<g>
</g>
<g>
</g>
</svg>
