<?xml version="1.0" encoding="iso-8859-1"?>
<!-- Generator: Adobe Illustrator 16.0.0, SVG Export Plug-In . SVG Version: 6.00 Build 0)  -->
<!DOCTYPE svg PUBLIC "-//W3C//DTD SVG 1.1//EN" "http://www.w3.org/Graphics/SVG/1.1/DTD/svg11.dtd">
<svg version="1.1" id="Layer_1" xmlns="http://www.w3.org/2000/svg" xmlns:xlink="http://www.w3.org/1999/xlink" x="0px" y="0px"
	 width="16px" height="16px" viewBox="0 0 16 16" style="enable-background:new 0 0 16 16;" xml:space="preserve">
<path id="Share_3" d="M10,3c0,0.125,0.021,0.243,0.037,0.363L5.078,5.843C4.539,5.323,3.809,5,3,5C1.343,5,0,6.344,0,8s1.343,3,3,3
	c0.809,0,1.539-0.323,2.078-0.843l4.959,2.479C10.021,12.757,10,12.875,10,13c0,1.656,1.343,3,3,3s3-1.344,3-3s-1.343-3-3-3
	c-0.809,0-1.539,0.323-2.078,0.843L5.963,8.363C5.979,8.243,6,8.125,6,8S5.979,7.757,5.963,7.637l4.959-2.479
	C11.461,5.677,12.191,6,13,6c1.657,0,3-1.344,3-3s-1.343-3-3-3S10,1.344,10,3z"/>
<g>
</g>
<g>
</g>
<g>
</g>
<g>
</g>
<g>
</g>
<g>
</g>
<g>
</g>
<g>
</g>
<g>
</g>
<g>
</g>
<g>
</g>
<g>
</g>
<g>
</g>
<g>
</g>
<g>
</g>
</svg>
