<?xml version="1.0" encoding="iso-8859-1"?>
<!-- Generator: Adobe Illustrator 16.0.0, SVG Export Plug-In . SVG Version: 6.00 Build 0)  -->
<!DOCTYPE svg PUBLIC "-//W3C//DTD SVG 1.1//EN" "http://www.w3.org/Graphics/SVG/1.1/DTD/svg11.dtd">
<svg version="1.1" id="Layer_1" xmlns="http://www.w3.org/2000/svg" xmlns:xlink="http://www.w3.org/1999/xlink" x="0px" y="0px"
	 width="16px" height="12px" viewBox="0 0 16 12" style="enable-background:new 0 0 16 12;" xml:space="preserve">
<g id="Share_5">
	<path d="M4.01,6c0-2.205,1.794-3.984,4-3.984c1.066,0,2.073,0.423,2.837,1.178c0.392,0.388,1.026,0.39,1.414-0.004
		c0.389-0.393,0.385-1.023-0.008-1.412C11.113,0.649,9.606,0,8.01,0C5.042,0,2.57,1.971,2.093,4.971H0.51
		C0.233,4.971,0,5.254,0,5.53v1c0,0.276,0.233,0.44,0.51,0.44h2.5C3.562,6.971,4.01,6.553,4.01,6z"/>
	<path d="M15.51,4.971h-2.5c-0.553,0-1,0.477-1,1.029c0,2.207-1.794,4.016-4,4.016c-1.066,0-2.073-0.409-2.837-1.164
		C4.781,8.464,4.146,8.47,3.759,8.863C3.37,9.256,3.374,9.891,3.767,10.279C4.906,11.407,6.413,12,8.01,12
		c2.968,0,5.439-2.029,5.917-5.029h1.583c0.276,0,0.49-0.164,0.49-0.44v-1C16,5.254,15.786,4.971,15.51,4.971z"/>
	<circle cx="8.01" cy="6.03" r="2"/>
</g>
<g>
</g>
<g>
</g>
<g>
</g>
<g>
</g>
<g>
</g>
<g>
</g>
<g>
</g>
<g>
</g>
<g>
</g>
<g>
</g>
<g>
</g>
<g>
</g>
<g>
</g>
<g>
</g>
<g>
</g>
</svg>
