<?xml version="1.0" encoding="iso-8859-1"?>
<!-- Generator: Adobe Illustrator 16.0.0, SVG Export Plug-In . SVG Version: 6.00 Build 0)  -->
<!DOCTYPE svg PUBLIC "-//W3C//DTD SVG 1.1//EN" "http://www.w3.org/Graphics/SVG/1.1/DTD/svg11.dtd">
<svg version="1.1" id="Layer_1" xmlns="http://www.w3.org/2000/svg" xmlns:xlink="http://www.w3.org/1999/xlink" x="0px" y="0px"
	 width="16px" height="16px" viewBox="0 0 16 16" style="enable-background:new 0 0 16 16;" xml:space="preserve">
<path id="Share_4" d="M13,10c-0.125,0-0.243,0.021-0.363,0.037l-2.479-4.959C10.677,4.539,11,3.809,11,3c0-1.657-1.344-3-3-3
	S5,1.343,5,3c0,0.809,0.323,1.539,0.843,2.078l-2.479,4.959C3.243,10.021,3.125,10,3,10c-1.656,0-3,1.343-3,3s1.344,3,3,3
	s3-1.343,3-3c0-0.809-0.323-1.539-0.843-2.078l2.479-4.959C7.757,5.979,7.875,6,8,6s0.243-0.021,0.363-0.037l2.479,4.959
	C10.323,11.461,10,12.191,10,13c0,1.657,1.344,3,3,3s3-1.343,3-3S14.656,10,13,10z"/>
<g>
</g>
<g>
</g>
<g>
</g>
<g>
</g>
<g>
</g>
<g>
</g>
<g>
</g>
<g>
</g>
<g>
</g>
<g>
</g>
<g>
</g>
<g>
</g>
<g>
</g>
<g>
</g>
<g>
</g>
</svg>
