<?xml version="1.0" encoding="iso-8859-1"?>
<!-- Generator: Adobe Illustrator 16.0.0, SVG Export Plug-In . SVG Version: 6.00 Build 0)  -->
<!DOCTYPE svg PUBLIC "-//W3C//DTD SVG 1.1//EN" "http://www.w3.org/Graphics/SVG/1.1/DTD/svg11.dtd">
<svg version="1.1" id="Layer_1" xmlns="http://www.w3.org/2000/svg" xmlns:xlink="http://www.w3.org/1999/xlink" x="0px" y="0px"
	 width="16.008px" height="16.008px" viewBox="0 0 16.008 16.008" style="enable-background:new 0 0 16.008 16.008;"
	 xml:space="preserve">
<g id="Skill_1_x2C__Work_1">
	<polygon points="0,14.008 0,16.008 2,16.008 7,11.008 5,9.008 	"/>
	<path d="M15.715,2.293c0.391-0.391,0.391-1.023,0-1.414l-0.586-0.586c-0.391-0.391-1.023-0.391-1.414,0L12,2.008l2,2L15.715,2.293z
		"/>
	<path d="M16,12.508c0,0.55-0.45,1-1,1s-1-0.45-1-1c0-0.83-0.67-1.5-1.5-1.5c-0.09,0-0.18,0.01-0.27,0.03c-0.03,0-0.051,0-0.07,0.01
		c-0.08,0.02-0.15,0.04-0.221,0.07c-0.039,0.01-0.069,0.029-0.109,0.06c-0.29,0.13-0.53,0.37-0.66,0.66
		c-0.029,0.04-0.05,0.07-0.061,0.11c-0.029,0.069-0.049,0.14-0.069,0.22c-0.011,0.02-0.011,0.04-0.011,0.07
		c-0.02,0.09-0.029,0.18-0.029,0.27c0,0.83,0.67,1.5,1.5,1.5c0.55,0,1,0.45,1,1s-0.45,1-1,1c-1.93,0-3.5-1.57-3.5-3.5
		c0-0.16,0.01-0.32,0.04-0.48c0.021-0.159,0.09-0.47,0.09-0.47c0.03-0.1,0.091-0.189,0.13-0.29l-4.52-4.52
		c-0.1,0.04-0.301,0.12-0.301,0.12c-0.149,0.04-0.299,0.08-0.459,0.1c-0.16,0.03-0.32,0.04-0.48,0.04c-1.93,0-3.5-1.57-3.5-3.5
		c0-0.55,0.45-1,1-1s1,0.45,1,1c0,0.83,0.67,1.5,1.5,1.5S5,4.338,5,3.508s-0.67-1.5-1.5-1.5c-0.55,0-1-0.45-1-1s0.45-1,1-1
		c1.93,0,3.5,1.57,3.5,3.5c0,0.16-0.01,0.32-0.04,0.48c-0.021,0.159-0.06,0.31-0.101,0.46c0,0-0.08,0.199-0.119,0.3L8,6.008l3-3l2,2
		l-3,3l1.26,1.26c0.1-0.04,0.301-0.12,0.301-0.12c0.149-0.04,0.299-0.08,0.459-0.1c0.16-0.03,0.32-0.04,0.48-0.04
		C14.43,9.008,16,10.578,16,12.508z"/>
</g>
<g>
</g>
<g>
</g>
<g>
</g>
<g>
</g>
<g>
</g>
<g>
</g>
<g>
</g>
<g>
</g>
<g>
</g>
<g>
</g>
<g>
</g>
<g>
</g>
<g>
</g>
<g>
</g>
<g>
</g>
</svg>
