<?xml version="1.0" encoding="iso-8859-1"?>
<!-- Generator: Adobe Illustrator 16.0.0, SVG Export Plug-In . SVG Version: 6.00 Build 0)  -->
<!DOCTYPE svg PUBLIC "-//W3C//DTD SVG 1.1//EN" "http://www.w3.org/Graphics/SVG/1.1/DTD/svg11.dtd">
<svg version="1.1" id="Layer_1" xmlns="http://www.w3.org/2000/svg" xmlns:xlink="http://www.w3.org/1999/xlink" x="0px" y="0px"
	 width="16px" height="16px" viewBox="0 0 16 16" style="enable-background:new 0 0 16 16;" xml:space="preserve">
<path id="Slider_2" style="fill-rule:evenodd;clip-rule:evenodd;" d="M15,0H1C0.447,0,0,0.447,0,1v14c0,0.553,0.447,1,1,1h14
	c0.553,0,1-0.447,1-1V1C16,0.447,15.553,0,15,0z M7,8.5C7,8.776,6.776,9,6.5,9H6v3.5C6,12.776,5.776,13,5.5,13h-1
	C4.224,13,4,12.776,4,12.5V9H3.5C3.224,9,3,8.776,3,8.5v-1C3,7.224,3.224,7,3.5,7H4V3.5C4,3.224,4.224,3,4.5,3h1
	C5.776,3,6,3.224,6,3.5V7h0.5C6.776,7,7,7.224,7,7.5V8.5z M13,8.5C13,8.776,12.776,9,12.5,9H12v3.5c0,0.276-0.224,0.5-0.5,0.5h-1
	c-0.276,0-0.5-0.224-0.5-0.5V9H9.5C9.224,9,9,8.776,9,8.5v-1C9,7.224,9.224,7,9.5,7H10V3.5C10,3.224,10.224,3,10.5,3h1
	C11.776,3,12,3.224,12,3.5V7h0.5C12.776,7,13,7.224,13,7.5V8.5z"/>
<g>
</g>
<g>
</g>
<g>
</g>
<g>
</g>
<g>
</g>
<g>
</g>
<g>
</g>
<g>
</g>
<g>
</g>
<g>
</g>
<g>
</g>
<g>
</g>
<g>
</g>
<g>
</g>
<g>
</g>
</svg>
