<?xml version="1.0" encoding="iso-8859-1"?>
<!-- Generator: Adobe Illustrator 16.0.0, SVG Export Plug-In . SVG Version: 6.00 Build 0)  -->
<!DOCTYPE svg PUBLIC "-//W3C//DTD SVG 1.1//EN" "http://www.w3.org/Graphics/SVG/1.1/DTD/svg11.dtd">
<svg version="1.1" id="Layer_1" xmlns="http://www.w3.org/2000/svg" xmlns:xlink="http://www.w3.org/1999/xlink" x="0px" y="0px"
	 width="15.997px" height="16.005px" viewBox="0 0 15.997 16.005" style="enable-background:new 0 0 15.997 16.005;"
	 xml:space="preserve">
<g id="Speaker_3_x2C__Volume_3_x2C__Mute_1">
	<path style="fill-rule:evenodd;clip-rule:evenodd;" d="M14.411,8.029l1.439-1.439c0.195-0.195,0.195-0.512,0-0.707l-0.707-0.707
		c-0.195-0.195-0.512-0.195-0.707,0l-1.439,1.439l-1.434-1.434c-0.195-0.195-0.512-0.195-0.707,0l-0.707,0.707
		c-0.195,0.195-0.195,0.512,0,0.707l1.434,1.434l-1.434,1.434c-0.195,0.195-0.195,0.512,0,0.707l0.707,0.707
		c0.195,0.195,0.512,0.195,0.707,0l1.434-1.434l1.439,1.439c0.195,0.195,0.512,0.195,0.707,0l0.707-0.707
		c0.195-0.195,0.195-0.512,0-0.707L14.411,8.029z"/>
	<path style="fill-rule:evenodd;clip-rule:evenodd;" d="M8.041,0.136L4,4.007H1c-0.553,0-1,0.484-1,1.026v5.952
		c0,0.542,0.447,1.021,1,1.021h3l4.062,3.904c0,0,0.938,0.562,0.938-1.065c0-0.8,0-8.463,0-13.737C9-0.536,8.041,0.136,8.041,0.136z
		"/>
</g>
<g>
</g>
<g>
</g>
<g>
</g>
<g>
</g>
<g>
</g>
<g>
</g>
<g>
</g>
<g>
</g>
<g>
</g>
<g>
</g>
<g>
</g>
<g>
</g>
<g>
</g>
<g>
</g>
<g>
</g>
</svg>
