<?xml version="1.0" encoding="iso-8859-1"?>
<!-- Generator: Adobe Illustrator 16.0.0, SVG Export Plug-In . SVG Version: 6.00 Build 0)  -->
<!DOCTYPE svg PUBLIC "-//W3C//DTD SVG 1.1//EN" "http://www.w3.org/Graphics/SVG/1.1/DTD/svg11.dtd">
<svg version="1.1" id="Layer_1" xmlns="http://www.w3.org/2000/svg" xmlns:xlink="http://www.w3.org/1999/xlink" x="0px" y="0px"
	 width="16px" height="16px" viewBox="0 0 16 16" style="enable-background:new 0 0 16 16;" xml:space="preserve">
<path id="Star_1" d="M15,0H1C0.448,0,0,0.447,0,1v14c0,0.553,0.448,1,1,1h14c0.552,0,1-0.447,1-1V1C16,0.447,15.552,0,15,0z
	 M12.871,7.135l-2.226,2.271l0.53,3.232c0.051,0.317-0.131,0.451-0.408,0.299L8,11.414l-2.767,1.522
	c-0.277,0.152-0.46,0.02-0.408-0.298l0.53-3.232L3.129,7.135c-0.223-0.228-0.151-0.45,0.16-0.497L6.36,6.171l1.393-2.953
	c0.137-0.29,0.358-0.29,0.495,0l1.392,2.953l3.071,0.467C13.021,6.685,13.093,6.907,12.871,7.135z"/>
<g>
</g>
<g>
</g>
<g>
</g>
<g>
</g>
<g>
</g>
<g>
</g>
<g>
</g>
<g>
</g>
<g>
</g>
<g>
</g>
<g>
</g>
<g>
</g>
<g>
</g>
<g>
</g>
<g>
</g>
</svg>
