<?xml version="1.0" encoding="iso-8859-1"?>
<!-- Generator: Adobe Illustrator 16.0.0, SVG Export Plug-In . SVG Version: 6.00 Build 0)  -->
<!DOCTYPE svg PUBLIC "-//W3C//DTD SVG 1.1//EN" "http://www.w3.org/Graphics/SVG/1.1/DTD/svg11.dtd">
<svg version="1.1" id="Layer_1" xmlns="http://www.w3.org/2000/svg" xmlns:xlink="http://www.w3.org/1999/xlink" x="0px" y="0px"
	 width="15.699px" height="15.699px" viewBox="0 0 15.699 15.699" style="enable-background:new 0 0 15.699 15.699;"
	 xml:space="preserve">
<g id="Target_1_x2C__Aim_2">
	<circle cx="7.85" cy="7.85" r="2"/>
	<path d="M7.85,0C3.521,0,0,3.521,0,7.85s3.521,7.85,7.85,7.85s7.85-3.521,7.85-7.85S12.178,0,7.85,0z M7.85,14
		c-3.391,0-6.15-2.76-6.15-6.15s2.76-6.15,6.15-6.15S14,4.459,14,7.85S11.24,14,7.85,14z"/>
	<path d="M7.85,3C5.176,3,3,5.176,3,7.85s2.176,4.85,4.85,4.85s4.85-2.176,4.85-4.85S10.523,3,7.85,3z M7.85,11
		c-1.736,0-3.15-1.414-3.15-3.15s1.414-3.15,3.15-3.15S11,6.113,11,7.85S9.586,11,7.85,11z"/>
</g>
<g>
</g>
<g>
</g>
<g>
</g>
<g>
</g>
<g>
</g>
<g>
</g>
<g>
</g>
<g>
</g>
<g>
</g>
<g>
</g>
<g>
</g>
<g>
</g>
<g>
</g>
<g>
</g>
<g>
</g>
</svg>
