<?xml version="1.0" encoding="iso-8859-1"?>
<!-- Generator: Adobe Illustrator 16.0.0, SVG Export Plug-In . SVG Version: 6.00 Build 0)  -->
<!DOCTYPE svg PUBLIC "-//W3C//DTD SVG 1.1//EN" "http://www.w3.org/Graphics/SVG/1.1/DTD/svg11.dtd">
<svg version="1.1" id="Layer_1" xmlns="http://www.w3.org/2000/svg" xmlns:xlink="http://www.w3.org/1999/xlink" x="0px" y="0px"
	 width="16px" height="16px" viewBox="0 0 16 16" style="enable-background:new 0 0 16 16;" xml:space="preserve">
<g id="Toolbox_1">
	<path d="M10.5,12h-5C5.224,12,5,11.776,5,11.5V11H0v4c0,0.553,0.447,1,1,1h14c0.553,0,1-0.447,1-1v-4h-5v0.5
		C11,11.776,10.776,12,10.5,12z"/>
	<path d="M12,3V1c0-0.553-0.447-1-1-1H5C4.447,0,4,0.447,4,1v2H1C0.447,3,0,3.447,0,4v6h5V8.5C5,8.224,5.224,8,5.5,8H6h4h0.5
		C10.776,8,11,8.224,11,8.5V9v1h5V4c0-0.553-0.447-1-1-1H12z M10,3H6V2h4V3z"/>
	<path d="M10,9.5C10,9.224,9.776,9,9.5,9h-3C6.224,9,6,9.224,6,9.5V10v0.5C6,10.776,6.224,11,6.5,11h3c0.276,0,0.5-0.224,0.5-0.5V10
		V9.5z"/>
</g>
<g>
</g>
<g>
</g>
<g>
</g>
<g>
</g>
<g>
</g>
<g>
</g>
<g>
</g>
<g>
</g>
<g>
</g>
<g>
</g>
<g>
</g>
<g>
</g>
<g>
</g>
<g>
</g>
<g>
</g>
</svg>
