<?xml version="1.0" encoding="iso-8859-1"?>
<!-- Generator: Adobe Illustrator 16.0.0, SVG Export Plug-In . SVG Version: 6.00 Build 0)  -->
<!DOCTYPE svg PUBLIC "-//W3C//DTD SVG 1.1//EN" "http://www.w3.org/Graphics/SVG/1.1/DTD/svg11.dtd">
<svg version="1.1" id="Layer_1" xmlns="http://www.w3.org/2000/svg" xmlns:xlink="http://www.w3.org/1999/xlink" x="0px" y="0px"
	 width="16px" height="10px" viewBox="0 0 16 10" style="enable-background:new 0 0 16 10;" xml:space="preserve">
<g id="Trademark_1">
	<path d="M0.5,2H2v7.5C2,9.776,2.224,10,2.5,10h1C3.776,10,4,9.776,4,9.5V2h1.5C5.776,2,6,1.776,6,1.5v-1C6,0.224,5.776,0,5.5,0h-5
		C0.224,0,0,0.224,0,0.5v1C0,1.776,0.224,2,0.5,2z"/>
	<path d="M14.225,0.425L12,4L9.754,0.424C9.607,0.189,9.265,0,8.988,0H8.5C8.224,0,8,0.224,8,0.5v9C8,9.776,8.224,10,8.5,10h1
		C9.776,10,10,9.776,10,9.5V3.914l1.729,2.666c0.149,0.232,0.398,0.235,0.555,0.008L14,4.093V9.5c0,0.276,0.224,0.5,0.5,0.5h1
		c0.276,0,0.5-0.224,0.5-0.5v-9C16,0.224,15.776,0,15.5,0h-0.512C14.712,0,14.37,0.189,14.225,0.425z"/>
</g>
<g>
</g>
<g>
</g>
<g>
</g>
<g>
</g>
<g>
</g>
<g>
</g>
<g>
</g>
<g>
</g>
<g>
</g>
<g>
</g>
<g>
</g>
<g>
</g>
<g>
</g>
<g>
</g>
<g>
</g>
</svg>
