<?xml version="1.0" encoding="iso-8859-1"?>
<!-- Generator: Adobe Illustrator 16.0.0, SVG Export Plug-In . SVG Version: 6.00 Build 0)  -->
<!DOCTYPE svg PUBLIC "-//W3C//DTD SVG 1.1//EN" "http://www.w3.org/Graphics/SVG/1.1/DTD/svg11.dtd">
<svg version="1.1" id="Layer_1" xmlns="http://www.w3.org/2000/svg" xmlns:xlink="http://www.w3.org/1999/xlink" x="0px" y="0px"
	 width="14px" height="16px" viewBox="0 0 14 16" style="enable-background:new 0 0 14 16;" xml:space="preserve">
<g id="Trash_2_x2C__Delete_2">
	<path d="M13,3h-3V1c0-0.553-0.348-1-0.9-1H4.9C4.348,0,4,0.447,4,1v2H1C0.447,3,0,3.447,0,4s0.447,1,1,1h12c0.553,0,1-0.447,1-1
		S13.553,3,13,3z M8,3H6V2h2V3z"/>
	<path d="M1,15c0,0.553,0.447,1,1,1h10c0.553,0,1-0.447,1-1V6.5C13,6.224,12.776,6,12.5,6h-11C1.224,6,1,6.224,1,6.5V14V15z"/>
</g>
<g>
</g>
<g>
</g>
<g>
</g>
<g>
</g>
<g>
</g>
<g>
</g>
<g>
</g>
<g>
</g>
<g>
</g>
<g>
</g>
<g>
</g>
<g>
</g>
<g>
</g>
<g>
</g>
<g>
</g>
</svg>
