<?xml version="1.0" encoding="iso-8859-1"?>
<!-- Generator: Adobe Illustrator 16.0.0, SVG Export Plug-In . SVG Version: 6.00 Build 0)  -->
<!DOCTYPE svg PUBLIC "-//W3C//DTD SVG 1.1//EN" "http://www.w3.org/Graphics/SVG/1.1/DTD/svg11.dtd">
<svg version="1.1" id="Layer_1" xmlns="http://www.w3.org/2000/svg" xmlns:xlink="http://www.w3.org/1999/xlink" x="0px" y="0px"
	 width="16px" height="16px" viewBox="0 0 16 16" style="enable-background:new 0 0 16 16;" xml:space="preserve">
<path id="Trash_4_x2C__Delete_4" d="M15,3h-3V1c0-0.553-0.447-1-1-1H5C4.447,0,4,0.447,4,1v2H1C0.447,3,0,3.447,0,4s0.447,1,1,1v9v1
	c0,0.553,0.447,1,1,1h12c0.553,0,1-0.447,1-1V5c0.553,0,1-0.447,1-1S15.553,3,15,3z M6,2h4v1H6V2z M7,12.5C7,12.776,6.776,13,6.5,13
	h-1C5.224,13,5,12.776,5,12.5v-6C5,6.224,5.224,6,5.5,6h1C6.776,6,7,6.224,7,6.5V12.5z M11,12.5c0,0.276-0.224,0.5-0.5,0.5h-1
	C9.224,13,9,12.776,9,12.5v-6C9,6.224,9.224,6,9.5,6h1C10.776,6,11,6.224,11,6.5V12.5z"/>
<g>
</g>
<g>
</g>
<g>
</g>
<g>
</g>
<g>
</g>
<g>
</g>
<g>
</g>
<g>
</g>
<g>
</g>
<g>
</g>
<g>
</g>
<g>
</g>
<g>
</g>
<g>
</g>
<g>
</g>
</svg>
