<?xml version="1.0" encoding="iso-8859-1"?>
<!-- Generator: Adobe Illustrator 16.0.0, SVG Export Plug-In . SVG Version: 6.00 Build 0)  -->
<!DOCTYPE svg PUBLIC "-//W3C//DTD SVG 1.1//EN" "http://www.w3.org/Graphics/SVG/1.1/DTD/svg11.dtd">
<svg version="1.1" id="Layer_1" xmlns="http://www.w3.org/2000/svg" xmlns:xlink="http://www.w3.org/1999/xlink" x="0px" y="0px"
	 width="15.891px" height="16px" viewBox="0 0 15.891 16" style="enable-background:new 0 0 15.891 16;" xml:space="preserve">
<path id="Umbrella_1" d="M15.884,8.004c-0.45-3.619-3.319-6.482-6.938-6.935V0.5c0-0.276-0.224-0.5-0.5-0.5h-1
	c-0.276,0-0.5,0.224-0.5,0.5v0.569C3.326,1.521,0.457,4.385,0.007,8.004C-0.062,8.551,0.393,9,0.945,9h6v4c0,0.551-0.448,1-1,1
	s-1-0.449-1-1c0-0.553-0.447-1-1-1s-1,0.447-1,1c0,1.654,1.346,3,3,3s3-1.346,3-3V9h6C15.498,9,15.952,8.551,15.884,8.004z"/>
<g>
</g>
<g>
</g>
<g>
</g>
<g>
</g>
<g>
</g>
<g>
</g>
<g>
</g>
<g>
</g>
<g>
</g>
<g>
</g>
<g>
</g>
<g>
</g>
<g>
</g>
<g>
</g>
<g>
</g>
</svg>
