<?xml version="1.0" encoding="iso-8859-1"?>
<!-- Generator: Adobe Illustrator 16.0.0, SVG Export Plug-In . SVG Version: 6.00 Build 0)  -->
<!DOCTYPE svg PUBLIC "-//W3C//DTD SVG 1.1//EN" "http://www.w3.org/Graphics/SVG/1.1/DTD/svg11.dtd">
<svg version="1.1" id="Layer_1" xmlns="http://www.w3.org/2000/svg" xmlns:xlink="http://www.w3.org/1999/xlink" x="0px" y="0px"
	 width="14px" height="16px" viewBox="0 0 14 16" style="enable-background:new 0 0 14 16;" xml:space="preserve">
<path id="Unlock_3" d="M4,7V5c0-1.654,1.346-3,3-3c1.311,0,2.428,0.846,2.835,2.02C10.017,4.541,10.447,5,11,5l0,0
	c0.553,0,1.011-0.451,0.901-0.992C11.441,1.721,9.422,0,7,0C4.238,0,2,2.238,2,5v2H1C0.447,7,0,7.547,0,8.1V15c0,0.553,0.447,1,1,1
	h12c0.553,0,1-0.447,1-1V8.1C14,7.547,13.553,7,13,7H4z"/>
<g>
</g>
<g>
</g>
<g>
</g>
<g>
</g>
<g>
</g>
<g>
</g>
<g>
</g>
<g>
</g>
<g>
</g>
<g>
</g>
<g>
</g>
<g>
</g>
<g>
</g>
<g>
</g>
<g>
</g>
</svg>
