<?xml version="1.0" encoding="iso-8859-1"?>
<!-- Generator: Adobe Illustrator 16.0.0, SVG Export Plug-In . SVG Version: 6.00 Build 0)  -->
<!DOCTYPE svg PUBLIC "-//W3C//DTD SVG 1.1//EN" "http://www.w3.org/Graphics/SVG/1.1/DTD/svg11.dtd">
<svg version="1.1" id="Layer_1" xmlns="http://www.w3.org/2000/svg" xmlns:xlink="http://www.w3.org/1999/xlink" x="0px" y="0px"
	 width="16px" height="16px" viewBox="0 0 16 16" style="enable-background:new 0 0 16 16;" xml:space="preserve">
<path id="Up_Circle_4" style="fill-rule:evenodd;clip-rule:evenodd;" d="M8,0C3.582,0,0,3.582,0,8s3.582,8,8,8s8-3.582,8-8
	S12.418,0,8,0z M11.853,8.174l-0.717,0.684c-0.197,0.189-0.518,0.189-0.716,0L9,7.516V11.5C9,11.776,8.776,12,8.5,12h-1
	C7.224,12,7,11.776,7,11.5V7.489L5.581,8.83c-0.197,0.189-0.518,0.189-0.715,0L4.149,8.146c-0.199-0.188-0.199-0.494,0-0.684
	l3.479-3.322c0.197-0.188,0.518-0.188,0.717,0l3.507,3.35C12.05,7.68,12.05,7.986,11.853,8.174z"/>
<g>
</g>
<g>
</g>
<g>
</g>
<g>
</g>
<g>
</g>
<g>
</g>
<g>
</g>
<g>
</g>
<g>
</g>
<g>
</g>
<g>
</g>
<g>
</g>
<g>
</g>
<g>
</g>
<g>
</g>
</svg>
