<?xml version="1.0" encoding="iso-8859-1"?>
<!-- Generator: Adobe Illustrator 16.0.0, SVG Export Plug-In . SVG Version: 6.00 Build 0)  -->
<!DOCTYPE svg PUBLIC "-//W3C//DTD SVG 1.1//EN" "http://www.w3.org/Graphics/SVG/1.1/DTD/svg11.dtd">
<svg version="1.1" id="Layer_1" xmlns="http://www.w3.org/2000/svg" xmlns:xlink="http://www.w3.org/1999/xlink" x="0px" y="0px"
	 width="16px" height="17.001px" viewBox="0 0 16 17.001" style="enable-background:new 0 0 16 17.001;" xml:space="preserve">
<g id="Upload_2">
	<path d="M15.997,11.988c-0.001-0.122-0.026-0.239-0.07-0.352c-0.014-0.034-0.035-0.062-0.053-0.096
		c-0.038-0.071-0.08-0.14-0.136-0.201c-0.03-0.034-0.063-0.062-0.099-0.092c-0.029-0.025-0.052-0.057-0.085-0.079l-3-2
		C12.391,9.06,12.197,9.001,12,9.001H4c-0.197,0-0.391,0.059-0.555,0.168l-3,2c-0.033,0.022-0.056,0.054-0.086,0.079
		c-0.034,0.03-0.067,0.058-0.098,0.092c-0.056,0.062-0.099,0.13-0.136,0.202c-0.018,0.032-0.039,0.061-0.053,0.095
		c-0.044,0.112-0.069,0.229-0.07,0.352C0.003,11.993,0,11.996,0,12.001v4c0,0.553,0.447,1,1,1h14c0.553,0,1-0.447,1-1v-4
		C16,11.996,15.997,11.993,15.997,11.988z M14,15.001H2v-2h12V15.001z"/>
	<path d="M5.307,4.001H7V6.5c0,0.275,0.226,0.501,0.502,0.501h1C8.778,7.001,9,6.775,9,6.5V4.001h1.697
		c0.297,0,0.394-0.266,0.215-0.5L8.325,0.178C8.146-0.057,7.857-0.061,7.679,0.174L5.092,3.501C4.913,3.737,5.01,4.001,5.307,4.001z
		"/>
</g>
<g>
</g>
<g>
</g>
<g>
</g>
<g>
</g>
<g>
</g>
<g>
</g>
<g>
</g>
<g>
</g>
<g>
</g>
<g>
</g>
<g>
</g>
<g>
</g>
<g>
</g>
<g>
</g>
<g>
</g>
</svg>
