<?xml version="1.0" encoding="iso-8859-1"?>
<!-- Generator: Adobe Illustrator 16.0.0, SVG Export Plug-In . SVG Version: 6.00 Build 0)  -->
<!DOCTYPE svg PUBLIC "-//W3C//DTD SVG 1.1//EN" "http://www.w3.org/Graphics/SVG/1.1/DTD/svg11.dtd">
<svg version="1.1" id="Layer_1" xmlns="http://www.w3.org/2000/svg" xmlns:xlink="http://www.w3.org/1999/xlink" x="0px" y="0px"
	 width="16px" height="16px" viewBox="0 0 16 16" style="enable-background:new 0 0 16 16;" xml:space="preserve">
<g id="User_2_x2C__Profile_3">
	<path d="M11.829,9.615C10.789,10.479,9.455,11,8,11s-2.789-0.521-3.829-1.385C1.687,10.463,0,12.106,0,14v1c0,0.553,0.448,1,1,1h14
		c0.552,0,1-0.447,1-1v-1C16,12.106,14.313,10.463,11.829,9.615z"/>
	<path d="M8,9c2.209,0,4-1.791,4-4V4c0-2.209-1.791-4-4-4S4,1.791,4,4v1C4,7.209,5.791,9,8,9z"/>
</g>
<g>
</g>
<g>
</g>
<g>
</g>
<g>
</g>
<g>
</g>
<g>
</g>
<g>
</g>
<g>
</g>
<g>
</g>
<g>
</g>
<g>
</g>
<g>
</g>
<g>
</g>
<g>
</g>
<g>
</g>
</svg>
