<?xml version="1.0" encoding="iso-8859-1"?>
<!-- Generator: Adobe Illustrator 16.0.0, SVG Export Plug-In . SVG Version: 6.00 Build 0)  -->
<!DOCTYPE svg PUBLIC "-//W3C//DTD SVG 1.1//EN" "http://www.w3.org/Graphics/SVG/1.1/DTD/svg11.dtd">
<svg version="1.1" id="Layer_1" xmlns="http://www.w3.org/2000/svg" xmlns:xlink="http://www.w3.org/1999/xlink" x="0px" y="0px"
	 width="15.628px" height="15.668px" viewBox="0 0 15.628 15.668" style="enable-background:new 0 0 15.628 15.668;"
	 xml:space="preserve">
<path id="User_4_x2C__Profile_5" d="M15.585,14.417c-0.823-2.688-3.086-4.749-5.742-4.749H9.814V9.286
	c0.824-0.593,1.368-1.539,1.422-2.618h0.328c0.69,0,1.25-0.5,1.25-1.19s-0.56-1.19-1.25-1.19c1.094-2.307-0.75-3.619-0.75-3.619
	c-1.25-1-2.971-0.868-3.821,0.337C6.555,1.627,6.564,1.787,6.564,1.787c-2-0.838-3.062,1.443-2.5,2.5c-0.69,0-1.25,0.5-1.25,1.19
	s0.56,1.19,1.25,1.19h0.328C4.446,7.747,4.99,8.693,5.814,9.286v0.382H5.785c-2.656,0-4.919,2.061-5.742,4.749
	c-0.186,0.605,0.262,1.251,0.895,1.251h13.754C15.324,15.668,15.771,15.022,15.585,14.417z"/>
<g>
</g>
<g>
</g>
<g>
</g>
<g>
</g>
<g>
</g>
<g>
</g>
<g>
</g>
<g>
</g>
<g>
</g>
<g>
</g>
<g>
</g>
<g>
</g>
<g>
</g>
<g>
</g>
<g>
</g>
</svg>
