<?xml version="1.0" encoding="iso-8859-1"?>
<!-- Generator: Adobe Illustrator 16.0.0, SVG Export Plug-In . SVG Version: 6.00 Build 0)  -->
<!DOCTYPE svg PUBLIC "-//W3C//DTD SVG 1.1//EN" "http://www.w3.org/Graphics/SVG/1.1/DTD/svg11.dtd">
<svg version="1.1" id="Layer_1" xmlns="http://www.w3.org/2000/svg" xmlns:xlink="http://www.w3.org/1999/xlink" x="0px" y="0px"
	 width="11.953px" height="15.737px" viewBox="0 0 11.953 15.737" style="enable-background:new 0 0 11.953 15.737;"
	 xml:space="preserve">
<path id="Water_1" d="M6.25,0.154c-0.184-0.206-0.488-0.207-0.671,0C3.393,2.628,0,7.372,0,9.76c0,3.297,2.681,5.978,5.977,5.978
	s5.977-2.681,5.977-5.978C11.953,7.375,8.447,2.63,6.25,0.154z M6.649,12.783c-0.604,0-1.158-0.233-1.57-0.611
	c-0.189-0.174-0.102-0.369,0.147-0.432c1.332-0.332,2.376-1.375,2.707-2.708c0.062-0.249,0.258-0.336,0.432-0.146
	c0.378,0.412,0.611,0.966,0.611,1.57C8.977,11.74,7.934,12.783,6.649,12.783z"/>
<g>
</g>
<g>
</g>
<g>
</g>
<g>
</g>
<g>
</g>
<g>
</g>
<g>
</g>
<g>
</g>
<g>
</g>
<g>
</g>
<g>
</g>
<g>
</g>
<g>
</g>
<g>
</g>
<g>
</g>
</svg>
