<?xml version="1.0" encoding="iso-8859-1"?>
<!-- Generator: Adobe Illustrator 16.0.0, SVG Export Plug-In . SVG Version: 6.00 Build 0)  -->
<!DOCTYPE svg PUBLIC "-//W3C//DTD SVG 1.1//EN" "http://www.w3.org/Graphics/SVG/1.1/DTD/svg11.dtd">
<svg version="1.1" id="Layer_1" xmlns="http://www.w3.org/2000/svg" xmlns:xlink="http://www.w3.org/1999/xlink" x="0px" y="0px"
	 width="17px" height="17px" viewBox="0 0 17 17" style="enable-background:new 0 0 17 17;" xml:space="preserve">
<g id="Whale_1">
	<path d="M16,10h-2c-0.553,0-1,0.447-1,1v1h1v2c0,0.553-0.447,1-1,1s-1-0.447-1-1V5c0-0.553-0.447-1-1-1H1C0.447,4,0,4.447,0,5v11
		c0,0.553,0.447,1,1,1h11h3c0.553,0,1-0.447,1-1v-4h1v-1C17,10.447,16.553,10,16,10z M5,14H3v-2h2V14z"/>
	<path d="M3.75,3H5V1.75C5,1.059,4.441,0.5,3.75,0.5S2.5,1.059,2.5,1.75S3.059,3,3.75,3z"/>
	<path d="M9,1.5C9,0.671,8.33,0,7.5,0C6.672,0,6,0.671,6,1.5V3h1.5C8.33,3,9,2.329,9,1.5z"/>
</g>
<g>
</g>
<g>
</g>
<g>
</g>
<g>
</g>
<g>
</g>
<g>
</g>
<g>
</g>
<g>
</g>
<g>
</g>
<g>
</g>
<g>
</g>
<g>
</g>
<g>
</g>
<g>
</g>
<g>
</g>
</svg>
