<?xml version="1.0" encoding="iso-8859-1"?>
<!-- Generator: Adobe Illustrator 16.0.0, SVG Export Plug-In . SVG Version: 6.00 Build 0)  -->
<!DOCTYPE svg PUBLIC "-//W3C//DTD SVG 1.1//EN" "http://www.w3.org/Graphics/SVG/1.1/DTD/svg11.dtd">
<svg version="1.1" id="Layer_1" xmlns="http://www.w3.org/2000/svg" xmlns:xlink="http://www.w3.org/1999/xlink" x="0px" y="0px"
	 width="14.984px" height="14.985px" viewBox="0 0 14.984 14.985" style="enable-background:new 0 0 14.984 14.985;"
	 xml:space="preserve">
<g id="Wifi_Rounded_3_x2C__Wireless_Rounded_3">
	<path d="M11.798,4.512c-0.36-0.419-0.995-1.054-1.414-1.414C7.959,1.017,5.04,0.122,1.001,0C0.448-0.017,0,0.433,0,0.985
		s0.443,0.922,0.995,0.902C3.897,1.78,7.592,3.081,9.703,5.192c2.111,2.112,3.484,5.879,3.393,8.798
		c-0.018,0.552,0.352,0.995,0.904,0.995s1.002-0.448,0.984-1C14.853,9.935,13.893,6.949,11.798,4.512z"/>
	<path d="M7.561,5.939C5.915,4.628,3.943,4.093,1,4.001C0.447,3.983,0,4.433,0,4.985s0.447,0.997,0.999,1.019
		C3.515,6.102,5.48,6.61,6.891,8.021s1.978,3.435,2.089,5.965c0.023,0.553,0.468,1,1.021,1s1.003-0.447,0.983-1
		c-0.102-2.956-0.685-4.976-2.012-6.635C8.627,6.919,7.992,6.284,7.561,5.939z"/>
	<path d="M0.998,7.998C0.447,7.968,0,8.415,0,8.968v0.018c0,0.553,0.447,0.997,1,1.01c2.055,0.048,2.516,0.49,3,1.001
		c0.655,0.69,0.985,1.581,1.018,2.989c0.013,0.552,0.406,1,0.93,1s0.976-0.447,0.963-1c-0.04-1.729-0.191-3.266-1.451-4.54
		C4.218,8.189,2.709,8.092,0.998,7.998z"/>
	<circle cx="1.5" cy="13.485" r="1.5"/>
</g>
<g>
</g>
<g>
</g>
<g>
</g>
<g>
</g>
<g>
</g>
<g>
</g>
<g>
</g>
<g>
</g>
<g>
</g>
<g>
</g>
<g>
</g>
<g>
</g>
<g>
</g>
<g>
</g>
<g>
</g>
</svg>
