<?xml version="1.0" encoding="iso-8859-1"?>
<!-- Generator: Adobe Illustrator 16.0.0, SVG Export Plug-In . SVG Version: 6.00 Build 0)  -->
<!DOCTYPE svg PUBLIC "-//W3C//DTD SVG 1.1//EN" "http://www.w3.org/Graphics/SVG/1.1/DTD/svg11.dtd">
<svg version="1.1" id="Layer_1" xmlns="http://www.w3.org/2000/svg" xmlns:xlink="http://www.w3.org/1999/xlink" x="0px" y="0px"
	 width="18.001px" height="16px" viewBox="0 0 18.001 16" style="enable-background:new 0 0 18.001 16;" xml:space="preserve">
<g id="Wifi_2_x2C__Wireless_2">
	<path style="fill-rule:evenodd;clip-rule:evenodd;" d="M0.115,4.357c-0.17,0.213-0.147,0.551,0.041,0.746L0.85,5.826
		c0.188,0.195,0.465,0.172,0.63-0.045C3.244,3.479,5.964,2,9.001,2s5.756,1.479,7.521,3.781c0.165,0.217,0.442,0.24,0.63,0.045
		l0.694-0.723c0.188-0.195,0.21-0.533,0.04-0.746C15.773,1.701,12.575,0,9.001,0C5.426,0,2.229,1.701,0.115,4.357z"/>
	<path style="fill-rule:evenodd;clip-rule:evenodd;" d="M2.851,7.211C2.691,7.432,2.725,7.778,2.912,7.974l0.714,0.743
		C3.814,8.912,4.07,8.873,4.22,8.645C5.257,7.051,7.011,6,9.001,6s3.743,1.051,4.781,2.645c0.149,0.229,0.405,0.268,0.593,0.072
		l0.714-0.743c0.188-0.195,0.222-0.542,0.062-0.763C13.741,5.262,11.51,4,9.001,4S4.261,5.262,2.851,7.211z"/>
	<path style="fill-rule:evenodd;clip-rule:evenodd;" d="M5.323,9.782c-0.17,0.211-0.139,0.556,0.049,0.751l0.724,0.753
		c0.188,0.195,0.436,0.151,0.594-0.069C7.217,10.48,8.057,10,9.001,10c0.943,0,1.783,0.48,2.311,1.217
		c0.159,0.221,0.406,0.265,0.594,0.069l0.724-0.753c0.188-0.195,0.22-0.54,0.049-0.751C11.798,8.697,10.479,8,9.001,8
		S6.204,8.697,5.323,9.782z"/>
	<ellipse style="fill-rule:evenodd;clip-rule:evenodd;" cx="9.001" cy="14" rx="1.922" ry="2"/>
</g>
<g>
</g>
<g>
</g>
<g>
</g>
<g>
</g>
<g>
</g>
<g>
</g>
<g>
</g>
<g>
</g>
<g>
</g>
<g>
</g>
<g>
</g>
<g>
</g>
<g>
</g>
<g>
</g>
<g>
</g>
</svg>
