<?xml version="1.0" encoding="iso-8859-1"?>
<!-- Generator: Adobe Illustrator 16.0.0, SVG Export Plug-In . SVG Version: 6.00 Build 0)  -->
<!DOCTYPE svg PUBLIC "-//W3C//DTD SVG 1.1//EN" "http://www.w3.org/Graphics/SVG/1.1/DTD/svg11.dtd">
<svg version="1.1" id="Layer_1" xmlns="http://www.w3.org/2000/svg" xmlns:xlink="http://www.w3.org/1999/xlink" x="0px" y="0px"
	 width="16px" height="16px" viewBox="0 0 16 16" style="enable-background:new 0 0 16 16;" xml:space="preserve">
<path id="Window_2" style="fill-rule:evenodd;clip-rule:evenodd;" d="M15,0H1C0.447,0,0,0.447,0,1v14c0,0.553,0.447,1,1,1h14
	c0.553,0,1-0.447,1-1V1C16,0.447,15.553,0,15,0z M7,11.5C7,11.776,6.776,12,6.5,12h-2C4.224,12,4,11.776,4,11.5v-2
	C4,9.224,4.224,9,4.5,9h2C6.776,9,7,9.224,7,9.5V11.5z M7,6.5C7,6.776,6.776,7,6.5,7h-2C4.224,7,4,6.776,4,6.5v-2
	C4,4.224,4.224,4,4.5,4h2C6.776,4,7,4.224,7,4.5V6.5z M12,11.5c0,0.276-0.224,0.5-0.5,0.5h-2C9.224,12,9,11.776,9,11.5v-2
	C9,9.224,9.224,9,9.5,9h2C11.776,9,12,9.224,12,9.5V11.5z M12,6.5C12,6.776,11.776,7,11.5,7h-2C9.224,7,9,6.776,9,6.5v-2
	C9,4.224,9.224,4,9.5,4h2C11.776,4,12,4.224,12,4.5V6.5z"/>
<g>
</g>
<g>
</g>
<g>
</g>
<g>
</g>
<g>
</g>
<g>
</g>
<g>
</g>
<g>
</g>
<g>
</g>
<g>
</g>
<g>
</g>
<g>
</g>
<g>
</g>
<g>
</g>
<g>
</g>
</svg>
