<?xml version="1.0" encoding="iso-8859-1"?>
<!-- Generator: Adobe Illustrator 16.0.0, SVG Export Plug-In . SVG Version: 6.00 Build 0)  -->
<!DOCTYPE svg PUBLIC "-//W3C//DTD SVG 1.1//EN" "http://www.w3.org/Graphics/SVG/1.1/DTD/svg11.dtd">
<svg version="1.1" id="Layer_1" xmlns="http://www.w3.org/2000/svg" xmlns:xlink="http://www.w3.org/1999/xlink" x="0px" y="0px"
	 width="16px" height="16px" viewBox="0 0 16 16" style="enable-background:new 0 0 16 16;" xml:space="preserve">
<path id="X_3" style="fill-rule:evenodd;clip-rule:evenodd;" d="M15,0H1C0.447,0,0,0.447,0,1v14c0,0.553,0.447,1,1,1h14
	c0.553,0,1-0.447,1-1V1C16,0.447,15.553,0,15,0z M11.182,9.768c0.195,0.195,0.195,0.512,0,0.707l-0.707,0.707
	c-0.195,0.195-0.512,0.195-0.707,0L8,9.414l-1.768,1.768c-0.195,0.195-0.512,0.195-0.707,0l-0.707-0.707
	c-0.195-0.195-0.195-0.512,0-0.707L6.586,8L4.818,6.232c-0.195-0.195-0.195-0.512,0-0.707l0.707-0.707
	c0.195-0.195,0.512-0.195,0.707,0L8,6.586l1.768-1.768c0.195-0.195,0.512-0.195,0.707,0l0.707,0.707
	c0.195,0.195,0.195,0.512,0,0.707L9.414,8L11.182,9.768z"/>
<g>
</g>
<g>
</g>
<g>
</g>
<g>
</g>
<g>
</g>
<g>
</g>
<g>
</g>
<g>
</g>
<g>
</g>
<g>
</g>
<g>
</g>
<g>
</g>
<g>
</g>
<g>
</g>
<g>
</g>
</svg>
