<?xml version="1.0" encoding="utf-8"?>
<!-- Generator: Adobe Illustrator 17.0.2, SVG Export Plug-In . SVG Version: 6.00 Build 0)  -->
<!DOCTYPE svg PUBLIC "-//W3C//DTD SVG 1.1//EN" "http://www.w3.org/Graphics/SVG/1.1/DTD/svg11.dtd">
<svg version="1.1" id="Laag_1" xmlns="http://www.w3.org/2000/svg" xmlns:xlink="http://www.w3.org/1999/xlink" x="0px" y="0px"
	 viewBox="0 0 419.9 299.4">
<g>
	<g>
		<path style="fill:#F0699D;" d="M182.6,298.7l-1.7-1.3l3.7-5c-0.2,0-0.4,0-0.5,0.1c-0.1,0-0.3,0-0.3,0c-1.2,0-2.3-0.5-3.2-1.4
			c-0.9-0.9-1.4-2.1-1.4-3.4c0-1.4,0.5-2.6,1.5-3.6c1-1,2.2-1.5,3.6-1.5c1.4,0,2.6,0.5,3.7,1.5c1,1,1.6,2.2,1.6,3.5
			c0,1.2-0.5,2.5-1.5,3.9L182.6,298.7z M181.4,287.5c0,0.8,0.3,1.5,0.9,2.1c0.6,0.6,1.3,0.9,2.1,0.9c0.8,0,1.5-0.3,2.1-0.9
			c0.6-0.6,0.9-1.3,0.9-2.1c0-0.8-0.3-1.5-0.9-2.1c-0.6-0.6-1.3-0.9-2.1-0.9c-0.8,0-1.5,0.3-2.1,0.9
			C181.7,286,181.4,286.7,181.4,287.5z"/>
		<path style="fill:#F0699D;" d="M192.7,292.3h4.5v2h-4.5V292.3z"/>
		<path style="fill:#F0699D;" d="M204.8,284.9h-2.7l1.3-2.2h3.7v15.5h-2.3V284.9z"/>
		<path style="fill:#F0699D;" d="M217.8,291v-2c1,0,1.7-0.1,2-0.3c0.6-0.4,0.9-1,0.9-1.9c0-0.7-0.2-1.2-0.7-1.6
			c-0.4-0.4-1-0.6-1.7-0.6c-0.6,0-1.1,0.2-1.5,0.5c-0.3,0.3-0.6,0.9-0.8,1.6h-2.3c0.2-1.5,0.7-2.5,1.5-3.2c0.7-0.7,1.8-1,3.1-1
			c1.4,0,2.5,0.4,3.3,1.2c0.9,0.8,1.3,1.8,1.3,3.1c0,1.4-0.6,2.5-1.7,3.3c1.3,0.8,1.9,2,1.9,3.7c0,1.4-0.5,2.5-1.4,3.4
			c-0.9,0.9-2.1,1.3-3.6,1.3c-1.9,0-3.2-0.7-4.1-2.1c-0.4-0.6-0.6-1.4-0.7-2.4h2.3c0.1,0.7,0.4,1.3,0.9,1.7c0.5,0.4,1.1,0.6,1.8,0.6
			c0.8,0,1.4-0.3,1.9-0.8c0.5-0.5,0.7-1.2,0.7-2c0-1-0.4-1.8-1.1-2.2C219.3,291.2,218.7,291,217.8,291z"/>
		<path style="fill:#F0699D;" d="M237.4,298.2v-15.5h3.2c1.6,0,2.8,0.2,3.7,0.5c1,0.3,1.8,0.8,2.6,1.5c1.6,1.5,2.4,3.4,2.4,5.7
			c0,2.4-0.8,4.3-2.5,5.8c-0.8,0.7-1.7,1.2-2.6,1.5c-0.9,0.3-2.1,0.4-3.6,0.4H237.4z M239.7,296h1.1c1,0,1.9-0.1,2.6-0.3
			c0.7-0.2,1.3-0.6,1.9-1.1c1.1-1,1.7-2.4,1.7-4.1c0-1.7-0.6-3.1-1.7-4.1c-1-0.9-2.5-1.4-4.5-1.4h-1.1V296z"/>
		<path style="fill:#F0699D;" d="M262.9,284.9h-6.2v3.7h6v2.2h-6v5.2h6.2v2.2h-8.5v-15.5h8.5V284.9z"/>
		<path style="fill:#F0699D;" d="M279.4,283.6v2.8c-1.3-1.1-2.7-1.7-4.2-1.7c-1.6,0-2.9,0.6-4,1.7c-1.1,1.1-1.6,2.5-1.6,4.2
			c0,1.6,0.5,3,1.6,4.1c1.1,1.1,2.4,1.7,4,1.7c0.8,0,1.5-0.1,2.1-0.4c0.3-0.1,0.7-0.3,1-0.5c0.3-0.2,0.7-0.5,1.1-0.8v2.8
			c-1.3,0.8-2.7,1.1-4.2,1.1c-2.2,0-4.1-0.8-5.7-2.3c-1.6-1.6-2.3-3.4-2.3-5.6c0-2,0.7-3.7,2-5.3c1.6-1.9,3.7-2.8,6.2-2.8
			C276.8,282.5,278.1,282.8,279.4,283.6z"/>
		<path style="fill:#F0699D;" d="M292.9,284.9h-6.2v3.7h6v2.2h-6v5.2h6.2v2.2h-8.5v-15.5h8.5V284.9z"/>
		<path style="fill:#F0699D;" d="M297.5,298.2l3.3-16.6l5.3,12l5.5-12l2.9,16.6h-2.4l-1.5-9.3l-4.6,10l-4.4-10.1l-1.7,9.3H297.5z"/>
		<path style="fill:#F0699D;" d="M319.8,298.2v-15.5h2.3c1,0,1.9,0.1,2.5,0.2c0.6,0.2,1.1,0.4,1.6,0.8c0.4,0.4,0.8,0.9,1,1.5
			c0.3,0.6,0.4,1.2,0.4,1.8c0,1.1-0.4,2-1.3,2.8c0.8,0.3,1.5,0.8,1.9,1.5c0.5,0.7,0.7,1.5,0.7,2.4c0,1.2-0.4,2.2-1.3,3.1
			c-0.5,0.5-1.1,0.9-1.7,1.1c-0.7,0.2-1.6,0.3-2.6,0.3H319.8z M322.1,289.4h0.7c0.9,0,1.5-0.2,1.9-0.6c0.4-0.4,0.6-0.9,0.6-1.7
			c0-0.7-0.2-1.3-0.6-1.7c-0.4-0.4-1-0.6-1.8-0.6h-0.8V289.4z M322.1,296h1.4c1.1,0,1.8-0.2,2.3-0.6c0.5-0.4,0.8-1,0.8-1.7
			c0-0.7-0.3-1.2-0.8-1.7c-0.5-0.4-1.4-0.7-2.6-0.7h-1.2V296z"/>
		<path style="fill:#F0699D;" d="M342.5,284.9h-6.2v3.7h6v2.2h-6v5.2h6.2v2.2H334v-15.5h8.5V284.9z"/>
		<path style="fill:#F0699D;" d="M352.8,291.6l4.8,6.6h-2.9l-4.4-6.3h-0.4v6.3h-2.3v-15.5h2.7c2,0,3.5,0.4,4.4,1.2
			c1,0.9,1.5,2,1.5,3.4c0,1.1-0.3,2-0.9,2.8C354.7,290.9,353.9,291.4,352.8,291.6z M349.9,289.9h0.7c2.2,0,3.3-0.8,3.3-2.5
			c0-1.6-1.1-2.4-3.2-2.4h-0.8V289.9z"/>
	</g>
	<g>
		<path style="fill:#3FB761;" d="M180.3,241.4v-19.1h10.1v3.9h-5.6v3.5h4.5v4.1h-4.5v7.6H180.3z"/>
		<path style="fill:#3FB761;" d="M205.3,222.3v14.4c0,3.2-2,5-5.5,5c-3.6,0-5.5-1.8-5.5-5v-14.4h4.5v13.9c0,1,0.2,1.5,1.1,1.5
			c0.8,0,1.1-0.5,1.1-1.5v-13.9H205.3z"/>
		<path style="fill:#3FB761;" d="M209.7,241.4v-19.1h4.3l2.9,8.5h0.1v-8.5h3.8v19.1h-4.2l-3-9.9h-0.1v9.9H209.7z"/>
		<path style="fill:#3FB761;" d="M225.1,222.3h4.5c5.1,0,6.6,1.3,6.6,9.6c0,7.3-1.1,9.6-6.6,9.6h-4.5V222.3z M229.6,237.8
			c2,0,2.2-0.7,2.2-4.2v-3.5c0-3.5-0.2-4.2-2.2-4.2V237.8z"/>
		<path style="fill:#3FB761;" d="M240.3,236.5V233h7.2v3.6H240.3z"/>
		<path style="fill:#3FB761;" d="M251.5,241.4v-19.1h5.5c3.8,0,5.5,1.3,5.5,5.4c0,3.1-1.3,4-2.1,4.3v0.1c1.6,0.3,2.1,3,2.1,5.4
			c0,1.9,0.2,3.2,0.6,4h-4.4c-0.4-1.6-0.5-2.6-0.5-4c0-3.2-0.3-3.8-1.7-3.8h-0.6v7.8H251.5z M255.8,230.4h0.8c1.2,0,1.7-0.7,1.7-2.3
			c0-1.5-0.4-2.3-1.7-2.3h-0.8V230.4z"/>
		<path style="fill:#3FB761;" d="M277.7,241.4h-4.3l-0.4-2.4h-2.7l-0.4,2.4h-4.3l3.3-19.1h5.4L277.7,241.4z M270.6,235.3h2.2
			l-1.1-7.9h-0.1L270.6,235.3z"/>
		<path style="fill:#3FB761;" d="M285.2,236.2c0,1.1,0.5,1.6,1.2,1.6s1.2-0.5,1.2-1.6v-3.4h4.5c0,2.5-0.1,4-0.3,5
			c-0.6,2.8-2.9,3.9-5.5,3.9c-4.5,0-5.9-2.8-5.9-9.9c0-7.1,1.3-9.9,5.9-9.9c2.6,0,4.8,1.1,5.5,3.8c0.2,0.9,0.3,2.3,0.3,4.6h-4.5
			v-2.8c0-1.1-0.5-1.6-1.2-1.6s-1.2,0.5-1.2,1.6V236.2z"/>
		<path style="fill:#3FB761;" d="M296.7,241.4v-19.1h4.5v19.1H296.7z"/>
		<path style="fill:#3FB761;" d="M305.9,241.4v-19.1h4.3l2.9,8.5h0.1v-8.5h3.8v19.1h-4.2l-3-9.9h-0.1v9.9H305.9z"/>
		<path style="fill:#3FB761;" d="M325.6,236.3c0,1.1,0.5,1.6,1.2,1.6c0.7,0,1.2-0.5,1.2-1.6v-1.9h-1.1v-3.6h5.6v10.6h-2.3l-0.6-1
			c-0.9,0.9-1.9,1.3-3.3,1.3c-4.4,0-5.3-2.3-5.3-9.9c0-7.2,1.5-9.9,5.9-9.9c2.4,0,4.5,1,5.3,3.4c0.2,0.7,0.3,1.7,0.3,3.2h-4.5v-1.1
			c0-1.1-0.5-1.6-1.2-1.6c-0.7,0-1.2,0.5-1.2,1.6V236.3z"/>
		<path style="fill:#3FB761;" d="M344.8,241.4v-19.1h10.1v3.9h-5.6v3.5h4.5v4.1h-4.5v7.6H344.8z"/>
		<path style="fill:#3FB761;" d="M358.7,226.3c0.6-3.1,2.7-4.3,5.6-4.3c2.8,0,4.9,1.2,5.6,4.3c0.2,1,0.3,2.7,0.3,5.6
			c0,2.9-0.1,4.6-0.3,5.6c-0.6,3.1-2.7,4.3-5.6,4.3c-2.8,0-4.9-1.2-5.6-4.3c-0.2-1-0.3-2.7-0.3-5.6
			C358.4,229,358.5,227.3,358.7,226.3z M363.1,236.2c0,1.1,0.5,1.6,1.2,1.6s1.2-0.5,1.2-1.6v-8.7c0-1.1-0.5-1.6-1.2-1.6
			s-1.2,0.5-1.2,1.6V236.2z"/>
		<path style="fill:#3FB761;" d="M374.2,241.4v-19.1h5.5c3.8,0,5.5,1.3,5.5,5.4c0,3.1-1.3,4-2.1,4.3v0.1c1.6,0.3,2.1,3,2.1,5.4
			c0,1.9,0.2,3.2,0.6,4h-4.4c-0.4-1.6-0.5-2.6-0.5-4c0-3.2-0.3-3.8-1.7-3.8h-0.6v7.8H374.2z M378.5,230.4h0.8c1.2,0,1.7-0.7,1.7-2.3
			c0-1.5-0.4-2.3-1.7-2.3h-0.8V230.4z"/>
		<path style="fill:#3FB761;" d="M187.2,257.3c-0.1-2.1-0.7-2.7-1.6-2.7c-0.9,0-1.3,0.6-1.3,1.3c0,2.3,7.2,4.2,7.2,9.5
			c0,3.8-2.3,5.4-6,5.4c-4.7,0-5.6-3.3-5.6-6.7h4.2v0.9c0,1.3,0.7,2.2,1.8,2.2c0.9,0,1.5-0.5,1.5-1.5c0-2.5-7.2-4.5-7.2-9.6
			c0-3.2,2.6-5,5.5-5c3.4,0,5.6,2.2,5.6,5.4v0.8H187.2z"/>
		<path style="fill:#3FB761;" d="M195.7,255.3c0.6-3.1,2.7-4.3,5.6-4.3c2.8,0,4.9,1.2,5.6,4.3c0.2,1,0.3,2.7,0.3,5.6
			s-0.1,4.6-0.3,5.6c-0.6,3.1-2.7,4.3-5.6,4.3c-2.8,0-4.9-1.2-5.6-4.3c-0.2-1-0.3-2.7-0.3-5.6S195.5,256.3,195.7,255.3z
			 M200.1,265.2c0,1.1,0.5,1.6,1.2,1.6c0.7,0,1.2-0.5,1.2-1.6v-8.7c0-1.1-0.5-1.6-1.2-1.6c-0.7,0-1.2,0.5-1.2,1.6V265.2z"/>
		<path style="fill:#3FB761;" d="M215.5,265.2c0,1.1,0.5,1.6,1.2,1.6s1.2-0.5,1.2-1.6v-3.4h4.5c0,2.5-0.1,4-0.3,5
			c-0.6,2.8-2.9,3.9-5.5,3.9c-4.5,0-5.9-2.8-5.9-9.9s1.3-9.9,5.9-9.9c2.6,0,4.8,1.1,5.5,3.8c0.2,0.9,0.3,2.3,0.3,4.6h-4.5v-2.8
			c0-1.1-0.5-1.6-1.2-1.6s-1.2,0.5-1.2,1.6V265.2z"/>
		<path style="fill:#3FB761;" d="M226.9,270.5v-19.1h4.5v19.1H226.9z"/>
		<path style="fill:#3FB761;" d="M246.9,270.5h-4.3l-0.4-2.4h-2.7l-0.4,2.4h-4.3l3.3-19.1h5.4L246.9,270.5z M239.8,264.3h2.2
			l-1.1-7.9h-0.1L239.8,264.3z"/>
		<path style="fill:#3FB761;" d="M250.1,270.5v-19.1h4.5v15h5.7v4.1H250.1z"/>
		<path style="fill:#3FB761;" d="M276.4,265.2c0,1.1,0.5,1.6,1.2,1.6s1.2-0.5,1.2-1.6v-3.4h4.5c0,2.5-0.1,4-0.3,5
			c-0.6,2.8-2.9,3.9-5.5,3.9c-4.5,0-5.9-2.8-5.9-9.9s1.3-9.9,5.9-9.9c2.6,0,4.8,1.1,5.5,3.8c0.2,0.9,0.3,2.3,0.3,4.6h-4.5v-2.8
			c0-1.1-0.5-1.6-1.2-1.6s-1.2,0.5-1.2,1.6V265.2z"/>
		<path style="fill:#3FB761;" d="M298.6,270.5h-4.5v-7.3H292v7.3h-4.5v-19.1h4.5v6.9h2.1v-6.9h4.5V270.5z"/>
		<path style="fill:#3FB761;" d="M313.7,270.5h-4.3l-0.4-2.4h-2.7l-0.4,2.4h-4.3l3.3-19.1h5.4L313.7,270.5z M306.6,264.3h2.2
			l-1.1-7.9h-0.1L306.6,264.3z"/>
		<path style="fill:#3FB761;" d="M316.9,270.5v-19.1h4.3l2.9,8.5h0.1v-8.5h3.8v19.1h-4.2l-3-9.9h-0.1v9.9H316.9z"/>
		<path style="fill:#3FB761;" d="M336.6,265.3c0,1.1,0.5,1.6,1.2,1.6c0.7,0,1.2-0.5,1.2-1.6v-1.9h-1.1v-3.6h5.6v10.6h-2.3l-0.6-1
			c-0.9,0.9-1.9,1.3-3.3,1.3c-4.4,0-5.3-2.3-5.3-9.9c0-7.2,1.5-9.9,5.9-9.9c2.4,0,4.5,1,5.3,3.4c0.2,0.7,0.3,1.7,0.3,3.2h-4.5v-1.1
			c0-1.1-0.5-1.6-1.2-1.6c-0.7,0-1.2,0.5-1.2,1.6V265.3z"/>
		<path style="fill:#3FB761;" d="M347.7,270.5v-19.1h9.7v3.9h-5.2v3.2h4.3v4.1h-4.3v3.7h5.5v4.1H347.7z"/>
	</g>
	<g>
		<line style="fill:#F0699D;" x1="160.9" y1="173.9" x2="164.1" y2="173.6"/>
		<g>
			<path style="fill:#F0699D;" d="M22.2,69.6c0.7,7.4,1.4,14.3,2,21.4c-7,0.8-13.6,1.5-20.6,2.2c0.6,7.3,1.2,14.4,1.9,21.7
				c6.8-0.7,13.3-1.4,20.2-2.1c0.6,7.4,1.2,14.3,1.8,21.5c6.4-0.8,12.7-1.6,19-2.4c-0.5-7.4-1-14.4-1.5-21.6
				c5.8-0.9,11.3-1.7,17.1-2.6c0.4,7.3,0.8,14.1,1.3,21.5c5-0.8,9.7-1.6,14.5-2.2c2.5-0.3,3.3-1.3,3.1-3.9c-0.5-5.5-0.7-11-0.8-16.5
				c0-0.9,0.7-2.5,1.3-2.6c5.4-1.2,10.9-2.2,16.7-3.3c0.6,8,1.1,15.4,1.6,23c8-0.7,15.6-1.4,23.5-2.2c-0.6-7.8-1.2-15.4-1.9-23.2
				c-7.8,0.7-15.3,1.3-23,1.9c-0.5-7.6-1-15-1.6-22.8c7.7-1,14.9-2,22.5-3c-0.6-7.8-1.3-15.3-1.9-23.2c-7.5,0.9-14.8,1.8-22.3,2.7
				c-0.5-7.5-0.9-14.8-1.4-22.4c7.4-1.3,14.4-2.5,21.7-3.8c0,0,0,0,0,0c0,0,0,0,0.1,0c-0.6-7.3-1.2-14.6-1.8-22.3
				c-6.7,1.3-13,2.5-19.3,3.6c-2.3,0.4-2.7,1.4-2.5,3.6c0.6,6.2,0.9,12.4,1.4,18.6c-6,1.4-11.6,2.7-17.5,4.1
				c-0.5-7.2-1-14.1-1.6-21.3c-5.6,1.7-10.5,3.3-15.4,4.6c-2.2,0.6-2.8,1.6-2.6,3.7c0.5,5.1,0.8,10.3,1,15.5c0,1-0.6,2.8-1.3,3
				c-5.2,1.4-10.4,2.5-15.9,3.7c-0.6-7.3-1.1-14-1.7-20.8c-6.9,1.1-13.4,2.1-20.1,3.2c0.7,7,1.3,14,2,21c6.7-1,12.9-1.9,19.4-2.9
				c0.6,7.2,1.2,14.1,1.9,21.4C34.9,67.5,28.6,68.6,22.2,69.6z M74.1,58.8c-4.6,1.3-9.2,2.4-14.2,3.7c-0.6-7.2-1.2-14.1-1.8-21.3
				c5.5-1.4,10.7-2.8,16.6-4.3c0.4,6.9,0.9,13.5,1.2,20.1C75.9,57.6,74.8,58.6,74.1,58.8z M96.3,77.3c-6,1.1-11.7,2.1-17.9,3.2
				c-0.4-6.7-0.9-13.2-1.2-19.8c0-0.7,0.8-1.8,1.4-2c5.2-1.4,10.4-2.6,16-4C95.2,62.7,95.8,69.9,96.3,77.3z M61.5,85.3
				c5.3-1.1,10.4-2.2,16.1-3.4c0.5,7.4,0.9,14.4,1.4,21.5c-5.4,1.1-10.5,2.2-16,3.3C62.5,99.5,62,92.5,61.5,85.3z M24.3,91.1
				c6.5-0.9,12.5-1.7,18.8-2.6c0.5,7.2,1,14.1,1.5,21.4c-6.3,0.9-12.3,1.8-18.8,2.8C25.3,105.5,24.8,98.4,24.3,91.1z M41.5,66.7
				c5.9-1.1,11.6-2.2,17.6-3.3c0.5,7.2,1.1,14,1.6,21.3c-5.8,1.1-11.2,2.2-17.1,3.3C42.9,80.8,42.2,73.9,41.5,66.7z"/>
			<path style="fill:#F0699D;" d="M160.3,95.3c0-7.7,0-15.1,0-22.8c-6,0.3-11.7,0.6-17.6,0.8c-0.5-8-0.9-15.5-1.4-24.1
				c6.4,0.4,12.4,0.7,18.9,1.1c0-9,0.1-16.7,0.1-24.8c-7-0.1-13.7-0.2-20.8-0.3c-0.7-7.5-1.4-14.8-2.2-22.5
				c6.5-0.2,12.7-0.4,18.8-0.7c1.7-0.1,3.5-0.8,5-1.6c2.2-1,3.4-0.4,3.4,2.4c0.1,10.1,0,20.2,0,30.3c0,46,0,92-0.1,138
				c0,0.7-0.3,55.5,0,128l-3.2,0.3c-0.5-90.4-0.5-162.8-0.5-181.5c-5.4,0.7-10.5,1.3-16,1.9c0.1-7.7,0.2-15.2,0.4-23
				C149.4,96.4,154.7,95.9,160.3,95.3z"/>
			<path style="fill:#F0699D;" d="M115.6,27.9c7.7-0.5,15.3-1.1,23.2-1.6c0.6,7.9,1.1,15.2,1.7,22.8c-7.7,0.8-15.2,1.5-23,2.3
				C116.8,43.6,116.2,36.1,115.6,27.9C115.5,27.9,115.6,27.9,115.6,27.9C115.6,27.9,115.6,27.9,115.6,27.9z"/>
			<path style="fill:#F0699D;" d="M115.6,27.9C115.6,27.9,115.6,27.9,115.6,27.9C115.6,27.9,115.5,27.9,115.6,27.9
				C115.5,27.9,115.5,27.9,115.6,27.9C115.5,27.9,115.6,27.9,115.6,27.9z"/>
			<path style="fill:#F0699D;" d="M143.8,96.6c-7.3,0.5-14.5,1-22.1,1.5c-0.7-7.7-1.4-15.2-2.1-23.4c7.7,0.3,15,0.6,22.9,1
				C142.8,81.5,143.2,88.8,143.8,96.6z"/>
			<path style="fill:#F0699D;" d="M22,69.5C15.2,70.3,8.6,71,1.8,71.7C1.2,64.5,0.6,57.6,0,50.4c6.9-0.8,13.4-1.6,20.2-2.4
				C20.8,55.3,21.4,62.2,22,69.5z"/>
		</g>
	</g>
	<g>
		<g>
			<g>
				<path style="fill:#3FB761;" d="M209.4,21.2c-3.8,0-6.9-3.1-6.9-6.9c0-3.8,3.1-7,6.9-7c3.8,0,6.9,3.1,6.9,7
					C216.3,18.1,213.2,21.2,209.4,21.2 M209.4,1.1c-7.3,0-13.2,5.9-13.2,13.2c0,7.3,5.9,13.2,13.2,13.2c7.3,0,13.2-5.9,13.2-13.2
					C222.5,7,216.6,1.1,209.4,1.1"/>
			</g>
			<rect x="255.6" y="18.5" style="fill:#3FB761;" width="6.2" height="25.5"/>
			<polygon style="fill:#3FB761;" points="186.5,44.1 186.5,12.9 179.9,15.2 179.9,7.2 195,0.8 195,44.1 			"/>
			<polygon style="fill:#3FB761;" points="230.1,2 238.8,2 220.9,44.1 212.2,44.1 			"/>
			<g>
				<path style="fill:#3FB761;" d="M292.8,38.9c-2.7,0-4.8-2.2-4.8-4.8c0-2.7,2.2-4.8,4.8-4.8c2.7,0,4.8,2.2,4.8,4.8
					C297.6,36.7,295.4,38.9,292.8,38.9 M293,23.6c-1.5,0-2.9,0.3-4.2,0.9v-6h-6.2v25.5h5.9l0-0.6c1.3,0.6,2.8,1,4.4,1
					c5.7,0,10.4-4.6,10.4-10.4C303.4,28.3,298.7,23.6,293,23.6"/>
				<path style="fill:#3FB761;" d="M274.9,24.3v11.3c0,1.5-1.2,2.7-2.7,2.7c-1.5,0-2.7-1.2-2.7-2.7l0-11.3h-6.2v11.1
					c0,4.9,4,8.9,8.9,8.9c1.5,0,2.9-0.4,4.1-1v0.6h4.8V24.3H274.9z"/>
				<path style="fill:#3FB761;" d="M248,34.3c-1.2,2.2-3.5,3.8-6.2,3.8c-3.8,0-6.9-3.1-6.9-6.9c0-3.8,3.1-6.9,6.9-6.9
					c2.7,0,5,1.5,6.2,3.8h6.6c-1.4-5.8-6.6-10-12.8-10c-7.3,0-13.2,5.9-13.2,13.2c0,7.3,5.9,13.2,13.2,13.2c6.2,0,11.4-4.3,12.8-10
					H248z"/>
			</g>
		</g>
	</g>
	<path style="fill:#3FB761;" d="M190.8,89.3c0,2.6,1.1,3.6,2.6,3.6c1.5,0,2.7-1,2.7-3.6v-7.5h10c-0.1,5.6-0.3,8.9-0.8,11.1
		c-1.3,6.2-6.4,8.7-12.3,8.7c-10.1,0-13-6.2-13-22s3-22,13-22c5.9,0,10.8,2.4,12.3,8.4c0.5,2.1,0.7,5.1,0.8,10.2h-10V70
		c0-2.6-1.2-3.6-2.7-3.6c-1.5,0-2.6,1-2.6,3.6V89.3z"/>
	<path style="fill:#F0699D;" d="M214.4,100.9V58.3h12.3c8.5,0,12.2,2.8,12.2,12c0,6.8-2.8,8.9-4.7,9.5V80c3.6,0.7,4.6,6.7,4.6,12
		c0,4.3,0.5,7.2,1.3,8.9h-9.7c-0.8-3.5-1.2-5.8-1.2-8.8c0-7.2-0.6-8.5-3.8-8.5H224v17.3H214.4z M224,76.3h1.8c2.7,0,3.7-1.7,3.7-5.1
		c0-3.4-0.9-5.1-3.7-5.1H224V76.3z"/>
	<path style="fill:#3FB761;" d="M271.6,100.9h-9.5l-0.8-5.3h-6l-0.8,5.3h-9.5l7.4-42.6h12L271.6,100.9z M255.8,87.3h5l-2.5-17.5
		h-0.1L255.8,87.3z"/>
	<path style="fill:#F0699D;" d="M276.8,100.9v-8.7l11.9-25.1h-11.4v-8.8h22.2v8.1l-11.9,25.4h12v9.1H276.8z"/>
	<path style="fill:#3FB761;" d="M323,83.4v17.6h-10V83.4l-8.2-25h9.5l3.6,13.9h0.1l3.6-13.9h9.5L323,83.4z"/>
	<path style="fill:#F0699D;" d="M190,142.1c0,2.6,1.1,3.6,2.6,3.6c1.5,0,2.7-1,2.7-3.6v-7.5h10c-0.1,5.6-0.3,8.9-0.8,11.1
		c-1.3,6.2-6.4,8.7-12.3,8.7c-10.1,0-13-6.2-13-22s3-22,13-22c5.9,0,10.8,2.4,12.3,8.4c0.5,2.1,0.7,5.1,0.8,10.2h-10v-6.3
		c0-2.6-1.2-3.6-2.7-3.6c-1.5,0-2.6,1-2.6,3.6V142.1z"/>
	<path style="fill:#3FB761;" d="M237.6,153.7h-9.5l-0.8-5.3h-6l-0.8,5.3h-9.5l7.4-42.6h12L237.6,153.7z M221.8,140.1h5l-2.5-17.5
		h-0.1L221.8,140.1z"/>
	<path style="fill:#F0699D;" d="M243.2,153.7v-42.6h11.7l4.2,20.3h0.1l4.1-20.3H275v42.6h-8.5v-25.4h-0.1l-4.5,25.4h-5.5l-4.5-25.4
		h-0.1v25.4H243.2z"/>
	<path style="fill:#3FB761;" d="M283.2,153.7v-42.6h11.2c8.1,0,12.3,3.1,12.3,13c0,9.8-3,13-12.2,13h-1.7v16.6H283.2z M292.9,129.2
		c3.2,0,4.6-0.7,4.6-5.4c0-4-0.9-4.9-4.6-4.9V129.2z"/>
	<path style="fill:#F0699D;" d="M336.1,153.7h-9.5l-0.8-5.3h-6l-0.8,5.3h-9.5l7.4-42.6h12L336.1,153.7z M320.2,140.1h5l-2.5-17.5
		h-0.1L320.2,140.1z"/>
	<path style="fill:#3FB761;" d="M342.7,153.7v-42.6h10v42.6H342.7z"/>
	<path style="fill:#F0699D;" d="M371.5,142.2c0,2.6,1.1,3.6,2.6,3.6s2.6-1,2.6-3.6V138h-2.5v-7.9h12.5v23.7h-5.1l-1.4-2.3
		c-2.1,2-4.3,3-7.3,3c-9.9,0-11.8-5.2-11.8-22c0-16.1,3.4-22,13-22c5.3,0,10.1,2.3,11.9,7.6c0.5,1.7,0.7,3.8,0.7,7.2h-10v-2.5
		c0-2.6-1.1-3.6-2.6-3.6s-2.6,1-2.6,3.6V142.2z"/>
	<path style="fill:#3FB761;" d="M395.2,153.7v-42.6h9.5l6.5,18.9h0.1v-18.9h8.5v42.6h-9.3l-6.8-22.1h-0.1v22.1H395.2z"/>
	<path style="fill:#3FB761;" d="M181.3,166.3h10.1c11.3,0,14.7,2.8,14.7,21.3c0,16.3-2.4,21.3-14.7,21.3h-10.1V166.3z M191.2,200.7
		c4.5,0,4.9-1.6,4.9-9.4v-7.7c0-7.8-0.4-9.4-4.9-9.4V200.7z"/>
	<path style="fill:#F0699D;" d="M237.6,208.8h-9.5l-0.8-5.3h-6l-0.8,5.3h-9.5l7.4-42.6h12L237.6,208.8z M221.8,195.2h5l-2.5-17.5
		h-0.1L221.8,195.2z"/>
	<path style="fill:#3FB761;" d="M258.3,191.3v17.6h-10v-17.6l-8.2-25h9.5l3.6,13.9h0.1l3.6-13.9h9.5L258.3,191.3z"/>
	<path style="fill:#F0699D;" d="M286.4,179.4c-0.1-4.6-1.5-5.9-3.6-5.9c-1.9,0-2.9,1.3-2.9,2.8c0,5.1,16,9.3,16,21.1
		c0,8.5-5.2,12.1-13.4,12.1c-10.5,0-12.5-7.3-12.5-14.9h9.3v2c0,2.8,1.5,5,3.9,5c2,0,3.4-1.2,3.4-3.4c0-5.6-16-10-16-21.5
		c0-7.2,5.7-11.1,12.2-11.1c7.5,0,12.6,4.9,12.6,12v1.8H286.4z"/>
</g>
</svg>
