<?xml version="1.0" encoding="UTF-8" standalone="no"?>
<svg width="279px" height="253px" viewBox="0 0 279 253" version="1.1" xmlns="http://www.w3.org/2000/svg" xmlns:xlink="http://www.w3.org/1999/xlink" xmlns:sketch="http://www.bohemiancoding.com/sketch/ns">
    <!-- Generator: Sketch 3.1 (8751) - http://www.bohemiancoding.com/sketch -->
    <title>Fill 1</title>
    <desc>Created with Sketch.</desc>
    <defs></defs>
    <g id="How-to-crowdfund" stroke="none" stroke-width="1" fill="none" fill-rule="evenodd" sketch:type="MSPage">
        <g sketch:type="MSArtboardGroup" transform="translate(-148.000000, -506.000000)" id="Rules" fill="#D8D8D8">
            <g sketch:type="MSLayerGroup" transform="translate(-14.000000, 359.000000)">
                <g transform="translate(86.000000, 102.000000)" id="Illustration" sketch:type="MSShapeGroup">
                    <g transform="translate(65.000000, 0.000000)">
                        <path d="M160.21041,114.272215 C152.159654,111.409324 144.126904,110.025143 136.355236,110.025143 C107.683562,109.975627 82.813322,129.003049 74.2854179,160.506104 C72.691922,166.369178 71.9334359,172.51134 71.9334359,178.74353 C71.9649458,203.300923 83.6370784,229.280758 103.546775,244.855605 C103.029114,246.951008 102.675754,248.767323 102.666751,250.511616 C102.585726,252.393201 103.269939,254.407578 104.586598,255.879536 C104.017171,257.27272 102.88732,259.269091 101.908265,260.763556 C101.210548,261.864149 101.359094,263.286592 102.266126,264.220632 C103.639054,265.620568 105.174031,266.739166 106.81029,267.646198 C105.828985,268.884084 105.210042,270.241256 105.167279,271.875265 C105.156026,274.146221 106.612229,275.904018 108.140454,276.910082 C108.766149,277.330963 109.452613,277.691075 110.179589,278.017426 C109.907254,278.771411 109.722697,279.545652 109.715945,280.364907 C109.688936,282.23974 110.667991,283.97503 111.926133,285.041862 C113.832476,286.666868 116.245227,287.447861 119.05185,288.008286 C120.793893,288.345891 122.711489,288.548454 124.730368,288.663239 C124.815894,291.699434 126.852778,294.017656 129.092225,295.201524 C131.432954,296.475421 134.18556,297.015589 136.983181,297.026842 C139.949604,297.015589 142.981298,296.398897 145.542595,294.877423 C148.092639,293.416719 150.230804,290.596591 150.192542,287.074245 L150.082258,286.18972 C150.3771,286.115447 150.683195,286.050176 150.973535,285.975903 C154.336082,285.091378 157.268744,284.056056 159.577963,282.761903 C160.737074,282.106949 161.75439,281.393477 162.593902,280.452684 C163.42441,279.536649 164.133381,278.249248 164.133381,276.723273 C164.133381,275.928776 163.915063,275.208552 163.597714,274.542345 C163.854294,274.396049 164.135632,274.261007 164.380958,274.105709 C166.840974,272.545973 169.0129,270.270515 169.051161,267.04076 C169.035407,265.372991 168.443472,263.85827 167.448663,262.460585 C167.59946,262.332295 167.772764,262.228762 167.919059,262.089219 C168.880108,261.150677 169.775887,259.764245 169.775887,258.033457 C169.780388,256.53449 169.082671,255.188571 168.159884,254.171255 C167.997834,253.991199 167.781766,253.840402 167.603961,253.669348 C168.130625,252.868099 168.513244,251.913802 168.506492,250.828964 C168.50199,249.570823 168.033845,248.440971 167.369888,247.459666 C175.839274,242.906499 183.343109,233.289256 189.408747,221.871452 C196.145094,209.053713 200.882818,193.886242 201.695321,180.539589 L201.695321,180.528335 C201.767344,179.22743 201.810107,177.90852 201.810107,176.582857 C201.805605,151.075669 187.212064,123.914215 160.21041,114.272215 L160.21041,114.272215 Z M142.648194,290.051922 C141.291022,290.886932 139.123597,291.409094 136.983181,291.400091 C134.971055,291.409094 133.003943,290.9477 131.811071,290.27249 C130.807259,289.669303 130.485409,289.232667 130.386378,288.748766 C135.027322,288.640732 139.931599,288.145578 144.527529,287.344329 C144.421746,288.507941 143.917589,289.228165 142.648194,290.051922 L142.648194,290.051922 Z M157.916946,277.139653 C156.269433,278.508079 151.565469,280.243369 146.082763,281.337209 C140.570798,282.469312 134.147298,283.155775 128.540804,283.155775 C124.293732,283.162527 120.487797,282.743897 118.052539,281.976408 C116.839412,281.607293 116.002151,281.139148 115.646541,280.815047 L115.342696,280.364907 C115.331442,280.288383 115.38771,280.0228 115.57902,279.617674 C116.130441,279.727959 116.668359,279.844995 117.25129,279.941775 C120.937937,280.53596 125.230023,280.815047 129.75168,280.815047 C138.245824,280.810545 147.527713,279.831491 154.916762,277.893638 C156.039862,277.596545 157.099942,277.270194 158.130763,276.928087 L157.916946,277.139653 L157.916946,277.139653 Z M161.347014,269.363483 C158.758708,271.051508 153.795914,272.629249 148.070132,273.62856 C142.335347,274.650378 135.79031,275.188296 129.75168,275.188296 C124.041653,275.195048 118.757009,274.699894 115.155888,273.777107 C113.359829,273.326966 111.998155,272.744035 111.320694,272.269137 L110.821039,271.821248 L111.034855,271.395865 L112.506813,269.887896 C116.200213,270.860199 120.138939,271.15279 123.969631,271.166294 C130.114043,271.161793 136.163926,270.387552 140.800369,270.013935 C142.423124,269.881144 148.983916,269.039382 155.477187,267.445886 C157.934952,266.835946 160.352204,266.131477 162.506124,265.271709 C163.298371,266.201249 163.440165,266.813439 163.42441,267.04076 C163.462672,267.346855 163.143073,268.204372 161.347014,269.363483 L161.347014,269.363483 Z M163.341134,258.582628 C161.214222,260.0996 155.774279,261.73811 150.856499,262.726167 C145.927465,263.754737 141.261763,264.337669 140.356981,264.40744 C135.515724,264.799062 129.645898,265.539543 123.969631,265.539543 C117.631658,265.5643 111.779837,264.560488 107.910883,261.711101 C108.469057,260.770308 109.004723,259.752992 109.472869,258.692912 C110.82554,259.120545 112.356016,259.453649 114.122816,259.786752 C118.255102,260.540737 122.470664,260.770308 126.674973,260.770308 C129.78319,260.770308 132.882405,260.644269 135.943357,260.491222 C137.620129,260.407946 145.234249,260.281906 152.438741,259.359119 C156.06687,258.886472 159.604972,258.23827 162.488119,257.187193 C162.625412,257.137678 162.742448,257.070157 162.87749,257.018391 C163.399653,257.380754 163.773269,257.695852 163.962328,257.91417 L164.009592,257.977189 L163.341134,258.582628 L163.341134,258.582628 Z M120.267229,178.869569 C122.081293,178.914583 123.733307,177.732965 124.44903,176.46357 C125.212018,175.182922 125.459595,173.818997 125.470848,172.44607 C125.461845,170.537476 124.921677,168.541104 123.753564,166.749547 C125.067973,166.497468 126.402638,166.346671 127.559498,166.380432 C127.991633,166.378181 128.387756,166.400688 128.756871,166.432198 C128.191945,167.501281 127.831833,168.707656 127.816078,170.078333 C127.816078,172.221 128.711857,174.347912 130.285096,176.315024 L130.285096,176.308272 C131.685032,178.106581 133.591375,179.303954 135.707034,179.303954 C137.624631,179.308456 139.285648,178.275384 140.273705,176.951972 C141.28427,175.621808 141.795179,173.967543 141.801931,172.214248 C141.824438,170.00406 140.93316,167.694841 139.159608,165.70072 C140.537037,165.320352 141.979736,165.093031 143.240128,165.099783 C143.462948,165.099783 143.643004,165.129043 143.850068,165.140296 C142.965543,166.362426 142.37811,167.834384 142.37811,169.511156 C142.37811,171.599806 143.285142,173.661448 144.862883,175.473262 C146.278574,177.141031 148.12865,178.243874 150.158782,178.243874 C152.175409,178.248376 153.883691,177.127527 154.885253,175.741095 C155.907071,174.34116 156.41798,172.621624 156.422481,170.798557 C156.444988,169.342354 156.071372,167.823131 155.330891,166.375931 C156.782593,166.628009 158.065492,167.267208 158.979277,168.318285 L158.972525,168.309282 C160.302689,169.853263 160.840606,171.737099 160.858612,174.161104 C160.890121,178.507206 158.817226,184.04618 157.31826,188.572339 C151.795041,205.535868 146.024245,222.976546 141.083957,240.763832 C137.3658,240.644545 133.580122,240.59728 129.915982,240.588277 C127.17913,240.588277 124.539058,240.615286 122.065538,240.658049 C122.056536,240.635542 122.056536,240.613035 122.047533,240.592779 C114.800277,227.372164 111.156393,206.938055 109.882497,191.214661 L109.882497,191.221413 C109.684435,188.804161 109.398596,185.518138 109.398596,182.1826 C109.391844,179.292701 109.628167,176.369041 110.249361,174.104836 C110.629729,172.693647 111.14739,171.653823 111.728071,170.895337 C112.061175,172.99299 113.368832,174.854319 115.272924,176.567102 C116.794398,177.924275 118.360885,178.835808 120.267229,178.869569 L120.267229,178.869569 Z M117.267045,169.90728 L117.712684,169.175802 C117.804962,169.070019 117.95801,168.964236 118.088551,168.860704 C118.405899,169.043011 118.671482,169.29734 118.948318,169.637196 L119.844097,172.44607 L119.765322,172.875954 L119.042848,172.392053 L119.036095,172.392053 C117.420093,170.93585 117.244538,170.044572 117.267045,169.90728 L117.267045,169.90728 Z M133.449581,170.078333 C133.427074,169.634945 133.611632,169.117284 134.034763,168.574865 C135.740794,169.880271 136.141419,171.262201 136.17518,172.214248 L135.801563,173.533158 L135.673273,173.661448 L135.526978,173.593927 L134.691968,172.815185 L134.685216,172.808433 C133.663398,171.512029 133.449581,170.638757 133.449581,170.078333 L133.449581,170.078333 Z M148.004861,169.511156 C148.004861,168.946231 148.317709,168.284525 149.332775,167.559799 C150.453623,168.678397 150.761969,169.851012 150.79573,170.798557 L150.356843,172.401056 L150.143027,172.610371 L149.96072,172.533847 L149.12571,171.809122 L149.12571,171.802369 C148.175915,170.688273 148.004861,169.950043 148.004861,169.511156 L148.004861,169.511156 Z M129.915982,246.215029 C140.908403,246.185769 153.460559,246.725938 160.217162,248.296926 C160.27343,248.344191 160.302689,248.409461 160.363458,248.452225 C161.518067,249.264728 162.247294,249.962445 162.5894,250.419337 L162.787462,250.738936 L162.764955,250.763694 C162.247294,251.274603 160.298187,252.147875 157.808913,252.71055 C150.224052,254.54037 138.090526,254.76544 135.668772,254.875724 C132.64158,255.022019 129.630143,255.143557 126.674973,255.143557 C122.684481,255.143557 118.795271,254.918487 115.135632,254.247778 C111.869865,253.676101 109.871243,252.978383 109.112757,252.411207 C108.426293,251.826025 108.392533,251.877791 108.293502,250.511616 C108.284499,249.660851 108.491564,248.366698 108.887687,246.680923 C112.403281,246.527876 120.670104,246.215029 129.915982,246.215029 L129.915982,246.215029 Z M196.079823,180.210986 L196.079823,180.199733 C195.355098,192.479555 190.83119,207.106857 184.430198,219.251637 C178.326298,230.966533 170.298049,240.264176 163.176833,243.268862 C159.006285,242.07374 153.217484,241.396279 146.870508,241.022663 C151.680255,223.840815 157.266494,206.89079 162.670426,190.321133 C164.056857,185.979532 166.451602,180.084947 166.485363,174.161104 C166.494366,170.886334 165.659356,167.418005 163.215095,164.615883 L163.210594,164.604629 C160.687558,161.741738 157.138204,160.616388 153.87919,160.620889 C152.540023,160.62314 151.225614,160.807698 149.976475,161.156556 C149.258501,160.776188 148.493263,160.427329 147.653752,160.143741 L147.642498,160.143741 C146.258318,159.65984 144.775106,159.477534 143.240128,159.473032 C140.021627,159.488787 136.533041,160.285535 133.553114,161.885783 C133.54186,161.890285 133.530607,161.899287 133.519353,161.906039 C132.988188,161.692223 132.466025,161.476156 131.883094,161.302852 C130.55293,160.895475 129.119234,160.758182 127.559498,160.753681 C124.487292,160.764934 120.969447,161.341114 117.915247,162.576748 C117.660917,162.682531 117.415591,162.799568 117.168014,162.914353 C117.012716,162.907601 116.861919,162.887345 116.70662,162.889596 C114.613469,162.889596 112.396529,163.57831 110.062553,164.935482 C107.134391,166.655017 105.65118,169.610187 104.820671,172.621624 C103.990163,175.671324 103.771845,179.006862 103.771845,182.1826 C103.771845,185.830985 104.084692,189.288061 104.276002,191.671553 L104.276002,191.678305 C105.558901,206.965063 108.80216,226.393109 115.831098,240.799843 C112.139949,240.907877 109.292813,241.027164 107.852365,241.094685 C88.9779906,226.904018 77.5286773,201.894235 77.5601871,178.74353 C77.5601871,172.968232 78.2646564,167.318974 79.7141075,161.984814 C87.7918715,132.601919 110.226854,115.699159 136.355236,115.651894 C143.456196,115.651894 150.851997,116.914537 158.324323,119.568113 C182.634139,128.156786 196.190108,153.099048 196.183356,176.582857 C196.183356,177.791483 196.145094,179.00011 196.079823,180.210986 L196.079823,180.210986 Z M60.3288243,114.292471 L58.5597737,114.387 C52.8339917,114.344237 49.277885,111.382315 46.414994,106.583822 C43.642131,101.810086 42.1184068,95.3573278 41.4161882,89.8903764 C41.2113745,88.3576493 39.8226923,87.2750624 38.2832132,87.4618706 C36.7549875,87.6441773 35.6566457,89.0283581 35.8276989,90.5610851 L35.9199777,92.3413892 C35.9424847,97.610279 33.3159172,103.178512 29.2106395,107.41433 C25.1278689,111.668154 19.6609174,114.486031 14.4910584,114.684093 C13.2441704,114.73811 12.172837,115.618133 11.8757445,116.831261 C11.5831534,118.046639 12.127823,119.320536 13.2149113,119.937228 C22.0286543,124.954039 28.2113285,134.064875 32.0735306,142.021101 C34.009133,145.989086 35.3708067,149.641973 36.2508306,152.284295 C36.5299175,153.141812 36.743734,153.84403 36.9260408,154.465224 C37.1015954,155.219208 37.3041585,155.975444 37.5517355,156.731679 C38.0198812,158.165375 39.5368533,158.973377 40.9863044,158.566 C42.4425076,158.158623 43.311278,156.682164 42.9646701,155.207955 C42.9534166,155.165192 42.7643578,154.368444 42.3727359,153.033778 C42.0306294,151.512305 41.8618269,150.015589 41.8618269,148.543631 C41.733537,137.366652 51.5916051,126.425997 62.1856522,119.43082 C63.2569856,118.717348 63.7093764,117.348922 63.2749912,116.133544 C62.8338539,114.920416 61.6139743,114.157429 60.3288243,114.292471 L60.3288243,114.292471 Z M37.5269778,140.391594 C37.3941865,140.112507 37.2658965,139.835671 37.1286038,139.554333 C33.7750601,132.698699 28.7695023,124.852758 21.5380016,118.944669 C25.9336197,117.414192 29.9691256,114.720104 33.2619004,111.321546 C35.5035981,108.989821 37.3964372,106.306986 38.8211306,103.412585 C39.5683631,105.476477 40.4551391,107.499857 41.5467288,109.397197 C44.0292515,113.799568 47.8689465,117.623508 53.0590618,119.217004 C46.2101802,124.852758 40.095027,132.027991 37.5269778,140.391594 L37.5269778,140.391594 Z M289.486144,74.3740473 C289.047257,73.158669 287.827378,72.3956816 286.542228,72.5329743 L284.777678,72.625253 C279.051896,72.5757376 275.502542,69.6183172 272.646403,64.8175731 C269.864537,60.0438374 268.347565,53.5865777 267.638594,48.1128742 C267.436031,46.5801471 266.045098,45.5043123 264.512371,45.6911205 C262.979644,45.8711765 261.881302,47.2508559 262.052356,48.790335 L262.144634,50.563887 C262.160389,55.8395289 259.540574,61.4100126 255.442048,65.6480816 C251.359278,69.9064069 245.896828,72.7197825 240.724718,72.9178441 C239.47783,72.9718609 238.406497,73.8518848 238.109404,75.0650123 C237.819064,76.2803906 238.363733,77.5542871 239.450822,78.170979 C248.269066,83.1922918 254.45174,92.3031273 258.313942,100.254852 C260.249545,104.220586 261.611218,107.875724 262.48449,110.518046 C262.761326,111.359808 262.981895,112.086784 263.164202,112.701226 C263.339756,113.45521 263.542319,114.209195 263.787646,114.96318 C264.255791,116.399127 265.766011,117.207128 267.222215,116.799751 C268.678418,116.392374 269.547188,114.913664 269.20058,113.448458 C269.189327,113.403444 269.000268,112.615699 268.615398,111.290036 C268.26654,109.764062 268.095486,108.262844 268.095486,106.781883 C267.967197,95.6049049 277.836518,84.6552471 288.399055,77.6713235 C289.477141,76.9556007 289.920529,75.5871749 289.486144,74.3740473 L289.486144,74.3740473 Z M263.765139,98.6185928 C263.632347,98.3417566 263.506308,98.0671712 263.369015,97.7880843 C260.015472,90.9369521 255.009914,83.0865088 247.773912,77.1784201 C252.16953,75.6479438 256.202785,72.9538553 259.491059,69.5552976 C261.732756,67.2213212 263.623345,64.5339848 265.045787,61.639584 C265.79302,63.7057271 266.679796,65.7336082 267.771386,67.6309487 C270.249407,72.0333188 274.091353,75.8595096 279.281468,77.4552562 C272.44609,83.0865088 266.335439,90.2594912 263.765139,98.6185928 L263.765139,98.6185928 Z M250.749338,140.625666 L249.743275,140.66843 C245.824805,140.614413 243.571854,138.70807 241.588987,135.327518 C239.698399,131.969472 238.676581,127.317275 238.246697,123.371797 C238.075644,121.83907 236.702716,120.727224 235.165488,120.887023 C233.626009,121.042322 232.50516,122.403995 232.649205,123.943475 L232.691968,124.938284 C232.707723,128.525901 230.857647,132.399356 227.933987,135.345523 C225.021581,138.293941 221.141373,140.191281 217.614526,140.25205 C216.367637,140.279059 215.278298,141.136575 214.96095,142.345202 C214.64135,143.553828 215.163513,144.834476 216.234846,145.478177 C222.340997,149.108557 226.630832,155.669348 229.284407,161.413136 C230.614571,164.269275 231.537359,166.907096 232.127042,168.808938 L232.768492,171.050635 L232.9553,171.813623 L232.957551,171.813623 C232.980058,171.890147 232.98681,171.966671 233.011567,172.045445 C233.450454,173.490395 234.951671,174.325405 236.412376,173.940535 C237.873081,173.562417 238.768859,172.106214 238.451511,170.627504 C238.447009,170.607247 238.406497,170.436194 238.350229,170.195369 C237.951855,168.833695 237.758295,167.512534 237.758295,166.220632 C237.753793,162.32467 239.41256,158.50073 242.165166,154.951375 C244.902018,151.417775 248.683195,148.242037 252.507135,145.795525 C253.594223,145.097808 254.06687,143.740636 253.650491,142.520756 C253.238613,141.296375 252.034488,140.510881 250.749338,140.625666 L250.749338,140.625666 Z M237.715531,151.505553 C236.171551,153.497422 234.848139,155.671599 233.869084,157.992071 C231.676902,153.501924 228.588941,148.530127 224.195574,144.483367 C227.078721,143.322006 229.723294,141.519195 231.928981,139.300004 C233.193874,138.019355 234.312472,136.585659 235.262268,135.048431 C235.676397,136.081502 236.13779,137.098819 236.68246,138.075623 C238.260201,140.999283 240.733721,143.634853 244.010741,145.095558 C241.724029,147.008653 239.561106,149.133314 237.715531,151.505553 L237.715531,151.505553 Z" id="Fill-1"></path>
                    </g>
                </g>
            </g>
        </g>
    </g>
</svg>