<?xml version="1.0" encoding="UTF-8" standalone="no"?>
<svg width="214px" height="292px" viewBox="0 0 214 292" version="1.1" xmlns="http://www.w3.org/2000/svg" xmlns:xlink="http://www.w3.org/1999/xlink" xmlns:sketch="http://www.bohemiancoding.com/sketch/ns">
    <!-- Generator: Sketch 3.1 (8751) - http://www.bohemiancoding.com/sketch -->
    <title>Fill 1</title>
    <desc>Created with Sketch.</desc>
    <defs></defs>
    <g id="How-to-crowdfund" stroke="none" stroke-width="1" fill="none" fill-rule="evenodd" sketch:type="MSPage">
        <g sketch:type="MSArtboardGroup" transform="translate(-186.000000, -488.000000)" id="Rules" fill="#D8D8D8">
            <g sketch:type="MSLayerGroup" transform="translate(-14.000000, 359.000000)">
                <g transform="translate(86.000000, 102.000000)" id="Illustration" sketch:type="MSShapeGroup">
                    <g transform="translate(65.000000, 0.000000)">
                        <path d="M165.510627,122.716757 C165.510627,113.606966 162.779883,104.162952 156.681322,94.9999223 C141.594934,72.3200924 117.143859,58.5163932 92.6000648,58.4986468 C75.1149293,58.474985 57.61783,65.6326778 44.0209388,81.3559402 C33.6094169,93.3613431 29.3054296,106.884059 29.3173934,119.963115 C29.3293572,135.186522 35.0390945,149.800638 43.3449825,161.459987 C51.6747981,173.107505 62.5858098,181.886031 73.6373965,185.248964 C78.8596077,186.819515 84.3390412,187.550073 89.8872667,187.550073 C107.734308,187.529369 126.42779,180.12027 140.850186,168.413597 C155.23968,156.709882 165.489691,140.53113 165.510627,122.716757 L165.510627,122.716757 Z M48.2082788,158.061562 C40.4946003,147.259953 35.2723891,133.701745 35.2723891,119.963115 C35.2963168,108.135176 39.0649228,96.1563925 48.5462569,85.1891508 C59.8012287,72.2313607 73.4848577,65.8426762 87.6111483,64.6211361 C85.6610442,69.0281453 83.3789439,75.9669665 80.7558745,84.5769019 C76.0331532,100.164109 70.5088553,120.723251 65.8429622,138.011149 C63.5159975,146.656577 61.3983998,154.4768 59.714491,160.436615 C58.8620682,163.412085 58.1322746,165.923193 57.5370741,167.816137 C57.4623002,168.05867 57.3935082,168.268669 57.3217252,168.493456 C54.0675638,165.449957 50.9719232,161.948012 48.2082788,158.061562 L48.2082788,158.061562 Z M62.2089492,172.592861 C62.6845114,171.332871 63.2049379,169.667672 63.8898671,167.390224 C67.1589833,156.467349 73.0780875,133.743153 79.0241103,112.207962 C82.0001127,101.447761 84.9671422,90.9951636 87.6081573,82.5242413 C90.2252449,74.0858538 92.6090377,67.4723823 94.0177785,64.9819785 C94.1134892,64.8104305 94.1314349,64.6240938 94.1882631,64.4436726 C98.734518,64.5619816 103.289746,65.2038078 107.785154,66.3395739 C106.077318,76.1237259 99.5331035,99.1703136 92.6927845,122.29676 C85.9421942,145.177715 78.9194268,168.245007 75.8626686,179.738723 C75.7041479,179.6914 75.5396452,179.661823 75.3811245,179.614499 C71.0711553,178.327889 66.5697647,175.881851 62.2089492,172.592861 L62.2089492,172.592861 Z M81.6740984,181.01646 C84.697956,169.697249 91.6967958,146.680239 98.4144855,123.94717 C105.111239,101.214101 111.505905,78.933564 113.518819,68.0402654 C125.599295,72.2638957 136.938014,80.0190488 145.931822,90.5781245 C145.743392,90.8443197 145.572907,91.1223458 145.480187,91.4506532 C141.316775,105.934629 126.125704,159.064231 120.888538,174.06285 C120.885547,174.077639 120.888538,174.08947 120.885547,174.104259 C110.925659,178.89873 100.11634,181.673075 89.8872667,181.661244 C87.0967037,181.661244 84.353996,181.433499 81.6740984,181.01646 L81.6740984,181.01646 Z M282.304513,274.728997 L282.256658,274.649138 C281.269642,273.229431 279.316547,271.159024 276.220906,267.973555 C265.495334,257.009271 242.288497,234.926901 220.86128,214.929727 C210.159636,204.938534 199.897662,195.470859 191.872924,188.200773 C184.057553,181.119981 178.608029,176.284101 176.364811,174.633691 L176.364811,174.630734 C176.352847,174.618903 176.337892,174.612987 176.322937,174.601156 C176.263118,174.55679 176.176381,174.488763 176.122543,174.447355 L176.116561,174.45327 C175.216283,173.758205 174.040837,173.373701 173.005966,173.391447 C171.244292,173.447644 169.89238,174.077639 168.615241,174.914675 C165.73794,172.294131 163.046079,169.596687 160.061103,167.375436 C171.414777,154.793277 178.802441,139.47818 178.820387,123.021402 C178.83235,112.181343 175.575198,100.936075 168.292217,89.9954528 C150.262728,62.8701633 121.029113,46.3808504 91.7386692,46.3571886 C70.8677702,46.3335268 50.011826,54.8517728 33.7619557,73.6481106 C21.3255559,87.9723694 16.2080282,104.077178 16.2170011,119.676216 C16.2289649,137.845516 23.0453563,155.316794 32.9932798,169.253591 C42.9501761,183.184472 56.0027131,193.666647 69.1120783,197.644786 C75.3242963,199.519983 81.8625287,200.389554 88.5024535,200.389554 C107.883856,200.371808 128.171518,193.004117 144.657674,181.114065 C145.752364,182.382929 147.080349,183.548272 148.539936,184.840798 C150.585751,186.621348 152.828969,188.50246 154.662426,190.34808 C154.369312,190.741458 154.070216,191.143708 153.798039,191.507508 C152.972535,192.631444 153.041327,194.157629 153.971515,195.192833 C156.986399,198.552808 164.930382,206.095005 175.503415,215.769721 C191.325578,230.244823 212.857479,249.283695 231.212983,264.734846 C240.404194,272.457465 248.790838,279.283892 255.317107,284.214419 C258.574259,286.681161 261.364822,288.677625 263.622995,290.097332 C264.750586,290.810144 265.740592,291.3869 266.646852,291.818728 C267.589004,292.232809 268.309825,292.599567 269.625846,292.646891 L271.369574,292.232809 L271.369574,292.226894 L272.254897,291.564363 C273.334633,290.511414 275.649633,287.805096 277.955661,284.859203 C279.095216,283.404002 280.186915,281.936971 281.036347,280.647403 L282.143001,278.801783 C282.42116,278.156999 282.747175,277.719256 282.804003,276.471096 L282.304513,274.728997 Z M137.069616,163.864617 C134.3957,166.04446 131.515408,168.011347 128.548379,169.848093 C134.545248,151.107952 145.740401,112.071907 150.292637,96.2332934 C150.762218,96.901739 151.252735,97.5494807 151.704369,98.232715 C157.20773,106.54392 159.546659,114.769352 159.555632,122.716757 C159.579559,138.176782 150.504995,152.941741 137.069616,163.864617 Z M70.8587973,192.007364 C59.5140968,188.620769 47.1734076,178.951969 37.8535851,165.861081 C28.5158169,152.776109 22.1630239,136.360739 22.1749877,119.676216 C22.1869516,105.32238 26.7810618,90.7733343 38.2753101,77.4813213 C53.5142368,59.9361008 72.485878,52.2696794 91.7386692,52.2489754 C118.726076,52.231229 146.305691,67.6054799 163.315265,93.2282455 C170.015009,103.317043 172.865391,113.340771 172.865391,123.021402 C172.886328,141.859148 161.858669,159.75338 145.608798,172.962577 C129.391829,186.174731 108.093223,194.521429 88.5024535,194.500725 C82.3859462,194.500725 76.4399233,193.699182 70.8587973,192.007364 L70.8587973,192.007364 Z M152.473045,180.419 C151.195906,179.330557 150.119162,178.301269 149.389368,177.514515 C151.665487,175.662979 153.845894,173.713839 155.930592,171.68484 C158.410095,173.429897 161.063074,175.997202 164.098896,178.804082 C162.091963,180.862659 160.096995,183.255458 158.251574,185.615722 C156.322407,183.734609 154.252665,181.968847 152.473045,180.419 L152.473045,180.419 Z M270.777364,284.312024 L268.988772,286.388346 C267.861181,285.802717 265.821348,284.578219 263.48242,282.880485 C251.363061,274.314915 227.351657,253.995349 205.320267,234.560143 C203.989291,233.388884 202.670279,232.220583 201.354258,231.058198 C203.256507,229.230324 205.060054,227.0002 205.900513,224.282051 C206.355138,222.717415 205.436914,221.090667 203.842734,220.647008 C202.260518,220.209265 200.618482,221.117286 200.178812,222.681922 C199.942526,223.755576 198.506867,225.615985 196.92465,227.121467 C195.339443,225.710632 193.784145,224.317544 192.243802,222.936287 C193.843964,221.611226 195.168958,220.268419 196.45507,219.289413 C197.747163,218.274913 197.95653,216.423378 196.933623,215.154514 C195.919689,213.876777 194.035386,213.663821 192.758247,214.675363 C190.811134,216.239999 189.294719,217.792804 187.805222,218.943359 C186.510137,217.775058 185.244963,216.627461 184.000724,215.500568 C184.32973,215.190007 184.637798,214.876488 184.939885,214.589589 C186.124304,213.347345 187.195067,212.143551 187.790267,211.776793 C189.151153,210.856941 189.48614,209.023152 188.555952,207.680345 C187.625764,206.340496 185.777353,206.003315 184.416467,206.923167 C182.777423,208.073722 181.658805,209.481599 180.635898,210.516802 L179.583081,211.475105 C170.679001,203.329532 163.632306,196.674653 160.070076,193.018905 C162.151782,190.226814 164.598385,187.035429 166.979187,184.388266 C168.444756,182.740814 169.886398,181.321106 171.073808,180.413084 L172.539377,179.45774 L172.814545,179.348304 C173.61313,179.930975 175.871303,181.829834 178.969934,184.571645 C190.407355,194.666358 213.976097,216.452955 235.214884,236.532945 C245.835773,246.568504 255.88838,256.187023 263.551212,263.705558 C267.379637,267.45891 270.612862,270.691703 273.011609,273.170276 C274.510079,274.708293 275.664588,275.971241 276.418309,276.837854 C276.155105,277.269682 275.814136,277.799115 275.416339,278.346294 C274.1392,280.177125 272.311725,282.478234 270.777364,284.312024 L270.777364,284.312024 Z" id="Fill-1" transform="translate(150.584065, 169.413249) rotate(-280.000000) translate(-150.584065, -169.413249) "></path>
                    </g>
                </g>
            </g>
        </g>
    </g>
</svg>