<?xml version="1.0" encoding="UTF-8" standalone="no"?>
<svg width="249px" height="154px" viewBox="0 0 249 154" version="1.1" xmlns="http://www.w3.org/2000/svg" xmlns:xlink="http://www.w3.org/1999/xlink" xmlns:sketch="http://www.bohemiancoding.com/sketch/ns">
    <!-- Generator: Sketch 3.1 (8751) - http://www.bohemiancoding.com/sketch -->
    <title>Imported Layers 4</title>
    <desc>Created with Sketch.</desc>
    <defs></defs>
    <g id="How-to-crowdfund" stroke="none" stroke-width="1" fill="none" fill-rule="evenodd" sketch:type="MSPage">
        <g sketch:type="MSArtboardGroup" transform="translate(-166.000000, -552.000000)" id="Rules" fill="#D8D8D8">
            <g sketch:type="MSLayerGroup" transform="translate(-14.000000, 359.000000)">
                <g transform="translate(86.000000, 102.000000)" id="Illustration" sketch:type="MSShapeGroup">
                    <g transform="translate(65.000000, 0.000000)">
                        <path d="M266.501317,142.900895 C263.212081,130.159019 259.47989,118.322206 255.505272,109.383963 C253.517963,104.905969 251.479774,101.149659 249.220108,98.239258 C246.942484,95.4382931 244.338631,92.9242274 240.229331,92.6639477 C228.242625,92.2735281 208.974107,91.8742353 187.017934,91.8742353 C158.540155,91.8742353 125.555015,92.5367655 97.9840947,94.7432279 C84.1986347,95.8523745 71.7809461,97.3430675 61.8473939,99.3661509 C54.1286137,101.019519 47.9960893,102.717253 43.4647853,105.399908 C41.9413812,105.231318 40.3760761,105.840609 39.4123509,107.156797 C38.8736225,107.902143 38.6132372,108.759883 38.6012654,109.614666 C36.8055042,112.04 35.6412524,114.994766 34.548831,118.582486 C30.7657608,131.655627 29.1735192,153.394901 29.137604,175.066147 C29.137604,189.207026 29.8559085,203.220724 31.2446305,214.516273 C31.9479703,220.168484 32.8039498,225.137461 33.8814065,229.198417 C35.0277007,233.280076 36.0722351,236.391602 38.4037317,238.929329 C40.6484332,241.011567 42.7345091,241.416776 45.6137128,242.13846 C54.0059034,243.939714 69.0394174,244.617033 88.1193799,244.63478 C120.12583,244.63478 162.924805,242.543669 199.384743,239.275383 C217.62369,237.642719 234.270396,235.723156 247.232799,233.59951 C253.724476,232.531772 259.3063,231.422625 263.777745,230.239536 C268.27912,229.01208 271.535434,227.938426 274.154252,226.057313 L274.154252,226.051398 C276.482756,224.087469 276.743141,222.173821 277.222011,220.127076 C277.599121,218.053711 277.75176,215.666828 277.75176,212.865863 C277.718838,197.26091 273.04088,168.431971 266.501317,142.900895 L266.501317,142.900895 Z M63.6102328,107.851862 C91.7827327,102.072469 144.563147,100.522621 187.017934,100.540367 C205.09227,100.540367 221.33493,100.806563 233.130088,101.123039 C224.163254,114.749275 211.155957,132.412804 197.089161,147.446917 C181.33435,164.480451 163.777791,177.790211 151.123661,178.763302 L149.00167,178.866822 C141.585176,178.899357 133.980127,175.125301 126.428952,169.718581 C118.877776,164.344396 111.598957,157.559376 104.421898,152.404063 C86.9162199,139.875143 69.5452235,124.184415 52.0545096,110.978177 C55.0654025,109.860157 59.0070983,108.742137 63.6102328,107.851862 L63.6102328,107.851862 Z M44.6529806,221.514249 C43.6832696,222.966491 42.8093325,224.330002 42.0281763,225.658021 C39.4213297,214.785426 37.8889468,194.962758 37.9069044,175.066147 C37.9069044,160.951886 38.6431665,146.701571 40.1665706,135.35574 C40.9207903,129.682825 41.8785296,124.743425 42.9769368,120.993031 C43.5007005,119.103045 44.1172452,117.52362 44.6859029,116.352362 C62.4010869,129.496488 80.5023596,145.959182 99.2860215,159.428658 C100.635835,160.392876 102.033536,161.469488 103.458173,162.596381 C100.106086,165.074954 96.0117503,168.443802 91.3397783,172.5018 C80.9243635,181.590886 68.1505156,193.835865 57.7889736,205.302962 C52.6171814,211.040947 48.0439763,216.571892 44.6529806,221.514249 L44.6529806,221.514249 Z M261.500122,221.872133 C247.286672,225.652105 217.554853,229.257571 184.758268,231.813045 C151.92876,234.377392 115.795053,235.968647 88.1193799,235.968647 C75.5999316,235.968647 64.7924422,235.637382 56.8821142,234.95119 C53.0960511,234.619925 50.001356,234.199928 47.7895768,233.732608 C48.1098209,232.845291 48.6096411,231.718398 49.3279455,230.46728 C54.209423,221.668051 67.4651334,207.009569 80.6879216,194.190792 C92.420228,182.753272 104.520665,172.386448 110.44967,168.278169 C113.894539,171.105754 117.507012,174.033901 121.293075,176.740218 C129.442838,182.528485 138.57129,187.497462 149.00167,187.529997 L151.946718,187.396899 C165.962634,185.906206 180.220978,175.983041 193.889713,163.019335 C200.339489,166.831842 216.088314,177.234158 231.51091,189.171534 C245.158695,199.662582 258.65384,211.709393 265.160482,220.783691 C264.106968,221.147491 262.879865,221.520164 261.500122,221.872133 L261.500122,221.872133 Z M236.907172,182.353979 C222.41538,171.135331 207.908622,161.419207 200.270651,156.719383 C201.36008,155.601363 202.446515,154.471512 203.526965,153.326873 C218.988469,136.79911 232.893646,117.609394 242.105901,103.329501 C242.503961,103.808653 242.922972,104.364705 243.347969,105.027235 C249.187186,113.699283 255.95122,134.947574 260.796782,156.61882 C265.534599,177.532889 268.749011,199.269204 268.964502,211.502352 C261.003294,201.969607 249.019582,191.783204 236.907172,182.353979 L236.907172,182.353979 Z" id="Imported-Layers-4"></path>
                    </g>
                </g>
            </g>
        </g>
    </g>
</svg>