<?xml version="1.0" encoding="UTF-8" standalone="no"?>
<svg width="233px" height="311px" viewBox="0 0 233 311" version="1.1" xmlns="http://www.w3.org/2000/svg" xmlns:xlink="http://www.w3.org/1999/xlink" xmlns:sketch="http://www.bohemiancoding.com/sketch/ns">
    <!-- Generator: Sketch 3.1 (8751) - http://www.bohemiancoding.com/sketch -->
    <title>Fill 2</title>
    <desc>Created with Sketch.</desc>
    <defs></defs>
    <g id="How-to-crowdfund" stroke="none" stroke-width="1" fill="none" fill-rule="evenodd" sketch:type="MSPage">
        <g sketch:type="MSArtboardGroup" transform="translate(-177.000000, -461.000000)" id="Rules" fill="#D8D8D8">
            <g sketch:type="MSLayerGroup" transform="translate(-14.000000, 359.000000)">
                <g transform="translate(86.000000, 102.000000)" id="Illustration" sketch:type="MSShapeGroup">
                    <g transform="translate(65.000000, 0.000000)">
                        <path d="M104.290815,169.679009 C114.429121,158.543074 123.830752,145.420639 126.780229,132.913662 C129.721366,120.340743 130.647074,106.416015 130.658194,94.0106984 C130.647074,84.6606889 130.113333,76.1789142 129.482295,69.8100273 C129.165386,66.6255839 128.829018,63.9714231 128.500989,61.9794287 C128.425932,61.4931073 128.353654,61.0479996 128.278597,60.641358 C129.657429,60.1962503 131.141897,59.7676281 132.573547,59.3747243 C134.861407,58.7345386 136.910195,58.2015083 138.389104,57.630012 C139.567783,57.1629237 140.284998,55.9677271 140.123763,54.7175789 C139.501065,50.4395992 136.309736,43.8893722 136.279157,43.7382553 C136.19298,43.5541676 136.048426,43.4222838 135.92889,43.2656718 L135.778775,42.5760296 C125.309661,30.0470719 115.443785,15.9822177 107.101296,1.81570321 L104.99969,0.461147026 L102.647892,1.32663424 C91.3781656,13.3308045 78.7129279,29.2337887 68.947129,40.9274826 C68.2521533,41.3643475 67.7350913,42.0649801 67.6433546,42.93871 L67.5766369,44.4773539 C67.5877565,47.0326019 67.8907659,50.9726294 67.8907659,53.2723526 L67.860187,54.3851219 C67.7295315,55.8825521 68.8387128,57.1931471 70.3426403,57.349759 C77.2673784,58.0531391 84.5618437,59.7456474 91.6005578,60.7100475 C91.6088976,61.2595632 91.6339167,61.7980885 91.6339167,62.355847 C91.6672755,74.439697 89.3377169,88.147366 85.1428434,96.0494016 L85.1317238,96.0548968 C77.3035172,111.034695 67.2374887,122.176125 59.1368516,129.547878 C55.0948728,133.235128 51.5338172,135.985455 49.0068854,137.798856 C47.7448095,138.70281 46.7412646,139.375966 46.0546285,139.818326 L45.0538635,140.458512 C44.4784236,140.796464 44.1086965,141.318504 43.894644,141.890001 C43.5249169,142.175749 43.1968883,142.524691 43.005075,142.986284 C40.8617699,148.311091 40.6643968,155.163552 40,160.120184 L40.1000765,161.271419 C41.7318795,166.288497 47.1443505,173.838843 53.1906393,180.977052 C56.206834,184.502195 59.3648037,187.82127 62.2837017,190.425974 C65.2442983,193.027931 67.7184119,194.959479 70.4510565,195.70682 L71.0487356,195.588674 C71.2238695,195.607907 71.3934436,195.662859 71.5769172,195.646373 C73.3727345,195.443052 74.7682457,194.690216 76.7030581,193.602175 C83.2386099,189.769303 94.1080303,180.798459 104.290815,169.679009 L104.290815,169.679009 Z M131.06128,54.0664028 C128.75118,54.7065885 126.18255,55.440192 123.950288,56.3139219 L122.371303,57.8882844 L122.47138,59.9654537 L122.424121,59.9819392 C122.488059,60.1000851 122.804968,61.4958549 123.077399,63.3779462 C123.972527,69.1588512 125.081709,80.7316517 125.070589,94.0106984 C125.081709,106.135762 124.144881,119.71979 121.356639,131.674504 C118.523918,144.033112 107.307009,158.924987 95.9038476,170.459321 C90.2189461,176.240227 84.5006858,181.229829 79.8499082,184.760467 C77.5759477,186.491442 75.5577381,187.862483 73.9704136,188.799408 C73.9843131,187.620697 74.0009925,186.362306 74.0343513,185.147876 C74.0788298,183.631213 74.1455475,182.196977 74.2539637,181.213344 L74.2901024,180.944081 C97.8414399,164.521804 113.470054,146.027854 119.941668,117.164542 C121.061969,112.158454 121.498414,104.704274 121.509533,96.2279942 C121.490074,80.4376608 119.933328,61.4986025 117.509253,50.3654146 C122.310145,49.7032482 126.988722,49.2581405 131.986987,47.7771957 C132.228839,48.348692 132.498489,48.9916254 132.793159,49.7252288 C133.249063,50.8462408 133.702187,52.1128745 134.049675,53.2311389 C133.162886,53.4866637 132.139882,53.7669167 131.06128,54.0664028 L131.06128,54.0664028 Z M73.4505717,52.2062921 C73.4033134,50.362667 73.269878,48.1618567 73.2003805,46.3621928 C75.963604,46.6122224 79.082655,46.914456 82.062711,47.3348355 C85.3624557,47.7909336 88.5148656,48.4366145 90.5747737,49.1592276 C90.9028022,50.9973576 91.1641131,52.9728665 91.339247,55.0912495 C85.7043838,54.2697236 79.6247361,53.0085851 73.4505717,52.2062921 L73.4505717,52.2062921 Z M90.0882907,98.5854165 L90.0882907,98.5909117 C94.9559007,89.2518925 97.179823,75.1348344 97.2104019,62.355847 C97.2104019,56.6573693 96.7544978,51.2418921 95.7954313,46.6396982 L94.2915039,44.7191408 C91.2558499,43.2821573 87.1693926,42.5073402 82.8466436,41.8836399 C80.5504438,41.556678 78.2181052,41.3039008 76.0219819,41.0895897 C84.6202216,30.7037431 94.8752835,18.0511443 104.257456,7.78069604 C111.618639,19.949721 120.000046,31.8961922 128.929094,42.886506 C124.156001,44.1036833 119.32175,44.4553733 113.645188,45.3703169 L111.763194,46.5957369 L111.412926,48.80479 C113.995456,58.2015083 115.944168,79.4018237 115.933048,96.2279942 C115.933048,104.473477 115.454905,111.782036 114.495838,115.958355 C108.391171,142.769226 94.658451,159.529454 72.7055578,175.270331 C65.6112455,166.695139 56.120657,153.105616 50.2578417,143.664936 C56.9351685,139.15616 76.5501635,124.418149 90.0882907,98.5854165 Z M272.886366,178.229473 C269.825693,158.262821 268.288407,137.175156 268.288407,116.727677 C268.288407,115.065392 268.299527,113.403107 268.321766,111.749065 L267.220924,109.515284 L264.749591,109.064681 C243.547271,115.18079 217.79981,124.830286 198.443346,131.619552 C197.567677,131.592077 196.692008,131.921786 196.124907,132.663632 C194.949008,134.24349 193.575736,136.828961 192.096828,139.538073 C190.656838,142.186739 189.155691,144.926075 188.391217,145.948174 C187.509988,147.159856 187.771299,148.866102 188.980557,149.76456 C196.694787,155.476776 204.100449,162.647956 211.703483,168.615696 C203.166401,183.386678 190.164795,199.05337 178.928428,205.804171 C140.134883,229.491045 101.819481,229.5982 101.480333,229.589957 C100.676941,229.589957 99.9680656,229.936152 99.4621233,230.47193 C98.9367216,230.502154 98.4140999,230.628542 97.9609757,230.960999 C91.9285864,235.428562 86.9636798,243.141014 82.7159881,248.388889 L82.1933664,249.438464 C81.6262662,251.751925 81.4177735,254.642378 81.4094338,258.038385 C81.4177735,266.154732 82.7048685,277.070861 84.6980589,286.789046 C85.698824,291.65226 86.8663832,296.199502 88.1840572,299.971927 C89.5323101,303.755343 90.8416444,306.711737 92.8348347,308.744945 L93.5659492,309.003218 C93.6938247,309.093888 93.7883414,309.212034 93.9328964,309.283471 C95.8927279,310.170939 98.0721718,310.29458 101.132845,310.333046 C111.240572,310.31656 129.8965,307.393137 149.152888,301.571018 C168.362017,295.713181 188.054849,287.074794 199.883336,274.993692 C214.978209,259.508339 228.046532,239.393317 237.434265,222.622099 C242.129521,214.244732 245.899069,206.697134 248.523297,200.976675 C249.829852,198.119194 250.852856,195.712315 251.572851,193.865942 C251.745205,193.398854 251.900879,192.989465 252.039874,192.613047 C257.188255,193.714826 263.187285,195.651868 266.514829,196.201384 C267.754666,196.401957 268.997282,195.739791 269.508784,194.599546 C270.651324,192.003084 271.34908,188.431232 271.882821,185.30174 C272.397104,182.202472 272.669534,179.663709 272.677874,179.630738 C272.700113,179.419175 272.644515,179.221349 272.616716,179.018028 L272.886366,178.229473 Z M265.130437,190.266615 C264.443801,190.096265 263.698787,189.901187 262.873156,189.68138 C262.414472,185.939178 261.530463,182.295889 261.383128,179.169145 C263.159486,179.76537 264.994222,180.301147 266.915135,180.759993 C266.792819,181.718898 266.612126,182.99927 266.384174,184.40603 C266.061705,186.351315 265.608581,188.549378 265.130437,190.266615 L265.130437,190.266615 Z M246.138141,192.47292 C245.974126,192.882309 245.796213,193.319174 245.604399,193.783515 C245.156835,193.588437 244.673132,193.467543 244.15329,193.533485 C241.934927,193.824729 239.85834,194.324788 237.923528,194.756158 C240.625593,189.052185 242.99407,183.636708 244.839926,178.855921 C245.040079,179.512592 245.243012,180.163769 245.440385,180.803954 C246.321614,183.584504 247.083308,186.216684 247.072188,188.326824 L247.072188,188.629058 C247.083308,188.881835 247.175044,189.104389 247.250102,189.335185 C247.150025,189.736332 246.766399,190.920538 246.138141,192.47292 L246.138141,192.47292 Z M231.949516,221.031251 C231.646507,220.937833 231.332378,220.871891 230.998789,220.891124 C228.491317,221.025755 226.081141,221.437892 223.910037,221.589009 C225.027558,219.629986 226.139519,217.640739 227.243141,215.632259 C229.82289,215.552579 232.502717,215.445424 235.232581,215.079996 C234.192898,217.006048 233.100396,218.992547 231.949516,221.031251 L231.949516,221.031251 Z M223.170583,235.695077 C223.081626,235.681339 223.009348,235.63463 222.917612,235.626387 L220.924421,235.568688 C218.984049,235.568688 217.121514,235.692329 215.386855,235.708815 C217.135414,232.988712 218.914551,230.098259 220.702029,227.092409 C221.280249,227.141865 221.852909,227.166593 222.417229,227.166593 C224.67451,227.155603 226.801136,226.858864 228.716489,226.630815 C226.96515,229.600948 225.113735,232.634274 223.170583,235.695077 L223.170583,235.695077 Z M213.743932,249.633542 C213.482621,249.5676 213.22409,249.496163 212.94054,249.507154 C211.153062,249.589581 209.084815,249.669261 207.016567,249.669261 C206.471706,249.669261 205.940745,249.641785 205.398663,249.628047 C207.419653,247.223916 209.587977,244.327968 211.850818,241.036369 C212.92942,241.162758 213.999683,241.2287 215.031027,241.2287 C216.66839,241.2287 218.200116,241.151768 219.648446,241.113302 C217.752552,243.965288 215.778821,246.814527 213.743932,249.633542 L213.743932,249.633542 Z M202.657679,263.7506 C202.365789,263.561018 202.034981,263.415396 201.668034,263.346706 C198.301571,262.728501 195.012946,262.777958 192.03567,262.621346 C194.89063,260.203477 197.701112,257.579539 200.483795,254.812728 C202.585402,255.084738 204.828783,255.180903 207.016567,255.180903 C207.917255,255.180903 208.787365,255.16167 209.643575,255.13969 C207.377954,258.087841 205.048396,260.970051 202.657679,263.7506 L202.657679,263.7506 Z M238.398891,209.057304 C238.095881,209.024333 237.781752,209.013342 237.467623,209.087527 C235.193663,209.623305 232.769588,209.851354 230.273235,209.985985 C231.882798,206.941668 233.450664,203.902846 234.940692,200.899743 C237.901288,200.534315 240.650612,199.759498 243.171984,199.284167 C241.85709,202.130658 240.261426,205.425005 238.398891,209.057304 L238.398891,209.057304 Z M252.556936,187.095909 C252.340104,184.274146 251.525592,181.62548 250.766679,179.17464 C250.216258,177.454656 249.743675,175.847323 249.443445,174.404844 C251.570071,175.31704 253.668898,176.223741 255.795523,177.089228 L255.742705,178.21024 C255.759385,181.702413 256.521078,185.101167 257.03814,188.134494 C255.542552,187.755328 254.030285,187.395395 252.556936,187.095909 L252.556936,187.095909 Z M214.844774,162.815558 C214.853113,162.738626 214.897592,162.678179 214.900372,162.601247 L214.922611,161.680808 C214.911491,158.930482 214.160917,156.265331 213.50764,153.721073 C213.029497,151.926905 212.604172,150.209668 212.395679,148.714986 C214.903151,150.866339 217.063136,152.965489 218.433628,154.701959 C217.469002,157.27644 216.262524,159.996543 214.844774,162.815558 L214.844774,162.815558 Z M208.103509,155.103105 C208.501035,156.592293 208.848523,158.001801 209.076475,159.268434 C207.547528,157.960587 206.007462,156.628011 204.447937,155.27895 C204.445157,155.26796 204.447937,155.25697 204.445157,155.243232 C203.552808,152.039555 203.116363,146.448233 203.127483,141.755369 C203.127483,141.648214 203.133043,141.554796 203.133043,141.450388 C204.409018,142.392807 205.701673,143.370945 206.994328,144.362821 L206.677419,146.992254 C206.699658,149.825007 207.441892,152.54511 208.103509,155.103105 L208.103509,155.103105 Z M197.006137,142.142778 C197.19239,141.802078 197.375864,141.458631 197.562117,141.120679 C197.559337,141.337737 197.550998,141.535563 197.550998,141.755369 C197.556557,144.338093 197.664974,147.102157 197.917945,149.750823 C196.742046,148.786423 195.538348,147.860489 194.33743,146.92906 C195.17974,145.500319 196.083209,143.840781 197.006137,142.142778 L197.006137,142.142778 Z M181.847326,210.497035 C198.935389,199.971062 217.418964,174.124591 224.201927,155.215756 L223.907257,152.814373 C221.566579,149.264501 217.460662,145.615717 212.962779,141.991661 C210.060561,139.669957 207.036026,137.430681 204.264463,135.416706 C222.014143,129.127499 243.936458,121.057861 262.720261,115.439063 C262.720261,115.870433 262.711922,116.296307 262.711922,116.727677 C262.711922,136.1036 264.121333,155.993321 266.845637,175.064263 C259.851402,173.204152 253.749515,170.080156 246.104782,167.046829 L243.839161,167.132004 L242.379712,168.860231 C239.722125,178.333881 232.077392,195.055644 223.481932,210.911919 C214.93373,226.768194 205.262448,242.000769 198.988207,248.485055 C172.921058,275.501994 144.927435,285.450975 108.191018,288.481554 C105.875359,273.466038 104.379772,250.202291 104.279695,235.01093 C113.995456,234.530104 147.571123,231.392369 181.847326,210.497035 L181.847326,210.497035 Z M168.787342,278.447398 C173.073952,280.227828 177.388362,281.06584 181.232967,282.197842 C178.542021,283.76671 175.692621,285.258645 172.732024,286.673648 C172.698665,286.65991 172.676426,286.632434 172.643067,286.618696 C170.213432,285.703752 166.730214,284.687148 163.363752,283.557894 C162.235111,283.184223 161.12315,282.785824 160.083466,282.384678 C162.982905,281.15651 165.835085,279.810197 168.645567,278.351232 C168.698385,278.378708 168.731744,278.425417 168.787342,278.447398 L168.787342,278.447398 Z M115.507723,302.648069 C114.098312,300.035122 112.944652,296.883649 111.273931,293.759652 C114.351283,293.479399 117.392497,293.163428 120.366993,292.767777 C122.882805,295.064752 125.482015,298.408555 127.536363,301.392425 C123.358169,302.26066 119.394027,302.961293 115.757914,303.499818 C115.713436,303.211322 115.652278,302.920079 115.507723,302.648069 L115.507723,302.648069 Z M94.8002261,301.592999 C94.3471019,300.609365 93.885638,299.455383 93.4547531,298.180506 C92.9821696,296.839688 92.5262655,295.358743 92.0870409,293.776138 C94.3860206,294.372362 96.8267753,294.784499 99.0201187,294.941111 C97.580129,297.122688 96.0678618,299.551548 94.8002261,301.592999 L94.8002261,301.592999 Z M101.185663,289.487168 L100.632462,289.498158 C98.0332532,289.539372 93.3324374,288.591457 90.5553144,287.54463 C90.163348,285.747714 89.7964009,283.895846 89.4544728,282.008259 C93.7911213,283.082562 98.1666885,283.285883 101.513692,283.722748 C101.647127,283.739234 101.769443,283.69802 101.900098,283.695272 C102.175309,285.857617 102.467198,287.921048 102.772988,289.858091 C102.756308,289.874576 102.739629,289.893809 102.722949,289.913043 C102.267045,289.64378 101.755543,289.456945 101.185663,289.487168 L101.185663,289.487168 Z M100.346132,268.756688 C100.615783,271.960365 100.913233,275.117333 101.244041,278.150659 C96.9991293,277.680823 92.2510551,277.334628 88.4676073,275.947101 C88.1228993,273.562203 87.8365693,271.193791 87.6030575,268.894067 C88.6705402,269.042437 89.7157837,269.102883 90.7193286,269.102883 C93.8244802,269.094641 96.634962,268.635795 98.6809706,268.65228 L100.259955,268.759436 C100.290534,268.764931 100.318333,268.753941 100.346132,268.756688 L100.346132,268.756688 Z M99.9096876,263.231308 L98.6809706,263.140638 C95.948326,263.151628 93.2351408,263.604979 90.7193286,263.593988 C89.4461331,263.593988 88.2591145,263.453862 87.1443735,263.176357 C87.0415171,261.354712 86.9831391,259.62099 86.985919,258.038385 C86.985919,256.832198 87.0276176,255.735914 87.0915553,254.716562 C87.7198134,254.749533 88.3647509,254.766019 89.0208079,254.766019 C92.512366,254.763271 96.2846943,254.353882 99.3092286,253.686221 C99.4788027,256.832198 99.6789557,260.030379 99.9096876,263.231308 L99.9096876,263.231308 Z M133.04335,299.601004 C131.422667,297.163902 129.365539,294.339391 127.094358,291.76491 C130.674873,291.163191 134.169211,290.43783 137.613511,289.63279 C138.561458,291.317055 139.831873,292.649631 141.027232,293.858565 C142.325446,295.152675 143.529144,296.320396 144.246359,297.262815 C140.529629,298.328875 136.843478,299.282285 133.257403,300.125792 C133.187905,299.949947 133.151767,299.763111 133.04335,299.601004 L133.04335,299.601004 Z M149.258524,294.707567 C148.007568,292.830971 146.372985,291.393987 144.991373,289.987227 C144.351995,289.363527 143.793235,288.753564 143.326211,288.179321 C146.620396,287.27262 149.870103,286.280744 153.050312,285.148741 C155.407669,286.582977 158.426644,287.701242 161.567934,288.775545 C162.84113,289.20142 164.097646,289.602566 165.306904,289.987227 C160.214122,292.09462 154.923966,293.982206 149.633811,295.638996 C149.564313,295.317529 149.450337,295.001558 149.258524,294.707567 L149.258524,294.707567 Z M98.725449,237.588158 C98.7754873,240.860524 98.8839035,244.402153 99.039578,248.111384 C99.0256785,248.114131 99.011779,248.111384 98.9978795,248.114131 C96.5599046,248.768055 92.4623277,249.259872 89.076406,249.254377 C92.1593183,245.212689 95.4590631,240.745126 98.725449,237.588158 L98.725449,237.588158 Z M99.3648267,304.785685 C100.42119,303.084934 101.636007,301.117668 102.831366,299.254809 C103.84881,297.677699 104.830116,296.215988 105.633508,295.125199 C107.234732,297.773865 108.480128,300.988531 110.092472,304.238917 C106.575895,304.629073 103.526341,304.826898 101.132845,304.821403 C100.499027,304.832394 99.9069077,304.815908 99.3648267,304.785685 L99.3648267,304.785685 Z M187.037405,278.507844 C186.845591,278.367718 186.664898,278.211106 186.431386,278.120436 C182.556201,276.625753 178.644878,275.826208 175.061583,274.787623 C178.811672,272.545599 182.486704,270.072778 186.097798,267.352676 C190.553982,268.407746 194.862831,268.127493 198.454466,268.454455 C197.601036,269.374894 196.742046,270.284342 195.874716,271.17181 C193.372803,273.749038 190.381628,276.194383 187.037405,278.507844 L187.037405,278.507844 Z M71.5852569,195.649121 C71.582477,195.649121 71.5796971,195.646373 71.5769172,195.646373 L71.5741373,195.649121 L71.5852569,195.649121" id="Fill-2"></path>
                    </g>
                </g>
            </g>
        </g>
    </g>
</svg>