<?xml version="1.0" encoding="UTF-8" standalone="no"?>
<svg width="238px" height="291px" viewBox="0 0 238 291" version="1.1" xmlns="http://www.w3.org/2000/svg" xmlns:xlink="http://www.w3.org/1999/xlink" xmlns:sketch="http://www.bohemiancoding.com/sketch/ns">
    <!-- Generator: Sketch 3.1 (8751) - http://www.bohemiancoding.com/sketch -->
    <title>Fill 1</title>
    <desc>Created with Sketch.</desc>
    <defs></defs>
    <g id="How-to-crowdfund" stroke="none" stroke-width="1" fill="none" fill-rule="evenodd" sketch:type="MSPage">
        <g sketch:type="MSArtboardGroup" transform="translate(-168.000000, -491.000000)" id="Rules" fill="#D8D8D8">
            <g sketch:type="MSLayerGroup" transform="translate(-14.000000, 359.000000)">
                <g transform="translate(86.000000, 102.000000)" id="Illustration" sketch:type="MSShapeGroup">
                    <g transform="translate(65.000000, 0.000000)">
                        <path d="M267.010265,31.1480819 C266.384373,30.6955501 265.614736,30.5772411 264.89002,30.7280851 C264.446805,30.5772411 263.967654,30.5121712 263.485508,30.6127338 C222.736681,39.0156286 101.451499,82.0386861 101.367648,82.0593902 L99.8163954,83.5145906 L99.8643106,85.623448 C103.161471,92.5090301 110.672168,100.219817 117.428202,106.516812 C122.576084,111.293537 127.250804,115.12379 129.203346,116.694342 C128.589433,121.796416 128.385794,128.025383 128.379804,134.396322 C128.379804,149.637475 129.586667,165.505666 129.688487,166.780445 C129.598646,167.203399 129.574688,167.641143 129.715439,168.084801 C130.152664,169.463101 131.638034,170.229151 133.030567,169.800281 C140.541264,167.466637 150.693283,162.763855 159.889994,158.297692 C169.032801,153.846317 177.292172,149.57832 180.268899,148.362696 C180.376708,148.321288 180.448581,148.235514 180.544411,148.179317 C188.18987,153.322799 194.089421,157.238826 194.1014,157.247699 L196.194692,157.617415 L197.88969,156.351509 C212.967983,129.643259 253.46825,68.5928715 267.884716,34.2536924 C268.348894,33.1445458 267.98953,31.8638512 267.010265,31.1480819 L267.010265,31.1480819 Z M149.944609,122.920351 L149.902683,123.009083 C149.558293,123.304855 149.264813,123.653867 149.106094,124.109357 C149.100105,124.130061 145.793961,133.778157 141.751121,143.778223 C139.735691,148.776777 137.5286,153.858147 135.501191,157.783048 C135.165785,158.436705 134.836369,159.043038 134.512942,159.62571 C134.450053,158.599379 134.387164,157.507979 134.324276,156.313059 C133.997854,150.231977 133.671432,142.195841 133.671432,134.396322 C133.668437,127.924821 133.899029,121.598249 134.515936,116.794904 C149.941615,106.68836 175.995468,92.9231115 201.405463,78.5278674 C205.894512,75.9812668 210.353614,73.4169198 214.740843,70.8496151 C208.071656,76.2238002 201.372521,81.6127738 194.948898,86.7769605 C182.703587,96.6202669 171.44952,105.656115 163.265016,112.231136 C155.077518,118.806157 149.959583,122.905563 149.944609,122.920351 L149.944609,122.920351 Z M106.072315,85.9517554 C109.324555,84.8071161 115.143249,82.7662863 122.752771,80.130954 C155.287147,68.8383626 220.553548,46.670219 254.80089,38.0011291 C241.330748,49.1073838 220.307983,61.8108097 198.773125,73.9936761 C173.86025,88.1079364 148.309505,101.609948 132.410665,111.911702 C132.162105,111.88804 131.919535,111.893955 131.682954,111.938321 C131.128935,111.488747 130.503044,110.974103 129.739396,110.338192 C123.555349,105.247949 111.229181,94.2008484 106.072315,85.9517554 L106.072315,85.9517554 Z M157.548142,153.612656 C151.477893,156.567423 144.970419,159.605006 139.247556,161.941608 C142.245246,156.523057 145.431603,148.912832 148.16576,141.947392 C150.160227,136.84236 151.864209,132.169155 152.930321,129.17298 C158.75201,133.375907 167.529463,139.383045 175.498349,144.774976 C171.341711,146.73299 164.810279,150.075218 157.548142,153.612656 L157.548142,153.612656 Z M194.68237,151.329293 C191.564892,149.252971 185.716251,145.345817 179.220756,140.956554 C171.012295,135.407863 161.806599,129.107911 155.922022,124.851745 C168.832156,114.49971 226.611818,68.1314665 258.385541,42.3696879 C242.145305,75.7830993 209.314454,125.978638 194.68237,151.329293 L194.68237,151.329293 Z M142.242252,207.132677 C141.61636,206.822116 140.918596,206.807328 140.28372,207.002538 C139.891415,206.970003 139.493121,206.996622 139.1098,207.147466 C111.798174,217.872174 33.2293332,262.060575 33.1514711,262.096068 L31.872736,263.790844 L32.2889987,265.864209 C35.5592066,270.419104 41.7252854,274.84386 47.1995894,278.431579 C51.0777205,280.95156 54.5425836,282.930278 56.2585443,283.885623 C57.0581281,296.030039 62.1880421,316.068621 62.6881563,318.068043 C62.6881563,318.473251 62.7510449,318.878459 62.9546842,319.262963 C63.6254961,320.543658 65.221669,321.049429 66.521367,320.383941 C71.513525,317.834382 77.9700892,313.356388 83.7947726,309.159377 C89.4577425,305.071802 94.5696883,301.211972 96.5042618,299.978601 C102.200173,302.525201 106.551466,304.435891 106.563445,304.441807 L108.686685,304.453638 L110.133123,302.915621 C117.278467,282.684787 137.843043,235.648097 143.643769,210.037163 C143.901313,208.868862 143.329326,207.668026 142.242252,207.132677 L142.242252,207.132677 Z M71.5404772,284.737447 L71.513525,284.832095 C71.2260342,285.181106 70.9924479,285.577441 70.9205752,286.053635 C70.9205752,286.071381 69.8125377,293.119638 68.2463118,300.490287 C67.5814893,303.637306 66.826826,306.805028 66.0541944,309.487684 C65.6319423,307.64798 65.1707592,305.598277 64.7005919,303.391815 C63.2571485,296.609753 61.8286786,288.617982 61.5202249,283.158023 C70.9535168,274.38837 87.1368532,261.871281 102.811091,249.008138 C103.005747,248.848421 103.194412,248.688704 103.389068,248.528987 C101.655139,250.504746 99.9361833,252.459802 98.2501695,254.379365 C83.7169105,270.913044 71.5644348,284.70787 71.5404772,284.737447 L71.5404772,284.737447 Z M46.1125148,271.353745 C43.2435962,269.330662 40.4914707,267.106453 38.5299449,265.0952 C40.7310463,263.867745 44.1300261,261.971844 48.4753298,259.570171 C68.5877071,248.44617 108.066782,226.943515 131.272681,216.248384 C123.297806,224.902685 111.528651,235.077257 99.4300797,244.991548 C83.9954173,257.662439 68.0905876,269.954741 58.2829587,279.011293 C57.9086217,278.798337 57.4863696,278.558761 57.0042236,278.280735 C54.2970185,276.722015 50.1014496,274.184287 46.1125148,271.353745 L46.1125148,271.353745 Z M80.6713049,304.938704 C77.4789591,307.245729 74.0859687,309.620782 70.9295593,311.673443 C72.0915013,307.798824 73.1246713,303.119704 74.0051119,298.771849 C74.6519662,295.539057 75.1880168,292.551755 75.5653484,290.371912 C79.7699014,292.397953 85.4927652,295.021455 90.9161594,297.467493 C88.280827,299.357479 84.6722185,302.057881 80.6713049,304.938704 L80.6713049,304.938704 Z M106.111246,298.517485 C103.577733,297.396507 99.4630213,295.571592 94.917073,293.527804 C88.9696071,290.851064 82.3513292,287.828269 77.7724393,285.621807 C86.2504232,275.997372 116.859209,241.229323 135.516165,219.850892 C128.047393,244.462116 112.966105,279.851287 106.111246,298.517485 L106.111246,298.517485 Z" id="Fill-1"></path>
                    </g>
                </g>
            </g>
        </g>
    </g>
</svg>