<?xml version="1.0" encoding="UTF-8" standalone="no"?>
<svg width="210px" height="274px" viewBox="0 0 210 274" version="1.1" xmlns="http://www.w3.org/2000/svg" xmlns:xlink="http://www.w3.org/1999/xlink" xmlns:sketch="http://www.bohemiancoding.com/sketch/ns">
    <!-- Generator: Sketch 3.1 (8751) - http://www.bohemiancoding.com/sketch -->
    <title>Fill 1</title>
    <desc>Created with Sketch.</desc>
    <defs></defs>
    <g id="How-to-crowdfund" stroke="none" stroke-width="1" fill="none" fill-rule="evenodd" sketch:type="MSPage">
        <g sketch:type="MSArtboardGroup" transform="translate(-185.000000, -502.000000)" id="Rules" fill="#D8D8D8">
            <g sketch:type="MSLayerGroup" transform="translate(-14.000000, 359.000000)">
                <g transform="translate(86.000000, 102.000000)" id="Illustration" sketch:type="MSShapeGroup">
                    <g transform="translate(65.000000, 0.000000)">
                        <path d="M233.002447,154.625502 C216.211573,137.373096 195.676727,127.822604 183.622817,109.058801 C183.970814,108.677255 184.294812,108.266131 184.57381,107.789937 C184.636809,107.677544 184.648809,107.547404 184.699809,107.429095 C186.847793,109.298377 189.094776,110.89259 191.530758,112.131877 C194.305737,113.545669 197.308714,114.54538 200.59669,115.184248 L200.58769,115.184248 C201.493683,115.346923 205.291654,116.642406 208.798628,117.65099 C210.589615,118.159719 212.359601,118.615208 213.92559,118.851826 L216.214573,118.990839 C216.955567,118.916896 217.87056,118.848868 218.863553,117.926059 L218.887552,117.899439 L219.613547,116.902686 C220.093543,116.041988 220.150543,114.885518 219.847545,114.042567 C219.385549,112.744126 218.569555,111.998779 217.699561,111.294841 C216.805568,110.599775 215.758576,109.984569 214.570585,109.381193 C210.787613,107.46163 205.486653,105.61601 200.50969,103.915319 C198.232707,103.140395 196.024724,102.392091 194.101738,101.711814 C198.415706,100.649991 202.375676,98.7954978 206.137648,95.9915751 L206.149648,95.9797442 C206.788643,95.4828466 209.87562,93.7555356 212.758598,92.013436 C214.219588,91.1231609 215.677577,90.1944355 216.916567,89.277541 C218.161558,88.3162806 219.18155,87.5561454 219.949545,86.2015077 L220.357541,84.3677187 L220.357541,84.3588455 C220.342542,83.1875867 219.517548,81.7116822 218.299557,81.1615455 C216.751569,80.4369031 215.440578,80.6439438 214.090588,80.8983081 C209.494623,81.9275961 202.963672,85.5774279 196.921717,88.8752905 C193.93074,90.5197852 191.128761,92.0755482 189.001777,93.1255403 C187.945785,93.6549729 187.048791,94.0542657 186.469796,94.2613064 L185.9328,94.4180658 L185.956799,94.5629943 L185.374804,94.5777829 C184.732809,94.0128576 184.024814,93.5189176 183.27182,93.1373712 C183.25082,93.128498 183.22682,93.1225826 183.20882,93.1107517 C184.669809,88.8664173 186.451796,84.4327886 188.686779,80.1618347 C190.330767,77.0207315 192.214753,73.9742755 194.359736,71.1703529 C196.57972,68.2155863 200.335692,65.0744831 202.648674,60.7266284 C203.098671,59.8688883 203.494668,58.9490361 203.791666,57.9700293 L203.791666,57.9611562 C204.340662,56.0622972 204.631659,54.5775196 204.457661,53.0779533 C204.346662,51.5843026 203.25767,50.0107933 201.93768,49.4192484 C199.540698,48.3337636 197.359714,48.6472824 194.500735,48.4698189 C189.697771,48.2450318 187.957784,47.686022 185.182805,46.3047647 C183.982814,45.6925158 182.608825,44.9028034 180.838838,43.9178812 L180.085844,43.5156307 C177.196865,42.010149 174.409886,41.613814 171.874905,42.1314157 C169.339924,42.6283134 167.16494,43.7433755 164.458961,44.9294229 C160.081994,46.8637746 156.200023,46.065189 151.478058,44.9678733 C146.867093,43.9030926 141.461133,42.5129622 135.407179,44.8820993 C132.6022,45.9912459 130.358217,47.6564447 128.258232,48.9992515 C126.152248,50.3657202 124.241262,51.3861351 122.204278,51.6671189 C119.720296,51.9954263 118.274307,51.5517676 116.53732,50.6969853 C114.935332,49.895442 113.198345,48.5940433 110.876363,47.4020804 L109.688372,46.8401128 C105.290405,44.9797042 100.637439,46.0356118 96.2874721,47.4020804 C91.9315047,48.8158726 87.6535368,50.7295203 84.3235618,51.5103595 C83.4295685,51.7292311 82.7245738,52.4213386 82.5085754,53.2997827 C82.295577,54.1841422 82.5985747,55.1187831 83.2945695,55.710328 C89.9515196,61.3862009 97.3434641,67.4022121 103.20842,73.7199112 C109.046376,79.9814135 113.252345,86.4824915 114.086339,92.9628655 C111.752356,93.761451 109.760371,94.6635569 108.50938,96.7812875 C107.915385,97.8549414 107.843385,99.319015 108.320382,100.475485 L108.317382,100.478443 C108.812378,101.759138 109.730371,102.729271 110.780363,103.442083 C110.333367,104.92686 110.294367,106.441215 110.837363,107.822472 C111.596357,109.750909 113.165345,111.013857 114.887333,111.895259 C115.21133,112.054976 115.568327,112.185116 115.913325,112.330044 C115.541328,115.317346 114.677334,118.023663 113.366344,120.528856 C107.438388,132.066938 91.9975042,139.532234 80.8225881,147.813862 L80.8225881,147.810905 C71.900655,154.480573 65.2047052,162.91896 60.3087419,172.268327 C52.9977968,186.240617 49.6618218,202.227116 48.7468286,217.704888 C46.301847,257.512899 65.8167006,286.619864 95.7384762,301.775243 C108.995377,308.52477 124.286262,312.597556 140.627139,313.8398 C160.669989,315.351197 182.836823,314.2036 202.510675,308.149139 C222.157528,302.106508 239.437398,291.041661 249.037326,272.700813 C252.838298,265.442558 255.418278,257.06924 256.48927,247.518748 C262.162228,197.618982 249.952319,172.061286 233.002447,154.625502 L233.002447,154.625502 Z M125.633252,95.5715783 C127.388239,95.3645376 129.179225,95.1959473 130.943212,95.0658074 C130.766213,95.4651002 130.595215,95.8703084 130.388216,96.2666435 C129.686222,97.6035349 128.858228,98.8694409 128.204233,99.78042 C127.727236,100.454781 127.367239,100.916186 127.21124,101.114354 C125.738251,101.152804 124.307262,101.152804 122.945272,101.114354 C123.392269,100.407458 123.857265,99.6266183 124.292262,98.79254 C124.817258,97.7869138 125.264255,96.6955135 125.633252,95.5715783 L125.633252,95.5715783 Z M198.091708,93.7910283 C198.448706,93.998069 198.826703,94.255391 199.2497,94.5718675 C198.409706,95.0243993 197.557712,95.4236921 196.690719,95.7756613 C196.471721,95.4976352 196.234722,95.2225668 195.988724,94.941583 C196.681719,94.5629943 197.371714,94.190321 198.091708,93.7910283 L198.091708,93.7910283 Z M204.898657,90.0997883 C205.165655,90.2388014 205.426653,90.3837299 205.684652,90.5286584 C204.892657,90.9959788 204.229662,91.4071025 203.674667,91.776818 C203.419669,91.6023123 203.152671,91.401187 202.867673,91.1852732 C203.551668,90.8155576 204.223662,90.4547153 204.898657,90.0997883 L204.898657,90.0997883 Z M210.499615,87.6833276 C210.460616,87.6567081 210.436616,87.6152999 210.394616,87.5916381 C210.325617,87.5531877 210.259617,87.5147373 210.190618,87.4733292 C210.880613,87.1598104 211.540608,86.8788266 212.158603,86.6303777 C211.624607,86.9793892 211.069611,87.3343161 210.499615,87.6833276 L210.499615,87.6833276 Z M196.900717,107.82543 C196.975717,108.221765 197.026716,108.686128 197.068716,109.185983 C196.165723,108.866549 195.301729,108.493876 194.458736,108.094583 C194.521735,107.754445 194.572735,107.405433 194.620735,107.044591 C195.364729,107.301913 196.120723,107.559235 196.900717,107.82543 L196.900717,107.82543 Z M204.220662,110.363157 C204.292662,110.650057 204.358661,110.936956 204.421661,111.223855 C203.545668,110.948787 202.780673,110.724 202.132678,110.558367 C202.096678,110.256679 202.069679,109.940203 202.045679,109.591191 C202.777673,109.845556 203.503668,110.102878 204.220662,110.363157 L204.220662,110.363157 Z M209.770621,112.714548 C209.752621,112.643563 209.740621,112.575535 209.725621,112.50455 C210.439616,112.809195 211.093611,113.107926 211.705606,113.406656 C211.081611,113.243981 210.430616,113.057644 209.773621,112.86835 C209.764621,112.815111 209.782621,112.76483 209.770621,112.714548 L209.770621,112.714548 Z M182.245827,99.5556329 L181.90683,99.8218281 C181.189835,100.235909 179.857845,100.549428 178.123858,100.771258 C178.432856,100.259571 178.741854,99.7271809 179.038851,99.1622556 C179.392849,98.4849367 179.728846,97.7691674 180.025844,97.0356518 C180.370841,97.1717071 180.730839,97.3048047 181.009837,97.4556487 C182.071829,97.9998699 182.425826,98.4524017 182.524825,98.6949351 L182.245827,99.5556329 L182.245827,99.5556329 Z M174.655884,96.9321315 C173.965889,98.2631074 173.137896,99.5230979 172.4929,100.434077 C172.297902,100.712103 172.129903,100.93689 171.979904,101.140973 C171.097911,101.149846 170.188918,101.146889 169.246925,101.129142 C169.741921,100.360134 170.260917,99.5023939 170.746914,98.5736684 C171.27491,97.5621267 171.721906,96.4677687 172.093903,95.3349603 C173.176895,95.4680579 174.220888,95.6129864 175.19288,95.7815767 C175.021882,96.1660809 174.856883,96.550585 174.655884,96.9321315 L174.655884,96.9321315 Z M166.369946,96.346502 C165.667952,97.6804357 164.830958,98.9522572 164.176963,99.8691517 C163.840965,100.348303 163.561967,100.718019 163.366969,100.966467 C162.394976,100.928017 161.380984,100.886609 160.378991,100.845201 C160.864988,100.085066 161.374984,99.2421141 161.85498,98.3281773 C162.439976,97.2012844 162.943972,95.9738288 163.324969,94.6990496 C164.57596,94.7404578 165.820951,94.7966545 167.050941,94.8765131 C166.846943,95.3645376 166.624944,95.8584775 166.369946,96.346502 L166.369946,96.346502 Z M157.472013,96.0980532 C156.779018,97.4319869 155.951025,98.6919774 155.306029,99.6029565 C155.000032,100.034784 154.748034,100.371965 154.559035,100.617456 C153.254045,100.567175 151.958054,100.528724 150.644064,100.493232 C151.118061,99.7538004 151.610057,98.9315531 152.075054,98.0471935 C152.636049,96.9705819 153.110046,95.7993231 153.488043,94.5866561 C154.985032,94.5748252 156.56302,94.5777829 158.174008,94.5925715 C157.964009,95.0924269 157.736011,95.6011555 157.472013,96.0980532 L157.472013,96.0980532 Z M147.695086,95.8200271 C146.999092,97.1510031 146.171098,98.4139513 145.520103,99.3249304 C145.169105,99.8159126 144.890108,100.18267 144.698109,100.431119 C143.858115,100.439992 143.045121,100.439992 142.154128,100.46957 C142.574125,99.801124 143.006122,99.0676084 143.414119,98.2897269 C143.996114,97.1687494 144.49711,95.9412938 144.878108,94.6694724 C145.8471,94.6694724 146.984092,94.6576415 148.241082,94.6398951 C148.067084,95.0332725 147.902085,95.4296075 147.695086,95.8200271 L147.695086,95.8200271 Z M139.034151,96.0625605 C138.338157,97.3935364 137.510163,98.6505693 136.868168,99.5585906 C136.469171,100.120558 136.169173,100.513936 135.983174,100.750554 C135.113181,100.794919 134.249187,100.839285 133.376194,100.880693 C133.83819,100.156051 134.315187,99.3545077 134.765183,98.4967676 C135.368179,97.3373397 135.887175,96.0714337 136.271172,94.7552464 C137.492163,94.7049651 138.647154,94.6724301 139.688147,94.651726 C139.490148,95.1220042 139.28015,95.5952401 139.034151,96.0625605 L139.034151,96.0625605 Z M125.330254,105.985726 C126.326247,105.97981 127.334239,105.967979 128.360231,105.947275 C128.870228,105.932486 129.383224,105.911782 129.89622,105.894036 C129.119226,107.624305 128.375231,109.277673 128.171233,109.730204 C126.674244,109.635557 125.210255,109.499502 123.842265,109.313165 C124.322262,108.248385 124.862258,107.041633 125.330254,105.985726 L125.330254,105.985726 Z M135.395179,105.645587 C136.817168,105.571644 138.206158,105.500659 139.559147,105.438547 C138.662154,107.43501 137.741161,109.481756 137.561162,109.881048 C136.253172,109.90471 134.882183,109.916541 133.481193,109.90471 C134.057189,108.626973 134.795183,106.979521 135.395179,105.645587 L135.395179,105.645587 Z M145.025106,105.266999 L145.025106,105.264041 C145.541103,105.258125 146.054099,105.255168 146.534095,105.261083 C147.365089,105.269956 148.220083,105.302491 149.060076,105.320238 C148.220083,107.20135 147.371089,109.097251 147.155091,109.573445 C146.195098,109.582318 144.776108,109.641473 143.027121,109.712458 C143.651117,108.31937 144.440111,106.562482 145.025106,105.266999 L145.025106,105.266999 Z M154.376036,105.471081 C155.417029,105.51249 156.452021,105.55094 157.484013,105.595306 C156.782018,107.168815 156.056024,108.798521 155.681027,109.64443 C154.541035,109.653304 153.482043,109.653304 152.50705,109.647388 C153.077046,108.381482 153.794041,106.781353 154.376036,105.471081 L154.376036,105.471081 Z M162.778973,105.799389 C163.828965,105.837839 164.881958,105.87629 165.89895,105.905867 C165.229955,107.39656 164.60896,108.777817 164.353962,109.3457 C163.27097,109.413728 162.187978,109.472882 161.119986,109.517248 C161.656982,108.304581 162.277977,106.917409 162.778973,105.799389 L162.778973,105.799389 Z M171.24791,105.994599 C172.360901,105.994599 173.422893,105.967979 174.454886,105.929529 C174.037889,106.861212 173.659892,107.715994 173.401894,108.289793 C172.321902,108.499791 171.17291,108.680212 169.972919,108.831056 C170.383916,107.917119 170.833913,106.914451 171.24791,105.994599 L171.24791,105.994599 Z M180.076844,105.391223 C180.130843,105.38235 180.187843,105.376434 180.238842,105.364603 C180.232842,105.44742 180.205843,105.497701 180.193843,105.562771 C180.184843,105.657418 180.040844,105.814178 179.803846,106.003472 C179.896845,105.799389 179.989844,105.58939 180.076844,105.391223 L180.076844,105.391223 Z M89.8705202,54.8762497 C92.5375002,53.9327357 95.22848,52.8472509 97.8174606,52.0220458 C101.84643,50.6969853 105.401404,50.2267071 107.693387,51.279657 L108.61738,51.7203579 C110.477366,52.6549988 112.157353,53.9238625 114.278337,55.012305 C114.530335,55.1454026 114.821333,55.2518807 115.091331,55.3731474 C115.298329,55.6275117 115.556328,55.8463833 115.871325,56.0061004 C124.856258,60.5432495 128.492231,69.5465622 132.218203,79.1946589 C132.704199,80.4457762 134.123188,81.0757715 135.398179,80.5966202 C136.667169,80.1174688 137.303164,78.7155075 136.820168,77.4584747 C133.93119,70.0582485 130.832213,62.007323 124.430261,56.1303248 C126.950242,55.4796255 129.074226,54.272874 130.952212,53.0690802 C133.208195,51.6050066 135.21518,50.1764258 137.225165,49.3926289 C140.627139,48.0616529 143.780116,48.3101018 147.23309,49.005167 C147.347089,49.1027719 147.434088,49.2210809 147.569087,49.3009394 C151.17506,51.3092342 153.332044,56.2486338 154.055039,62.1167588 C154.805033,67.9227716 154.160038,74.3794837 153.095046,78.5912831 C152.768048,79.8897241 153.575042,81.2118268 154.898032,81.5312611 C156.218023,81.8566107 157.556013,81.0580252 157.88001,79.7536688 C159.080001,74.9177895 159.769996,68.0824887 158.948002,61.513383 C158.450006,57.7008764 157.424013,53.897243 155.528028,50.7117739 C158.900002,51.1643057 162.568975,51.0933203 166.474946,49.3600939 C169.273925,48.1119343 171.26891,47.1772934 172.813898,46.8963096 C174.358886,46.6360298 175.564877,46.7218038 177.82386,47.8339082 L178.414856,48.1503847 C180.151843,49.1086873 181.552833,49.9191038 182.920822,50.6230422 C183.400819,50.871491 183.880815,51.0962781 184.363811,51.3092342 C182.902822,52.8265468 181.684832,54.669209 180.59884,56.7248274 C178.738854,60.2859275 177.238865,64.4237837 175.945875,68.1209391 C174.670884,71.7973904 173.551893,75.1159571 172.768898,76.5741151 L172.5679,76.9379152 C171.904905,78.1062163 172.318902,79.5880362 173.500893,80.2476087 C174.688884,80.9042235 176.191873,80.4960576 176.863868,79.3277565 L177.148866,78.8042393 C178.273857,76.6332696 179.314849,73.3738575 180.60184,69.7033216 C181.87083,66.062363 183.334819,62.0901393 184.975807,58.9549515 C185.986799,57.0146844 187.087791,55.3997669 188.107783,54.4237179 C189.160775,53.4269648 189.92577,53.145981 190.618765,53.1666851 C190.786763,53.1726005 190.939762,53.1164038 191.101761,53.0897842 C192.082754,53.2021778 193.135746,53.284994 194.305737,53.3234445 C197.023716,53.3737258 199.102701,53.5038656 199.567697,53.6842868 L199.570697,53.6990754 C199.624697,54.0244251 199.537698,55.0389246 199.060701,56.5976453 L199.063701,56.5917298 L198.271707,58.499462 C196.621719,61.7233815 193.156745,64.7373025 190.429766,68.2392481 C188.080784,71.3093659 186.064799,74.5924399 184.309812,77.9317106 C181.93983,82.4659019 180.073844,87.1006559 178.555855,91.5135806 C173.83689,90.3630258 167.962934,89.9933103 162.127978,89.8040159 C154.205038,89.5821866 146.486096,89.8809167 143.366119,89.7981005 L143.339119,90.833304 C143.336119,90.833304 143.336119,90.833304 143.333119,90.8303462 L143.360119,89.8010582 C139.628147,89.7152842 132.083204,89.9075363 124.979257,90.7534454 C122.852273,91.0078097 120.791288,91.3272439 118.853303,91.7147058 C117.599312,83.8796941 112.802348,76.8728453 106.844393,70.439795 C101.669432,64.8704001 95.5854773,59.7091712 89.8705202,54.8762497 L89.8705202,54.8762497 Z M118.001309,96.8670615 C118.622305,96.7132599 119.2883,96.5742468 119.975294,96.4381915 C119.951295,96.4795996 119.936295,96.5210078 119.915295,96.5653736 C119.2163,97.8963496 118.388306,99.1622556 117.737311,100.073235 C117.584312,100.286191 117.446313,100.475485 117.320314,100.644075 C115.907325,100.413373 114.746334,100.10577 114.011339,99.7005614 L113.039346,98.8487368 L113.060346,98.825075 C113.576342,98.3074733 115.493328,97.4467755 118.001309,96.8670615 L118.001309,96.8670615 Z M115.394329,105.231506 C116.822318,105.545025 118.373306,105.734319 120.008294,105.843755 C119.621297,106.713326 119.2373,107.56515 118.916302,108.277962 C118.250307,108.065006 117.635312,107.837261 117.146316,107.579939 C116.027324,107.009098 115.571327,106.450088 115.442328,106.089246 C115.373329,105.894036 115.325329,105.630799 115.394329,105.231506 L115.394329,105.231506 Z M251.593307,246.9834 C250.579315,256.001502 248.167333,263.768486 244.660359,270.470689 C235.822425,287.341548 219.892545,297.690626 201.040686,303.514385 C182.209828,309.320398 160.58299,310.485741 141.008137,308.99209 C125.252255,307.79717 110.603365,303.875227 98.0004592,297.459923 C69.6146721,282.934539 51.4468084,256.075445 53.6697917,217.988829 C54.5427852,202.999082 57.7947608,187.648493 64.6857091,174.498451 C69.3056744,165.690348 75.5306277,157.86421 83.7985657,151.682566 L83.8015657,151.679608 C94.2654872,143.735161 110.522365,136.331977 117.743311,122.75898 C119.1833,120.014212 120.194293,116.997333 120.692289,113.729048 C124.53826,114.483267 128.918227,114.693266 133.136196,114.761294 C139.622147,114.829321 145.721101,114.403409 147.467088,114.427071 C149.159075,114.444817 157.160015,114.716928 165.169955,114.166791 C169.192925,113.891723 173.227895,113.415529 176.629869,112.554831 C177.619862,112.282721 178.570855,111.992864 179.467848,111.658641 C192.60775,131.862855 213.592592,141.484333 229.432473,157.976603 C245.383354,174.569436 257.020266,197.882219 251.593307,246.9834 Z M186.739794,212.836473 C183.838815,211.360569 180.475841,210.212972 176.59687,209.449879 C172.777898,208.731152 169.300924,208.896785 166.174948,208.266789 C164.809958,208.009467 163.960964,207.737357 163.600967,207.545105 L163.22897,207.01863 C163.102971,206.430043 163.102971,205.031039 163.009972,203.046406 L163.009972,203.037533 C162.601975,195.811812 162.253977,183.339089 162.532975,175.986186 L162.697974,175.909286 C163.519968,175.569147 165.90495,175.557316 168.163933,175.980271 C170.425916,176.355902 172.732899,177.098291 173.659892,177.5804 L173.89689,177.713497 C177.397864,179.937706 178.228857,181.667975 178.882853,184.152463 C179.503848,186.65174 179.467848,190.026504 180.60484,194.105205 C180.898837,195.146324 181.84683,195.870967 182.941822,195.888713 C188.134783,195.938994 193.315744,194.309288 197.653712,193.809433 C198.775703,193.676335 199.663697,192.803807 199.801696,191.69466 C201.295684,179.186444 193.135746,166.027529 180.286842,159.44955 C175.759876,157.139567 170.593915,155.737606 165.070956,155.441833 C165.553953,152.250449 165.316954,148.917094 165.298954,146.302465 C165.280955,145.066137 164.314962,144.033891 163.063971,143.921497 C159.023002,143.557697 154.487036,143.170235 150.206068,143.986567 C149.255075,144.164031 148.51108,144.870927 148.280082,145.799652 C147.365089,149.582582 147.25709,153.374384 147.146091,157.00647 C144.692109,157.074497 140.693139,157.388016 136.187173,158.56519 C128.897227,160.455176 120.104293,164.735003 115.16333,174.146482 C112.60135,179.038558 111.149361,185.223159 111.407359,192.910285 L111.407359,192.904369 C111.611357,199.526714 114.143338,205.072447 117.89631,209.485372 C121.646282,213.910127 126.563245,217.261229 131.705206,219.88473 C136.694169,222.4195 141.89013,224.241458 146.549095,225.628631 C146.702094,229.562404 147.143091,235.696724 147.326089,241.686116 C147.440088,245.167358 147.458088,248.580571 147.29009,251.369705 C147.155091,254.064192 146.714094,256.241077 146.360096,256.888819 C143.603117,257.669658 141.557133,257.376844 139.655147,256.433329 C136.481171,254.865736 133.739191,250.929005 131.849205,246.64622 C129.93522,242.390055 128.816228,237.944595 128.261232,235.605035 C128.021234,234.590536 127.154241,233.842231 126.104248,233.738711 C120.368291,233.206321 114.908332,234.138004 110.267367,233.611529 L108.455381,234.135046 L107.549388,235.770668 C106.673394,244.901162 111.602357,256.480653 117.008317,263.641304 C120.61429,268.317466 125.030256,271.650821 129.614222,273.97855 C134.759183,276.596136 140.075144,277.93007 144.857108,278.622177 C144.890108,282.159615 144.908107,284.718047 144.959107,288.622243 C144.974107,289.867445 145.9371,290.899691 147.19409,291.012084 C151.760056,291.429123 156.56302,291.624333 161.173985,291.585883 L162.946972,290.816874 L163.612967,289.021536 C163.465968,286.400992 163.495968,282.310459 163.594967,278.91795 C177.346864,278.205138 192.196753,272.620955 198.766703,260.278371 C200.308692,257.335435 201.331684,254.022784 201.706681,250.396614 C202.399676,243.632299 202.513675,236.338551 200.53969,229.600855 C198.592705,222.87499 194.344737,216.6756 186.739794,212.836473 Z M196.807718,249.905632 C196.49272,252.946173 195.646727,255.640659 194.383736,258.045289 C188.932777,268.672393 174.442886,274.058409 161.191985,274.141225 C159.880995,274.150098 158.807003,275.179386 158.753004,276.471912 C158.630004,279.400059 158.543005,283.378198 158.603005,286.684934 C155.681027,286.655356 152.753049,286.53409 149.85807,286.318176 C149.819071,282.952286 149.801071,280.408643 149.759071,276.495573 C149.750071,275.26516 148.808078,274.23883 147.569087,274.105732 C142.712124,273.58813 137.087166,272.319267 131.873205,269.660273 C127.838235,267.607612 124.043264,264.735662 120.932287,260.707241 C116.633319,255.220663 112.56535,245.498623 112.385351,238.562759 C116.414321,238.684026 120.299292,238.352761 123.908265,238.506563 C124.57726,241.115275 125.657252,244.847923 127.343239,248.613106 C129.482223,253.327719 132.5062,258.21388 137.393164,260.751607 C140.435141,262.331032 144.233112,262.742155 148.238082,261.428926 C149.567072,260.982309 150.266067,260.026964 150.713064,259.186971 C151.715056,257.181634 151.994054,254.711934 152.210053,251.653647 C152.747049,242.62963 151.472058,228.8141 151.424059,223.785969 C151.409059,222.71823 150.680064,221.774716 149.636072,221.478944 C144.761108,220.100644 139.148151,218.204743 133.964189,215.566453 C129.209225,213.147034 124.838258,210.109452 121.679282,206.370888 C118.520305,202.620494 116.51932,198.240104 116.333322,192.753525 L116.333322,192.74761 C116.102323,185.737803 117.416314,180.446435 119.546298,176.379564 C123.605267,168.615537 130.892213,164.977537 137.447163,163.259099 C140.705139,162.407274 143.732116,162.052347 145.9191,161.922207 C147.014092,161.85418 147.899085,161.842349 148.50508,161.845307 L149.387074,161.866011 L151.18706,161.241931 L151.994054,159.535324 C152.138053,155.672536 152.174053,151.942846 152.777048,148.550336 C155.129031,148.298929 157.760011,148.369915 160.420991,148.579913 C160.480991,151.67665 160.438991,154.986344 159.673997,156.926611 L159.985994,159.183355 L162.058979,160.191939 C167.923935,160.014475 173.332894,161.375028 178.024859,163.76487 C188.623779,169.118351 195.370729,179.801651 195.052731,189.310734 C191.503758,189.896364 188.017784,190.677203 184.924807,190.910863 C184.411811,188.281446 184.297812,185.743719 183.679817,183.049232 C182.950822,179.704046 180.937837,176.240551 176.50087,173.593387 L175.921875,173.26508 C173.84889,172.235792 170.569915,171.324813 167.23094,170.940309 C165.559952,170.75693 163.912965,170.712564 162.349977,170.99059 C160.846988,171.277489 159.104001,171.901569 158.111008,173.705781 L157.616012,175.601682 L157.613012,175.610555 C157.316014,183.256273 157.676012,195.862094 158.087009,203.306686 L158.093008,203.297813 C158.189008,205.116813 158.126008,206.45962 158.390006,207.923693 C158.570005,209.381851 159.730996,211.150571 161.341984,211.860424 C162.445976,212.419434 163.660967,212.727038 165.223955,213.037599 C169.117926,213.771114 172.6129,213.611397 175.639877,214.217731 C179.125851,214.900965 182.041829,215.909549 184.477811,217.151793 C190.822763,220.408248 194.083739,225.179057 195.808726,230.955492 C197.509713,236.711224 197.473713,243.44892 196.807718,249.905632 Z M148.256082,170.748057 C144.932107,170.801296 140.903137,171.05566 137.096166,172.200299 C133.313194,173.333108 129.572222,175.465627 127.514238,179.393485 C126.224248,181.845438 125.693251,184.868232 126.050249,188.39384 L126.056249,188.402713 C126.842243,195.308999 132.251202,200.6891 138.365156,203.830203 C142.016129,205.681738 146.006099,206.773139 149.807071,206.743561 L151.547058,206.010046 L152.246052,204.273862 C152.246052,204.241327 151.970054,185.246821 150.749064,172.93973 C150.620065,171.682698 149.534073,170.724395 148.256082,170.748057 Z M130.952212,187.902858 L130.955212,187.908773 C130.676214,185.10485 131.105211,183.123175 131.891205,181.623609 C133.118196,179.272218 135.452178,177.784483 138.536155,176.846884 C140.873138,176.13703 143.537118,175.811681 146.051099,175.678583 C146.525095,181.256851 146.837093,187.902858 147.032091,193.374648 C147.149091,196.784904 147.22409,199.70122 147.26609,201.682895 C145.106106,201.354588 142.796123,200.621072 140.627139,199.511925 C135.452178,196.90617 131.363209,192.377894 130.952212,187.902858 L130.952212,187.902858 Z M177.751861,225.258915 C172.813898,222.753723 167.086941,221.614999 161.92698,221.384297 L160.114993,222.058658 L159.355999,223.809631 C159.355999,223.812588 159.319999,252.079559 159.427998,262.295539 C159.439998,263.564403 160.459991,264.617353 161.746981,264.691296 C166.510945,264.942702 171.514908,263.404686 175.957874,260.813719 C180.388841,258.205006 184.285812,254.519682 186.601795,250.118588 C187.681787,248.054097 188.410781,245.812142 188.61178,243.475539 L188.61478,243.481455 C189.007777,239.109938 187.957784,235.276728 185.9268,232.224356 C183.901815,229.169027 180.982837,226.906368 177.751861,225.258915 L177.751861,225.258915 Z M183.703816,243.067373 C183.562817,244.673418 183.055821,246.300166 182.221828,247.888464 C180.463841,251.269143 177.196865,254.445739 173.437893,256.637412 C170.485916,258.376554 167.25794,259.459081 164.332962,259.751896 C164.269962,250.464642 164.275962,233.082096 164.278962,226.465667 C168.142933,226.885664 172.168903,227.876501 175.489878,229.577193 C178.168858,230.934788 180.364841,232.709423 181.801831,234.880393 C183.22982,237.060235 183.991814,239.648244 183.700816,243.061458 L183.703816,243.067373 L183.703816,243.067373 Z" id="Fill-1"></path>
                    </g>
                </g>
            </g>
        </g>
    </g>
</svg>