<?xml version="1.0" encoding="UTF-8" standalone="no"?>
<svg width="288px" height="267px" viewBox="0 0 288 267" version="1.1" xmlns="http://www.w3.org/2000/svg" xmlns:xlink="http://www.w3.org/1999/xlink" xmlns:sketch="http://www.bohemiancoding.com/sketch/ns">
    <!-- Generator: Sketch 3.1 (8751) - http://www.bohemiancoding.com/sketch -->
    <title>Fill 1</title>
    <desc>Created with Sketch.</desc>
    <defs></defs>
    <g id="How-to-crowdfund" stroke="none" stroke-width="1" fill="none" fill-rule="evenodd" sketch:type="MSPage">
        <g sketch:type="MSArtboardGroup" transform="translate(-137.000000, -490.000000)" id="Rules" fill="#D8D8D8">
            <g sketch:type="MSLayerGroup" transform="translate(-14.000000, 359.000000)">
                <g transform="translate(86.000000, 102.000000)" id="Illustration" sketch:type="MSShapeGroup">
                    <g transform="translate(65.000000, 0.000000)">
                        <path d="M287.345398,195.734659 L287.345398,195.728743 C286.92406,158.325362 273.593627,123.489285 251.322451,97.9286317 C229.069204,72.3650206 197.737756,56.0738752 161.669986,56.0857061 C149.672297,56.0857061 137.157647,57.8869602 124.299353,61.7201708 C94.7608345,70.4986966 73.9718138,88.2213805 60.7429802,109.694459 C47.4932291,131.173453 41.6990777,156.337771 41.6931013,180.327873 C41.7199953,209.559062 50.2423881,237.107306 65.0609528,254.415909 C88.8142841,281.987814 129.038664,295.968977 168.74907,295.998554 C198.410105,295.983766 227.906788,288.163543 250.189917,271.830989 C272.479022,255.536886 287.390222,230.476088 287.351375,197.04493 L287.345398,195.734659 L287.345398,195.734659 Z M246.630951,267.077926 C225.677579,282.466966 197.358253,290.086064 168.74907,290.083106 C130.410255,290.10381 91.7397479,276.3918 69.6120062,250.57974 C56.0514806,234.844647 47.6456282,208.414423 47.6695339,180.327873 C47.6695339,157.272412 53.2724395,133.137382 65.8438654,112.779365 C78.424256,92.421349 97.8775441,75.7782344 126.026542,67.3812551 C138.346957,63.7107193 150.272929,62.0011547 161.669986,62.0011547 C195.882074,62.0129856 225.486333,77.3576592 246.80128,101.785504 C268.089333,126.216307 280.965557,159.739154 281.368966,195.799729 L281.368966,195.793813 L281.374942,197.04493 C281.333107,228.7192 267.578348,251.65931 246.630951,267.077926 Z M162.515651,75.9882328 C152.490185,75.9882328 142.043381,77.4907568 131.315685,80.6910145 C106.638994,88.0261707 89.2356226,102.862116 78.1792223,120.809587 C67.1048927,138.762973 62.2639823,159.774647 62.2580059,179.795482 C62.287888,204.187835 69.3789253,227.178226 81.8128933,241.694736 C101.702461,264.756113 135.272083,276.403631 168.405425,276.424335 C193.156821,276.41842 217.776735,269.896638 236.417228,256.24674 C255.063698,242.62642 267.560418,221.620662 267.512607,193.684956 L267.512607,192.581725 C267.151033,161.36886 256.025903,132.300346 237.427245,110.948534 C218.843528,89.5967223 192.6548,75.9764019 162.515651,75.9882328 Z M261.536174,193.684956 C261.500316,219.866731 250.160035,238.748843 232.855274,251.493677 C215.544537,264.203018 192.107957,270.520717 168.405425,270.508887 C136.649651,270.532548 104.61896,259.163056 86.3639467,237.858568 C75.1880178,224.912609 68.2135209,203.043195 68.2404149,179.795482 C68.2344385,160.703372 72.8811148,140.726902 83.2771193,123.894493 C93.6880649,107.056169 109.755704,93.3057086 133.042874,86.3520988 C143.238668,83.3115582 153.096793,81.9036814 162.515651,81.9036814 C190.799118,81.9155123 215.260657,94.5893609 232.903086,114.808364 C250.521609,135.027367 261.198506,162.788568 261.536174,192.649752 L261.536174,193.684956 Z M168.076721,113.598655 C169.723229,113.749499 171.17849,112.554578 171.327901,110.924872 C171.913591,104.645624 172.496293,98.3782058 173.067043,92.0989571 C173.213465,90.469251 172.006226,89.0377124 170.359719,88.8868685 C168.7162,88.74194 167.266915,89.9368606 167.114516,91.5665667 C166.543766,97.8339845 165.961064,104.10436 165.375374,110.380651 C165.225963,112.010357 166.433202,113.447811 168.076721,113.598655 Z M159.16586,230.153696 C157.579118,229.712995 155.93261,230.632848 155.484378,232.203399 C154.976381,234.057892 154.767206,236.53055 154.596878,239.511936 C154.438502,242.463745 154.378738,245.791185 154.378738,248.828767 C154.378738,252.416487 154.456432,255.554632 154.572972,257.276028 C154.683536,258.905734 156.114892,260.136147 157.761399,260.023754 C159.404918,259.914318 160.651004,258.500526 160.537452,256.87082 C160.438841,255.439281 160.35517,252.312967 160.35517,248.828767 C160.35517,245.865128 160.414935,242.620504 160.567334,239.822497 C160.701804,237.057025 160.988672,234.610987 161.239683,233.797613 C161.681939,232.227061 160.752603,230.597355 159.16586,230.153696 Z M223.529051,183.430526 C223.027031,184.983331 223.890625,186.651487 225.462427,187.151343 C231.525518,189.085694 237.594585,191.0023 243.675605,192.927778 C245.247407,193.424676 246.932761,192.563978 247.434782,191.008215 C247.936802,189.45541 247.067231,187.787253 245.498417,187.287398 C239.417397,185.364877 233.345342,183.448272 227.294204,181.522793 C225.72539,181.01998 224.037048,181.874763 223.529051,183.430526 Z M109.800527,163.678843 C108.297454,163.146452 106.295349,162.782652 103.73146,162.374486 C96.1055319,161.20027 84.5590641,160.182813 81.0060749,160.114785 C79.3595677,160.085208 77.9939529,161.392522 77.9700472,163.028143 C77.9491296,164.654892 79.2609566,166.000656 80.9134402,166.030234 C82.8139458,166.053895 88.7754373,166.521216 94.5815416,167.163042 C97.4950524,167.479518 100.405575,167.843319 102.805113,168.21895 C105.174768,168.576834 107.158944,169.005704 107.747623,169.236407 C109.295519,169.795417 111.010755,169.01162 111.581504,167.473603 C112.149265,165.94446 111.3544,164.246726 109.800527,163.678843 Z M208.109855,124.586601 L212.648956,119.179881 C213.700808,117.925806 213.527491,116.062439 212.260488,115.015405 C210.993484,113.977244 209.107919,114.142876 208.053079,115.402867 L203.51099,120.809587 C202.459138,122.063662 202.629466,123.929986 203.89647,124.974063 C205.16945,126.015182 207.055015,125.846591 208.109855,124.586601 Z M223.3139,149.676976 C221.661416,149.623737 220.283848,150.901474 220.227072,152.534138 C220.173284,154.169759 221.464194,155.536228 223.113689,155.592425 L231.226696,155.85862 C232.87918,155.908901 234.256748,154.634122 234.313524,152.9985 C234.367312,151.362879 233.079391,149.999368 231.426907,149.943171 L223.3139,149.676976 Z M224.114742,213.220725 C222.847738,212.17369 220.962173,212.342281 219.907333,213.596356 C218.849504,214.850431 219.019833,216.716755 220.283848,217.760831 L225.737343,222.262488 C227.001359,223.306564 228.886923,223.140932 229.944752,221.886857 C230.999592,220.632782 230.829264,218.766458 229.565248,217.722381 L224.114742,213.220725 Z M192.027275,229.760319 C190.380768,229.70708 188.994235,230.990732 188.943436,232.626354 L188.686449,240.656575 C188.63565,242.283324 189.929547,243.65275 191.582031,243.705989 C193.22555,243.75627 194.612082,242.475576 194.662882,240.839954 L194.919868,232.809733 C194.964692,231.180027 193.67677,229.813558 192.027275,229.760319 Z M121.269301,226.237669 L116.694342,231.647347 C115.639502,232.901422 115.803854,234.767746 117.067869,235.820696 C118.334873,236.864773 120.220437,236.69914 121.275278,235.45098 L125.853225,230.038345 C126.914042,228.78427 126.743714,226.917946 125.479698,225.867954 C124.218671,224.820919 122.333106,224.98951 121.269301,226.237669 Z M103.749389,195.465506 L95.624429,195.190437 C93.9749336,195.140156 92.5973659,196.414935 92.5376016,198.050557 C92.4808255,199.680263 93.7747232,201.049689 95.4212303,201.105886 L103.54619,201.377997 C105.198674,201.431236 106.57923,200.153499 106.638994,198.520835 C106.692782,196.891129 105.401873,195.521702 103.749389,195.465506 Z M106.731629,129.283467 C105.461637,128.236433 103.579061,128.405023 102.518244,129.659098 C101.46938,130.913173 101.63672,132.779497 102.903724,133.823574 L108.366183,138.331146 C109.633187,139.375222 111.518752,139.20959 112.573592,137.955515 C113.63142,136.701439 113.461092,134.835115 112.194088,133.791039 L106.731629,129.283467 Z M138.033195,107.493912 C137.549104,105.935191 135.878691,105.056747 134.303901,105.535899 C132.726123,106.009134 131.841611,107.668418 132.319725,109.227138 L134.701334,116.911306 C135.185425,118.470027 136.858826,119.348471 138.436604,118.86932 C140.011394,118.396084 140.898894,116.7368 140.414803,115.17808 L138.033195,107.493912 Z M173.760309,169.617953 C173.225418,167.961628 172.260224,166.435442 170.942421,165.219817 C181.138215,146.958827 197.911073,111.262053 193.00741,108.937281 C188.079841,106.597722 167.395408,149.327964 162.151088,162.782652 C159.679834,163.270677 157.644858,164.654892 156.330043,166.320091 C154.665607,168.417117 153.807989,170.860197 153.784083,173.261869 L154.088881,175.474247 L154.094857,175.480163 C154.835935,177.920285 156.521289,179.757032 158.478571,181.049558 C160.450793,182.339125 162.766661,183.128838 165.196081,183.140669 C168.259003,183.238273 171.791074,181.502089 173.243347,177.970567 L173.249324,177.964651 C173.267253,177.923243 173.27323,177.881835 173.288171,177.840427 C187.670456,179.552949 215.953923,180.283507 216.817517,175.284953 C217.657206,170.268652 183.881397,168.940634 173.760309,169.617953 Z M167.756982,175.636922 C167.126469,176.902828 166.555719,177.133531 165.196081,177.22522 L161.786526,176.127904 L159.826256,173.806091 L159.826256,173.812006 L159.760515,173.261869 L161.000625,170.01133 C161.828361,169.023451 162.727814,168.485145 163.997806,168.473314 L164.547638,168.508806 C167.09061,168.878522 168.184297,170.525974 168.300838,173.042998 L167.751006,175.642837 L167.756982,175.636922 Z M31.2343443,95.3051302 C27.182323,93.3234549 21.352313,90.6762917 16.2095927,88.0971561 C13.6427149,86.8135038 11.2431772,85.5416823 9.38749492,84.4207048 C7.53778903,83.33522 6.17815061,82.2379043 5.99586942,81.9480473 C4.96792301,80.6673527 3.09132318,80.4484811 1.79443731,81.4629805 C0.503527866,82.4745222 0.28239986,84.3349308 1.30436983,85.6126677 C2.54149138,87.1033607 4.1760457,88.1770147 6.27676175,89.4724979 C12.4862752,93.2140191 22.6880457,97.7097601 28.5718435,100.60833 C30.0539988,101.330015 31.8469286,100.735512 32.5760534,99.2743962 C33.3111546,97.807365 32.7105231,96.0327304 31.2343443,95.3051302 Z M44.7380937,80.4928469 C45.8646513,79.2979263 45.8018987,77.4256869 44.5916711,76.3106248 C37.8353141,70.1053192 30.7084182,63.6781843 27.0359004,56.9582347 C26.2499995,55.5266962 24.433164,54.9943058 22.9868673,55.7810605 C21.5345942,56.558942 21.0026917,58.3572383 21.7975572,59.7887769 L21.7915808,59.7887769 C26.2440231,67.8130829 33.8311042,74.4502162 40.5187323,80.6436909 C41.7259717,81.7528375 43.6175126,81.6907253 44.7380937,80.4928469 Z M55.821388,33.6040437 C57.3633076,38.0051375 64.0210535,51.4479944 67.7324181,58.3513229 C68.5153308,59.7946923 70.3261899,60.3389136 71.778463,59.5699053 C73.2367125,58.7949815 73.7865443,57.0055583 73.0096081,55.5651466 C69.4566189,49.0197027 62.6285447,35.0947367 61.4780814,31.6963115 C60.9461789,30.1494217 59.2488721,29.3212589 57.6890231,29.8536493 C56.126186,30.3801242 55.2894855,32.0601116 55.8273644,33.6040437 L55.821388,33.6040437 Z" id="Fill-1"></path>
                    </g>
                </g>
            </g>
        </g>
    </g>
</svg>