<?xml version="1.0" encoding="UTF-8" standalone="no"?>
<svg width="253px" height="188px" viewBox="0 0 253 188" version="1.1" xmlns="http://www.w3.org/2000/svg" xmlns:xlink="http://www.w3.org/1999/xlink" xmlns:sketch="http://www.bohemiancoding.com/sketch/ns">
    <!-- Generator: Sketch 3.1 (8751) - http://www.bohemiancoding.com/sketch -->
    <title>Fill 1</title>
    <desc>Created with Sketch.</desc>
    <defs></defs>
    <g id="How-to-crowdfund" stroke="none" stroke-width="1" fill="none" fill-rule="evenodd" sketch:type="MSPage">
        <g sketch:type="MSArtboardGroup" transform="translate(-161.000000, -544.000000)" id="Rules" fill="#D8D8D8">
            <g sketch:type="MSLayerGroup" transform="translate(-14.000000, 359.000000)">
                <g transform="translate(86.000000, 102.000000)" id="Illustration" sketch:type="MSShapeGroup">
                    <g transform="translate(65.000000, 0.000000)">
                        <path d="M102.951451,163.196323 C99.8975623,161.349423 96.386229,160.195743 93.0001179,159.882023 C93.1917846,153.890983 93.2531179,147.877173 93.2531179,141.865893 C93.2531179,134.334083 93.1738957,126.819983 93.1738957,119.389373 L93.1866735,115.991583 C93.189229,115.710753 93.1483401,115.440043 93.0844512,115.179453 C93.1023401,115.017533 93.1304512,114.865733 93.1330068,114.696223 C93.0767846,112.629213 92.0085623,111.225063 90.8841179,110.127043 C89.7213401,109.008783 88.2544512,108.032203 86.3377846,106.982253 C79.1464512,103.063283 71.1194512,101.631303 63.9153401,101.631303 C58.1346735,101.638893 52.8881179,102.539573 48.8068957,104.039863 C46.7650068,104.798863 45.0118957,105.694483 43.5450068,106.886113 C42.1496735,108.052443 40.7798957,109.747543 40.7390068,112.153573 L40.8310068,112.449583 C40.4221179,120.745453 39.9851179,130.394873 39.9851179,139.629373 C39.9927846,145.840523 40.1793401,151.813853 40.7108957,157.147093 C37.4730068,157.344433 34.0920068,158.040183 31.0943401,159.378553 C29.3284512,160.172973 27.6980068,161.182443 26.3410068,162.611893 C25.0146735,164.023633 23.9873401,166.037513 24.0001179,168.289213 C24.0410068,171.636403 25.9730068,174.545903 29.1367846,177.278303 C33.642229,181.083423 40.4374512,183.327533 48.3264512,184.939143 C52.0141179,185.672843 55.9394512,186.209203 59.931229,186.593763 C59.977229,204.445443 61.1195623,246.777403 61.1195623,246.795113 L61.3521179,247.941203 C61.3955623,248.029753 67.0791179,262.853023 70.0384512,268.277343 C70.6390068,269.375363 71.8043401,270.066053 73.064229,270.086293 C74.3241179,270.106533 75.502229,269.443673 76.146229,268.365893 C78.584229,264.153443 79.5170068,258.764543 80.0920068,254.220663 C80.6261179,249.704613 80.654229,246.124663 80.654229,246.036113 L80.6388957,245.800823 C80.6388957,245.800823 79.7776735,232.110993 78.6941179,217.593853 C78.1600068,210.337813 77.572229,202.874313 77.0227846,196.792193 C76.6547846,192.865633 76.3327846,189.632293 76.0158957,187.226263 C81.4541179,187.132653 86.6495623,186.737973 91.1728957,185.996683 C96.363229,185.123833 100.651451,183.944853 103.840785,181.834833 L103.840785,181.827243 C107.36234,179.481933 109.580562,176.357383 109.580562,172.865983 C109.457896,168.253793 106.237896,165.250683 102.951451,163.196323 L102.951451,163.196323 Z M48.914229,164.304463 C47.5188957,158.366553 46.9847846,149.283853 46.9975623,139.629373 C46.9975623,132.775603 47.2428957,125.625823 47.5470068,118.964333 C53.8387846,120.955443 64.0916735,122.040813 73.2686735,122.061053 C77.8584512,122.061053 82.103229,121.782753 85.5021179,121.071823 C85.737229,121.021223 85.9391179,120.947853 86.1665623,120.894723 C86.1767846,127.882583 86.2560068,134.888153 86.2560068,141.865893 C86.2560068,149.855633 86.1180068,157.787183 85.7244512,165.609943 C80.171229,167.666833 74.0021179,168.810393 67.981229,168.810393 C60.8870068,168.817983 54.0968957,167.267093 48.914229,164.304463 L48.914229,164.304463 Z M52.4766735,110.134633 C55.4768957,109.203593 59.5300068,108.568563 63.9153401,108.573623 C70.1738957,108.568563 77.1045623,109.856333 82.9414512,113.056783 C83.6544512,113.443873 84.2345623,113.800603 84.7175623,114.124443 C82.2821179,114.711403 77.9121179,115.169333 73.2686735,115.118733 C67.4777846,115.123793 60.9687846,114.610203 55.8193401,113.747473 C53.2433401,113.327493 50.9970068,112.806313 49.4355623,112.282603 L48.5155623,111.898043 C49.3333401,111.359153 50.6954512,110.635573 52.4766735,110.134633 L52.4766735,110.134633 Z M68.1166735,246.025993 C67.9837846,240.986233 67.0075623,203.830653 66.946229,187.102293 C67.6106735,187.132653 68.2674512,187.137713 68.9293401,187.157953 C69.2334512,189.260383 69.6423401,193.025023 70.0384512,197.417103 C71.6101179,214.676763 73.4654512,243.483343 73.639229,246.033583 C73.639229,246.122133 73.6341179,246.860893 73.570229,248.125893 C73.501229,250.213143 73.1817846,253.671653 72.5658957,257.034023 C72.0675623,255.855043 71.5717846,254.660883 71.1041179,253.514793 C69.7394512,250.165073 68.579229,247.204973 68.1166735,246.025993 L68.1166735,246.025993 Z M99.8694512,176.106913 L99.8694512,176.099323 C98.3488957,177.177103 94.6791179,178.411743 90.0228957,179.150503 C85.3513401,179.917093 79.6396735,180.321893 73.6545623,180.321893 C65.5866735,180.321893 57.0127846,179.590723 49.7115623,178.133443 C42.4231179,176.721703 36.3843401,174.399163 33.7393401,172.043733 C31.3141179,169.956483 30.9716735,168.607993 31.0125623,168.289213 L31.5057846,167.317693 C32.7068957,165.771863 37.6953401,164.112183 41.6845623,164.021103 C41.9171179,165.222853 42.1675623,166.384123 42.4640068,167.461903 L43.9436735,169.460603 C50.7516735,173.807143 59.2974512,175.745123 67.981229,175.752713 C75.6811179,175.745123 83.529229,174.222063 90.5288957,171.244253 C91.7478957,170.728133 92.568229,169.569393 92.6397846,168.253793 C92.6653401,167.775623 92.6806735,167.292393 92.706229,166.811693 C94.7557846,167.057103 97.3215623,167.889473 99.2688957,169.101343 C101.678785,170.533323 102.690785,172.273963 102.568118,172.865983 C102.568118,173.298613 102.376451,174.363743 99.8694512,176.106913 L99.8694512,176.106913 Z M276.197673,120.188853 C276.156785,117.932093 275.443785,115.675333 274.143007,112.730413 L274.143007,112.725353 C270.005562,103.543983 262.939451,96.3031225 255.776229,91.2709525 C248.528673,86.2691425 241.434451,83.3444625 235.832673,83.2660325 C234.133229,83.2786825 232.433785,83.5367425 230.846785,84.5462125 C229.985562,85.0673925 229.277673,85.8871125 228.77934,86.8181525 C218.242785,99.2809325 205.199229,114.880913 197.172229,127.966073 C192.861007,124.990793 187.466229,122.696083 182.27334,122.602473 C179.807229,122.597413 177.164785,123.212203 175.09734,125.104643 C173.02734,127.009733 172.040896,129.878753 172.069007,133.023543 C172.069007,134.440343 172.247896,135.960873 172.59034,137.615493 L172.59034,137.607903 C173.824673,143.249803 177.509785,149.066273 182.465007,155.087673 C185.968673,159.307713 190.152118,163.575823 194.64734,167.661773 C182.212007,183.909433 152.823118,224.417263 152.81034,224.434973 L152.289007,225.487453 C152.278785,225.588653 147.029673,243.250583 145.93334,250.220733 L147.236673,253.474313 L150.742896,253.949953 C155.810562,251.814633 160.482118,247.528813 164.19534,243.751523 C167.865118,239.981823 170.413007,236.700413 170.466673,236.634633 L170.604673,236.437293 C170.604673,236.429703 179.492896,223.195273 188.779785,209.044983 C193.423229,201.973633 198.161229,194.677113 201.956229,188.683543 C204.585896,184.514103 206.684007,181.116313 208.089562,178.636913 C208.917562,179.241583 209.745562,179.856373 210.573562,180.438273 C220.875007,187.557693 230.420007,192.739133 237.81834,193.219833 L238.953007,193.247663 C242.62534,193.260313 245.761007,192.324213 247.981785,190.257203 C250.200007,188.195253 251.035673,185.333823 251.007562,182.730453 C250.864451,176.372563 247.141007,170.027323 242.561451,165.999563 C253.468562,152.699353 263.731673,138.688213 274.143007,125.246323 C274.293785,125.051513 274.355118,124.821283 274.45734,124.606233 C274.493118,124.575873 274.534007,124.555633 274.567229,124.522743 C275.827118,123.255213 276.210451,121.593003 276.197673,120.188853 L276.197673,120.188853 Z M232.766007,166.915423 C217.989785,162.677673 203.837118,151.586153 198.871673,139.454803 C203.941896,128.102693 218.138007,110.268723 230.379118,95.7364025 C234.013118,101.143013 241.171229,108.072683 248.707562,114.182633 C252.638007,117.355253 256.637451,120.236923 260.268896,122.387423 C262.139562,123.452553 263.836451,124.373473 265.48734,125.038863 C254.65434,139.171443 244.048785,153.625333 232.766007,166.915423 L232.766007,166.915423 Z M251.720562,96.9406825 C258.076229,101.388423 264.296451,107.842453 267.733673,115.546303 L267.733673,115.538713 C268.375118,116.947923 268.748229,118.068713 268.96034,118.896023 C267.473007,118.384963 265.02734,117.254053 262.459007,115.564013 C256.67834,111.923343 249.515118,106.114463 243.954229,100.690143 C241.161007,97.9830425 238.763896,95.3670225 237.146229,93.2367625 L235.393118,90.5676125 L235.270451,90.2842525 L235.832673,90.2083525 C238.774118,90.1248625 245.446673,92.4651125 251.720562,96.9406825 L251.720562,96.9406825 Z M196.012007,184.999863 C190.382118,193.902933 182.562118,205.816703 176.150229,215.486363 C170.252007,224.407143 165.562562,231.395003 164.867451,232.447483 L163.316229,234.342453 C161.522229,236.515723 158.159118,240.138683 154.686118,243.111433 C155.189562,241.127913 155.744118,239.053313 156.275673,237.107743 C157.420562,232.943363 158.465785,229.330523 158.85934,228.007333 C160.484673,225.760693 167.676007,215.863333 175.973896,204.544113 C184.437896,192.989603 194.039118,179.975283 199.927118,172.261313 C200.773007,172.964653 201.621451,173.662933 202.477562,174.348563 C201.322451,176.440873 198.943229,180.375023 196.012007,184.999863 L196.012007,184.999863 Z M243.995118,182.730453 C243.979785,184.071353 243.668007,184.736743 243.159451,185.212383 C242.666229,185.688023 241.529007,186.297753 238.953007,186.302813 L238.145451,186.290163 C235.421229,186.214263 230.023896,184.223153 224.06434,180.789943 C215.050896,175.671753 204.368673,167.555513 195.725785,159.115433 C187.054785,150.746193 180.507451,141.724213 179.454562,136.198693 L179.454562,136.191103 C179.19134,134.923573 179.084007,133.866033 179.084007,133.023543 C179.109562,131.098213 179.561896,130.496073 179.876229,130.189943 C180.205896,129.878753 180.906118,129.552383 182.27334,129.547323 C185.283785,129.446123 190.348896,131.563733 193.745229,134.025423 C193.027118,135.427043 192.362673,136.800833 191.820896,138.103783 L191.767229,140.583183 C197.793229,156.790363 215.119896,169.698423 233.159562,174.227123 C234.447562,174.545903 235.81734,174.113273 236.681118,173.108863 C237.171785,172.537083 237.639451,171.934943 238.127562,171.360633 C241.135451,173.938703 244.151007,179.532533 243.995118,182.730453 L243.995118,182.730453 Z" id="Fill-1"></path>
                    </g>
                </g>
            </g>
        </g>
    </g>
</svg>