<?xml version="1.0" encoding="UTF-8" standalone="no"?>
<svg width="200px" height="262px" viewBox="0 0 200 262" version="1.1" xmlns="http://www.w3.org/2000/svg" xmlns:xlink="http://www.w3.org/1999/xlink" xmlns:sketch="http://www.bohemiancoding.com/sketch/ns">
    <!-- Generator: Sketch Beta 3.1 (8715) - http://www.bohemiancoding.com/sketch -->
    <title>Fill 1</title>
    <desc>Created with Sketch Beta.</desc>
    <defs></defs>
    <g id="How-to-crowdfund" stroke="none" stroke-width="1" fill="none" fill-rule="evenodd" sketch:type="MSPage">
        <g sketch:type="MSArtboardGroup" transform="translate(-172.000000, -523.000000)" id="Rules" fill="#D8D8D8">
            <g sketch:type="MSLayerGroup" transform="translate(-14.000000, 359.000000)">
                <g transform="translate(87.000000, 123.000000)" id="Illustration" sketch:type="MSShapeGroup">
                    <g transform="translate(65.000000, 0.000000)">
                        <path d="M229.727866,73.8091572 L228.40104,72.1262121 C224.984912,70.6029841 219.878732,69.4494716 213.268616,68.4172258 C202.476895,66.7549847 187.698692,65.5304869 171.314489,64.6342964 C170.708111,63.7085287 169.984661,62.8271269 169.11712,62.0078373 C167.111872,60.111936 158.175306,58.5206803 147.092404,57.5268849 C146.966326,56.9353401 146.852255,56.3408375 146.690154,55.7492926 C145.744565,52.2769243 144.234625,48.8341332 141.746075,46.0775342 C139.275536,43.3179774 135.709315,41.3333444 131.248537,41.0671492 C129.000137,40.919263 126.934851,41.0967265 125.061685,41.584751 C120.910099,42.6554472 117.848192,45.3114836 115.878966,48.5886421 C114.414054,50.9991874 113.471467,53.7380401 112.859085,56.6159059 C103.529275,57.0270295 96.1026501,58.1095566 93.7521863,60.0705278 C92.8786423,60.8010857 92.1491881,61.602629 91.5247992,62.439665 C64.6340528,62.2296666 43.5819425,62.492904 39.961688,62.7117756 C38.881015,62.782761 37.9924616,63.5606425 37.8033439,64.6135924 C37.6112242,65.7286544 37.3980915,68.6656746 37.1009064,73.6671864 C35.0956576,108.349461 30.6438853,233.638663 41.6127162,293.624269 C41.7718152,294.517502 42.444234,295.227356 43.3387911,295.452143 C45.3950716,295.960871 49.1744253,296.407488 54.6378276,296.907343 C73.6396611,298.619865 111.940513,300.503936 147.716793,301.571674 C165.601931,302.107022 182.850673,302.441245 196.731317,302.438287 C210.650986,302.432372 221.022445,302.133642 225.777406,301.284775 C226.738004,301.113227 227.491473,300.36788 227.66258,299.424366 C231.474954,278.33875 233.198027,228.856022 233.408158,181.062156 C233.58827,133.235754 232.270449,87.5684906 229.727866,73.8091572 L229.727866,73.8091572 Z M209.471251,88.1422891 C211.209334,100.863461 211.959801,140.047393 211.461491,180.509061 C210.966182,221.257629 209.216092,263.635902 206.1782,282.390832 C201.570331,282.976462 191.748214,283.28998 179.572632,283.304769 C158.781684,283.343219 130.702197,282.648154 106.786303,281.657317 C94.8298575,281.163377 83.9120583,280.598451 75.4738034,280.018737 C68.7015859,279.563248 63.4393088,279.057477 60.7826544,278.640438 C56.1657792,248.96559 55.5654053,201.121442 56.2918577,159.846399 C56.6610876,138.840641 57.3605232,119.523744 58.032942,105.125542 C58.3631476,97.9353143 58.6933532,91.9636689 58.9635215,87.6365183 C59.113615,85.2200575 59.2547028,83.2827481 59.365772,81.9695185 C64.6580678,81.771351 78.5387121,81.5110712 95.8955211,81.4726208 C111.081979,88.3966534 155.587695,89.7719952 167.138888,82.918948 C171.668709,83.155566 176.045435,83.4247189 180.151992,83.7352799 C187.485559,84.2913321 194.020629,84.9775241 199.282906,85.8027292 C203.707662,86.4889212 207.249868,87.3141263 209.471251,88.1422891 L209.471251,88.1422891 Z M119.901471,50.9666525 C121.432424,48.4821641 123.38364,46.8258384 126.268436,46.0509147 C127.583255,45.7048609 129.120212,45.554017 130.939345,45.6752837 C134.205379,45.9089439 136.42376,47.1748499 138.245895,49.1535675 C140.05302,51.1382005 141.346826,53.9273345 142.160333,56.9382978 C142.178344,57.0033677 142.18735,57.0713954 142.205361,57.1364653 C134.214384,56.5744977 125.544986,56.3201334 117.725116,56.4680196 C118.250443,54.4005704 118.955882,52.5076268 119.901471,50.9666525 L119.901471,50.9666525 Z M228.719238,181.038494 C228.536124,227.439272 226.837066,275.750741 223.324879,296.978328 C217.801439,297.637901 205.72792,297.904096 190.613507,297.800576 C165.373789,297.643816 131.296567,296.567205 102.26849,295.209609 C87.7514493,294.53229 74.4951939,293.783986 64.2468117,293.03864 C55.6794763,292.432306 49.1233935,291.784565 45.9654268,291.261047 C40.0247272,257.492709 38.8059682,202.972977 39.271258,155.959949 C39.502402,132.09703 40.1598114,110.153673 40.8292282,93.8063311 C41.1594339,85.6252657 41.4956433,78.8520771 41.7838227,73.9363393 C41.9489255,71.0348118 42.1110265,68.7337023 42.2341031,67.245967 C48.5650458,67.0625881 66.7053428,66.8851246 89.3424401,67.0448417 C88.5049186,70.4698865 89.1233037,74.0457751 90.7833375,76.8704018 C72.9462293,76.9561758 59.6659589,77.2726523 57.0603363,77.458989 C55.9916707,77.5418052 55.1091211,78.3285599 54.9260071,79.3667211 C54.7609043,80.3664319 54.5657828,82.9426098 54.283607,87.349619 C52.3774199,117.894038 47.7845597,228.202365 56.3879175,280.962251 C56.538011,281.861399 57.2074279,282.591957 58.1049868,282.825618 C59.8850954,283.275192 62.9890284,283.638992 67.50384,284.038285 C83.1886078,285.410669 114.744259,286.797841 144.24363,287.486991 C158.988813,287.827129 173.202665,287.998677 184.651795,287.898115 C196.145953,287.785721 204.671262,287.460372 208.696769,286.667701 C209.639356,286.475449 210.36881,285.738976 210.533913,284.804335 C213.847977,266.197292 215.625083,222.635928 216.147409,180.5623 C216.651723,138.462053 215.895252,98.2872834 213.91702,86.1487829 L212.620212,84.4392183 C209.723408,83.0786651 205.490772,82.1055738 200.021366,81.2389606 C192.495679,80.0647441 182.628535,79.1892577 171.614676,78.5415161 C173.295723,75.8026634 173.866078,72.534378 173.241689,69.3666553 C178.819162,69.6831318 184.207518,70.035101 189.259664,70.4373515 C198.169213,71.1442476 206.118163,71.987199 212.539162,72.9780367 C218.113633,73.8357767 222.565406,74.8443607 225.330127,75.870691 C227.599541,90.1535416 228.920363,134.859544 228.719238,181.038494 Z M77.1068203,144.276938 C77.0768016,145.462986 77.965355,146.477485 79.1661028,146.625372 C85.806238,147.420999 93.3289228,148.024375 100.24523,146.226079 C101.130781,145.992419 102.004325,145.720308 102.868864,145.397916 L104.330774,143.738633 C105.921765,136.524743 106.939399,123.673431 104.880116,115.805884 L104.570924,114.776596 C104.29175,113.92773 103.544284,113.312523 102.649727,113.191256 C94.8568743,112.176757 88.1717111,113.466325 81.6456469,113.282946 C80.7510898,113.259284 79.919572,113.744351 79.505314,114.522232 C77.5030671,118.370231 77.1248316,123.392447 77.0077586,128.722266 C76.9267082,134.037297 77.2328989,139.654015 77.1068203,144.276938 Z M100.473372,117.616012 C101.94729,123.729628 101.295884,134.942361 100.008082,141.45527 L99.0384784,141.759915 C93.8422424,143.135257 87.6824064,142.907512 81.8107497,142.274559 C81.8257591,137.914874 81.6276357,133.182515 81.6996806,128.793252 C81.7447086,124.460186 82.1649703,120.499793 83.1195648,117.899953 C89.1503205,117.873334 94.6887696,117.086579 100.473372,117.616012 L100.473372,117.616012 Z M103.829462,220.633549 C103.55329,219.781724 102.811828,219.157644 101.908266,219.042293 C94.0913976,218.010047 87.4362531,219.272996 80.8921777,219.077786 C80.0066262,219.054124 79.1721065,219.533275 78.7608504,220.308199 C76.746596,224.153241 76.3533511,229.169541 76.2272726,234.496403 C76.1282109,239.811433 76.4133885,245.422236 76.2692988,250.051075 C76.2362782,251.24008 77.1218297,252.260495 78.3225775,252.411339 C85.0077407,253.227671 92.5694498,253.85175 99.50677,252.044581 C100.353297,251.822752 101.193821,251.559514 102.022337,251.257826 L103.487249,249.610374 C105.132273,242.352118 106.167918,229.441652 104.102632,221.571147 L103.829462,220.633549 L103.829462,220.633549 Z M80.9792319,248.066442 C81.0182562,243.703798 80.8321403,238.968482 80.9161926,234.582177 C80.97623,230.252068 81.4054974,226.291675 82.3630937,223.697751 C88.3968513,223.682963 93.9142873,222.910997 99.713899,223.455218 C101.169806,229.589538 100.503391,240.805229 99.1765644,247.306307 L98.3000185,247.578417 C93.0887732,248.959674 86.8929147,248.717141 80.9792319,248.066442 Z M122.984391,119.222056 C125.815154,119.976276 130.513079,120.564863 136.34271,121.079507 C145.054135,121.833727 156.116024,122.33654 165.779042,122.460764 C170.609049,122.522876 175.084837,122.490341 178.768131,122.342455 C182.469436,122.182738 185.261174,121.954993 187.14935,121.475842 L188.350098,121.044014 C189.514823,120.476131 189.983115,119.088958 189.409758,117.944319 C188.827395,116.805595 187.42252,116.34419 186.2668,116.912073 L185.942599,117.009678 C184.480688,117.417844 180.142987,117.749109 174.754631,117.831926 C166.604556,117.976854 155.716775,117.698828 145.972707,117.133903 C136.270665,116.57785 127.520216,115.678702 124.227165,114.767723 C122.975385,114.427585 121.687583,115.152227 121.34537,116.382641 C121.003157,117.616012 121.738615,118.884875 122.984391,119.222056 Z M122.137864,132.641251 C124.827539,133.827299 129.16524,134.315323 134.955846,134.744193 C152.165564,135.903621 180.305088,135.081374 188.058916,134.173352 C189.343717,134.022508 190.26529,132.871954 190.10319,131.606048 C189.950094,130.340142 188.788371,129.435078 187.500569,129.585922 C182.790636,130.14789 168.513745,130.724646 154.657115,130.695069 C147.716793,130.677322 140.845514,130.514647 135.277046,130.136059 C129.765614,129.792963 125.319845,129.071278 124.134107,128.459029 C122.960376,127.914808 121.561505,128.411705 121.012163,129.565218 C120.462821,130.721688 120.967135,132.099988 122.137864,132.641251 Z M188.686307,143.413283 C183.976374,143.975251 169.708489,144.552007 155.845856,144.513556 C148.905533,144.498768 142.034254,144.336093 136.462785,143.957504 C130.942347,143.617366 126.487573,142.898639 125.280821,142.280475 C124.110092,141.742169 122.711221,142.244982 122.167882,143.401452 C121.61854,144.552007 122.122854,145.927349 123.302589,146.468612 L123.299587,146.47157 C125.995266,147.648744 130.344975,148.136769 136.138583,148.565639 C153.36331,149.728024 181.487824,148.905777 189.241653,148.000713 C190.529455,147.849869 191.448027,146.699315 191.288928,145.433409 C191.135833,144.167503 189.971107,143.262439 188.686307,143.413283 Z M121.53749,173.519959 C124.368253,174.283051 129.06918,174.868681 134.892807,175.380367 C143.607234,176.134587 154.660117,176.640358 164.326137,176.761624 C169.16515,176.823737 173.637936,176.791202 177.321229,176.643315 C181.022535,176.483598 183.823279,176.255854 185.711455,175.773745 L186.915204,175.344874 C188.076928,174.776991 188.545219,173.389819 187.971862,172.248137 C187.3895,171.106456 185.984625,170.639135 184.828905,171.20406 L184.504703,171.307581 C183.042793,171.715747 178.696086,172.052927 173.30773,172.132786 C165.160656,172.280672 154.272876,172.002646 144.525806,171.434763 C134.820762,170.884626 126.076316,169.979563 122.780264,169.068584 C121.531486,168.728445 120.240682,169.453088 119.901471,170.683501 C119.556256,171.913914 120.291714,173.17982 121.53749,173.519959 Z M120.666948,186.945069 C123.362626,188.128159 127.700328,188.616183 133.493936,189.045053 C150.715661,190.207439 178.849181,189.391107 186.60301,188.483086 C187.890812,188.332242 188.809384,187.181687 188.650285,185.912823 C188.497189,184.646917 187.332464,183.741854 186.047664,183.892698 C181.346736,184.454665 167.066844,185.031422 153.20421,184.995929 C146.260886,184.978183 139.386605,184.81255 133.818138,184.433961 C128.2977,184.093823 123.854933,183.372138 122.654185,182.762847 C121.480454,182.221583 120.084585,182.721439 119.538245,183.871994 C118.988903,185.031422 119.493217,186.406763 120.666948,186.945069 Z M189.830019,199.728354 C189.679926,198.462448 188.515201,197.557384 187.227399,197.708228 C182.517465,198.267238 168.240574,198.843994 154.383945,198.811459 C147.443623,198.79667 140.572344,198.636953 135.000874,198.258365 C129.48644,197.915269 125.03767,197.196542 123.83392,196.581335 C122.666193,196.043029 121.270323,196.542885 120.717979,197.696397 C120.171639,198.852867 120.678955,200.228209 121.855688,200.769473 L121.852686,200.77243 C124.545363,201.952562 128.889068,202.440587 134.676672,202.866499 C151.898397,204.025927 180.01991,203.197764 187.785746,202.295658 C189.070546,202.144814 189.983115,200.99426 189.830019,199.728354 Z M164.446211,231.325722 C169.276219,231.390792 173.755009,231.355299 177.429297,231.207413 C181.136606,231.050654 183.934348,230.819951 185.81652,230.3408 L187.032277,229.906015 C188.187997,229.335174 188.656288,227.948001 188.082931,226.803362 C187.500569,225.664638 186.095694,225.200275 184.93397,225.777031 L184.609768,225.874636 C183.144856,226.282802 178.810157,226.617025 173.421801,226.699841 C165.277729,226.84477 154.392951,226.560828 144.648883,225.995903 C134.946841,225.445766 126.199393,224.540703 122.90334,223.629724 C121.651561,223.295501 120.363759,224.020143 120.018544,225.250557 C119.679333,226.483928 120.414791,227.752791 121.663568,228.09293 L121.660566,228.089972 C124.497333,228.844192 129.195259,229.432779 135.021887,229.93855 C143.727309,230.695727 154.783194,231.204456 164.446211,231.325722 Z M133.638026,243.600278 C150.841739,244.756748 178.978261,243.940416 186.741096,243.035353 C188.028898,242.884509 188.94747,241.733954 188.788371,240.468048 C188.635275,239.199184 187.47055,238.297078 186.18575,238.447922 C181.469813,239.00989 167.192922,239.583688 153.336293,239.548196 C146.392969,239.533407 139.524691,239.367775 133.959226,238.992144 C128.450795,238.649048 124.01103,237.924405 122.828294,237.315114 C121.651561,236.77385 120.255692,237.270748 119.706349,238.424261 C119.154005,239.583688 119.65832,240.95903 120.829049,241.500294 C123.518724,242.680426 127.853423,243.16845 133.638026,243.600278 Z M187.377492,252.26641 C182.664557,252.831336 168.387666,253.402176 154.525033,253.369641 C147.581709,253.354853 140.71043,253.18922 135.13896,252.807674 C129.621524,252.464578 125.169752,251.745851 123.963,251.133602 C122.789269,250.595296 121.3934,251.098109 120.84706,252.254579 C120.30072,253.408092 120.811037,254.780476 121.984768,255.321739 C124.677445,256.501871 129.024152,256.992854 134.811756,257.415808 C152.039485,258.578194 180.170004,257.761862 187.93584,256.856798 C189.22064,256.705954 190.142214,255.552442 189.980113,254.289494 C189.827018,253.02063 188.665294,252.115566 187.377492,252.26641 Z M109.878229,157.607402 C107.755907,160.500056 105.153286,164.51073 102.283499,168.752107 C101.917271,168.278871 101.382938,167.941691 100.764553,167.850001 C92.9536891,166.752685 86.265524,167.959437 79.7334561,167.710988 C78.8449027,167.681411 78.010383,168.151689 77.5871194,168.923655 C76.2482857,171.431805 75.6299006,174.472346 75.2906893,177.749504 C73.6996985,176.116841 72.2347862,174.534458 71.0610553,173.212355 C70.2055225,172.248137 68.7256009,172.15349 67.7529952,172.990526 C66.7773876,173.83052 66.6783259,175.288678 67.527855,176.24698 L67.5248531,176.24698 C69.4640608,178.432739 72.0997021,181.227788 74.9184575,183.925233 C74.8193958,188.994772 75.0205211,194.265437 74.8554183,198.6547 C74.8133921,199.843705 75.689938,200.870035 76.8906857,201.026795 C83.6298826,201.896365 91.2786459,202.597346 98.2880111,200.77243 L100.605454,200.056661 L102.085376,198.423997 C103.484247,192.446436 104.46886,182.650453 103.667361,174.969244 C107.590804,169.355483 111.121003,163.794961 113.678596,160.310762 C114.432065,159.281474 114.197919,157.835147 113.150267,157.086842 C112.102614,156.338538 110.6347,156.575156 109.878229,157.607402 Z M98.5251587,172.254053 C98.633226,172.733204 98.7442952,173.20644 98.8283476,173.744746 C98.7833195,173.806858 98.7412933,173.86897 98.6962653,173.931082 C94.8238537,179.37921 90.6032253,184.590721 86.8658979,187.583938 C84.8456397,186.42451 82.2220059,184.368891 79.6584094,182.002712 C79.8085028,178.154713 80.2677889,174.68826 81.1563422,172.345742 C87.1870979,172.38715 92.7285489,171.662508 98.5251587,172.254053 L98.5251587,172.254053 Z M79.5803608,196.705559 C79.6223869,193.916425 79.5863645,190.991236 79.574357,188.07492 C81.8197553,189.923498 84.0411387,191.50588 86.1424473,192.443479 L88.4568887,192.215734 C92.1822086,189.583359 95.8144706,185.495784 99.2756261,180.988212 C99.2486093,186.323947 98.6302242,192.094467 97.783697,196.090353 L97.0812595,196.306267 C91.827988,197.699355 85.5570828,197.40654 79.5803608,196.705559 L79.5803608,196.705559 Z" id="Fill-1"></path>
                    </g>
                </g>
            </g>
        </g>
    </g>
</svg>