<?xml version="1.0" encoding="UTF-8" standalone="no"?>
<svg width="264px" height="268px" viewBox="0 0 264 268" version="1.1" xmlns="http://www.w3.org/2000/svg" xmlns:xlink="http://www.w3.org/1999/xlink" xmlns:sketch="http://www.bohemiancoding.com/sketch/ns">
    <!-- Generator: Sketch 3.1 (8751) - http://www.bohemiancoding.com/sketch -->
    <title>Fill 1</title>
    <desc>Created with Sketch.</desc>
    <defs></defs>
    <g id="How-to-crowdfund" stroke="none" stroke-width="1" fill="none" fill-rule="evenodd" sketch:type="MSPage">
        <g sketch:type="MSArtboardGroup" transform="translate(-157.000000, -500.000000)" id="Rules" fill="#D8D8D8">
            <g sketch:type="MSLayerGroup" transform="translate(-14.000000, 359.000000)">
                <g transform="translate(86.000000, 102.000000)" id="Illustration" sketch:type="MSShapeGroup">
                    <g transform="translate(65.000000, 0.000000)">
                        <path d="M237.32423,143.768364 C230.080132,121.759937 223.428243,100.890235 217.966756,84.1524729 C212.487322,67.3762607 208.282036,54.8917065 205.661958,49.0945669 C204.953101,47.5476771 203.272183,46.6662752 201.585283,46.9709208 C193.216585,48.4704871 155.066927,56.3942304 115.936234,66.0926084 C113.32812,57.5773202 110.414927,49.1537214 107.178712,41.7061716 C106.439945,40.0025224 104.525733,39.1004165 102.722186,39.6061873 C96.4651033,41.3749065 88.6138408,43.3595395 82.3358217,46.7609224 C81.0078367,47.4914803 80.2481336,48.9496384 80.4365639,50.4432892 C80.4425458,50.4699087 81.8363319,61.7151764 83.5501503,74.5369113 C67.1477413,79.0651872 52.1809917,83.6703639 41.0336944,88.0063877 C35.2222647,90.2808777 30.454679,92.454805 26.9133857,94.6494365 C25.1307752,95.7615408 23.6562334,96.8618142 22.4508776,98.1543398 C21.2903863,99.4232035 20.2166326,101.049952 20.1867231,103.250499 L20.2943975,104.238379 L20.2734608,104.241336 C20.9972725,108.299334 21.8796048,121.289659 22.7649281,138.388263 C25.4448257,189.932525 28.4686834,280.273255 31.292147,303.657024 C31.5284326,305.606164 33.2871154,307.034745 35.2790929,306.889816 C108.046089,301.548166 280.310267,270.654736 280.391022,270.654736 L283.064938,268.676018 L283.085875,265.384071 C268.738253,236.457528 251.803454,187.779301 237.32423,143.768364 L237.32423,143.768364 Z M101.543749,47.6186625 C107.187685,61.3957422 111.952279,78.423361 115.541428,92.9250832 C108.159746,95.7023863 101.507857,99.0919384 94.9397152,101.168261 C93.7044499,93.6260639 92.1192426,82.2447408 90.761348,72.0849578 C89.6307662,63.5637541 88.6616961,55.9416986 88.180152,52.129192 C92.092324,50.3515997 96.9466474,48.9082302 101.543749,47.6186625 L101.543749,47.6186625 Z M251.013841,268.288557 C200.329081,277.019759 93.3874084,294.783851 38.3328601,299.241141 C36.6190417,281.583527 34.7706301,239.364971 33.0089564,198.634149 C32.060823,176.732201 31.1246534,155.214757 30.2273662,138.006717 C29.3450339,121.19797 28.5464483,108.740035 27.7089803,103.43092 C28.1217324,102.895572 29.8594785,101.342767 32.6590144,99.8846085 C42.0147284,94.7233796 61.8477652,88.2134284 84.552121,81.9282643 C85.8681421,91.511291 87.2469734,100.964178 88.2638988,106.501038 L89.8939704,108.926372 L92.7922079,109.438058 C103.102037,107.021597 111.931343,101.792341 121.161437,98.7665887 C122.994893,98.1602552 124.059674,96.2673117 123.608039,94.3980299 C122.004886,87.8082202 120.135538,80.547007 118.035886,73.188189 C153.290298,64.4569869 187.9196,57.139577 199.970166,54.8029748 C202.407797,60.90476 206.212294,72.179605 210.85426,86.4180898 C226.700351,134.969134 252.60503,218.539634 274.232642,264.233517 C269.491975,265.076468 261.461255,266.49026 251.013841,268.288557 Z M56.0782089,156.968687 C64.0431278,151.899148 76.1654771,148.50368 88.9368642,145.942291 C101.714233,143.342452 115.128676,141.493874 126.090534,138.96502 C137.414298,136.353349 149.521692,134.401251 160.950139,131.730426 C165.843345,130.597618 170.281926,129.044812 174.445338,128.033271 C175.916889,127.666513 177.092335,127.314544 178.061405,127.018771 C179.67054,127.746371 181.596717,127.338205 182.652525,125.859343 L183.220806,124.957237 L183.73226,122.957816 L181.937686,119.701361 L179.703441,119.071366 C178.094306,119.160098 177.612762,119.470659 176.467225,119.772347 C175.423381,120.091781 174.152224,120.479243 172.641791,120.863747 C168.002816,121.996555 163.624055,123.534572 159.242303,124.531325 C148.157816,127.122291 136.050421,129.07439 124.394661,131.760003 C113.938275,134.179422 100.511868,136.048703 87.4324127,138.698824 C74.3409933,141.369649 61.5666153,144.750328 52.0463987,150.727889 C50.3086525,151.834078 49.7971989,154.114483 50.906844,155.841794 C52.0254619,157.560232 54.3314899,158.066003 56.0782089,156.968687 Z M189.522753,147.444815 C188.748095,145.551872 186.573669,144.634977 184.659457,145.392154 C154.699039,157.350234 92.4273112,170.449995 55.7551855,185.102561 C53.8409729,185.874527 52.9137762,188.024792 53.6884341,189.917736 C54.4690739,191.81068 56.6464907,192.727574 58.5607033,191.961523 C94.2099216,177.655011 156.329111,164.599616 187.45002,152.254075 C189.364232,151.488024 190.291429,149.334801 189.522753,147.444815 Z M193.509699,176.247134 C183.549812,179.87922 162.14054,185.555093 147.727118,189.758019 C124.059674,196.69684 93.5369563,211.109831 74.3170656,214.599945 C72.2862057,214.966703 70.9522388,216.901055 71.3231175,218.90935 C71.7029691,220.917644 73.659055,222.239747 75.6899149,221.864116 C96.6535336,217.956962 126.981839,203.484817 149.844716,196.850642 C164.162427,192.662504 185.455051,187.042828 196.096877,183.18004 C198.029035,182.479059 199.025024,180.358371 198.307194,178.43585 C197.598337,176.522203 195.444848,175.540238 193.509699,176.247134 Z M136.107249,232.571078 C131.399483,234.484726 123.841334,237.625829 116.085782,240.270034 C108.375095,242.926071 100.326429,245.02014 95.4930422,244.99352 L92.4931122,244.62972 C90.5280534,243.996767 88.4194286,245.049717 87.7763728,246.984069 C87.1392989,248.936167 88.2070706,251.015447 90.1691385,251.651357 L90.1631566,251.651357 C91.8650112,252.198536 93.6326669,252.387831 95.4930422,252.387831 C102.153904,252.343465 110.432873,250.003905 118.523412,247.259137 C126.572078,244.514369 134.282766,241.308196 138.942677,239.41821 C140.853898,238.637371 141.76614,236.478232 140.985501,234.594161 C140.198879,232.701218 138.01548,231.799112 136.107249,232.571078 Z" id="Fill-1"></path>
                    </g>
                </g>
            </g>
        </g>
    </g>
</svg>