<?xml version="1.0" encoding="UTF-8" standalone="no"?>
<svg width="205px" height="319px" viewBox="0 0 205 319" version="1.1" xmlns="http://www.w3.org/2000/svg" xmlns:xlink="http://www.w3.org/1999/xlink" xmlns:sketch="http://www.bohemiancoding.com/sketch/ns">
    <!-- Generator: Sketch 3.1 (8751) - http://www.bohemiancoding.com/sketch -->
    <title>Fill 1</title>
    <desc>Created with Sketch.</desc>
    <defs></defs>
    <g id="How-to-crowdfund" stroke="none" stroke-width="1" fill="none" fill-rule="evenodd" sketch:type="MSPage">
        <g sketch:type="MSArtboardGroup" transform="translate(-177.000000, -473.000000)" id="Rules" fill="#D8D8D8">
            <g sketch:type="MSLayerGroup" transform="translate(-14.000000, 359.000000)">
                <g transform="translate(86.000000, 102.000000)" id="Illustration" sketch:type="MSShapeGroup">
                    <g transform="translate(65.000000, 0.000000)">
                        <path d="M175.175215,164.552959 C182.856725,166.741675 190.991324,167.019701 198.198741,164.532255 C205.41816,162.065513 211.62338,156.682455 215.017047,148.119843 C215.569155,146.714924 216.058251,145.304089 216.475333,143.878466 C219.523933,133.5146 218.851801,122.724822 214.740993,113.697848 C210.633185,104.662 202.97568,97.3859982 192.326586,94.3572885 C189.995128,93.6918005 187.522642,93.2303955 184.924131,92.9849044 C174.704122,92.0266018 166.104431,95.3540416 159.707174,100.754846 C153.27991,106.155651 148.965062,113.555877 146.780633,120.956103 C144.821248,127.649433 144.5782,134.37234 146.393557,139.84413 C150.426349,151.760802 162.290682,160.841015 175.175215,164.552959 L175.175215,164.552959 Z M151.176497,122.210178 C153.120879,115.561214 157.060654,108.897461 162.668756,104.188764 C168.297863,99.4830247 175.499278,96.658398 184.498047,97.4776876 C186.826505,97.6936015 189.004933,98.1047252 191.054336,98.6903546 C200.371168,101.364137 206.912454,107.575358 210.561171,115.543468 C214.203887,123.505661 214.843013,133.230659 212.08247,142.624391 C211.701395,143.913959 211.260308,145.200569 210.756209,146.472391 C207.770622,153.902194 202.762638,158.152444 196.686443,160.279048 C190.61625,162.38199 183.399831,162.210442 176.447465,160.219893 C164.730161,156.907242 154.009054,148.403785 150.73541,138.433296 C149.292126,134.162342 149.403148,128.205485 151.176497,122.210178 Z M177.386649,155.03796 C182.940741,156.617385 188.8339,156.830341 194.111937,155.008383 C199.395976,153.210087 203.980877,149.234905 206.444362,143.00298 L206.447362,142.997065 C206.846441,141.97665 207.194509,140.953277 207.50657,139.923989 C209.700002,132.432073 209.228909,124.629597 206.243322,118.07528 C203.275739,111.52392 197.682639,106.20889 189.947118,104.014258 C188.245784,103.529192 186.448431,103.189053 184.56406,103.017505 C177.131599,102.310609 170.82736,104.738901 166.173445,108.669716 C161.501527,112.600532 158.383914,117.951055 156.799602,123.307494 C155.392326,128.161119 155.185285,133.035449 156.53255,137.093447 C159.503134,145.824649 168.08182,152.346431 177.386649,155.03796 Z M220.592143,169.882778 C223.391693,163.118463 226.095225,155.215424 228.624722,146.611404 C235.958163,121.630464 241.821316,90.7695689 243.618669,65.0965221 C244.509845,52.2540832 244.398823,40.7219161 242.892527,31.7600115 C242.136378,27.2790592 241.035162,23.4310599 239.432847,20.3313649 C237.845534,17.2494161 235.68511,14.8211245 232.762535,13.6498657 L231.241236,13.1263485 C223.304676,10.9465057 214.632971,14.8092936 205.643204,21.6179749 C178.727913,42.2185246 146.864649,92.5027954 131.642657,122.70116 C127.003745,131.92926 122.649889,143.384526 118.989169,155.842461 C113.978184,172.902615 110.266455,191.820219 108.9732,209.412764 C100.025441,212.494712 92.5689756,216.120882 82.931081,219.114099 C83.5792084,211.205144 83.5762078,202.030284 82.8560663,193.707248 C82.3369642,187.782926 81.4757949,182.325924 80.1645371,178.049055 C79.5104086,175.91062 78.7422575,174.059085 77.773067,172.538815 C76.8008759,171.042206 75.5706341,169.749681 73.764279,169.214333 L73.266181,169.098981 C71.4598259,168.761801 69.6474697,169.167009 68.0601576,169.980383 C62.57808,172.87008 58.0591916,180.163828 53.813357,188.658412 C49.6395365,197.158912 46.0928392,206.854332 43.8904063,214.340332 C43.6113514,215.295677 43.3472995,216.221445 43.1132535,217.114678 L43.1162541,217.102847 C41.0728524,224.754479 39.9506318,236.95805 40.3707144,248.697258 C40.8688123,260.451254 42.6001526,271.524974 47.5691295,277.413803 L48.9734055,278.176896 C50.8997842,278.43126 54.683528,278.499288 57.1260082,279.209141 L57.9061615,279.472379 L59.256427,279.58773 C61.6058888,279.040551 63.3192256,277.422676 64.9515465,275.384804 C69.6774756,269.309638 73.8602978,257.999301 77.1279402,247.04389 C91.9238488,253.012577 102.404909,257.783387 117.56689,262.358986 C120.741514,266.916839 124.876327,270.353715 130.124358,272.06328 L130.679468,272.23187 C133.668055,273.057075 136.758663,272.98609 139.909282,272.246658 C154.165084,279.469421 165.492311,282.58982 180.318226,288.42541 C176.147406,296.153944 172.237637,304.521346 170.21824,311.335943 C169.474094,313.870712 168.984998,316.198441 168.867975,318.301383 C168.774956,320.39841 168.984998,322.338677 170.080213,324.021622 L171.127419,324.867531 C172.186627,325.278655 173.668918,326.281324 174.992179,327.322443 C176.345445,328.37835 177.509674,329.416511 178.448858,330.090872 L179.991161,330.507912 C187.71768,329.706368 196.806467,322.97163 205.484173,314.902958 C214.095866,306.786963 221.936407,297.271964 225.885183,290.380466 L225.885183,290.386382 C230.434078,282.44785 236.372245,269.747381 239.684896,258.505071 C241.140182,253.553841 242.091369,248.895425 242.136378,244.914328 C242.154382,242.920822 241.950341,241.07816 241.380229,239.421834 C240.810117,237.774382 239.80492,236.257069 238.283621,235.263274 L236.789327,234.582997 C233.386658,233.754834 230.034999,235.248485 226.065219,237.454948 C216.733384,242.888287 204.45197,254.29623 195.951299,264.417562 C191.096344,255.443827 186.415424,243.899829 182.265608,235.517638 C198.267754,214.432022 212.799611,188.676159 220.592143,169.882778 Z M161.192466,124.561569 C162.545732,119.95935 165.28227,115.339385 169.135027,112.103634 C173.01779,108.867884 177.929756,106.945363 184.134976,107.510288 C185.749293,107.658175 187.255589,107.942116 188.671868,108.344367 C195.081128,110.189987 199.546005,114.431363 202.072502,119.923857 C204.580995,125.413394 205.028083,132.148132 203.104705,138.666956 C202.840653,139.566104 202.537594,140.465253 202.183524,141.355528 L202.183524,141.346654 C200.119118,146.445771 196.740454,149.297017 192.59964,150.752218 C188.464827,152.192629 183.480847,152.086151 178.658899,150.704894 C170.5213,148.412658 163.09484,142.47059 160.874403,135.682612 C159.908213,132.831366 159.965225,128.714214 161.192466,124.561569 Z M196.584423,205.280823 C193.307779,204.828291 190.094147,204.278154 186.90452,203.677736 C187.009541,203.086191 187.165572,202.394084 187.375613,201.693103 C187.813699,200.054524 188.68087,198.300593 189.001933,197.933836 C192.734666,198.803407 196.482403,199.536922 200.239142,200.119594 C199.209939,201.894228 198.162734,203.671821 197.085522,205.455328 C196.920489,205.390259 196.767459,205.307442 196.584423,205.280823 L196.584423,205.280823 Z M120.663499,167.090687 C122.589877,168.395043 124.531259,169.690526 126.523651,170.953475 C126.142576,171.873327 125.80951,172.796137 125.542458,173.704158 C125.038359,175.422596 124.660284,177.087795 124.204195,178.646515 C124.171188,178.752994 124.12918,178.850598 124.096173,178.957076 C122.283817,177.800606 120.483463,176.608643 118.695112,175.381188 C119.310233,172.592054 119.970362,169.829539 120.663499,167.090687 L120.663499,167.090687 Z M128.597058,179.900591 C129.107158,178.167364 129.485233,176.49625 129.938322,174.961191 C130.100354,174.408097 130.277388,173.881622 130.466426,173.366978 C134.226165,175.650341 138.06992,177.853845 142.012695,179.944956 C141.27155,182.43536 140.236346,184.961257 139.159134,187.54335 C135.417399,185.641533 131.729674,183.588873 128.086958,181.397199 C128.257991,180.897344 128.45303,180.394531 128.597058,179.900591 L128.597058,179.900591 Z M146.111501,182.047898 C149.532174,183.775209 152.988853,185.446324 156.511546,186.993213 C156.406525,187.614336 156.283501,188.238415 156.091463,188.892072 C155.593365,190.580933 154.822214,192.379229 154.033058,194.245553 C150.393343,192.808099 146.795636,191.278956 143.25794,189.593053 C144.27214,187.147015 145.277337,184.647738 146.111501,182.047898 L146.111501,182.047898 Z M160.487327,190.146147 C160.616353,189.699531 160.682366,189.223338 160.787386,188.76489 C163.844987,190.027839 166.929594,191.216844 170.041205,192.323033 C169.546108,193.435137 169.105021,194.585692 168.750952,195.771739 C168.420887,196.895674 168.162836,198.001863 167.937792,199.069602 C164.685152,198.090595 161.474521,197.03173 158.305898,195.875259 C159.083051,194.047386 159.89321,192.163315 160.487327,190.146147 L160.487327,190.146147 Z M173.143815,197.025814 C173.491884,195.839767 173.920968,194.760197 174.371057,193.810768 C176.567488,194.532453 178.766921,195.242306 180.981356,195.875259 C182.115579,196.200609 183.258804,196.490466 184.396027,196.792154 C183.828916,197.907216 183.381828,199.137629 182.973748,200.433113 C182.739702,201.246487 182.562667,202.030284 182.42764,202.796334 C179.012969,202.068734 175.65831,201.240571 172.342658,200.338465 C172.564701,199.255938 172.819752,198.134961 173.143815,197.025814 L173.143815,197.025814 Z M185.668277,47.9417212 C197.9917,57.104751 217.759586,66.3683435 238.661695,69.7993037 C238.523668,71.3461935 238.373638,72.9078719 238.205605,74.4872967 C238.139592,75.1232074 238.049575,75.7857377 237.97756,76.4275638 C232.810545,75.6171474 227.502501,74.4370154 222.248468,72.9374492 C205.87725,68.2760757 190.079144,60.7161324 180.912342,53.7802689 C181.10138,53.5406932 181.287416,53.2952021 181.479454,53.0556265 C182.871728,51.3105691 184.270002,49.6098777 185.668277,47.9417212 L185.668277,47.9417212 Z M135.741463,124.709455 C145.091301,106.096496 161.105449,79.4503581 178.133796,57.3265803 C188.008737,64.785961 204.076896,72.4257629 220.976218,77.2675575 C226.446294,78.8321937 232.003386,80.0833111 237.452457,80.9351357 C234.82094,102.396383 229.98699,125.771278 224.228858,145.354371 C221.735368,153.840082 219.070844,161.612981 216.35531,168.185045 C212.991649,176.345406 208.244715,185.955052 202.636613,195.931456 C195.822273,194.949492 189.004933,193.47063 182.256607,191.545151 C160.658361,185.375338 139.744249,174.751193 121.872736,162.452975 C122.361832,160.654679 122.85993,158.85934 123.382033,157.096536 C126.982741,144.851558 131.261582,133.609248 135.741463,124.709455 L135.741463,124.709455 Z M117.698916,180.157913 C133.740069,190.93586 150.6814,198.889181 168.969995,204.112522 C177.218616,206.46687 185.749293,208.259251 194.577029,209.53403 C188.98993,218.498893 182.895732,227.372065 176.639502,235.399329 C174.563094,238.070154 172.465682,240.643374 170.365269,243.101243 C170.233243,243.11899 170.101217,243.107159 169.969191,243.151525 C164.997214,244.869962 156.988639,244.047715 148.610993,241.622381 C140.806458,239.392257 132.659857,235.902142 126.007549,232.364704 C119.961361,229.176277 115.097404,225.807429 113.072006,223.716318 C112.951983,210.237969 114.701326,195.05597 117.698916,180.157913 L117.698916,180.157913 Z M59.8175373,186.969552 C64.5974769,188.971931 71.210777,190.462624 77.9230965,190.456709 C78.1331378,192.186977 78.2981702,193.985274 78.4331968,195.82202 C72.9751238,196.049765 66.7488999,195.171321 61.8819431,193.775275 C60.0995927,193.266547 58.524283,192.692748 57.2310288,192.110076 C58.0291857,190.424174 58.8423456,188.770806 59.6825107,187.209127 C59.7275196,187.126311 59.7725284,187.052368 59.8175373,186.969552 L59.8175373,186.969552 Z M48.2862704,215.594407 C49.9455966,209.945154 52.4510892,202.90577 55.3736637,196.191736 C56.9249686,196.895674 58.656309,197.549331 60.609693,198.108341 C65.9717471,199.634527 72.579046,200.575083 78.6882469,200.326635 C79.1083295,210.152195 78.5892275,220.533807 77.2599662,227.525867 C76.6568476,230.702463 75.7416677,234.689475 74.6284488,238.960429 C68.2671983,239.250286 61.5998877,238.312688 55.2596413,236.50256 C51.9199848,235.547215 48.6583436,234.361168 45.5917407,233.021319 C45.4957219,232.979911 45.3937018,232.982868 45.2916817,232.956249 C45.7477714,227.191644 46.5309254,221.977176 47.5421241,218.256359 L47.5451247,218.244528 C47.7611672,217.413408 48.0132168,216.52609 48.2862704,215.594407 L48.2862704,215.594407 Z M66.5328574,263.163487 C60.4206558,261.554485 51.7309476,260.347734 45.9008015,259.374642 C45.3907012,255.967344 45.0516346,252.29385 44.9406127,248.537541 C44.9136074,247.818814 44.9106068,247.094171 44.8956039,246.372486 C46.5309254,246.990651 48.1782492,247.564449 49.8585795,248.040643 C56.768938,250.016403 64.0033601,250.746961 71.2947935,250.454146 C69.8365068,254.967633 68.2161883,259.321403 66.5328574,263.163487 L66.5328574,263.163487 Z M72.696069,245.902208 C71.7808891,245.958405 70.8687097,245.96432 69.9565304,245.985024 C69.9235239,245.204185 69.9385269,244.337572 69.9865363,243.491663 C71.1237599,243.538986 72.2549823,243.506451 73.3922058,243.485747 C73.2121704,244.115743 73.0501386,244.733907 72.8611014,245.36686 C72.8100914,245.544324 72.7500796,245.724745 72.696069,245.902208 L72.696069,245.902208 Z M65.3776303,245.940659 C64.1173826,245.884462 62.8571348,245.831223 61.6088894,245.704041 C61.8309331,244.642218 62.0319726,243.524198 62.1820021,242.633923 C63.2622144,242.811386 64.3364256,243.003638 65.4226391,243.130821 C65.3626273,244.089123 65.3476244,245.04151 65.3776303,245.940659 L65.3776303,245.940659 Z M57.0659964,245.059257 C55.8627598,244.843343 54.6805274,244.556444 53.498295,244.269544 C53.3932744,243.272791 53.4742903,242.048293 53.6033157,240.708444 C53.732341,240.746895 53.8553652,240.797176 53.9873912,240.832669 C55.2056307,241.18168 56.4478749,241.459706 57.6901191,241.746606 C57.5250866,242.707866 57.3000424,243.979687 57.0659964,245.059257 L57.0659964,245.059257 Z M48.8713855,242.982934 C47.5271212,242.539276 46.1978599,242.051251 44.8896027,241.509988 C44.9106068,240.208589 44.9496145,238.924937 45.0066257,237.6472 C46.3628923,238.215083 47.7311613,238.765219 49.1414385,239.268033 C49.0184144,240.486615 48.889389,241.714071 48.8713855,242.982934 L48.8713855,242.982934 Z M61.3328352,272.625247 C60.3456411,273.92073 59.3974547,274.680866 58.7643302,275.003258 L58.3982583,274.879033 C55.6557191,274.104109 52.3610715,273.956223 50.557717,273.811295 C48.991409,271.732014 47.6951542,268.327674 46.7499684,264.086297 C52.2740544,264.970657 59.4814712,266.050226 64.6004775,267.322048 C63.4962604,269.46344 62.3830416,271.291314 61.3328352,272.625247 L61.3328352,272.625247 Z M78.3701844,242.672373 C79.8314717,237.330723 81.0107035,232.30555 81.7638515,228.351072 C82.0159011,226.999392 82.2319436,225.526446 82.4299825,223.997302 C92.7040022,220.980423 100.307497,217.321718 108.71815,214.301882 C108.556118,217.658899 108.490105,220.950846 108.529113,224.162935 C108.484104,224.408426 108.490105,224.650959 108.529113,224.89645 C108.541115,225.591515 108.51411,226.316158 108.538115,227.00235 C108.895185,237.963676 110.515504,247.839518 113.897168,255.730726 C114.029194,256.035372 114.182224,256.316355 114.317251,256.615086 C101.669765,252.512722 91.9568553,248.144163 78.3701844,242.672373 L78.3701844,242.672373 Z M131.954718,267.898804 L131.570643,267.780495 C125.563462,265.81065 121.197604,261.104911 118.109997,253.97088 C115.301444,247.520083 113.774144,239.194089 113.261043,229.815146 C116.033588,231.879637 119.637297,234.083142 123.835122,236.33397 C130.757483,240.007464 139.132129,243.609972 147.338742,245.952489 C153.748002,247.762617 160.022236,248.854017 165.543321,248.490217 C160.946417,253.432574 156.391522,257.712401 152.037666,260.98956 C144.149115,266.958247 137.085727,269.439778 131.954718,267.898804 L131.954718,267.898804 Z M187.97273,290.785674 C187.390616,291.439331 186.769494,292.084115 186.184379,292.631294 C185.545253,291.98651 184.91813,291.326938 184.300008,290.652577 C184.696086,289.916103 185.095165,289.188503 185.494243,288.463861 C186.295401,289.262446 187.120563,290.034412 187.97273,290.785674 L187.97273,290.785674 Z M207.338537,306.644992 C206.012277,306.130348 204.710021,305.565423 203.431769,304.956131 C204.316943,304.042195 205.103098,303.069103 205.883251,302.09897 C207.24852,302.708261 208.613788,303.279102 209.982057,303.805577 C209.120888,304.757964 208.241715,305.701478 207.338537,306.644992 L207.338537,306.644992 Z M199.182934,302.72305 C198.135728,302.116716 197.109526,301.47489 196.098328,300.803487 C196.692445,299.871803 197.421588,298.815896 197.979698,298.014353 C199.194936,298.73308 200.425178,299.416314 201.670423,300.064055 C200.797251,301.131794 199.993093,302.051646 199.182934,302.72305 L199.182934,302.72305 Z M192.386598,298.14745 C191.399404,297.378442 190.433214,296.579856 189.488028,295.751693 C190.16016,295.115783 190.841294,294.405929 191.489422,293.66354 C192.353592,294.317197 193.232764,294.953108 194.12694,295.565357 C193.610839,296.307746 192.971713,297.239429 192.386598,298.14745 L192.386598,298.14745 Z M177.833737,323.787962 C176.585492,322.823744 175.193218,321.826991 173.683921,321.08756 C173.500885,320.561085 173.365859,319.703345 173.440874,318.543917 C173.52489,316.961534 173.93297,314.908874 174.614104,312.592976 C174.713124,312.258753 174.833147,311.903826 174.941169,311.56073 C179.505066,314.169443 185.446234,318.372369 190.013131,321.531218 C186.334408,323.915144 182.994752,325.459076 180.399242,325.867242 C179.742112,325.331894 178.835934,324.571759 177.833737,323.787962 L177.833737,323.787962 Z M193.949905,318.748 C189.08895,315.42056 182.001557,310.297782 176.465468,307.242452 C177.974765,303.356003 179.928149,299.117584 182.07057,294.905784 C188.296794,301.395031 195.630236,306.627246 203.881858,310.126234 C203.362756,310.629047 202.849655,311.143691 202.324552,311.637631 C199.579012,314.255217 196.731452,316.656889 193.949905,318.748 L193.949905,318.748 Z M219.832994,247.348535 C224.621935,251.980332 230.422075,255.458615 235.271028,257.316066 C234.748926,259.090701 234.133805,260.921532 233.482677,262.767152 C228.468691,261.02801 220.769178,256.215793 215.662174,250.850481 C215.872215,250.67006 216.082256,250.47485 216.289297,250.294429 C217.480531,249.262183 218.662763,248.286134 219.832994,247.348535 L219.832994,247.348535 Z M212.28651,253.896937 C218.023638,259.856751 225.903187,264.864179 231.910368,266.99374 C228.813759,274.929314 224.991008,282.790946 221.903401,288.165131 L221.903401,288.171046 C219.989024,291.528063 216.86241,295.799017 213.108672,300.238561 C213.015653,300.18828 212.943639,300.111379 212.838619,300.072929 C203.719826,296.754362 194.478009,291.380177 187.8197,284.358539 C190.052139,280.519413 192.221566,277.047045 194.051925,274.355516 C198.048711,268.428236 205.025083,260.649422 212.28651,253.896937 L212.28651,253.896937 Z M192.85469,268.277392 C191.909504,269.507806 191.02133,270.7116 190.244177,271.856239 C187.981732,275.204383 185.257197,279.605477 182.523659,284.438398 C168.609924,278.934073 158.080854,275.89649 145.85345,270.117097 C148.809031,268.712178 151.80062,266.831065 154.816212,264.574322 C162.779778,258.549437 171.106415,249.717673 179.156997,239.546059 C183.207794,248.040643 187.876711,259.457459 192.85469,268.277392 L192.85469,268.277392 Z" id="Fill-1"></path>
                    </g>
                </g>
            </g>
        </g>
    </g>
</svg>