<?xml version="1.0" encoding="UTF-8" standalone="no"?>
<svg width="275px" height="250px" viewBox="0 0 275 250" version="1.1" xmlns="http://www.w3.org/2000/svg" xmlns:xlink="http://www.w3.org/1999/xlink" xmlns:sketch="http://www.bohemiancoding.com/sketch/ns">
    <!-- Generator: Sketch 3.1 (8751) - http://www.bohemiancoding.com/sketch -->
    <title>Fill 1</title>
    <desc>Created with Sketch.</desc>
    <defs></defs>
    <g id="How-to-crowdfund" stroke="none" stroke-width="1" fill="none" fill-rule="evenodd" sketch:type="MSPage">
        <g sketch:type="MSArtboardGroup" transform="translate(-152.000000, -508.000000)" id="Rules" fill="#D8D8D8">
            <g sketch:type="MSLayerGroup" transform="translate(-14.000000, 359.000000)">
                <g transform="translate(86.000000, 102.000000)" id="Illustration" sketch:type="MSShapeGroup">
                    <g transform="translate(65.000000, 0.000000)">
                        <path d="M286.898161,261.160207 C239.651664,261.160207 186.593525,261.710343 133.684862,261.710343 C102.829946,261.710343 72.0407994,261.518091 42.4743696,260.923589 C42.2979875,253.765896 42.0707834,246.620034 41.8106945,239.480088 L53.4578947,239.480088 C54.7254545,239.480088 55.753852,238.459673 55.753852,237.208555 C55.753852,235.957438 54.7254545,234.937023 53.4578947,234.937023 L41.6462704,234.937023 C41.3174224,226.395115 40.9377524,217.865038 40.528187,209.337919 C40.5580823,209.340877 40.5819985,209.355666 40.6118938,209.355666 L53.4578947,209.355666 C54.7254545,209.355666 55.753852,208.335251 55.753852,207.084133 C55.753852,205.833016 54.7254545,204.815559 53.4578947,204.815559 L40.6118938,204.815559 C40.5072604,204.815559 40.4175745,204.859925 40.3159306,204.874713 C39.9003862,196.323932 39.4579361,187.779067 39.0065174,179.240117 L50.8928799,179.240117 C52.1604396,179.240117 53.1888372,178.219702 53.1888372,176.968585 C53.1888372,175.717467 52.1604396,174.697052 50.8928799,174.697052 L38.7703447,174.697052 C38.3159365,166.128525 37.8675073,157.559998 37.4310363,148.988513 C37.6343242,149.047667 37.8346225,149.115695 38.0588371,149.115695 L50.8928799,149.115695 C52.1604396,149.115695 53.1888372,148.09528 53.1888372,146.844163 C53.1888372,145.596003 52.1604396,144.575588 50.8928799,144.575588 L38.0588371,144.575588 C37.7598843,144.575588 37.4758792,144.640658 37.2128007,144.744178 C36.7823087,136.166778 36.381712,127.589377 36.0140001,119.009019 L46.6178551,119.009019 C47.8854149,119.009019 48.9138125,117.988604 48.9138125,116.737487 C48.9138125,115.48637 47.8854149,114.465955 46.6178551,114.465955 L35.8226703,114.465955 C35.4728956,105.944751 35.1769323,97.4176319 34.9377701,88.8816396 L46.6178551,88.8816396 C47.8854149,88.8816396 48.9138125,87.8641825 48.9138125,86.6130651 C48.9138125,85.3619477 47.8854149,84.3415328 46.6178551,84.3415328 L34.8122099,84.3415328 C34.5252153,72.9927447 34.3458436,61.629168 34.3458436,50.236014 C34.3458436,48.9878543 33.3204356,47.9674395 32.0528758,47.9674395 C30.785316,47.9674395 29.7569184,48.9878543 29.7569184,50.236014 C29.7628975,121.002525 36.1515184,190.582989 37.882455,260.823026 C31.0543735,260.678098 24.271135,260.515423 17.598509,260.320213 C16.3309492,260.281762 15.2726563,261.266685 15.236782,262.526675 C15.2009077,263.777793 16.1964204,264.821869 17.4639802,264.86032 C24.2173235,265.055529 31.0782897,265.221162 37.9870884,265.369048 C38.1933658,274.863343 38.318926,284.369469 38.318926,293.893341 C38.318926,295.144459 39.344334,296.161916 40.6118938,296.161916 C41.8794536,296.161916 42.9078512,295.144459 42.9078512,293.893341 C42.9078512,284.396089 42.782291,274.925455 42.5760136,265.466653 C72.1274957,266.058198 102.877778,266.25045 133.684862,266.25045 C186.62641,266.25045 239.687538,265.700313 286.898161,265.700313 C288.165721,265.700313 289.194118,264.682856 289.194118,263.431739 C289.194118,262.180621 288.165721,261.160207 286.898161,261.160207 Z M80.4114772,252.807593 C82.4054922,253.402096 84.5430046,253.561813 86.7612342,253.561813 C91.1618191,253.55294 95.9450635,252.905198 100.103497,252.905198 C100.205141,252.905198 100.294826,252.860832 100.390491,252.849001 C100.536978,252.831255 100.674496,252.813509 100.817994,252.769143 C100.985407,252.712946 101.131894,252.63013 101.281371,252.53844 C101.356109,252.494074 101.439816,252.479286 101.511564,252.426047 L116.079533,241.260638 L116.973402,239.382483 C116.345601,223.694713 114.964439,177.758297 114.964439,157.92084 C114.964439,154.134953 115.018251,151.260045 115.125874,149.90245 C115.224528,148.65429 114.279837,147.56289 113.012278,147.465285 C112.776105,147.447538 112.55189,147.49782 112.327676,147.548101 C112.17521,147.506693 112.022744,147.465285 111.85832,147.456412 L96.9166601,146.737685 L95.4218962,147.19909 C94.2798966,148.059787 91.1289343,149.90245 87.8852966,151.801309 C84.6087742,153.717914 81.1857649,155.729166 79.0213468,157.281972 C79.0153677,157.284929 79.0123782,157.290845 79.0093886,157.29676 C78.7881636,157.459435 78.6087919,157.66056 78.4623051,157.888305 C78.4234412,157.944502 78.3965355,158.006614 78.3636506,158.065769 C78.2649962,158.249148 78.1962371,158.438442 78.1513942,158.645483 C78.1394361,158.707595 78.1185094,158.769707 78.1095408,158.831819 C78.1065513,158.873227 78.0886141,158.90872 78.0856246,158.950128 C77.4757609,166.912322 77.2425777,177.93576 77.2425777,189.784404 C77.2425777,212.689021 78.1005722,238.583897 78.7821845,250.75789 C78.8330065,251.70732 79.4877131,252.532525 80.4114772,252.807593 Z M83.2694657,248.752553 C82.6147592,236.078705 81.8315029,211.535508 81.8315029,189.784404 C81.8315029,178.763923 82.0377803,168.485831 82.5549686,160.854903 C84.1453974,160.529553 86.4084699,160.372794 88.7133958,160.384624 C91.0870809,160.384624 93.5295251,160.511807 95.6072469,160.633073 C95.8314615,180.603628 97.9241309,224.274427 97.9241309,244.108926 C97.9241309,245.732717 97.9091833,247.170171 97.879288,248.433119 C93.9899124,248.586921 90.073631,249.027622 86.7612342,249.021706 C85.4548105,249.021706 84.3128109,248.915228 83.2694657,248.752553 L83.2694657,248.752553 Z M97.4547751,151.313284 L105.601238,151.706661 C102.922621,153.496085 99.7925858,155.146495 96.9734611,156.160994 C95.024289,156.051558 92.5399914,155.90663 89.9450813,155.865222 C90.0377566,155.811983 90.1274425,155.755786 90.2201178,155.702547 C93.093054,154.019602 95.7387861,152.481585 97.4547751,151.313284 L97.4547751,151.313284 Z M129.403858,252.807593 C131.397873,253.402096 133.535386,253.561813 135.753615,253.561813 C140.1542,253.55294 144.937445,252.905198 149.095878,252.905198 C149.197522,252.905198 149.287208,252.860832 149.385862,252.849001 C149.529359,252.831255 149.669867,252.813509 149.810375,252.769143 C149.980778,252.712946 150.124276,252.63013 150.273752,252.53844 C150.34849,252.494074 150.432197,252.479286 150.503946,252.426047 L165.068925,241.260638 L165.956815,239.382483 C165.340972,223.747952 163.965789,122.77716 163.971768,85.3708209 C163.965789,78.2604517 164.02558,73.3476716 164.127224,72.0521884 C164.225878,70.801071 163.281187,69.7096708 162.016617,69.620939 C161.777455,69.6031927 161.55324,69.653474 161.329026,69.706713 C161.17656,69.6653049 161.024094,69.620939 160.85967,69.6120659 L145.935947,68.8962966 L144.453141,69.3458707 C143.364953,70.1622026 140.4113,71.7416273 137.358992,73.365418 C134.27081,75.0128704 131.024183,76.7431391 128.799974,78.3403102 C128.405356,78.6212941 128.169183,79.0176291 128.019707,79.4405837 C127.478603,79.8250878 127.119859,80.4255059 127.069037,81.1057825 C126.465153,89.1064267 126.237949,108.93501 126.237949,132.549481 C126.237949,178.548009 127.095943,238.468546 127.777555,250.75789 C127.825388,251.70732 128.480094,252.532525 129.403858,252.807593 L129.403858,252.807593 Z M132.273805,248.752553 C131.619099,233.543935 130.829863,176.54563 130.829863,132.549481 C130.829863,110.473027 131.033151,91.5761265 131.538381,83.0105569 C133.143758,82.6852072 135.418788,82.5284478 137.729693,82.5432365 C140.097399,82.5432365 142.524896,82.6733763 144.584681,82.7916853 C144.755084,100.801269 146.019654,164.046287 146.61158,207.888634 C146.512926,208.290885 146.503957,208.699051 146.629518,209.095386 C146.8059,222.298667 146.916512,233.668159 146.916512,241.367116 C146.916512,244.318924 146.901565,246.682146 146.86569,248.433119 C142.979304,248.586921 139.066012,249.027622 135.753615,249.021706 C134.453171,249.021706 133.314161,248.915228 132.273805,248.752553 L132.273805,248.752553 Z M161.326036,238.388687 L151.4875,245.930884 C151.499458,244.58512 151.508427,243.100342 151.508427,241.367116 C151.508427,238.545447 151.49049,235.191387 151.463584,231.479443 C154.632483,228.435945 157.849215,224.73879 160.925439,220.988395 C161.071926,228.850026 161.212434,234.925192 161.326036,238.388687 L161.326036,238.388687 Z M149.825323,100.375356 C153.021128,97.3910124 156.270745,93.6613221 159.382843,89.8843082 C159.394801,94.2085011 159.418717,99.1508584 159.454592,104.533917 C159.409749,104.58124 159.346969,104.60786 159.305115,104.661099 C156.204975,108.547548 152.889589,112.602588 149.687804,115.998056 C149.59214,110.425703 149.502454,105.252644 149.427716,100.623805 C149.562244,100.543947 149.711721,100.48775 149.831302,100.375356 L149.825323,100.375356 L149.825323,100.375356 Z M151.218443,209.225526 C154.354457,206.187943 157.523357,202.544027 160.548759,198.846871 C160.632466,204.256549 160.716172,209.361581 160.79689,214.031828 C160.662361,214.138306 160.512885,214.22408 160.399282,214.366051 C157.499441,217.995178 154.414248,221.754446 151.406783,225.007943 C151.35895,220.180937 151.293181,214.871821 151.218443,209.225526 L151.218443,209.225526 Z M160.441136,191.928754 C160.228879,192.061852 160.025592,192.209738 159.861167,192.416779 C157.051011,195.942386 154.058494,199.580387 151.131746,202.771771 C151.059998,197.885611 150.98526,192.810156 150.904542,187.610477 C154.031588,184.620217 157.203477,180.99109 160.234858,177.29985 C160.303618,182.307277 160.372377,187.202311 160.441136,191.928754 L160.441136,191.928754 Z M160.139194,170.25455 C160.049508,170.334409 159.938895,170.387648 159.861167,170.485253 C156.946378,174.143958 153.834279,177.93576 150.802898,181.207003 C150.722181,176.110845 150.635485,170.9437 150.548788,165.767683 C153.70573,162.753762 156.898545,159.089141 159.950853,155.362409 C160.010644,160.343216 160.073424,165.329939 160.139194,170.25455 L160.139194,170.25455 Z M159.870136,148.302321 C159.771482,148.385137 159.65788,148.444291 159.574173,148.547812 C156.629488,152.242009 153.493473,156.084093 150.441165,159.378998 C150.354469,154.265093 150.264783,149.180765 150.178087,144.188126 C153.373892,141.200825 156.608561,137.482965 159.708702,133.705951 C159.756534,138.491549 159.810346,143.374752 159.870136,148.302321 L159.870136,148.302321 Z M159.636953,126.554174 C159.619016,126.574878 159.59211,126.583751 159.574173,126.607413 C156.509907,130.452455 153.236374,134.47496 150.067474,137.849723 C149.974799,132.490327 149.882124,127.29952 149.798417,122.336459 C149.807386,122.327586 149.822333,122.324628 149.831302,122.315755 L149.825323,122.315755 C153.062981,119.298876 156.354451,115.515947 159.505414,111.682736 C159.544278,116.40918 159.58912,121.401818 159.636953,126.554174 L159.636953,126.554174 Z M159.379854,82.6704186 C159.361916,82.6940804 159.329032,82.7029536 159.311094,82.7295731 C156.088383,86.7491204 152.644447,90.9490889 149.329061,94.4184995 C149.248344,89.0620608 149.191543,84.8029378 149.167627,81.9398607 C152.787945,80.4314213 156.450116,78.2900289 159.427686,76.0096235 C159.40078,77.796089 159.388822,80.0143822 159.379854,82.6704186 L159.379854,82.6704186 Z M146.456125,73.4718961 L154.59362,73.8623157 C151.903045,75.660612 148.773009,77.3198954 145.959863,78.3166485 C143.867194,78.1983395 141.137755,78.0356646 138.32162,78.0120028 C138.728196,77.796089 139.128792,77.5772174 139.532379,77.3642612 C142.228933,75.9120186 144.722199,74.6106199 146.456125,73.4718961 L146.456125,73.4718961 Z M178.405208,252.807593 C180.396234,253.402096 182.533746,253.561813 184.748986,253.561813 C189.143592,253.55294 193.929826,252.905198 198.079291,252.905198 C198.183924,252.905198 198.27062,252.860832 198.369275,252.849001 C198.515762,252.831255 198.65328,252.813509 198.793788,252.769143 C198.964191,252.712946 199.110678,252.63013 199.260154,252.53844 C199.331903,252.494074 199.418599,252.479286 199.487358,252.426047 L214.052338,241.260638 L214.940227,239.382483 C214.330364,223.605981 212.955181,195.821119 212.95817,181.95235 C212.95817,179.346595 213.008992,177.225907 213.113626,175.850565 C213.209291,174.602405 212.26161,173.511005 210.99704,173.422273 C210.760868,173.404527 210.539642,173.454808 210.318417,173.505089 C210.165951,173.463681 210.016475,173.419315 209.855041,173.4134 L194.922349,172.6858 L193.439544,173.138332 C190.856592,175.051979 181.678741,180.819542 177.711638,182.857414 C177.684732,182.872202 177.669784,182.895864 177.645868,182.910653 C177.607004,182.925441 177.562161,182.931357 177.523298,182.946145 C176.698188,183.26558 176.130178,184.019799 176.061419,184.895286 C175.460523,192.771705 175.233319,200.769392 175.233319,208.610319 C175.233319,223.898796 176.103272,238.61939 176.778905,250.75789 C176.829727,251.70732 177.481444,252.532525 178.405208,252.807593 L178.405208,252.807593 Z M181.260207,248.749595 C180.602511,236.954191 179.822244,223.017394 179.822244,208.610319 C179.822244,201.378683 180.049449,194.040569 180.554679,186.803018 C182.151087,186.483584 184.402201,186.329782 186.698158,186.341613 C189.071843,186.335697 191.511298,186.465837 193.580051,186.584146 C193.834161,205.235556 195.905904,229.707766 195.902914,244.996243 C195.902914,246.211868 195.884977,247.344676 195.858072,248.433119 C191.971685,248.586921 188.058394,249.027622 184.748986,249.021706 C183.442563,249.021706 182.303553,248.91227 181.260207,248.749595 L181.260207,248.749595 Z M195.484381,177.264357 L203.594969,177.660692 C200.910373,179.450115 197.780338,181.106441 194.973171,182.112067 C193.167497,182.011504 190.892466,181.881365 188.479917,181.831083 C191.263167,180.100815 193.855088,178.408996 195.484381,177.264357 L195.484381,177.264357 Z M227.400579,252.807593 C229.388615,253.402096 231.526127,253.561813 233.741368,253.561813 C238.138963,253.55294 242.916228,252.905198 247.074661,252.905198 C247.176305,252.905198 247.265991,252.860832 247.364646,252.849001 C247.508143,252.831255 247.648651,252.813509 247.789159,252.769143 C247.956572,252.712946 248.106049,252.63013 248.252535,252.53844 C248.327274,252.494074 248.41098,252.479286 248.482729,252.426047 L263.050698,241.260638 L263.944567,239.382483 C263.334703,223.765698 261.947562,141.461104 261.953541,109.757258 C261.947562,103.637726 262.007353,99.3283218 262.114976,98.0091768 C262.21363,96.7580594 261.271929,95.6666592 260.010348,95.5690543 C259.765207,95.5513079 259.538003,95.6015892 259.313788,95.6548283 C259.158333,95.6134201 259.002877,95.5690543 258.838453,95.5601811 L243.914731,94.8325809 L242.425946,95.2851127 C241.346726,96.1014446 238.399052,97.6808694 235.340765,99.30466 C232.261551,100.952112 229.017914,102.691254 226.799684,104.279552 C226.402077,104.560536 226.162915,104.959829 226.013438,105.382783 C225.469344,105.770245 225.107611,106.370663 225.056789,107.053898 C224.449915,115.027922 224.225701,131.87512 224.225701,151.52624 C224.225701,189.846516 225.086685,238.486292 225.774276,250.75789 C225.822108,251.70732 226.476815,252.532525 227.400579,252.807593 L227.400579,252.807593 Z M230.264547,248.752553 C229.60984,234.327732 228.814626,188.110332 228.814626,151.52624 C228.814626,133.182434 229.020903,117.204807 229.526133,108.96163 C231.125531,108.63628 233.391593,108.485436 235.699508,108.500225 C238.076183,108.491352 240.512648,108.621492 242.581401,108.739801 C242.799637,131.180055 244.901275,213.2362 244.895296,242.156828 C244.898285,244.709344 244.880348,246.806371 244.844474,248.433119 C240.958088,248.586921 237.047785,249.027622 233.741368,249.021706 C232.440923,249.021706 231.304902,248.915228 230.264547,248.752553 L230.264547,248.752553 Z M259.313788,238.391645 L249.469273,245.930884 C249.481231,244.789203 249.4902,243.558789 249.4902,242.156828 C249.4902,240.361489 249.481231,238.347279 249.466284,236.170394 C252.647141,233.165346 255.875831,229.453402 258.972982,225.688219 C259.098542,231.154094 259.215134,235.522652 259.313788,238.391645 L259.313788,238.391645 Z M257.376574,116.151858 C257.394511,120.60619 257.433375,125.681645 257.484197,131.156393 C257.358637,131.256956 257.218129,131.336814 257.113496,131.466954 C254.10902,135.238052 250.889299,139.171826 247.7772,142.514054 C247.663598,136.989025 247.558965,131.783431 247.469279,127.09248 C250.781676,123.980954 254.156853,120.082673 257.376574,116.151858 L257.376574,116.151858 Z M258.043239,175.007613 C255.017837,178.796458 251.792136,182.736147 248.674059,186.057671 C248.572415,180.843203 248.464792,175.578454 248.357169,170.358071 C251.523079,167.287953 254.7428,163.578967 257.822014,159.810826 C257.890773,164.844873 257.962522,169.941032 258.043239,175.007613 L258.043239,175.007613 Z M258.817527,218.637004 C258.799589,218.660666 258.772684,218.669539 258.751757,218.693201 C255.738313,222.467257 252.521581,226.401031 249.406493,229.740301 C249.352682,224.975408 249.277943,219.654462 249.185268,213.954927 C252.309325,210.967625 255.484203,207.329624 258.524553,203.61768 C258.623207,209.009612 258.721862,214.058447 258.817527,218.637004 L258.817527,218.637004 Z M257.729338,152.898624 C257.502134,153.03468 257.286888,153.197354 257.113496,153.416226 C254.249528,157.006903 251.19722,160.721805 248.22264,163.95164 C248.115017,158.799284 248.010384,153.741576 247.90874,148.873161 C251.128461,145.808959 254.416942,142.028987 257.555946,138.198735 C257.603778,142.916305 257.663569,147.846831 257.729338,152.898624 L257.729338,152.898624 Z M258.398993,196.58717 C258.336213,196.649282 258.252506,196.681817 258.198694,196.752802 C255.259989,200.438127 252.123974,204.265422 249.077645,207.551454 C248.990949,202.668251 248.898273,197.589838 248.799619,192.404948 C251.920686,189.470885 255.101544,185.829927 258.153851,182.12094 C258.231579,187.054424 258.315286,191.905092 258.398993,196.58717 L258.398993,196.58717 Z M257.361627,109.094727 C257.176276,109.218952 256.990925,109.346134 256.844438,109.529513 C253.783162,113.365681 250.512618,117.37044 247.349698,120.742246 C247.254033,115.353272 247.188264,110.958094 247.164347,107.887976 C250.775697,106.385452 254.434879,104.249975 257.40348,101.96957 C257.376574,103.865471 257.364616,106.267143 257.361627,109.094727 L257.361627,109.094727 Z M244.437898,99.4111381 L252.59333,99.8074732 C249.908734,101.599854 246.76973,103.259137 243.950605,104.264764 C241.845977,104.149412 239.10458,103.989695 236.282466,103.968991 C236.698011,103.747162 237.110565,103.522375 237.52312,103.303503 C240.216685,101.860134 242.706961,100.549862 244.437898,99.4111381 L244.437898,99.4111381 Z" id="Fill-1"></path>
                    </g>
                </g>
            </g>
        </g>
    </g>
</svg>