<?xml version="1.0" encoding="UTF-8" standalone="no"?>
<svg width="290px" height="277px" viewBox="0 0 290 277" version="1.1" xmlns="http://www.w3.org/2000/svg" xmlns:xlink="http://www.w3.org/1999/xlink" xmlns:sketch="http://www.bohemiancoding.com/sketch/ns">
    <!-- Generator: Sketch 3.1 (8751) - http://www.bohemiancoding.com/sketch -->
    <title>Fill 1</title>
    <desc>Created with Sketch.</desc>
    <defs></defs>
    <g id="How-to-crowdfund" stroke="none" stroke-width="1" fill="none" fill-rule="evenodd" sketch:type="MSPage">
        <g sketch:type="MSArtboardGroup" transform="translate(-141.000000, -499.000000)" id="Rules" fill="#D8D8D8">
            <g sketch:type="MSLayerGroup" transform="translate(-14.000000, 359.000000)">
                <g transform="translate(86.000000, 102.000000)" id="Illustration" sketch:type="MSShapeGroup">
                    <g transform="translate(65.000000, 0.000000)">
                        <path d="M287.125235,276.256739 C275.573993,276.256739 263.664203,276.289274 251.521357,276.336598 C250.182775,247.481039 247.980689,148.057137 246.800467,124.667454 C246.713817,123.082113 245.429018,121.81325 243.830489,121.733391 C240.543793,121.570716 237.206303,121.484942 233.883753,121.484942 C230.546263,121.484942 227.21176,121.570716 223.937016,121.733391 C222.347451,121.81325 221.077591,123.052536 220.967039,124.631961 C220.832583,126.873916 220.784776,131.757119 220.784776,138.692982 C220.784776,172.165548 222.132322,251.580445 223.883234,276.469695 C217.605645,276.50223 211.289214,276.534765 204.921988,276.5673 C203.595358,251.382278 201.405224,206.898104 200.192134,183.656307 C193.76515,183.327999 187.081206,183.327999 180.654222,183.656307 C179.910234,195.620302 181.454981,251.113125 183.55249,276.676736 C173.74021,276.724059 163.877135,276.76251 153.975217,276.789129 C152.660539,250.175526 150.431562,179.722534 149.224448,156.276653 C149.137799,154.691313 147.852999,153.419491 146.25447,153.342591 C142.979726,153.179916 139.654188,153.094142 136.319686,153.094142 C132.982195,153.094142 129.659645,153.179916 126.384901,153.342591 C124.795335,153.419491 123.525476,154.673566 123.426875,156.238203 C123.280467,158.4772 123.229673,162.576606 123.229673,168.143043 C123.229673,194.818758 124.577218,253.970286 126.346058,276.82758 C120.011699,276.82758 113.686304,276.812791 107.369873,276.795045 C106.031291,252.979449 103.844144,228.013298 102.640019,204.727135 C96.2130347,204.4077 89.5021997,204.4077 83.0871673,204.727135 C82.3461668,216.682256 83.8998775,252.500298 85.9854353,276.691525 C68.5211297,276.570258 51.2450621,276.360259 34.3454705,276.023079 C34.172172,269.084258 33.954055,262.157267 33.7030709,255.23915 L44.9734492,255.23915 C46.6974704,255.23915 48.1017859,253.851978 48.1017859,252.142413 C48.1017859,250.429891 46.6974704,249.042718 44.9734492,249.042718 L33.4819659,249.042718 C33.1562843,240.678274 32.7827961,232.322702 32.3854048,223.973047 L44.9734492,223.973047 C46.6974704,223.973047 48.1017859,222.588832 48.1017859,220.876309 C48.1017859,219.166745 46.6974704,217.779572 44.9734492,217.779572 L32.0925901,217.779572 C31.6802591,209.421043 31.2500008,201.071387 30.8107787,192.721732 L42.3231773,192.721732 C44.0442107,192.721732 45.451514,191.337517 45.451514,189.624994 C45.451514,187.91543 44.0442107,186.528257 42.3231773,186.528257 L30.4850971,186.528257 C30.0428871,178.169728 29.606653,169.814157 29.1793825,161.458586 L42.3231773,161.458586 C44.0442107,161.458586 45.451514,160.074371 45.451514,158.361849 C45.451514,156.649326 44.0442107,155.265111 42.3231773,155.265111 L29.0150477,155.265111 C28.9612654,155.265111 28.9194348,155.291731 28.8656525,155.294689 C28.4473458,146.93616 28.0589181,138.574673 27.7003695,130.213187 L37.8861381,130.213187 C39.6101594,130.213187 41.0144748,128.828972 41.0144748,127.116449 C41.0144748,125.403927 39.6101594,124.019712 37.8861381,124.019712 L27.4344459,124.019712 C27.0968126,115.670056 26.8099737,107.314485 26.5709413,98.9559562 L37.8861381,98.9559562 C39.6101594,98.9559562 41.0144748,97.5717413 41.0144748,95.8592189 C41.0144748,94.1466965 39.6101594,92.7624815 37.8861381,92.7624815 L26.3976428,92.7624815 C26.1108039,81.2243991 25.9345175,69.6744857 25.9345175,58.1009105 C25.9345175,56.3883882 24.5302021,55.0041732 22.8061808,55.0041732 C21.0731958,55.0041732 19.6778441,56.3883882 19.6778441,58.1009105 C19.6778441,131.331206 26.2601992,203.292638 28.0858092,275.887024 C21.2614339,275.739137 14.4759013,275.573505 7.80092114,275.378295 C6.07689987,275.330971 4.63672959,276.673778 4.5859352,278.383343 C4.53812872,280.095865 5.89463766,281.515573 7.62762265,281.57177 C14.4101673,281.769937 21.2972887,281.93557 28.2292287,282.086414 C28.4353941,291.699018 28.5608862,301.323452 28.5608862,310.965634 C28.5608862,312.678156 29.9681895,314.062371 31.6922108,314.062371 C33.4132441,314.062371 34.8175596,312.678156 34.8175596,310.965634 C34.8175596,301.361903 34.6890796,291.784792 34.48889,282.222469 C64.9416193,282.825845 96.613414,283.024012 128.327039,283.024012 C183.205893,283.024012 238.1953,282.450214 287.125235,282.450214 C288.849256,282.450214 290.253571,281.063041 290.253571,279.353476 C290.253571,277.640954 288.849256,276.256739 287.125235,276.256739 L287.125235,276.256739 Z M243.776707,231.982564 C243.767743,231.991437 243.755791,231.994395 243.74384,232.006226 C242.790698,233.05326 239.480099,235.191695 236.118706,236.839147 C233.414651,238.202658 230.486504,239.350255 228.639979,239.853068 C228.523451,235.833521 228.415886,231.651299 228.308322,227.37443 C231.179698,226.821335 234.678535,225.395712 238.222191,223.647697 C240.080668,222.704183 241.867435,221.731092 243.459989,220.725465 C243.567553,224.543887 243.67213,228.309071 243.776707,231.982564 L243.776707,231.982564 Z M243.247847,213.135945 C243.182113,213.192142 243.098452,213.215803 243.035706,213.280873 C242.070613,214.333823 238.771965,216.475216 235.410572,218.11971 C232.81707,219.429982 230.005452,220.545044 228.158926,221.074477 C228.066301,216.957325 227.976664,212.781018 227.890015,208.581049 C230.704621,207.980631 234.083942,206.608247 237.511069,204.922345 C239.45022,203.94038 241.296745,202.922923 242.934117,201.872931 C243.038694,205.635156 243.143271,209.400339 243.247847,213.135945 L243.247847,213.135945 Z M242.724964,194.292283 C242.60246,194.383973 242.462028,194.437212 242.351476,194.549605 C241.374431,195.605513 238.063832,197.74099 234.702439,199.388442 C232.246381,200.624771 229.611048,201.689552 227.767511,202.251519 C227.689825,198.069297 227.618115,193.898906 227.549394,189.772881 C230.289303,189.139928 233.510264,187.814867 236.802936,186.202907 C238.819772,185.182493 240.726055,184.117712 242.414222,183.023354 C242.515811,186.735298 242.620387,190.500481 242.724964,194.292283 L242.724964,194.292283 Z M242.202081,175.427918 C242.007867,175.5551 241.795725,175.649747 241.631391,175.824253 C240.666297,176.88016 237.35271,179.024511 233.994305,180.669005 C231.70557,181.81956 229.261463,182.816313 227.447805,183.401943 C227.385059,179.148735 227.328289,174.987217 227.277494,170.949923 C229.927766,170.27852 232.996345,169.006698 236.118706,167.477555 C238.198288,166.424605 240.158353,165.327289 241.879387,164.191523 C241.983963,167.823609 242.091528,171.579919 242.202081,175.427918 L242.202081,175.427918 Z M228.828217,246.135275 C231.732461,245.599927 235.311971,244.144726 238.918373,242.37305 C240.723067,241.459113 242.447089,240.515599 243.997812,239.545465 C244.105376,243.174593 244.209953,246.673581 244.314529,250.018767 C243.941041,250.178484 243.591456,250.415102 243.292666,250.725663 C242.327573,251.772697 239.013986,253.920005 235.65558,255.558584 C233.429591,256.688435 231.042255,257.664484 229.243536,258.256029 C229.100116,254.505635 228.959685,250.432848 228.828217,246.135275 L228.828217,246.135275 Z M238.467199,261.092487 C240.687213,259.971509 242.757831,258.797293 244.553562,257.584626 C244.801558,265.168231 245.037603,271.565788 245.249744,276.247866 L230.139907,276.247866 C229.92179,273.198452 229.709649,269.255806 229.503484,264.603305 C232.183635,263.943733 235.30002,262.654165 238.467199,261.092487 L238.467199,261.092487 Z M241.658282,156.60496 C241.40431,156.752847 241.144362,156.888902 240.935209,157.110731 C239.967127,158.157766 236.66848,160.302116 233.310075,161.943653 C231.20659,163.002518 228.962673,163.937159 227.202797,164.534619 C227.157978,160.157187 227.119135,155.998627 227.092244,152.115135 C229.614036,151.405281 232.491389,150.180783 235.410572,148.752202 C237.540948,147.669675 239.551809,146.536867 241.311685,145.368566 C241.422237,148.867554 241.538766,152.629779 241.658282,156.60496 L241.658282,156.60496 Z M240.675261,127.847007 C240.797765,130.568113 240.923257,133.922173 241.057713,137.808623 C240.767886,137.959466 240.478059,138.125099 240.236039,138.37059 C239.258994,139.438329 235.948395,141.570848 232.601941,143.2183 C230.710597,144.173645 228.717665,145.019554 227.053401,145.619972 C227.044438,143.138442 227.038462,140.816628 227.038462,138.692982 C227.032486,134.087805 227.062365,130.372904 227.116147,127.844049 C229.363052,127.767149 231.606969,127.678417 233.883753,127.678417 C236.160536,127.678417 238.419393,127.767149 240.675261,127.847007 L240.675261,127.847007 Z M146.747475,254.269017 C146.550273,254.396199 146.335144,254.493804 146.167821,254.668309 C145.202728,255.727175 141.889141,257.868567 138.530735,259.513062 C136.146387,260.719813 133.579777,261.760932 131.745203,262.331773 C131.574892,258.820954 131.413545,255.026194 131.255186,251.018478 C134.013023,250.394398 137.302706,249.048633 140.643184,247.404139 C142.701851,246.36302 144.646977,245.274577 146.359047,244.1536 C146.490515,247.643714 146.618995,251.024393 146.747475,254.269017 L146.747475,254.269017 Z M146.078184,236.626191 C145.877994,236.753373 145.665853,236.850978 145.495542,237.025484 C144.518497,238.084349 141.192959,240.225742 137.834553,241.870236 C135.438254,243.082903 132.856703,244.129938 131.02213,244.703736 C130.890662,241.02137 130.768158,237.223652 130.651629,233.354948 C133.400502,232.719037 136.648355,231.388061 139.947002,229.761313 C142.023596,228.711321 143.980674,227.616963 145.701708,226.484155 C145.8272,229.903284 145.952692,233.295794 146.078184,236.626191 L146.078184,236.626191 Z M145.42682,218.941958 C145.202728,219.078013 144.966683,219.193364 144.775457,219.388574 C143.807376,220.441524 140.496777,222.588832 137.135384,224.233326 C134.795854,225.413458 132.289002,226.433873 130.466379,227.013587 C130.361803,223.239531 130.263202,219.435898 130.173565,215.652968 C132.874631,214.999311 136.032847,213.70087 139.238869,212.118488 C141.339366,211.056665 143.317359,209.94456 145.05632,208.799921 C145.178824,212.159896 145.301328,215.552406 145.42682,218.941958 L145.42682,218.941958 Z M144.778445,201.257724 C144.530449,201.399695 144.273489,201.529835 144.067324,201.745749 C143.099242,202.798698 139.788643,204.946006 136.42725,206.590501 C134.201261,207.714436 131.825876,208.687528 130.030145,209.279072 C129.946484,205.431073 129.868798,201.633355 129.803064,197.945073 C132.429433,197.261839 135.468133,195.99889 138.554639,194.481578 C140.667088,193.410882 142.657032,192.29582 144.401969,191.139349 C144.524473,194.425381 144.649965,197.814933 144.778445,201.257724 L144.778445,201.257724 Z M132.57584,276.247866 C132.40553,274.041404 132.238207,271.480014 132.073872,268.62581 C134.819757,267.9899 138.055658,266.661881 141.342354,265.046964 C143.395045,264.008803 145.337183,262.923318 147.046265,261.80234 C147.273346,267.3392 147.485487,272.237192 147.679701,276.247866 L132.57584,276.247866 L132.57584,276.247866 Z M144.11513,183.594195 C143.849207,183.745039 143.580295,183.889967 143.356202,184.12067 C142.415012,185.161789 139.104413,187.309096 135.74302,188.947676 C133.669414,189.99471 131.4494,190.923435 129.698488,191.523853 C129.635742,187.55163 129.587935,183.747996 129.55208,180.2076 C132.079848,179.500704 134.957201,178.276206 137.858457,176.844668 C139.976881,175.768056 141.969814,174.644121 143.717739,173.481735 C143.846219,176.655373 143.977686,180.03901 144.11513,183.594195 L144.11513,183.594195 Z M143.108206,159.453249 C143.200831,161.402389 143.299432,163.588148 143.404009,165.9632 C143.144061,166.108129 142.878137,166.250099 142.66002,166.471929 C141.694927,167.530794 138.384328,169.672186 135.034886,171.316681 C133.152506,172.269068 131.162561,173.114977 129.501286,173.715395 C129.492322,171.730762 129.486346,169.867396 129.486346,168.143043 C129.486346,164.593774 129.507262,161.627176 129.555068,159.453249 C131.801973,159.376348 134.048878,159.287616 136.319686,159.287616 C138.596469,159.287616 140.852338,159.376348 143.108206,159.453249 L143.108206,159.453249 Z M56.3394404,151.109509 C57.9768124,153.227239 59.8083983,155.554968 61.580226,157.054535 C62.6080654,157.903401 64.0601873,158.018753 65.2105308,157.338476 L148.390822,108.030254 C153.249156,112.381067 167.217613,124.868579 173.98223,130.606564 C175.090743,131.544162 176.7072,131.597402 177.878458,130.745577 C190.917676,121.236493 214.710365,105.888862 235.165564,92.9665645 C251.237506,82.8186125 265.220902,74.187973 270.518458,70.9256031 C273.09702,74.2678315 275.532163,78.96174 278.218289,82.9398792 L281.065763,84.2886014 L283.653289,82.4932628 C288.090328,72.8274198 291.68179,56.9562712 293.32215,46.7166297 C293.57911,45.0662196 292.479561,43.5104566 290.815297,43.1969378 C280.734105,41.2980788 265.250781,38.7633091 254.216447,38.7514782 L253.38581,38.7573937 L250.708646,40.3101989 L250.696695,43.3714436 C251.969542,45.5926945 253.899729,48.0239439 255.794061,50.4729396 C256.89361,51.8837741 257.957304,53.2827777 258.856664,54.5427682 C247.356217,61.9104594 201.007832,91.7095317 177.071724,108.926445 C173.09781,105.459992 167.671774,100.514677 163.007654,96.2082304 C157.557715,91.1830568 153.132628,87.0274541 153.120676,87.0215387 C152.119728,86.0721092 150.60486,85.8976035 149.40671,86.5808378 C149.382807,86.5985841 85.5312737,123.017043 54.3823625,142.848585 L53.0019503,144.845049 L53.4919668,147.20827 C53.5039184,147.23489 54.7498748,149.018398 56.3394404,151.109509 L56.3394404,151.109509 Z M150.518211,93.1026198 C155.152452,97.4356859 168.116972,109.506159 174.860674,115.238228 C175.972175,116.175827 177.585644,116.229066 178.75989,115.377242 C191.846915,105.832665 213.413614,91.4788292 231.669715,79.5473694 C249.928803,67.601121 264.847414,58.0861219 264.883269,58.0624601 C266.266669,57.1810583 266.717842,55.3827619 265.92306,53.9571388 C264.614357,51.6471561 262.648315,49.1478791 260.756972,46.6929679 C260.347629,46.1694507 259.944261,45.651849 259.549858,45.1401627 C268.137097,45.6695953 278.594765,47.2726819 286.638206,48.7278823 C285.266758,56.4386695 282.897349,66.5718329 280.193295,74.3092397 C278.251156,71.0498275 276.12078,67.5449242 273.425689,64.7350861 C272.400838,63.6821363 270.775418,63.481011 269.517509,64.2500194 C269.481655,64.2795966 204.082387,104.34493 176.187304,124.303653 C167.36402,116.702302 150.894687,101.922554 150.873772,101.90185 C149.845932,100.981997 148.343016,100.837069 147.156818,101.53805 L64.1050059,150.772328 C63.2265618,149.778533 62.2076861,148.536289 61.3352178,147.376861 C61.0483789,147.00123 60.7884312,146.652218 60.5314713,146.306164 C75.946074,136.607786 98.0595601,123.516899 116.742931,112.617685 C132.444373,103.457613 145.662865,95.879923 150.518211,93.1026198 L150.518211,93.1026198 Z" id="Fill-1"></path>
                    </g>
                </g>
            </g>
        </g>
    </g>
</svg>