<svg xmlns="http://www.w3.org/2000/svg" width="747" height="132"><g fill="none"><path fill="#D8D8D8" d="M172.079889,59.6434463 L172.079889,73.3227666 L241.863061,73.3227666 L241.863061,87 L260,66.3067674 L242.424387,45 L242.424387,57.4042532 L172,57.4042532 L172.079889,59.6434463M523.079889,59.6434463 L523.079889,73.3227666 L592.863061,73.3227666 L592.863061,87 L611,66.3067674 L593.424387,45 L593.424387,57.4042532 L523,57.4042532 L523.079889,59.6434463" transform="translate(-327.000000, -1679.000000) translate(-16.500000, 1631.000000) translate(344.000000, 48.000000)"/><g><path id="Fill-1" fill="#064831" d="M35.014,86.598 C35.007,86.651 34.998,86.705 34.998,86.762 L34.998,96.969 C34.998,98.911 36.588,100.5 38.529,100.5 L52.094,100.5 C54.038,100.5 55.626,98.911 55.626,96.969 L55.626,86.762 C55.626,86.699 55.615,86.641 55.607,86.582 C55.559,86.584 55.511,86.598 55.461,86.598 L35.014,86.598" transform="translate(-327.000000, -1679.000000) translate(-16.500000, 1631.000000) translate(344.000000, 48.000000) translate(0.000000, 13.000000)"/><path id="Fill-2" fill="#00C051" d="M45.449,10.117 C46.544,10.117 47.434,9.228 47.434,8.133 L47.434,2.196 C47.434,1.103 46.544,0.216 45.449,0.216 C44.354,0.216 43.465,1.103 43.465,2.196 L43.465,8.133 C43.465,9.228 44.354,10.117 45.449,10.117" transform="translate(-327.000000, -1679.000000) translate(-16.500000, 1631.000000) translate(344.000000, 48.000000) translate(0.000000, 13.000000)"/><path id="Fill-3" fill="#00C051" d="M87.996,38.06 L82.06,38.06 C80.964,38.06 80.075,38.949 80.075,40.045 C80.075,41.141 80.964,42.029 82.06,42.029 L87.996,42.029 C89.089,42.029 89.977,41.141 89.977,40.045 C89.977,38.949 89.089,38.06 87.996,38.06" transform="translate(-327.000000, -1679.000000) translate(-16.500000, 1631.000000) translate(344.000000, 48.000000) translate(0.000000, 13.000000)"/><path id="Fill-4" fill="#00C051" d="M8.093,38.06 L2.156,38.06 C1.061,38.06 0.172,38.949 0.172,40.045 C0.172,41.141 1.061,42.029 2.156,42.029 L8.093,42.029 C9.185,42.029 10.073,41.141 10.073,40.045 C10.073,38.949 9.185,38.06 8.093,38.06" transform="translate(-327.000000, -1679.000000) translate(-16.500000, 1631.000000) translate(344.000000, 48.000000) translate(0.000000, 13.000000)"/><path id="Fill-5" fill="#00C051" d="M26.044,13.243 C26.592,14.188 27.805,14.515 28.752,13.97 C29.7,13.422 30.026,12.206 29.479,11.258 L26.852,6.71 C26.305,5.761 25.092,5.435 24.143,5.982 C23.195,6.531 22.869,7.744 23.419,8.692 L26.044,13.243" transform="translate(-327.000000, -1679.000000) translate(-16.500000, 1631.000000) translate(344.000000, 48.000000) translate(0.000000, 13.000000)"/><path id="Fill-6" fill="#00C051" d="M15.402,25.063 C15.951,24.112 15.626,22.9 14.676,22.353 L10.127,19.727 C9.181,19.18 7.97,19.504 7.42,20.454 C6.873,21.402 7.197,22.614 8.146,23.161 L12.695,25.788 C13.643,26.337 14.856,26.011 15.402,25.063" transform="translate(-327.000000, -1679.000000) translate(-16.500000, 1631.000000) translate(344.000000, 48.000000) translate(0.000000, 13.000000)"/><path id="Fill-7" fill="#00C051" d="M83.256,20.452 C82.707,19.504 81.495,19.178 80.547,19.727 L75.997,22.352 C75.049,22.899 74.724,24.112 75.271,25.062 C75.817,26.011 77.032,26.337 77.978,25.786 L82.528,23.161 C83.478,22.613 83.804,21.402 83.256,20.452" transform="translate(-327.000000, -1679.000000) translate(-16.500000, 1631.000000) translate(344.000000, 48.000000) translate(0.000000, 13.000000)"/><path id="Fill-8" fill="#00C051" d="M62.147,13.968 C63.095,14.514 64.309,14.19 64.853,13.239 L67.482,8.691 C68.028,7.745 67.703,6.53 66.757,5.98 C65.809,5.434 64.595,5.76 64.049,6.71 L61.421,11.259 C60.872,12.205 61.199,13.417 62.147,13.968" transform="translate(-327.000000, -1679.000000) translate(-16.500000, 1631.000000) translate(344.000000, 48.000000) translate(0.000000, 13.000000)"/><path id="Fill-9" fill="#00C051" d="M45.352,18.976 C28.654,18.976 15.07,32.56 15.07,49.256 C15.07,59.132 19.871,68.353 27.94,74.031 C28.184,74.459 28.358,74.837 28.473,75.178 C29.311,77.687 30.18,81.54 30.265,82.236 C30.315,84.53 32.411,86.598 34.71,86.598 L55.461,86.598 C55.511,86.598 55.559,86.584 55.607,86.582 C57.848,86.495 59.856,84.479 59.906,82.235 C59.991,81.538 60.858,77.682 61.695,75.179 C61.759,74.989 61.846,74.782 61.963,74.544 C70.535,68.911 75.634,59.505 75.634,49.256 C75.634,32.56 62.05,18.976 45.352,18.976 L45.352,18.976 Z M58.195,71.824 C57.802,72.536 57.528,73.138 57.333,73.72 C56.566,76.014 55.406,80.652 55.313,81.998 L34.857,81.998 C34.767,80.646 33.622,76.072 32.835,73.718 C32.568,72.922 32.182,72.127 31.617,71.215 C31.447,70.94 31.221,70.703 30.952,70.521 C23.888,65.728 19.67,57.778 19.67,49.256 C19.67,35.096 31.19,23.575 45.352,23.575 C59.513,23.575 71.034,35.096 71.034,49.256 C71.034,58.123 66.529,66.248 58.984,70.99 C58.655,71.197 58.384,71.484 58.195,71.824 L58.195,71.824 Z" transform="translate(-327.000000, -1679.000000) translate(-16.500000, 1631.000000) translate(344.000000, 48.000000) translate(0.000000, 13.000000)"/><path fill="#FF619A" d="M55.129,57.024 C55.428,56.554 55.524,55.997 55.402,55.455 C55.261,54.818 54.817,54.322 54.246,54.057 C54.113,53.99 53.975,53.935 53.825,53.896 C53.81,53.893 53.795,53.885 53.778,53.881 L53.742,53.873 C53.701,53.865 53.666,53.844 53.624,53.839 C53.608,53.837 53.594,53.838 53.578,53.836 L45.404,52.008 L53.823,50.123 C54.367,50.001 54.83,49.677 55.129,49.206 C55.427,48.734 55.524,48.176 55.402,47.633 C55.211,46.774 54.495,46.127 53.624,46.019 C53.539,46.009 53.454,46.003 53.369,46.003 C53.217,46.003 53.063,46.019 52.913,46.055 L35.606,49.929 C35.595,49.93 35.583,49.93 35.571,49.931 C35.54,49.935 35.513,49.951 35.482,49.956 L35.33,49.99 C35.255,50.007 35.187,50.037 35.115,50.06 C35.056,50.083 34.991,50.094 34.934,50.121 C34.046,50.517 33.528,51.496 33.748,52.481 C33.939,53.338 34.656,53.986 35.529,54.093 C35.606,54.103 35.684,54.106 35.761,54.106 L43.82,55.909 L35.82,57.7 C35.737,57.7 35.653,57.705 35.571,57.715 C35.091,57.774 34.67,58.01 34.347,58.343 C34.227,58.458 34.114,58.583 34.022,58.727 C33.724,59.198 33.626,59.757 33.748,60.301 C33.942,61.16 34.657,61.81 35.524,61.913 C35.612,61.924 35.701,61.931 35.789,61.931 C35.82,61.931 35.851,61.922 35.882,61.92 L43.897,63.712 L35.329,65.63 C34.207,65.882 33.497,67 33.748,68.123 C33.942,68.98 34.657,69.628 35.48,69.726 C36.994,70.165 41.343,71.379 41.346,71.379 C42.751,71.891 43.673,72.31 43.673,73.423 L43.645,81.964 L47.971,81.964 L47.999,71.082 C48.008,70.106 47.543,69.274 46.758,68.858 C46.278,68.605 45.172,68.266 44.035,67.954 L53.823,65.765 C54.366,65.644 54.83,65.318 55.129,64.848 C55.427,64.376 55.524,63.816 55.402,63.275 C55.297,62.8 55.021,62.402 54.655,62.111 C54.408,61.902 54.115,61.741 53.778,61.665 L45.483,59.81 L53.823,57.942 C54.367,57.821 54.831,57.496 55.129,57.024" transform="translate(-327.000000, -1679.000000) translate(-16.500000, 1631.000000) translate(344.000000, 48.000000) translate(0.000000, 13.000000)"/><path fill="#064831" d="M45.312,106.44 C47.83,106.44 49.932,104.761 50.622,102.469 L40.002,102.469 C40.693,104.761 42.795,106.44 45.312,106.44" transform="translate(-327.000000, -1679.000000) translate(-16.500000, 1631.000000) translate(344.000000, 48.000000) translate(0.000000, 13.000000)"/></g><g><path id="Fill-1" fill="#00C051" d="M13.172,109.615 C11.984,109.615 11.021,110.578 11.021,111.766 L11.021,119.977 C11.021,121.165 11.984,122.128 13.172,122.128 C14.359,122.128 15.322,121.165 15.322,119.977 L15.322,111.766 C15.322,110.578 14.359,109.615 13.172,109.615" transform="translate(-327.000000, -1679.000000) translate(-16.500000, 1631.000000) translate(344.000000, 48.000000) translate(695.000000, 0.000000)"/><path id="Fill-2" fill="#00C051" d="M37.355,117.93 C36.168,117.93 35.205,118.893 35.205,120.08 L35.205,129.598 C35.205,130.785 36.168,131.748 37.355,131.748 C38.543,131.748 39.506,130.785 39.506,129.598 L39.506,120.08 C39.506,118.893 38.543,117.93 37.355,117.93" transform="translate(-327.000000, -1679.000000) translate(-16.500000, 1631.000000) translate(344.000000, 48.000000) translate(695.000000, 0.000000)"/><path id="Fill-3" fill="#00C051" d="M41.24,88.423 L36.648,85.95 C35.908,85.552 34.997,85.658 34.368,86.218 C33.74,86.777 33.53,87.67 33.842,88.451 L38.068,99.057 L32.171,96.814 C31.637,96.609 31.039,96.647 30.531,96.912 C30.024,97.178 29.655,97.648 29.519,98.204 L26.423,110.737 L22.967,97.991 C22.815,97.434 22.43,96.968 21.909,96.716 C21.39,96.464 20.786,96.448 20.254,96.674 L14.785,98.999 L17.698,87.977 C17.899,87.216 17.635,86.406 17.021,85.911 C16.407,85.414 15.559,85.325 14.858,85.685 L11.381,87.452 L13.815,78.351 C13.86,78.178 13.875,78.005 13.875,77.834 C13.875,76.95 13.293,76.141 12.398,75.901 C11.33,75.617 10.234,76.251 9.949,77.317 L6.358,90.751 C6.155,91.514 6.419,92.325 7.032,92.821 C7.646,93.319 8.496,93.409 9.197,93.05 L12.69,91.274 L9.874,101.928 C9.679,102.666 9.921,103.451 10.498,103.95 C11.077,104.452 11.889,104.577 12.59,104.279 L19.707,101.253 L24.583,119.236 C24.82,120.108 25.611,120.713 26.514,120.713 L26.536,120.713 C27.447,120.702 28.237,120.077 28.455,119.192 L32.86,101.355 L40.9,104.413 C41.641,104.693 42.478,104.513 43.037,103.947 C43.594,103.382 43.763,102.54 43.469,101.804 L39.593,92.078 L43.335,94.093 C44.033,94.468 44.887,94.396 45.512,93.91 C46.137,93.424 46.416,92.614 46.223,91.846 L42.586,77.348 C42.317,76.276 41.231,75.626 40.16,75.895 C39.252,76.122 38.652,76.938 38.652,77.834 C38.653,77.995 38.666,78.157 38.707,78.32 L41.24,88.423" transform="translate(-327.000000, -1679.000000) translate(-16.500000, 1631.000000) translate(344.000000, 48.000000) translate(695.000000, 0.000000)"/><path id="Fill-4" fill="#064831" d="M43.928,49.312 C43.142,57.898 40.797,63.551 37.201,66.901 L37.082,66.901 L49.947,80.358 C50.582,81.022 51.102,80.814 51.102,79.895 L51.102,58.492 C51.102,52.299 47.141,50.065 43.928,49.312" transform="translate(-327.000000, -1679.000000) translate(-16.500000, 1631.000000) translate(344.000000, 48.000000) translate(695.000000, 0.000000)"/><path id="Fill-5" fill="#064831" d="M8.1,49.261 C4.854,49.969 0.723,52.17 0.723,58.492 L0.723,79.895 C0.723,80.814 1.242,81.022 1.878,80.358 L14.744,66.901 L14.718,66.901 C11.153,63.544 8.861,57.876 8.1,49.261" transform="translate(-327.000000, -1679.000000) translate(-16.500000, 1631.000000) translate(344.000000, 48.000000) translate(695.000000, 0.000000)"/><path id="Fill-6" fill="#FF619A" d="M25.94,0.048 L25.94,0.048 C25.942,0.048 25.946,0.049 25.949,0.049 C25.946,0.049 25.943,0.048 25.94,0.048" transform="translate(-327.000000, -1679.000000) translate(-16.500000, 1631.000000) translate(344.000000, 48.000000) translate(695.000000, 0.000000)"/><path id="Fill-7" fill="#FF619A" d="M43.928,49.312 C44.121,47.203 44.224,44.925 44.224,42.453 C44.224,31.284 40.859,19.923 36.727,11.77 L15.061,11.77 C11.018,19.922 7.817,31.284 7.817,42.453 C7.817,44.904 7.915,47.167 8.1,49.261 C8.861,57.876 11.153,63.544 14.718,66.901 L23.849,66.901 L23.849,52.731 C23.849,51.081 24.965,49.731 26.328,49.731 C27.692,49.731 28.809,51.081 28.809,52.731 L28.809,66.901 L37.201,66.901 C40.797,63.551 43.142,57.898 43.928,49.312 L43.928,49.312 Z M26.036,40.096 C21.569,40.096 17.942,36.472 17.942,32.002 C17.942,27.53 21.569,23.905 26.036,23.905 C30.507,23.905 34.132,27.53 34.132,32.002 C34.132,36.472 30.507,40.096 26.036,40.096 L26.036,40.096 Z" transform="translate(-327.000000, -1679.000000) translate(-16.500000, 1631.000000) translate(344.000000, 48.000000) translate(695.000000, 0.000000)"/><path id="Fill-8" fill="#064831" d="M26.328,49.731 C24.965,49.731 23.849,51.081 23.849,52.731 L23.849,78.566 C23.849,80.217 24.965,81.566 26.328,81.566 C27.692,81.566 28.809,80.217 28.809,78.566 L28.809,52.731 C28.809,51.081 27.692,49.731 26.328,49.731" transform="translate(-327.000000, -1679.000000) translate(-16.500000, 1631.000000) translate(344.000000, 48.000000) translate(695.000000, 0.000000)"/><path fill="#064831" d="M36.734,11.77 C36.494,11.297 36.252,10.838 36.008,10.387 C35.977,10.33 35.945,10.276 35.915,10.221 C35.657,9.749 35.398,9.293 35.136,8.849 C35.064,8.726 34.991,8.602 34.919,8.482 C34.627,7.996 34.334,7.521 34.039,7.07 C34.016,7.034 33.991,6.995 33.968,6.959 C33.782,6.678 33.597,6.408 33.411,6.143 C33.352,6.058 33.293,5.969 33.234,5.886 C33.065,5.648 32.897,5.421 32.727,5.196 C32.651,5.094 32.575,4.99 32.499,4.891 C32.339,4.684 32.18,4.485 32.021,4.29 C31.936,4.186 31.852,4.081 31.767,3.98 C31.613,3.798 31.461,3.623 31.309,3.453 C31.218,3.352 31.127,3.251 31.037,3.153 C30.891,2.995 30.744,2.842 30.598,2.695 C30.503,2.6 30.409,2.507 30.315,2.416 C30.173,2.279 30.03,2.146 29.89,2.02 C29.794,1.935 29.699,1.854 29.605,1.774 C29.467,1.658 29.328,1.543 29.191,1.437 C29.096,1.363 29.001,1.297 28.906,1.229 C28.772,1.132 28.638,1.035 28.505,0.95 C28.41,0.89 28.317,0.838 28.225,0.783 C28.094,0.707 27.963,0.629 27.834,0.563 C27.743,0.518 27.655,0.484 27.565,0.444 C27.438,0.388 27.308,0.326 27.182,0.281 C27.104,0.254 27.028,0.239 26.951,0.217 C26.662,0.132 26.381,0.079 26.108,0.064 C26.065,0.063 26.019,0.051 25.975,0.051 C25.967,0.051 25.958,0.05 25.949,0.049 C25.946,0.049 25.942,0.048 25.94,0.048 L25.939,0.048 C25.729,0.048 25.514,0.069 25.297,0.108 C25.219,0.122 25.139,0.148 25.061,0.168 C24.919,0.201 24.778,0.233 24.635,0.282 C24.537,0.314 24.438,0.36 24.339,0.4 C24.212,0.452 24.085,0.502 23.956,0.564 C23.848,0.617 23.737,0.682 23.628,0.742 C23.507,0.81 23.386,0.876 23.264,0.952 C23.147,1.025 23.029,1.107 22.911,1.189 C22.795,1.27 22.679,1.352 22.561,1.44 C22.438,1.534 22.313,1.636 22.188,1.738 C22.075,1.831 21.963,1.926 21.85,2.025 C21.72,2.14 21.59,2.26 21.459,2.384 C21.351,2.486 21.242,2.592 21.134,2.7 C20.997,2.837 20.86,2.977 20.724,3.124 C20.622,3.232 20.521,3.346 20.418,3.459 C20.274,3.62 20.131,3.783 19.986,3.955 C19.894,4.065 19.8,4.181 19.707,4.295 C19.554,4.483 19.401,4.673 19.248,4.871 C19.167,4.977 19.086,5.089 19.005,5.198 C18.841,5.417 18.678,5.637 18.515,5.867 C18.452,5.957 18.389,6.052 18.326,6.144 C18.145,6.406 17.963,6.67 17.783,6.947 C17.763,6.977 17.743,7.01 17.724,7.04 C17.435,7.486 17.148,7.956 16.863,8.436 C16.783,8.572 16.703,8.71 16.623,8.848 C16.388,9.254 16.154,9.672 15.923,10.1 C15.87,10.197 15.816,10.292 15.764,10.391 C15.524,10.84 15.287,11.299 15.054,11.77 L36.734,11.77" transform="translate(-327.000000, -1679.000000) translate(-16.500000, 1631.000000) translate(344.000000, 48.000000) translate(695.000000, 0.000000)"/></g><g><path fill="#FF619A" d="M75.545,76.941 C75.545,78.87 73.967,80.449 72.039,80.449 L43.944,80.449 C47.226,87.478 53.463,92.922 61.326,95.027 L67.082,105.001 C67.338,105.442 67.809,105.714 68.316,105.714 C68.828,105.714 69.299,105.444 69.555,105.001 L75.31,95.027 C87.07,91.878 95.232,81.276 95.23,69.04 C95.23,65.357 94.485,61.846 93.142,58.647 L75.545,58.647 L75.545,76.941" transform="translate(-327.000000, -1679.000000) translate(-16.500000, 1631.000000) translate(344.000000, 48.000000) translate(342.000000, 13.000000)"/><path fill="#00C051" d="M75.545,76.941 L75.545,58.647 L71.417,58.647 L71.417,75.416 L45.86,54.23 L45.643,54.049 L62.695,40.346 L62.695,35.577 L37.824,55.565 L8.393,31.689 L62.695,31.689 L62.695,27.561 L4.467,27.561 C2.539,27.561 0.963,29.137 0.963,31.067 L0.963,76.941 C0.963,78.87 2.539,80.449 4.467,80.449 L72.039,80.449 C73.967,80.449 75.545,78.87 75.545,76.941 L75.545,76.941 Z M36.646,59.395 C36.977,59.663 37.393,59.812 37.818,59.812 C38.238,59.812 38.652,59.667 38.982,59.402 L42.686,56.425 L66.688,76.321 L7.851,76.321 L33.24,56.632 L36.646,59.395 L36.646,59.395 Z M30.277,54.228 L5.091,73.761 L5.091,33.794 L30.277,54.228 L30.277,54.228 Z" transform="translate(-327.000000, -1679.000000) translate(-16.500000, 1631.000000) translate(344.000000, 48.000000) translate(342.000000, 13.000000)"/><path fill="#064831" d="M94.568,0.521 L66.238,0.521 C64.29,0.521 62.695,2.115 62.695,4.065 L62.695,55.104 C62.695,57.052 64.29,58.647 66.238,58.647 L94.568,58.647 C96.517,58.647 98.111,57.052 98.111,55.104 L98.111,4.065 C98.111,2.115 96.517,0.521 94.568,0.521 L94.568,0.521 Z M78.574,3.694 L82.23,3.694 C82.906,3.694 83.453,4.239 83.453,4.915 C83.453,5.589 82.906,6.136 82.23,6.136 L78.574,6.136 C77.9,6.136 77.355,5.589 77.355,4.915 C77.355,4.239 77.9,3.694 78.574,3.694 L78.574,3.694 Z M73.48,46.146 L67.695,46.146 L67.695,9.271 L93.111,9.271 L93.111,46.146 L73.48,46.146 L73.48,46.146 Z M80.402,55.456 C78.793,55.456 77.486,54.149 77.486,52.54 C77.486,50.929 78.793,49.622 80.402,49.622 C82.016,49.622 83.322,50.929 83.322,52.54 C83.322,54.149 82.016,55.456 80.402,55.456 L80.402,55.456 Z" transform="translate(-327.000000, -1679.000000) translate(-16.500000, 1631.000000) translate(344.000000, 48.000000) translate(342.000000, 13.000000)"/><path fill="#00C051" d="M80.402,49.622 C78.793,49.622 77.486,50.929 77.486,52.54 C77.486,54.149 78.793,55.456 80.402,55.456 C82.016,55.456 83.322,54.149 83.322,52.54 C83.322,50.929 82.016,49.622 80.402,49.622M78.574,6.136 L82.23,6.136 C82.906,6.136 83.453,5.589 83.453,4.915 C83.453,4.239 82.906,3.694 82.23,3.694 L78.574,3.694 C77.9,3.694 77.355,4.239 77.355,4.915 C77.355,5.589 77.9,6.136 78.574,6.136M74.973,20.122 L85.625,20.122 C86.666,20.122 87.512,19.276 87.512,18.233 C87.512,17.19 86.666,16.343 85.625,16.343 L74.973,16.343 C73.93,16.343 73.084,17.19 73.084,18.233 C73.084,19.276 73.93,20.122 74.973,20.122M74.973,29.504 L85.625,29.504 C86.666,29.504 87.512,28.658 87.512,27.615 C87.512,26.572 86.666,25.725 85.625,25.725 L74.973,25.725 C73.93,25.725 73.084,26.572 73.084,27.615 C73.084,27.658 73.094,27.699 73.097,27.742 C73.163,28.725 73.974,29.504 74.973,29.504M85.625,35.107 L74.973,35.107 C74.362,35.107 73.826,35.402 73.48,35.852 C73.235,36.171 73.084,36.565 73.084,36.998 C73.084,37.431 73.235,37.825 73.48,38.144 C73.826,38.593 74.362,38.887 74.973,38.887 L85.625,38.887 C86.666,38.887 87.512,38.041 87.512,36.998 C87.512,35.955 86.666,35.107 85.625,35.107" transform="translate(-327.000000, -1679.000000) translate(-16.500000, 1631.000000) translate(344.000000, 48.000000) translate(342.000000, 13.000000)"/></g></g></svg>