<svg width="16" height="16" viewBox="0 0 16 16" xmlns="http://www.w3.org/2000/svg"><path d="M8 0c-4.419 0-8 3.582-8 8s3.581 8 8 8c4.418 0 8-3.582 8-8s-3.582-8-8-8zm3.976 5.992l.008.262c0 2.669-2.064 5.746-5.841 5.746-1.159 0-2.235-.336-3.144-.907.161.018.331.028.497.028.962 0 1.861-.324 2.564-.865-.899-.016-1.629-.6-1.89-1.403.126.024.311.038.443.038.187 0 .483-.026.655-.072-.938-.186-1.419-1.002-1.419-1.979v-.028c0 .153.366.244.703.254-.551-.363-1.141-.98-1.141-1.681 0-.369.101-.717.278-1.015 1.013 1.222 2.526 2.026 4.232 2.11-.036-.148-.053-.302-.053-.461 0-1.115.918-2.019 2.053-2.019.591 0 1.123.245 1.499.639.467-.091.907-.259 1.303-.491-.154.472-.479.868-.902 1.118.415-.05.81-.159 1.178-.319-.275.405-.621.76-1.024 1.045z" fill="#8A9993"/></svg>