<svg width="22" height="22" viewBox="0 0 22 22" xmlns="http://www.w3.org/2000/svg"><path d="M21.251 19.653l-4.21-4.252-.008-.006c1.193-1.611 1.909-3.605 1.909-5.771 0-5.306-4.25-9.625-9.471-9.625s-9.471 4.319-9.471 9.625 4.25 9.625 9.471 9.625c2.131 0 4.093-.727 5.677-1.939l.005.008 4.185 4.278c.264.268.61.403.957.403.346 0 .693-.135.957-.403.529-.538.529-1.407 0-1.944zm-11.78-3.153c-3.73 0-6.765-3.084-6.765-6.875s3.035-6.875 6.765-6.875c3.73 0 6.765 3.084 6.765 6.875s-3.035 6.875-6.765 6.875z" fill="#9F9F9F"/></svg>