<svg width="19" height="19" viewBox="0 0 19 19" xmlns="http://www.w3.org/2000/svg"><path d="M9.5 0c-5.246 0-9.5 4.254-9.5 9.5s4.254 9.5 9.5 9.5 9.5-4.254 9.5-9.5-4.254-9.5-9.5-9.5zm1.188 14.844c0 .328-.266.594-.594.594h-1.188c-.328 0-.594-.266-.594-.594v-1.188c0-.328.266-.594.594-.594h1.188c.328 0 .594.266.594.594v1.188zm0-4.361v.798c0 .328-.266.594-.594.594h-1.188c-.328 0-.594-.266-.594-.594v-1.781c0-.657.148-1.188.891-1.188h.891c.328 0 .594-.266.594-.594v-1.188c0-.328-.266-.594-.594-.594h-1.188c-.328 0-.594.266-.594.594 0 .165-.112.594-.594.594h-1.188c-.445 0-.599-.267-.545-.591.283-1.684 1.752-2.971 3.514-2.971 1.964 0 3.563 1.598 3.563 3.563 0 1.549-.993 2.869-2.375 3.358z" fill="#bbb"/></svg>
