<svg width="74" height="74" viewBox="0 0 74 74" xmlns="http://www.w3.org/2000/svg"><g transform="translate(1 1)" fill="none"><circle stroke="#fff" stroke-width="2" cx="36" cy="36" r="36"/><path d="M47.424 26.132c1.245-.643 1.377-.453.305.425l-21.837 17.895c-.952.688-1.532 2.023-1.532 3.143v9.1c0 1.35.707 1.71 1.762.81l8.879-7.69 6.422 6.03c.505.47 1.095.338 1.342-.295l14.155-36.758c.247-.633-.097-.953-.757-.713l-38.567 13.928c-.665.238-.792.815-.285 1.288l4.837 4.543c.502.473 1.417.598 2.037.275l23.239-11.98" fill="#fff"/></g></svg>
