<svg width="14" height="16" viewBox="0 0 14 16" xmlns="http://www.w3.org/2000/svg"><g fill="#00C051"><path d="M10 3.182v1.49c0 .276.182.485.385.672.989.911 1.615 2.208 1.615 3.656 0 2.757-2.243 5-5 5s-5-2.243-5-5c0-1.448.626-2.745 1.615-3.656.203-.187.385-.38.385-.656v-1.506c0-.277-.204-.406-.444-.269-2.122 1.201-3.556 3.475-3.556 6.087 0 3.866 3.135 7 7 7s7-3.134 7-7c0-2.612-1.434-4.886-3.556-6.087-.24-.137-.444-.008-.444.269M7 7c.553 0 1-.447 1-1v-5c0-.553-.447-1-1-1-.553 0-1 .447-1 1v5c0 .553.447 1 1 1"/></g></svg>