<svg width="18" height="18" viewBox="0 0 18 18" xmlns="http://www.w3.org/2000/svg" xmlns:sketch="http://www.bohemiancoding.com/sketch/ns"><title>icon-close-modal 2</title><desc>Created with Sketch.</desc><path d="M11.501 8.573l5.122-5.122c.406-.404.406-1.057 0-1.463l-1.463-1.463c-.406-.404-1.06-.404-1.463 0l-5.122 5.122-5.122-5.122c-.404-.404-1.057-.404-1.463 0l-1.463 1.463c-.406.406-.406 1.06 0 1.463l5.122 5.122-5.122 5.122c-.406.404-.406 1.057 0 1.463l1.463 1.463c.406.404 1.06.404 1.463 0l5.122-5.122 5.122 5.122c.404.404 1.057.404 1.463 0l1.463-1.463c.406-.406.406-1.06 0-1.463l-5.122-5.122z" sketch:type="MSShapeGroup" fill="#fff"/></svg>