<svg width="22" height="22" viewBox="0 0 22 22" xmlns="http://www.w3.org/2000/svg"><g transform="translate(1 1)" fill="none"><circle stroke="#fff" cx="10" cy="10" r="9.776"/><path d="M13.69 12.36l-2.327-2.327 2.327-2.327c.184-.183.184-.48 0-.665l-.665-.665c-.184-.183-.481-.183-.665 0l-2.327 2.327-2.327-2.327c-.183-.183-.48-.183-.665 0l-.665.665c-.184.184-.184.481 0 .665l2.327 2.327-2.327 2.327c-.184.183-.184.48 0 .665l.665.665c.184.183.481.183.665 0l2.327-2.327 2.327 2.327c.183.183.48.183.665 0l.665-.665c.184-.184.184-.481 0-.665" fill="#fff"/></g></svg>
