<svg width="30" height="22" viewBox="0 0 30 22" xmlns="http://www.w3.org/2000/svg"><g fill="#8A9993"><path d="M2.143 4h25.714c1.183 0 2.143-.894 2.143-2 0-1.106-.96-2-2.143-2h-25.714c-1.183 0-2.143.894-2.143 2 0 1.106.96 2 2.143 2"/><path d="M27.857 9h-25.714c-1.183 0-2.143.894-2.143 2 0 1.106.96 2 2.143 2h25.714c1.183 0 2.143-.894 2.143-2 0-1.106-.96-2-2.143-2"/><path d="M27.857 18h-25.714c-1.183 0-2.143.894-2.143 2 0 1.106.96 2 2.143 2h25.714c1.183 0 2.143-.894 2.143-2 0-1.106-.96-2-2.143-2"/></g></svg>
