<?xml version="1.0" encoding="iso-8859-1"?>
<!-- Generator: Adobe Illustrator 16.0.0, SVG Export Plug-In . SVG Version: 6.00 Build 0)  -->
<!DOCTYPE svg PUBLIC "-//W3C//DTD SVG 1.1//EN" "http://www.w3.org/Graphics/SVG/1.1/DTD/svg11.dtd">
<svg version="1.1" id="Layer_1" xmlns="http://www.w3.org/2000/svg" xmlns:xlink="http://www.w3.org/1999/xlink" x="0px" y="0px"
	 width="16px" height="16px" viewBox="0 0 16 16" style="enable-background:new 0 0 16 16;" xml:space="preserve">
<g id="Dribbble_2">
	<path d="M8.217,7.57C7.541,7.789,6.84,7.906,6.125,7.906c-0.637,0-1.258-0.09-1.857-0.262C4.258,7.762,4.25,7.881,4.25,8
		c0,0.9,0.318,1.727,0.85,2.374C5.955,9.312,7.136,8.571,8.471,8.26C8.401,8.025,8.316,7.796,8.217,7.57z"/>
	<path d="M8.707,6.215C9.3,5.914,9.834,5.518,10.283,5.033C9.651,4.545,8.86,4.25,8,4.25c-0.354,0-0.693,0.053-1.018,0.145
		C7.662,4.891,8.252,5.508,8.707,6.215z"/>
	<path d="M5.882,11.092C6.484,11.506,7.214,11.75,8,11.75c0.137,0,0.271-0.008,0.404-0.023c0.205-0.59,0.314-1.209,0.314-1.852
		c0-0.197-0.011-0.39-0.029-0.577C7.574,9.562,6.588,10.191,5.882,11.092z"/>
	<path d="M7.686,6.622c-0.481-0.688-1.112-1.265-1.84-1.687C5.255,5.352,4.791,5.934,4.519,6.613
		C5.541,6.911,6.647,6.914,7.686,6.622z"/>
	<path d="M9.209,7.148c0.139,0.316,0.252,0.639,0.339,0.967c0.108-0.006,0.225-0.021,0.327-0.021c0.641,0,1.262,0.1,1.855,0.289
		C11.744,8.258,11.75,8.129,11.75,8c0-0.824-0.271-1.586-0.724-2.205C10.504,6.348,9.889,6.803,9.209,7.148z"/>
	<path d="M9.743,9.166c0.023,0.229,0.038,0.467,0.038,0.709c0,0.516-0.062,1.018-0.174,1.508c0.84-0.4,1.51-1.104,1.864-1.971
		c-0.509-0.17-1.044-0.256-1.597-0.256C9.834,9.156,9.785,9.164,9.743,9.166z"/>
	<path d="M8,0C3.582,0,0,3.582,0,8s3.582,8,8,8s8-3.582,8-8S12.418,0,8,0z M8,13c-2.758,0-5-2.242-5-5s2.242-5,5-5s5,2.242,5,5
		S10.758,13,8,13z"/>
</g>
<g>
</g>
<g>
</g>
<g>
</g>
<g>
</g>
<g>
</g>
<g>
</g>
<g>
</g>
<g>
</g>
<g>
</g>
<g>
</g>
<g>
</g>
<g>
</g>
<g>
</g>
<g>
</g>
<g>
</g>
</svg>
