<?xml version="1.0" encoding="iso-8859-1"?>
<!-- Generator: Adobe Illustrator 16.0.0, SVG Export Plug-In . SVG Version: 6.00 Build 0)  -->
<!DOCTYPE svg PUBLIC "-//W3C//DTD SVG 1.1//EN" "http://www.w3.org/Graphics/SVG/1.1/DTD/svg11.dtd">
<svg version="1.1" id="Layer_1" xmlns="http://www.w3.org/2000/svg" xmlns:xlink="http://www.w3.org/1999/xlink" x="0px" y="0px"
	 width="16px" height="16px" viewBox="0 0 16 16" style="enable-background:new 0 0 16 16;" xml:space="preserve">
<g id="Dribbble_1">
	<path d="M8,0C3.589,0,0,3.589,0,8s3.589,8,8,8s8-3.589,8-8S12.411,0,8,0z M14,8c0,0.207-0.011,0.412-0.031,0.613
		C13.019,8.311,12.025,8.15,11,8.15c-0.164,0-0.351,0.025-0.523,0.035c-0.14-0.525-0.32-1.042-0.543-1.547
		c1.088-0.556,2.072-1.282,2.909-2.167C13.566,5.464,14,6.681,14,8z M11.654,3.252c-0.721,0.775-1.575,1.411-2.523,1.892
		c-0.729-1.13-1.672-2.119-2.76-2.913C6.891,2.084,7.436,2,8,2C9.376,2,10.642,2.471,11.654,3.252z M4.553,3.097
		c1.165,0.675,2.174,1.598,2.943,2.699c-1.66,0.468-3.43,0.462-5.066-0.015C2.865,4.693,3.608,3.763,4.553,3.097z M2,8
		c0-0.191,0.012-0.381,0.029-0.568C2.988,7.705,3.982,7.85,5,7.85c1.145,0,2.266-0.187,3.346-0.537
		c0.16,0.36,0.296,0.728,0.406,1.104C6.617,8.914,4.729,10.1,3.359,11.798C2.511,10.763,2,9.44,2,8z M4.61,12.946
		c1.13-1.44,2.708-2.446,4.493-2.869C9.133,10.376,9.15,10.685,9.15,11c0,1.027-0.176,2.02-0.504,2.964C8.435,13.986,8.219,14,8,14
		C6.742,14,5.576,13.609,4.61,12.946z M10.571,13.413C10.75,12.629,10.85,11.824,10.85,11c0-0.389-0.022-0.768-0.061-1.136
		C10.856,9.862,10.934,9.85,11,9.85c0.885,0,1.74,0.139,2.555,0.41C12.988,11.646,11.917,12.771,10.571,13.413z"/>
</g>
<g>
</g>
<g>
</g>
<g>
</g>
<g>
</g>
<g>
</g>
<g>
</g>
<g>
</g>
<g>
</g>
<g>
</g>
<g>
</g>
<g>
</g>
<g>
</g>
<g>
</g>
<g>
</g>
<g>
</g>
</svg>
