<?xml version="1.0" encoding="iso-8859-1"?>
<!-- Generator: Adobe Illustrator 16.0.0, SVG Export Plug-In . SVG Version: 6.00 Build 0)  -->
<!DOCTYPE svg PUBLIC "-//W3C//DTD SVG 1.1//EN" "http://www.w3.org/Graphics/SVG/1.1/DTD/svg11.dtd">
<svg version="1.1" id="Layer_1" xmlns="http://www.w3.org/2000/svg" xmlns:xlink="http://www.w3.org/1999/xlink" x="0px" y="0px"
	 width="16px" height="16px" viewBox="0 0 16 16" style="enable-background:new 0 0 16 16;" xml:space="preserve">
<g id="Dribbble_3">
	<path d="M8.848,5.857C9.56,5.497,10.2,5.021,10.74,4.439C9.981,3.854,9.032,3.5,8,3.5c-0.424,0-0.832,0.062-1.222,0.173
		C7.594,4.269,8.302,5.01,8.848,5.857z"/>
	<path d="M5.458,11.71C6.182,12.207,7.057,12.5,8,12.5c0.164,0,0.326-0.01,0.484-0.027c0.246-0.708,0.379-1.452,0.379-2.223
		c0-0.236-0.014-0.468-0.035-0.692C7.488,9.875,6.305,10.629,5.458,11.71z"/>
	<path d="M7.622,6.347C7.045,5.521,6.288,4.828,5.414,4.322c-0.708,0.5-1.266,1.197-1.592,2.014C5.05,6.693,6.377,6.697,7.622,6.347
		z"/>
	<path d="M8.26,7.484C7.449,7.747,6.608,7.887,5.75,7.887c-0.764,0-1.509-0.107-2.229-0.312C3.509,7.715,3.5,7.856,3.5,8
		c0,1.08,0.383,2.072,1.02,2.849c1.027-1.274,2.443-2.163,4.045-2.536C8.481,8.03,8.379,7.755,8.26,7.484z"/>
	<path d="M15,0H1C0.447,0,0,0.447,0,1v14c0,0.553,0.447,1,1,1h14c0.553,0,1-0.447,1-1V1C16,0.447,15.553,0,15,0z M8,14
		c-3.309,0-6-2.691-6-6s2.691-6,6-6s6,2.691,6,6S11.309,14,8,14z"/>
	<path d="M9.45,6.979c0.167,0.379,0.303,0.767,0.407,1.16c0.13-0.007,0.27-0.025,0.393-0.025c0.77,0,1.514,0.119,2.227,0.347
		C12.492,8.309,12.5,8.155,12.5,8c0-0.989-0.325-1.902-0.868-2.646C11.004,6.018,10.266,6.562,9.45,6.979z"/>
	<path d="M10.092,9.398c0.028,0.275,0.045,0.561,0.045,0.852c0,0.618-0.074,1.222-0.208,1.81c1.009-0.481,1.812-1.325,2.237-2.364
		c-0.611-0.204-1.252-0.309-1.916-0.309C10.2,9.387,10.143,9.396,10.092,9.398z"/>
</g>
<g>
</g>
<g>
</g>
<g>
</g>
<g>
</g>
<g>
</g>
<g>
</g>
<g>
</g>
<g>
</g>
<g>
</g>
<g>
</g>
<g>
</g>
<g>
</g>
<g>
</g>
<g>
</g>
<g>
</g>
</svg>
