<?xml version="1.0" encoding="iso-8859-1"?>
<!-- Generator: Adobe Illustrator 16.0.0, SVG Export Plug-In . SVG Version: 6.00 Build 0)  -->
<!DOCTYPE svg PUBLIC "-//W3C//DTD SVG 1.1//EN" "http://www.w3.org/Graphics/SVG/1.1/DTD/svg11.dtd">
<svg version="1.1" id="Layer_1" xmlns="http://www.w3.org/2000/svg" xmlns:xlink="http://www.w3.org/1999/xlink" x="0px" y="0px"
	 width="16px" height="16px" viewBox="0 0 16 16" style="enable-background:new 0 0 16 16;" xml:space="preserve">
<g id="Foursquare_1">
	<g>
		<path d="M15.846,4.063L14.6,2.811c-0.101-0.101-0.231-0.155-0.372-0.155c-0.141,0-0.272,0.055-0.372,0.154L7.889,8.797
			L5.277,6.172C5.18,6.074,5.045,6.017,4.906,6.018S4.633,6.074,4.534,6.171L3.285,7.423c-0.205,0.206-0.206,0.539,0,0.744
			l4.227,4.249c0.085,0.085,0.194-0.085,0.312-0.072c0.02,0.002,0.04-0.219,0.061-0.219c0.001,0,0.002,0,0.004,0l0,0
			c0.142,0,0.275,0.167,0.375,0.068l7.583-7.497C16.051,4.491,16.051,4.269,15.846,4.063z"/>
	</g>
	<path d="M9.112,13.439c-0.327,0.328-0.762,0.685-1.223,0.685H7.884H7.81l0,0c-0.372-0.042-0.871-0.496-1.146-0.771L2.435,9.058
		c-0.671-0.668-0.672-1.786,0.001-2.46l1.249-1.262c0.325-0.322,0.768-0.51,1.218-0.512c0.459,0,0.904,0.183,1.226,0.506L7.89,7.098
		l3.971-3.985L9.304,0.549c-0.73-0.732-1.924-0.732-2.653,0L0.547,6.669c-0.729,0.731-0.729,1.93,0,2.661l6.104,6.121
		c0.729,0.732,1.924,0.732,2.653,0l6.103-6.121c0.682-0.684,0.718-1.682,0.125-2.418L9.112,13.439z"/>
</g>
<g>
</g>
<g>
</g>
<g>
</g>
<g>
</g>
<g>
</g>
<g>
</g>
<g>
</g>
<g>
</g>
<g>
</g>
<g>
</g>
<g>
</g>
<g>
</g>
<g>
</g>
<g>
</g>
<g>
</g>
</svg>
