<?xml version="1.0" encoding="iso-8859-1"?>
<!-- Generator: Adobe Illustrator 16.0.0, SVG Export Plug-In . SVG Version: 6.00 Build 0)  -->
<!DOCTYPE svg PUBLIC "-//W3C//DTD SVG 1.1//EN" "http://www.w3.org/Graphics/SVG/1.1/DTD/svg11.dtd">
<svg version="1.1" id="Layer_1" xmlns="http://www.w3.org/2000/svg" xmlns:xlink="http://www.w3.org/1999/xlink" x="0px" y="0px"
	 width="16px" height="16px" viewBox="0 0 16 16" style="enable-background:new 0 0 16 16;" xml:space="preserve">
<g id="Linkedin_2">
	<path style="fill-rule:evenodd;clip-rule:evenodd;" d="M15,0H1C0.447,0,0,0.447,0,1v14c0,0.553,0.447,1,1,1h14c0.553,0,1-0.447,1-1
		V1C16,0.447,15.553,0,15,0z M14,14H2V2h12V14z"/>
	<rect x="3" y="6" style="fill-rule:evenodd;clip-rule:evenodd;" width="2" height="7"/>
	<path style="fill-rule:evenodd;clip-rule:evenodd;" d="M8,13v-3c0-1,0.625-2,1.75-2c1,0,1.25,1.061,1.25,2v3h2V8.974
		c0-2.149-1.205-3.176-3.146-2.911C8.938,6.188,8.305,6.829,8,7.5V6H6.031c0.031,0-0.016,7-0.016,7H8z"/>
	<circle style="fill-rule:evenodd;clip-rule:evenodd;" cx="4" cy="4" r="1"/>
</g>
<g>
</g>
<g>
</g>
<g>
</g>
<g>
</g>
<g>
</g>
<g>
</g>
<g>
</g>
<g>
</g>
<g>
</g>
<g>
</g>
<g>
</g>
<g>
</g>
<g>
</g>
<g>
</g>
<g>
</g>
</svg>
