<?xml version="1.0" encoding="iso-8859-1"?>
<!-- Generator: Adobe Illustrator 16.0.0, SVG Export Plug-In . SVG Version: 6.00 Build 0)  -->
<!DOCTYPE svg PUBLIC "-//W3C//DTD SVG 1.1//EN" "http://www.w3.org/Graphics/SVG/1.1/DTD/svg11.dtd">
<svg version="1.1" id="Layer_1" xmlns="http://www.w3.org/2000/svg" xmlns:xlink="http://www.w3.org/1999/xlink" x="0px" y="0px"
	 width="16px" height="16px" viewBox="0 0 16 16" style="enable-background:new 0 0 16 16;" xml:space="preserve">
<g id="LinkedIn_3">
	<path style="fill-rule:evenodd;clip-rule:evenodd;" d="M15,0H1C0.447,0,0,0.447,0,1v14c0,0.553,0.447,1,1,1h14c0.553,0,1-0.447,1-1
		V1C16,0.447,15.553,0,15,0z M5,12H3V5h2V12z M4,4C3.447,4,3,3.553,3,3s0.447-1,1-1s1,0.447,1,1S4.553,4,4,4z M13,12h-2V9
		c0-0.939-0.25-2-1.25-2C8.625,7,8,8,8,9v3H6.016c0,0,0.047-7,0.016-7H8v1.5c0.305-0.671,0.938-1.312,1.854-1.438
		C11.795,4.798,13,5.824,13,7.974V12z"/>
</g>
<g>
</g>
<g>
</g>
<g>
</g>
<g>
</g>
<g>
</g>
<g>
</g>
<g>
</g>
<g>
</g>
<g>
</g>
<g>
</g>
<g>
</g>
<g>
</g>
<g>
</g>
<g>
</g>
<g>
</g>
</svg>
