<?xml version="1.0" encoding="iso-8859-1"?>
<!-- Generator: Adobe Illustrator 16.0.0, SVG Export Plug-In . SVG Version: 6.00 Build 0)  -->
<!DOCTYPE svg PUBLIC "-//W3C//DTD SVG 1.1//EN" "http://www.w3.org/Graphics/SVG/1.1/DTD/svg11.dtd">
<svg version="1.1" id="Layer_1" xmlns="http://www.w3.org/2000/svg" xmlns:xlink="http://www.w3.org/1999/xlink" x="0px" y="0px"
	 width="15.991px" height="15.988px" viewBox="0 0 15.991 15.988" style="enable-background:new 0 0 15.991 15.988;"
	 xml:space="preserve">
<g id="Rss_1">
	<path d="M0.502,8.503C0.227,8.485,0,8.263,0,7.986V5.933c0-0.277,0.227-0.502,0.502-0.488c2.711,0.127,5.156,1.281,6.956,3.084
		c1.804,1.805,2.958,4.248,3.087,6.959c0.013,0.275-0.211,0.5-0.488,0.5H7.99c-0.276,0-0.499-0.225-0.518-0.5
		c-0.121-1.818-0.884-3.513-2.179-4.803C4.002,9.388,2.309,8.625,0.502,8.503z M4,13.782c-0.001,0.549-0.223,1.206-0.586,1.206
		H3.412c-0.362,1-0.859,0.784-1.413,0.784c-0.553,0-1.047-0.125-1.412-0.487C0.226,14.924,0,14.479,0,13.93
		c0-0.55,0.226-1.02,0.587-1.38c0.365-0.364,0.859-0.572,1.412-0.572c0.554,0,1.048,0.127,1.413,0.492
		C3.777,12.83,3.999,13.232,4,13.782z M0,2.546V0.493C0,0.216,0.229-0.008,0.505,0c4.209,0.132,8.012,1.896,10.8,4.687
		c2.787,2.787,4.553,6.592,4.685,10.801c0.009,0.275-0.214,0.5-0.491,0.5h-2.064c-0.276,0-0.499-0.224-0.51-0.5
		C12.668,8.75,7.235,3.318,0.505,3.056C0.229,3.044,0,2.822,0,2.546z"/>
</g>
<g>
</g>
<g>
</g>
<g>
</g>
<g>
</g>
<g>
</g>
<g>
</g>
<g>
</g>
<g>
</g>
<g>
</g>
<g>
</g>
<g>
</g>
<g>
</g>
<g>
</g>
<g>
</g>
<g>
</g>
</svg>
