<?xml version="1.0" encoding="iso-8859-1"?>
<!-- Generator: Adobe Illustrator 16.0.0, SVG Export Plug-In . SVG Version: 6.00 Build 0)  -->
<!DOCTYPE svg PUBLIC "-//W3C//DTD SVG 1.1//EN" "http://www.w3.org/Graphics/SVG/1.1/DTD/svg11.dtd">
<svg version="1.1" id="Layer_1" xmlns="http://www.w3.org/2000/svg" xmlns:xlink="http://www.w3.org/1999/xlink" x="0px" y="0px"
	 width="15.334px" height="16px" viewBox="0 0 15.334 16" style="enable-background:new 0 0 15.334 16;" xml:space="preserve">
<g id="Skype_1">
	<path d="M14.893,9.698c0.11-0.52,0.17-1.06,0.17-1.615c0-4.155-3.274-7.524-7.314-7.524c-0.426,0-0.844,0.038-1.25,0.11
		C5.844,0.245,5.071,0,4.241,0C1.899,0,0,1.953,0,4.363c0,0.806,0.214,1.56,0.583,2.208C0.486,7.06,0.436,7.565,0.436,8.083
		c0,4.156,3.273,7.525,7.312,7.525c0.458,0,0.905-0.044,1.34-0.126C9.685,15.812,10.367,16,11.094,16c2.342,0,4.24-1.953,4.24-4.363
		C15.334,10.94,15.175,10.282,14.893,9.698z M11.499,11.68c-0.338,0.492-0.838,0.883-1.484,1.16
		c-0.643,0.273-1.412,0.413-2.287,0.413c-1.05,0-1.931-0.189-2.617-0.565c-0.491-0.271-0.896-0.643-1.205-1.1
		c-0.311-0.46-0.468-0.918-0.468-1.358c0-0.276,0.103-0.515,0.306-0.712c0.2-0.193,0.456-0.292,0.763-0.292
		c0.251,0,0.468,0.078,0.645,0.231c0.168,0.147,0.312,0.364,0.429,0.645c0.129,0.306,0.271,0.562,0.42,0.767
		c0.144,0.195,0.351,0.359,0.613,0.488c0.266,0.128,0.622,0.194,1.062,0.194c0.604,0,1.101-0.133,1.473-0.395
		c0.364-0.257,0.542-0.563,0.542-0.939c0-0.297-0.093-0.53-0.282-0.714c-0.2-0.191-0.463-0.341-0.781-0.442
		C8.294,8.954,7.842,8.839,7.284,8.719C6.525,8.551,5.88,8.353,5.367,8.128C4.844,7.898,4.42,7.581,4.111,7.182
		C3.797,6.777,3.638,6.271,3.638,5.674c0-0.568,0.167-1.08,0.497-1.522c0.327-0.438,0.804-0.78,1.419-1.015
		C6.161,2.907,6.883,2.789,7.7,2.789c0.652,0,1.228,0.077,1.707,0.231c0.481,0.154,0.888,0.362,1.207,0.62
		c0.322,0.258,0.562,0.534,0.712,0.821c0.15,0.291,0.229,0.58,0.229,0.858c0,0.27-0.102,0.514-0.301,0.727
		c-0.2,0.214-0.452,0.323-0.75,0.323c-0.271,0-0.483-0.068-0.631-0.202C9.736,6.043,9.594,5.85,9.437,5.57
		C9.254,5.214,9.033,4.933,8.78,4.734c-0.246-0.192-0.656-0.29-1.221-0.29c-0.524,0-0.95,0.108-1.267,0.322
		C5.987,4.973,5.839,5.208,5.839,5.487c0,0.172,0.048,0.315,0.146,0.438c0.104,0.131,0.251,0.245,0.436,0.34
		c0.192,0.101,0.39,0.179,0.588,0.236C7.213,6.56,7.554,6.645,8.021,6.756c0.592,0.132,1.136,0.277,1.616,0.436
		c0.487,0.161,0.909,0.358,1.253,0.589c0.349,0.233,0.627,0.535,0.823,0.896c0.197,0.36,0.298,0.807,0.298,1.325
		C12.012,10.62,11.839,11.185,11.499,11.68z"/>
</g>
<g>
</g>
<g>
</g>
<g>
</g>
<g>
</g>
<g>
</g>
<g>
</g>
<g>
</g>
<g>
</g>
<g>
</g>
<g>
</g>
<g>
</g>
<g>
</g>
<g>
</g>
<g>
</g>
<g>
</g>
</svg>
