<?xml version="1.0" encoding="iso-8859-1"?>
<!-- Generator: Adobe Illustrator 16.0.0, SVG Export Plug-In . SVG Version: 6.00 Build 0)  -->
<!DOCTYPE svg PUBLIC "-//W3C//DTD SVG 1.1//EN" "http://www.w3.org/Graphics/SVG/1.1/DTD/svg11.dtd">
<svg version="1.1" id="Layer_1" xmlns="http://www.w3.org/2000/svg" xmlns:xlink="http://www.w3.org/1999/xlink" x="0px" y="0px"
	 width="16px" height="16px" viewBox="0 0 16 16" style="enable-background:new 0 0 16 16;" xml:space="preserve">
<g id="Skype_2">
	<path d="M10.103,7.862c-0.225-0.144-0.5-0.267-0.816-0.368C8.971,7.396,8.617,7.305,8.231,7.223C7.927,7.152,7.703,7.1,7.57,7.063
		C7.441,7.027,7.313,6.979,7.187,6.916c-0.12-0.06-0.216-0.131-0.284-0.213C6.84,6.627,6.808,6.537,6.808,6.43
		c0-0.174,0.097-0.322,0.297-0.45c0.206-0.134,0.483-0.202,0.826-0.202c0.367,0,0.635,0.061,0.795,0.182
		c0.165,0.123,0.31,0.299,0.428,0.522c0.104,0.175,0.195,0.296,0.285,0.374C9.535,6.939,9.673,6.98,9.851,6.98
		c0.194,0,0.358-0.068,0.489-0.201c0.129-0.133,0.195-0.285,0.195-0.454c0-0.175-0.051-0.354-0.148-0.536
		c-0.098-0.18-0.255-0.353-0.464-0.514S9.449,4.984,9.134,4.889C8.822,4.791,8.446,4.743,8.022,4.743
		c-0.534,0-1.004,0.074-1.4,0.218C6.22,5.107,5.909,5.32,5.696,5.594C5.481,5.871,5.373,6.191,5.373,6.546
		c0,0.374,0.103,0.69,0.308,0.942C5.883,7.738,6.159,7.937,6.5,8.08c0.335,0.141,0.755,0.264,1.25,0.369
		c0.364,0.074,0.659,0.147,0.875,0.214c0.209,0.063,0.38,0.156,0.509,0.276C9.259,9.054,9.318,9.2,9.318,9.386
		c0,0.234-0.115,0.427-0.353,0.587c-0.243,0.164-0.566,0.246-0.961,0.246c-0.287,0-0.52-0.041-0.692-0.121
		c-0.172-0.08-0.307-0.183-0.4-0.305C6.814,9.665,6.724,9.505,6.638,9.313C6.562,9.139,6.469,9.002,6.358,8.91
		c-0.114-0.096-0.256-0.145-0.42-0.145c-0.199,0-0.366,0.062-0.498,0.183C5.308,9.072,5.242,9.221,5.242,9.393
		c0,0.276,0.102,0.562,0.304,0.85c0.202,0.286,0.466,0.518,0.786,0.688c0.448,0.235,1.023,0.354,1.707,0.354
		c0.57,0,1.073-0.088,1.491-0.258c0.423-0.174,0.749-0.418,0.968-0.726c0.223-0.31,0.336-0.663,0.336-1.049
		c0-0.324-0.065-0.603-0.195-0.829C10.511,8.197,10.33,8.009,10.103,7.862z"/>
	<path d="M8,0C3.582,0,0,3.582,0,8s3.582,8,8,8s8-3.582,8-8S12.418,0,8,0z M10.234,13c-0.474,0-0.918-0.118-1.309-0.323
		c-0.282,0.051-0.574,0.078-0.873,0.078c-2.634,0-4.769-2.104-4.769-4.702c0-0.324,0.032-0.641,0.097-0.945
		C3.14,6.702,3,6.23,3,5.727C3,4.221,4.238,3,5.767,3c0.54,0,1.044,0.152,1.472,0.418C7.503,3.373,7.774,3.35,8.053,3.35
		c2.635,0,4.77,2.105,4.77,4.703c0,0.347-0.038,0.684-0.11,1.008C12.896,9.427,13,9.838,13,10.273C13,11.779,11.762,13,10.234,13z"
		/>
</g>
<g>
</g>
<g>
</g>
<g>
</g>
<g>
</g>
<g>
</g>
<g>
</g>
<g>
</g>
<g>
</g>
<g>
</g>
<g>
</g>
<g>
</g>
<g>
</g>
<g>
</g>
<g>
</g>
<g>
</g>
</svg>
