<?xml version="1.0" encoding="iso-8859-1"?>
<!-- Generator: Adobe Illustrator 16.0.0, SVG Export Plug-In . SVG Version: 6.00 Build 0)  -->
<!DOCTYPE svg PUBLIC "-//W3C//DTD SVG 1.1//EN" "http://www.w3.org/Graphics/SVG/1.1/DTD/svg11.dtd">
<svg version="1.1" id="Layer_1" xmlns="http://www.w3.org/2000/svg" xmlns:xlink="http://www.w3.org/1999/xlink" x="0px" y="0px"
	 width="16px" height="16px" viewBox="0 0 16 16" style="enable-background:new 0 0 16 16;" xml:space="preserve">
<path id="Stumble_Upon_2" d="M15,0H1C0.447,0,0,0.447,0,1v14c0,0.553,0.447,1,1,1h14c0.553,0,1-0.447,1-1V1C16,0.447,15.553,0,15,0z
	 M8,5.023c-0.348,0-1,0.277-1,0.621v3.711C7,10.814,5.98,12,4.5,12S2,10.814,2,9.355V8h2v1.355c0,0.344,0.152,0.621,0.5,0.621
	S5,9.699,5,9.355V5.645C5,4.186,6.52,3,8,3s3,1.186,3,2.645v0.706L9.792,6.741L9,6.351V5.645C9,5.301,8.348,5.023,8,5.023z
	 M14,9.355C14,10.814,12.98,12,11.5,12S9,10.814,9,9.355V7.771l0.792,0.39L11,7.771v1.585c0,0.344,0.152,0.621,0.5,0.621
	S12,9.699,12,9.355V8h2V9.355z"/>
<g>
</g>
<g>
</g>
<g>
</g>
<g>
</g>
<g>
</g>
<g>
</g>
<g>
</g>
<g>
</g>
<g>
</g>
<g>
</g>
<g>
</g>
<g>
</g>
<g>
</g>
<g>
</g>
<g>
</g>
</svg>
