<?xml version="1.0" encoding="iso-8859-1"?>
<!-- Generator: Adobe Illustrator 16.0.0, SVG Export Plug-In . SVG Version: 6.00 Build 0)  -->
<!DOCTYPE svg PUBLIC "-//W3C//DTD SVG 1.1//EN" "http://www.w3.org/Graphics/SVG/1.1/DTD/svg11.dtd">
<svg version="1.1" id="Layer_1" xmlns="http://www.w3.org/2000/svg" xmlns:xlink="http://www.w3.org/1999/xlink" x="0px" y="0px"
	 width="16px" height="16px" viewBox="0 0 16 16" style="enable-background:new 0 0 16 16;" xml:space="preserve">
<g id="Twitter_2">
	<path d="M15,0H1C0.447,0,0,0.447,0,1v14c0,0.553,0.447,1,1,1h14c0.553,0,1-0.447,1-1V1C16,0.447,15.553,0,15,0z M14,14H2V2h12V14z"
		/>
	<path d="M2.994,11.093C3.887,11.664,4.952,12,6.092,12c3.716,0,5.748-3.077,5.748-5.746c0-0.088-0.002-0.176-0.006-0.262
		c0.396-0.285,0.738-0.641,1.009-1.045c-0.362,0.16-0.751,0.269-1.159,0.318c0.416-0.25,0.736-0.646,0.888-1.117
		c-0.391,0.231-0.823,0.399-1.282,0.49C10.92,4.245,10.396,4,9.814,4c-1.115,0-2.02,0.904-2.02,2.02
		c0,0.158,0.018,0.312,0.053,0.461C6.17,6.396,4.682,5.592,3.686,4.37C3.512,4.668,3.412,5.016,3.412,5.385
		c0,0.701,0.158,1.318,0.7,1.682C3.781,7.056,4,6.965,3,6.812c0,0.01,0,0.019,0,0.027c0,0.978,0.894,1.793,1.817,1.979
		C4.648,8.865,4.568,8.891,4.385,8.891c-0.131,0-0.207-0.014-0.331-0.037c0.257,0.803,1.027,1.387,1.911,1.402
		c-0.691,0.541-1.549,0.865-2.496,0.865C3.307,11.121,3.151,11.111,2.994,11.093z"/>
</g>
<g>
</g>
<g>
</g>
<g>
</g>
<g>
</g>
<g>
</g>
<g>
</g>
<g>
</g>
<g>
</g>
<g>
</g>
<g>
</g>
<g>
</g>
<g>
</g>
<g>
</g>
<g>
</g>
<g>
</g>
</svg>
