<?xml version="1.0" encoding="iso-8859-1"?>
<!-- Generator: Adobe Illustrator 16.0.0, SVG Export Plug-In . SVG Version: 6.00 Build 0)  -->
<!DOCTYPE svg PUBLIC "-//W3C//DTD SVG 1.1//EN" "http://www.w3.org/Graphics/SVG/1.1/DTD/svg11.dtd">
<svg version="1.1" id="Layer_1" xmlns="http://www.w3.org/2000/svg" xmlns:xlink="http://www.w3.org/1999/xlink" x="0px" y="0px"
	 width="16px" height="16px" viewBox="0 0 16 16" style="enable-background:new 0 0 16 16;" xml:space="preserve">
<g id="Vimeo_2">
	<path d="M15,0H1C0.447,0,0,0.447,0,1v14c0,0.553,0.447,1,1,1h14c0.553,0,1-0.447,1-1V1C16,0.447,15.553,0,15,0z M14,14H2V2h12V14z"
		/>
	<path d="M4.363,6.95c0.251,0.271,1.206,3.544,1.524,4.147c0.278,0.53,1.046,1.23,1.888,0.73c0.84-0.5,3.638-2.689,4.139-5.274
		c0.5-2.585-3.366-2.044-3.775,0.208c1.023-0.563,1.569,0.229,1.046,1.126C8.662,8.785,8.184,9.369,7.934,9.369
		c-0.249,0-0.441-0.601-0.728-1.648C6.91,6.637,6.912,4.686,5.684,4.906C4.523,5.115,3,6.783,3,6.783l0.363,0.438
		C3.363,7.221,4.113,6.678,4.363,6.95z"/>
</g>
<g>
</g>
<g>
</g>
<g>
</g>
<g>
</g>
<g>
</g>
<g>
</g>
<g>
</g>
<g>
</g>
<g>
</g>
<g>
</g>
<g>
</g>
<g>
</g>
<g>
</g>
<g>
</g>
<g>
</g>
</svg>
