<?xml version="1.0" encoding="iso-8859-1"?>
<!-- Generator: Adobe Illustrator 16.0.0, SVG Export Plug-In . SVG Version: 6.00 Build 0)  -->
<!DOCTYPE svg PUBLIC "-//W3C//DTD SVG 1.1//EN" "http://www.w3.org/Graphics/SVG/1.1/DTD/svg11.dtd">
<svg version="1.1" id="Layer_1" xmlns="http://www.w3.org/2000/svg" xmlns:xlink="http://www.w3.org/1999/xlink" x="0px" y="0px"
	 width="16px" height="16px" viewBox="0 0 16 16" style="enable-background:new 0 0 16 16;" xml:space="preserve">
<g id="Vimeo_4">
	<path d="M16,1c0-0.553-0.447-1-1-1H1C0.448,0,0,0.447,0,1v14c0,0.553,0.448,1,1,1h14c0.553,0,1-0.447,1-1V1z M13.94,5.4
		c-0.671,3.607-4.417,6.662-5.544,7.36c-1.127,0.697-2.154-0.28-2.528-1.019c-0.426-0.843-1.706-5.411-2.041-5.789
		c-0.335-0.379-1.34,0.378-1.34,0.378L2,5.721c0,0,2.041-2.328,3.594-2.619c1.646-0.309,1.645,2.416,2.04,3.928
		c0.383,1.462,0.641,2.299,0.975,2.299c0.334,0,0.975-0.814,1.676-2.066c0.701-1.251-0.031-2.357-1.401-1.57
		C9.432,2.549,14.609,1.793,13.94,5.4z"/>
</g>
<g>
</g>
<g>
</g>
<g>
</g>
<g>
</g>
<g>
</g>
<g>
</g>
<g>
</g>
<g>
</g>
<g>
</g>
<g>
</g>
<g>
</g>
<g>
</g>
<g>
</g>
<g>
</g>
<g>
</g>
</svg>
