<?xml version="1.0" encoding="iso-8859-1"?>
<!-- Generator: Adobe Illustrator 16.0.0, SVG Export Plug-In . SVG Version: 6.00 Build 0)  -->
<!DOCTYPE svg PUBLIC "-//W3C//DTD SVG 1.1//EN" "http://www.w3.org/Graphics/SVG/1.1/DTD/svg11.dtd">
<svg version="1.1" id="Layer_1" xmlns="http://www.w3.org/2000/svg" xmlns:xlink="http://www.w3.org/1999/xlink" x="0px" y="0px"
	 width="16px" height="14px" viewBox="0 0 16 14" style="enable-background:new 0 0 16 14;" xml:space="preserve">
<g id="Vimeo_1">
	<path d="M15.92,3.36c-0.894,5.051-5.89,9.327-7.392,10.306c-1.503,0.975-2.873-0.393-3.37-1.427
		c-0.569-1.181-2.274-7.576-2.722-8.105s-1.787,0.53-1.787,0.53L0,3.81c0,0,2.722-3.259,4.792-3.667
		c2.195-0.432,2.193,3.381,2.721,5.498c0.51,2.048,0.854,3.219,1.3,3.219c0.446,0,1.3-1.141,2.233-2.892
		c0.936-1.752-0.04-3.3-1.867-2.2C9.909-0.631,16.813-1.688,15.92,3.36z"/>
</g>
<g>
</g>
<g>
</g>
<g>
</g>
<g>
</g>
<g>
</g>
<g>
</g>
<g>
</g>
<g>
</g>
<g>
</g>
<g>
</g>
<g>
</g>
<g>
</g>
<g>
</g>
<g>
</g>
<g>
</g>
</svg>
